<svg width="88" height="87" viewBox="0 0 88 87" fill="none" xmlns="http://www.w3.org/2000/svg">
<g filter="url(#filter0_d_1_1755)">
<path d="M16.8118 18.4554C18.0258 13.0676 23.3777 9.68411 28.7654 10.8981L70.7137 20.3504C76.1014 21.5644 79.4849 26.9162 78.2709 32.3039L69.2583 72.3011C68.0443 77.6889 62.6925 81.0724 57.3047 79.8583L15.3565 70.4061C9.9687 69.1921 6.58522 63.8403 7.79925 58.4525L16.8118 18.4554Z" fill="url(#paint0_linear_1_1755)"/>
</g>
<path d="M47.7316 40.7985L42.1779 65.4456L36.7041 64.2122L41.1812 44.3433L36.8264 43.3621L37.9031 38.5839L47.7316 40.7985Z" fill="#DD468F"/>
<path d="M17.0316 17.4798C18.2457 12.092 23.5975 8.70853 28.9852 9.92255L70.9335 19.3748C76.3212 20.5888 79.7047 25.9406 78.4907 31.3284L76.952 38.1571L15.4929 24.3086L17.0316 17.4798Z" fill="url(#paint1_linear_1_1755)"/>
<circle cx="34.8112" cy="20.461" r="4" transform="rotate(12.6984 34.8112 20.461)" fill="#862855"/>
<path d="M35.2781 9.29044C35.5209 8.21288 36.5913 7.53619 37.6688 7.77899C38.7464 8.0218 39.4231 9.09216 39.1803 10.1697L36.7623 20.9007C36.5195 21.9782 35.4491 22.6549 34.3715 22.4121C33.294 22.1693 32.6173 21.0989 32.8601 20.0214L35.2781 9.29044Z" fill="#D9D9D9"/>
<circle cx="61.1508" cy="26.3961" r="4" transform="rotate(12.6984 61.1508 26.3961)" fill="#862855"/>
<path d="M61.6177 15.2255C61.8605 14.1479 62.9309 13.4712 64.0084 13.7141C65.086 13.9569 65.7627 15.0272 65.5199 16.1048L63.1019 26.8357C62.8591 27.9133 61.7887 28.59 60.7111 28.3472C59.6336 28.1044 58.9569 27.034 59.1997 25.9564L61.6177 15.2255Z" fill="#D9D9D9"/>
<defs>
<filter id="filter0_d_1_1755" x="5.55248" y="9.65137" width="74.9652" height="73.4537" filterUnits="userSpaceOnUse" color-interpolation-filters="sRGB">
<feFlood flood-opacity="0" result="BackgroundImageFix"/>
<feColorMatrix in="SourceAlpha" type="matrix" values="0 0 0 0 0 0 0 0 0 0 0 0 0 0 0 0 0 0 127 0" result="hardAlpha"/>
<feOffset dy="1"/>
<feGaussianBlur stdDeviation="1"/>
<feComposite in2="hardAlpha" operator="out"/>
<feColorMatrix type="matrix" values="0 0 0 0 0 0 0 0 0 0 0 0 0 0 0 0 0 0 0.25 0"/>
<feBlend mode="normal" in2="BackgroundImageFix" result="effect1_dropShadow_1_1755"/>
<feBlend mode="normal" in="SourceGraphic" in2="effect1_dropShadow_1_1755" result="shape"/>
</filter>
<linearGradient id="paint0_linear_1_1755" x1="21.8158" y1="23.5434" x2="42.5097" y2="75.1775" gradientUnits="userSpaceOnUse">
<stop stop-color="#ECEAFE"/>
<stop offset="1" stop-color="white"/>
</linearGradient>
<linearGradient id="paint1_linear_1_1755" x1="49.9594" y1="14.6487" x2="46.2224" y2="31.2329" gradientUnits="userSpaceOnUse">
<stop stop-color="#DD468F"/>
<stop offset="1" stop-color="#BB3777"/>
</linearGradient>
</defs>
</svg>
