<svg width="788" height="475" viewBox="0 0 788 475" fill="none" xmlns="http://www.w3.org/2000/svg">
<path d="M-1.44423e-05 67.5359L-2.29805e-06 405.595C-1.02887e-06 440.925 23.52 469.565 52.5333 469.565L735.467 469.565C764.48 469.565 788 440.925 788 405.595L788 67.5358C788 32.206 764.48 3.56542 735.467 3.56542L52.5333 3.56546C23.52 3.56546 -1.57115e-05 32.206 -1.44423e-05 67.5359Z" fill="#E3E3E8"/>
<path d="M-1.44197e-05 68.1658L-2.28475e-06 405.965C-1.02292e-06 441.091 23.3927 469.565 52.2492 469.565L734.751 469.565C763.607 469.565 787 441.091 787 405.965L787 68.1657C787 33.0402 763.607 4.56542 734.751 4.56542L52.2491 4.56546C23.3927 4.56546 -1.56815e-05 33.0403 -1.44197e-05 68.1658Z" fill="#E4E4E9"/>
<path d="M-1.4428e-05 67.9339L-2.27642e-06 406.197C-1.01919e-06 441.194 23.295 469.565 52.0309 469.565L734.969 469.565C763.705 469.565 787 441.194 787 406.197L787 67.9338C787 32.9364 763.705 4.56542 734.969 4.56542L52.0309 4.56546C23.295 4.56546 -1.56853e-05 32.9365 -1.4428e-05 67.9339Z" fill="#E4E4E9"/>
<path d="M0.999998 405.575L0.999986 67.5558C0.999984 32.7927 24.1855 4.56546 52.7396 4.56546L735.26 4.56542C763.814 4.56542 787 32.7927 787 67.5558L787 405.575C787 440.338 763.814 468.565 735.26 468.565L52.7396 468.565C24.1775 468.565 0.999999 440.338 0.999998 405.575Z" fill="#E5E5EA"/>
<path d="M0.999986 67.3208L0.999998 405.81C0.999999 440.469 24.0668 468.565 52.5213 468.565L735.479 468.565C763.933 468.565 787 440.469 787 405.81L787 67.3208C787 32.6619 763.933 4.56542 735.479 4.56542L52.5212 4.56546C24.0668 4.56546 0.999984 32.662 0.999986 67.3208Z" fill="#E6E6EA"/>
<path d="M0.999998 406.044L0.999986 67.0867C0.999984 32.5814 23.9888 4.56546 52.3027 4.56546L735.697 4.56542C764.011 4.56542 787 32.5813 787 67.0866L787 406.044C787 440.55 764.011 468.565 735.697 468.565L52.3027 468.565C23.9888 468.565 0.999999 440.55 0.999998 406.044Z" fill="#E6E6EB"/>
<path d="M0.999986 67.7191L0.999998 406.412C0.999999 440.738 23.8713 468.565 52.0844 468.565L735.916 468.565C764.129 468.565 787 440.738 787 406.412L787 67.7191C787 33.3926 764.129 5.56542 735.916 5.56542L52.0844 5.56546C23.8713 5.56546 0.999984 33.3926 0.999986 67.7191Z" fill="#E7E7EB"/>
<path d="M0.999986 67.341L0.999998 405.79C0.999999 439.908 23.7409 467.565 51.7932 467.565L735.207 467.565C763.259 467.565 786 439.908 786 405.79L786 67.3409C786 33.2232 763.259 5.56542 735.207 5.56542L51.7932 5.56546C23.7409 5.56546 0.999984 33.2233 0.999986 67.341Z" fill="#E8E8EC"/>
<path d="M0.999986 67.1078L0.999998 406.023C0.999999 440.012 23.6431 467.565 51.5748 467.565L735.425 467.565C763.357 467.565 786 440.012 786 406.023L786 67.1077C786 33.1188 763.357 5.56542 735.425 5.56542L51.5748 5.56546C23.6431 5.56546 0.999984 33.1189 0.999986 67.1078Z" fill="#E8E8EC"/>
<path d="M1.99999 66.8728L2 406.258C2 440.117 24.5165 467.565 52.292 467.565L735.708 467.565C763.483 467.565 786 440.117 786 406.258L786 66.8727C786 33.0136 763.483 5.56542 735.708 5.56542L52.292 5.56546C24.5165 5.56546 1.99998 33.0137 1.99999 66.8728Z" fill="#E9E9ED"/>
<path d="M1.99999 67.5051L2 406.626C2 440.282 24.4184 467.565 52.073 467.565L735.927 467.565C763.582 467.565 786 440.282 786 406.626L786 67.5051C786 33.849 763.582 6.56542 735.927 6.56542L52.073 6.56546C24.4184 6.56546 1.99998 33.8491 1.99999 67.5051Z" fill="#EAEAEE"/>
<path d="M1.99999 67.1295L2 406.001C2 439.45 24.3169 466.565 51.8462 466.565L736.154 466.565C763.683 466.565 786 439.45 786 406.001L786 67.1294C786 33.6808 763.683 6.56542 736.154 6.56542L51.8461 6.56546C24.3169 6.56546 1.99998 33.6809 1.99999 67.1295Z" fill="#EBEBEE"/>
<path d="M1.99999 66.8942L2 406.237C2 439.555 24.1905 466.565 51.5639 466.565L735.436 466.565C762.81 466.565 785 439.555 785 406.237L785 66.8941C785 33.5755 762.809 6.56542 735.436 6.56542L51.5639 6.56546C24.1905 6.56546 1.99998 33.5756 1.99999 66.8942Z" fill="#EBEBEF"/>
<path d="M1.99999 66.6583L2 406.473C2 439.661 24.0925 466.565 51.345 466.565L735.655 466.565C762.907 466.565 785 439.661 785 406.473L785 66.6583C785 33.4699 762.907 6.56542 735.655 6.56542L51.345 6.56546C24.0925 6.56546 1.99998 33.4699 1.99999 66.6583Z" fill="#ECECEF"/>
<path d="M2.99999 67.2932L3 406.838C3 439.824 24.9661 466.565 52.0627 466.565L735.937 466.565C763.034 466.565 785 439.824 785 406.838L785 67.2931C785 34.3064 763.034 7.56542 735.937 7.56542L52.0627 7.56546C24.9661 7.56546 2.99998 34.3065 2.99999 67.2932Z" fill="#EDEDF0"/>
<path d="M2.99999 66.9174L3 406.213C3 438.993 24.8645 465.565 51.8356 465.565L736.164 465.565C763.136 465.565 785 438.993 785 406.213L785 66.9174C785 34.1382 763.136 7.56542 736.164 7.56542L51.8356 7.56546C24.8644 7.56546 2.99998 34.1382 2.99999 66.9174Z" fill="#EDEDF0"/>
<path d="M2.99999 66.6812L3 406.45C3 439.098 24.7663 465.565 51.6164 465.565L736.384 465.565C763.234 465.565 785 439.098 785 406.45L785 66.6812C785 34.0325 763.234 7.56542 736.384 7.56542L51.6164 7.56546C24.7663 7.56546 2.99998 34.0325 2.99999 66.6812Z" fill="#EEEEF1"/>
<path d="M2.99999 66.4459L3 406.685C3 439.204 24.6678 465.565 51.3965 465.565L736.604 465.565C763.332 465.565 785 439.204 785 406.685L785 66.4458C785 33.9271 763.332 7.56542 736.604 7.56542L51.3965 7.56546C24.6678 7.56546 2.99998 33.9271 2.99999 66.4459Z" fill="#EFEFF2"/>
<path d="M2.99999 67.0806L3 407.05C3 439.367 24.5419 465.565 51.1152 465.565L735.885 465.565C762.458 465.565 784 439.367 784 407.05L784 67.0806C784 34.7635 762.458 8.56542 735.885 8.56542L51.1152 8.56546C24.5419 8.56546 2.99998 34.7636 2.99999 67.0806Z" fill="#EFEFF2"/>
<path d="M3.99999 66.8337L4 407.297C4 439.478 25.4125 465.565 51.8263 465.565L736.174 465.565C762.587 465.565 784 439.478 784 407.297L784 66.8337C784 34.653 762.587 8.56542 736.174 8.56542L51.8263 8.56546C25.4125 8.56546 3.99998 34.653 3.99999 66.8337Z" fill="#F0F0F3"/>
<path d="M3.99999 66.4704L4 406.661C4 438.641 25.3143 464.565 51.6068 464.565L736.393 464.565C762.686 464.565 784 438.64 784 406.66L784 66.4704C784 34.4903 762.686 8.56542 736.393 8.56542L51.6068 8.56546C25.3143 8.56546 3.99998 34.4904 3.99999 66.4704Z" fill="#F1F1F3"/>
<path d="M3.99999 66.2328L4 406.898C4 438.747 25.2157 464.565 51.3866 464.565L736.613 464.565C762.784 464.565 784 438.747 784 406.898L784 66.2328C784 34.384 762.784 8.56542 736.613 8.56542L51.3866 8.56546C25.2157 8.56546 3.99998 34.384 3.99999 66.2328Z" fill="#F1F1F4"/>
<path d="M3.99999 65.9961L4 407.135C4 438.853 25.1172 464.565 51.1667 464.565L736.833 464.565C762.883 464.565 784 438.853 784 407.135L784 65.996C784 34.278 762.883 8.56542 736.833 8.56542L51.1667 8.56546C25.1172 8.56546 3.99998 34.278 3.99999 65.9961Z" fill="#F2F2F4"/>
<path d="M3.99999 66.6223L4 407.509C4 439.02 24.9881 464.565 50.8783 464.565L736.122 464.565C762.012 464.565 783 439.02 783 407.509L783 66.6223C783 35.1107 762.012 9.56542 736.122 9.56542L50.8783 9.56546C24.9881 9.56546 3.99998 35.1107 3.99999 66.6223Z" fill="#F3F3F5"/>
<path d="M3.99999 66.259L4 406.872C4 438.183 24.8896 463.565 50.6582 463.565L736.342 463.565C762.11 463.565 783 438.183 783 406.872L783 66.259C783 34.948 762.11 9.56542 736.342 9.56542L50.6582 9.56546C24.8896 9.56546 3.99998 34.948 3.99999 66.259Z" fill="#F3F3F5"/>
<path d="M4.99999 66.0218L5 407.109C5 438.289 25.7641 463.565 51.3779 463.565L736.622 463.565C762.236 463.565 783 438.289 783 407.109L783 66.0218C783 34.8418 762.236 9.56542 736.622 9.56542L51.3778 9.56546C25.7641 9.56546 4.99998 34.8418 4.99999 66.0218Z" fill="#F4F4F6"/>
<path d="M4.99999 65.783L5 407.348C5 438.396 25.6655 463.565 51.1577 463.565L736.842 463.565C762.335 463.565 783 438.396 783 407.348L783 65.7829C783 34.7349 762.335 9.56542 736.842 9.56542L51.1577 9.56546C25.6655 9.56546 4.99998 34.7349 4.99999 65.783Z" fill="#F5F5F7"/>
<path d="M4.99999 66.4105L5 407.72C5 438.563 25.5632 463.565 50.9292 463.565L737.071 463.565C762.437 463.565 783 438.563 783 407.72L783 66.4105C783 35.5681 762.437 10.5654 737.071 10.5654L50.9292 10.5655C25.5632 10.5655 4.99998 35.5681 4.99999 66.4105Z" fill="#F5F5F7"/>
<path d="M5 407.081L4.99999 66.0496C4.99998 35.4268 25.4548 10.5655 50.6498 10.5655L736.35 10.5654C761.545 10.5654 782 35.4268 782 66.0495L782 407.081C782 437.704 761.545 462.565 736.35 462.565L50.6498 462.565C25.4548 462.565 5 437.704 5 407.081Z" fill="#F6F6F8"/>
<path d="M4.99999 65.8104L5 407.321C5 437.831 25.3392 462.565 50.4288 462.565L736.571 462.565C761.661 462.565 782 437.831 782 407.321L782 65.8103C782 35.2994 761.661 10.5654 736.571 10.5654L50.4288 10.5655C25.3392 10.5655 4.99998 35.2994 4.99999 65.8104Z" fill="#F7F7F8"/>
<path d="M5.99999 65.5706L6 407.56C6 437.939 26.2143 462.565 51.1499 462.565L736.85 462.565C761.786 462.565 782 437.939 782 407.56L782 65.5705C782 35.192 761.786 10.5654 736.85 10.5654L51.1499 10.5655C26.2143 10.5655 5.99998 35.1921 5.99999 65.5706Z" fill="#F7F7F9"/>
<path d="M5.99999 66.2006L6 407.93C6 438.104 26.1119 462.565 50.9211 462.565L737.079 462.565C761.888 462.565 782 438.104 782 407.93L782 66.2006C782 36.0264 761.888 11.5654 737.079 11.5654L50.9211 11.5655C26.1119 11.5655 5.99998 36.0265 5.99999 66.2006Z" fill="#F8F8F9"/>
<path d="M6 407.291L5.99999 65.8398C5.99998 35.8869 26.0311 11.5655 50.7002 11.5655L737.3 11.5654C761.969 11.5654 782 35.8868 782 65.8397L782 407.291C782 437.244 761.969 461.565 737.3 461.565L50.7002 461.565C26.0311 461.565 6 437.244 6 407.291Z" fill="#F9F9FA"/>
<path d="M5.99999 65.5996L6 407.531C6 437.374 25.9138 461.565 50.4787 461.565L737.521 461.565C762.086 461.565 782 437.373 782 407.531L782 65.5996C782 35.7573 762.086 11.5654 737.521 11.5654L50.4787 11.5655C25.9138 11.5655 5.99998 35.7574 5.99999 65.5996Z" fill="#FAFAFB"/>
<path d="M5.99999 65.3602L6 407.771C6 437.481 25.7892 461.565 50.2003 461.565L736.8 461.565C761.211 461.565 781 437.481 781 407.771L781 65.3601C781 35.6501 761.211 11.5654 736.8 11.5654L50.2003 11.5655C25.7891 11.5655 5.99998 35.6502 5.99999 65.3602Z" fill="#FAFAFB"/>
<path d="M5.99999 65.9902L6 408.141C6 437.646 25.6865 461.565 49.971 461.565L737.029 461.565C761.314 461.565 781 437.646 781 408.141L781 65.9902C781 36.4845 761.314 12.5654 737.029 12.5654L49.971 12.5655C25.6865 12.5655 5.99998 36.4846 5.99999 65.9902Z" fill="#FBFBFC"/>
<path d="M6.99999 65.7492L7 408.382C7 437.754 26.5619 461.565 50.6926 461.565L737.307 461.565C761.438 461.565 781 437.754 781 408.382L781 65.7491C781 36.3765 761.438 12.5654 737.307 12.5654L50.6926 12.5655C26.5618 12.5655 6.99998 36.3766 6.99999 65.7492Z" fill="#FCFCFC"/>
<path d="M6.99999 65.3909L7 407.74C7 436.915 26.4627 460.565 50.4713 460.565L737.529 460.565C761.537 460.565 781 436.915 781 407.74L781 65.3908C781 36.2161 761.537 12.5654 737.529 12.5654L50.4712 12.5655C26.4627 12.5655 6.99998 36.2162 6.99999 65.3909Z" fill="#FCFCFD"/>
<path d="M6.99999 65.1494L7 407.982C7 437.023 26.3635 460.565 50.2497 460.565L737.75 460.565C761.636 460.565 781 437.023 781 407.981L781 65.1493C781 36.108 761.636 12.5654 737.75 12.5654L50.2496 12.5655C26.3635 12.5655 6.99998 36.1081 6.99999 65.1494Z" fill="#FDFDFD"/>
<path d="M6.99999 64.8976L7 408.233C7 437.136 26.2357 460.565 49.9642 460.565L737.036 460.565C760.764 460.565 780 437.136 780 408.233L780 64.8975C780 35.9953 760.764 12.5654 737.036 12.5654L49.9642 12.5655C26.2357 12.5655 6.99998 35.9954 6.99999 64.8976Z" fill="#FEFEFE"/>
<path d="M6.99999 65.5399L7 408.591C7 437.296 26.1362 460.565 49.742 460.565L737.258 460.565C760.864 460.565 780 437.296 780 408.591L780 65.5399C780 36.8352 760.864 13.5654 737.258 13.5654L49.742 13.5655C26.1362 13.5655 6.99998 36.8352 6.99999 65.5399Z" fill="#FEFEFE"/>
<path d="M7.99999 65.1817L8 407.949C8 436.456 27.0122 459.565 50.465 459.565L737.535 459.565C760.988 459.565 780 436.456 780 407.949L780 65.1817C780 36.6748 760.988 13.5654 737.535 13.5654L50.465 13.5655C27.0122 13.5655 7.99998 36.6748 7.99999 65.1817Z" fill="white"/>
<path d="M787.669 170.192L787.669 219.476C786.668 219.476 785.852 218.66 785.852 217.657L785.852 172.011C785.852 171.008 786.668 170.192 787.669 170.192Z" fill="#E3E3E8"/>
<path opacity="0.88" d="M787.669 212.065L787.669 260.565C786.998 260.565 786.457 260.024 786.457 259.353L786.457 213.278C786.457 212.607 786.998 212.065 787.669 212.065Z" fill="#A7A7AA"/>
<path d="M735.393 12.5654L51.6072 12.5654C27.5236 12.5654 8 36.3685 8 65.731L8.00002 405.4C8.00002 434.762 27.5236 458.565 51.6072 458.565L735.393 458.565C759.476 458.565 779 434.762 779 405.4L779 65.731C779 36.3684 759.476 12.5654 735.393 12.5654Z" stroke="#E4E8E9" stroke-width="1.5" stroke-miterlimit="10"/>
<path d="M731.266 26.5655L54.7344 26.5655C34.9988 26.5656 19 46.0269 19 70.0338L19 400.097C19 424.104 34.9989 443.566 54.7344 443.566L731.266 443.566C751.001 443.566 767 424.104 767 400.097L767 70.0337C767 46.0269 751.001 26.5655 731.266 26.5655Z" fill="url(#paint0_linear_337_5266)"/>
<path d="M179.07 2.05867L179.07 5.04951C179.07 5.38433 179.342 5.65576 179.676 5.65576L272.985 5.65576C273.319 5.65576 273.591 5.38433 273.591 5.04951L273.591 2.05866C273.591 1.72384 273.319 1.45241 272.985 1.45241L179.676 1.45242C179.342 1.45242 179.07 1.72385 179.07 2.05867Z" fill="#DCDDE0"/>
<path d="M273.591 2.05859L273.591 4.44318C273.591 4.7746 273.316 5.04943 272.985 5.04943L179.676 5.04944C179.345 5.04944 179.07 4.77461 179.07 4.44319L179.07 2.05859C179.07 1.38768 179.612 0.846095 180.282 0.846095L272.379 0.846091C273.049 0.846091 273.591 1.38767 273.591 2.05859Z" fill="#F5F6FA"/>
<path d="M100.879 471.281L100.879 474.434C100.879 474.724 101.114 474.959 101.404 474.959L126.609 474.959C126.899 474.959 127.135 474.724 127.135 474.434L127.135 471.281C127.135 470.991 126.899 470.756 126.609 470.756L101.404 470.756C101.114 470.756 100.879 470.991 100.879 471.281Z" fill="#D7DADB"/>
<path d="M163.449 471.281L163.449 474.434C163.449 474.724 163.684 474.959 163.974 474.959L225.938 474.959C226.228 474.959 226.463 474.724 226.463 474.434L226.463 471.281C226.463 470.991 226.228 470.756 225.938 470.756L163.974 470.756C163.684 470.756 163.449 470.991 163.449 471.281Z" fill="#D7DADB"/>
<path d="M238.797 471.281L238.797 474.434C238.797 474.724 239.032 474.959 239.322 474.959L301.285 474.959C301.575 474.959 301.81 474.724 301.81 474.434L301.81 471.281C301.81 470.991 301.575 470.756 301.285 470.756L239.322 470.756C239.032 470.756 238.797 470.991 238.797 471.281Z" fill="#D7DADB"/>
<path d="M100.879 472.556L100.879 470.172C100.879 469.84 101.154 469.565 101.485 469.565L126.529 469.565C126.86 469.565 127.135 469.84 127.135 470.172L127.135 472.556C127.135 473.227 126.593 473.769 125.923 473.769L102.091 473.769C101.42 473.769 100.879 473.227 100.879 472.556Z" fill="#F5F6FA"/>
<path d="M163.445 472.556L163.445 470.091C163.445 469.8 163.68 469.565 163.97 469.565L225.934 469.565C226.225 469.565 226.459 469.8 226.459 470.091L226.459 472.556C226.459 473.227 225.918 473.769 225.247 473.769L164.657 473.769C163.987 473.769 163.445 473.227 163.445 472.556Z" fill="#F5F6FA"/>
<path d="M238.797 472.556L238.797 470.091C238.797 469.8 239.031 469.565 239.322 469.565L301.285 469.565C301.576 469.565 301.81 469.8 301.81 470.091L301.81 472.556C301.81 473.227 301.269 473.769 300.599 473.769L240.009 473.769C239.338 473.769 238.797 473.227 238.797 472.556Z" fill="#F5F6FA"/>
<defs>
<linearGradient id="paint0_linear_337_5266" x1="767.008" y1="235.066" x2="19" y2="235.066" gradientUnits="userSpaceOnUse">
<stop stop-color="#F2F2F7"/>
<stop offset="1" stop-color="#F8F8FA"/>
</linearGradient>
</defs>
</svg>
