<svg width="340" height="102" viewBox="0 0 340 102" fill="none" xmlns="http://www.w3.org/2000/svg">
<g clip-path="url(#clip0_1_1544)">
<path d="M182.113 91.4708C181.559 91.3999 181.005 91.3148 180.466 91.2296C180.295 91.2154 180.125 91.2012 179.969 91.1729C180.679 91.2722 181.403 91.3715 182.113 91.4567V91.4708Z" fill="#4416CE"/>
<path d="M339.83 49.1981C339.12 40.4427 336.11 32.4677 330.374 25.7557C325.774 20.3634 319.015 16.2624 312.044 14.8575C304.916 13.4101 297.646 14.3183 291.016 17.0854C290.845 14.2899 289.425 11.7356 287.139 9.94766C286.827 9.70643 286.515 9.46519 286.216 9.22396C286.16 8.96853 286.103 8.69892 286.06 8.44349C285.507 5.81828 284.427 3.5904 282.212 1.88756C278.791 -0.751835 274.133 -0.482219 270.74 1.9869L269.888 2.61127C269.547 2.5687 269.207 2.54032 268.866 2.49775C265.941 2.18556 262.86 3.05117 260.773 5.22229C258.33 7.76236 257.677 11.3241 258.487 14.6872C258.572 15.042 258.7 15.3967 258.799 15.7657L258.941 16.2624C258.898 16.3759 258.842 16.4894 258.799 16.5887C258.728 16.7732 258.643 16.9435 258.572 17.1138C257.62 16.6597 256.655 16.234 255.675 15.8508C246.219 12.1188 235.101 13.0553 225.659 16.3191C220.079 18.2348 214.769 20.8742 209.558 23.6129C207.528 21.6405 205.284 19.8951 202.757 18.4619C198.228 15.8792 193.315 14.4886 188.147 14.0487C178.818 13.2398 169.319 17.2415 162.419 23.3433C159.863 25.5996 157.691 28.1964 155.902 31.0345C152.338 25.032 147.226 19.966 140.894 17.0144C134.959 14.2473 128.47 12.8283 121.896 13.325C115.776 13.779 110.182 15.3826 104.574 17.7949C100.669 19.4694 97.02 21.5979 93.4419 23.8684C92.8172 22.7615 92.093 21.7256 91.1843 20.6188C88.8842 17.8375 85.3487 15.7089 81.7991 15.0136C78.505 14.3609 75.3671 14.7724 72.1582 15.5103L56.3835 19.143C43.335 22.1513 30.2723 25.1455 17.2238 28.1538C15.8465 28.466 14.3982 28.7356 13.0636 29.1755C8.91758 30.5236 5.5809 32.8225 3.01095 36.3275C0.980552 39.0236 0.100238 42.5428 0.000847883 45.9059C-0.0701452 48.7156 0.668183 51.5111 1.26452 54.2356C1.98865 57.4994 2.69858 60.7632 3.42271 64.027C4.70059 69.8024 5.92167 75.5779 7.24214 81.3391C7.98047 84.5745 9.6559 87.4836 11.8709 89.9243C14.9946 93.3584 19.3252 95.1038 23.8403 95.6288C26.5523 95.941 29.321 95.3024 32.0045 94.9051C43.3492 93.1881 54.7081 91.5136 66.0528 89.754C66.4078 89.6973 66.7485 89.6405 67.1035 89.5837C70.6673 90.946 74.2312 92.3224 77.7808 93.6847C79.4847 94.3375 81.1885 95.1179 82.9349 95.6714C86.4278 96.764 90.5312 95.7281 92.9592 92.9752C94.6204 91.1021 95.3871 89.0019 95.5149 86.774C95.8699 87.3984 96.2958 87.9944 96.7928 88.5336C98.6386 90.5345 101.521 91.4568 104.006 92.3792C105.681 93.0036 107.413 93.5144 109.174 93.8834C119.198 96.0261 129.393 94.8625 138.679 90.6196C139.559 90.2223 140.425 89.7682 141.291 89.2999C141.589 90.7473 142.157 91.9535 143.08 93.1313C143.89 94.1814 144.585 94.9335 145.835 95.6288C146.062 95.7565 146.303 95.8558 146.531 95.9552L146.956 96.1396C146.999 96.2248 147.042 96.3099 147.084 96.3951C148.291 98.9919 150.648 100.865 153.388 101.674C156.867 102.696 160.559 101.149 162.831 98.5094C162.887 98.4385 162.944 98.3817 163.001 98.3108C163.186 98.2824 163.356 98.2682 163.526 98.2398C163.725 98.2114 163.938 98.1831 164.137 98.1547C163.981 98.1689 163.824 98.1972 163.668 98.2114C164.676 98.0553 165.5 97.8141 166.693 97.1188C168.751 95.9126 170.37 93.8976 170.981 91.5704C171.25 90.5345 171.321 89.4986 171.236 88.4769C171.946 88.8033 172.656 89.1154 173.394 89.4276C175.709 90.3784 178.009 90.875 180.423 91.244C186.798 92.0387 192.946 91.3717 198.909 88.86C202.771 87.2281 206.349 84.9577 209.416 82.0912C209.473 82.3183 209.53 82.5453 209.601 82.7724C210.481 85.3266 212.128 87.1288 214.428 88.4911C218.106 90.6622 222.181 92.365 226.327 93.3725C236.706 95.9268 247.582 94.8625 257.209 90.2507C263.967 87.0153 269.746 81.5946 273.58 75.1238C278.052 82.0912 284.711 87.5687 292.648 90.0946C299.719 92.3508 307.912 92.1806 314.841 89.456C322.395 86.4902 328.472 81.5946 333.058 74.8967C338.127 67.4894 340.64 58.138 339.788 49.2123L339.83 49.1981Z" fill="#4416CE"/>
<path d="M212.779 45.0402C211.785 40.6696 210.024 36.753 207.511 33.3332C206.744 32.2831 205.893 31.2756 204.984 30.3106C199.787 24.9467 192.943 21.9951 186.014 21.9951C183.587 21.9951 181.159 22.4208 178.83 23.1162C167.826 26.3232 160.031 35.7597 158.214 47.7931C157.958 49.6946 157.773 51.511 157.773 53.3415C157.773 62.6929 161.763 71.5193 168.522 77.238C169.629 78.1604 170.765 78.9834 171.929 79.7071C175.124 81.6938 178.503 82.9425 182.124 83.3824C183.246 83.5527 184.382 83.5527 185.674 83.5527C187.747 83.5527 189.749 83.3824 191.651 82.8574C202.045 80.2606 209.84 72.1153 212.793 60.8624C213.489 58.1804 213.83 55.4985 213.83 52.9016C213.83 50.3048 213.489 47.708 212.793 45.026L212.779 45.0402ZM187.875 38.2998C191.339 39.2505 194.179 41.9041 195.883 45.0686C199.532 51.8515 197.97 60.4793 191.964 65.3607C190.444 66.5953 188.599 67.4893 186.653 67.617C180.505 68.0143 175.621 62.253 174.329 56.7756C173.931 55.1011 173.761 53.3273 173.818 51.4826C174.002 44.1604 179.668 36.0435 187.889 38.314L187.875 38.2998Z" fill="#F7CE46"/>
<path d="M185.662 83.5667C187.735 83.5667 189.737 83.3965 191.64 82.8714C202.033 80.2746 209.828 72.1293 212.782 60.8764C213.477 58.1944 213.818 55.5125 213.818 52.9156C213.818 50.3188 213.477 47.722 212.782 45.04C211.788 40.6694 210.027 36.7529 207.514 33.333C208.21 35.2345 208.82 37.1644 209.346 39.1085C212.327 50.2762 209.8 63.9131 201.479 72.257C196.837 76.9115 190.589 79.7354 184.072 80.4874C180.977 80.8422 177.853 80.6861 174.786 80.2178C173.863 80.0759 172.898 79.9198 171.918 79.7212C175.113 81.7078 178.492 82.9565 182.113 83.3964C183.234 83.5667 184.37 83.5667 185.662 83.5667Z" fill="#F19A38"/>
<path d="M331.749 49.1979C331.38 44.2171 329.989 39.6478 327.575 35.561C327.163 34.8515 326.723 34.1562 326.24 33.4892C321.91 27.4016 315.577 23.4708 308.719 22.435C306.32 22.066 303.863 22.137 301.435 22.4775C290.076 23.9959 280.961 32.1695 277.354 43.7914C276.815 45.6361 276.375 47.4099 276.091 49.2121C274.685 58.4642 277.312 67.7872 283.133 74.4425C283.73 75.1236 284.354 75.748 284.993 76.344C288.145 79.3381 291.681 81.4383 295.671 82.5451C296.764 82.8857 297.871 83.056 299.164 83.2405C301.222 83.5527 303.21 83.6804 305.184 83.4533C315.847 82.4316 324.778 75.5493 329.378 64.864C330.471 62.3097 331.21 59.7129 331.593 57.1445C331.977 54.576 332.033 51.9508 331.749 49.1979ZM292.249 49.7513C293.527 42.5426 300.342 35.3623 308.137 38.8248C311.417 40.2864 313.831 43.3231 315.038 46.7146C317.636 53.9658 314.796 62.2672 308.123 66.1979C306.433 67.1912 304.488 67.8014 302.529 67.6311C296.381 67.1061 292.419 60.6779 291.965 55.0727C291.823 53.3698 291.922 51.5819 292.249 49.7655V49.7513Z" fill="#ED739F"/>
<path d="M299.181 83.2405C301.24 83.5527 303.227 83.6804 305.201 83.4534C315.864 82.4317 324.795 75.5494 329.396 64.864C330.489 62.3098 331.227 59.713 331.611 57.1445C331.994 54.5761 332.051 51.9508 331.767 49.1979C331.398 44.2171 330.006 39.6478 327.592 35.561C328.047 37.6896 328.402 39.8323 328.643 41.9892C329.594 50.4467 328.515 58.0385 324.227 65.5168C319.201 74.2864 310.27 79.4801 299.096 79.1537C295.39 79.0402 291.869 78.5861 288.319 77.4792C287.268 77.1529 286.147 76.7839 285.039 76.3582C288.191 79.3524 291.727 81.4525 295.716 82.5594C296.81 82.8999 297.917 83.0702 299.209 83.2547L299.181 83.2405Z" fill="#DD468F"/>
<path d="M271.436 48.0483C271.109 45.3238 270.456 42.6418 269.491 40.1017C266.963 33.4039 262.221 27.6426 255.15 24.3363C246.603 20.3204 237.743 21.3563 231.779 22.8889C224.935 24.6485 218.702 27.8981 213.25 30.7503L220.548 44.6143C221.769 43.9331 223.004 43.2378 224.24 42.6418L224.637 68.6952L220.236 75.2654L217.495 79.3522C217.112 79.9198 217.282 80.7002 217.865 81.0692C221.812 83.5099 227.761 86.1493 235.258 86.5467C236.607 86.6602 237.97 86.6886 239.304 86.6318C247.568 86.2487 255.079 83.2971 260.858 78.0892C269.093 70.6819 272.728 58.9181 271.422 48.0341L271.436 48.0483ZM226 41.7762C229.252 40.1869 232.518 38.782 235.812 37.9022C240.696 36.5967 245.211 36.7528 248.519 38.2996C255.959 41.8188 257.805 52.8447 255.051 59.7979C254.057 62.3096 252.495 64.5517 250.536 66.368C248.945 67.858 247.085 69.0642 245.055 69.9156C242.357 71.065 240.455 71.2495 240.469 71.2921C240.469 71.3488 240.029 41.5634 240.029 41.5634L236.039 41.6201L226 41.762V41.7762Z" fill="#ED739F"/>
<path d="M217.878 81.0834C221.825 83.5242 227.774 86.1636 235.271 86.5609C236.62 86.6744 237.983 86.7028 239.318 86.6461C247.581 86.2629 255.092 83.3113 260.871 78.1035C269.106 70.6961 272.741 58.9324 271.435 48.0484C271.108 45.3238 270.455 42.6419 269.49 40.1018C269.859 45.5651 269.703 51.0567 268.496 56.3639C266.962 63.1895 263.484 69.5183 257.975 74.0592C253.119 78.0467 246.758 81.126 240.51 81.1402C232.971 81.1544 226.823 79.7354 219.951 75.7053L217.494 79.3664C217.111 79.934 217.281 80.7145 217.864 81.0834H217.878Z" fill="#DD468F"/>
<path d="M240.468 71.2922L240.028 41.5635L236.038 41.6202C236.009 41.8757 235.995 42.1311 236.009 42.4007C236.251 50.5743 236.166 58.7338 236.364 66.9074C236.364 66.9074 236.364 66.9358 236.364 66.95C236.364 67.0067 236.364 67.0635 236.364 67.1202C236.364 67.4608 236.364 67.8014 236.379 68.1419C236.421 69.7454 238.409 71.4767 240.468 71.2922Z" fill="#DD468F"/>
<path d="M152.777 44.7137C152.152 42.0317 151.229 39.4491 149.994 37.0225C146.757 30.6227 141.447 25.4006 134.063 22.8606C125.132 19.7813 116.429 21.7537 110.678 23.9107C104.062 26.3798 98.1976 30.2821 93.0861 33.702L101.818 46.7145C102.968 45.9056 104.118 45.0968 105.283 44.3731L108.449 70.242L104.772 77.2379L102.486 81.5943C102.159 82.2045 102.415 82.9566 103.039 83.2546C107.228 85.2696 113.419 87.2562 120.915 86.8589C122.278 86.8305 123.627 86.717 124.948 86.5041C133.126 85.2554 140.268 81.5092 145.479 75.7195C152.876 67.4749 155.248 55.399 152.777 44.7137ZM106.93 43.2946C109.997 41.3647 113.092 39.6193 116.272 38.4132C121.001 36.5968 125.487 36.2704 128.952 37.4624C136.718 40.1728 139.743 50.9432 137.741 58.1377C137.017 60.7487 135.696 63.1327 133.95 65.1477C132.516 66.7938 130.798 68.1986 128.881 69.2629C126.311 70.6819 124.451 71.0651 124.465 71.1218C124.465 71.1786 120.873 41.606 120.873 41.606L116.911 42.0885L106.944 43.2946H106.93Z" fill="#F7CE46"/>
<path d="M103.024 83.2545C107.213 85.2695 113.404 87.2562 120.9 86.8589C122.263 86.8305 123.612 86.7169 124.933 86.5041C133.111 85.2553 140.253 81.5091 145.464 75.7195C152.861 67.4749 155.233 55.3989 152.762 44.7136C152.137 42.0316 151.214 39.449 149.979 37.0225C150.916 42.4148 151.356 47.8922 150.732 53.2988C149.922 60.2378 147.154 66.9073 142.142 72.0016C137.74 76.4857 131.748 80.2178 125.529 80.8989C118.032 81.722 111.771 80.9557 104.515 77.6777L102.471 81.5801C102.144 82.1902 102.4 82.9423 103.024 83.2403V83.2545Z" fill="#F19A38"/>
<path d="M124.464 71.1218L120.872 41.606L116.91 42.0884C116.91 42.3439 116.924 42.5993 116.967 42.8689C118.074 50.9716 118.855 59.1026 119.92 67.2053C119.92 67.2053 119.92 67.2337 119.92 67.2479C119.92 67.3046 119.934 67.3614 119.934 67.4181C119.977 67.7587 120.02 68.0851 120.062 68.4257C120.275 70.015 122.433 71.5333 124.464 71.1218Z" fill="#F19A38"/>
<path d="M177.058 30.6227C176.49 29.6436 175.312 29.3314 174.19 29.8565C171.606 31.0626 169.235 33.2905 166.963 36.6678C165.287 39.1653 163.91 42.0034 163.016 44.8556C162.859 45.3523 162.916 45.9057 163.186 46.4024C163.47 46.9274 163.938 47.3106 164.492 47.4525C164.677 47.5092 164.861 47.5234 165.046 47.5234C165.955 47.5234 166.792 46.9132 167.091 45.9767C167.275 45.4091 167.474 44.8414 167.701 44.2738C167.744 44.1603 167.786 44.0468 167.843 43.9333L167.928 43.7204C168.056 43.4224 168.198 43.1244 168.326 42.8406C168.979 41.4783 169.703 40.1728 170.498 38.9667C172.301 36.2421 174.147 34.4967 176.291 33.5034C176.731 33.2905 177.072 32.8932 177.243 32.3682C177.427 31.7722 177.356 31.1052 177.072 30.6086L177.058 30.6227Z" fill="white"/>
<path d="M299.692 28.9766C299.308 27.9123 298.201 27.3873 297.008 27.6994C294.24 28.4232 291.513 30.1828 288.674 33.106C286.572 35.2629 284.712 37.803 283.307 40.4424C283.065 40.9106 283.023 41.4641 283.193 42.0033C283.378 42.5709 283.775 43.025 284.286 43.2804C284.457 43.3656 284.627 43.4223 284.812 43.4507C285.706 43.621 286.643 43.1669 287.098 42.3013C287.382 41.7762 287.68 41.2512 288.006 40.7262C288.077 40.6268 288.134 40.5133 288.205 40.414L288.333 40.2153C288.517 39.9457 288.702 39.6761 288.887 39.4207C289.767 38.1861 290.718 37.0367 291.726 36.0008C293.998 33.6452 296.114 32.2687 298.414 31.6727C298.897 31.545 299.294 31.2186 299.55 30.722C299.834 30.1686 299.891 29.5016 299.706 28.9624L299.692 28.9766Z" fill="white"/>
<path d="M112.85 29.5585C112.453 28.4517 111.302 27.8557 110.209 28.1821C106.702 29.218 103.479 31.0343 100.625 33.5744C100.256 33.9008 100.043 34.4258 100.043 35.0076C100.043 35.632 100.299 36.228 100.725 36.5827C101.15 36.9375 101.633 37.122 102.13 37.122C102.67 37.122 103.209 36.9091 103.692 36.4834L103.82 36.3699C103.919 36.2705 104.019 36.1854 104.132 36.1003C104.132 36.1003 104.175 36.0719 104.189 36.0435L104.359 35.9158C104.672 35.6745 104.998 35.4333 105.325 35.1921C105.978 34.738 106.66 34.2981 107.355 33.9149C107.71 33.7163 108.065 33.5318 108.42 33.3615L108.619 33.2764C108.619 33.2764 108.647 33.2764 108.662 33.2622L108.832 33.1912C108.96 33.1345 109.087 33.0777 109.215 33.021C109.925 32.723 110.692 32.4533 111.487 32.2263C112.012 32.0702 112.481 31.6729 112.751 31.1336C113.006 30.6228 113.049 30.0552 112.879 29.5585H112.85Z" fill="white"/>
<path d="M232.658 28.4799C232.261 27.3873 231.252 26.848 230.031 27.0893C227.007 27.6853 224.011 28.9198 221.356 30.6368C220.873 30.949 220.532 31.4741 220.405 32.0559C220.305 32.5951 220.405 33.1343 220.689 33.5459C221.129 34.1844 221.81 34.525 222.506 34.525C222.889 34.525 223.273 34.4257 223.599 34.1986C224.224 33.7871 224.863 33.4181 225.488 33.0918L225.601 33.035C225.843 32.9073 226.084 32.7796 226.34 32.6661C226.411 32.6377 226.51 32.5951 226.624 32.5383C226.78 32.4674 226.936 32.4106 227.092 32.3397C228.399 31.8146 229.79 31.4031 231.224 31.1193C231.707 31.02 232.147 30.6794 232.431 30.1828C232.743 29.6293 232.814 28.9766 232.63 28.4657L232.658 28.4799Z" fill="white"/>
<path d="M282.199 16.2479L278.905 13.6652L278.01 9.35139C278.01 9.35139 277.854 8.41483 277.116 8.10264C276.363 7.80465 275.597 8.38645 275.568 8.40064L272.132 10.9123L268.015 10.4724C267.887 10.4724 266.751 10.3589 266.382 11.0826C266.041 11.7496 266.282 12.5016 266.282 12.5158L267.489 16.6594L265.785 20.6469C265.729 20.7604 265.289 21.7537 265.828 22.3639C266.311 22.9173 267.191 23.0025 267.248 23.0025L271.351 23.045L274.39 25.9115C274.39 25.9115 274.929 26.3372 275.54 26.4223C275.639 26.4223 275.739 26.4365 275.838 26.4223C276.633 26.3656 276.988 25.3155 277.017 25.2162L278.436 21.101L282.071 18.944C282.071 18.944 282.767 18.5467 282.966 17.823C283.179 17.0425 282.284 16.3046 282.185 16.2337L282.199 16.2479Z" fill="#F7EBA1"/>
<path d="M161.337 85.3973L161.877 82.0767C161.948 81.7787 161.948 81.1544 161.536 80.757C161.025 80.2604 160.272 80.4448 160.201 80.459L157.077 81.2111L154.28 79.6644C154.181 79.6076 153.301 79.1535 152.761 79.6218C152.293 80.0333 152.236 80.6719 152.236 80.7428L151.966 84.035L149.666 86.348C149.595 86.419 148.927 87.0717 149.183 87.767C149.396 88.363 150.021 88.7036 150.092 88.7462L153.017 90.0233L154.394 92.9749C154.394 92.9749 154.777 93.6277 155.317 93.8405C155.331 93.8405 155.359 93.8547 155.374 93.8547C156.055 94.0817 156.666 93.3722 156.722 93.3013L158.852 90.8038L162.019 90.3639C162.019 90.3639 162.714 90.2787 163.083 89.7679C163.524 89.1861 163.027 88.3063 162.97 88.207L161.337 85.3973Z" fill="#F7EBA1"/>
<path d="M91.723 67.177L88.0314 32.7939C87.3783 26.8198 83.0477 22.4208 77.7232 22.6478C77.1127 22.6762 76.5021 22.7471 75.8632 22.889L17.1661 36.3982C9.58406 37.9166 7.09931 43.1386 8.40558 49.1128L15.0647 79.3239C15.2777 80.2747 15.6185 81.1829 16.0444 82.0059C18.1032 85.8941 22.4338 88.2213 26.9916 87.5401L62.3603 82.1904L68.0114 81.3106L85.2343 87.9233C85.3763 87.9658 85.5182 87.9942 85.6602 88.0084C86.9381 88.1361 87.79 87.0151 87.5487 85.5961L85.9158 78.0184C85.9158 78.0042 86.9665 77.4224 87.0659 77.3657C87.4351 77.1244 87.79 76.8548 88.1308 76.5568C88.7981 75.975 89.4087 75.3223 89.9198 74.5844C90.9563 73.1086 91.5953 71.3774 91.7798 69.5752C91.865 68.7663 91.8224 67.9575 91.7372 67.1486L91.723 67.177Z" fill="white"/>
<path d="M52.6923 38.1578C53.175 41.9183 55.5746 60.3941 57.8748 69.9158C57.9599 70.2989 57.7328 70.682 57.3494 70.7814L50.1791 72.6687C49.7957 72.768 49.3982 72.541 49.2988 72.1578C48.4327 68.6812 47.6802 65.1336 47.0128 61.586C46.9418 61.2029 46.5585 60.9475 46.1609 61.0326C42.4977 61.8415 38.8486 62.7213 35.2138 63.7146C34.8588 63.8139 34.6174 64.1687 34.6742 64.5376L36.2929 74.3999C36.3497 74.783 36.0941 75.1662 35.6965 75.2371L28.3842 76.5568C27.9867 76.6278 27.6175 76.3723 27.5607 75.9892L22.293 43.6211C22.2362 43.238 22.4918 42.8548 22.8894 42.7839L30.2017 41.4642C30.5992 41.3932 30.9684 41.6486 31.0252 42.0318L33.0414 54.4909C33.1124 54.9024 33.5241 55.1578 33.9217 55.0443C37.5281 54.051 41.1488 53.1854 44.7978 52.3765C45.167 52.2914 45.4226 51.9366 45.3658 51.5677C44.7552 47.4241 44.2583 43.2521 43.9033 39.1086C43.8749 38.7112 44.1731 38.3565 44.5707 38.3139L51.9113 37.5476C52.2947 37.5051 52.6355 37.7747 52.6923 38.1436V38.1578Z" fill="black"/>
<path d="M73.3515 38.5836C73.394 37.1929 72.3008 36.0293 70.9093 35.9867L64.7329 35.7881C63.3414 35.7455 62.1771 36.8382 62.1345 38.2288L62.0352 41.5351L73.2521 41.8899L73.3515 38.5836Z" fill="black"/>
<path d="M61.6792 65.0625L65.5696 68.5817L65.527 70.0292C65.5128 70.611 65.9672 71.0934 66.5493 71.1218H66.8901C67.4722 71.1502 67.955 70.6961 67.9834 70.1143L68.026 68.6669L72.1294 65.4031C72.3849 65.2044 72.5269 64.9064 72.5411 64.5801L73.1517 45.2954L61.9348 44.9407L61.3242 64.2253C61.3242 64.5517 61.452 64.8639 61.6792 65.0767V65.0625Z" fill="black"/>
<path d="M62.6144 78.2029L27.1605 83.51C25.2579 83.7655 23.9658 83.7513 21.907 83.6094C21.907 83.6094 21.41 83.5526 21.3958 83.5526C20.8989 83.4958 20.4161 83.4107 19.9192 83.3397C18.7691 83.1695 17.2073 82.6018 16.043 82.02C18.1018 85.9082 22.4323 88.2354 26.9901 87.5543L62.3588 82.2045L68.0099 81.3247C67.6407 80.7287 67.5271 80.5584 67.2716 80.2746C65.7665 78.6002 65.1418 77.8907 62.586 78.2029H62.6144Z" fill="#C7B9F0"/>
<path d="M86.1146 46.4308C86.4838 49.4533 86.8103 52.4759 87.1227 55.4984C87.3641 57.8824 87.7616 60.2522 87.9888 62.6503C88.1166 63.9984 88.2018 65.3607 88.145 66.723C88.145 67.0352 88.1166 67.3473 88.0882 67.6737C88.0314 68.3548 87.9036 69.1779 87.5912 70.0861C87.4493 70.4834 87.3073 70.8382 87.1511 71.1645C87.0233 71.4058 86.8813 71.647 86.7393 71.8741C86.5122 72.2146 86.1998 72.6403 85.7596 73.066C85.3195 73.4917 84.8793 73.8039 84.5243 74.031C84.1694 74.258 83.8144 74.4567 83.4453 74.6554C82.423 75.1946 81.4858 75.7906 82.21 77.7063C83.4453 81.0268 84.1552 84.0635 85.4189 87.3699C85.5041 87.5827 85.5892 87.8098 85.6886 88.0226C86.9665 88.1503 87.8184 87.0293 87.577 85.6103L85.9442 78.0326C85.9442 78.0185 86.9949 77.4367 87.0943 77.3799C87.4635 77.1387 87.8184 76.869 88.1592 76.571C88.8265 75.9892 89.4371 75.3365 89.9482 74.5986C90.9847 73.1228 91.6237 71.3916 91.8082 69.5894C91.8934 68.7806 91.8508 67.9717 91.7656 67.1629L88.074 32.7797C87.4209 26.8056 83.0903 22.4066 77.7658 22.6336C78.348 22.8891 78.6887 23.1019 79.1147 23.3574C79.1147 23.3574 83.2465 25.642 84.4534 33.0352L86.143 46.4308H86.1146Z" fill="#C7B9F0"/>
</g>
<defs>
<clipPath id="clip0_1_1544">
<rect width="340" height="102" fill="white"/>
</clipPath>
</defs>
</svg>
