<svg width="569" height="425" viewBox="0 0 569 425" fill="none" xmlns="http://www.w3.org/2000/svg">
<path d="M119.733 113H113.142L123.185 83.9091H131.111L141.139 113H134.549L127.262 90.5568H127.034L119.733 113ZM119.321 101.565H134.889V106.366H119.321V101.565ZM151.77 113.426C149.535 113.426 147.612 112.953 146.003 112.006C144.402 111.049 143.171 109.723 142.309 108.028C141.457 106.333 141.031 104.383 141.031 102.176C141.031 99.9413 141.462 97.9811 142.324 96.2955C143.195 94.6004 144.431 93.2794 146.031 92.3324C147.631 91.3759 149.535 90.8977 151.741 90.8977C153.645 90.8977 155.311 91.2434 156.741 91.9347C158.171 92.6259 159.303 93.5966 160.136 94.8466C160.969 96.0966 161.429 97.5644 161.514 99.25H155.804C155.643 98.161 155.217 97.285 154.525 96.6222C153.843 95.9498 152.949 95.6136 151.841 95.6136C150.903 95.6136 150.084 95.8693 149.383 96.3807C148.692 96.8826 148.152 97.6165 147.764 98.5824C147.376 99.5483 147.182 100.718 147.182 102.091C147.182 103.483 147.371 104.667 147.75 105.642C148.138 106.617 148.682 107.361 149.383 107.872C150.084 108.384 150.903 108.639 151.841 108.639C152.532 108.639 153.152 108.497 153.701 108.213C154.26 107.929 154.719 107.517 155.079 106.977C155.449 106.428 155.69 105.77 155.804 105.003H161.514C161.419 106.67 160.965 108.137 160.15 109.406C159.345 110.666 158.233 111.651 156.812 112.361C155.392 113.071 153.711 113.426 151.77 113.426ZM175.393 91.1818V95.7273H162.254V91.1818H175.393ZM165.237 85.9545H171.288V106.295C171.288 106.854 171.373 107.29 171.544 107.602C171.714 107.905 171.951 108.118 172.254 108.241C172.567 108.365 172.926 108.426 173.334 108.426C173.618 108.426 173.902 108.402 174.186 108.355C174.47 108.298 174.688 108.256 174.839 108.227L175.791 112.73C175.488 112.825 175.062 112.934 174.513 113.057C173.963 113.189 173.296 113.27 172.51 113.298C171.051 113.355 169.773 113.161 168.675 112.716C167.586 112.271 166.738 111.58 166.132 110.642C165.526 109.705 165.228 108.521 165.237 107.091V85.9545ZM177.735 113V91.1818H183.786V113H177.735ZM180.775 88.3693C179.875 88.3693 179.103 88.071 178.46 87.4744C177.825 86.8684 177.508 86.1439 177.508 85.3011C177.508 84.4678 177.825 83.7528 178.46 83.1562C179.103 82.5502 179.875 82.2472 180.775 82.2472C181.674 82.2472 182.442 82.5502 183.076 83.1562C183.72 83.7528 184.042 84.4678 184.042 85.3011C184.042 86.1439 183.72 86.8684 183.076 87.4744C182.442 88.071 181.674 88.3693 180.775 88.3693ZM207.374 91.1818L199.747 113H192.928L185.301 91.1818H191.693L196.224 106.793H196.451L200.968 91.1818H207.374ZM208.871 113V91.1818H214.922V113H208.871ZM211.911 88.3693C211.011 88.3693 210.239 88.071 209.595 87.4744C208.961 86.8684 208.644 86.1439 208.644 85.3011C208.644 84.4678 208.961 83.7528 209.595 83.1562C210.239 82.5502 211.011 82.2472 211.911 82.2472C212.81 82.2472 213.577 82.5502 214.212 83.1562C214.856 83.7528 215.178 84.4678 215.178 85.3011C215.178 86.1439 214.856 86.8684 214.212 87.4744C213.577 88.071 212.81 88.3693 211.911 88.3693ZM229.775 91.1818V95.7273H216.635V91.1818H229.775ZM219.618 85.9545H225.669V106.295C225.669 106.854 225.755 107.29 225.925 107.602C226.096 107.905 226.332 108.118 226.635 108.241C226.948 108.365 227.308 108.426 227.715 108.426C227.999 108.426 228.283 108.402 228.567 108.355C228.851 108.298 229.069 108.256 229.221 108.227L230.172 112.73C229.869 112.825 229.443 112.934 228.894 113.057C228.345 113.189 227.677 113.27 226.891 113.298C225.433 113.355 224.154 113.161 223.056 112.716C221.967 112.271 221.119 111.58 220.513 110.642C219.907 109.705 219.609 108.521 219.618 107.091V85.9545ZM235.852 121.182C235.085 121.182 234.365 121.12 233.693 120.997C233.03 120.884 232.481 120.737 232.045 120.557L233.409 116.04C234.119 116.258 234.758 116.376 235.327 116.395C235.904 116.414 236.401 116.281 236.818 115.997C237.244 115.713 237.59 115.23 237.855 114.548L238.21 113.625L230.383 91.1818H236.747L241.264 107.205H241.491L246.051 91.1818H252.457L243.977 115.358C243.57 116.532 243.016 117.555 242.315 118.426C241.624 119.307 240.748 119.984 239.687 120.457C238.627 120.94 237.348 121.182 235.852 121.182ZM287.393 94.0938H281.171C281.058 93.2888 280.826 92.5739 280.475 91.9489C280.125 91.3144 279.675 90.7746 279.126 90.3295C278.577 89.8845 277.942 89.5436 277.222 89.3068C276.512 89.0701 275.74 88.9517 274.907 88.9517C273.401 88.9517 272.09 89.3258 270.972 90.0739C269.855 90.8125 268.989 91.892 268.373 93.3125C267.757 94.7235 267.45 96.4375 267.45 98.4545C267.45 100.528 267.757 102.271 268.373 103.682C268.998 105.093 269.869 106.158 270.987 106.878C272.104 107.598 273.397 107.957 274.864 107.957C275.688 107.957 276.451 107.848 277.151 107.631C277.862 107.413 278.491 107.096 279.041 106.679C279.59 106.253 280.044 105.737 280.404 105.131C280.774 104.525 281.029 103.833 281.171 103.057L287.393 103.085C287.232 104.42 286.829 105.708 286.186 106.949C285.551 108.18 284.694 109.283 283.614 110.259C282.544 111.224 281.266 111.991 279.779 112.56C278.302 113.118 276.631 113.398 274.765 113.398C272.17 113.398 269.85 112.811 267.805 111.636C265.769 110.462 264.159 108.762 262.975 106.537C261.801 104.312 261.214 101.617 261.214 98.4545C261.214 95.2822 261.811 92.5833 263.004 90.358C264.197 88.1326 265.816 86.4375 267.862 85.2727C269.907 84.0985 272.208 83.5114 274.765 83.5114C276.451 83.5114 278.013 83.7481 279.453 84.2216C280.901 84.6951 282.185 85.3864 283.302 86.2955C284.419 87.1951 285.329 88.2983 286.029 89.6051C286.739 90.9119 287.194 92.4081 287.393 94.0938ZM296.311 113.412C294.919 113.412 293.679 113.17 292.59 112.688C291.501 112.195 290.639 111.471 290.005 110.514C289.38 109.548 289.067 108.346 289.067 106.906C289.067 105.694 289.29 104.676 289.735 103.852C290.18 103.028 290.786 102.366 291.553 101.864C292.32 101.362 293.191 100.983 294.166 100.727C295.151 100.472 296.184 100.292 297.263 100.188C298.532 100.055 299.555 99.9318 300.331 99.8182C301.108 99.6951 301.671 99.5152 302.022 99.2784C302.372 99.0417 302.547 98.6913 302.547 98.2273V98.142C302.547 97.2424 302.263 96.5464 301.695 96.054C301.136 95.5616 300.341 95.3153 299.309 95.3153C298.22 95.3153 297.353 95.5568 296.709 96.0398C296.065 96.5133 295.639 97.1098 295.431 97.8295L289.834 97.375C290.118 96.0492 290.677 94.9034 291.51 93.9375C292.344 92.9621 293.418 92.214 294.735 91.6932C296.06 91.1629 297.595 90.8977 299.337 90.8977C300.549 90.8977 301.709 91.0398 302.817 91.3239C303.934 91.608 304.924 92.0483 305.786 92.6449C306.657 93.2415 307.344 94.0085 307.845 94.946C308.347 95.8741 308.598 96.9867 308.598 98.2841V113H302.86V109.974H302.689C302.339 110.656 301.87 111.258 301.283 111.778C300.696 112.29 299.99 112.692 299.166 112.986C298.343 113.27 297.391 113.412 296.311 113.412ZM298.044 109.236C298.934 109.236 299.72 109.061 300.402 108.71C301.084 108.35 301.619 107.867 302.007 107.261C302.396 106.655 302.59 105.969 302.59 105.202V102.886C302.4 103.009 302.14 103.123 301.809 103.227C301.487 103.322 301.122 103.412 300.715 103.497C300.308 103.573 299.9 103.644 299.493 103.71C299.086 103.767 298.717 103.819 298.385 103.866C297.675 103.971 297.055 104.136 296.524 104.364C295.994 104.591 295.582 104.899 295.289 105.287C294.995 105.666 294.848 106.139 294.848 106.707C294.848 107.531 295.147 108.161 295.743 108.597C296.349 109.023 297.116 109.236 298.044 109.236ZM323.298 91.1818V95.7273H310.159V91.1818H323.298ZM313.142 85.9545H319.193V106.295C319.193 106.854 319.278 107.29 319.449 107.602C319.619 107.905 319.856 108.118 320.159 108.241C320.471 108.365 320.831 108.426 321.238 108.426C321.522 108.426 321.807 108.402 322.091 108.355C322.375 108.298 322.593 108.256 322.744 108.227L323.696 112.73C323.393 112.825 322.967 112.934 322.417 113.057C321.868 113.189 321.2 113.27 320.414 113.298C318.956 113.355 317.678 113.161 316.579 112.716C315.49 112.271 314.643 111.58 314.037 110.642C313.431 109.705 313.132 108.521 313.142 107.091V85.9545ZM335.349 113.426C333.104 113.426 331.172 112.972 329.553 112.062C327.943 111.144 326.703 109.847 325.832 108.17C324.96 106.485 324.525 104.491 324.525 102.19C324.525 99.946 324.96 97.9763 325.832 96.2812C326.703 94.5862 327.929 93.2652 329.511 92.3182C331.101 91.3712 332.967 90.8977 335.107 90.8977C336.547 90.8977 337.886 91.1297 339.127 91.5938C340.377 92.0483 341.466 92.7348 342.394 93.6534C343.332 94.572 344.061 95.7273 344.582 97.1193C345.102 98.5019 345.363 100.121 345.363 101.977V103.639H326.939V99.8892H339.667C339.667 99.018 339.477 98.2462 339.099 97.5739C338.72 96.9015 338.194 96.3759 337.522 95.9972C336.859 95.6089 336.087 95.4148 335.207 95.4148C334.288 95.4148 333.474 95.6278 332.763 96.054C332.063 96.4706 331.513 97.0341 331.116 97.7443C330.718 98.4451 330.514 99.2263 330.505 100.088V103.653C330.505 104.733 330.704 105.666 331.101 106.452C331.509 107.238 332.082 107.844 332.82 108.27C333.559 108.696 334.435 108.909 335.448 108.909C336.12 108.909 336.736 108.814 337.295 108.625C337.853 108.436 338.332 108.152 338.729 107.773C339.127 107.394 339.43 106.93 339.638 106.381L345.235 106.75C344.951 108.095 344.368 109.269 343.488 110.273C342.617 111.267 341.49 112.044 340.107 112.602C338.734 113.152 337.148 113.426 335.349 113.426ZM357.541 121.636C355.581 121.636 353.9 121.366 352.499 120.827C351.107 120.296 349.999 119.572 349.175 118.653C348.351 117.735 347.816 116.703 347.57 115.557L353.166 114.804C353.337 115.24 353.607 115.647 353.976 116.026C354.345 116.404 354.833 116.707 355.439 116.935C356.054 117.171 356.803 117.29 357.683 117.29C359 117.29 360.084 116.968 360.936 116.324C361.798 115.689 362.229 114.624 362.229 113.128V109.136H361.973C361.708 109.742 361.31 110.315 360.78 110.855C360.25 111.395 359.568 111.835 358.734 112.176C357.901 112.517 356.907 112.688 355.751 112.688C354.113 112.688 352.622 112.309 351.277 111.551C349.942 110.784 348.876 109.615 348.081 108.043C347.295 106.461 346.902 104.463 346.902 102.048C346.902 99.5767 347.304 97.5123 348.109 95.8551C348.914 94.1979 349.984 92.9574 351.32 92.1335C352.664 91.3097 354.137 90.8977 355.737 90.8977C356.959 90.8977 357.982 91.1061 358.805 91.5227C359.629 91.9299 360.292 92.4413 360.794 93.0568C361.305 93.6629 361.698 94.2595 361.973 94.8466H362.2V91.1818H368.209V113.213C368.209 115.069 367.754 116.622 366.845 117.872C365.936 119.122 364.677 120.06 363.067 120.685C361.466 121.319 359.625 121.636 357.541 121.636ZM357.669 108.142C358.644 108.142 359.468 107.901 360.141 107.418C360.822 106.925 361.343 106.224 361.703 105.315C362.072 104.397 362.257 103.298 362.257 102.02C362.257 100.741 362.077 99.6335 361.717 98.696C361.357 97.7491 360.837 97.0152 360.155 96.4943C359.473 95.9735 358.644 95.7131 357.669 95.7131C356.675 95.7131 355.837 95.983 355.155 96.5227C354.473 97.053 353.957 97.7917 353.607 98.7386C353.256 99.6856 353.081 100.779 353.081 102.02C353.081 103.279 353.256 104.368 353.607 105.287C353.966 106.196 354.482 106.902 355.155 107.403C355.837 107.896 356.675 108.142 357.669 108.142ZM381.282 113.426C379.076 113.426 377.168 112.957 375.558 112.02C373.957 111.073 372.722 109.757 371.85 108.071C370.979 106.376 370.543 104.411 370.543 102.176C370.543 99.9223 370.979 97.9527 371.85 96.267C372.722 94.572 373.957 93.2557 375.558 92.3182C377.168 91.3712 379.076 90.8977 381.282 90.8977C383.489 90.8977 385.392 91.3712 386.992 92.3182C388.602 93.2557 389.843 94.572 390.714 96.267C391.585 97.9527 392.021 99.9223 392.021 102.176C392.021 104.411 391.585 106.376 390.714 108.071C389.843 109.757 388.602 111.073 386.992 112.02C385.392 112.957 383.489 113.426 381.282 113.426ZM381.311 108.739C382.314 108.739 383.152 108.455 383.825 107.886C384.497 107.309 385.004 106.523 385.345 105.528C385.695 104.534 385.87 103.402 385.87 102.134C385.87 100.865 385.695 99.733 385.345 98.7386C385.004 97.7443 384.497 96.9583 383.825 96.3807C383.152 95.803 382.314 95.5142 381.311 95.5142C380.297 95.5142 379.445 95.803 378.754 96.3807C378.072 96.9583 377.556 97.7443 377.205 98.7386C376.865 99.733 376.694 100.865 376.694 102.134C376.694 103.402 376.865 104.534 377.205 105.528C377.556 106.523 378.072 107.309 378.754 107.886C379.445 108.455 380.297 108.739 381.311 108.739ZM394.355 113V91.1818H400.222V94.9886H400.449C400.847 93.6345 401.514 92.6117 402.452 91.9205C403.389 91.2197 404.469 90.8693 405.691 90.8693C405.994 90.8693 406.32 90.8883 406.671 90.9261C407.021 90.964 407.329 91.0161 407.594 91.0824V96.4517C407.31 96.3665 406.917 96.2907 406.415 96.2244C405.913 96.1581 405.454 96.125 405.037 96.125C404.147 96.125 403.352 96.3191 402.651 96.7074C401.96 97.0862 401.41 97.6165 401.003 98.2983C400.605 98.9801 400.407 99.7661 400.407 100.656V113H394.355ZM413.522 121.182C412.755 121.182 412.036 121.12 411.363 120.997C410.7 120.884 410.151 120.737 409.716 120.557L411.079 116.04C411.79 116.258 412.429 116.376 412.997 116.395C413.575 116.414 414.072 116.281 414.488 115.997C414.915 115.713 415.26 115.23 415.525 114.548L415.88 113.625L408.054 91.1818H414.417L418.934 107.205H419.162L423.721 91.1818H430.128L421.647 115.358C421.24 116.532 420.686 117.555 419.986 118.426C419.294 119.307 418.418 119.984 417.358 120.457C416.297 120.94 415.019 121.182 413.522 121.182Z" fill="#222222"/>
<g opacity="0.7" clip-path="url(#clip0_337_6105)">
<path d="M105.5 144C99.9772 144 95.5 148.477 95.5 154V384C95.5 395.046 104.454 404 115.5 404H421.5C432.546 404 441.5 395.046 441.5 384V190C441.5 178.954 432.546 170 421.5 170H245.652L239.818 151.057C238.526 146.862 234.65 144 230.261 144H105.5Z" fill="#E3E3E3"/>
<path d="M245.174 170.147L245.283 170.5H245.652H421.5C432.27 170.5 441 179.23 441 190V384C441 394.77 432.27 403.5 421.5 403.5H115.5C104.73 403.5 96 394.77 96 384V154C96 148.753 100.253 144.5 105.5 144.5H230.261C234.431 144.5 238.113 147.219 239.34 151.204L245.174 170.147Z" stroke="url(#paint0_linear_337_6105)" stroke-opacity="0.5"/>
<path d="M126.443 158.148H124.67C124.602 157.769 124.475 157.436 124.29 157.148C124.104 156.86 123.877 156.616 123.608 156.415C123.339 156.214 123.038 156.062 122.705 155.96C122.375 155.858 122.025 155.807 121.653 155.807C120.983 155.807 120.383 155.975 119.852 156.312C119.326 156.65 118.909 157.144 118.602 157.795C118.299 158.447 118.148 159.242 118.148 160.182C118.148 161.129 118.299 161.928 118.602 162.58C118.909 163.231 119.328 163.723 119.858 164.057C120.388 164.39 120.985 164.557 121.648 164.557C122.015 164.557 122.364 164.508 122.693 164.409C123.027 164.307 123.328 164.157 123.597 163.96C123.866 163.763 124.093 163.523 124.278 163.239C124.468 162.951 124.598 162.621 124.67 162.25L126.443 162.256C126.348 162.828 126.165 163.354 125.892 163.835C125.623 164.312 125.277 164.725 124.852 165.074C124.432 165.419 123.951 165.686 123.409 165.875C122.867 166.064 122.277 166.159 121.636 166.159C120.629 166.159 119.731 165.92 118.943 165.443C118.155 164.962 117.534 164.275 117.08 163.381C116.629 162.487 116.403 161.42 116.403 160.182C116.403 158.939 116.631 157.873 117.085 156.983C117.54 156.089 118.161 155.403 118.949 154.926C119.737 154.445 120.633 154.205 121.636 154.205C122.254 154.205 122.83 154.294 123.364 154.472C123.902 154.646 124.384 154.903 124.812 155.244C125.241 155.581 125.595 155.994 125.875 156.483C126.155 156.968 126.345 157.523 126.443 158.148ZM127.768 166V157.273H129.41V158.659H129.501C129.66 158.189 129.94 157.82 130.342 157.551C130.747 157.278 131.205 157.142 131.717 157.142C131.823 157.142 131.948 157.146 132.092 157.153C132.239 157.161 132.355 157.17 132.438 157.182V158.807C132.37 158.788 132.249 158.767 132.074 158.744C131.9 158.718 131.726 158.705 131.552 158.705C131.15 158.705 130.792 158.79 130.478 158.96C130.167 159.127 129.921 159.36 129.739 159.659C129.557 159.955 129.467 160.292 129.467 160.67V166H127.768ZM136.717 166.176C135.857 166.176 135.117 165.992 134.496 165.625C133.878 165.254 133.401 164.733 133.064 164.062C132.73 163.388 132.564 162.598 132.564 161.693C132.564 160.799 132.73 160.011 133.064 159.33C133.401 158.648 133.871 158.116 134.473 157.733C135.079 157.35 135.787 157.159 136.598 157.159C137.09 157.159 137.568 157.241 138.03 157.403C138.492 157.566 138.907 157.822 139.274 158.17C139.641 158.519 139.931 158.972 140.143 159.528C140.355 160.081 140.461 160.754 140.461 161.545V162.148H133.524V160.875H138.797C138.797 160.428 138.706 160.032 138.524 159.688C138.342 159.339 138.086 159.064 137.757 158.864C137.431 158.663 137.049 158.562 136.609 158.562C136.132 158.562 135.715 158.68 135.359 158.915C135.007 159.146 134.734 159.449 134.541 159.824C134.352 160.195 134.257 160.598 134.257 161.034V162.028C134.257 162.612 134.359 163.108 134.564 163.517C134.772 163.926 135.062 164.239 135.433 164.455C135.804 164.667 136.238 164.773 136.734 164.773C137.056 164.773 137.35 164.727 137.615 164.636C137.88 164.542 138.109 164.402 138.302 164.216C138.496 164.03 138.643 163.801 138.746 163.528L140.354 163.818C140.225 164.292 139.994 164.706 139.66 165.062C139.331 165.415 138.916 165.689 138.416 165.886C137.92 166.08 137.354 166.176 136.717 166.176ZM144.246 166.193C143.693 166.193 143.193 166.091 142.746 165.886C142.299 165.678 141.945 165.377 141.684 164.983C141.426 164.589 141.297 164.106 141.297 163.534C141.297 163.042 141.392 162.636 141.581 162.318C141.771 162 142.026 161.748 142.348 161.562C142.67 161.377 143.03 161.237 143.428 161.142C143.826 161.047 144.231 160.975 144.644 160.926C145.167 160.866 145.591 160.816 145.917 160.778C146.242 160.737 146.479 160.67 146.627 160.58C146.775 160.489 146.848 160.341 146.848 160.136V160.097C146.848 159.6 146.708 159.216 146.428 158.943C146.151 158.67 145.739 158.534 145.189 158.534C144.617 158.534 144.167 158.661 143.837 158.915C143.511 159.165 143.286 159.443 143.161 159.75L141.564 159.386C141.754 158.856 142.03 158.428 142.394 158.102C142.761 157.773 143.184 157.534 143.661 157.386C144.138 157.235 144.64 157.159 145.167 157.159C145.515 157.159 145.884 157.201 146.275 157.284C146.669 157.364 147.036 157.511 147.377 157.727C147.722 157.943 148.004 158.252 148.223 158.653C148.443 159.051 148.553 159.568 148.553 160.205V166H146.894V164.807H146.826C146.716 165.027 146.551 165.242 146.331 165.455C146.112 165.667 145.83 165.843 145.485 165.983C145.14 166.123 144.727 166.193 144.246 166.193ZM144.616 164.83C145.085 164.83 145.487 164.737 145.82 164.551C146.157 164.366 146.413 164.123 146.587 163.824C146.765 163.521 146.854 163.197 146.854 162.852V161.727C146.794 161.788 146.676 161.845 146.502 161.898C146.331 161.947 146.136 161.991 145.917 162.028C145.697 162.062 145.483 162.095 145.275 162.125C145.066 162.152 144.892 162.174 144.752 162.193C144.422 162.235 144.121 162.305 143.848 162.403C143.58 162.502 143.364 162.644 143.201 162.83C143.042 163.011 142.962 163.254 142.962 163.557C142.962 163.977 143.117 164.295 143.428 164.511C143.739 164.723 144.134 164.83 144.616 164.83ZM154.25 157.273V158.636H149.483V157.273H154.25ZM150.761 155.182H152.46V163.438C152.46 163.767 152.509 164.015 152.608 164.182C152.706 164.345 152.833 164.456 152.988 164.517C153.147 164.574 153.32 164.602 153.505 164.602C153.642 164.602 153.761 164.593 153.863 164.574C153.966 164.555 154.045 164.54 154.102 164.528L154.409 165.932C154.31 165.97 154.17 166.008 153.988 166.045C153.806 166.087 153.579 166.11 153.306 166.114C152.86 166.121 152.443 166.042 152.056 165.875C151.67 165.708 151.358 165.451 151.119 165.102C150.88 164.754 150.761 164.316 150.761 163.79V155.182ZM155.489 166V157.273H157.188V166H155.489ZM156.347 155.926C156.051 155.926 155.798 155.828 155.586 155.631C155.377 155.43 155.273 155.191 155.273 154.915C155.273 154.634 155.377 154.396 155.586 154.199C155.798 153.998 156.051 153.898 156.347 153.898C156.642 153.898 156.894 153.998 157.103 154.199C157.315 154.396 157.421 154.634 157.421 154.915C157.421 155.191 157.315 155.43 157.103 155.631C156.894 155.828 156.642 155.926 156.347 155.926ZM166.299 157.273L163.134 166H161.316L158.146 157.273H159.97L162.18 163.989H162.271L164.475 157.273H166.299ZM167.256 166V157.273H168.955V166H167.256ZM168.114 155.926C167.818 155.926 167.565 155.828 167.352 155.631C167.144 155.43 167.04 155.191 167.04 154.915C167.04 154.634 167.144 154.396 167.352 154.199C167.565 153.998 167.818 153.898 168.114 153.898C168.409 153.898 168.661 153.998 168.869 154.199C169.082 154.396 169.188 154.634 169.188 154.915C169.188 155.191 169.082 155.43 168.869 155.631C168.661 155.828 168.409 155.926 168.114 155.926ZM174.674 157.273V158.636H169.907V157.273H174.674ZM171.185 155.182H172.884V163.438C172.884 163.767 172.934 164.015 173.032 164.182C173.13 164.345 173.257 164.456 173.413 164.517C173.572 164.574 173.744 164.602 173.93 164.602C174.066 164.602 174.185 164.593 174.288 164.574C174.39 164.555 174.469 164.54 174.526 164.528L174.833 165.932C174.735 165.97 174.594 166.008 174.413 166.045C174.231 166.087 174.004 166.11 173.731 166.114C173.284 166.121 172.867 166.042 172.481 165.875C172.094 165.708 171.782 165.451 171.543 165.102C171.305 164.754 171.185 164.316 171.185 163.79V155.182ZM176.987 169.273C176.733 169.273 176.502 169.252 176.294 169.21C176.086 169.172 175.93 169.131 175.828 169.085L176.237 167.693C176.548 167.777 176.824 167.813 177.067 167.801C177.309 167.79 177.523 167.699 177.709 167.528C177.898 167.358 178.065 167.08 178.209 166.693L178.419 166.114L175.226 157.273H177.044L179.254 164.045H179.345L181.555 157.273H183.379L179.783 167.165C179.616 167.619 179.404 168.004 179.146 168.318C178.889 168.636 178.582 168.875 178.226 169.034C177.87 169.193 177.457 169.273 176.987 169.273Z" fill="white"/>
</g>
<g opacity="0.7" clip-path="url(#clip1_337_6105)">
<path d="M95.5 160C89.9772 160 85.5 164.477 85.5 170V400C85.5 411.046 94.4543 420 105.5 420H441.5C452.546 420 461.5 411.046 461.5 400V206C461.5 194.954 452.546 186 441.5 186H235.652L229.818 167.057C228.526 162.862 224.65 160 220.261 160H95.5Z" fill="#F7EBA1"/>
<path d="M235.174 186.147L235.283 186.5H235.652H441.5C452.27 186.5 461 195.23 461 206V400C461 410.77 452.27 419.5 441.5 419.5H105.5C94.7305 419.5 86 410.77 86 400V170C86 164.753 90.2533 160.5 95.5 160.5H220.261C224.431 160.5 228.113 163.219 229.34 167.204L235.174 186.147Z" stroke="url(#paint1_linear_337_6105)" stroke-opacity="0.5"/>
<path d="M113.125 173.42C113.064 172.883 112.814 172.466 112.375 172.17C111.936 171.871 111.383 171.722 110.716 171.722C110.239 171.722 109.826 171.797 109.477 171.949C109.129 172.097 108.858 172.301 108.665 172.562C108.475 172.82 108.381 173.114 108.381 173.443C108.381 173.72 108.445 173.958 108.574 174.159C108.706 174.36 108.879 174.528 109.091 174.665C109.307 174.797 109.538 174.909 109.784 175C110.03 175.087 110.267 175.159 110.494 175.216L111.631 175.511C112.002 175.602 112.383 175.725 112.773 175.881C113.163 176.036 113.525 176.241 113.858 176.494C114.191 176.748 114.46 177.062 114.665 177.438C114.873 177.812 114.977 178.261 114.977 178.784C114.977 179.443 114.807 180.028 114.466 180.54C114.129 181.051 113.638 181.455 112.994 181.75C112.354 182.045 111.58 182.193 110.67 182.193C109.799 182.193 109.045 182.055 108.409 181.778C107.773 181.502 107.275 181.11 106.915 180.602C106.555 180.091 106.356 179.485 106.318 178.784H108.08C108.114 179.205 108.25 179.555 108.489 179.835C108.731 180.112 109.04 180.318 109.415 180.455C109.794 180.587 110.208 180.653 110.659 180.653C111.155 180.653 111.597 180.576 111.983 180.42C112.373 180.261 112.68 180.042 112.903 179.761C113.127 179.477 113.239 179.146 113.239 178.767C113.239 178.422 113.14 178.14 112.943 177.92C112.75 177.701 112.487 177.519 112.153 177.375C111.824 177.231 111.451 177.104 111.034 176.994L109.659 176.619C108.727 176.366 107.989 175.992 107.443 175.5C106.902 175.008 106.631 174.356 106.631 173.545C106.631 172.875 106.813 172.29 107.176 171.79C107.54 171.29 108.032 170.902 108.653 170.625C109.275 170.345 109.975 170.205 110.756 170.205C111.544 170.205 112.239 170.343 112.841 170.619C113.447 170.896 113.924 171.277 114.273 171.761C114.621 172.242 114.803 172.795 114.818 173.42H113.125ZM120.06 182.176C119.2 182.176 118.46 181.992 117.839 181.625C117.221 181.254 116.744 180.733 116.407 180.062C116.074 179.388 115.907 178.598 115.907 177.693C115.907 176.799 116.074 176.011 116.407 175.33C116.744 174.648 117.214 174.116 117.816 173.733C118.422 173.35 119.13 173.159 119.941 173.159C120.433 173.159 120.911 173.241 121.373 173.403C121.835 173.566 122.25 173.822 122.617 174.17C122.985 174.519 123.274 174.972 123.486 175.528C123.699 176.081 123.805 176.754 123.805 177.545V178.148H116.867V176.875H122.14C122.14 176.428 122.049 176.032 121.867 175.688C121.685 175.339 121.43 175.064 121.1 174.864C120.774 174.663 120.392 174.562 119.952 174.562C119.475 174.562 119.058 174.68 118.702 174.915C118.35 175.146 118.077 175.449 117.884 175.824C117.695 176.195 117.6 176.598 117.6 177.034V178.028C117.6 178.612 117.702 179.108 117.907 179.517C118.115 179.926 118.405 180.239 118.776 180.455C119.147 180.667 119.581 180.773 120.077 180.773C120.399 180.773 120.693 180.727 120.958 180.636C121.223 180.542 121.452 180.402 121.646 180.216C121.839 180.03 121.986 179.801 122.089 179.528L123.697 179.818C123.568 180.292 123.337 180.706 123.003 181.062C122.674 181.415 122.259 181.689 121.759 181.886C121.263 182.08 120.697 182.176 120.06 182.176ZM126.748 176.818V182H125.05V173.273H126.68V174.693H126.788C126.989 174.231 127.303 173.86 127.731 173.58C128.163 173.299 128.707 173.159 129.362 173.159C129.957 173.159 130.478 173.284 130.925 173.534C131.372 173.78 131.718 174.148 131.964 174.636C132.211 175.125 132.334 175.729 132.334 176.449V182H130.635V176.653C130.635 176.021 130.47 175.527 130.14 175.17C129.811 174.811 129.358 174.631 128.782 174.631C128.389 174.631 128.038 174.716 127.731 174.886C127.428 175.057 127.188 175.307 127.01 175.636C126.836 175.962 126.748 176.356 126.748 176.818ZM138.046 173.273V174.636H133.279V173.273H138.046ZM134.557 171.182H136.256V179.438C136.256 179.767 136.305 180.015 136.404 180.182C136.502 180.345 136.629 180.456 136.785 180.517C136.944 180.574 137.116 180.602 137.302 180.602C137.438 180.602 137.557 180.593 137.66 180.574C137.762 180.555 137.841 180.54 137.898 180.528L138.205 181.932C138.107 181.97 137.966 182.008 137.785 182.045C137.603 182.087 137.375 182.11 137.103 182.114C136.656 182.121 136.239 182.042 135.853 181.875C135.466 181.708 135.154 181.451 134.915 181.102C134.677 180.754 134.557 180.316 134.557 179.79V171.182ZM142.953 182.176C142.093 182.176 141.352 181.992 140.731 181.625C140.114 181.254 139.636 180.733 139.299 180.062C138.966 179.388 138.799 178.598 138.799 177.693C138.799 176.799 138.966 176.011 139.299 175.33C139.636 174.648 140.106 174.116 140.708 173.733C141.315 173.35 142.023 173.159 142.833 173.159C143.326 173.159 143.803 173.241 144.265 173.403C144.727 173.566 145.142 173.822 145.51 174.17C145.877 174.519 146.167 174.972 146.379 175.528C146.591 176.081 146.697 176.754 146.697 177.545V178.148H139.76V176.875H145.032C145.032 176.428 144.941 176.032 144.76 175.688C144.578 175.339 144.322 175.064 143.993 174.864C143.667 174.663 143.284 174.562 142.845 174.562C142.368 174.562 141.951 174.68 141.595 174.915C141.243 175.146 140.97 175.449 140.777 175.824C140.587 176.195 140.493 176.598 140.493 177.034V178.028C140.493 178.612 140.595 179.108 140.799 179.517C141.008 179.926 141.297 180.239 141.669 180.455C142.04 180.667 142.474 180.773 142.97 180.773C143.292 180.773 143.585 180.727 143.851 180.636C144.116 180.542 144.345 180.402 144.538 180.216C144.731 180.03 144.879 179.801 144.981 179.528L146.589 179.818C146.46 180.292 146.229 180.706 145.896 181.062C145.566 181.415 145.152 181.689 144.652 181.886C144.155 182.08 143.589 182.176 142.953 182.176ZM149.641 176.818V182H147.942V173.273H149.573V174.693H149.681C149.881 174.231 150.196 173.86 150.624 173.58C151.056 173.299 151.599 173.159 152.255 173.159C152.849 173.159 153.37 173.284 153.817 173.534C154.264 173.78 154.611 174.148 154.857 174.636C155.103 175.125 155.226 175.729 155.226 176.449V182H153.527V176.653C153.527 176.021 153.362 175.527 153.033 175.17C152.703 174.811 152.251 174.631 151.675 174.631C151.281 174.631 150.931 174.716 150.624 174.886C150.321 175.057 150.08 175.307 149.902 175.636C149.728 175.962 149.641 176.356 149.641 176.818ZM160.541 182.176C159.696 182.176 158.969 181.985 158.359 181.602C157.753 181.216 157.287 180.684 156.961 180.006C156.635 179.328 156.472 178.551 156.472 177.676C156.472 176.79 156.639 176.008 156.972 175.33C157.306 174.648 157.776 174.116 158.382 173.733C158.988 173.35 159.702 173.159 160.524 173.159C161.187 173.159 161.777 173.282 162.296 173.528C162.815 173.771 163.234 174.112 163.552 174.551C163.874 174.991 164.065 175.504 164.126 176.091H162.472C162.382 175.682 162.173 175.33 161.847 175.034C161.526 174.739 161.094 174.591 160.552 174.591C160.079 174.591 159.664 174.716 159.308 174.966C158.955 175.212 158.681 175.564 158.484 176.023C158.287 176.477 158.188 177.015 158.188 177.636C158.188 178.273 158.285 178.822 158.478 179.284C158.671 179.746 158.944 180.104 159.296 180.358C159.652 180.612 160.071 180.739 160.552 180.739C160.874 180.739 161.166 180.68 161.427 180.562C161.692 180.441 161.914 180.269 162.092 180.045C162.274 179.822 162.401 179.553 162.472 179.239H164.126C164.065 179.803 163.882 180.307 163.575 180.75C163.268 181.193 162.857 181.542 162.342 181.795C161.83 182.049 161.23 182.176 160.541 182.176ZM169.064 182.176C168.204 182.176 167.464 181.992 166.842 181.625C166.225 181.254 165.748 180.733 165.411 180.062C165.077 179.388 164.911 178.598 164.911 177.693C164.911 176.799 165.077 176.011 165.411 175.33C165.748 174.648 166.217 174.116 166.82 173.733C167.426 173.35 168.134 173.159 168.945 173.159C169.437 173.159 169.914 173.241 170.377 173.403C170.839 173.566 171.253 173.822 171.621 174.17C171.988 174.519 172.278 174.972 172.49 175.528C172.702 176.081 172.808 176.754 172.808 177.545V178.148H165.871V176.875H171.144C171.144 176.428 171.053 176.032 170.871 175.688C170.689 175.339 170.433 175.064 170.104 174.864C169.778 174.663 169.395 174.562 168.956 174.562C168.479 174.562 168.062 174.68 167.706 174.915C167.354 175.146 167.081 175.449 166.888 175.824C166.699 176.195 166.604 176.598 166.604 177.034V178.028C166.604 178.612 166.706 179.108 166.911 179.517C167.119 179.926 167.409 180.239 167.78 180.455C168.151 180.667 168.585 180.773 169.081 180.773C169.403 180.773 169.697 180.727 169.962 180.636C170.227 180.542 170.456 180.402 170.649 180.216C170.842 180.03 170.99 179.801 171.092 179.528L172.7 179.818C172.572 180.292 172.341 180.706 172.007 181.062C171.678 181.415 171.263 181.689 170.763 181.886C170.267 182.08 169.7 182.176 169.064 182.176Z" fill="white"/>
</g>
<g opacity="0.7" clip-path="url(#clip2_337_6105)">
<path d="M85.5 178C79.9772 178 75.5 182.477 75.5 188V418C75.5 429.046 84.4543 438 95.5 438H451.5C462.546 438 471.5 429.046 471.5 418V224C471.5 212.954 462.546 204 451.5 204H225.652L219.818 185.057C218.526 180.862 214.65 178 210.261 178H85.5Z" fill="#F19A38"/>
<path d="M225.174 204.147L225.283 204.5H225.652H451.5C462.27 204.5 471 213.23 471 224V418C471 428.77 462.27 437.5 451.5 437.5H95.5C84.7305 437.5 76 428.77 76 418V188C76 182.753 80.2533 178.5 85.5 178.5H210.261C214.431 178.5 218.113 181.219 219.34 185.204L225.174 204.147Z" stroke="url(#paint2_linear_337_6105)" stroke-opacity="0.5"/>
<path d="M99.0568 200L95.8295 188.364H97.6761L99.9432 197.375H100.051L102.409 188.364H104.239L106.597 197.381H106.705L108.966 188.364H110.818L107.585 200H105.818L103.369 191.284H103.278L100.83 200H99.0568ZM114.459 200.176C113.641 200.176 112.927 199.989 112.317 199.614C111.708 199.239 111.234 198.714 110.897 198.04C110.56 197.366 110.391 196.578 110.391 195.676C110.391 194.771 110.56 193.979 110.897 193.301C111.234 192.623 111.708 192.097 112.317 191.722C112.927 191.347 113.641 191.159 114.459 191.159C115.278 191.159 115.992 191.347 116.601 191.722C117.211 192.097 117.685 192.623 118.022 193.301C118.359 193.979 118.528 194.771 118.528 195.676C118.528 196.578 118.359 197.366 118.022 198.04C117.685 198.714 117.211 199.239 116.601 199.614C115.992 199.989 115.278 200.176 114.459 200.176ZM114.465 198.75C114.995 198.75 115.435 198.61 115.783 198.33C116.132 198.049 116.389 197.676 116.556 197.21C116.726 196.744 116.812 196.231 116.812 195.67C116.812 195.114 116.726 194.602 116.556 194.136C116.389 193.667 116.132 193.29 115.783 193.006C115.435 192.722 114.995 192.58 114.465 192.58C113.931 192.58 113.488 192.722 113.136 193.006C112.787 193.29 112.528 193.667 112.357 194.136C112.19 194.602 112.107 195.114 112.107 195.67C112.107 196.231 112.19 196.744 112.357 197.21C112.528 197.676 112.787 198.049 113.136 198.33C113.488 198.61 113.931 198.75 114.465 198.75ZM119.784 200V191.273H121.426V192.659H121.517C121.676 192.189 121.956 191.82 122.358 191.551C122.763 191.278 123.221 191.142 123.733 191.142C123.839 191.142 123.964 191.146 124.108 191.153C124.256 191.161 124.371 191.17 124.454 191.182V192.807C124.386 192.788 124.265 192.767 124.091 192.744C123.916 192.718 123.742 192.705 123.568 192.705C123.166 192.705 122.809 192.79 122.494 192.96C122.184 193.127 121.937 193.36 121.756 193.659C121.574 193.955 121.483 194.292 121.483 194.67V200H119.784ZM128.239 200.17C127.535 200.17 126.906 199.991 126.353 199.631C125.803 199.267 125.372 198.75 125.057 198.08C124.747 197.405 124.591 196.597 124.591 195.653C124.591 194.71 124.749 193.903 125.063 193.233C125.381 192.562 125.817 192.049 126.37 191.693C126.923 191.337 127.55 191.159 128.25 191.159C128.792 191.159 129.228 191.25 129.557 191.432C129.891 191.61 130.148 191.818 130.33 192.057C130.516 192.295 130.66 192.506 130.762 192.688H130.864V188.364H132.563V200H130.904V198.642H130.762C130.66 198.828 130.512 199.04 130.319 199.278C130.129 199.517 129.868 199.725 129.535 199.903C129.201 200.081 128.769 200.17 128.239 200.17ZM128.614 198.722C129.103 198.722 129.516 198.593 129.853 198.335C130.194 198.074 130.451 197.712 130.625 197.25C130.803 196.788 130.892 196.25 130.892 195.636C130.892 195.03 130.805 194.5 130.631 194.045C130.457 193.591 130.201 193.237 129.864 192.983C129.527 192.729 129.11 192.602 128.614 192.602C128.103 192.602 127.677 192.735 127.336 193C126.995 193.265 126.737 193.627 126.563 194.085C126.393 194.544 126.307 195.061 126.307 195.636C126.307 196.22 126.394 196.744 126.569 197.21C126.743 197.676 127 198.045 127.341 198.318C127.686 198.587 128.11 198.722 128.614 198.722ZM140.887 193.403L139.348 193.676C139.283 193.479 139.181 193.292 139.041 193.114C138.904 192.936 138.719 192.79 138.484 192.676C138.249 192.562 137.956 192.506 137.603 192.506C137.122 192.506 136.721 192.614 136.399 192.83C136.077 193.042 135.916 193.316 135.916 193.653C135.916 193.945 136.024 194.18 136.24 194.358C136.456 194.536 136.804 194.682 137.285 194.795L138.672 195.114C139.475 195.299 140.073 195.585 140.467 195.972C140.861 196.358 141.058 196.86 141.058 197.477C141.058 198 140.906 198.466 140.603 198.875C140.304 199.28 139.886 199.598 139.348 199.83C138.814 200.061 138.194 200.176 137.49 200.176C136.512 200.176 135.715 199.968 135.098 199.551C134.48 199.131 134.101 198.534 133.961 197.761L135.603 197.511C135.706 197.939 135.916 198.263 136.234 198.483C136.552 198.699 136.967 198.807 137.478 198.807C138.035 198.807 138.48 198.691 138.814 198.46C139.147 198.225 139.314 197.939 139.314 197.602C139.314 197.33 139.211 197.1 139.007 196.915C138.806 196.729 138.497 196.589 138.081 196.494L136.603 196.17C135.789 195.985 135.187 195.689 134.797 195.284C134.41 194.879 134.217 194.366 134.217 193.744C134.217 193.229 134.361 192.778 134.649 192.392C134.937 192.006 135.334 191.705 135.842 191.489C136.35 191.269 136.931 191.159 137.586 191.159C138.529 191.159 139.272 191.364 139.814 191.773C140.355 192.178 140.713 192.722 140.887 193.403Z" fill="white"/>
</g>
<g opacity="0.8" clip-path="url(#clip3_337_6105)">
<g filter="url(#filter0_d_337_6105)">
<path d="M75.5 201C69.9772 201 65.5 205.477 65.5 211V441C65.5 452.046 74.4543 461 85.5 461H461.5C472.546 461 481.5 452.046 481.5 441V247C481.5 235.954 472.546 227 461.5 227H215.652L209.818 208.057C208.526 203.862 204.65 201 200.261 201H75.5Z" fill="#4416CE"/>
<path d="M215.174 227.147L215.283 227.5H215.652H461.5C472.27 227.5 481 236.23 481 247V441C481 451.77 472.27 460.5 461.5 460.5H85.5C74.7305 460.5 66 451.77 66 441V211C66 205.753 70.2533 201.5 75.5 201.5H200.261C204.431 201.5 208.113 204.219 209.34 208.204L215.174 227.147Z" stroke="url(#paint3_linear_337_6105)" stroke-opacity="0.5"/>
</g>
<path d="M93.125 214.42C93.0644 213.883 92.8144 213.466 92.375 213.17C91.9356 212.871 91.3826 212.722 90.7159 212.722C90.2386 212.722 89.8258 212.797 89.4773 212.949C89.1288 213.097 88.858 213.301 88.6648 213.562C88.4754 213.82 88.3807 214.114 88.3807 214.443C88.3807 214.72 88.4451 214.958 88.5739 215.159C88.7064 215.36 88.8788 215.528 89.0909 215.665C89.3068 215.797 89.5379 215.909 89.7841 216C90.0303 216.087 90.267 216.159 90.4943 216.216L91.6307 216.511C92.0019 216.602 92.3826 216.725 92.7727 216.881C93.1629 217.036 93.5246 217.241 93.858 217.494C94.1913 217.748 94.4602 218.062 94.6648 218.438C94.8731 218.812 94.9773 219.261 94.9773 219.784C94.9773 220.443 94.8068 221.028 94.4659 221.54C94.1288 222.051 93.6383 222.455 92.9943 222.75C92.3542 223.045 91.5795 223.193 90.6705 223.193C89.7992 223.193 89.0455 223.055 88.4091 222.778C87.7727 222.502 87.2746 222.11 86.9148 221.602C86.5549 221.091 86.3561 220.485 86.3182 219.784H88.0795C88.1136 220.205 88.25 220.555 88.4886 220.835C88.7311 221.112 89.0398 221.318 89.4148 221.455C89.7936 221.587 90.2083 221.653 90.6591 221.653C91.1553 221.653 91.5966 221.576 91.983 221.42C92.3731 221.261 92.6799 221.042 92.9034 220.761C93.1269 220.477 93.2386 220.146 93.2386 219.767C93.2386 219.422 93.1402 219.14 92.9432 218.92C92.75 218.701 92.4867 218.519 92.1534 218.375C91.8239 218.231 91.4508 218.104 91.0341 217.994L89.6591 217.619C88.7273 217.366 87.9886 216.992 87.4432 216.5C86.9015 216.008 86.6307 215.356 86.6307 214.545C86.6307 213.875 86.8125 213.29 87.1761 212.79C87.5398 212.29 88.0322 211.902 88.6534 211.625C89.2746 211.345 89.9754 211.205 90.7557 211.205C91.5436 211.205 92.2386 211.343 92.8409 211.619C93.447 211.896 93.9242 212.277 94.2727 212.761C94.6212 213.242 94.803 213.795 94.8182 214.42H93.125ZM96.2989 223V214.273H97.9978V223H96.2989ZM97.1569 212.926C96.8614 212.926 96.6076 212.828 96.3955 212.631C96.1872 212.43 96.083 212.191 96.083 211.915C96.083 211.634 96.1872 211.396 96.3955 211.199C96.6076 210.998 96.8614 210.898 97.1569 210.898C97.4523 210.898 97.7042 210.998 97.9126 211.199C98.1247 211.396 98.2307 211.634 98.2307 211.915C98.2307 212.191 98.1247 212.43 97.9126 212.631C97.7042 212.828 97.4523 212.926 97.1569 212.926ZM103.302 226.455C102.609 226.455 102.013 226.364 101.513 226.182C101.016 226 100.611 225.759 100.297 225.46C99.9823 225.161 99.7475 224.833 99.5922 224.477L101.052 223.875C101.155 224.042 101.291 224.218 101.461 224.403C101.636 224.593 101.871 224.754 102.166 224.886C102.465 225.019 102.85 225.085 103.319 225.085C103.963 225.085 104.496 224.928 104.916 224.614C105.336 224.303 105.547 223.807 105.547 223.125V221.409H105.439C105.336 221.595 105.189 221.801 104.996 222.028C104.806 222.256 104.545 222.453 104.211 222.619C103.878 222.786 103.444 222.869 102.91 222.869C102.221 222.869 101.6 222.708 101.047 222.386C100.497 222.061 100.062 221.581 99.7399 220.949C99.4217 220.312 99.2626 219.53 99.2626 218.602C99.2626 217.674 99.4198 216.879 99.7342 216.216C100.052 215.553 100.488 215.045 101.041 214.693C101.594 214.337 102.221 214.159 102.922 214.159C103.463 214.159 103.901 214.25 104.234 214.432C104.568 214.61 104.827 214.818 105.013 215.057C105.202 215.295 105.348 215.506 105.45 215.688H105.575V214.273H107.24V223.193C107.24 223.943 107.066 224.559 106.717 225.04C106.369 225.521 105.897 225.877 105.302 226.108C104.711 226.339 104.045 226.455 103.302 226.455ZM103.285 221.46C103.774 221.46 104.187 221.347 104.524 221.119C104.865 220.888 105.122 220.559 105.297 220.131C105.475 219.699 105.564 219.182 105.564 218.58C105.564 217.992 105.477 217.475 105.302 217.028C105.128 216.581 104.872 216.233 104.535 215.983C104.198 215.729 103.782 215.602 103.285 215.602C102.774 215.602 102.348 215.735 102.007 216C101.666 216.261 101.408 216.617 101.234 217.068C101.064 217.519 100.979 218.023 100.979 218.58C100.979 219.152 101.066 219.653 101.24 220.085C101.414 220.517 101.672 220.854 102.013 221.097C102.357 221.339 102.782 221.46 103.285 221.46ZM110.577 217.818V223H108.878V211.364H110.554V215.693H110.662C110.867 215.223 111.179 214.85 111.6 214.574C112.02 214.297 112.57 214.159 113.248 214.159C113.846 214.159 114.369 214.282 114.816 214.528C115.267 214.775 115.615 215.142 115.861 215.631C116.111 216.116 116.236 216.722 116.236 217.449V223H114.537V217.653C114.537 217.013 114.373 216.517 114.043 216.165C113.714 215.809 113.255 215.631 112.668 215.631C112.267 215.631 111.907 215.716 111.589 215.886C111.274 216.057 111.026 216.307 110.844 216.636C110.666 216.962 110.577 217.356 110.577 217.818ZM121.937 214.273V215.636H117.17V214.273H121.937ZM118.449 212.182H120.147V220.438C120.147 220.767 120.197 221.015 120.295 221.182C120.394 221.345 120.52 221.456 120.676 221.517C120.835 221.574 121.007 221.602 121.193 221.602C121.329 221.602 121.449 221.593 121.551 221.574C121.653 221.555 121.733 221.54 121.789 221.528L122.096 222.932C121.998 222.97 121.858 223.008 121.676 223.045C121.494 223.087 121.267 223.11 120.994 223.114C120.547 223.121 120.13 223.042 119.744 222.875C119.358 222.708 119.045 222.451 118.806 222.102C118.568 221.754 118.449 221.316 118.449 220.79V212.182ZM129.186 223L125.958 211.364H127.805L130.072 220.375H130.18L132.538 211.364H134.367L136.725 220.381H136.833L139.095 211.364H140.947L137.714 223H135.947L133.498 214.284H133.407L130.958 223H129.186ZM144.588 223.176C143.77 223.176 143.056 222.989 142.446 222.614C141.836 222.239 141.363 221.714 141.026 221.04C140.689 220.366 140.52 219.578 140.52 218.676C140.52 217.771 140.689 216.979 141.026 216.301C141.363 215.623 141.836 215.097 142.446 214.722C143.056 214.347 143.77 214.159 144.588 214.159C145.406 214.159 146.12 214.347 146.73 214.722C147.34 215.097 147.814 215.623 148.151 216.301C148.488 216.979 148.656 217.771 148.656 218.676C148.656 219.578 148.488 220.366 148.151 221.04C147.814 221.714 147.34 222.239 146.73 222.614C146.12 222.989 145.406 223.176 144.588 223.176ZM144.594 221.75C145.124 221.75 145.564 221.61 145.912 221.33C146.261 221.049 146.518 220.676 146.685 220.21C146.855 219.744 146.94 219.231 146.94 218.67C146.94 218.114 146.855 217.602 146.685 217.136C146.518 216.667 146.261 216.29 145.912 216.006C145.564 215.722 145.124 215.58 144.594 215.58C144.06 215.58 143.617 215.722 143.264 216.006C142.916 216.29 142.656 216.667 142.486 217.136C142.319 217.602 142.236 218.114 142.236 218.67C142.236 219.231 142.319 219.744 142.486 220.21C142.656 220.676 142.916 221.049 143.264 221.33C143.617 221.61 144.06 221.75 144.594 221.75ZM149.913 223V214.273H151.555V215.659H151.646C151.805 215.189 152.085 214.82 152.487 214.551C152.892 214.278 153.35 214.142 153.862 214.142C153.968 214.142 154.093 214.146 154.237 214.153C154.384 214.161 154.5 214.17 154.583 214.182V215.807C154.515 215.788 154.394 215.767 154.219 215.744C154.045 215.718 153.871 215.705 153.697 215.705C153.295 215.705 152.937 215.79 152.623 215.96C152.312 216.127 152.066 216.36 151.884 216.659C151.702 216.955 151.612 217.292 151.612 217.67V223H149.913ZM158.368 223.17C157.663 223.17 157.035 222.991 156.481 222.631C155.932 222.267 155.5 221.75 155.186 221.08C154.875 220.405 154.72 219.597 154.72 218.653C154.72 217.71 154.877 216.903 155.192 216.233C155.51 215.562 155.945 215.049 156.499 214.693C157.052 214.337 157.678 214.159 158.379 214.159C158.921 214.159 159.356 214.25 159.686 214.432C160.019 214.61 160.277 214.818 160.459 215.057C160.644 215.295 160.788 215.506 160.891 215.688H160.993V211.364H162.692V223H161.033V221.642H160.891C160.788 221.828 160.641 222.04 160.447 222.278C160.258 222.517 159.997 222.725 159.663 222.903C159.33 223.081 158.898 223.17 158.368 223.17ZM158.743 221.722C159.231 221.722 159.644 221.593 159.981 221.335C160.322 221.074 160.58 220.712 160.754 220.25C160.932 219.788 161.021 219.25 161.021 218.636C161.021 218.03 160.934 217.5 160.76 217.045C160.586 216.591 160.33 216.237 159.993 215.983C159.656 215.729 159.239 215.602 158.743 215.602C158.231 215.602 157.805 215.735 157.464 216C157.124 216.265 156.866 216.627 156.692 217.085C156.521 217.544 156.436 218.061 156.436 218.636C156.436 219.22 156.523 219.744 156.697 220.21C156.872 220.676 157.129 221.045 157.47 221.318C157.815 221.587 158.239 221.722 158.743 221.722ZM171.016 216.403L169.476 216.676C169.412 216.479 169.31 216.292 169.17 216.114C169.033 215.936 168.848 215.79 168.613 215.676C168.378 215.562 168.084 215.506 167.732 215.506C167.251 215.506 166.85 215.614 166.528 215.83C166.206 216.042 166.045 216.316 166.045 216.653C166.045 216.945 166.153 217.18 166.368 217.358C166.584 217.536 166.933 217.682 167.414 217.795L168.8 218.114C169.603 218.299 170.202 218.585 170.596 218.972C170.99 219.358 171.187 219.86 171.187 220.477C171.187 221 171.035 221.466 170.732 221.875C170.433 222.28 170.014 222.598 169.476 222.83C168.942 223.061 168.323 223.176 167.618 223.176C166.641 223.176 165.844 222.968 165.226 222.551C164.609 222.131 164.23 221.534 164.09 220.761L165.732 220.511C165.834 220.939 166.045 221.263 166.363 221.483C166.681 221.699 167.096 221.807 167.607 221.807C168.164 221.807 168.609 221.691 168.942 221.46C169.276 221.225 169.442 220.939 169.442 220.602C169.442 220.33 169.34 220.1 169.136 219.915C168.935 219.729 168.626 219.589 168.209 219.494L166.732 219.17C165.918 218.985 165.315 218.689 164.925 218.284C164.539 217.879 164.346 217.366 164.346 216.744C164.346 216.229 164.49 215.778 164.778 215.392C165.065 215.006 165.463 214.705 165.971 214.489C166.478 214.269 167.06 214.159 167.715 214.159C168.658 214.159 169.401 214.364 169.942 214.773C170.484 215.178 170.842 215.722 171.016 216.403Z" fill="white"/>
</g>
<g opacity="0.9" clip-path="url(#clip4_337_6105)">
<g filter="url(#filter1_d_337_6105)">
<path d="M65.5 223C59.9772 223 55.5 227.477 55.5 233V463C55.5 474.046 64.4543 483 75.5 483H471.5C482.546 483 491.5 474.046 491.5 463V269C491.5 257.954 482.546 249 471.5 249H205.652L199.818 230.057C198.526 225.862 194.65 223 190.261 223H65.5Z" fill="#DD468F"/>
<path d="M205.174 249.147L205.283 249.5H205.652H471.5C482.27 249.5 491 258.23 491 269V463C491 473.77 482.27 482.5 471.5 482.5H75.5C64.7305 482.5 56 473.77 56 463V233C56 227.753 60.2533 223.5 65.5 223.5H190.261C194.431 223.5 198.113 226.219 199.34 230.204L205.174 249.147Z" stroke="url(#paint4_linear_337_6105)" stroke-opacity="0.5"/>
</g>
<path d="M76.7784 245V233.364H80.9261C81.8314 233.364 82.5814 233.528 83.1761 233.858C83.7708 234.187 84.2159 234.638 84.5114 235.21C84.8068 235.778 84.9545 236.419 84.9545 237.131C84.9545 237.847 84.8049 238.491 84.5057 239.062C84.2102 239.631 83.7633 240.081 83.1648 240.415C82.5701 240.744 81.822 240.909 80.9205 240.909H78.0682V239.42H80.7614C81.3333 239.42 81.7973 239.322 82.1534 239.125C82.5095 238.924 82.7708 238.652 82.9375 238.307C83.1042 237.962 83.1875 237.57 83.1875 237.131C83.1875 236.691 83.1042 236.301 82.9375 235.96C82.7708 235.619 82.5076 235.352 82.1477 235.159C81.7917 234.966 81.322 234.869 80.7386 234.869H78.5341V245H76.7784ZM87.9353 239.818V245H86.2364V233.364H87.9126V237.693H88.0205C88.2251 237.223 88.5376 236.85 88.958 236.574C89.3785 236.297 89.9277 236.159 90.6057 236.159C91.2042 236.159 91.727 236.282 92.1739 236.528C92.6247 236.775 92.9732 237.142 93.2194 237.631C93.4694 238.116 93.5944 238.722 93.5944 239.449V245H91.8955V239.653C91.8955 239.013 91.7307 238.517 91.4012 238.165C91.0716 237.809 90.6133 237.631 90.0262 237.631C89.6247 237.631 89.2648 237.716 88.9466 237.886C88.6323 238.057 88.3841 238.307 88.2023 238.636C88.0243 238.962 87.9353 239.356 87.9353 239.818ZM98.8976 245.176C98.0794 245.176 97.3654 244.989 96.7555 244.614C96.1457 244.239 95.6722 243.714 95.3351 243.04C94.9979 242.366 94.8294 241.578 94.8294 240.676C94.8294 239.771 94.9979 238.979 95.3351 238.301C95.6722 237.623 96.1457 237.097 96.7555 236.722C97.3654 236.347 98.0794 236.159 98.8976 236.159C99.7157 236.159 100.43 236.347 101.04 236.722C101.649 237.097 102.123 237.623 102.46 238.301C102.797 238.979 102.966 239.771 102.966 240.676C102.966 241.578 102.797 242.366 102.46 243.04C102.123 243.714 101.649 244.239 101.04 244.614C100.43 244.989 99.7157 245.176 98.8976 245.176ZM98.9032 243.75C99.4335 243.75 99.8729 243.61 100.221 243.33C100.57 243.049 100.827 242.676 100.994 242.21C101.165 241.744 101.25 241.231 101.25 240.67C101.25 240.114 101.165 239.602 100.994 239.136C100.827 238.667 100.57 238.29 100.221 238.006C99.8729 237.722 99.4335 237.58 98.9032 237.58C98.3691 237.58 97.926 237.722 97.5737 238.006C97.2252 238.29 96.9657 238.667 96.7953 239.136C96.6286 239.602 96.5453 240.114 96.5453 240.67C96.5453 241.231 96.6286 241.744 96.7953 242.21C96.9657 242.676 97.2252 243.049 97.5737 243.33C97.926 243.61 98.3691 243.75 98.9032 243.75ZM105.921 239.818V245H104.222V236.273H105.853V237.693H105.961C106.161 237.231 106.476 236.86 106.904 236.58C107.336 236.299 107.879 236.159 108.535 236.159C109.129 236.159 109.65 236.284 110.097 236.534C110.544 236.78 110.891 237.148 111.137 237.636C111.383 238.125 111.506 238.729 111.506 239.449V245H109.807V239.653C109.807 239.021 109.643 238.527 109.313 238.17C108.983 237.811 108.531 237.631 107.955 237.631C107.561 237.631 107.211 237.716 106.904 237.886C106.601 238.057 106.36 238.307 106.182 238.636C106.008 238.962 105.921 239.356 105.921 239.818ZM113.145 245V236.273H114.843V245H113.145ZM114.002 234.926C113.707 234.926 113.453 234.828 113.241 234.631C113.033 234.43 112.929 234.191 112.929 233.915C112.929 233.634 113.033 233.396 113.241 233.199C113.453 232.998 113.707 232.898 114.002 232.898C114.298 232.898 114.55 232.998 114.758 233.199C114.97 233.396 115.076 233.634 115.076 233.915C115.076 234.191 114.97 234.43 114.758 234.631C114.55 234.828 114.298 234.926 114.002 234.926ZM120.165 245.176C119.32 245.176 118.593 244.985 117.983 244.602C117.377 244.216 116.911 243.684 116.586 243.006C116.26 242.328 116.097 241.551 116.097 240.676C116.097 239.79 116.264 239.008 116.597 238.33C116.93 237.648 117.4 237.116 118.006 236.733C118.612 236.35 119.326 236.159 120.148 236.159C120.811 236.159 121.402 236.282 121.921 236.528C122.44 236.771 122.858 237.112 123.176 237.551C123.498 237.991 123.69 238.504 123.75 239.091H122.097C122.006 238.682 121.798 238.33 121.472 238.034C121.15 237.739 120.718 237.591 120.176 237.591C119.703 237.591 119.288 237.716 118.932 237.966C118.58 238.212 118.305 238.564 118.108 239.023C117.911 239.477 117.813 240.015 117.813 240.636C117.813 241.273 117.909 241.822 118.103 242.284C118.296 242.746 118.568 243.104 118.921 243.358C119.277 243.612 119.695 243.739 120.176 243.739C120.498 243.739 120.79 243.68 121.051 243.562C121.317 243.441 121.538 243.269 121.716 243.045C121.898 242.822 122.025 242.553 122.097 242.239H123.75C123.69 242.803 123.506 243.307 123.199 243.75C122.892 244.193 122.481 244.542 121.966 244.795C121.455 245.049 120.854 245.176 120.165 245.176ZM131.467 238.403L129.927 238.676C129.863 238.479 129.76 238.292 129.62 238.114C129.484 237.936 129.298 237.79 129.063 237.676C128.829 237.562 128.535 237.506 128.183 237.506C127.702 237.506 127.3 237.614 126.978 237.83C126.656 238.042 126.495 238.316 126.495 238.653C126.495 238.945 126.603 239.18 126.819 239.358C127.035 239.536 127.383 239.682 127.865 239.795L129.251 240.114C130.054 240.299 130.652 240.585 131.046 240.972C131.44 241.358 131.637 241.86 131.637 242.477C131.637 243 131.486 243.466 131.183 243.875C130.883 244.28 130.465 244.598 129.927 244.83C129.393 245.061 128.774 245.176 128.069 245.176C127.092 245.176 126.294 244.968 125.677 244.551C125.06 244.131 124.681 243.534 124.541 242.761L126.183 242.511C126.285 242.939 126.495 243.263 126.813 243.483C127.132 243.699 127.546 243.807 128.058 243.807C128.615 243.807 129.06 243.691 129.393 243.46C129.726 243.225 129.893 242.939 129.893 242.602C129.893 242.33 129.791 242.1 129.586 241.915C129.385 241.729 129.077 241.589 128.66 241.494L127.183 241.17C126.368 240.985 125.766 240.689 125.376 240.284C124.99 239.879 124.796 239.366 124.796 238.744C124.796 238.229 124.94 237.778 125.228 237.392C125.516 237.006 125.914 236.705 126.421 236.489C126.929 236.269 127.51 236.159 128.166 236.159C129.109 236.159 129.851 236.364 130.393 236.773C130.935 237.178 131.293 237.722 131.467 238.403Z" fill="white"/>
</g>
<g clip-path="url(#clip5_337_6105)">
<g filter="url(#filter2_d_337_6105)">
<path d="M56.5 246C50.9772 246 46.5 250.477 46.5 256V486C46.5 497.046 55.4543 506 66.5 506H482.5C493.546 506 502.5 497.046 502.5 486V292C502.5 280.954 493.546 272 482.5 272H196.652L190.818 253.057C189.526 248.862 185.65 246 181.261 246H56.5Z" fill="url(#paint5_linear_337_6105)"/>
<path d="M196.174 272.147L196.283 272.5H196.652H482.5C493.27 272.5 502 281.23 502 292V486C502 496.77 493.27 505.5 482.5 505.5H66.5C55.7305 505.5 47 496.77 47 486V256C47 250.753 51.2533 246.5 56.5 246.5H181.261C185.431 246.5 189.113 249.219 190.34 253.204L196.174 272.147Z" stroke="url(#paint6_linear_337_6105)" stroke-opacity="0.5"/>
</g>
<path d="M177.784 376H172.193L184.756 341.091H190.841L203.403 376H197.812L187.943 347.432H187.67L177.784 376ZM178.722 362.33H196.858V366.761H178.722V362.33ZM211.692 341.091V376H206.596V341.091H211.692ZM217.109 385.818V349.818H222.086V354.062H222.512C222.807 353.517 223.234 352.886 223.79 352.17C224.347 351.455 225.12 350.83 226.109 350.295C227.097 349.75 228.404 349.477 230.029 349.477C232.143 349.477 234.029 350.011 235.688 351.08C237.347 352.148 238.648 353.687 239.592 355.699C240.546 357.71 241.023 360.131 241.023 362.96C241.023 365.79 240.552 368.216 239.609 370.239C238.665 372.25 237.37 373.801 235.722 374.892C234.075 375.972 232.194 376.511 230.08 376.511C228.489 376.511 227.188 376.244 226.177 375.71C225.177 375.176 224.393 374.551 223.825 373.835C223.256 373.119 222.819 372.483 222.512 371.926H222.205V385.818H217.109ZM222.103 362.909C222.103 364.75 222.37 366.364 222.904 367.75C223.438 369.136 224.211 370.222 225.222 371.006C226.234 371.778 227.472 372.165 228.938 372.165C230.461 372.165 231.734 371.761 232.756 370.955C233.779 370.136 234.552 369.028 235.075 367.631C235.609 366.233 235.876 364.659 235.876 362.909C235.876 361.182 235.614 359.631 235.092 358.256C234.58 356.881 233.807 355.795 232.773 355C231.751 354.205 230.472 353.807 228.938 353.807C227.461 353.807 226.211 354.187 225.188 354.949C224.177 355.71 223.41 356.773 222.887 358.136C222.364 359.5 222.103 361.091 222.103 362.909ZM250.39 360.455V376H245.294V341.091H250.322V354.08H250.646C251.26 352.67 252.197 351.551 253.458 350.722C254.72 349.892 256.368 349.477 258.402 349.477C260.197 349.477 261.765 349.847 263.106 350.585C264.458 351.324 265.504 352.426 266.243 353.892C266.993 355.347 267.368 357.165 267.368 359.347V376H262.271V359.96C262.271 358.04 261.777 356.551 260.788 355.494C259.799 354.426 258.424 353.892 256.663 353.892C255.458 353.892 254.379 354.148 253.424 354.659C252.481 355.17 251.737 355.92 251.191 356.909C250.657 357.886 250.39 359.068 250.39 360.455ZM280.348 376.58C278.689 376.58 277.189 376.273 275.848 375.659C274.507 375.034 273.445 374.131 272.66 372.949C271.888 371.767 271.501 370.318 271.501 368.602C271.501 367.125 271.785 365.909 272.354 364.955C272.922 364 273.689 363.244 274.655 362.688C275.621 362.131 276.7 361.71 277.893 361.426C279.087 361.142 280.302 360.926 281.541 360.778C283.109 360.597 284.382 360.449 285.359 360.335C286.337 360.21 287.047 360.011 287.49 359.739C287.933 359.466 288.155 359.023 288.155 358.409V358.29C288.155 356.801 287.734 355.648 286.893 354.83C286.064 354.011 284.825 353.602 283.177 353.602C281.462 353.602 280.109 353.983 279.121 354.744C278.143 355.494 277.467 356.33 277.092 357.25L272.302 356.159C272.871 354.568 273.7 353.284 274.791 352.307C275.893 351.318 277.16 350.602 278.592 350.159C280.024 349.705 281.53 349.477 283.109 349.477C284.155 349.477 285.263 349.602 286.433 349.852C287.615 350.091 288.717 350.534 289.74 351.182C290.774 351.83 291.621 352.756 292.28 353.96C292.939 355.153 293.268 356.705 293.268 358.614V376H288.291V372.42H288.087C287.757 373.08 287.263 373.727 286.604 374.364C285.945 375 285.098 375.528 284.064 375.949C283.03 376.369 281.791 376.58 280.348 376.58ZM281.456 372.489C282.865 372.489 284.07 372.21 285.07 371.653C286.081 371.097 286.848 370.369 287.371 369.472C287.905 368.562 288.172 367.591 288.172 366.557V363.182C287.99 363.364 287.638 363.534 287.115 363.693C286.604 363.841 286.018 363.972 285.359 364.085C284.7 364.187 284.058 364.284 283.433 364.375C282.808 364.455 282.285 364.523 281.865 364.58C280.876 364.705 279.973 364.915 279.155 365.21C278.348 365.506 277.7 365.932 277.212 366.489C276.734 367.034 276.496 367.761 276.496 368.67C276.496 369.932 276.962 370.886 277.893 371.534C278.825 372.17 280.013 372.489 281.456 372.489ZM299.026 376V341.091H304.122V354.062H304.429C304.725 353.517 305.151 352.886 305.708 352.17C306.264 351.455 307.037 350.83 308.026 350.295C309.014 349.75 310.321 349.477 311.946 349.477C314.06 349.477 315.946 350.011 317.605 351.08C319.264 352.148 320.566 353.687 321.509 355.699C322.463 357.71 322.941 360.131 322.941 362.96C322.941 365.79 322.469 368.216 321.526 370.239C320.583 372.25 319.287 373.801 317.639 374.892C315.992 375.972 314.111 376.511 311.997 376.511C310.407 376.511 309.105 376.244 308.094 375.71C307.094 375.176 306.31 374.551 305.742 373.835C305.174 373.119 304.736 372.483 304.429 371.926H304.003V376H299.026ZM304.02 362.909C304.02 364.75 304.287 366.364 304.821 367.75C305.355 369.136 306.128 370.222 307.139 371.006C308.151 371.778 309.389 372.165 310.855 372.165C312.378 372.165 313.651 371.761 314.674 370.955C315.696 370.136 316.469 369.028 316.992 367.631C317.526 366.233 317.793 364.659 317.793 362.909C317.793 361.182 317.532 359.631 317.009 358.256C316.497 356.881 315.725 355.795 314.691 355C313.668 354.205 312.389 353.807 310.855 353.807C309.378 353.807 308.128 354.187 307.105 354.949C306.094 355.71 305.327 356.773 304.804 358.136C304.282 359.5 304.02 361.091 304.02 362.909ZM338.508 376.528C335.928 376.528 333.707 375.977 331.843 374.875C329.991 373.761 328.559 372.199 327.548 370.188C326.548 368.165 326.048 365.795 326.048 363.08C326.048 360.398 326.548 358.034 327.548 355.989C328.559 353.943 329.968 352.347 331.775 351.199C333.593 350.051 335.718 349.477 338.15 349.477C339.627 349.477 341.059 349.722 342.445 350.21C343.832 350.699 345.076 351.466 346.178 352.511C347.28 353.557 348.15 354.915 348.786 356.585C349.423 358.244 349.741 360.261 349.741 362.636V364.443H328.928V360.625H344.746C344.746 359.284 344.474 358.097 343.928 357.062C343.383 356.017 342.616 355.193 341.627 354.591C340.65 353.989 339.502 353.688 338.184 353.688C336.752 353.688 335.502 354.04 334.434 354.744C333.377 355.437 332.559 356.347 331.979 357.472C331.411 358.585 331.127 359.795 331.127 361.102V364.085C331.127 365.835 331.434 367.324 332.048 368.551C332.673 369.778 333.542 370.716 334.655 371.364C335.769 372 337.07 372.318 338.559 372.318C339.525 372.318 340.405 372.182 341.201 371.909C341.996 371.625 342.684 371.205 343.263 370.648C343.843 370.091 344.286 369.403 344.593 368.585L349.417 369.455C349.03 370.875 348.337 372.119 347.337 373.188C346.349 374.244 345.104 375.068 343.604 375.659C342.116 376.239 340.417 376.528 338.508 376.528ZM366.177 349.818V353.909H351.876V349.818H366.177ZM355.711 343.545H360.808V368.312C360.808 369.301 360.956 370.045 361.251 370.545C361.546 371.034 361.927 371.369 362.393 371.551C362.87 371.722 363.387 371.807 363.944 371.807C364.353 371.807 364.711 371.778 365.018 371.722C365.325 371.665 365.563 371.619 365.734 371.585L366.654 375.795C366.359 375.909 365.938 376.023 365.393 376.136C364.848 376.261 364.166 376.33 363.348 376.341C362.007 376.364 360.757 376.125 359.598 375.625C358.438 375.125 357.501 374.352 356.785 373.307C356.069 372.261 355.711 370.949 355.711 369.369V343.545Z" fill="white"/>
</g>
<defs>
<filter id="filter0_d_337_6105" x="62.5" y="195" width="424" height="268" filterUnits="userSpaceOnUse" color-interpolation-filters="sRGB">
<feFlood flood-opacity="0" result="BackgroundImageFix"/>
<feColorMatrix in="SourceAlpha" type="matrix" values="0 0 0 0 0 0 0 0 0 0 0 0 0 0 0 0 0 0 127 0" result="hardAlpha"/>
<feOffset dx="1" dy="-2"/>
<feGaussianBlur stdDeviation="2"/>
<feComposite in2="hardAlpha" operator="out"/>
<feColorMatrix type="matrix" values="0 0 0 0 0 0 0 0 0 0 0 0 0 0 0 0 0 0 0.25 0"/>
<feBlend mode="normal" in2="BackgroundImageFix" result="effect1_dropShadow_337_6105"/>
<feBlend mode="normal" in="SourceGraphic" in2="effect1_dropShadow_337_6105" result="shape"/>
</filter>
<filter id="filter1_d_337_6105" x="52.5" y="217" width="444" height="268" filterUnits="userSpaceOnUse" color-interpolation-filters="sRGB">
<feFlood flood-opacity="0" result="BackgroundImageFix"/>
<feColorMatrix in="SourceAlpha" type="matrix" values="0 0 0 0 0 0 0 0 0 0 0 0 0 0 0 0 0 0 127 0" result="hardAlpha"/>
<feOffset dx="1" dy="-2"/>
<feGaussianBlur stdDeviation="2"/>
<feComposite in2="hardAlpha" operator="out"/>
<feColorMatrix type="matrix" values="0 0 0 0 0 0 0 0 0 0 0 0 0 0 0 0 0 0 0.25 0"/>
<feBlend mode="normal" in2="BackgroundImageFix" result="effect1_dropShadow_337_6105"/>
<feBlend mode="normal" in="SourceGraphic" in2="effect1_dropShadow_337_6105" result="shape"/>
</filter>
<filter id="filter2_d_337_6105" x="43.5" y="240" width="464" height="268" filterUnits="userSpaceOnUse" color-interpolation-filters="sRGB">
<feFlood flood-opacity="0" result="BackgroundImageFix"/>
<feColorMatrix in="SourceAlpha" type="matrix" values="0 0 0 0 0 0 0 0 0 0 0 0 0 0 0 0 0 0 127 0" result="hardAlpha"/>
<feOffset dx="1" dy="-2"/>
<feGaussianBlur stdDeviation="2"/>
<feComposite in2="hardAlpha" operator="out"/>
<feColorMatrix type="matrix" values="0 0 0 0 0 0 0 0 0 0 0 0 0 0 0 0 0 0 0.25 0"/>
<feBlend mode="normal" in2="BackgroundImageFix" result="effect1_dropShadow_337_6105"/>
<feBlend mode="normal" in="SourceGraphic" in2="effect1_dropShadow_337_6105" result="shape"/>
</filter>
<linearGradient id="paint0_linear_337_6105" x1="66.2907" y1="189.504" x2="332.209" y2="362.997" gradientUnits="userSpaceOnUse">
<stop stop-color="white"/>
<stop offset="1" stop-color="#F7EEB6"/>
<stop offset="1" stop-color="#F8CE9F"/>
</linearGradient>
<linearGradient id="paint1_linear_337_6105" x1="56.2907" y1="205.504" x2="322.209" y2="378.997" gradientUnits="userSpaceOnUse">
<stop stop-color="white"/>
<stop offset="1" stop-color="#F7EEB6"/>
<stop offset="1" stop-color="#F8CE9F"/>
</linearGradient>
<linearGradient id="paint2_linear_337_6105" x1="46.2907" y1="223.504" x2="312.209" y2="396.997" gradientUnits="userSpaceOnUse">
<stop stop-color="white"/>
<stop offset="1" stop-color="#F19A38"/>
<stop offset="1" stop-color="#F8CE9F"/>
</linearGradient>
<linearGradient id="paint3_linear_337_6105" x1="77" y1="210" x2="475.5" y2="350.5" gradientUnits="userSpaceOnUse">
<stop stop-color="white"/>
<stop offset="1" stop-color="#4416CE"/>
</linearGradient>
<linearGradient id="paint4_linear_337_6105" x1="61" y1="228" x2="499" y2="403" gradientUnits="userSpaceOnUse">
<stop stop-color="white"/>
<stop offset="1" stop-color="#DD468F"/>
</linearGradient>
<linearGradient id="paint5_linear_337_6105" x1="462.334" y1="320.58" x2="37.3445" y2="321.045" gradientUnits="userSpaceOnUse">
<stop stop-color="#DD468F"/>
<stop offset="1" stop-color="#4416CE"/>
</linearGradient>
<linearGradient id="paint6_linear_337_6105" x1="59" y1="249.5" x2="489" y2="452" gradientUnits="userSpaceOnUse">
<stop stop-color="white"/>
<stop offset="1" stop-color="#DE4790"/>
</linearGradient>
<clipPath id="clip0_337_6105">
<rect width="499" height="268" fill="white" transform="translate(69.5)"/>
</clipPath>
<clipPath id="clip1_337_6105">
<rect width="499" height="268" fill="white" transform="translate(59.5 20)"/>
</clipPath>
<clipPath id="clip2_337_6105">
<rect width="499" height="268" fill="white" transform="translate(49.5 38)"/>
</clipPath>
<clipPath id="clip3_337_6105">
<rect width="499" height="268" fill="white" transform="translate(39.5 61)"/>
</clipPath>
<clipPath id="clip4_337_6105">
<rect width="499" height="268" fill="white" transform="translate(29.5 83)"/>
</clipPath>
<clipPath id="clip5_337_6105">
<rect width="499" height="274" fill="white" transform="translate(20.5 148)"/>
</clipPath>
</defs>
</svg>
