<svg width="204" height="206" viewBox="0 0 204 206" fill="none" xmlns="http://www.w3.org/2000/svg">
<path d="M98.8382 190.834L98.128 200.991L96.898 200.905L97.2504 195.866L97.1314 195.858L92.2163 200.578L90.6094 200.465L95.195 196.181L91.3197 190.308L92.8075 190.412L96.0085 195.381L97.378 194.041L97.6083 190.748L98.8382 190.834Z" fill="white"/>
<path d="M77.4122 192.834C77.6355 191.783 78.0181 190.916 78.56 190.231C79.1019 189.547 79.7477 189.067 80.4973 188.793C81.2468 188.519 82.0463 188.472 82.8957 188.652C83.7451 188.833 84.4564 189.201 85.0295 189.756C85.6027 190.312 85.9976 191.013 86.2143 191.858C86.431 192.704 86.4277 193.652 86.2044 194.703C85.9811 195.753 85.5985 196.62 85.0566 197.305C84.5147 197.989 83.8689 198.469 83.1193 198.743C82.3698 199.018 81.5703 199.065 80.7209 198.884C79.8715 198.703 79.1602 198.335 78.5871 197.78C78.0139 197.224 77.619 196.524 77.4023 195.678C77.1856 194.832 77.1889 193.884 77.4122 192.834ZM78.5793 193.082C78.396 193.944 78.3856 194.703 78.548 195.357C78.7072 196.011 78.9992 196.543 79.4239 196.951C79.8454 197.359 80.3577 197.628 80.9607 197.756C81.5637 197.884 82.1424 197.848 82.6967 197.647C83.2478 197.446 83.7306 197.079 84.1453 196.547C84.5567 196.014 84.854 195.317 85.0373 194.454C85.2206 193.592 85.2327 192.834 85.0735 192.18C84.911 191.525 84.6191 190.994 84.1976 190.586C83.7728 190.177 83.2589 189.909 82.6559 189.781C82.0529 189.652 81.4759 189.689 80.9248 189.89C80.3705 190.091 79.8876 190.458 79.4762 190.99C79.0616 191.522 78.7626 192.219 78.5793 193.082Z" fill="white"/>
<path d="M74.1328 186.448L70.6504 196.016L67.4176 194.839C66.6701 194.567 66.103 194.216 65.7163 193.786C65.3285 193.359 65.0998 192.882 65.0303 192.356C64.9608 191.83 65.0287 191.285 65.2339 190.721C65.439 190.158 65.7362 189.7 66.1254 189.348C66.5146 188.996 66.9928 188.782 67.56 188.706C68.126 188.633 68.7797 188.732 69.521 189.002L72.1371 189.954L71.7563 191L69.1774 190.062C68.6667 189.876 68.2283 189.801 67.8625 189.837C67.4935 189.872 67.1891 190.001 66.9492 190.224C66.705 190.449 66.5132 190.753 66.3738 191.136C66.2343 191.519 66.1841 191.88 66.2231 192.219C66.2621 192.558 66.4105 192.862 66.6684 193.132C66.9251 193.406 67.312 193.636 67.829 193.825L69.8659 194.566L72.9742 186.026L74.1328 186.448ZM68.0649 189.107L67.2747 183.952L68.6201 184.441L69.373 189.583L68.0649 189.107Z" fill="white"/>
<path d="M62.5026 181.666L57.7225 190.656L52.2969 187.771L52.8104 186.805L57.1473 189.111L58.7625 186.074L54.7065 183.917L55.2199 182.951L59.276 185.108L60.9005 182.053L56.4932 179.709L57.0067 178.744L62.5026 181.666Z" fill="white"/>
<path d="M52.4191 175.82L53.4648 176.58L44.4555 182.619L43.4258 181.871L46.3859 171.437L47.4317 172.196L44.8553 180.919L44.9196 180.966L52.4191 175.82ZM49.6952 178.757L45.48 175.695L46.1229 174.81L50.3381 177.872L49.6952 178.757Z" fill="white"/>
<path d="M32.5 172.527L33.1217 171.883C33.3105 171.688 33.5477 171.514 33.8333 171.361C34.1143 171.208 34.4229 171.094 34.7591 171.018C35.0906 170.942 35.4254 170.92 35.7635 170.951L35.8621 171.765C35.5047 171.835 35.1595 171.932 34.8265 172.057C34.4888 172.183 34.1921 172.378 33.9366 172.643L33.3011 173.301L32.5 172.527Z" fill="white"/>
<path d="M24.5426 159.459C24.1823 159.816 24.0231 160.247 24.0649 160.753C24.1067 161.259 24.3174 161.755 24.6969 162.24C24.9744 162.596 25.2747 162.861 25.5978 163.038C25.9188 163.212 26.238 163.295 26.5554 163.287C26.8708 163.276 27.1565 163.17 27.4124 162.97C27.6266 162.803 27.7709 162.608 27.8454 162.386C27.9153 162.163 27.9379 161.931 27.9132 161.69C27.886 161.45 27.8356 161.216 27.7622 160.987C27.6861 160.761 27.6095 160.558 27.5323 160.378L27.1151 159.392C27.0067 159.14 26.9008 158.849 26.7975 158.517C26.6921 158.183 26.6312 157.833 26.6147 157.468C26.5935 157.101 26.652 156.74 26.7902 156.384C26.9284 156.028 27.1855 155.703 27.5616 155.409C27.9952 155.071 28.4757 154.878 29.0032 154.832C29.5287 154.783 30.0639 154.895 30.609 155.167C31.152 155.437 31.6643 155.88 32.1459 156.496C32.5948 157.071 32.8908 157.641 33.0339 158.206C33.1749 158.769 33.1735 159.3 33.0295 159.8C32.8835 160.296 32.6034 160.732 32.1891 161.106L31.4055 160.103C31.6881 159.84 31.8592 159.543 31.919 159.21C31.974 158.877 31.9428 158.535 31.8252 158.185C31.7029 157.835 31.5173 157.501 31.2683 157.182C30.9786 156.811 30.6583 156.525 30.3076 156.324C29.9543 156.124 29.6019 156.023 29.2504 156.02C28.8964 156.019 28.5731 156.133 28.2805 156.362C28.0141 156.57 27.8555 156.814 27.8047 157.093C27.7538 157.373 27.7711 157.675 27.8564 157.999C27.9417 158.324 28.0553 158.658 28.1973 159.001L28.6866 160.208C28.9961 160.976 29.1266 161.673 29.0779 162.3C29.0293 162.927 28.7347 163.452 28.194 163.874C27.7448 164.225 27.2581 164.41 26.7341 164.428C26.2053 164.446 25.6871 164.321 25.1792 164.053C24.6667 163.784 24.2105 163.394 23.8105 162.882C23.4065 162.365 23.1401 161.833 23.0113 161.286C22.8799 160.741 22.8817 160.226 23.0166 159.742C23.1496 159.256 23.4134 158.848 23.808 158.519L24.5426 159.459Z" fill="white"/>
<path d="M8.91797 135.388L18.3584 131.574L18.8054 132.681L13.4716 140.82L13.5088 140.912L20.921 137.917L21.3829 139.06L11.9425 142.874L11.4955 141.768L16.8403 133.603L16.803 133.511L9.3724 136.513L8.91797 135.388Z" fill="white"/>
<path d="M10.1163 120.493C11.1583 120.233 12.1057 120.197 12.9584 120.384C13.8112 120.571 14.5252 120.941 15.1004 121.495C15.6756 122.048 16.0683 122.746 16.2784 123.589C16.4884 124.431 16.4694 125.232 16.2214 125.991C15.9733 126.749 15.5167 127.411 14.8516 127.977C14.1864 128.542 13.3328 128.955 12.2909 129.215C11.2489 129.475 10.3015 129.511 9.44879 129.324C8.59602 129.137 7.88202 128.767 7.30681 128.213C6.73159 127.66 6.33895 126.962 6.12887 126.119C5.91879 125.277 5.93779 124.476 6.18586 123.717C6.43393 122.959 6.89053 122.297 7.55568 121.731C8.22083 121.166 9.07439 120.753 10.1163 120.493ZM10.405 121.651C9.54957 121.864 8.86327 122.187 8.34612 122.62C7.82816 123.05 7.47857 123.545 7.29735 124.106C7.11532 124.664 7.09888 125.242 7.24802 125.84C7.39716 126.438 7.68342 126.943 8.10679 127.353C8.52936 127.76 9.07059 128.033 9.73047 128.173C10.3895 128.309 11.1468 128.27 12.0022 128.057C12.8577 127.844 13.5444 127.522 14.0623 127.093C14.5795 126.66 14.9291 126.164 15.1111 125.607C15.2923 125.046 15.3084 124.466 15.1592 123.868C15.0101 123.27 14.7242 122.767 14.3017 122.36C13.8783 121.95 13.3371 121.677 12.678 121.54C12.0181 121.401 11.2604 121.438 10.405 121.651Z" fill="white"/>
<path d="M14.2112 112.004C14.2368 112.248 14.1715 112.466 14.0151 112.659C13.8588 112.852 13.6587 112.962 13.4148 112.987C13.1708 113.013 12.9523 112.948 12.7593 112.791C12.5662 112.635 12.4569 112.435 12.4312 112.191C12.4056 111.947 12.4709 111.729 12.6273 111.535C12.7836 111.342 12.9838 111.233 13.2277 111.207C13.3892 111.19 13.5419 111.216 13.6857 111.284C13.8291 111.349 13.9492 111.445 14.0458 111.571C14.1387 111.695 14.1939 111.839 14.2112 112.004Z" fill="white"/>
<path d="M5.28832 83.915L15.3154 85.6831L15.1013 86.8973L6.34719 85.3537L6.33684 85.4125L7.53067 88.1471L6.29687 87.9296L5.07422 85.1292L5.28832 83.915Z" fill="white"/>
<path d="M21.4833 66.4415L12.332 61.9781L15.0257 56.4551L16.0088 56.9346L13.8555 61.3494L16.9477 62.8575L18.9614 58.7287L19.9445 59.2081L17.9307 63.337L21.0408 64.8538L23.2289 60.3675L24.2119 60.847L21.4833 66.4415Z" fill="white"/>
<path d="M28.6081 53.7359L26.8511 56.3407L18.41 50.6471L20.2448 47.9269C20.7971 47.108 21.4387 46.5213 22.1696 46.1668C22.8978 45.8104 23.6812 45.6891 24.5198 45.8031C25.3558 45.9151 26.2106 46.2659 27.0844 46.8552C27.9637 47.4483 28.615 48.1155 29.0385 48.8569C29.4592 49.5964 29.6379 50.3806 29.5746 51.2095C29.5085 52.0364 29.1863 52.8786 28.6081 53.7359ZM26.6338 54.707L27.6568 53.1902C28.1276 52.4923 28.3831 51.8231 28.4233 51.1825C28.4636 50.542 28.311 49.9414 27.9656 49.3806C27.6203 48.8198 27.1041 48.3078 26.4172 47.8444C25.7357 47.3848 25.074 47.1004 24.4321 46.9912C23.7873 46.8801 23.1839 46.9569 22.6217 47.2213C22.0568 47.4839 21.5519 47.945 21.1071 48.6044L20.0062 50.2366L26.6338 54.707Z" fill="white"/>
<path d="M30.8458 34.7214L31.6708 33.8051L36.6807 38.3161C37.198 38.7818 37.55 39.3195 37.7369 39.9293C37.9235 40.5344 37.9353 41.1627 37.7723 41.8143C37.6069 42.4637 37.2569 43.0852 36.7224 43.6788C36.1879 44.2724 35.6064 44.6854 34.9779 44.9178C34.347 45.148 33.7197 45.2032 33.0962 45.0833C32.4725 44.9587 31.902 44.6636 31.3847 44.1979L26.3748 39.6869L27.1998 38.7707L32.1358 43.2151C32.5053 43.5477 32.9073 43.7625 33.3419 43.8594C33.7739 43.9541 34.2078 43.9255 34.6434 43.7736C35.0787 43.6171 35.486 43.3282 35.8653 42.907C36.2445 42.4858 36.4892 42.0505 36.5994 41.6012C36.7072 41.1497 36.6903 40.7152 36.5487 40.2978C36.4069 39.8758 36.1513 39.4984 35.7818 39.1658L30.8458 34.7214Z" fill="white"/>
<path d="M36.7031 30.5727L36 29.7348L41.8498 24.8262L42.5529 25.6641L40.1002 27.7221L45.9419 34.684L44.9974 35.4765L39.1557 28.5147L36.7031 30.5727Z" fill="white"/>
<path d="M52.9385 29.4857L47.543 20.851L52.7542 17.5947L53.3337 18.5223L49.1682 21.1252L50.9913 24.0428L54.887 21.6085L55.4666 22.536L51.5709 24.9703L53.4045 27.9048L57.6376 25.2597L58.2172 26.1872L52.9385 29.4857Z" fill="white"/>
<path d="M67.4268 14.0628L66.3004 14.5643C66.0896 14.2699 65.8463 14.0372 65.5705 13.8661C65.2978 13.6937 65.0063 13.5767 64.696 13.5154C64.3874 13.4496 64.0719 13.4377 63.7495 13.4796C63.4272 13.5216 63.1116 13.6113 62.8027 13.7488C62.2395 13.9995 61.7927 14.369 61.4622 14.8572C61.1348 15.344 60.9596 15.9245 60.9369 16.5985C60.9171 17.2713 61.0865 18.0103 61.4451 18.8157C61.8037 19.6212 62.2396 20.2416 62.7527 20.6771C63.2689 21.1112 63.8174 21.3694 64.3983 21.4518C64.9823 21.5329 65.5558 21.4481 66.119 21.1973C66.4278 21.0598 66.7057 20.8853 66.9526 20.6738C67.1994 20.4623 67.4024 20.2214 67.5614 19.9511C67.7221 19.6763 67.8296 19.38 67.8839 19.0619C67.9399 18.7395 67.9297 18.403 67.8534 18.0523L68.9798 17.5509C69.1066 18.064 69.1416 18.5581 69.0847 19.0334C69.0278 19.5086 68.8915 19.952 68.6757 20.3637C68.4586 20.7724 68.173 21.1372 67.8188 21.4582C67.4677 21.7778 67.0575 22.042 66.5881 22.251C65.7948 22.6042 65.0031 22.7245 64.2128 22.612C63.4226 22.4994 62.6913 22.1647 62.0189 21.6079C61.3465 21.051 60.7919 20.2821 60.3551 19.3011C59.9183 18.32 59.718 17.3934 59.7541 16.5211C59.7902 15.6488 60.0308 14.8813 60.4759 14.2188C60.9211 13.5562 61.5403 13.0483 62.3336 12.6951C62.8029 12.4862 63.2738 12.3581 63.7462 12.311C64.2217 12.2626 64.6846 12.296 65.135 12.4111C65.584 12.5232 66.0041 12.7171 66.3953 12.9928C66.7852 13.2655 67.129 13.6221 67.4268 14.0628Z" fill="white"/>
<path d="M74.0799 19.175L71.2734 9.38755L72.4586 9.0477L73.7083 13.4062L78.927 11.9097L77.6772 7.55127L78.8624 7.21143L81.6689 16.9988L80.4837 17.3387L79.2285 12.9611L74.0098 14.4575L75.265 18.8351L74.0799 19.175Z" fill="white"/>
<path d="M99.1992 14.8156V4.63379H105.344V5.72754H100.432V9.16788H105.025V10.2616H100.432V13.7218L105.423 13.7219V14.8156H99.1992Z" fill="white"/>
<path d="M119.808 6.22035L118.391 16.303L117.209 16.1371L112.827 7.44833L112.729 7.43449L111.616 15.351L110.395 15.1794L111.812 5.09668L112.994 5.26274L117.393 13.9739L117.491 13.9877L118.606 6.05152L119.808 6.22035Z" fill="white"/>
<path d="M131.193 12.4578C131.18 12.1059 131.124 11.7778 131.025 11.4736C130.93 11.1671 130.791 10.8893 130.607 10.6401C130.427 10.3918 130.202 10.1774 129.933 9.99685C129.664 9.81631 129.353 9.67533 128.999 9.57393C128.419 9.40766 127.849 9.4062 127.289 9.56957C126.728 9.73293 126.224 10.0659 125.776 10.5686C125.329 11.0712 124.983 11.7462 124.74 12.5937C124.497 13.4412 124.434 14.1971 124.55 14.8614C124.667 15.5258 124.924 16.0771 125.323 16.5155C125.721 16.9538 126.223 17.2598 126.828 17.4334C127.389 17.5942 127.917 17.6163 128.413 17.4998C128.912 17.381 129.344 17.136 129.709 16.7648C130.078 16.3914 130.349 15.9052 130.521 15.3062L130.862 15.4869L127.918 14.6427L128.22 13.5913L131.947 14.6602L131.646 15.7116C131.415 16.5176 131.042 17.1692 130.527 17.6664C130.015 18.1644 129.411 18.4911 128.715 18.6466C128.022 18.7999 127.288 18.765 126.51 18.5421C125.644 18.2936 124.941 17.8714 124.401 17.2754C123.865 16.6803 123.522 15.9542 123.371 15.0973C123.223 14.2412 123.297 13.2971 123.593 12.2648C123.815 11.4906 124.119 10.8242 124.503 10.2655C124.891 9.70454 125.339 9.26063 125.847 8.93378C126.354 8.60692 126.903 8.40212 127.492 8.31937C128.081 8.23662 128.689 8.28523 129.317 8.4652C129.833 8.6132 130.292 8.8292 130.693 9.11322C131.099 9.39496 131.436 9.72785 131.705 10.1119C131.978 10.4937 132.177 10.9143 132.3 11.3737C132.424 11.83 132.463 12.3083 132.416 12.8086L131.193 12.4578Z" fill="white"/>
<path d="M134.973 21.3236L139.114 12.022L140.24 12.5235L136.544 20.8258L140.868 22.7509L140.423 23.7501L134.973 21.3236Z" fill="white"/>
<path d="M154.199 19.8775L148.803 28.5122L147.758 27.8588L153.153 19.2241L154.199 19.8775Z" fill="white"/>
<path d="M165.298 31.3774C165.576 30.9531 165.642 30.498 165.496 30.012C165.35 29.526 165.041 29.0849 164.568 28.6887C164.223 28.3989 163.874 28.2013 163.521 28.0957C163.171 27.9922 162.842 27.9775 162.533 28.0516C162.227 28.1278 161.969 28.2903 161.76 28.5391C161.586 28.7473 161.485 28.9678 161.458 29.2007C161.436 29.4332 161.462 29.665 161.537 29.8961C161.613 30.1247 161.711 30.3431 161.831 30.5515C161.952 30.7573 162.069 30.9399 162.182 31.0995L162.795 31.9774C162.954 32.2012 163.118 32.4644 163.288 32.7671C163.46 33.072 163.593 33.4016 163.685 33.7558C163.782 34.1096 163.799 34.4751 163.738 34.8521C163.677 35.2292 163.493 35.6005 163.186 35.9661C162.833 36.3876 162.403 36.6757 161.896 36.8306C161.393 36.9876 160.846 36.9896 160.256 36.8365C159.669 36.6856 159.076 36.3587 158.476 35.8559C157.918 35.3872 157.51 34.8912 157.252 34.368C156.997 33.8468 156.888 33.327 156.925 32.8086C156.965 32.2923 157.148 31.808 157.476 31.3559L158.451 32.174C158.229 32.4898 158.123 32.8167 158.134 33.1545C158.15 33.4919 158.251 33.8195 158.439 34.1371C158.631 34.4543 158.882 34.7429 159.192 35.0028C159.553 35.3053 159.925 35.5186 160.31 35.6425C160.697 35.7639 161.063 35.7896 161.408 35.7195C161.754 35.6468 162.047 35.4683 162.285 35.1839C162.503 34.9249 162.607 34.6535 162.599 34.3696C162.59 34.0856 162.511 33.7938 162.36 33.4941C162.209 33.1944 162.028 32.8915 161.818 32.5852L161.088 31.5057C160.626 30.8192 160.353 30.1643 160.271 29.5411C160.188 28.9178 160.367 28.3434 160.808 27.8178C161.174 27.3811 161.612 27.0993 162.121 26.9725C162.634 26.8452 163.167 26.8598 163.72 27.0161C164.277 27.172 164.804 27.4588 165.302 27.8764C165.805 28.2982 166.176 28.7633 166.416 29.2716C166.657 29.7775 166.763 30.2811 166.731 30.7826C166.702 31.2862 166.529 31.7401 166.212 32.1443L165.298 31.3774Z" fill="white"/>
<path d="M164.738 41.3691L172.305 34.5562L173.13 35.4724L169.761 38.5063L173.393 42.5409L176.763 39.507L177.588 40.4232L170.021 47.2362L169.196 46.3199L172.58 43.2727L168.948 39.2382L165.563 42.2854L164.738 41.3691Z" fill="white"/>
<path d="M179.539 61.772L188.691 57.3086L190.199 60.4007C190.548 61.1157 190.712 61.7621 190.691 62.34C190.674 62.9164 190.507 63.418 190.192 63.8448C189.876 64.2716 189.449 64.6164 188.91 64.8794C188.37 65.1424 187.839 65.2654 187.314 65.2483C186.789 65.2313 186.297 65.053 185.836 64.7135C185.379 64.3725 184.977 63.8475 184.631 63.1385L183.411 60.6362L184.412 60.148L185.615 62.6146C185.853 63.1031 186.116 63.4615 186.404 63.6896C186.694 63.9207 187.003 64.0394 187.33 64.0456C187.662 64.0533 188.011 63.9678 188.378 63.7891C188.744 63.6104 189.031 63.3857 189.238 63.115C189.446 62.8443 189.55 62.5222 189.552 62.1487C189.558 61.7737 189.44 61.3389 189.198 60.8444L188.248 58.8962L180.08 62.8801L179.539 61.772ZM185.751 64.0745L182.739 68.3316L182.111 67.0447L185.141 62.8233L185.751 64.0745Z" fill="white"/>
<path d="M184.586 73.2912L194.269 70.1448L196.168 75.989L195.128 76.327L193.61 71.6554L190.338 72.7186L191.758 77.0875L190.718 77.4255L189.298 73.0565L186.007 74.1258L187.55 78.873L186.509 79.211L184.586 73.2912Z" fill="white"/>
<path d="M187.78 84.501L187.555 83.228L198.231 85.1418L198.452 86.3952L189.074 91.8451L188.85 90.5721L196.763 86.0874L196.749 86.009L187.78 84.501ZM191.779 84.2803L192.684 89.4114L191.607 89.6013L190.702 84.4703L191.779 84.2803Z" fill="white"/>
<path d="M189.59 99.5883L189.48 96.4481L199.656 96.0928L199.77 99.372C199.805 100.359 199.63 101.21 199.247 101.927C198.868 102.643 198.305 103.202 197.56 103.603C196.818 104.003 195.92 104.222 194.867 104.259C193.807 104.296 192.888 104.139 192.109 103.788C191.334 103.437 190.729 102.908 190.293 102.2C189.86 101.492 189.626 100.622 189.59 99.5883ZM190.616 97.6422L190.68 99.4706C190.709 100.312 190.896 101.003 191.24 101.545C191.584 102.087 192.06 102.483 192.669 102.734C193.278 102.984 193.997 103.095 194.825 103.066C195.646 103.038 196.349 102.879 196.933 102.59C197.519 102.301 197.963 101.884 198.262 101.339C198.565 100.795 198.702 100.126 198.674 99.3307L198.606 97.3632L190.616 97.6422Z" fill="white"/>
<path d="M199.231 113.688L189.105 112.624L189.234 111.397L199.36 112.462L199.231 113.688Z" fill="white"/>
<path d="M195.816 130.969L185.938 128.506L186.227 127.348L195.326 123.898L195.35 123.802L187.592 121.868L187.891 120.672L197.771 123.135L197.482 124.293L188.359 127.756L188.335 127.853L196.111 129.792L195.816 130.969Z" fill="white"/>
<path d="M188.425 141.639C188.776 141.663 189.108 141.642 189.421 141.576C189.736 141.513 190.027 141.404 190.294 141.247C190.559 141.094 190.796 140.893 191.004 140.644C191.211 140.395 191.384 140.101 191.522 139.759C191.748 139.2 191.809 138.633 191.705 138.059C191.601 137.484 191.323 136.948 190.87 136.45C190.417 135.953 189.781 135.539 188.964 135.208C188.146 134.878 187.401 134.736 186.728 134.782C186.056 134.829 185.48 135.027 185.003 135.378C184.525 135.728 184.168 136.195 183.933 136.779C183.714 137.32 183.637 137.843 183.701 138.348C183.767 138.857 183.965 139.312 184.296 139.714C184.629 140.12 185.084 140.44 185.662 140.673L185.447 140.994L186.594 138.154L187.608 138.564L186.155 142.16L185.141 141.75C184.364 141.436 183.755 140.997 183.314 140.433C182.872 139.872 182.611 139.237 182.529 138.528C182.449 137.824 182.56 137.097 182.863 136.347C183.201 135.511 183.694 134.856 184.343 134.382C184.991 133.911 185.749 133.645 186.617 133.585C187.484 133.527 188.415 133.7 189.411 134.102C190.158 134.404 190.789 134.775 191.304 135.216C191.822 135.661 192.216 136.152 192.488 136.691C192.76 137.23 192.907 137.797 192.927 138.392C192.948 138.986 192.836 139.586 192.591 140.192C192.39 140.689 192.128 141.123 191.803 141.492C191.481 141.866 191.114 142.167 190.704 142.394C190.296 142.626 189.857 142.779 189.387 142.854C188.92 142.93 188.44 142.918 187.948 142.82L188.425 141.639Z" fill="white"/>
<path d="M172.665 154.857L180.689 161.126L178.57 163.837C178.079 164.466 177.563 164.892 177.024 165.114C176.485 165.341 175.948 165.401 175.413 165.294C174.878 165.188 174.374 164.95 173.901 164.58C173.429 164.211 173.075 163.779 172.839 163.283C172.601 162.791 172.524 162.255 172.606 161.676C172.691 161.099 172.978 160.498 173.465 159.874L174.983 157.93L175.845 158.604L174.352 160.516C174.015 160.947 173.819 161.351 173.764 161.728C173.709 162.106 173.762 162.452 173.923 162.768C174.085 163.088 174.327 163.373 174.648 163.624C174.97 163.875 175.304 164.04 175.651 164.118C175.996 164.198 176.344 164.162 176.693 164.011C177.046 163.861 177.392 163.568 177.733 163.132L179.068 161.424L171.906 155.829L172.665 154.857Z" fill="white"/>
<path d="M164.754 164.21L171.826 171.535L169.352 173.924C168.779 174.477 168.215 174.833 167.659 174.992C167.106 175.153 166.577 175.15 166.074 174.982C165.57 174.814 165.11 174.514 164.694 174.082C164.277 173.651 163.996 173.183 163.85 172.679C163.704 172.174 163.721 171.651 163.902 171.108C164.085 170.567 164.46 170.023 165.027 169.475L167.03 167.541L167.804 168.342L165.829 170.248C165.438 170.626 165.179 170.987 165.051 171.332C164.921 171.679 164.903 172.009 164.999 172.322C165.094 172.641 165.283 172.946 165.566 173.239C165.85 173.533 166.152 173.736 166.473 173.85C166.795 173.963 167.134 173.963 167.489 173.85C167.848 173.739 168.225 173.492 168.62 173.11L170.18 171.604L163.867 165.067L164.754 164.21ZM164.483 170.83L159.504 169.28L160.534 168.286L165.485 169.863L164.483 170.83Z" fill="white"/>
<path d="M152.332 181.062C151.701 180.193 151.312 179.329 151.166 178.468C151.02 177.607 151.096 176.807 151.394 176.066C151.691 175.325 152.191 174.7 152.894 174.189C153.597 173.679 154.346 173.397 155.142 173.342C155.939 173.288 156.724 173.464 157.497 173.868C158.271 174.273 158.973 174.91 159.604 175.779C160.235 176.648 160.624 177.512 160.77 178.373C160.916 179.234 160.84 180.035 160.543 180.775C160.245 181.516 159.745 182.141 159.042 182.652C158.34 183.162 157.59 183.445 156.794 183.499C155.998 183.553 155.213 183.378 154.439 182.973C153.666 182.568 152.963 181.931 152.332 181.062ZM153.298 180.361C153.816 181.074 154.372 181.589 154.968 181.907C155.56 182.226 156.15 182.365 156.738 182.322C157.324 182.282 157.866 182.081 158.364 181.719C158.863 181.356 159.223 180.902 159.445 180.356C159.664 179.812 159.715 179.207 159.597 178.543C159.476 177.881 159.157 177.193 158.639 176.48C158.121 175.767 157.565 175.251 156.973 174.931C156.378 174.614 155.787 174.476 155.202 174.516C154.614 174.558 154.071 174.76 153.572 175.122C153.073 175.485 152.714 175.938 152.495 176.482C152.273 177.029 152.223 177.633 152.343 178.295C152.461 178.959 152.779 179.648 153.298 180.361Z" fill="white"/>
<path d="M143.169 188.334C143.422 188.578 143.691 188.775 143.973 188.926C144.254 189.08 144.547 189.183 144.853 189.235C145.155 189.288 145.466 189.286 145.784 189.229C146.103 189.172 146.425 189.058 146.75 188.885C147.283 188.602 147.694 188.207 147.984 187.7C148.273 187.193 148.405 186.603 148.377 185.931C148.35 185.258 148.13 184.533 147.716 183.754C147.302 182.976 146.822 182.388 146.277 181.991C145.732 181.594 145.164 181.376 144.573 181.338C143.981 181.299 143.408 181.428 142.852 181.723C142.337 181.997 141.942 182.348 141.666 182.776C141.389 183.208 141.249 183.685 141.244 184.205C141.238 184.731 141.381 185.268 141.673 185.818L141.302 185.925L144.006 184.488L144.52 185.453L141.096 187.274L140.583 186.308C140.189 185.568 140.005 184.84 140.03 184.125C140.052 183.411 140.259 182.756 140.652 182.161C141.044 181.57 141.596 181.084 142.31 180.705C143.106 180.282 143.905 180.097 144.707 180.151C145.507 180.207 146.258 180.49 146.962 181.002C147.663 181.515 148.265 182.246 148.769 183.194C149.147 183.905 149.392 184.595 149.504 185.264C149.614 185.937 149.6 186.568 149.462 187.156C149.324 187.743 149.072 188.271 148.706 188.74C148.339 189.209 147.868 189.597 147.291 189.903C146.817 190.155 146.337 190.319 145.851 190.393C145.364 190.472 144.89 190.467 144.43 190.378C143.968 190.293 143.533 190.128 143.125 189.883C142.719 189.641 142.359 189.324 142.045 188.932L143.169 188.334Z" fill="white"/>
<path d="M134.327 184.569L137.809 194.137L134.576 195.314C133.829 195.586 133.169 195.681 132.596 195.6C132.025 195.523 131.543 195.305 131.152 194.946C130.761 194.588 130.462 194.127 130.257 193.563C130.052 192.999 129.985 192.458 130.057 191.938C130.129 191.418 130.358 190.947 130.743 190.524C131.13 190.104 131.694 189.76 132.436 189.49L135.052 188.538L135.433 189.584L132.854 190.523C132.343 190.709 131.959 190.933 131.702 191.196C131.442 191.46 131.292 191.755 131.251 192.08C131.209 192.409 131.258 192.765 131.397 193.148C131.536 193.531 131.73 193.84 131.977 194.075C132.225 194.309 132.534 194.447 132.906 194.488C133.278 194.532 133.723 194.46 134.24 194.272L136.277 193.531L133.168 184.991L134.327 184.569ZM131.388 190.506L127.469 187.065L128.814 186.576L132.696 190.03L131.388 190.506Z" fill="white"/>
<path d="M122.958 188.252L124.223 187.983L122.682 198.719L121.438 198.984L115.664 189.802L116.928 189.533L121.686 197.284L121.764 197.268L122.958 188.252ZM123.318 192.241L118.222 193.324L117.994 192.255L123.091 191.171L123.318 192.241Z" fill="white"/>
<path d="M112.981 200.445L111.513 200.548L107.472 192.358L107.353 192.366L104.49 201.039L103.022 201.142L102.312 190.984L103.463 190.904L104.002 198.621L104.101 198.614L106.736 190.675L107.847 190.597L111.56 198.092L111.66 198.086L111.12 190.369L112.271 190.288L112.981 200.445Z" fill="white"/>
</svg>
