<svg width="216" height="263" viewBox="0 0 216 263" fill="none" xmlns="http://www.w3.org/2000/svg">
<g clip-path="url(#clip0_1_1878)">
<path d="M141.776 196.043L143.839 242.685C143.839 242.685 132.971 241.157 132.402 250.784C131.833 260.411 140.371 260.926 140.371 260.926C140.371 260.926 160.967 263.945 162.835 253.217C164.703 242.49 163.511 197.34 163.511 197.34L141.758 196.025L141.776 196.043Z" fill="#F0514F"/>
<path d="M146.581 262.631C143.148 262.631 140.498 262.258 140.195 262.222C140.195 262.222 130.484 261.476 131.124 250.713C131.302 247.711 132.405 245.349 134.397 243.733C137.011 241.584 140.444 241.264 142.49 241.317L140.48 196.114C140.48 195.741 140.604 195.386 140.871 195.137C141.138 194.889 141.494 194.729 141.849 194.764L163.602 196.079C164.278 196.114 164.812 196.665 164.83 197.34C164.883 199.187 166.004 242.738 164.136 253.466C162.784 261.263 153.215 262.649 146.581 262.649V262.631ZM142.276 243.893C140.658 243.893 137.954 244.159 136.033 245.74C134.628 246.894 133.845 248.617 133.721 250.873C133.241 259.061 140.177 259.629 140.48 259.647C140.782 259.683 159.956 262.382 161.592 253.004C163.247 243.484 162.446 205.776 162.286 198.565L143.166 197.411L145.175 242.614C145.175 243.004 145.033 243.36 144.749 243.626C144.464 243.893 144.09 243.999 143.699 243.946C143.699 243.946 143.13 243.875 142.294 243.875L142.276 243.893Z" fill="black"/>
<path d="M104.549 196.043L106.612 242.685C106.612 242.685 95.7449 241.157 95.1757 250.784C94.6065 260.411 103.144 260.926 103.144 260.926C103.144 260.926 123.741 263.945 125.608 253.217C127.476 242.49 126.284 197.34 126.284 197.34L104.531 196.025L104.549 196.043Z" fill="#F0514F"/>
<path d="M109.335 262.631C105.902 262.631 103.252 262.258 102.949 262.222C102.949 262.222 93.2377 261.476 93.878 250.713C94.0558 247.711 95.1586 245.349 97.1507 243.733C99.7653 241.584 103.216 241.282 105.244 241.317L103.234 196.114C103.234 195.741 103.358 195.386 103.625 195.137C103.892 194.889 104.248 194.729 104.603 194.764L126.356 196.079C127.032 196.114 127.566 196.665 127.584 197.34C127.637 199.187 128.757 242.738 126.89 253.466C125.538 261.263 115.969 262.649 109.335 262.649V262.631ZM105.03 243.893C103.412 243.893 100.708 244.159 98.8049 245.74C97.3997 246.894 96.6171 248.617 96.4748 250.873C95.9946 259.114 102.931 259.629 103.234 259.647C103.536 259.683 122.71 262.382 124.346 253.004C126.001 243.484 125.2 205.776 125.04 198.565L105.919 197.411L107.929 242.614C107.929 243.004 107.787 243.36 107.502 243.626C107.218 243.893 106.827 243.999 106.453 243.946C106.453 243.946 105.884 243.875 105.048 243.875L105.03 243.893Z" fill="black"/>
<path d="M103.356 19.742C103.356 19.742 63.336 29.2977 60.7747 70.1137C58.2135 110.93 93.0929 129.029 101.132 130.059L85.5692 203.769C85.5692 203.769 99.5317 219.062 134.251 218.547C168.97 218.031 201.644 193.965 201.644 193.965L164.239 127.164C164.239 127.164 201.004 116.063 214.682 92.1557C214.682 92.1557 201.342 -1.94478 103.356 19.742Z" fill="black"/>
<path d="M132.547 219.861C98.9128 219.861 85.1994 205.279 84.6302 204.64C84.3456 204.338 84.2389 203.911 84.3278 203.503L99.6243 131.072C88.7923 128.425 57.0433 109.26 59.5156 70.0252C62.1124 28.7297 102.684 18.5702 103.093 18.4636C103.093 18.4636 103.093 18.4636 103.11 18.4636C133.276 11.7853 158.569 15.3198 178.294 28.9606C209.848 50.7895 215.948 91.5344 216.02 91.9429C216.055 92.2271 216.02 92.5113 215.859 92.76C208.638 105.371 195.085 114.393 184.982 119.74C176.569 124.18 169.259 126.844 166.182 127.874L202.804 193.308C203.124 193.876 202.964 194.587 202.448 194.977C202.11 195.226 169.045 219.311 134.308 219.808C133.721 219.808 133.134 219.808 132.565 219.808L132.547 219.861ZM86.9958 203.343C89.646 205.812 103.982 217.712 134.255 217.25C164.954 216.789 194.409 197.411 199.958 193.574L163.122 127.786C162.927 127.448 162.909 127.04 163.051 126.667C163.193 126.311 163.496 126.027 163.887 125.921C164.243 125.814 199.923 114.802 213.352 91.9074C212.622 87.5203 205.668 51.0915 176.782 31.1098C157.68 17.8952 133.081 14.5028 103.68 21.0212C102.915 21.2166 64.5492 31.0565 62.0946 70.2206C59.6223 109.509 92.652 127.697 101.332 128.798C101.688 128.851 102.008 129.029 102.221 129.331C102.435 129.633 102.506 129.988 102.435 130.343L87.0136 203.361L86.9958 203.343Z" fill="black"/>
<path d="M128.509 46.0293C128.509 46.0293 86.4436 43.7203 79.6314 78.302C72.8191 112.901 106.542 123.097 106.542 123.097C106.542 123.097 131.444 131.285 161.289 120.308C191.135 109.349 184.021 77.0587 184.021 77.0587C184.021 77.0587 178.614 44.786 128.491 46.0116L128.509 46.0293Z" fill="#EBABAB"/>
<path d="M129.007 127.359C115.65 127.359 106.756 124.517 106.152 124.322C105.831 124.233 71.4322 113.399 78.369 78.0532C85.199 43.365 126.713 44.6616 128.527 44.7326C143.094 44.3774 163.104 46.7752 175.999 60.1851C183.808 68.3021 185.248 76.508 185.32 76.8454C185.373 77.1119 192.31 110.29 161.752 121.516C149.533 126.009 138.203 127.341 129.007 127.341V127.359ZM126.962 47.2903C123.707 47.2903 115.525 47.61 106.97 50.4518C92.4026 55.2652 83.6338 64.7321 80.9125 78.5683C74.4026 111.622 106.596 121.764 106.934 121.871C107.201 121.96 131.818 129.792 160.863 119.118C189.286 108.674 183.061 78.6393 182.776 77.3605C182.545 76.0284 176.871 46.1358 128.545 47.3258C128.509 47.3258 128.474 47.3258 128.438 47.3258C128.42 47.3258 127.887 47.2903 126.944 47.2903H126.962Z" fill="black"/>
<mask id="mask0_1_1878" style="mask-type:luminance" maskUnits="userSpaceOnUse" x="80" y="47" width="104" height="78">
<path d="M128.562 47.1303C128.562 47.1303 87.5993 44.8745 80.9827 78.4438C74.3661 111.995 107.182 121.888 107.182 121.888C107.182 121.888 131.425 129.828 160.489 119.189C189.552 108.55 182.615 77.236 182.615 77.236C182.615 77.236 177.35 45.9225 128.562 47.1303Z" fill="white"/>
</mask>
<g mask="url(#mask0_1_1878)">
<path opacity="0.25" d="M173.588 109.036C180.154 104.36 182.313 96.1402 178.412 90.6778C174.51 85.2154 166.024 84.5785 159.458 89.2552C152.893 93.9319 150.733 102.151 154.635 107.614C158.537 113.076 167.022 113.713 173.588 109.036Z" fill="url(#paint0_radial_1_1878)"/>
<path opacity="0.25" d="M107.336 108.532C111.797 103.502 110.52 95.0951 104.482 89.7555C98.4449 84.416 89.9339 84.1652 85.4725 89.1954C81.0112 94.2257 82.2888 102.632 88.3263 107.972C94.3637 113.311 102.875 113.562 107.336 108.532Z" fill="url(#paint1_radial_1_1878)"/>
</g>
<path d="M129.149 109.118C127.673 109.118 124.187 108.887 121.928 106.845C120.612 105.655 119.918 104.056 119.865 102.138C119.829 100.362 120.416 98.8699 121.643 97.6977C124.721 94.7848 130.75 95.2288 131.017 95.2466C131.728 95.2999 132.262 95.9215 132.209 96.632C132.155 97.3424 131.533 97.8753 130.821 97.822C129.398 97.7154 125.29 97.822 123.44 99.5804C122.764 100.22 122.444 101.037 122.479 102.067C122.515 103.275 122.906 104.216 123.689 104.927C125.396 106.472 128.58 106.614 129.665 106.525C130.394 106.49 130.999 107.005 131.053 107.715C131.106 108.426 130.572 109.047 129.861 109.101C129.825 109.101 129.558 109.118 129.167 109.118H129.149Z" fill="black"/>
<path d="M129.396 117.875C116.003 117.875 108.301 112.83 107.839 112.493C107.252 112.084 107.092 111.285 107.501 110.699C107.91 110.113 108.711 109.953 109.298 110.344C109.298 110.344 113.513 113.132 120.965 114.482C127.849 115.725 139.019 116.01 153.159 110.219C153.817 109.953 154.582 110.255 154.849 110.93C155.116 111.587 154.813 112.351 154.137 112.617C144.55 116.542 136.226 117.857 129.396 117.857V117.875Z" fill="black"/>
<path d="M95.7968 69.1725C95.37 69.1725 94.9609 68.9594 94.7119 68.5864C94.3206 67.9825 94.4984 67.1832 95.1032 66.7924C95.4589 66.5615 103.73 61.3397 112.712 63.8618C113.406 64.0572 113.797 64.7676 113.601 65.4603C113.406 66.153 112.694 66.5438 112 66.3484C104.157 64.146 96.5794 68.9238 96.5083 68.9771C96.2949 69.1192 96.0459 69.1903 95.8146 69.1903L95.7968 69.1725Z" fill="black"/>
<path d="M160.718 67.2721C160.504 67.2721 160.309 67.2188 160.113 67.1122C160.042 67.0767 152.073 62.9205 144.461 65.7446C143.785 65.9932 143.038 65.6558 142.789 64.9808C142.54 64.3059 142.878 63.5599 143.554 63.3113C152.287 60.0787 160.967 64.6256 161.34 64.821C161.963 65.1584 162.212 65.94 161.874 66.5794C161.643 67.0234 161.198 67.2721 160.735 67.2721H160.718Z" fill="black"/>
<path d="M152.658 95.816C160.211 94.9472 165.829 89.8665 165.207 84.4678C164.584 79.069 157.956 75.3967 150.403 76.2654C142.85 77.1341 137.231 82.2149 137.854 87.6136C138.477 93.0124 145.105 96.6847 152.658 95.816Z" fill="white"/>
<path d="M121.34 87.6187C121.962 82.2199 116.344 77.1392 108.791 76.2705C101.237 75.4018 94.6095 79.0741 93.9868 84.4728C93.3641 89.8715 98.9825 94.9523 106.536 95.821C114.089 96.6897 120.717 93.0174 121.34 87.6187Z" fill="white"/>
<path d="M102.096 76.5078C105.493 78.0175 107.895 81.6231 107.895 85.8326C107.895 90.2552 105.262 93.9851 101.616 95.3528C96.1021 93.3635 93.0073 89.1718 93.5053 84.7136C93.95 80.6818 97.2049 77.5557 102.096 76.5078Z" fill="#005CA3"/>
<path d="M146.435 76.881C149.424 78.5862 151.469 81.9964 151.469 85.9394C151.469 90.8771 148.267 94.9978 144.016 95.9391C140.032 94.5893 137.435 91.6941 137.044 88.0708C136.511 83.2041 140.121 78.6572 146.435 76.8633V76.881Z" fill="#005CA3"/>
<path d="M109.069 97.6622C108.197 97.6622 107.308 97.6089 106.383 97.5023C97.7207 96.5077 91.9578 91.1259 92.6871 84.7318C93.4163 78.3199 100.264 74.4124 108.926 75.3892C113.177 75.8688 116.752 77.3785 119.26 79.7408C121.786 82.0853 122.96 85.087 122.604 88.1775C122.248 91.268 120.416 93.9145 117.428 95.6196C115.08 96.9695 112.235 97.6622 109.051 97.6622H109.069ZM106.294 77.8226C100.264 77.8226 95.782 80.6466 95.2661 85.016C94.697 89.9359 99.4993 94.0921 106.667 94.9269C110.314 95.3532 113.657 94.7848 116.13 93.3639C118.389 92.0673 119.776 90.1135 120.025 87.8578C120.292 85.6021 119.385 83.3819 117.482 81.6058C115.401 79.6698 112.252 78.3554 108.624 77.9469C107.823 77.8581 107.041 77.8048 106.276 77.8048L106.294 77.8226Z" fill="black"/>
<path d="M150.119 97.6618C146.953 97.6618 144.089 96.9691 141.741 95.6192C138.753 93.8964 136.921 91.2499 136.566 88.1772C136.21 85.0867 137.402 82.1027 139.909 79.7404C142.435 77.3959 145.992 75.8862 150.243 75.3889C154.494 74.9093 158.319 75.5487 161.307 77.2716C164.295 78.9945 166.127 81.6409 166.483 84.7137C167.212 91.1256 161.467 96.4895 152.787 97.4842C151.88 97.5908 150.973 97.644 150.101 97.644L150.119 97.6618ZM152.876 77.84C152.111 77.84 151.328 77.8932 150.546 77.982C146.917 78.4083 143.769 79.7049 141.688 81.6409C139.785 83.4171 138.878 85.6373 139.145 87.893C139.411 90.1487 140.781 92.1024 143.04 93.399C145.512 94.82 148.874 95.3706 152.502 94.9621C159.67 94.145 164.473 89.9711 163.904 85.0511C163.637 82.7954 162.267 80.8417 160.008 79.5451C158.087 78.4261 155.597 77.8577 152.876 77.8577V77.84Z" fill="black"/>
<path d="M147.114 96.685C146.759 96.685 146.403 96.5429 146.136 96.2409C145.656 95.7081 145.709 94.8911 146.261 94.4115C146.296 94.376 150.031 91.0191 150.102 86.0991C150.174 81.3213 147.292 79.1544 147.168 79.0656C146.599 78.6393 146.456 77.84 146.883 77.2539C147.292 76.6678 148.093 76.5434 148.68 76.952C148.84 77.0763 152.806 79.9359 152.699 86.1346C152.61 92.2268 148.164 96.1877 147.968 96.3475C147.719 96.5607 147.417 96.6672 147.114 96.6672V96.685Z" fill="black"/>
<path d="M103.463 96.6851C103.108 96.6851 102.752 96.543 102.503 96.2589C102.023 95.726 102.076 94.909 102.592 94.4294C102.627 94.3939 106.363 90.9482 106.434 85.9039C106.505 80.9307 103.517 78.6927 103.481 78.675C102.894 78.2487 102.77 77.4494 103.197 76.8633C103.606 76.2771 104.424 76.1528 105.011 76.5791C105.171 76.7034 109.119 79.6341 109.03 85.9394C108.942 92.1382 104.513 96.1878 104.317 96.3654C104.068 96.5963 103.766 96.7029 103.446 96.7029L103.463 96.6851Z" fill="black"/>
<path d="M24.6328 191.336C24.6328 191.336 40.4095 193.681 51.0814 186.665L52.9846 200.093C52.9846 200.093 39.7158 213.307 26.5538 203.823L24.6328 191.336Z" fill="#FFF4F0"/>
<path d="M23.2656 182.402C23.2656 182.402 37.904 184.853 49.7498 178.654L50.9771 187.304C50.9771 187.304 34.5601 194.551 24.564 190.821L23.2656 182.402Z" fill="#97999C"/>
<path d="M23.0853 182.633L1.13672 34.8571C1.13672 34.8571 14.1921 39.5284 27.194 30.3457L49.1426 178.121C49.1426 178.121 37.0656 186.327 23.0853 182.633Z" fill="#FFE800"/>
<path d="M1.45703 34.1822L10.7772 4.94678L27.5499 29.8662C27.5499 29.8662 14.708 38.6048 1.45703 34.1822Z" fill="#FDCCA9"/>
<path d="M36.8706 208.44C33.5801 208.44 29.8983 207.712 25.9497 205.776C25.5584 205.581 25.2916 205.226 25.2382 204.799L-0.000890132 33.9692C-0.0364633 33.7916 -0.000890132 33.5962 0.034683 33.4186L9.4082 1.55445C9.55049 1.05713 9.97737 0.701896 10.4754 0.63085C10.9912 0.559804 11.4892 0.790704 11.756 1.23474L28.9378 29.0315C29.0268 29.1736 29.0979 29.3512 29.1157 29.5288L54.2837 200.039C54.3371 200.412 54.2303 200.803 53.9635 201.087C53.8746 201.176 47.2224 208.423 36.8529 208.423L36.8706 208.44ZM27.6928 203.751C40.3746 209.542 49.6058 201.744 51.6335 199.808L26.59 30.1682L11.0801 5.07123L2.61373 33.8804L27.6928 203.734V203.751Z" fill="black"/>
<path d="M10.0869 36.9707C4.37743 36.9707 0.909049 35.0525 0.660037 34.9104C0.0375078 34.5551 -0.175931 33.7559 0.1798 33.152C0.535532 32.5303 1.33593 32.3172 1.94067 32.6724C2.36755 32.9033 12.3814 38.3383 27.1264 28.6583C27.7312 28.2676 28.5316 28.4274 28.9229 29.0313C29.3142 29.6352 29.1541 30.4345 28.5494 30.8252C21.2035 35.6564 14.8537 36.9885 10.0869 36.9885V36.9707Z" fill="black"/>
<path d="M31.7315 184.374C26.4667 184.374 23.1762 183.041 22.9271 182.935C22.269 182.651 21.9667 181.905 22.2335 181.248C22.518 180.59 23.2651 180.288 23.9232 180.555C24.0299 180.59 34.8086 184.889 48.8955 176.932C49.518 176.576 50.3007 176.807 50.6564 177.429C51.0121 178.05 50.7809 178.832 50.1584 179.187C42.9014 183.29 36.4805 184.374 31.7137 184.374H31.7315Z" fill="black"/>
<path d="M32.9776 193.165C27.7128 193.165 24.4222 191.833 24.1732 191.727C23.5151 191.443 23.2128 190.697 23.4796 190.039C23.7641 189.382 24.5112 189.08 25.1693 189.347C25.2938 189.4 36.0547 193.681 50.1594 185.723C50.7819 185.368 51.5645 185.581 51.9203 186.221C52.276 186.842 52.0448 187.624 51.4222 187.979C44.1653 192.082 37.7444 193.165 32.9776 193.165Z" fill="black"/>
<path d="M5.53125 19.9552C5.53125 19.9552 12.717 23.1345 20.5787 17.8238L10.6538 1.92725L5.53125 19.9729V19.9552Z" fill="black"/>
<path d="M69.4021 120.858C69.1353 120.876 44.8744 112.724 44.8744 112.724C44.8744 112.724 44.6966 105.104 38.3468 105.885C31.997 106.667 33.9001 112.688 33.9001 112.688C33.9001 112.688 34.825 115.867 39.4673 115.636L41.3349 127.43L71.2341 142.03L69.4199 120.841L69.4021 120.858Z" fill="#EBABAB"/>
<path d="M71.1996 143.345C71.004 143.345 70.8083 143.309 70.6304 143.22L40.7312 128.62C40.3577 128.443 40.0909 128.07 40.0198 127.661L38.33 116.951C33.7233 116.667 32.6739 113.239 32.6383 113.079C32.6028 112.972 31.6423 109.864 33.2431 107.36C34.2214 105.832 35.8755 104.909 38.17 104.642C40.2332 104.394 41.9763 104.855 43.3459 106.045C45.2846 107.715 45.8893 110.397 46.0672 111.8C55.2984 114.891 68.5316 119.331 69.6344 119.615C70.1858 119.722 70.6304 120.184 70.6838 120.77L72.498 141.959C72.5336 142.421 72.3202 142.865 71.9466 143.132C71.7332 143.274 71.4664 143.362 71.2174 143.362L71.1996 143.345ZM42.4743 126.578L69.7055 139.881L68.1581 121.835C66.0949 121.196 60.4743 119.349 44.4308 113.949C43.915 113.772 43.5593 113.292 43.5415 112.759C43.5415 112.724 43.4348 109.509 41.6206 107.964C40.8202 107.271 39.7885 107.022 38.4546 107.182C36.9783 107.36 35.9466 107.893 35.3953 108.727C34.4526 110.184 35.0751 112.28 35.0751 112.315C35.1462 112.546 35.9289 114.518 39.3261 114.358C39.9842 114.322 40.5712 114.802 40.6779 115.441L42.4387 126.578H42.4743Z" fill="black"/>
<path d="M11.6134 104.625C11.6134 104.625 20.0442 102.12 20.6489 105.3C21.2537 108.479 14.9039 109.491 14.9039 109.491C14.9039 109.491 21.9829 107.591 21.7873 111.214C21.5916 114.837 16.2912 114.802 16.2912 114.802C16.2912 114.802 22.4632 113.665 22.5165 117.519C22.5699 121.356 17.5541 120.61 17.5541 120.61C17.5541 120.61 24.6509 119.811 23.6726 124.304C22.6944 128.798 15.5264 127.466 15.5264 127.466C15.5264 127.466 8.53628 126.773 7.16671 119.047C5.79715 111.338 8.05604 105.53 11.6134 104.625Z" fill="#F4B6B3"/>
<path d="M17.8207 128.958C16.8958 128.958 16.0242 128.869 15.295 128.727C12.6448 128.46 7.11314 126.134 5.90366 119.278C4.48073 111.249 6.73962 104.571 11.2752 103.381C12.4313 103.044 17.9629 101.534 20.542 103.097C21.289 103.559 21.7693 104.234 21.9293 105.068C22.1072 106.01 21.9116 106.916 21.3424 107.715C21.2535 107.857 21.1467 107.981 21.0222 108.106C21.378 108.248 21.6981 108.425 21.9827 108.656C22.5341 109.1 23.1566 109.917 23.0855 111.285C23.0143 112.493 22.5341 113.434 21.8404 114.127C22.0539 114.251 22.2673 114.376 22.4452 114.535C23.3167 115.246 23.7969 116.276 23.8147 117.484C23.8147 118.692 23.459 119.544 23.0143 120.13C23.4234 120.361 23.8147 120.645 24.1349 121.001C24.7218 121.64 25.3266 122.794 24.9353 124.571C24.1705 128.016 20.7732 128.958 17.8207 128.958ZM17.4116 104.98C15.7574 104.98 13.4807 105.424 11.9689 105.868C11.9689 105.868 11.9333 105.868 11.9155 105.868C9.19417 106.56 7.14871 111.587 8.42935 118.816C9.62105 125.494 15.5795 126.151 15.6329 126.169C15.793 126.187 21.6803 127.235 22.3918 124.002C22.5874 123.15 22.3029 122.83 22.1961 122.723C21.7159 122.191 20.6843 121.96 19.6705 121.871C18.5143 122.031 17.5361 121.906 17.3582 121.871C16.7179 121.782 16.2376 121.214 16.2554 120.574C16.2554 119.917 16.7535 119.384 17.4116 119.313C17.6072 119.295 18.4788 119.207 19.5637 119.278C20.0262 119.189 20.4708 119.047 20.7732 118.763C20.9689 118.585 21.2357 118.265 21.2179 117.519C21.2179 116.951 20.9867 116.685 20.791 116.542C20.1863 116.045 19.0124 115.903 17.9985 115.939C17.3582 116.045 16.7357 116.081 16.2732 116.098C15.5973 116.098 15.0459 115.583 14.9926 114.908C14.9392 114.251 15.3839 113.647 16.042 113.523C16.2021 113.487 16.8424 113.381 17.7139 113.345C18.9056 113.114 20.3997 112.546 20.4886 111.143C20.4886 110.805 20.3997 110.717 20.3286 110.663C19.7238 110.166 17.9096 110.237 16.3799 110.504C15.7218 110.663 15.2416 110.752 15.0993 110.77C14.4234 110.876 13.7653 110.432 13.623 109.758C13.4807 109.083 13.8898 108.408 14.5479 108.23C14.7792 108.177 15.2594 108.052 15.8819 107.928C17.1625 107.573 18.6566 106.969 19.1902 106.205C19.3503 105.974 19.4037 105.779 19.3503 105.53C19.3503 105.459 19.3325 105.388 19.1724 105.299C18.7989 105.068 18.1764 104.98 17.4116 104.98Z" fill="black"/>
<path d="M48.948 112.084L117.053 139.544L100.244 158.087L48.2188 132.404L48.948 112.084Z" fill="black"/>
<path d="M100.247 159.383C100.051 159.383 99.8555 159.348 99.6776 159.241L47.652 133.558C47.1895 133.327 46.9049 132.865 46.9405 132.35L47.652 112.031C47.652 111.605 47.8832 111.214 48.2389 110.983C48.5946 110.752 49.0393 110.717 49.4306 110.876L117.535 138.318C117.927 138.478 118.211 138.815 118.318 139.224C118.425 139.632 118.318 140.076 118.016 140.378L101.207 158.939C100.958 159.223 100.603 159.365 100.247 159.365V159.383ZM49.5551 131.622L99.9444 156.506L114.85 140.059L50.1776 114.002L49.5551 131.64V131.622Z" fill="black"/>
</g>
<defs>
<radialGradient id="paint0_radial_1_1878" cx="0" cy="0" r="1" gradientUnits="userSpaceOnUse" gradientTransform="translate(163.91 98.5666) rotate(-35.9016) scale(14.5388 12.1521)">
<stop stop-color="#D9315C" stop-opacity="0.8"/>
<stop offset="0.14" stop-color="#D9315D" stop-opacity="0.78"/>
<stop offset="0.26" stop-color="#D93160" stop-opacity="0.73"/>
<stop offset="0.38" stop-color="#D93166" stop-opacity="0.65"/>
<stop offset="0.49" stop-color="#D9316F" stop-opacity="0.54"/>
<stop offset="0.54" stop-color="#D93174" stop-opacity="0.47"/>
<stop offset="0.58" stop-color="#D9366F" stop-opacity="0.42"/>
<stop offset="0.77" stop-color="#DB4F5A" stop-opacity="0.19"/>
<stop offset="0.91" stop-color="#DD5E4D" stop-opacity="0.05"/>
<stop offset="1" stop-color="#DE6449" stop-opacity="0"/>
</radialGradient>
<radialGradient id="paint1_radial_1_1878" cx="0" cy="0" r="1" gradientUnits="userSpaceOnUse" gradientTransform="translate(112.589 106.141) rotate(-138.05) scale(14.5367 12.1539)">
<stop stop-color="#D9315C" stop-opacity="0.8"/>
<stop offset="0.14" stop-color="#D9315D" stop-opacity="0.78"/>
<stop offset="0.26" stop-color="#D93160" stop-opacity="0.73"/>
<stop offset="0.38" stop-color="#D93166" stop-opacity="0.65"/>
<stop offset="0.49" stop-color="#D9316F" stop-opacity="0.54"/>
<stop offset="0.54" stop-color="#D93174" stop-opacity="0.47"/>
<stop offset="0.58" stop-color="#D9366F" stop-opacity="0.42"/>
<stop offset="0.77" stop-color="#DB4F5A" stop-opacity="0.19"/>
<stop offset="0.91" stop-color="#DD5E4D" stop-opacity="0.05"/>
<stop offset="1" stop-color="#DE6449" stop-opacity="0"/>
</radialGradient>
<clipPath id="clip0_1_1878">
<rect width="216" height="262" fill="white" transform="translate(0 0.81543)"/>
</clipPath>
</defs>
</svg>
