<svg width="67" height="53" viewBox="0 0 67 53" fill="none" xmlns="http://www.w3.org/2000/svg">
<mask id="mask0_1_1966" style="mask-type:luminance" maskUnits="userSpaceOnUse" x="0" y="0" width="67" height="53">
<path d="M67 0.81543H0V52.8154H67V0.81543Z" fill="white"/>
</mask>
<g mask="url(#mask0_1_1966)">
<g style="mix-blend-mode:luminosity">
<path d="M66.9311 35.2574L63.2291 8.50453C62.5751 3.85943 59.0771 0.53403 54.9151 0.83313C54.4381 0.86833 53.9521 0.938733 53.4661 1.07063L7.79948 13C1.89778 14.3636 0.0777865 18.4984 1.24399 23.1346L7.17219 46.5534C7.35769 47.2924 7.64928 47.9874 8.00268 48.6204C9.69888 51.6124 13.1622 53.3274 16.705 52.6764L44.2871 47.6704L48.6961 46.8524L62.3451 51.6124C62.4601 51.6474 62.5661 51.6564 62.6721 51.6644C63.6711 51.7354 64.3161 50.8464 64.0861 49.7384L62.6281 43.8614C62.6281 43.8434 63.4321 43.3774 63.5121 43.3244C63.7941 43.1224 64.0681 42.9024 64.3331 42.6734C64.8461 42.2074 65.3051 41.6794 65.6851 41.0994C66.4621 39.9204 66.9221 38.5564 67.0191 37.1494C67.0631 36.5154 67.0101 35.8914 66.9221 35.2574H66.9311Z" fill="white"/>
<path d="M37.611 14.4337C38.071 17.3544 40.403 31.7204 42.426 39.1014C42.506 39.3924 42.329 39.7004 42.029 39.7884L36.454 41.4244C36.154 41.5124 35.844 41.3454 35.756 41.0464C34.996 38.3454 34.325 35.6004 33.715 32.8464C33.644 32.5474 33.344 32.3624 33.035 32.4334C30.1812 33.1454 27.3452 33.9204 24.5269 34.7914C24.2442 34.8794 24.0763 35.1604 24.1294 35.4424L25.6313 43.0954C25.6931 43.3944 25.4899 43.6944 25.1807 43.7554L19.4822 44.9524C19.173 45.0134 18.8815 44.8284 18.8196 44.5214L13.9252 19.3866C13.8633 19.0875 14.0665 18.7884 14.3757 18.7268L20.0742 17.5304C20.3834 17.4688 20.6749 17.6623 20.7368 17.9614L22.6186 27.6294C22.6804 27.9464 23.0073 28.1404 23.3254 28.0434C26.126 27.1904 28.9443 26.4154 31.7803 25.7124C32.072 25.6414 32.257 25.3604 32.204 25.0694C31.6301 21.8499 31.1442 18.6125 30.7555 15.375C30.7201 15.0671 30.941 14.7856 31.2502 14.7416L36.984 13.9674C37.284 13.9234 37.558 14.1258 37.602 14.4161L37.611 14.4337Z" fill="#DD468F"/>
<path d="M53.8017 14.2665C53.8017 13.1844 52.9187 12.2959 51.8317 12.2959H46.9907C45.9037 12.2959 45.0117 13.1668 45.0117 14.2577V16.8354L53.8017 16.8441V14.2665Z" fill="#DD468F"/>
<path d="M45.2856 35.2134L48.4126 37.8704V38.9964C48.4126 39.4544 48.7836 39.8234 49.2346 39.8234H49.4996C49.9586 39.8234 50.3296 39.4544 50.3296 39.0054V37.8794L53.4666 35.2314C53.6606 35.0644 53.7666 34.8264 53.7666 34.5804L53.7846 19.519H44.9936L44.9766 34.5714C44.9766 34.8264 45.0906 35.0644 45.2766 35.2224L45.2856 35.2134Z" fill="#DD468F"/>
</g>
</g>
</svg>
