<svg width="160" height="160" viewBox="0 0 160 160" fill="none" xmlns="http://www.w3.org/2000/svg">
<g clip-path="url(#clip0_461_9866)">
<path d="M160 80C160 96.8527 154.784 112.495 145.882 125.391C145.487 125.964 145.083 126.529 144.676 127.093C144.188 127.767 143.684 128.428 143.176 129.082C128.541 147.895 105.686 159.996 80.004 159.996C61.1869 159.996 43.8784 153.494 30.2244 142.615C28.7077 141.409 27.2314 140.146 25.8075 138.835C25.4767 138.529 25.15 138.226 24.8273 137.916C9.53159 123.354 0 102.786 0 80C0 35.8191 35.8151 0 80 0C124.185 0 160 35.8191 160 80Z" fill="#FFDEEE"/>
<g clip-path="url(#clip1_461_9866)">
<mask id="mask0_461_9866" style="mask-type:alpha" maskUnits="userSpaceOnUse" x="0" y="0" width="160" height="160">
<path d="M160 80C160 96.8527 154.784 112.495 145.882 125.391C145.487 125.964 145.083 126.529 144.676 127.093C144.188 127.767 143.684 128.428 143.176 129.082C128.541 147.895 105.686 159.996 80.004 159.996C61.1869 159.996 43.8784 153.494 30.2244 142.615C28.7077 141.409 27.2314 140.146 25.8075 138.835C25.4767 138.529 25.15 138.226 24.8273 137.916C9.53159 123.354 0 102.786 0 80C0 35.8191 35.8151 0 80 0C124.185 0 160 35.8191 160 80Z" fill="#FFDEEE"/>
</mask>
<g mask="url(#mask0_461_9866)">
<path d="M67.661 145.931C67.661 145.931 65.9311 148.03 68.5813 148.713C68.5813 148.713 67.8574 152.264 71.7222 151.007C71.7222 151.007 72.2989 153.716 75.17 151.849C75.17 151.849 75.9307 154.827 79.1207 152.35C79.1207 152.35 81.8813 154.412 83.3046 151.508C83.3046 151.508 86.3352 153.338 86.7891 149.824C86.7891 149.824 89.3903 151.007 88.9731 147.884C88.9731 147.884 91.5742 147.847 89.8197 145.443L93.3533 146.249C93.3533 146.249 91.2429 153.57 85.8321 156.23L84.4089 156.803C84.4089 156.803 86.1757 159.097 86.9364 160.879C87.6971 162.672 90.151 168.31 89.8933 172.129L90.2 180.402C90.2 180.402 77.3171 182.537 67.1212 180.634C67.1212 180.634 66.8513 173.776 67.7715 169.884C67.7715 169.884 70.0168 160.098 72.5811 156.852C72.5811 156.852 68.5444 154.936 65.747 151.349C65.747 151.349 63.6735 147.835 63.833 146.664L67.661 145.944V145.931Z" fill="#EFC30A"/>
<path d="M54.4327 30.6231C54.4327 30.6231 53.1076 28.8905 42.5681 29.4518C42.5681 29.4518 28.8386 30.2449 16.8759 45.4119C16.8759 45.4119 7.20755 56.6255 3.68622 78.8208L1.53906 92.4747C1.53906 92.4747 3.6126 97.3555 8.594 99.6495C8.594 99.6495 9.28109 85.9955 13.0355 81.1147C13.0355 81.1147 12.8883 97.8192 14.1153 103.151C14.1153 103.151 24.3971 107.959 32.2863 108.337C32.2863 108.337 26.9123 94.7565 27.1454 85.3854C27.1454 85.3854 26.3847 64.032 42.789 48.3159L47.1078 44.3869C47.1078 44.3869 44.3227 45.0336 44.2491 43.2033L44.1754 41.373C44.1754 41.373 41.5743 42.0563 41.6479 40.1528C41.7215 38.2493 43.4883 35.1256 48.5434 32.368C48.5434 32.368 51.942 30.6841 54.4204 30.6109L54.4327 30.6231Z" fill="#C75328"/>
<path d="M104.762 30.6231C104.762 30.6231 106.087 28.8905 116.626 29.4518C116.626 29.4518 130.356 30.2449 142.319 45.4119C142.319 45.4119 151.975 56.6255 155.508 78.8208L157.655 92.4747C157.655 92.4747 155.582 97.3555 150.6 99.6495C150.6 99.6495 149.913 85.9955 146.159 81.1147C146.159 81.1147 146.306 97.8192 145.091 103.151C145.091 103.151 134.822 107.959 126.92 108.337C126.92 108.337 132.294 94.7565 132.061 85.3854C132.061 85.3854 132.822 64.032 116.418 48.3159L112.099 44.3869C112.099 44.3869 114.884 45.0336 114.958 43.2033L115.031 41.373C115.031 41.373 117.632 42.0563 117.559 40.1528C117.485 38.2493 115.718 35.1256 110.663 32.368C110.663 32.368 107.265 30.6841 104.786 30.6109L104.762 30.6231Z" fill="#C75328"/>
<path d="M79.3319 136.869C108.172 136.839 131.526 113.597 131.496 84.9564C131.466 56.316 108.062 33.1226 79.2227 33.1526C50.383 33.1827 27.0284 56.4247 27.0585 85.0652C27.0887 113.706 50.4923 136.899 79.3319 136.869Z" fill="#FDD7BA"/>
<path d="M50.3966 91.9986C50.9487 94.6342 48.6912 97.3308 45.3784 98.0019C42.0656 98.673 38.9247 97.0868 38.3848 94.4512C37.845 91.8155 40.0903 89.1189 43.403 88.4478C46.7158 87.7767 49.8567 89.363 50.3966 91.9986Z" fill="#F9BAAC"/>
<path d="M109.08 91.9986C108.54 94.6342 110.786 97.3308 114.098 98.0019C117.411 98.673 120.552 97.0868 121.092 94.4512C121.644 91.8155 119.386 89.1189 116.074 88.4478C112.761 87.7767 109.62 89.363 109.08 91.9986Z" fill="#F9BAAC"/>
<path d="M28.3594 75.5623C28.3594 75.5623 43.3895 70.9866 51.156 69.7664C51.156 69.7664 52.9964 60.92 56.7754 59.2483L55.708 69.2417C55.708 69.2417 71.965 68.3509 72.3208 68.3509C72.6767 68.3509 92.4059 67.6432 101.51 69.4735L104.479 69.6199L105.448 69.2173C105.448 69.2173 105.448 57.2716 101.461 49.0841C101.461 49.0841 111.276 58.8944 116.491 70.8401C116.491 70.8401 123.497 69.925 129.73 71.5967C129.73 71.5967 124.307 54.819 116.638 49.3281C116.638 49.3281 108.307 40.0303 96.9579 36.3697C96.9579 36.3697 89.7557 32.9653 79.02 33.2216C79.02 33.2216 67.8793 32.0502 54.2725 39.6276C54.2725 39.6276 42.2116 45.7774 35.8683 56.3076C35.8683 56.3076 29.6354 66.423 28.3594 75.5745V75.5623Z" fill="#C75328"/>
<path d="M46.7509 44.8138C46.7509 44.8138 43.6836 44.6673 43.9903 42.9103C44.297 41.1532 46.7877 37.7977 49.8551 36.431C52.9225 35.0644 58.5174 32.7705 58.7505 35.2474C58.9836 37.7244 58.4805 37.6146 58.4805 37.6146C58.4805 37.6146 51.1557 40.4699 46.7509 44.826V44.8138Z" fill="#70CC1F"/>
<path d="M111.854 44.8138C111.854 44.8138 114.922 44.6673 114.615 42.9103C114.308 41.1532 111.817 37.7977 108.75 36.431C105.683 35.0644 100.088 32.7705 99.8546 35.2474C99.6215 37.7244 100.125 37.6146 100.125 37.6146C100.125 37.6146 107.449 40.4699 111.854 44.826V44.8138Z" fill="#70CC1F"/>
<path d="M56.6299 33.6243C56.6299 33.6243 57.6974 30.8301 55.1944 30.8301C52.6914 30.8301 45.3788 32.8068 42.7777 37.0775C40.1766 41.3481 42.3115 41.702 44.1887 41.3725C44.1887 41.3725 49.7836 34.8933 56.6422 33.6121L56.6299 33.6243Z" fill="#EFC30A"/>
<path d="M102.382 33.6243C102.382 33.6243 101.315 30.8301 103.818 30.8301C106.321 30.8301 113.634 32.8068 116.235 37.0775C118.836 41.3481 116.689 41.702 114.824 41.3725C114.824 41.3725 109.229 34.8933 102.37 33.6121L102.382 33.6243Z" fill="#EFC30A"/>
<path d="M71.9156 136.328C71.9156 136.328 71.2285 143.271 68.9219 145.626C68.9219 145.626 72.5291 149.518 78.7374 149.897C84.9458 150.275 88.9334 145.248 88.9334 145.248C88.9334 145.248 85.3261 141.05 85.1053 136.475L71.9156 136.328Z" fill="#FDD7BA"/>
<path d="M61.1579 147.407C61.1579 147.407 62.6916 154.082 69.4152 157.718C69.4152 157.718 65.9184 164.551 65.6117 168.712C65.305 172.873 64.9737 180.511 64.9737 180.511L62.6916 180.865L60.0904 180.255L52.6797 176.741L53.0846 151.678C53.0846 151.678 57.1212 147.969 61.1579 147.407Z" fill="#70CC1F"/>
<path d="M95.9175 146.896C95.9175 146.896 94.4329 153.167 87.6602 157.633C87.6602 157.633 91.2183 163.978 91.8318 169.579C91.8318 169.579 92.5557 177.779 92.1999 180.512H97.6598C97.6598 180.512 102.469 179.487 106.15 176.949C106.15 176.949 106.248 156.108 105.893 152.142C105.893 152.142 101.242 148.03 95.9298 146.908L95.9175 146.896Z" fill="#70CC1F"/>
<path d="M69.2064 145.37C69.2064 145.37 70.6419 148.115 76.3349 149.616C76.3349 149.616 80.4452 150.458 84.9236 148.579C84.9236 148.579 88.4817 145.736 88.8621 145.102L90.0154 145.565C90.0154 145.565 91.1933 147.164 89.6596 147.701L88.8989 147.676C88.8989 147.676 89.4878 150.751 86.8253 149.714C86.8253 149.714 87.0339 153.191 83.3285 151.361C83.3285 151.361 82.7396 154.765 79.3409 152.276C79.3409 152.276 76.3227 154.717 75.3043 151.874C75.3043 151.874 72.7032 153.96 71.6235 150.836C71.6235 150.836 68.0653 152.618 68.7033 148.677C68.7033 148.677 65.3783 148.274 68.1389 145.882L69.2186 145.394L69.2064 145.37Z" fill="white"/>
<path d="M63.8093 146.968C63.8093 146.968 65.343 152.996 72.3489 156.73V156.876C72.3489 156.876 69.8459 161.757 69.1343 164.405C68.4226 167.053 66.9871 174.959 66.9871 174.959L67.0853 180.475L64.9626 180.402C64.9626 180.402 64.4228 171.018 65.5025 168.578L68.7784 159.329L69.4165 157.706L64.0056 153.142L61.2695 147.42L63.8216 146.956L63.8093 146.968Z" fill="#54960E"/>
<path d="M86.9473 161.561C86.9473 161.561 88.8859 168.395 89.0208 168.419C89.1435 168.443 90.2723 177.497 90.2723 177.497L90.1251 180.95L92.3458 180.548L91.6342 168.748L89.6956 162.623L87.6712 157.62L92.1495 154.155C92.1495 154.155 95.1924 149.396 95.1924 149.323C95.1924 149.25 95.8795 146.7 95.8795 146.7L93.3642 146.224L90.4932 152.349L87.3031 155.143L84.6406 156.742L86.432 160.585L86.9718 161.549L86.9473 161.561Z" fill="#54960E"/>
<path d="M79.4126 33.1728C79.4126 33.1728 80.566 33.0264 82.7499 33.0996C84.9339 33.1728 88.1853 33.4413 92.2588 34.393C96.32 35.357 101.215 37.0286 106.356 40.0303C111.485 43.0076 116.871 47.327 121.46 53.2572C126.049 59.1507 129.816 66.7037 131.46 75.3671C133.116 83.9939 132.674 93.731 129.288 103.09C125.926 112.412 119.595 121.271 110.822 127.677C102.111 134.119 90.9459 137.963 79.4004 137.926C67.8548 137.963 56.6896 134.107 47.9783 127.677C39.2056 121.271 32.8746 112.424 29.5128 103.09C26.1141 93.7432 25.6724 84.0061 27.3411 75.3671C28.9974 66.7037 32.7519 59.1507 37.3407 53.2572C41.9294 47.327 47.3157 43.0076 52.4444 40.0303C57.5853 37.0408 62.4931 35.357 66.542 34.4052C70.6154 33.4535 73.8546 33.185 76.0508 33.1118C78.247 33.0386 79.3881 33.1362 79.3881 33.185C79.3881 33.2582 78.2348 33.2948 76.0753 33.4779C73.9037 33.6731 70.7136 34.0514 66.726 35.1007C62.7507 36.1501 57.9779 37.9072 52.972 40.921C47.9906 43.9227 42.7883 48.2178 38.3713 54.0503C33.9543 59.8462 30.3716 67.2284 28.8257 75.6477C27.2797 84.0427 27.7705 93.487 31.0955 102.516C34.3837 111.521 40.543 120.063 49.0335 126.225C57.4748 132.423 68.2352 136.12 79.3881 136.096C90.5288 136.12 101.301 132.423 109.743 126.225C118.233 120.063 124.38 111.521 127.681 102.516C131.006 93.487 131.509 84.0427 129.951 75.6477C128.405 67.2162 124.822 59.8462 120.405 54.0503C115.988 48.2178 110.786 43.9227 105.804 40.921C100.811 37.9072 96.0255 36.1501 92.0502 35.1007C88.0626 34.0514 84.8603 33.6731 82.7009 33.4779C80.5292 33.2948 79.3758 33.2582 79.3881 33.185L79.4126 33.1728Z" fill="black"/>
<path d="M44.4331 93.085C44.5804 93.085 44.6172 94.6346 45.0589 97.3678C45.5128 100.089 46.4208 104.03 48.6906 108.386C50.9359 112.73 54.6168 117.464 59.9663 121.137C65.2667 124.822 72.2603 127.299 79.7446 127.275C87.229 127.299 94.2226 124.822 99.523 121.137C104.872 117.464 108.553 112.73 110.799 108.386C113.068 104.018 113.976 100.077 114.43 97.3678C114.86 94.6346 114.909 93.085 115.056 93.085C115.167 93.085 115.363 94.6346 115.142 97.4532C114.909 100.247 114.173 104.36 111.976 108.96C109.805 113.535 106.063 118.587 100.505 122.516C95.0078 126.457 87.6339 129.129 79.7569 129.105C71.8799 129.129 64.506 126.469 59.0092 122.516C53.4512 118.587 49.709 113.535 47.5373 108.96C45.3288 104.36 44.6049 100.247 44.3595 97.4532C44.1387 94.6346 44.3472 93.085 44.4454 93.085H44.4331Z" fill="black"/>
<path d="M78.7625 80.4918C78.7625 83.5911 78.0018 86.1169 77.057 86.1169C76.1123 86.1169 75.3516 83.6033 75.3516 80.4918C75.3516 77.3803 76.1123 74.8789 77.057 74.8789C78.0018 74.8789 78.7625 77.3925 78.7625 80.4918Z" fill="black"/>
<path d="M84.1263 80.4918C84.1263 83.5911 83.3533 86.1169 82.4086 86.1169C81.4638 86.1169 80.7031 83.6033 80.7031 80.4918C80.7031 77.3803 81.4638 74.8789 82.4086 74.8789C83.3533 74.8789 84.1263 77.3925 84.1263 80.4918Z" fill="black"/>
<path d="M55.7111 69.2422C55.6865 69.0104 59.6495 68.2416 66.1646 67.6926C72.6674 67.1435 81.71 66.8994 91.6606 67.4485C96.6174 67.717 101.304 68.1318 105.599 68.7053L104.642 69.4618C104.961 66.3869 104.642 63.4463 104.224 60.8717C103.795 58.2849 103.231 56.0397 102.728 54.185C101.709 50.4756 100.924 48.3525 101.108 48.2793C101.28 48.2061 102.384 50.2072 103.709 53.88C104.359 55.7225 105.059 57.9798 105.623 60.6154C106.163 63.2511 106.605 66.2893 106.323 69.6327L106.249 70.4868L105.366 70.3892C101.157 69.9133 96.4579 69.5595 91.5624 69.291C81.6855 68.7541 72.7165 68.7907 66.2382 68.9982C59.76 69.2056 55.7479 69.5228 55.7111 69.2544V69.2422Z" fill="black"/>
<path d="M128.491 71.3653C128.43 71.5605 127.203 71.2921 125.08 71.1456C122.97 70.987 119.927 70.9138 116.43 71.1456L115.768 71.1944L115.559 70.5355C114.909 68.449 113.817 66.2527 112.504 64.0441C109.768 59.4928 106.713 55.6736 104.529 52.9037C102.332 50.1461 100.934 48.45 101.118 48.267C101.29 48.084 103.032 49.475 105.51 52.0618C107.976 54.6486 111.24 58.3946 114.087 63.1168C115.448 65.4229 116.565 67.7657 117.191 70.0719L116.32 69.4618C119.988 69.3519 123.068 69.6692 125.227 70.1329C127.387 70.5843 128.552 71.2066 128.491 71.3775V71.3653Z" fill="black"/>
<path d="M56.9248 57.4795C57.1579 57.5649 57.1702 58.236 57.1456 59.2854C57.1088 60.3347 57.0352 61.7868 56.9125 63.3974C56.6549 66.6187 56.2377 69.2422 55.7224 69.2422C55.2193 69.2422 54.8145 66.5577 55.0721 63.251C55.2071 61.6037 55.4893 60.1029 55.8574 59.0535C56.2254 57.992 56.6794 57.4063 56.9248 57.4917V57.4795Z" fill="black"/>
<path d="M29.2081 75.3792C29.0241 74.9278 36.5821 71.6332 46.5203 69.6565C48.0172 69.3637 49.4773 69.1196 50.876 68.9244L50.1398 69.6199C51.1459 65.5811 52.9986 62.5916 54.336 60.5051C55.7102 58.443 56.7408 57.357 56.9126 57.479C57.0966 57.601 56.4095 58.8944 55.3175 61.0664C54.2746 63.2383 52.6796 66.3132 51.8698 69.986L51.7349 70.5839L51.1214 70.6815C49.7595 70.9011 48.324 71.1696 46.8639 71.4502C37.0974 73.3903 29.3676 75.8673 29.1836 75.3792H29.2081Z" fill="black"/>
<path d="M58.2878 37.4802C58.1774 37.407 58.2878 37.0531 58.4351 36.4552C58.4964 36.1624 58.57 35.7963 58.5087 35.4669C58.4964 35.3815 58.4719 35.3083 58.4351 35.2351C58.3983 35.1374 58.3983 35.174 58.3124 35.0276C58.2388 34.9544 58.0915 34.8446 57.9198 34.7836C57.1591 34.4907 55.7849 34.7104 54.4475 35.1618C53.0733 35.6255 51.601 36.3332 50.1409 37.224C48.6931 38.1147 47.3926 39.1153 46.3742 40.1402C45.3804 41.1286 44.5829 42.3 44.6197 43.0321C44.5706 43.691 45.5276 44.0082 46.1165 44.1059C46.7177 44.2157 47.1104 44.2645 47.1226 44.3987C47.1349 44.5207 46.8036 44.716 46.1043 44.8136C45.7485 44.8502 45.3068 44.8868 44.7546 44.7282C44.2148 44.5817 43.5031 44.1059 43.3314 43.2029C43.1841 42.3854 43.4418 41.6167 43.7853 40.9334C44.1289 40.25 44.5951 39.6033 45.135 38.981C46.2147 37.7487 47.6011 36.6261 49.1716 35.6499C50.7544 34.686 52.374 33.9539 53.9567 33.5268C55.5272 33.1485 57.0977 32.8923 58.5087 33.6C58.8522 33.8074 59.1467 34.0637 59.343 34.4541C59.3798 34.5273 59.4903 34.7958 59.5025 34.9422C59.5393 35.113 59.5393 35.2717 59.5271 35.4181C59.478 36.016 59.2694 36.4064 59.0854 36.7115C58.705 37.3094 58.3737 37.5168 58.2756 37.4558L58.2878 37.4802Z" fill="black"/>
<path d="M56.2367 33.9537C56.114 33.8927 56.2121 33.5266 56.2367 32.941C56.2612 32.3309 56.0649 31.7452 55.1324 31.6598C54.1999 31.5499 52.8994 31.8428 51.562 32.3553C50.2001 32.8677 48.7768 33.5999 47.3413 34.5272C45.9303 35.4424 44.6666 36.4673 43.7095 37.5045C43.231 38.0292 42.8261 38.5538 42.5685 39.0663C42.2986 39.5666 42.2249 40.0425 42.3108 40.2743C42.3967 40.5794 42.7157 40.7868 43.0961 40.9088C43.4642 41.0308 43.8445 41.0796 44.139 41.1284C44.7525 41.2017 45.1328 41.2383 45.1573 41.3603C45.1819 41.4823 44.8629 41.6897 44.1758 41.8362C43.8322 41.9094 43.4151 41.9704 42.8752 41.9094C42.3722 41.8606 41.5992 41.6409 41.1575 40.8722C40.7035 40.0547 40.8876 39.1639 41.1698 38.444C41.4642 37.7119 41.9059 37.0408 42.409 36.4063C43.4396 35.1373 44.7893 33.9903 46.3352 32.9898C47.8689 32.0014 49.4762 31.2327 51.0099 30.7568C52.5436 30.2931 54.0527 30.0491 55.4146 30.403C56.0772 30.5616 56.7643 31.0375 56.9728 31.6598C57.206 32.2698 57.0587 32.7823 56.9483 33.1118C56.6538 33.7829 56.3471 34.0147 56.2367 33.9659V33.9537Z" fill="black"/>
<path d="M31.8695 42.8372C31.7468 42.7151 32.0658 42.1538 32.7651 41.3851C33.4645 40.6286 34.5565 39.6647 36.0288 38.9325C37.4889 38.2004 39.0594 37.9564 40.1514 38.1638C41.2556 38.359 41.7955 38.8837 41.6973 39.018C41.6114 39.1644 41.0225 39.0057 40.09 39.0668C39.1575 39.1034 37.9061 39.4206 36.6055 40.0795C34.0044 41.4095 32.1517 43.13 31.8817 42.8372H31.8695Z" fill="black"/>
<path d="M38.1533 43.6061C37.822 43.6061 37.503 42.2151 38.3496 40.6776C38.7791 39.9211 39.4171 39.4086 39.9447 39.189C40.4722 38.9693 40.8649 39.0182 40.9139 39.189C41.0121 39.5184 40.1042 40.1529 39.4661 41.3121C38.8159 42.4469 38.5214 43.6427 38.1533 43.6061Z" fill="black"/>
<path d="M13.159 80.8213C13.294 80.8945 12.3002 82.5784 11.38 85.8973C10.4598 89.204 9.58862 94.158 9.36777 100.247L9.31869 101.516L8.27579 100.771C5.77282 98.9778 3.2085 96.8424 1.12269 93.7187L1 93.5357L1.02454 93.2673C1.68709 84.189 3.07354 73.5123 6.76665 62.6404C9.50274 54.6115 13.4412 47.3026 18.4472 41.7751C23.404 36.1988 29.367 32.6237 34.7042 30.8666C40.066 29.0729 44.6915 28.8777 47.808 29.0485C50.9367 29.2315 52.6054 29.7684 52.5808 29.8782C52.5563 30.0125 50.8631 29.7196 47.7957 29.7562C44.7406 29.805 40.2623 30.1955 35.1459 32.0868C30.0418 33.9415 24.4224 37.4678 19.7232 42.8977C14.9749 48.2787 11.1959 55.3681 8.50891 63.2383C4.88942 73.8784 3.41708 84.4087 2.6073 93.3893L2.50914 92.9378C3.34347 94.2922 4.48453 95.5734 5.58878 96.6838C6.71757 97.8064 7.90771 98.7947 9.08557 99.6733L8.00586 100.198C8.39848 93.9628 9.49047 88.9966 10.6561 85.6655C11.8217 82.3343 13.0731 80.7359 13.159 80.8091V80.8213Z" fill="black"/>
<path d="M31.1565 108.374C31.1319 108.594 29.132 108.618 25.9052 108.093C22.6783 107.544 18.2122 106.47 13.5007 104.274L13.9792 102.554H14.1633L13.2553 103.871C12.8627 103.054 12.6664 102.236 12.5069 101.419C11.967 98.5148 11.9302 95.7937 11.918 93.329C11.918 90.8642 12.0529 88.6434 12.2002 86.7887C12.5069 83.0793 12.9118 80.8098 13.1695 80.8342C13.4271 80.8586 13.4639 83.1525 13.5007 86.8375C13.5253 88.68 13.5375 90.8764 13.6234 93.3046C13.7216 95.7205 13.8197 98.405 14.3228 101.065C14.47 101.797 14.6541 102.517 14.924 103.091L15.5865 104.543L14.016 104.396H13.832L14.3105 102.651C18.7889 104.799 23.0954 106.068 26.1751 106.922C29.267 107.752 31.2056 108.154 31.1688 108.398L31.1565 108.374Z" fill="black"/>
<path d="M100.712 37.4805C100.614 37.5415 100.283 37.3341 99.9026 36.7362C99.7186 36.4312 99.4977 36.0285 99.4609 35.4428C99.4609 35.2964 99.4609 35.1378 99.4855 34.9669C99.4977 34.8205 99.6082 34.5521 99.645 34.4788C99.8413 34.0884 100.136 33.8321 100.479 33.6247C101.89 32.9048 103.461 33.161 105.031 33.5515C106.614 33.9786 108.246 34.7107 109.816 35.6746C111.387 36.6508 112.773 37.7734 113.853 39.0058C114.393 39.6281 114.859 40.2626 115.203 40.9581C115.534 41.6414 115.792 42.3979 115.657 43.2276C115.497 44.1306 114.785 44.6065 114.233 44.7529C113.681 44.9115 113.24 44.8749 112.884 44.8383C112.184 44.7285 111.853 44.5332 111.865 44.4234C111.878 44.2892 112.258 44.2404 112.871 44.1306C113.448 44.033 114.417 43.7157 114.368 43.0568C114.393 42.3247 113.608 41.1655 112.614 40.1649C111.595 39.14 110.307 38.1394 108.847 37.2487C107.387 36.3579 105.915 35.6502 104.54 35.1866C103.191 34.7351 101.817 34.5155 101.068 34.8083C100.896 34.8693 100.749 34.9791 100.676 35.0523C100.577 35.1988 100.59 35.1744 100.553 35.2598C100.516 35.333 100.504 35.4062 100.479 35.4916C100.418 35.8211 100.479 36.1993 100.553 36.48C100.7 37.0779 100.823 37.4317 100.7 37.5049L100.712 37.4805Z" fill="black"/>
<path d="M102.763 33.9535C102.665 34.0023 102.346 33.7705 102.052 33.0994C101.929 32.7699 101.782 32.2574 102.027 31.6473C102.236 31.025 102.923 30.5492 103.585 30.3905C104.947 30.0367 106.444 30.2929 107.99 30.7444C109.524 31.2203 111.131 31.989 112.665 32.9773C114.199 33.9779 115.548 35.1249 116.591 36.3939C117.106 37.0284 117.548 37.6995 117.83 38.4316C118.113 39.1515 118.297 40.0301 117.843 40.8598C117.401 41.6163 116.616 41.8482 116.125 41.897C115.585 41.958 115.168 41.897 114.824 41.8237C114.149 41.6773 113.83 41.4699 113.843 41.3479C113.867 41.2137 114.248 41.1892 114.861 41.116C115.168 41.0794 115.536 41.0306 115.904 40.8964C116.284 40.7744 116.591 40.5669 116.689 40.2619C116.775 40.0301 116.702 39.5542 116.432 39.0539C116.174 38.5536 115.769 38.0167 115.291 37.4921C114.334 36.4427 113.07 35.4299 111.659 34.5148C110.223 33.5874 108.8 32.8553 107.438 32.3428C106.101 31.8304 104.788 31.5375 103.868 31.6473C102.935 31.7328 102.727 32.3184 102.763 32.9285C102.8 33.502 102.898 33.8803 102.763 33.9413V33.9535Z" fill="black"/>
<path d="M127.132 42.8367C126.862 43.1173 124.997 41.4091 122.408 40.0791C121.107 39.4201 119.856 39.1151 118.923 39.0663C117.991 39.0053 117.414 39.1761 117.316 39.0175C117.218 38.8711 117.758 38.3464 118.862 38.1633C119.954 37.9559 121.524 38.1878 122.985 38.9321C124.445 39.6642 125.537 40.6281 126.248 41.3847C126.948 42.1534 127.267 42.7147 127.144 42.8367H127.132Z" fill="black"/>
<path d="M120.848 43.6061C120.48 43.6305 120.186 42.4469 119.536 41.3121C118.91 40.1529 118.002 39.5184 118.088 39.189C118.137 39.0182 118.529 38.9693 119.057 39.189C119.585 39.4086 120.223 39.9211 120.652 40.6776C121.499 42.2273 121.18 43.6183 120.848 43.6061Z" fill="black"/>
<path d="M145.84 80.8218C145.938 80.7486 147.178 82.3348 148.343 85.6782C149.509 89.0093 150.601 93.9755 150.994 100.211L149.914 99.686C151.092 98.8074 152.282 97.8191 153.411 96.6965C154.527 95.5861 155.656 94.3049 156.49 92.9505L156.392 93.402C155.57 84.4214 154.11 73.8789 150.49 63.251C147.803 55.393 144.024 48.2914 139.276 42.9104C134.577 37.4927 128.945 33.9542 123.853 32.0995C118.737 30.2204 114.259 29.8177 111.204 29.7689C108.136 29.7323 106.443 30.0129 106.419 29.8909C106.382 29.7811 108.063 29.2442 111.191 29.0612C114.296 28.8904 118.933 29.0856 124.295 30.8793C129.632 32.6364 135.595 36.2237 140.552 41.7878C145.558 47.3153 149.497 54.6242 152.233 62.6531C155.926 73.525 157.312 84.2017 157.975 93.28L157.999 93.5484L157.877 93.7314C155.791 96.8551 153.214 98.9905 150.724 100.784L149.681 101.528L149.632 100.259C149.411 94.1707 148.54 89.2167 147.619 85.91C146.699 82.5789 145.705 80.9072 145.84 80.834V80.8218Z" fill="black"/>
<path d="M127.84 108.374C127.816 108.13 129.742 107.739 132.834 106.897C135.913 106.056 140.232 104.787 144.698 102.627L145.177 104.347H144.993L143.422 104.518L144.085 103.066C144.355 102.493 144.539 101.773 144.686 101.041C145.189 98.3805 145.287 95.6961 145.385 93.2801C145.471 90.852 145.484 88.6556 145.508 86.8131C145.545 83.1159 145.582 80.822 145.839 80.8098C146.085 80.7854 146.502 83.0671 146.809 86.7643C146.956 88.619 147.079 90.8276 147.091 93.3045C147.091 95.7815 147.042 98.4904 146.502 101.394C146.33 102.212 146.134 103.017 145.753 103.847L144.846 102.554H145.03L145.508 104.262C140.797 106.458 136.331 107.532 133.104 108.081C129.865 108.606 127.877 108.581 127.852 108.362L127.84 108.374Z" fill="black"/>
<path d="M71.8192 137.427C71.9051 137.439 71.8928 138.293 71.6106 139.806C71.4634 140.563 71.2548 141.478 70.9112 142.527C70.5431 143.577 70.1383 144.736 69.2917 145.98L69.1935 146.115L68.9849 146.163C66.7764 146.651 64.2489 147.225 61.5496 148.128C60.2 148.579 58.8135 149.116 57.4639 149.8C56.1265 150.483 54.7892 151.337 53.7831 152.472L53.9671 152.045L53.734 157.06C53.4272 164.576 53.3168 171.47 53.4027 176.802L53.1451 176.351C58.8013 179.95 63.1447 180.841 63.0588 181.097C63.0588 181.28 58.5559 180.805 52.5193 177.303L52.2862 177.168V176.851C51.9672 171.482 51.9549 164.552 52.2616 157.011C52.3353 155.29 52.4089 153.619 52.5193 151.971V151.715L52.7034 151.532C53.9303 150.178 55.4026 149.287 56.8504 148.579C58.2982 147.872 59.7583 147.347 61.157 146.92C63.9544 146.066 66.5678 145.578 68.7886 145.187L68.4819 145.37C69.218 144.394 69.7456 143.235 70.1505 142.271C70.5554 141.295 70.8499 140.416 71.0707 139.696C71.5124 138.256 71.721 137.439 71.8314 137.463L71.8192 137.427Z" fill="black"/>
<path d="M85.2776 137.597C85.388 137.573 85.6456 138.427 86.2223 139.903C86.5168 140.635 86.8849 141.526 87.4493 142.478C87.7315 142.954 88.0505 143.43 88.4554 143.881C88.6517 144.101 88.8725 144.308 89.1179 144.491C89.3265 144.662 89.6823 144.821 89.7927 144.833H89.805H89.8295C92.1485 145.236 94.8109 145.797 97.682 146.724C99.1175 147.188 100.602 147.737 102.074 148.469C103.547 149.213 105.056 150.116 106.307 151.495L106.479 151.678V151.934L106.7 155.876C107.056 163.953 107.031 171.323 106.712 176.814V177.119L106.467 177.253C101.093 180.353 97.2035 180.926 97.1912 180.768C97.1053 180.524 100.848 179.56 105.878 176.351L105.633 176.778C105.706 171.311 105.584 163.99 105.228 155.937L105.031 152.02L105.215 152.459C104.185 151.312 102.811 150.434 101.436 149.726C100.05 149.018 98.639 148.457 97.2526 147.969C94.4919 147.005 91.8785 146.37 89.621 145.858H89.6578C89.0688 145.736 88.8112 145.504 88.4799 145.26C88.1854 145.016 87.94 144.748 87.7192 144.479C87.2775 143.942 86.9585 143.393 86.7008 142.868C86.1732 141.819 85.8788 140.867 85.6579 140.074C85.2408 138.512 85.1671 137.609 85.2653 137.597H85.2776Z" fill="black"/>
<path d="M68.984 145.273C69.1681 145.126 69.9901 146.151 71.7078 147.201C73.401 148.25 76.0758 149.238 79.1309 149.165C82.186 149.141 84.8362 148.067 86.4803 146.944C88.1489 145.834 88.9096 144.772 89.1059 144.894C89.1795 144.955 89.1059 145.273 88.7992 145.797C88.4925 146.334 87.9403 147.03 87.1183 147.762C85.4864 149.214 82.554 150.605 79.1554 150.629C75.7568 150.702 72.7875 149.421 71.1066 148.042C69.3766 146.651 68.8368 145.346 68.984 145.273Z" fill="black"/>
<path d="M89.7835 145.687C89.7835 145.687 90.1271 145.797 90.5074 146.334C90.5933 146.468 90.6915 146.651 90.716 146.883C90.7406 147.127 90.6301 147.42 90.4215 147.603C90.0044 147.969 89.4768 148.115 88.8756 148.188L89.1701 147.749C89.2805 148.018 89.3786 148.323 89.4155 148.664C89.4645 148.994 89.4277 149.47 89.1087 149.836C88.7774 150.202 88.3235 150.324 87.9186 150.36C87.5014 150.397 87.1211 150.36 86.6916 150.275L87.256 149.872C87.2315 150.263 87.1824 150.69 86.9984 151.117C86.8266 151.544 86.4585 151.971 85.9677 152.191C84.9616 152.593 84.0046 152.349 83.109 151.983L83.796 151.764C83.4034 152.508 82.7531 153.374 81.6489 153.618C80.5446 153.838 79.5508 153.386 78.7656 152.728H79.5017C79.3054 152.898 79.1091 153.057 78.9005 153.216C78.2748 153.655 77.3791 154.058 76.4466 153.789C75.5264 153.496 75.0234 152.801 74.7044 152.069L75.5142 152.313C74.8025 152.776 73.9314 153.301 72.864 153.057C72.3486 152.923 71.9315 152.569 71.6861 152.191C71.4284 151.8 71.2935 151.434 71.1953 150.995L71.8333 151.361C71.3548 151.52 70.8518 151.642 70.3242 151.654C69.8089 151.666 69.2199 151.52 68.815 151.129C68.4101 150.751 68.2506 150.251 68.177 149.836C68.1157 149.396 68.1279 149.018 68.177 148.615L68.4592 149.018C67.8089 148.847 67.036 148.579 66.8151 147.835C66.6924 147.102 67.1096 146.7 67.3304 146.419C67.858 145.858 68.2384 145.687 68.2752 145.724C68.3243 145.785 68.0298 146.065 67.6372 146.651C67.4654 146.932 67.2323 147.359 67.355 147.688C67.4531 148.005 67.993 148.225 68.6065 148.323L68.9132 148.371L68.8887 148.725C68.8396 149.311 68.9255 150.129 69.3794 150.507C69.8089 150.897 70.6677 150.775 71.4898 150.458L71.9928 150.263L72.1278 150.824C72.2628 151.373 72.6308 151.983 73.0971 152.056C73.5756 152.178 74.2627 151.873 74.8639 151.434L75.4037 151.044L75.6859 151.678C75.8822 152.142 76.2994 152.63 76.7411 152.74C77.1705 152.874 77.7349 152.679 78.2625 152.313C78.4343 152.191 78.6061 152.056 78.7656 151.922L79.1336 151.605L79.514 151.922C80.0539 152.386 80.8391 152.703 81.4158 152.569C82.017 152.459 82.52 151.898 82.8636 151.275L83.0967 150.848L83.5507 151.056C84.2132 151.361 85.0475 151.52 85.5628 151.3C86.0659 151.105 86.3113 150.47 86.3604 149.811L86.3972 149.262L86.9125 149.409C87.526 149.579 88.2744 149.579 88.5075 149.311C88.7774 149.067 88.6793 148.432 88.532 147.969L88.3971 147.542H88.8265C89.3173 147.517 89.8081 147.407 90.0657 147.212C90.3234 147.029 90.2866 146.736 90.1762 146.48C89.943 145.968 89.6976 145.711 89.759 145.675L89.7835 145.687Z" fill="black"/>
<path d="M63.8058 146.969C64.0022 146.895 64.5175 149.153 66.7751 151.91C67.9038 153.265 69.4989 154.693 71.5724 155.754C73.6337 156.816 76.1735 157.487 78.8482 157.414C81.5229 157.353 84.0259 156.559 86.0381 155.4C88.0503 154.241 89.5717 152.74 90.6392 151.325C92.7495 148.457 93.1544 146.176 93.363 146.249C93.4611 146.237 93.3384 148.64 91.2772 151.776C90.2465 153.314 88.6883 154.973 86.5657 156.267C84.4553 157.56 81.7683 158.451 78.885 158.512C76.0017 158.585 73.2779 157.841 71.1062 156.645C68.9222 155.461 67.2781 153.875 66.1738 152.386C65.0696 150.886 64.4561 149.507 64.1371 148.531C63.8181 147.554 63.7568 146.981 63.8181 146.969H63.8058Z" fill="black"/>
<path d="M61.0946 147.103C61.4136 147.005 62.3461 149.958 64.6527 152.874C66.9348 155.815 69.585 157.426 69.4133 157.719C69.3151 157.975 66.2355 156.706 63.7816 153.558C61.3031 150.422 60.8124 147.14 61.0946 147.115V147.103Z" fill="black"/>
<path d="M87.6609 157.633C87.4769 157.353 90.2866 155.632 92.5933 152.472C94.949 149.336 95.7465 146.163 96.0778 146.249C96.2127 146.285 96.2005 147.103 95.8324 148.421C95.4766 149.714 94.7159 151.459 93.4889 153.131C92.2497 154.802 90.8142 156.035 89.6731 156.767C88.5321 157.499 87.7346 157.767 87.6732 157.658L87.6609 157.633Z" fill="black"/>
<path d="M67.0359 180.817C66.7782 180.878 65.8335 175.155 67.3672 168.261C68.1156 164.832 69.318 161.867 70.4223 159.854C71.5142 157.828 72.459 156.742 72.5817 156.84C72.7044 156.925 72.005 158.133 71.1216 160.196C70.226 162.245 69.1708 165.162 68.4469 168.505C66.95 175.18 67.3794 180.817 67.0359 180.829V180.817Z" fill="black"/>
<path d="M64.9622 180.511C64.7045 180.572 63.7475 174.703 65.318 167.638C66.091 164.124 67.3179 161.086 68.4467 159.011C69.5632 156.937 70.5325 155.815 70.6552 155.912C70.7779 155.998 70.054 157.23 69.1461 159.353C68.2259 161.464 67.1462 164.453 66.3977 167.87C64.864 174.727 65.3057 180.499 64.9622 180.511Z" fill="black"/>
<path d="M90.1262 180.816C89.7827 180.816 90.2121 175.179 88.7152 168.492C87.9913 165.161 86.9361 162.245 86.0405 160.183C85.1571 158.121 84.4577 156.913 84.5804 156.827C84.7031 156.73 85.6601 157.816 86.7398 159.841C87.8318 161.855 89.0342 164.82 89.7949 168.248C91.3286 175.142 90.3839 180.865 90.1262 180.804V180.816Z" fill="black"/>
<path d="M92.1988 180.511C91.8553 180.511 92.297 174.727 90.7633 167.87C90.0149 164.453 88.9351 161.452 88.0149 159.353C87.107 157.242 86.3831 155.998 86.5058 155.912C86.6285 155.815 87.5978 156.937 88.7143 159.011C89.8308 161.086 91.07 164.124 91.843 167.638C93.4135 174.703 92.4565 180.572 92.1988 180.511Z" fill="black"/>
<path d="M77.9529 158.425C78.0266 158.547 77.4744 159.096 76.3211 159.658C75.7444 159.902 74.996 160.256 73.9654 160.06C73.4501 159.963 72.8979 159.56 72.6525 159.023C72.4072 158.486 72.3703 157.925 72.444 157.4C72.5298 156.864 72.7016 156.363 73.0084 155.912C73.1679 155.692 73.3642 155.473 73.6586 155.302C73.8059 155.228 73.9899 155.155 74.1985 155.155C74.3703 155.155 74.4562 155.18 74.5788 155.192C75.4868 155.363 76.1493 155.717 76.7015 156.022C77.7812 156.668 78.3333 157.217 78.2474 157.339C78.1615 157.474 77.4744 157.144 76.3579 156.717C75.8058 156.51 75.131 156.253 74.4439 156.192C74.0881 155.997 73.6464 156.778 73.5359 157.547C73.4869 157.925 73.5114 158.303 73.6341 158.572C73.7568 158.84 73.9408 158.999 74.2108 159.084C74.7752 159.255 75.4991 159.084 76.0389 158.938C77.1554 158.596 77.8671 158.279 77.9407 158.425H77.9529Z" fill="black"/>
<path d="M79.3272 158.425C79.413 158.279 80.1124 158.596 81.2289 158.938C81.7688 159.084 82.4927 159.255 83.0571 159.084C83.327 158.999 83.5233 158.84 83.6337 158.572C83.7564 158.303 83.781 157.925 83.7319 157.547C83.6215 156.79 83.1798 155.997 82.824 156.192C82.1246 156.266 81.4498 156.522 80.9099 156.717C79.8057 157.144 79.1063 157.474 79.0204 157.339C78.9345 157.217 79.4867 156.656 80.5664 156.022C81.1185 155.717 81.7811 155.351 82.689 155.192C82.8117 155.18 82.8976 155.155 83.0693 155.155C83.2779 155.155 83.462 155.228 83.6092 155.302C83.9037 155.46 84.1 155.68 84.2595 155.912C84.5662 156.363 84.738 156.864 84.8239 157.4C84.8975 157.937 84.873 158.499 84.6153 159.023C84.3822 159.56 83.8178 159.963 83.3025 160.06C82.2718 160.243 81.5234 159.902 80.9467 159.658C79.7934 159.096 79.2535 158.535 79.3149 158.425H79.3272Z" fill="black"/>
<path d="M76.7289 165.515C76.4345 165.503 76.2627 163.856 76.6921 161.867C77.097 159.89 77.9804 158.438 78.2626 158.572C78.5325 158.694 78.1522 160.207 77.7718 162.098C77.3669 163.978 77.0479 165.527 76.7289 165.515Z" fill="black"/>
<path d="M80.4833 162.928C80.1889 163.013 79.6245 161.989 79.1582 160.659C78.692 159.316 78.5079 158.157 78.8024 158.047C79.0846 157.937 79.7349 158.938 80.2011 160.292C80.6796 161.647 80.7778 162.843 80.4833 162.928Z" fill="black"/>
<path d="M79.7705 157.95C79.7705 158.536 79.292 159 78.7153 159C78.1387 159 77.6602 158.524 77.6602 157.95C77.6602 157.377 78.1387 156.889 78.7153 156.889C79.292 156.889 79.7705 157.365 79.7705 157.95Z" fill="black"/>
</g>
</g>
</g>
<defs>
<clipPath id="clip0_461_9866">
<rect width="160" height="160" fill="white"/>
</clipPath>
<clipPath id="clip1_461_9866">
<rect width="157" height="153" fill="white" transform="translate(1 29)"/>
</clipPath>
</defs>
</svg>
