<svg width="190" height="180" viewBox="0 0 190 180" fill="none" xmlns="http://www.w3.org/2000/svg">
<path d="M175 80C175 96.8527 169.784 112.495 160.882 125.391C160.015 126.645 159.111 127.88 158.171 129.082C143.537 147.895 120.682 159.996 95 159.996C76.1829 159.996 58.8743 153.494 45.2203 142.615C43.7037 141.409 42.2273 140.146 40.8035 138.835C24.939 124.225 15 103.27 15 80C15 35.8191 50.8151 0 95 0C139.185 0 175 35.8191 175 80Z" fill="#CDCDCD"/>
<g clip-path="url(#clip0_461_9721)">
<mask id="mask0_461_9721" style="mask-type:alpha" maskUnits="userSpaceOnUse" x="15" y="0" width="160" height="160">
<path d="M175 80C175 96.8527 169.784 112.495 160.882 125.391C160.015 126.645 159.111 127.88 158.171 129.082C143.537 147.895 120.682 159.996 95 159.996C76.1829 159.996 58.8743 153.494 45.2203 142.615C43.7037 141.409 42.2273 140.146 40.8035 138.835C24.939 124.225 15 103.27 15 80C15 35.8191 50.8151 0 95 0C139.185 0 175 35.8191 175 80Z" fill="#CDCDCD"/>
</mask>
<g mask="url(#mask0_461_9721)">
<path d="M155.389 79.7319C155.389 112.841 128.492 139.69 95.3322 139.69C62.1729 139.69 35.2617 112.841 35.2617 79.7319C35.2617 46.6226 62.1447 19.7734 95.3181 19.7734C128.492 19.7734 155.375 46.6226 155.375 79.7319H155.389Z" fill="#FDD7BA"/>
<path d="M61.3104 86.7259C61.9451 89.7782 59.3499 92.9012 55.5417 93.6784C51.7336 94.4556 48.1229 92.6186 47.5023 89.5663C46.8817 86.5139 49.4628 83.391 53.2709 82.6137C57.0791 81.8365 60.6898 83.6736 61.3104 86.7259Z" fill="#F9BAAC"/>
<path d="M128.772 86.7259C128.151 89.7782 130.732 92.9012 134.54 93.6784C138.349 94.4556 141.959 92.6186 142.58 89.5663C143.215 86.5139 140.619 83.391 136.811 82.6137C133.003 81.8365 129.392 83.6736 128.772 86.7259Z" fill="#F9BAAC"/>
<path d="M95.0622 18.7275C95.0622 18.7275 79.0679 11.4075 59.2089 23.0657C59.2089 23.0657 38.1652 27.5453 28.0665 67.5788L20.0693 96.6607C20.0693 96.6607 15.9508 117.744 0.675781 123.397C0.675781 123.397 3.03121 141.654 26.656 151.193C26.656 151.193 31.8888 145.102 33.1581 139.845C33.1581 139.845 38.6448 151.08 35.9508 156.732C35.9508 156.732 48.6024 168.56 64.2583 169.888L65.57 157.198L66.7407 154.019L74.1455 150.02L75.0058 150.825L83.0876 148.96L86.6137 138.955L70.5065 133.896C70.5065 133.896 50.168 125.531 42.5376 107.16C42.5376 107.16 31.8464 85.9634 36.656 68.893C36.656 68.893 56.8253 46.1984 94.8648 42.0014C94.8648 42.0014 129.378 42.8634 154.244 70.2496C154.244 70.2496 158.419 96.5759 142.552 115.059C142.552 115.059 131.028 135.79 101.762 138.729L105.641 148.027L109.576 149.073L117.925 151.56L125.499 156.153L126.205 169.818C126.205 169.818 141.014 168.518 153.708 156.859C153.708 156.859 150.605 150.656 156.557 139.86C156.557 139.86 158.969 147.123 163.045 150.811L163.934 150.967C163.934 150.967 185.556 141.541 188.856 123.524C188.856 123.524 178.631 119.751 174.512 108.573C174.512 108.573 162.876 82.4306 162.876 73.1323C162.876 73.1323 153.356 36.1511 138.193 27.9127C138.193 27.9127 118.574 11.1108 95.0622 18.7416V18.7275Z" fill="#623D19"/>
<path d="M86.3738 138.998L83.2003 149.243L75.2031 150.896C75.2031 150.896 82.8477 158.852 88.0663 160.548C93.2849 162.243 103.525 163.134 103.525 163.134C103.525 163.134 110.281 150.656 109.815 149.115L105.753 148.465C105.753 148.465 102.058 140.283 101.931 138.983H86.3597L86.3738 138.998Z" fill="#FDD7BA"/>
<path d="M117.94 151.546L125.331 155.898V160.138L114.344 162.384V161.254L117.94 151.546Z" fill="#FDD7BA"/>
<path d="M64.543 184.867L64.8956 156.251C64.8956 156.251 68.5063 150.599 73.6262 149.808C73.6262 149.808 82.2581 161.381 97.1664 162.794C112.075 164.207 120.834 161.353 125.615 160.039L125.996 184.782C125.996 184.782 118.817 188.612 115.657 189.516L75.6572 189.544C75.6572 189.544 66.4047 186.28 64.543 184.867Z" fill="#EA7AED"/>
<path d="M103.273 162.921L108.534 154.047L110.213 148.395L117.434 151.136L114.345 162.384C114.345 162.384 108.154 163.586 103.273 162.921Z" fill="white"/>
<path d="M86.6575 26.8386C86.6575 26.8386 96.7703 24.6059 106.404 27.1919C116.037 29.7779 123.921 30.8377 131.904 35.6706L135.727 38.6099L135.43 36.9565C135.43 36.9565 123.978 26.0614 108.28 22.8819C108.28 22.8819 91.2837 21.2427 86.2344 22.4438L86.6434 26.8245L86.6575 26.8386Z" fill="#AC5BB2"/>
<path d="M60.3393 36.0805L45.7695 46.6224C45.7695 46.6224 53.668 35.1055 59.2392 32.7314L60.3393 36.0805Z" fill="#AC5BB2"/>
<path d="M76.347 28.0113C76.347 29.6929 74.9789 31.0636 73.3005 31.0636C71.622 31.0636 70.2539 29.6929 70.2539 28.0113C70.2539 26.3297 71.622 24.959 73.3005 24.959C74.9789 24.959 76.347 26.3297 76.347 28.0113Z" fill="#EA7AED"/>
<path d="M74.7656 24.7473L84.5117 20.5928C84.5117 20.5928 86.712 26.4713 86.712 26.5985C86.712 26.7257 86.5428 29.9617 86.5428 29.9617C86.5428 29.9617 77.7699 29.5237 75.8799 28.9443L74.7797 24.7473H74.7656Z" fill="#EA7AED"/>
<path d="M74.7656 24.7473L84.5117 20.5928C84.5117 20.5928 86.712 26.4713 86.712 26.5985C86.712 26.7257 86.5428 29.9617 86.5428 29.9617C86.5428 29.9617 77.7699 29.5237 75.8799 28.9443L74.7797 24.7473H74.7656Z" fill="#EA7AED"/>
<path d="M69.3072 26.8809C69.1238 26.8668 58.9405 29.9898 59.3354 30.1735C59.7303 30.343 60.6189 35.8259 60.9715 35.9107C61.3241 35.9955 63.877 38.0728 64.0604 38.0728C64.2437 38.0728 71.0985 30.8942 71.0985 30.8942L69.3072 26.8809Z" fill="#EA7AED"/>
<path d="M75.6718 152.196C75.6718 153.496 74.614 154.556 73.3164 154.556C72.0188 154.556 70.9609 153.496 70.9609 152.196C70.9609 150.896 72.0188 149.836 73.3164 149.836C74.614 149.836 75.6718 150.896 75.6718 152.196Z" fill="white"/>
<path d="M80.6051 159.19C80.6051 160.095 79.8717 160.844 78.9549 160.844C78.0381 160.844 77.3047 160.109 77.3047 159.19C77.3047 158.272 78.0381 157.537 78.9549 157.537C79.8717 157.537 80.6051 158.272 80.6051 159.19Z" fill="white"/>
<path d="M85.2462 27.8139C84.6397 27.8139 84.1602 28.3085 84.1602 28.902C84.1602 29.326 84.414 29.6792 84.7525 29.863C84.7808 29.863 84.809 29.863 84.8231 29.863C85.0628 29.863 85.2603 29.8912 85.4578 29.9053C85.5142 29.9053 85.5706 29.9053 85.627 29.9053C86.036 29.7499 86.3322 29.3542 86.3322 28.8879C86.3322 28.2803 85.8527 27.7998 85.2462 27.7998V27.8139Z" fill="white"/>
<path d="M83.4572 28.4494C83.4572 29.0571 82.9777 29.5375 82.3712 29.5375C81.7647 29.5375 81.2852 29.0429 81.2852 28.4494C81.2852 27.8559 81.7788 27.3613 82.3712 27.3613C82.9636 27.3613 83.4572 27.8559 83.4572 28.4494Z" fill="white"/>
<path d="M80.8752 26.5705C80.8752 27.1782 80.3957 27.6586 79.7892 27.6586C79.1827 27.6586 78.7031 27.164 78.7031 26.5705C78.7031 25.977 79.1968 25.4824 79.7892 25.4824C80.3815 25.4824 80.8752 25.977 80.8752 26.5705Z" fill="white"/>
<path d="M78.5195 29.3684C78.5054 28.7891 78.0259 28.3086 77.4335 28.3086C76.9539 28.3086 76.559 28.6336 76.418 29.0717C76.9539 29.1706 77.6874 29.2695 78.5195 29.3684Z" fill="white"/>
<path d="M84.965 24.634C84.965 25.2416 84.4855 25.7221 83.879 25.7221C83.2725 25.7221 82.793 25.2275 82.793 24.634C82.793 24.0405 83.2866 23.5459 83.879 23.5459C84.4714 23.5459 84.965 24.0405 84.965 24.634Z" fill="white"/>
<path d="M77.1368 25.7783C77.7433 25.7783 78.2229 25.2837 78.2229 24.6902C78.2229 24.1674 77.842 23.7434 77.3484 23.6445L76.2341 24.125C76.1213 24.2946 76.0508 24.4783 76.0508 24.6902C76.0508 25.2979 76.5444 25.7783 77.1368 25.7783Z" fill="white"/>
<path d="M81.4945 23.1216C82.101 23.1216 82.5805 22.627 82.5805 22.0335C82.5805 21.8357 82.51 21.652 82.4112 21.4824L80.4648 22.3162C80.5918 22.7825 81.0008 23.1216 81.4945 23.1216Z" fill="white"/>
<path d="M74.8244 29.4807C74.8244 30.0883 74.3449 30.5688 73.7384 30.5688C73.1319 30.5688 72.6523 30.0742 72.6523 29.4807C72.6523 28.8872 73.146 28.3926 73.7384 28.3926C74.3308 28.3926 74.8244 28.8872 74.8244 29.4807Z" fill="white"/>
<path d="M75.6682 26.1184C75.2169 25.5531 74.5681 25.1575 73.8346 25.0303C73.7782 25.1575 73.75 25.3129 73.75 25.4683C73.75 26.076 74.2437 26.5564 74.836 26.5564C75.1886 26.5564 75.4848 26.3869 75.6823 26.1184H75.6682Z" fill="white"/>
<path d="M73.6408 27.0783C73.6408 27.686 73.1613 28.1664 72.5548 28.1664C71.9483 28.1664 71.4688 27.6718 71.4688 27.0783C71.4688 26.4848 71.9624 25.9902 72.5548 25.9902C73.1472 25.9902 73.6408 26.4848 73.6408 27.0783Z" fill="white"/>
<path d="M69.2384 30.7812C68.6319 30.7812 68.1523 31.2758 68.1523 31.8693C68.1523 32.4346 68.5896 32.8868 69.1397 32.9433C69.5769 32.477 69.9859 32.0672 70.2962 31.728C70.2257 31.1911 69.7885 30.7812 69.2384 30.7812Z" fill="white"/>
<path d="M64.6838 31.7844C64.6838 32.392 64.2042 32.8725 63.5978 32.8725C62.9913 32.8725 62.5117 32.3779 62.5117 31.7844C62.5117 31.1909 63.0054 30.6963 63.5978 30.6963C64.1901 30.6963 64.6838 31.1909 64.6838 31.7844Z" fill="white"/>
<path d="M67.0393 28.7465C67.0393 28.2943 66.7713 27.9127 66.3764 27.7432C65.9532 27.8703 65.516 28.0117 65.0646 28.153C64.9518 28.3225 64.8672 28.5204 64.8672 28.7465C64.8672 29.3541 65.3608 29.8346 65.9532 29.8346C66.5456 29.8346 67.0393 29.34 67.0393 28.7465Z" fill="white"/>
<path d="M65.2033 36.1936C65.2033 36.8012 64.7238 37.2817 64.1173 37.2817C63.5108 37.2817 63.0312 36.7871 63.0312 36.1936C63.0312 35.6001 63.5249 35.1055 64.1173 35.1055C64.7097 35.1055 65.2033 35.6001 65.2033 36.1936Z" fill="white"/>
<path d="M60.5351 32.3779C60.3517 32.3779 60.1825 32.4345 60.0273 32.5192C60.1825 33.2117 60.3376 33.9465 60.4928 34.5541C60.4928 34.5541 60.521 34.5541 60.5351 34.5541C61.1416 34.5541 61.6211 34.0595 61.6211 33.466C61.6211 32.8725 61.1416 32.3779 60.5351 32.3779Z" fill="white"/>
<path d="M67.6174 32.8723C67.6174 33.4799 67.1378 33.9604 66.5313 33.9604C65.9249 33.9604 65.4453 33.4658 65.4453 32.8723C65.4453 32.2788 65.939 31.7842 66.5313 31.7842C67.1237 31.7842 67.6174 32.2788 67.6174 32.8723Z" fill="white"/>
<path d="M61.1017 30.8661C61.7082 30.8661 62.1877 30.3715 62.1877 29.778C62.1877 29.5378 62.1031 29.3258 61.962 29.1562C61.1722 29.4247 60.4952 29.6508 60.0156 29.8345C60.0438 30.4139 60.5093 30.8661 61.0876 30.8661H61.1017Z" fill="white"/>
<path d="M68.2106 157.849C68.2106 158.753 67.4771 159.502 66.5604 159.502C65.6436 159.502 64.9102 158.767 64.9102 157.849C64.9102 156.93 65.6436 156.195 66.5604 156.195C67.4771 156.195 68.2106 156.93 68.2106 157.849Z" fill="white"/>
<path d="M54.5822 88.0264C54.7515 88.0264 54.7938 89.821 55.3016 92.9864C55.8234 96.1376 56.8671 100.702 59.4765 105.747C62.0576 110.777 66.2889 116.26 72.4384 120.514C78.5315 124.781 86.571 127.636 95.1746 127.622C103.778 127.65 111.818 124.781 117.911 120.514C124.06 116.26 128.292 110.777 130.873 105.747C133.482 100.688 134.526 96.1235 135.048 92.9864C135.541 89.821 135.598 88.0264 135.767 88.0264C135.894 88.0264 136.12 89.821 135.866 93.0853C135.598 96.3213 134.751 101.084 132.213 106.411C129.716 111.71 125.414 117.56 119.025 122.111C112.706 126.675 104.23 129.77 95.1746 129.741C86.1196 129.77 77.6429 126.675 71.3241 122.111C64.9348 117.56 60.633 111.71 58.1365 106.411C55.5978 101.084 54.7656 96.3213 54.4835 93.0853C54.2296 89.821 54.4694 88.0264 54.5822 88.0264Z" fill="black"/>
<path d="M94.0601 73.4574C94.0601 77.0467 93.1715 79.9577 92.0855 79.9577C90.9995 79.9577 90.125 77.0467 90.125 73.4574C90.125 69.868 90.9995 66.957 92.0855 66.957C93.1715 66.957 94.0601 69.868 94.0601 73.4574Z" fill="black"/>
<path d="M100.212 73.4574C100.212 77.0467 99.338 79.9577 98.2379 79.9577C97.1377 79.9577 96.2773 77.0467 96.2773 73.4574C96.2773 69.868 97.1518 66.957 98.2379 66.957C99.3239 66.957 100.212 69.868 100.212 73.4574Z" fill="black"/>
<path d="M42.9204 50.7344C43.1037 50.8192 41.3407 53.8574 39.3802 59.7784C37.4761 65.6711 35.4592 74.7008 36.7144 85.7797C37.335 91.2908 38.8019 97.24 41.4535 103.189C44.091 109.138 47.9274 115.045 52.9909 120.302C58.0544 125.559 64.3731 130.123 71.6228 133.317C78.8724 136.525 87.0388 138.333 95.4592 138.319C103.865 138.319 112.046 136.496 119.281 133.274C126.531 130.053 132.836 125.474 137.885 120.217C142.949 114.946 146.771 109.025 149.394 103.09C152.032 97.1411 153.485 91.1778 154.105 85.6666C155.276 74.5878 153.499 65.5297 151.595 59.6371C149.662 53.702 147.857 50.692 148.04 50.6073C148.111 50.5507 150.17 53.4335 152.384 59.3686C154.556 65.2754 156.602 74.4606 155.6 85.8221C155.064 91.4745 153.668 97.6357 151.016 103.783C148.393 109.944 144.5 116.091 139.31 121.56C134.133 127.028 127.631 131.805 120.142 135.168C112.666 138.531 104.19 140.439 95.4733 140.439C86.7709 140.453 78.2941 138.574 70.8047 135.225C63.3012 131.89 56.785 127.113 51.6087 121.659C46.4183 116.19 42.5113 110.057 39.8597 103.91C37.2081 97.7629 35.7695 91.6017 35.2335 85.9492C34.1333 74.5737 36.4324 65.4026 38.6044 59.524C40.8329 53.6031 42.8357 50.692 42.9204 50.7486V50.7344Z" fill="black"/>
<path d="M86.5999 139.379C86.8256 139.422 86.882 140.481 86.6281 142.177C86.3602 143.859 85.796 146.19 84.4561 148.564C84.2868 148.861 84.1317 149.116 83.8778 149.441L83.6944 149.695L83.3841 149.752C78.8002 150.557 75.2741 151.292 75.1331 150.882C74.992 150.458 78.4335 149.003 83.0597 148.098L82.5661 148.395C82.693 148.225 82.8623 147.957 83.0033 147.717C84.2022 145.625 84.9215 143.449 85.4716 141.895C86.0076 140.326 86.3743 139.337 86.614 139.379H86.5999Z" fill="black"/>
<path d="M102.075 139.591C102.583 139.45 103.415 142.375 105.079 145.385C105.432 146.006 105.813 146.558 106.208 147.01C106.56 147.448 107.096 147.815 107.28 147.9H107.237H107.336C108.845 148.366 109.776 148.833 109.72 149.101C109.663 149.37 108.634 149.37 107.068 149.214H107.124C106.194 149.073 105.672 148.649 105.065 148.126C104.501 147.589 104.022 146.939 103.612 146.232C102.639 144.523 102.202 142.855 102.005 141.64C101.807 140.425 101.864 139.647 102.075 139.591Z" fill="black"/>
<path d="M118.067 151.589C118.109 151.476 118.984 151.645 120.45 152.21C121.889 152.818 124.061 153.68 126.12 155.8L126.261 155.941V156.195C126.642 160.435 126.938 165.847 127.037 171.782C127.122 176.643 127.037 181.179 126.811 185.009L126.783 185.405L126.487 185.574C120.436 189.107 115.81 189.813 115.768 189.559C115.655 189.234 120.084 188.005 125.711 184.373L125.387 184.952C125.443 181.165 125.415 176.643 125.345 171.81L124.978 156.28L125.133 156.676C123.469 154.726 121.438 153.652 120.126 152.889C118.786 152.14 117.996 151.73 118.053 151.603L118.067 151.589Z" fill="black"/>
<path d="M154.373 70.2776C154.134 70.5179 150.932 67.2394 145.135 62.7457C139.366 58.252 130.819 52.7126 120.41 48.7135C111.073 45.096 101.947 43.2306 94.994 42.835L94.3452 42.7926L94.2183 42.2273C93.1887 37.8608 93.2733 34.1867 93.499 31.6996C93.7387 29.1984 94.2042 27.856 94.3452 27.8842C94.5145 27.9125 94.3593 29.2832 94.3875 31.7279C94.4298 34.1585 94.6132 37.7054 95.7698 41.8034L94.994 41.2099C102.286 41.2947 111.595 43.0045 121.172 46.7069C131.821 50.8049 140.467 56.6976 146.08 61.5587C151.722 66.434 154.557 70.0939 154.373 70.2494V70.2776Z" fill="black"/>
<path d="M36.4867 69.3733C36.3033 69.2038 38.6164 66.2504 43.1157 62.2371C47.6009 58.2239 54.4133 53.2497 62.7772 49.3212C71.127 45.3645 79.2934 43.259 85.2596 42.3829C91.2399 41.4926 95.0057 41.747 94.9916 42.0437C94.9916 42.3405 91.3245 42.609 85.5276 43.8666C79.7448 45.1102 71.8463 47.3853 63.6799 51.2572C55.5135 55.0868 48.7293 59.75 44.0748 63.41C39.4063 67.07 36.7265 69.6277 36.4867 69.4016V69.3733Z" fill="black"/>
<path d="M148.038 50.5929C147.813 50.7766 145.415 47.7667 140.789 43.7252C136.191 39.6837 129.139 34.7802 120.394 31.4735C111.663 28.1244 103.158 27.0222 97.037 26.782C90.8875 26.5276 87.0793 26.9939 87.0511 26.7254C87.0088 26.5417 90.8029 25.6373 97.0511 25.5808C103.271 25.5102 112.03 26.4428 121 29.8908C129.985 33.2682 137.136 38.4967 141.607 42.8349C146.12 47.1873 148.194 50.494 148.053 50.5929H148.038Z" fill="black"/>
<path d="M60.9446 35.8826C61.2126 36.3206 56.8261 39.2175 51.7908 43.1742C46.7415 47.1168 43.3 51.017 42.9192 50.7344C42.5384 50.48 45.5285 45.9157 50.733 41.8459C55.9093 37.7761 60.7189 35.5151 60.9305 35.8826H60.9446Z" fill="black"/>
<path d="M148.04 50.5931C147.828 50.7627 145.289 47.6397 140.861 42.9623C136.432 38.3414 129.845 32.152 120.987 28.0257C112.158 23.8429 103.188 22.7548 96.8126 22.4863C90.381 22.2178 86.4035 22.7689 86.3753 22.4863C86.333 22.3026 90.2964 21.3275 96.8267 21.2852C100.099 21.2852 103.992 21.483 108.265 22.2461C112.525 23.0092 117.165 24.3375 121.707 26.4854C130.861 30.753 137.49 37.2675 141.735 42.1427C145.995 47.0745 148.195 50.4518 148.04 50.579V50.5931Z" fill="black"/>
<path d="M59.3666 32.7739C59.6205 33.1555 55.2622 36.4904 50.5655 41.3091C48.21 43.7114 46.2636 46.0148 44.9942 47.7953C43.7248 49.5617 43.1607 50.8052 42.9209 50.7346C42.7093 50.6781 42.8927 49.2226 43.9787 47.1735C45.0365 45.1387 46.9406 42.5951 49.3525 40.1221C54.1903 35.1621 59.1127 32.3641 59.3525 32.7739H59.3666Z" fill="black"/>
<path d="M76.32 27.6585C76.0097 27.7009 75.8404 26.4149 74.5005 25.666C73.8658 25.3127 72.9631 25.1996 72.1451 25.5812C71.3411 25.9345 70.7064 26.8247 70.7487 27.828C70.777 28.8172 71.454 29.6792 72.272 29.9901C72.3708 30.0325 72.4836 30.0608 72.5823 30.089C72.6952 30.1031 72.7093 30.1314 72.8785 30.1455H73.1042C73.1042 30.1455 73.1888 30.1597 73.217 30.1597C73.3298 30.1597 73.4286 30.1597 73.5273 30.1455C73.9363 30.1031 74.3031 29.9477 74.6133 29.764C75.911 28.9444 76.0097 27.6443 76.32 27.6726C76.4469 27.6726 76.6444 27.9411 76.6444 28.577C76.6444 29.1705 76.4046 30.1173 75.5583 30.9369C74.7121 31.7424 73.2734 32.3217 71.6655 31.8554C70.1141 31.4315 68.6754 29.8347 68.6472 27.8987C68.5767 25.9627 69.9166 24.2811 71.4399 23.7865C72.9772 23.2354 74.5146 23.7159 75.375 24.479C76.2636 25.242 76.5597 26.1747 76.588 26.7682C76.6162 27.3758 76.4469 27.6867 76.32 27.6867V27.6585Z" fill="black"/>
<path d="M76.2327 29.142C76.3032 28.9018 77.4174 29.029 79.2651 29.2127C80.1819 29.2974 81.2961 29.3964 82.5232 29.4105C83.1297 29.4105 83.7785 29.3822 84.4273 29.3116C84.7517 29.2692 85.0761 29.2127 85.3864 29.142C85.6685 29.0855 86.0775 28.9442 86.148 28.8876L85.6685 29.5377C85.9506 28.1387 86.0775 26.6125 85.7954 25.1429C85.6544 24.4081 85.4146 23.7298 85.0902 23.1221C84.7799 22.5428 84.2863 21.9493 83.9196 21.6666L84.2863 21.8079C84.1875 21.7938 83.7644 21.7938 83.4823 21.8362C83.1579 21.8786 82.8335 21.9351 82.5232 22.0058C81.8885 22.1471 81.2679 22.3449 80.7038 22.5569C79.5472 22.9808 78.5458 23.4472 77.7136 23.857C76.0493 24.6624 75.0338 25.1712 74.8928 24.9733C74.7658 24.7896 75.5133 23.9417 77.0648 22.783C77.8406 22.2177 78.8279 21.5818 80.0267 20.9883C80.6332 20.6916 81.2961 20.4231 82.0296 20.1829C82.3963 20.0698 82.7912 19.9709 83.2002 19.9002C83.6516 19.8437 83.976 19.7589 84.653 19.8296H84.8504L85.0197 19.9709C86.6417 21.1438 87.5021 22.8395 87.8829 24.7331C88.2355 26.6125 88.0239 28.4213 87.629 29.9757L87.5162 30.4421L87.1636 30.6116C86.5571 30.9084 86.2186 30.9508 85.7813 31.0356C85.3723 31.1062 84.9774 31.1486 84.5825 31.1628C83.8067 31.2052 83.1015 31.1628 82.4245 31.0921C81.0846 30.9508 79.9562 30.6823 79.0253 30.4138C77.1777 29.8627 76.1763 29.3257 76.2327 29.0996V29.142Z" fill="black"/>
<path d="M71.2144 30.9503C71.3978 31.0775 71.0169 32.1515 70.0014 33.7907C69.4937 34.6103 68.8167 35.5571 67.914 36.5604C67.4626 37.055 66.9549 37.5637 66.3484 38.0442C66.0522 38.2844 65.7278 38.5246 65.3752 38.7366C64.9803 38.9627 64.6982 39.1605 64.0494 39.3442L63.6686 39.4573L63.2736 39.1888C61.9337 38.2844 60.5797 37.0832 59.5924 35.444C58.6192 33.7766 58.1255 31.9395 58.5628 29.9894L58.6051 29.7775L58.732 29.6361C59.1834 29.1415 59.4796 28.972 59.8604 28.7176C60.213 28.4915 60.5656 28.3078 60.9182 28.1524C61.6234 27.8274 62.3004 27.6013 62.9492 27.4176C64.2468 27.0501 65.3893 26.8806 66.3484 26.7816C68.2666 26.5979 69.3949 26.7393 69.4231 26.9654C69.4514 27.2056 68.3653 27.5023 66.5882 28.0252C65.6996 28.2796 64.6418 28.6046 63.4993 29.0568C62.9351 29.2829 62.3428 29.5514 61.7645 29.8622C61.4824 30.0177 61.2003 30.1873 60.9323 30.371C60.6925 30.5264 60.3681 30.809 60.3117 30.8938L60.4951 30.5405C60.4105 30.9927 60.4387 31.7558 60.5938 32.4058C60.749 33.07 61.0169 33.7483 61.4119 34.3842C62.1735 35.6701 63.2877 36.7158 64.4302 37.5778L63.6545 37.4083C63.7532 37.3941 64.1481 37.2246 64.402 37.0832C64.6841 36.9278 64.9662 36.7582 65.2341 36.5604C65.7701 36.193 66.2638 35.7832 66.7292 35.3734C67.646 34.5538 68.3935 33.7342 69.0282 33.0559C70.2835 31.6852 71.031 30.8514 71.2426 30.9786L71.2144 30.9503Z" fill="black"/>
<path d="M156.7 139.888C156.799 139.846 157.236 140.99 158.209 143.039C158.703 144.057 159.324 145.314 160.198 146.699C161.058 148.042 162.173 149.681 163.696 150.882L163.188 150.84C167.307 148.805 172.328 146.007 177.236 141.683C179.676 139.521 182.074 136.963 184.063 133.91C185.064 132.384 185.953 130.745 186.672 128.979C187.377 127.241 187.955 125.291 188.097 123.482L188.689 124.372C184.909 122.973 181.453 120.359 178.717 117.08C175.953 113.802 173.809 109.944 172.003 105.874C168.407 97.7065 166.051 88.6767 163.583 79.4632C161.721 72.4401 159.916 65.6006 157.744 59.1427C155.586 52.6989 153.061 46.6225 149.817 41.3516C148.195 38.7232 146.39 36.3067 144.401 34.1871C142.427 32.0533 140.17 30.3151 137.955 28.6477C133.513 25.3551 129.027 22.7691 124.711 20.9462C116.051 17.2297 108.238 16.6927 103.033 17.1732C97.7721 17.6395 95.0359 18.8548 94.9935 18.6993C94.923 18.5863 97.6029 17.0884 102.948 16.3536C108.238 15.6046 116.319 15.9155 125.29 19.5613C129.761 21.356 134.415 23.9279 138.999 27.2345C141.27 28.8879 143.64 30.6825 145.755 32.9011C147.871 35.1056 149.789 37.6068 151.482 40.32C154.895 45.7463 157.504 51.9499 159.719 58.4785C161.933 65.0071 163.766 71.8889 165.642 78.9121C168.111 88.1256 170.438 97.0706 173.893 105.041C175.628 109.011 177.673 112.714 180.226 115.809C182.779 118.903 185.91 121.306 189.352 122.634L190.001 122.888L189.944 123.524C189.747 125.827 189.098 127.749 188.308 129.657C187.518 131.522 186.531 133.246 185.459 134.843C183.301 138.023 180.762 140.623 178.209 142.799C173.047 147.151 167.871 149.836 163.625 151.758L163.329 151.899L163.118 151.73C161.326 150.218 160.367 148.55 159.507 147.095C158.689 145.625 158.125 144.311 157.716 143.251C156.898 141.103 156.63 139.902 156.714 139.874L156.7 139.888Z" fill="black"/>
<path d="M126.346 169.846C126.304 169.521 128.984 169.054 133.102 167.726C137.207 166.398 142.735 164.024 148.067 160.166C149.985 158.781 151.805 157.283 153.243 155.814L153.074 156.902C151.988 154.259 152.185 151.673 152.538 149.553C152.919 147.406 153.553 145.611 154.16 144.169C155.387 141.287 156.501 139.775 156.699 139.888C156.924 140.001 156.219 141.682 155.359 144.593C154.936 146.049 154.484 147.815 154.245 149.808C154.019 151.786 154.005 154.075 154.907 156.082L155.19 156.69L154.738 157.17C153.13 158.894 151.311 160.42 149.294 161.876C143.723 165.903 137.841 168.164 133.497 169.153C129.139 170.157 126.36 170.086 126.332 169.832L126.346 169.846Z" fill="black"/>
<path d="M94.5824 20.8332C94.5824 20.8332 94.4555 20.056 94.794 18.657L94.9068 18.9114C92.6501 18.0776 88.1931 16.9047 82.0577 17.1026C75.9505 17.2722 68.179 19.0527 60.21 23.4192C56.2326 25.5813 52.1988 28.3368 48.2777 31.6294C44.4272 34.9219 41.1832 39.2743 38.5175 44.2061C33.1579 54.112 29.9562 66.0528 26.6557 78.4317C24.1311 87.8431 21.7615 97.0707 18.1508 105.436C16.3313 109.605 14.1875 113.548 11.3948 116.911C8.63035 120.274 5.11837 122.945 1.26787 124.372L1.86026 123.496C1.9872 125.305 2.57958 127.269 3.2848 129.007C4.00412 130.773 4.9068 132.413 5.90821 133.939C7.91103 136.991 10.3088 139.549 12.7488 141.711C17.6572 146.021 22.6783 148.819 26.7968 150.854L26.289 150.896C27.8123 149.709 28.9265 148.056 29.7869 146.713C30.6473 145.329 31.282 144.071 31.7615 143.053C32.7347 141.004 33.1579 139.86 33.2707 139.902C33.3412 139.93 33.0873 141.117 32.2693 143.28C31.8461 144.353 31.2961 145.654 30.478 147.123C29.6177 148.579 28.6727 150.232 26.8673 151.744L26.6557 151.914L26.3596 151.772C22.1141 149.85 16.9237 147.151 11.7756 142.813C9.22274 140.637 6.68395 138.023 4.52598 134.857C3.45405 133.275 2.48085 131.551 1.6769 129.671C0.901159 127.778 0.238254 125.842 0.0407925 123.538L-0.015625 122.902L0.633176 122.662C4.14516 121.306 7.33275 118.847 9.89975 115.667C12.495 112.488 14.5401 108.686 16.289 104.617C19.7587 96.4631 22.1 87.2919 24.6247 77.8806C27.9251 65.4876 31.1973 53.4196 36.7827 43.2452C39.5612 38.1862 43.0027 33.6501 47.093 30.2304C51.1691 26.8813 55.3158 24.1399 59.4484 21.9778C67.6995 17.6254 75.7672 15.9721 82.0436 16.0004C88.3624 16.0004 92.8335 17.4135 95.0901 18.5157L95.2594 18.6005L95.203 18.7701C94.7516 20.0984 94.667 20.8332 94.5824 20.8332Z" fill="black"/>
<path d="M64.3864 169.93C64.3723 170.184 61.5514 170.297 57.1085 169.337C52.6939 168.39 46.6854 166.157 41.0013 162.101C38.8575 160.575 36.9393 158.978 35.2467 157.17L34.7954 156.689L35.0775 156.082C35.9943 154.075 35.9661 151.772 35.7545 149.793C35.5147 147.801 35.0634 146.034 34.6403 144.579C33.7799 141.682 33.0747 139.986 33.3003 139.873C33.4978 139.76 34.612 141.272 35.825 144.155C36.4315 145.596 37.0662 147.391 37.447 149.539C37.7996 151.658 38.0112 154.244 36.9111 156.901L36.7418 155.813C38.2651 157.367 40.1833 158.936 42.2143 160.377C47.6586 164.249 53.3003 166.595 57.4893 167.881C61.6924 169.181 64.4146 169.605 64.3864 169.93Z" fill="black"/>
<path d="M76.5147 189.926C76.5147 190.124 71.4936 189.658 64.385 185.56L64.1029 185.39L64.0747 185.009C63.6516 177.646 63.6234 167.613 64.2016 156.181V155.997L64.2863 155.828C65.1607 153.892 66.7404 152.521 68.3765 151.461C70.0549 150.401 71.818 149.61 73.7785 149.002L74.5119 148.776L74.9633 149.469C75.203 149.836 75.5415 150.274 75.8659 150.67C78.165 153.411 81.0423 155.602 84.0183 157.269C87.0084 158.951 90.1396 160.124 93.2143 160.915C99.3779 162.498 105.217 162.582 110.055 162.286C114.907 161.975 118.8 161.268 121.494 160.76C124.173 160.251 125.683 159.94 125.711 160.095C125.739 160.223 124.343 160.802 121.677 161.565C119.025 162.314 115.118 163.261 110.182 163.77C105.259 164.264 99.2369 164.349 92.7489 162.809C86.3314 161.268 79.3497 158.018 74.2298 152.027C73.849 151.56 73.5105 151.136 73.1579 150.585L74.3427 151.051C72.6643 151.56 70.9576 152.323 69.4908 153.228C68.038 154.146 66.7686 155.305 66.148 156.662L66.2327 156.308C65.5557 167.656 65.33 177.66 65.4146 184.966L65.1043 184.415C71.7334 188.669 76.5994 189.629 76.4865 189.94L76.5147 189.926Z" fill="black"/>
<path d="M71.8772 154.585C72.0465 154.457 73.8659 157.058 77.9562 159.94C81.9901 162.851 88.4217 165.72 95.9957 166.638C103.556 167.613 110.523 166.808 115.474 166.017C120.439 165.197 123.471 164.42 123.542 164.646C123.598 164.816 120.65 165.946 115.671 167.048C110.721 168.108 103.612 169.111 95.8123 168.108C91.9195 167.613 88.2806 166.624 85.1353 165.31C81.9901 163.996 79.3525 162.371 77.3356 160.788C73.2736 157.58 71.6939 154.669 71.8913 154.585H71.8772Z" fill="black"/>
<path d="M114.219 162.314C113.781 162.186 114.797 157.41 117.04 150.98L117.477 152.196C115.939 151.376 114.007 150.811 111.976 150.401C111.285 150.274 110.58 150.147 109.931 150.076L111.059 149.228C110.044 153.722 108.238 157.297 106.602 159.671C104.966 162.045 103.556 163.119 103.372 162.95C103.161 162.752 104.148 161.381 105.389 158.936C106.616 156.52 108.126 152.931 108.986 148.833L109.183 147.886L110.114 147.985C110.89 148.055 111.609 148.182 112.357 148.324C114.543 148.762 116.631 149.412 118.436 150.472L119.183 150.91L118.873 151.687C116.377 157.947 114.628 162.441 114.19 162.314H114.219Z" fill="black"/>
</g>
</g>
<defs>
<clipPath id="clip0_461_9721">
<rect width="190" height="175" fill="white" transform="translate(0 16)"/>
</clipPath>
</defs>
</svg>
