<svg width="160" height="160" viewBox="0 0 160 160" fill="none" xmlns="http://www.w3.org/2000/svg">
<path d="M160 80.002C160 94.8173 155.966 108.701 148.936 120.604C147.976 122.238 146.955 123.839 145.878 125.392C142.393 130.45 138.332 135.081 133.802 139.199C119.6 152.122 100.718 159.996 79.998 159.996C69.0387 159.996 58.5958 157.79 49.0886 153.8C40.6141 150.251 32.8898 145.285 26.1981 139.195C26.065 139.078 25.9359 138.957 25.8028 138.836C9.94276 124.222 0 103.268 0 79.998C0 35.8182 35.8141 0 79.998 0C124.182 0 159.996 35.8182 159.996 79.998L160 80.002Z" fill="#FFE9A0"/>
<mask id="mask0_461_9901" style="mask-type:alpha" maskUnits="userSpaceOnUse" x="0" y="0" width="160" height="160">
<path d="M148.936 120.604C155.966 108.701 160 94.8173 160 80.002L159.996 79.998C159.996 75.2227 159.578 70.5452 158.775 66H160V7H112.772C102.77 2.50233 91.6764 0 79.998 0C68.3195 0 57.2258 2.50233 47.2236 7H7V47.224C2.50228 57.2264 0 68.3201 0 79.998C0 103.268 9.94276 124.222 25.8028 138.836C25.8459 138.875 25.8886 138.914 25.9312 138.953C26.02 139.035 26.1081 139.116 26.1981 139.195C32.8898 145.285 40.6141 150.251 49.0886 153.8C58.5958 157.79 69.0387 159.996 79.998 159.996C100.718 159.996 119.6 152.122 133.802 139.199C138.332 135.081 142.393 130.45 145.878 125.392C146.955 123.839 147.976 122.238 148.936 120.604Z" fill="#D9D9D9"/>
</mask>
<g mask="url(#mask0_461_9901)">
<path d="M62.0178 145.578C62.0178 145.578 53.6694 148.477 51.4316 151L51.043 178.511C51.043 178.511 58.1317 182.202 61.7096 182.765L69.522 182.873L69.79 151.577L67.847 153.402L62.0178 145.578Z" fill="#658696"/>
<path d="M89.1914 151.563L89.4192 183.101L100.059 182.309C100.059 182.309 105.982 181.074 109.439 178.175L109.212 150.946C109.212 150.946 100.783 145.685 96.374 144.679C96.374 144.679 93.9619 151.228 90.786 153.402L89.1914 151.577V151.563Z" fill="#658696"/>
<path d="M137.326 78.3833C137.326 109.827 111.772 135.325 80.2673 135.325C48.7632 135.325 23.1953 109.827 23.1953 78.3833C23.1953 46.9398 48.7498 21.4414 80.2539 21.4414C111.758 21.4414 137.313 46.9398 137.313 78.3833H137.326Z" fill="#FDD7BA"/>
<path d="M25.6359 62.7348C25.6359 62.7348 45.2674 43.4768 79.0497 44.2552C79.0497 44.2552 115.954 41.6517 135.157 64.7344C135.157 64.7344 133.576 56.3334 128.51 48.1202C128.51 48.1202 135.68 47.7176 137.864 43.1011C140.048 38.4845 142.473 33.868 139.204 24.9838L142.393 26.3259C142.393 26.3259 132.128 4.85356 113.556 18.153L113.408 15.2542C113.408 15.2542 105.797 20.3405 108.303 28.661C108.303 28.661 90.373 19.0253 70.7817 21.6288C70.7817 21.6288 58.2256 24.6483 51.7666 28.3389C51.7666 28.3389 52.7716 19.4547 46.2457 15.0797L46.6611 17.6027C46.6611 17.6027 36.0212 9.4701 24.4701 17.5222C24.4701 17.5222 17.5153 25.2388 17.0195 27.6679L20.6242 25.0644C20.6242 25.0644 17.6895 34.2974 20.2892 39.8266C22.8889 45.3557 31.4919 48.1202 31.4919 48.1202C31.4919 48.1202 26.909 58.3733 25.6493 62.7348H25.6359Z" fill="#BE4440"/>
<path d="M47.9447 85.0257C48.5477 87.9244 46.0821 90.8903 42.464 91.6284C38.8459 92.3665 35.4154 90.6219 34.8258 87.7231C34.2362 84.8244 36.6884 81.8585 40.3065 81.1204C43.9246 80.3823 47.3551 82.1269 47.9447 85.0257Z" fill="#F9BAAC"/>
<path d="M112.041 85.0257C111.451 87.9244 113.903 90.8903 117.521 91.6284C121.139 92.3665 124.57 90.6219 125.16 87.7231C125.763 84.8244 123.297 81.8585 119.679 81.1204C116.061 80.3823 112.63 82.1269 112.041 85.0257Z" fill="#F9BAAC"/>
<path d="M72.0413 134.358L70.3662 140.907L68.1016 144.517C68.1016 144.517 68.4366 146.531 74.2925 148.128L74.9223 148.678L75.0831 152.301C75.0831 152.301 76.6376 153.08 79.063 153.16C81.4885 153.241 83.78 152.355 83.78 152.355L83.8872 148.664L88.0279 146.866C88.0279 146.866 90.9089 145.403 91.0161 143.578L89.7833 142.934L86.4332 134.721L72.0279 134.385L72.0413 134.358Z" fill="#FDD7BA"/>
<path d="M70.419 139.673C70.419 139.673 64.0002 139.445 62.4056 143.645C60.8109 147.833 67.8997 153.04 67.8997 153.04L74.8277 148.504L68.8511 145.658L68.4625 144.29L70.419 139.673Z" fill="#84A3AF"/>
<path d="M88.1726 139.418C88.5076 139.525 95.65 140.532 96.6014 144.222C97.5528 147.913 90.7991 153.388 90.7991 153.388L83.8711 148.356C83.8711 148.356 89.6868 147.134 91.0269 143.551C91.0269 143.551 88.8426 142.142 88.8962 141.927C88.9498 141.713 88.1726 139.404 88.1726 139.404V139.418Z" fill="#84A3AF"/>
<path d="M83.9258 149.147L83.9794 182.805L89.3395 182.644L89.2323 152.167C89.2323 152.167 85.0514 149.215 83.9258 149.147Z" fill="#84A3AF"/>
<path d="M75.2175 148.866L74.6547 182.86L69.6296 182.631C69.6296 182.631 70.0718 154.288 69.4688 151.604L75.2175 148.866Z" fill="#84A3AF"/>
<path d="M75.472 156.582C75.472 156.582 79.2375 157.253 79.5725 157.253C79.9075 157.253 83.4318 156.502 83.4318 156.502L83.9946 182.806L74.668 182.859L75.472 156.582Z" fill="white"/>
<path d="M86.8355 156.422C87.4868 156.422 88.0147 155.893 88.0147 155.241C88.0147 154.588 87.4868 154.06 86.8355 154.06C86.1842 154.06 85.6562 154.588 85.6562 155.241C85.6562 155.893 86.1842 156.422 86.8355 156.422Z" fill="#AEBCC1"/>
<path d="M75.3242 152.274L79.3443 153.227L83.7798 152.342L83.4314 156.757L79.3443 157.2L75.4716 156.582L75.3242 152.274Z" fill="#F0A2F4"/>
<path d="M41.4355 86.2207C41.5963 86.2207 41.6365 87.9251 42.1189 90.9312C42.6148 93.9239 43.6064 98.2586 46.0854 103.05C48.5377 107.827 52.5578 113.034 58.4003 117.074C64.1893 121.127 71.8275 123.851 80.0017 123.824C88.1759 123.851 95.8141 121.127 101.603 117.074C107.446 113.034 111.466 107.827 113.918 103.05C116.397 98.2452 117.389 93.9105 117.884 90.9312C118.353 87.9251 118.407 86.2207 118.568 86.2207C118.688 86.2207 118.903 87.9251 118.662 91.0251C118.394 94.0983 117.603 98.621 115.204 103.68C112.833 108.713 108.745 114.269 102.675 118.59C96.6717 122.925 88.6181 125.864 80.0151 125.837C71.4121 125.864 63.3585 122.938 57.3551 118.59C51.2848 114.269 47.1977 108.713 44.8258 103.68C42.4137 98.621 41.6231 94.0983 41.3685 91.0251C41.1273 87.9251 41.3551 86.2207 41.4623 86.2207H41.4355Z" fill="black"/>
<path d="M78.9418 72.3706C78.9418 75.7793 78.0976 78.5438 77.0658 78.5438C76.0339 78.5438 75.2031 75.7793 75.2031 72.3706C75.2031 68.9618 76.0339 66.1973 77.0658 66.1973C78.0976 66.1973 78.9418 68.9618 78.9418 72.3706Z" fill="black"/>
<path d="M84.7856 72.3706C84.7856 75.7793 83.9547 78.5438 82.9095 78.5438C81.8643 78.5438 81.0469 75.7793 81.0469 72.3706C81.0469 68.9618 81.8777 66.1973 82.9095 66.1973C83.9413 66.1973 84.7856 68.9618 84.7856 72.3706Z" fill="black"/>
<path d="M137.006 78.1147C136.926 78.1147 136.899 76.8667 136.685 74.5047C136.47 72.1428 136.055 68.6535 134.916 64.3188C133.763 59.9841 131.847 54.7905 128.551 49.3419C125.268 43.9201 120.564 38.2568 114.185 33.4389C107.847 28.6345 99.7801 24.7292 90.5606 23.0517C81.3814 21.3608 71.0498 21.8976 61.1737 25.521C51.3245 29.1042 41.9844 35.8143 35.2441 45.0608C28.4635 54.2537 24.4166 65.9695 24.4568 78.1416C24.4166 90.26 28.4635 102.003 35.2441 111.196C41.9844 120.442 51.3245 127.152 61.1737 130.735C71.0498 134.359 81.3814 134.896 90.5606 133.205C99.7801 131.527 107.847 127.622 114.185 122.817C120.564 118.013 125.268 112.336 128.551 106.914C131.847 101.466 133.763 96.2723 134.916 91.9375C136.055 87.5894 136.47 84.1136 136.685 81.7516C136.886 79.3897 136.926 78.1282 137.006 78.1416C137.06 78.1416 137.167 79.3897 137.087 81.7785C137.006 84.1672 136.711 87.6968 135.666 92.1388C134.621 96.5541 132.785 101.895 129.502 107.505C126.246 113.101 121.515 118.952 115.03 123.958C108.584 128.964 100.329 133.057 90.842 134.855C81.3948 136.667 70.7415 136.184 60.5171 132.48C50.3194 128.816 40.631 121.918 33.6226 112.363C26.574 102.862 22.3663 90.7163 22.4065 78.1147C22.3663 65.5669 26.574 53.3813 33.6226 43.8933C40.6176 34.3381 50.306 27.4401 60.5171 23.7764C70.7415 20.0859 81.3948 19.5893 90.842 21.401C100.329 23.1993 108.584 27.3059 115.03 32.2982C121.515 37.304 126.246 43.1686 129.502 48.7514C132.772 54.361 134.608 59.6888 135.666 64.1175C136.711 68.5596 136.993 72.0891 137.087 74.4779C137.167 76.8667 137.06 78.1147 137.006 78.1147Z" fill="black"/>
<path d="M71.8508 134.976C72.2663 135.029 72.3065 137.458 71.3416 140.277C70.6984 142.142 69.747 143.632 68.9564 144.289L68.7822 144.437H68.7286C68.2595 144.41 67.9781 144.316 67.9513 144.168C67.9245 144.021 68.1523 143.833 68.5678 143.632L68.3266 143.779C68.6214 142.987 69.2378 141.498 69.8274 139.753C70.7386 137.136 71.3952 134.908 71.8508 134.989V134.976Z" fill="black"/>
<path d="M62.0156 145.578C62.0558 145.726 60.9436 146.142 59.0407 146.96C58.0893 147.376 56.9503 147.886 55.7174 148.584C54.498 149.295 53.1446 150.181 52.0725 151.443L52.2333 151.04C52.0859 154.999 51.9519 159.723 51.8447 164.782C51.7509 169.734 51.7241 174.364 51.7911 178.269L51.4829 177.719C57.5265 181.611 62.3774 182.685 62.2836 182.993C62.2836 183.248 57.2183 182.685 50.7459 178.873L50.4511 178.699L50.4243 178.323C50.2099 174.378 50.1429 169.734 50.2367 164.755C50.3305 159.669 50.5717 154.945 50.8799 150.973V150.731L51.0407 150.57C52.3539 149.134 53.8682 148.289 55.1948 147.631C56.5348 146.987 57.7543 146.558 58.7593 146.249C60.7828 145.645 61.9754 145.484 62.0156 145.605V145.578Z" fill="black"/>
<path d="M86.5519 135.177C87.0075 135.07 87.7579 137.137 88.7898 139.472C89.3124 140.639 89.8484 141.633 90.304 142.304C90.7462 142.988 91.108 143.35 91.0276 143.552C90.9606 143.766 90.2638 143.699 89.4866 143.095C88.7094 142.505 87.892 141.418 87.3291 140.13C86.1901 137.526 86.1499 135.258 86.5519 135.164V135.177Z" fill="black"/>
<path d="M96.4039 144.853C96.4441 144.719 97.8779 144.907 100.29 145.591C101.496 145.94 102.943 146.423 104.538 147.161C106.119 147.913 107.915 148.852 109.483 150.53L109.643 150.704V150.959C109.925 154.556 110.126 158.622 110.22 162.943C110.354 168.687 110.287 174.002 110.032 178.323L110.005 178.685L109.737 178.846C103.948 182.215 99.6065 182.872 99.5663 182.658C99.4591 182.362 103.627 181.235 109.027 177.759L108.732 178.283C108.786 173.988 108.732 168.714 108.612 162.997C108.504 158.689 108.37 154.623 108.223 151.067L108.397 151.496C107.138 150.033 105.476 149.04 104.015 148.248C102.528 147.456 101.148 146.893 100.009 146.423C97.7171 145.511 96.3503 145.041 96.4039 144.88V144.853Z" fill="black"/>
<path d="M69.5497 139.714C69.5765 139.861 69.0405 140.063 68.1159 140.425C67.2046 140.801 65.7976 141.284 64.538 142.304C63.9216 142.814 63.4123 143.498 63.2783 144.303C63.1309 145.108 63.3587 146.075 63.8411 147.028C64.8194 148.947 66.6284 150.893 68.6251 152.57L67.1778 152.771L67.3788 152.503C68.4911 151.04 69.8847 149.953 71.2917 149.121C72.7256 148.303 74.1192 147.725 75.5932 147.336L75.7406 149.094C74.0388 148.906 72.471 148.531 71.1443 147.94C69.8177 147.35 68.7591 146.504 68.1561 145.592C67.5396 144.679 67.3922 143.807 67.4056 143.243C67.419 142.666 67.5664 142.384 67.6602 142.398C67.8746 142.398 67.7942 143.619 68.9869 144.934C70.1527 146.263 72.7122 147.148 75.888 147.309L76.0355 149.067C73.6368 149.873 70.7959 151.335 68.9735 153.711L68.8127 153.926L68.1561 154.811L67.3654 154.14C65.141 152.248 63.2917 150.222 62.1661 147.806C61.6301 146.612 61.3353 145.229 61.6569 143.928C61.9785 142.626 62.8763 141.713 63.6937 141.163C65.3956 140.063 66.9098 139.834 67.9283 139.66C68.9601 139.526 69.5363 139.566 69.5497 139.7V139.714Z" fill="black"/>
<path d="M89.2865 139.714C89.3133 139.58 89.8896 139.539 90.908 139.674C91.9264 139.835 93.4407 140.076 95.1425 141.177C95.9599 141.727 96.8577 142.639 97.1793 143.941C97.501 145.243 97.2061 146.625 96.6701 147.806C95.5445 150.222 93.6953 152.248 91.4708 154.141L90.6802 154.812L90.0236 153.926L89.8628 153.711C88.0403 151.336 85.1994 149.873 82.8008 149.068L82.9482 147.31C86.1107 147.149 88.6835 146.249 89.8494 144.934C91.042 143.619 90.9616 142.384 91.176 142.398C91.2698 142.384 91.4172 142.666 91.4306 143.243C91.4306 143.807 91.2832 144.693 90.6802 145.592C90.0772 146.504 89.0185 147.363 87.6919 147.94C86.3653 148.531 84.7974 148.907 83.0956 149.095L83.243 147.336C84.7036 147.726 86.1107 148.303 87.5445 149.121C88.9515 149.94 90.3586 151.027 91.4574 152.503L91.6584 152.772L90.2112 152.57C92.2078 150.893 94.0169 148.96 94.9951 147.028C95.4775 146.062 95.7053 145.109 95.5579 144.304C95.4239 143.498 94.9147 142.827 94.2983 142.304C93.0386 141.284 91.6182 140.801 90.7204 140.425C89.7824 140.063 89.2597 139.861 89.2865 139.714Z" fill="black"/>
<path d="M84.1157 183.101C83.5663 183.141 82.6819 175.425 82.6551 165.883C82.6015 156.341 83.3385 148.625 83.9013 148.651C84.4507 148.678 84.625 156.381 84.6652 165.87C84.692 175.358 84.6652 183.061 84.1157 183.101Z" fill="black"/>
<path d="M89.4192 183.101C89.0306 183.128 88.2935 176.069 88.2533 167.346C88.1997 158.623 88.8028 151.55 89.1914 151.577C89.58 151.591 89.6068 158.65 89.6604 167.346C89.6872 176.042 89.7944 183.088 89.4192 183.115V183.101Z" fill="black"/>
<path d="M74.7086 183.101C74.1592 183.061 74.1324 175.371 74.1592 165.87C74.2128 156.381 74.3736 148.678 74.923 148.651C75.4858 148.625 76.2095 156.341 76.1693 165.883C76.1425 175.425 75.258 183.128 74.7086 183.101Z" fill="black"/>
<path d="M69.563 183.101C69.1744 183.074 69.2816 176.028 69.3218 167.332C69.3754 158.636 69.4022 151.577 69.7908 151.563C70.1794 151.55 70.7824 158.609 70.7288 167.332C70.702 176.069 69.9516 183.128 69.563 183.088V183.101Z" fill="black"/>
<path d="M87.851 155.308C87.7036 155.308 87.6098 154.865 87.1541 154.623C87.0335 154.556 86.9263 154.543 86.8191 154.53H86.6583C86.6583 154.53 86.5645 154.53 86.6315 154.53H86.5779C86.5109 154.556 86.4439 154.57 86.3769 154.61C86.2563 154.677 86.1223 154.758 86.0553 154.892C85.9749 155.066 85.9481 155.026 85.9213 155.362C85.9213 155.563 86.1357 155.925 86.3635 156.006C86.6717 156.14 86.9129 156.1 87.1541 155.992C87.3685 155.885 87.5294 155.697 87.6232 155.576C87.717 155.415 87.784 155.295 87.851 155.308C87.918 155.308 87.985 155.415 87.9984 155.643C87.9984 155.898 87.9046 156.247 87.583 156.556C87.2881 156.878 86.6315 157.066 86.0821 156.892C85.4523 156.69 84.9297 156.127 84.9297 155.268C84.9297 155.08 85.0637 154.543 85.2647 154.315C85.4657 154.033 85.7739 153.845 86.0687 153.751C86.2161 153.697 86.3635 153.671 86.5243 153.684H86.6315C86.7521 153.684 86.7119 153.684 86.7521 153.684L86.8995 153.711C87.1943 153.778 87.4355 153.926 87.583 154.073C88.2396 154.758 87.9448 155.375 87.851 155.321V155.308Z" fill="black"/>
<path d="M73.1785 155.227C73.1785 155.724 72.7764 156.126 72.2806 156.126C71.7848 156.126 71.3828 155.724 71.3828 155.227C71.3828 154.731 71.7848 154.328 72.2806 154.328C72.7764 154.328 73.1785 154.731 73.1785 155.227Z" fill="black"/>
<path d="M83.7793 152.342C83.9401 152.664 82.0775 153.858 79.4242 153.818C76.7709 153.764 74.9351 152.597 75.0825 152.275C75.2299 151.885 77.1461 152.369 79.4376 152.409C81.7291 152.449 83.6319 151.939 83.7793 152.342Z" fill="black"/>
<path d="M83.7793 156.448C83.9401 156.77 82.0775 157.965 79.4242 157.924C76.7709 157.871 74.9351 156.703 75.0825 156.381C75.2299 155.992 77.1461 156.475 79.4376 156.515C81.7291 156.556 83.6319 156.046 83.7793 156.448Z" fill="black"/>
<path d="M135.157 64.7211C134.915 64.9627 131.713 61.4063 125.455 57.1253C122.319 55.0049 118.393 52.7637 113.783 50.8447C109.173 48.9121 103.894 47.3151 98.2252 46.2818C91.4312 45.0605 84.798 44.6848 79.1431 45.0874L78.2051 45.1545L78.1515 44.2688C77.7227 37.3976 78.4061 31.6001 79.2369 27.6277C80.0677 23.6554 81.0326 21.4813 81.2068 21.5484C81.3944 21.6155 80.7913 23.8432 80.2687 27.8022C79.7461 31.7477 79.3307 37.4379 79.9203 44.1211L78.9287 43.3025C84.8785 42.7254 91.5652 43.0341 98.5736 44.2956C104.389 45.3558 109.816 47.0602 114.507 49.1403C119.21 51.207 123.163 53.6495 126.272 55.9712C132.476 60.6548 135.317 64.6003 135.157 64.7211Z" fill="black"/>
<path d="M24.1081 64.7211C23.9339 64.5735 25.9306 61.7553 30.1517 58.1452C34.346 54.5352 40.939 50.3481 48.9658 47.597C56.9792 44.8056 64.6441 43.8527 70.1517 43.6649C75.6726 43.477 79.0629 44.0004 79.0495 44.2553C79.0361 44.5506 75.6458 44.5506 70.2455 45.0874C64.8586 45.6376 57.408 46.7918 49.6224 49.5026C41.8234 52.1733 35.351 56.0248 31.0361 59.2725C26.6944 62.5068 24.3359 64.9627 24.1081 64.7345V64.7211Z" fill="black"/>
<path d="M113.555 18.1537C113.448 18.2476 112.993 17.9927 112.845 17.174C112.711 16.3554 112.979 15.2818 113.73 14.1813L114.802 15.322C113.582 16.4091 112.095 17.8585 110.916 19.697C109.509 21.8443 108.892 24.1123 108.691 25.8032C108.477 27.4942 108.571 28.5946 108.303 28.6751C108.048 28.7691 107.418 27.6955 107.271 25.7629C107.097 23.8573 107.606 21.0793 109.241 18.5966C110.607 16.4762 112.39 15 113.877 14.0605L114.949 15.2013C114.279 15.8991 113.864 16.6775 113.743 17.1875C113.609 17.7108 113.703 18.0732 113.555 18.1671V18.1537Z" fill="black"/>
<path d="M138.896 24.7423C138.923 24.4739 141.415 24.8899 143.921 27.8021L142.729 28.5133C141.844 26.8895 140.732 24.957 139.271 22.9976C137.811 21.0383 135.975 19.0387 133.67 17.4954C131.432 15.9923 128.98 15.1468 126.675 14.8918C124.357 14.6234 122.226 14.8918 120.471 15.281C116.946 16.0997 114.923 17.2806 114.776 17.0257C114.615 16.8243 116.41 15.1602 120.095 13.9122C121.918 13.3083 124.25 12.852 126.849 13.0399C129.449 13.2143 132.303 14.1269 134.796 15.8178C137.369 17.549 139.312 19.7768 140.772 21.924C142.233 24.0712 143.251 26.1648 143.988 27.9228L142.809 28.6341C141.871 27.2921 140.812 26.3258 140.089 25.7354C139.338 25.1449 138.856 24.8899 138.91 24.7423H138.896Z" fill="black"/>
<path d="M128.508 48.1208C128.414 47.839 129.888 47.2083 132.032 45.9736C134.136 44.7389 137.004 42.7393 138.612 39.5185C140.26 36.2976 140.207 32.8084 139.925 30.3928C139.644 27.9369 139.188 26.4338 139.443 26.313C139.684 26.1922 140.635 27.5611 141.319 30.1244C141.654 31.3993 141.895 32.9829 141.828 34.7812C141.761 36.5661 141.346 38.5522 140.394 40.4311C139.443 42.3099 138.076 43.8264 136.682 44.9268C135.275 46.0407 133.855 46.7654 132.649 47.2619C130.197 48.2282 128.575 48.3624 128.508 48.1208Z" fill="black"/>
<path d="M125.413 26.4876C125.266 26.3802 125.628 25.6421 126.767 25.1187C127.892 24.5819 129.554 24.2733 131.577 24.3404L131.028 26.0045C129.701 25.2798 128.133 24.5685 126.418 24.1257C123.497 23.3339 120.723 23.5352 118.767 23.978C116.797 24.4075 115.631 24.9577 115.47 24.7296C115.309 24.5148 116.288 23.4681 118.351 22.6226C120.375 21.7637 123.618 21.2806 126.941 22.1797C128.897 22.6897 130.599 23.562 131.966 24.4746L131.417 26.1387C129.675 25.924 128.107 25.9642 127.115 26.1387C126.097 26.2997 125.574 26.6352 125.427 26.501L125.413 26.4876Z" fill="black"/>
<path d="M128.093 35.0223C128.053 34.8881 128.482 34.6063 129.272 34.6868C130.049 34.7539 131.054 35.076 132.14 35.747L131.041 36.4985C130.733 35.5859 130.264 34.6063 129.5 33.7608C128.281 32.3919 126.659 31.6538 125.453 31.2109C124.234 30.7681 123.43 30.5802 123.43 30.3521C123.43 30.1373 124.301 29.9092 125.721 30.0971C127.101 30.285 129.152 30.9425 130.706 32.6872C131.657 33.7474 132.18 35.0357 132.408 36.1362L132.81 38.0687L131.309 36.8877C130.465 36.2301 129.647 35.747 129.071 35.492C128.495 35.2102 128.12 35.1699 128.093 35.0089V35.0223Z" fill="black"/>
<path d="M51.6856 28.6612C51.4176 28.5807 51.5248 27.4802 51.297 25.7893C51.096 24.0983 50.4796 21.8303 49.0726 19.6831C47.8933 17.8445 46.4059 16.4086 45.1865 15.3081L46.2585 14.1674C47.0089 15.2679 47.2769 16.3549 47.1429 17.1601C46.9955 17.9787 46.5399 18.2337 46.4327 18.1398C46.2853 18.0458 46.3925 17.6835 46.2451 17.1601C46.1245 16.6501 45.7091 15.8718 45.0391 15.1739L46.1111 14.0332C47.5851 14.9726 49.3808 16.4488 50.7476 18.5692C52.3824 21.052 52.8783 23.8299 52.7175 25.7356C52.5701 27.6681 51.9402 28.7283 51.6856 28.6478V28.6612Z" fill="black"/>
<path d="M21.0904 24.7423C21.144 24.8765 20.6616 25.1449 19.9112 25.7354C19.1742 26.3124 18.129 27.2787 17.1909 28.6341L16.0117 27.9228C16.7487 26.1648 17.7672 24.0847 19.2278 21.924C20.6884 19.7902 22.6315 17.549 25.2043 15.8178C27.6834 14.1269 30.5377 13.2143 33.1373 13.0399C35.7504 12.852 38.0687 13.3083 39.8911 13.9122C43.5628 15.1602 45.3585 16.8243 45.211 17.0257C45.0636 17.2806 43.0402 16.0997 39.5159 15.281C37.7605 14.8918 35.6164 14.6234 33.3116 14.8918C31.0067 15.1468 28.541 15.9923 26.3166 17.4954C24.0117 19.0387 22.1893 21.0383 20.7152 22.9976C19.2546 24.957 18.1424 26.8895 17.2579 28.5133L16.0653 27.8021C18.5712 24.9033 21.0636 24.4873 21.0904 24.7423Z" fill="black"/>
<path d="M31.4791 48.1208C31.4121 48.3624 29.7907 48.2282 27.3384 47.2619C26.119 46.7654 24.6986 46.0407 23.3049 44.9268C21.9113 43.8264 20.5311 42.3099 19.593 40.4311C18.6416 38.5522 18.2262 36.5526 18.1592 34.7812C18.0922 32.9963 18.3468 31.4127 18.6684 30.1244C19.3518 27.5611 20.3033 26.1922 20.5445 26.313C20.7991 26.4338 20.3435 27.9369 20.0621 30.3928C19.7941 32.8084 19.7405 36.3111 21.3753 39.5185C22.9967 42.7528 25.851 44.7389 27.9683 45.9736C30.1123 47.2083 31.5864 47.8256 31.4925 48.1208H31.4791Z" fill="black"/>
<path d="M34.5862 26.4874C34.4388 26.6216 33.9162 26.2861 32.8978 26.125C31.8928 25.9506 30.3383 25.8969 28.5963 26.125L28.0469 24.4609C29.4137 23.5484 31.1156 22.6761 33.072 22.1661C36.3953 21.2535 39.6382 21.7501 41.6616 22.609C43.7253 23.4544 44.7035 24.5012 44.5427 24.7159C44.3819 24.9441 43.2161 24.3938 41.2462 23.9644C39.2898 23.5215 36.5025 23.3202 33.5946 24.112C31.866 24.5683 30.3115 25.2662 28.9849 25.9908L28.4355 24.3267C30.4723 24.2596 32.134 24.5817 33.2462 25.1051C34.3852 25.6285 34.7604 26.3666 34.5996 26.474L34.5862 26.4874Z" fill="black"/>
<path d="M31.891 35.0225C31.8508 35.1836 31.489 35.2238 30.9128 35.5057C30.35 35.7606 29.5192 36.2438 28.6883 36.9014L27.1875 38.0823L27.5895 36.1498C27.8173 35.0494 28.3399 33.761 29.2914 32.7008C30.8458 30.9562 32.8826 30.2986 34.2629 30.1107C35.6833 29.9229 36.5543 30.151 36.5543 30.3657C36.5543 30.5939 35.7503 30.7818 34.5309 31.2246C33.3249 31.6675 31.7034 32.3922 30.484 33.7745C29.7336 34.6199 29.2646 35.5996 28.9563 36.5122L27.8575 35.7606C28.9429 35.0896 29.948 34.7675 30.7252 34.7004C31.5024 34.6333 31.9446 34.9017 31.9044 35.036L31.891 35.0225Z" fill="black"/>
</g>
</svg>
