<svg width="160" height="160" viewBox="0 0 160 160" fill="none" xmlns="http://www.w3.org/2000/svg">
<g clip-path="url(#clip0_461_9675)">
<path d="M160 80C160 94.8157 155.966 108.7 148.936 120.603C148.444 121.438 147.939 122.261 147.415 123.08C146.923 123.858 146.406 124.629 145.882 125.391C145.567 125.847 145.253 126.299 144.926 126.746C141.659 131.276 137.928 135.451 133.805 139.202C126.597 145.761 118.179 151.021 108.934 154.607C108.413 154.805 107.889 155.006 107.356 155.196C98.8171 158.306 89.6082 160 80 160C69.0405 160 58.5973 157.794 49.0899 153.804C47.9121 153.312 46.7463 152.792 45.5967 152.239C41.5106 150.295 37.6221 148.008 33.9555 145.422C31.2409 143.51 28.6472 141.425 26.1947 139.194C26.0616 139.077 25.9325 138.956 25.7994 138.835C9.93899 124.225 0 103.27 0 80C0 35.8191 35.8151 0 80 0C124.185 0 160 35.8191 160 80Z" fill="#EDEDED"/>
<mask id="mask0_461_9675" style="mask-type:alpha" maskUnits="userSpaceOnUse" x="0" y="0" width="160" height="160">
<path d="M160 80C160 94.8157 155.966 108.7 148.936 120.603C148.444 121.438 147.939 122.261 147.415 123.08C146.923 123.858 146.406 124.629 145.882 125.391C145.567 125.847 145.253 126.299 144.926 126.746C141.659 131.276 137.928 135.451 133.805 139.202C126.597 145.761 118.179 151.021 108.934 154.607C108.413 154.805 107.889 155.006 107.356 155.196C98.8171 158.306 89.6082 160 80 160C69.0405 160 58.5973 157.794 49.0899 153.804C47.9121 153.312 46.7463 152.792 45.5967 152.239C41.5106 150.295 37.6221 148.008 33.9555 145.422C31.2409 143.51 28.6472 141.425 26.1947 139.194C26.0616 139.077 25.9325 138.956 25.7994 138.835C9.93899 124.225 0 103.27 0 80C0 35.8191 35.8151 0 80 0C124.185 0 160 35.8191 160 80Z" fill="#EDEDED"/>
</mask>
<g mask="url(#mask0_461_9675)">
<path d="M64.7093 131.665C64.7093 131.665 57.7814 132.195 53.2719 137.765L52.957 163.556C52.957 163.556 57.8066 166.613 63.4623 168.027L98.5176 167.232L99.6764 167.446L108.078 163.342L107.751 137.563C107.751 137.563 101.289 132.259 94.6631 132.12C94.6631 132.12 93.5547 144.005 79.8752 146.038C79.8752 146.038 65.78 142.818 64.7345 131.665H64.7093Z" fill="#E01E04"/>
<path d="M134.001 69.6006C134.001 99.1932 109.98 123.191 80.3661 123.191C50.7523 123.191 26.7188 99.1932 26.7188 69.6006C26.7188 40.008 50.7397 15.998 80.3661 15.998C109.992 15.998 134.001 39.9954 134.001 69.588V69.6006Z" fill="#FDD7BA"/>
<path d="M26.8047 66.6198C26.8047 66.6198 27.6486 66.7208 32.473 62.515C37.2973 58.3091 63.6486 49.8848 69.2162 49.0386C74.7837 48.1923 97.7214 41.0689 103.15 34.1602C103.15 34.1602 115.407 40.0964 122.435 48.4071C122.435 48.4071 131.63 60.0142 133.281 64.6874C133.281 64.6874 133.457 61.4667 131.366 52.9413C129.275 44.4159 116.137 21.05 90.529 16.6295C90.529 16.6295 59.4541 8.73561 38.5696 35.6758C38.5696 35.6758 27.762 47.7755 26.8173 66.6198H26.8047Z" fill="#FFE49F"/>
<path d="M98.327 119.578L99.448 123.254L98.4025 127.043L99.448 130.402L97.5586 133.876L99.4102 139.989L101.652 142.3L104.587 141.984L105.746 136.717L104.487 132.928L106.061 128.823L105.016 124.403L107.107 118.934L106.792 115.991L98.327 119.578Z" fill="#FFE49F"/>
<path d="M98.1634 147.681L96.929 149.979L96.7148 154.084L98.3901 153.869L100.38 159.73L101.64 158.719L105.003 152.19L103.983 148.577L100.909 147.769C100.909 147.769 99.4986 148.009 98.1634 147.681Z" fill="#FFE49F"/>
<path d="M49.9843 75.8395C50.5511 78.5677 48.2334 81.3589 44.8324 82.0536C41.4314 82.7483 38.2068 81.1063 37.6526 78.3782C37.0983 75.6501 39.4034 72.8588 42.8044 72.1641C46.2054 71.4695 49.43 73.1114 49.9843 75.8395Z" fill="#F9BAAC"/>
<path d="M110.231 75.8395C109.676 78.5677 111.982 81.3589 115.383 82.0536C118.784 82.7483 122.008 81.1063 122.562 78.3782C123.129 75.6501 120.812 72.8588 117.411 72.1641C114.01 71.4695 110.785 73.1114 110.231 75.8395Z" fill="#F9BAAC"/>
<path d="M72.3664 122.572C72.1522 122.673 71.1445 127.94 71.1445 127.94C71.1445 127.94 73.9913 130.844 78.6645 131.047L79.3951 130.781L80.7932 131.11C80.7932 131.11 86.0711 130.074 87.9353 127.927L85.9073 122.458L72.3664 122.559V122.572Z" fill="#FDD7BA"/>
<path d="M67.6675 131.476L64.8711 132.183C64.8711 132.183 65.5009 142.603 79.3567 145.836C79.3567 145.836 91.9656 144.712 94.7115 131.93L91.5751 131.21C91.5751 131.21 89.988 136.679 85.6549 135.53C81.3218 134.38 80.8179 131.892 80.8179 131.892L80.1881 130.743L78.412 130.705C78.412 130.705 73.2602 141.554 67.6675 131.45V131.476Z" fill="#6BC4EA"/>
<path d="M99.4724 139.723C99.4724 139.723 101.601 142.489 101.828 142.489C102.055 142.489 104.952 141.883 104.952 141.883C104.952 141.883 105.166 144.257 105.015 144.384C104.864 144.497 103.919 145.255 104.032 145.331C104.146 145.407 104.864 147.15 104.864 147.15C104.864 147.15 102.974 148.375 102.861 148.337C102.747 148.299 99.6739 148.337 97.86 147.314C97.86 147.314 97.4696 145.849 97.6207 145.811C97.7719 145.773 98.9181 144.232 98.8803 144.068C98.8426 143.916 97.7341 141.466 97.7341 141.466L98.9181 139.256L99.4724 139.736V139.723Z" fill="#43ACD1"/>
<path d="M71.8016 125.085C71.8016 125.085 68.8541 125.325 67.4307 128.836C66.0199 132.347 69.043 135.669 71.4489 135.821C73.8548 135.972 76.0087 134.835 78.7295 130.844C78.7295 130.844 75.3034 132.309 70.8947 127.889L71.5245 126.74L71.8016 125.085Z" fill="#43ACD1"/>
<path d="M86.9525 125.034C87.2675 125.072 89.9001 125.35 91.1597 127.876C92.4193 130.402 90.807 135.252 88.0106 135.34C85.2143 135.416 81.9518 135.416 80.1758 130.768C80.1758 130.768 82.758 132.044 87.9225 127.926L86.9525 125.034Z" fill="#43ACD1"/>
<path d="M80.8954 133.244L80.971 145.836H79.3586L78.099 145.723L78.0234 132.89L79.3964 130.781L80.8954 133.244Z" fill="#43ACD1"/>
<path d="M43.8626 76.9639C44.0137 76.9639 44.0515 78.5679 44.505 81.3971C44.9711 84.2136 45.9032 88.2932 48.2335 92.8021C50.5386 97.2985 54.3175 102.199 59.8094 106.001C65.251 109.815 72.4308 112.366 80.1145 112.354C87.7982 112.379 94.9781 109.815 100.42 106.001C105.912 102.199 109.69 97.2985 111.996 92.8021C114.326 88.2805 115.258 84.201 115.724 81.3971C116.165 78.5679 116.215 76.9639 116.366 76.9639C116.48 76.9639 116.681 78.5679 116.455 81.4855C116.203 84.3778 115.46 88.6342 113.205 93.3958C110.975 98.1321 107.133 103.361 101.427 107.428C95.7842 111.507 88.2139 114.273 80.1271 114.248C72.0403 114.273 64.47 111.507 58.8269 107.428C53.1208 103.361 49.279 98.1321 47.0494 93.3958C44.7821 88.6342 44.0389 84.3778 43.7996 81.4855C43.5729 78.5679 43.787 76.9639 43.8878 76.9639H43.8626Z" fill="black"/>
<path d="M79.1198 63.9417C79.1198 67.1498 78.3263 69.7516 77.3563 69.7516C76.3864 69.7516 75.6055 67.1498 75.6055 63.9417C75.6055 60.7337 76.3864 58.1318 77.3563 58.1318C78.3263 58.1318 79.1198 60.7337 79.1198 63.9417Z" fill="black"/>
<path d="M84.612 63.9417C84.612 67.1498 83.831 69.7516 82.8485 69.7516C81.866 69.7516 81.0977 67.1498 81.0977 63.9417C81.0977 60.7337 81.8786 58.1318 82.8485 58.1318C83.8184 58.1318 84.612 60.7337 84.612 63.9417Z" fill="black"/>
<path d="M133.698 69.3354C133.622 69.3354 133.597 68.1608 133.396 65.9379C133.194 63.715 132.804 60.4311 131.733 56.3516C130.65 52.272 128.848 47.3841 125.75 42.2563C122.664 37.1537 118.242 31.8237 112.247 27.2895C106.289 22.7679 98.7057 19.0925 90.0395 17.5137C81.411 15.9223 71.6994 16.4275 62.4159 19.8377C53.1577 23.2099 44.3782 29.525 38.0423 38.2272C31.656 46.8663 27.8645 57.9177 27.8897 69.3354C27.8645 80.7657 31.656 91.8045 38.0423 100.456C44.3782 109.158 53.1577 115.474 62.4159 118.846C71.6994 122.256 81.411 122.761 90.0395 121.17C98.7057 119.591 106.289 115.916 112.247 111.394C118.242 106.872 122.664 101.53 125.75 96.4272C128.848 91.312 130.65 86.4114 131.733 82.3319C132.804 78.2397 133.194 74.9559 133.396 72.7456C133.585 70.5227 133.622 69.3354 133.698 69.348C133.748 69.348 133.849 70.5227 133.774 72.7708C133.698 75.019 133.421 78.3407 132.438 82.5213C131.456 86.6767 129.73 91.7035 126.644 96.9829C123.583 102.25 119.137 107.756 113.04 112.468C106.981 117.179 99.2221 121.031 90.304 122.723C81.4236 124.428 71.4222 123.974 61.7987 120.488C52.213 117.04 43.1059 110.548 36.5181 101.555C29.9177 92.6255 25.9625 81.1699 26.0003 69.3354C25.9625 57.5009 29.9177 46.058 36.5433 37.1158C43.1185 28.1231 52.2256 21.6312 61.8239 18.1831C71.4348 14.7098 81.4488 14.2551 90.3166 15.9602C99.2347 17.6526 106.994 21.5175 113.053 26.2159C119.149 30.927 123.596 36.4464 126.657 41.7005C129.73 46.98 131.456 51.9942 132.451 56.1621C133.433 60.3427 133.698 63.6645 133.786 65.9126C133.862 68.1608 133.761 69.3354 133.711 69.3354H133.698Z" fill="black"/>
<path d="M72.456 122.862C72.8087 122.925 72.922 124.15 72.5567 125.59C72.1914 127.03 71.4861 128.066 71.146 127.927C70.8059 127.788 70.9318 126.626 71.2719 125.262C71.6246 123.898 72.0907 122.799 72.456 122.862Z" fill="black"/>
<path d="M67.705 131.729C67.7806 132.082 67.1256 132.524 66.2691 132.726C65.3999 132.928 64.6316 132.827 64.5434 132.461C64.4552 132.107 65.085 131.628 65.9668 131.425C66.8485 131.223 67.6295 131.362 67.705 131.716V131.729Z" fill="black"/>
<path d="M86.2717 123.052C86.6369 122.976 87.166 124.012 87.5943 125.325C88.0225 126.639 88.2493 127.75 87.9344 127.927C87.6194 128.104 86.7881 127.144 86.3346 125.742C85.8686 124.34 85.919 123.128 86.2717 123.052Z" fill="black"/>
<path d="M91.5742 131.21C91.6498 130.856 92.4182 130.705 93.2999 130.907C94.1816 131.109 94.8114 131.576 94.7233 131.93C94.6351 132.284 93.8667 132.397 93.0102 132.195C92.1536 131.993 91.5112 131.564 91.5868 131.197L91.5742 131.21Z" fill="black"/>
<path d="M59.7579 149.423C60.0476 149.31 62.6676 156.534 63.8643 167.421L63.2471 166.802C67.1771 167.118 71.5606 167.358 76.1708 167.446C84.9755 167.649 92.9238 167.105 98.5921 166.638L98.126 167.131C98.6047 161.649 99.2597 158.327 99.4486 158.353C99.6627 158.378 99.3856 161.738 99.1715 167.194V167.623L98.7054 167.686C93.0497 168.432 85.0259 169.164 76.1456 168.962C71.485 168.874 67.0763 168.583 63.1211 168.179L62.5543 168.116L62.5039 167.56C61.5466 156.787 59.4682 149.512 59.7579 149.423Z" fill="black"/>
<path d="M98.5146 167.724C98.3887 167.358 102.369 166.133 107.282 162.925L106.904 163.594V154.778C106.879 147.377 106.803 140.948 106.942 137.829L107.004 138.018C106.488 136.957 105.921 136.427 106.047 136.288C106.123 136.199 106.866 136.452 107.735 137.576L107.773 137.626L107.798 137.778C108.277 140.885 108.768 147.314 108.818 154.766C108.831 157.974 108.755 161.005 108.592 163.657L108.566 164.125L108.214 164.327C102.823 167.459 98.5902 168.053 98.5398 167.724H98.5146Z" fill="black"/>
<path d="M97.9636 132.498C97.9132 132.675 96.704 132.448 94.6256 132.132L95.205 131.715C95.0035 133.9 94.147 136.932 91.9552 139.963C90.8594 141.453 89.3982 142.906 87.6221 144.068C85.8461 145.242 83.7551 146.114 81.5256 146.644C80.9461 146.783 80.3667 146.897 79.7873 146.985L80.5808 146.051C80.5431 158.517 80.14 168.368 79.6361 168.368C79.1323 168.368 78.7292 158.529 78.6914 146.051V145.255L79.485 145.116C80.014 145.028 80.5556 144.927 81.0847 144.788C85.1911 143.853 88.5668 141.592 90.6578 138.952C92.774 136.325 93.8069 133.509 94.2477 131.602L94.3737 131.059L94.8272 131.185C96.9055 131.791 98.014 132.334 97.9636 132.498Z" fill="black"/>
<path d="M63.4474 168.04C63.4474 168.267 58.8498 167.825 52.5769 164.2L52.2872 164.036L52.262 163.645C51.8715 157.153 51.8715 148.438 52.325 138.864L52.388 137.727V137.399L52.6273 137.146C54.2396 135.315 56.2298 133.976 58.2578 133.029C60.311 132.082 62.3516 131.475 64.4803 131.185L65.2865 131.071L65.4376 131.93C65.9541 134.873 67.3775 137.576 68.9898 139.534C70.6273 141.529 72.5167 142.868 74.1794 143.752C75.8547 144.649 77.3033 145.129 78.2984 145.457C79.2935 145.773 79.8477 145.95 79.8351 146.051C79.8225 146.139 79.2431 146.164 78.1724 146.013C77.1143 145.861 75.5524 145.52 73.7134 144.712C71.8743 143.916 69.7581 142.59 67.8687 140.493C66.0045 138.384 64.3796 135.643 63.6868 132.17L64.6441 132.915C60.9912 133.534 56.847 135.214 54.0129 138.397L54.2522 137.828L54.1892 138.953C53.7357 148.476 53.5468 157.153 53.6224 163.594L53.3075 163.038C59.1143 166.802 63.523 167.737 63.4222 168.04H63.4474Z" fill="black"/>
<path d="M82.9994 151.949C83.5212 151.949 83.9441 151.525 83.9441 151.002C83.9441 150.479 83.5212 150.055 82.9994 150.055C82.4777 150.055 82.0547 150.479 82.0547 151.002C82.0547 151.525 82.4777 151.949 82.9994 151.949Z" fill="black"/>
<path d="M71.3454 125.186C71.3832 125.3 70.9423 125.477 70.2621 125.906C69.5945 126.323 68.6372 127.043 68.2215 128.306C67.7932 129.544 68.02 131.274 68.9773 132.79C69.4559 133.535 70.1109 134.242 70.9045 134.684C71.6855 135.139 72.6176 135.227 73.5623 134.987C75.6407 134.406 77.1774 132.398 78.1347 130.718L78.7394 131.703C75.817 131.602 73.386 130.63 72.0256 129.506C70.64 128.394 70.2747 127.359 70.4133 127.308C70.5392 127.232 71.106 128.015 72.4916 128.836C73.852 129.657 76.069 130.352 78.7771 130.339H79.8604L79.3692 131.325C78.8527 132.373 78.2103 133.345 77.3412 134.28C76.4846 135.189 75.3762 136.061 73.9528 136.452C73.3104 136.617 72.6428 136.667 72.0004 136.591C71.358 136.528 70.6904 136.288 70.1739 135.972C69.1032 135.341 68.3349 134.444 67.7806 133.497C66.6848 131.628 66.5084 129.455 67.2138 127.902C67.9192 126.323 69.204 125.641 69.9976 125.35C70.8289 125.06 71.3202 125.073 71.3454 125.161V125.186Z" fill="black"/>
<path d="M87.6322 125.185C87.6574 125.097 88.1487 125.084 88.98 125.375C89.7736 125.665 91.071 126.335 91.7638 127.926C92.4692 129.48 92.2928 131.652 91.197 133.521C90.6553 134.456 89.887 135.353 88.8037 135.997C88.2872 136.3 87.6196 136.553 86.9772 136.616C86.3348 136.692 85.6672 136.641 85.0248 136.477C83.6014 136.085 82.493 135.214 81.6364 134.304C80.7673 133.37 80.1249 132.397 79.6084 131.349L79.1172 130.364H80.2005C82.9087 130.376 85.113 129.694 86.486 128.873C87.8716 128.065 88.4384 127.269 88.5644 127.345C88.7029 127.396 88.3376 128.444 86.952 129.543C85.5916 130.667 83.1606 131.627 80.2383 131.74L80.8429 130.755C81.7876 132.435 83.3369 134.431 85.4153 135.024C86.36 135.264 87.3047 135.176 88.0731 134.721C88.8667 134.279 89.5217 133.572 90.0003 132.827C90.9576 131.311 91.197 129.581 90.7561 128.343C90.3404 127.08 89.3831 126.36 88.7155 125.943C88.0353 125.526 87.5944 125.337 87.6196 125.223L87.6322 125.185Z" fill="black"/>
<path d="M78.0356 145.861C77.7207 145.861 77.4688 142.552 77.4688 138.485C77.4688 134.418 77.7207 131.109 78.0356 131.109C78.3505 131.109 78.6024 134.418 78.6024 138.485C78.6024 142.552 78.3505 145.861 78.0356 145.861Z" fill="black"/>
<path d="M80.7934 146.266C81.1064 146.266 81.3602 142.873 81.3602 138.687C81.3602 134.502 81.1064 131.109 80.7934 131.109C80.4803 131.109 80.2266 134.502 80.2266 138.687C80.2266 142.873 80.4803 146.266 80.7934 146.266Z" fill="black"/>
<path d="M27.2361 67.1125C27.148 67.0494 27.803 65.8874 29.5412 64.2455C31.2669 62.6036 34.1011 60.608 37.8673 58.7135C45.3999 54.8486 56.5475 51.4764 68.8666 48.243C75.0136 46.6011 80.896 45.0981 86.0983 43.4183C91.3005 41.7764 95.7344 39.604 98.9338 37.0779C102.158 34.5772 104.023 31.748 104.829 29.6261C105.673 27.4916 105.635 26.1781 105.774 26.1781C105.887 26.1528 106.189 27.5295 105.522 29.8661C104.879 32.1774 103.065 35.3476 99.7652 38.1136C96.5028 40.9049 91.9177 43.3046 86.6399 45.0729C81.3621 46.879 75.4923 48.4325 69.3327 50.0744C57.0262 53.3077 45.9415 56.4527 38.4216 59.926C34.6553 61.631 31.8086 63.3993 29.9947 64.8139C28.1683 66.2284 27.3369 67.2136 27.2109 67.1125H27.2361Z" fill="black"/>
<path d="M133.281 64.6872C132.752 64.965 128.935 55.7071 120.458 47.1943C116.276 42.9253 111.893 39.7046 108.58 37.5954C105.267 35.4735 103.063 34.4126 103.151 34.1726C103.239 33.92 105.683 34.5641 109.248 36.4334C112.812 38.29 117.473 41.4602 121.793 45.8682C126.139 50.2635 129.213 54.9998 131.014 58.5868C132.828 62.1864 133.495 64.5987 133.281 64.6872Z" fill="black"/>
<path d="M103.153 126.31C102.762 125.893 104.702 123.923 105.773 121.094C106.881 118.252 106.088 115.726 106.528 115.498C106.755 115.372 107.335 115.915 107.725 117.065C108.116 118.201 108.204 119.995 107.549 121.738C106.906 123.493 105.798 124.744 104.904 125.489C104.009 126.234 103.316 126.487 103.153 126.297V126.31Z" fill="black"/>
<path d="M99.7994 131.109C99.623 131.273 98.9806 130.983 98.376 130.086C97.7462 129.202 97.3431 127.611 97.6202 125.994C97.8847 124.377 98.6027 123.114 99.2325 122.318C99.8623 121.523 100.442 121.169 100.643 121.333C101.084 121.649 99.9379 123.72 99.4845 126.297C99.2703 127.573 99.3711 128.697 99.5852 129.53C99.7868 130.364 100.013 130.945 99.7994 131.122V131.109Z" fill="black"/>
<path d="M102.206 134.532C102.067 134.304 102.495 133.787 103.138 133.029C103.768 132.271 104.599 131.248 105.015 129.985C105.443 128.722 105.33 127.459 105.166 126.512C105.002 125.564 104.826 124.933 105.04 124.781C105.241 124.63 105.871 125.046 106.426 126.057C106.98 127.029 107.421 128.772 106.816 130.578C106.224 132.372 104.939 133.496 103.994 134.052C103.025 134.62 102.332 134.734 102.206 134.519V134.532Z" fill="black"/>
<path d="M100.219 140.633C100.042 140.797 99.3371 140.469 98.4931 139.547C97.687 138.65 96.6667 137.021 96.6919 134.924C96.7297 132.827 97.8255 131.211 98.7325 130.377C99.652 129.518 100.433 129.278 100.584 129.48C100.735 129.695 100.32 130.276 99.7779 131.223C99.2363 132.158 98.6065 133.472 98.5939 134.962C98.5687 136.452 99.1355 137.804 99.6016 138.801C100.08 139.799 100.42 140.456 100.219 140.645V140.633Z" fill="black"/>
<path d="M103.681 142.363C103.202 142.06 104.21 140.064 104.638 137.715C104.84 136.54 104.764 135.517 104.588 134.759C104.424 134.002 104.197 133.509 104.361 133.307C104.512 133.105 105.192 133.319 105.797 134.178C106.414 135.012 106.779 136.515 106.502 138.018C106.238 139.521 105.57 140.696 104.991 141.428C104.399 142.161 103.895 142.489 103.681 142.35V142.363Z" fill="black"/>
<path d="M99.1104 147.68C99.1104 147.806 98.9593 147.92 98.6947 147.983C98.4302 148.021 98.0019 148.147 97.3595 147.68C97.032 147.427 96.8683 146.859 96.9313 146.455C96.9691 146.038 97.1202 145.709 97.284 145.394C97.6241 144.775 98.0523 144.27 98.6066 143.739V145.166C98.4932 145.065 98.3798 144.964 98.2665 144.851C97.6366 144.219 97.2714 143.335 97.221 142.565C97.158 141.781 97.3469 141.137 97.5611 140.657C98.0145 139.697 98.5814 139.319 98.7955 139.457C99.0222 139.596 98.9089 140.177 98.8459 141.011C98.7955 141.845 98.8963 142.817 99.6269 143.55C99.6898 143.625 99.7654 143.676 99.8284 143.752L100.572 144.535L99.8284 145.179C99.4127 145.545 98.9844 145.975 98.7073 146.316C98.5688 146.48 98.468 146.644 98.4176 146.732C98.3924 146.821 98.2917 146.783 98.3168 146.821C98.3042 146.947 98.6192 147.175 98.7955 147.301C98.997 147.44 99.1104 147.566 99.1104 147.692V147.68Z" fill="black"/>
<path d="M99.4873 147.617C99.5503 147.352 100.256 147.301 101.301 147.288C101.818 147.288 102.447 147.276 103.027 147.187C103.317 147.15 103.606 147.061 103.732 146.973C103.858 146.859 103.783 146.96 103.82 146.821C103.833 146.606 103.619 146.076 103.417 145.773L103.027 145.141L103.43 144.674C104.06 143.941 104.387 143.007 104.576 142.363L104.778 141.605C104.803 141.441 104.929 141.415 104.879 141.289C104.904 141.251 104.879 141.15 105.055 141.188C105.168 141.213 105.282 141.314 105.357 141.428C105.521 141.655 105.647 141.996 105.71 142.426C105.811 143.259 105.722 144.522 104.866 145.785V144.687C105.282 145.268 105.659 145.811 105.71 146.821C105.71 147.162 105.622 147.566 105.408 147.907C105.193 148.248 104.879 148.476 104.614 148.615C104.047 148.892 103.581 148.918 103.165 148.93C102.321 148.93 101.666 148.779 101.112 148.615C100.029 148.274 99.437 147.869 99.4873 147.617Z" fill="black"/>
<path d="M98.7195 152.707C98.8832 153.01 98.1905 153.882 97.0568 155.107L95.9735 156.269L95.646 154.551C95.5201 153.869 95.4445 153.073 95.4697 152.215C95.5201 150.712 95.9987 149.31 96.6537 148.489C97.2961 147.642 98.0393 147.44 98.1653 147.668C98.3038 147.882 98.0519 148.337 97.8252 149.12C97.5858 149.891 97.4095 151.002 97.3591 152.29C97.3339 153.023 97.3339 153.73 97.3339 154.362L95.9231 153.806C97.2961 152.783 98.518 152.328 98.7195 152.682V152.707Z" fill="black"/>
<path d="M100.394 159.729C100.18 159.881 99.6885 159.603 99.1343 158.934C98.5801 158.264 98.0132 157.191 97.7235 155.902C97.1189 153.301 97.8999 151.166 98.4163 151.292C98.9202 151.381 99.0461 153.275 99.5626 155.473C100.041 157.671 100.822 159.401 100.394 159.717V159.729Z" fill="black"/>
<path d="M100.394 159.729C100.041 159.287 102.233 157.456 103.165 154.463C104.122 151.469 103.505 148.729 103.996 148.564C104.235 148.463 104.739 149.082 105.079 150.257C105.419 151.419 105.558 153.2 104.966 155.031C104.387 156.875 103.215 158.239 102.258 158.972C101.288 159.717 100.545 159.919 100.394 159.717V159.729Z" fill="black"/>
<path d="M98.3287 119.578C98.5806 119.679 98.7066 119.957 98.8452 120.273C98.9711 120.588 99.0719 120.955 99.1852 121.397C99.2986 121.839 99.3994 122.281 99.412 122.672C99.412 123.026 99.3868 123.493 99.1097 123.531C98.8577 123.569 98.5932 123.607 98.2405 123.317C97.9004 123.051 97.5351 122.559 97.3588 121.877C97.1825 121.207 97.2832 120.5 97.5225 120.083C97.7619 119.654 98.102 119.502 98.3287 119.591V119.578Z" fill="black"/>
<path d="M99.4127 139.988C99.9165 139.761 100.786 141.087 101.982 141.415C103.217 141.807 104.716 141.415 104.955 141.882C105.081 142.11 104.854 142.527 104.237 142.906C103.645 143.259 102.6 143.6 101.403 143.234C100.206 142.855 99.5135 141.895 99.3119 141.238C99.0852 140.556 99.1734 140.102 99.4001 140.001L99.4127 139.988Z" fill="black"/>
<path d="M101.476 145.9C101.401 146.317 100.431 146.392 99.6626 145.773C98.8942 145.18 98.68 144.372 99.0075 144.106C99.335 143.841 99.9901 144.106 100.582 144.574C101.162 145.028 101.552 145.483 101.476 145.9Z" fill="black"/>
</g>
</g>
<defs>
<clipPath id="clip0_461_9675">
<rect width="160" height="160" fill="white"/>
</clipPath>
</defs>
</svg>
