<svg width="160" height="169" viewBox="0 0 160 169" fill="none" xmlns="http://www.w3.org/2000/svg">
<path d="M160 80C160 94.815 155.967 108.698 148.936 120.601C147.976 122.235 146.956 123.836 145.879 125.389C145.564 125.845 145.25 126.296 144.923 126.744C141.656 131.274 137.925 135.448 133.803 139.199C126.595 145.758 118.177 151.017 108.932 154.603C108.412 154.801 107.888 155.003 107.355 155.192C98.8163 158.302 89.6078 159.996 80 159.996C69.0411 159.996 58.5984 157.79 49.0915 153.801C43.7189 151.554 38.6529 148.735 33.9579 145.419C31.2434 143.507 28.6498 141.422 26.1975 139.191C26.0644 139.074 25.9353 138.953 25.8022 138.832C9.94256 124.219 0 103.265 0 79.996C0 35.8173 35.8133 0 79.996 0C124.179 0 159.992 35.8173 159.992 79.996L160 80Z" fill="#CDF3F1"/>
<g clip-path="url(#clip0_461_9936)">
<mask id="mask0_461_9936" style="mask-type:alpha" maskUnits="userSpaceOnUse" x="0" y="0" width="160" height="160">
<path d="M160 80C160 94.815 155.967 108.698 148.936 120.601C147.976 122.235 146.956 123.836 145.879 125.389C145.564 125.845 145.25 126.296 144.923 126.744C141.656 131.274 137.925 135.448 133.803 139.199C126.595 145.758 118.177 151.017 108.932 154.603C108.412 154.801 107.888 155.003 107.355 155.192C98.8163 158.302 89.6078 159.996 80 159.996C69.0411 159.996 58.5984 157.79 49.0915 153.801C43.7189 151.554 38.6529 148.735 33.9579 145.419C31.2434 143.507 28.6498 141.422 26.1975 139.191C26.0644 139.074 25.9353 138.953 25.8022 138.832C9.94256 124.219 0 103.265 0 79.996C0 35.8173 35.8133 0 79.996 0C124.179 0 159.992 35.8173 159.992 79.996L160 80Z" fill="#CDF3F1"/>
</mask>
<g mask="url(#mask0_461_9936)">
<path d="M78.4144 124.959C106.499 124.959 129.266 102.16 129.266 74.0357C129.266 45.9115 106.499 23.1123 78.4144 23.1123C50.3297 23.1123 27.5625 45.9115 27.5625 74.0357C27.5625 102.16 50.3297 124.959 78.4144 124.959Z" fill="#FDD7BA"/>
<path d="M50.0752 80.8219C50.6121 83.4028 48.4168 86.0433 45.1953 86.7005C41.9738 87.3576 38.9193 85.8044 38.3943 83.2235C37.8693 80.6427 40.0528 78.0022 43.2743 77.345C46.4958 76.6878 49.5502 78.2411 50.0752 80.8219Z" fill="#F9BAAC"/>
<path d="M107.144 80.8219C106.619 83.4028 108.803 86.0433 112.024 86.7005C115.246 87.3576 118.3 85.8044 118.825 83.2235C119.362 80.6427 117.167 78.0022 113.945 77.345C110.712 76.6878 107.669 78.2411 107.144 80.8219Z" fill="#F9BAAC"/>
<path d="M28.2307 64.9305L50.4471 59.2551L55.3628 48.6451L55.3032 58.598C55.3032 58.598 87.2795 55.587 103.387 59.0162C103.387 59.0162 104.509 46.8409 99.8076 38.7041C99.8076 38.7041 109.126 46.5422 114.269 59.6136L126.868 60.8801C126.868 60.8801 123.289 46.5422 115.462 39.899C115.462 39.899 100.702 24.0675 82.2087 23.3984C82.2087 23.3984 68.4159 21.6779 54.0981 29.5159C54.0981 29.5159 33.5879 39.1462 28.2188 64.9066L28.2307 64.9305Z" fill="#E8AD29"/>
<path d="M51.4972 29.5284C51.4972 29.5284 52.0938 17.2098 46.9514 13.2549C46.9514 13.2549 38.9692 15.8357 32.2637 21.0093C32.2637 21.0093 36.213 22.9688 35.9983 25.8005C35.9983 25.8005 36.225 26.4696 34.0654 26.398C31.9058 26.3263 27.1451 26.0993 27.1451 26.0993C27.1451 26.0993 23.0288 30.9622 22.7305 34.463C22.7305 34.463 36.3085 31.0219 42.3458 34.9171C42.3458 34.9171 46.1519 29.5403 51.5211 29.5403L51.4972 29.5284Z" fill="#E8AD29"/>
<path d="M107.313 29.6837C107.313 29.6837 106.776 17.2098 111.918 13.2549C111.918 13.2549 119.901 15.8357 126.606 21.0093C126.606 21.0093 122.657 22.9688 122.872 25.8005C122.872 25.8005 122.645 26.4696 124.804 26.398C126.964 26.3263 131.725 26.0993 131.725 26.0993C131.725 26.0993 135.841 30.9622 136.139 34.463C136.139 34.463 121.726 31.4043 115.689 35.2875C115.689 35.2875 112.67 29.6837 107.301 29.6837H107.313Z" fill="#E8AD29"/>
<path d="M42.5117 38.0117C42.5117 38.0117 41.3185 36.9244 42.0583 35.8133C42.798 34.7021 46.7951 28.1186 52.9398 29.7674L42.4997 38.0237L42.5117 38.0117Z" fill="#E8D141"/>
<path d="M104.821 30.7233C104.821 30.7233 107.469 28.477 110.929 30.9145C114.402 33.34 117.038 36.327 116.334 40.2102C116.334 40.2102 109.176 32.3005 104.809 30.7233H104.821Z" fill="#E8D141"/>
<path d="M71.589 124.947C71.589 124.947 70.3004 130.527 70.3004 130.67C70.3004 130.814 68.7612 133.514 68.7612 133.514L67.9141 133.418L68.9044 139.189L77.4592 141.233L82.6256 140.587L87.9947 139.189L89.0924 135.306L89.3311 133.191L87.5055 132.164L84.1289 124.445L71.6009 124.947H71.589Z" fill="#FDD7BA"/>
<path d="M60.16 135.593L53.55 139.572L53.1562 163.671C53.1562 163.671 58.6686 167.112 63.0236 168.08L69.8126 167.949C69.8126 167.949 70.3614 166.897 69.2637 160.039C69.2637 160.039 67.5217 147.744 59.1697 142.021L65.386 136.549L60.16 135.605V135.593Z" fill="#1D4D6A"/>
<path d="M91.7301 136.644C91.9807 136.644 97.0038 135.198 97.0038 135.198C97.0038 135.198 103.518 137.588 104.556 139.583L104.95 163.874C104.95 163.874 98.7339 167.554 95.751 167.602L87.1484 167.901C87.1484 167.901 87.3513 161.03 88.5921 155.952C88.5921 155.952 92.971 144.602 98.0419 142.164L91.7301 136.644Z" fill="#1D4D6A"/>
<path d="M68.7268 138.891C68.7268 138.891 75.0982 141.687 78.4151 141.244C81.7321 140.79 87.9961 139.177 87.9961 139.177C87.9961 139.177 85.1564 148.043 81.8395 150.731L82.9968 157.709L85.0848 167.602L72.0676 167.793L75.4203 150.66C75.4203 150.66 69.383 144.459 68.7148 138.903L68.7268 138.891Z" fill="#BFFA36"/>
<path d="M70.7798 127.324C70.7798 127.324 66.043 128.113 60.7455 134.983L64.6232 136.704L59.0273 142.224C59.0273 142.224 66.1146 147.075 67.7492 153.873C69.3839 160.672 70.2787 166.037 69.8015 167.96L72.2593 167.757L72.7127 163.874L75.6598 150.922C75.6598 150.922 69.4316 144.386 68.4293 139.01L67.9163 133.406L68.9424 133L70.7679 127.324H70.7798Z" fill="#6CABC4"/>
<path d="M84.8347 126.835C84.8347 126.835 92.626 128.52 96.8378 135.27L91.7311 136.644L98.1025 142.523C98.1025 142.523 91.2777 146.705 88.8914 154.017C88.8914 154.017 86.4932 165.261 87.1494 167.913L85.1211 167.806L81.3984 150.779C81.3984 150.779 86.875 144.877 88.2232 139.655L89.3329 133.203L87.2568 131.746L84.8347 126.859V126.835Z" fill="#6CABC4"/>
<path d="M78.3663 23.2908C78.3663 23.2908 79.4879 23.1474 81.6117 23.2191C83.7355 23.2908 86.8973 23.5537 90.8586 24.4857C94.8079 25.4296 99.5685 27.0665 104.568 30.0057C109.555 32.9211 114.793 37.1508 119.255 42.9576C123.718 48.7287 127.381 56.1246 128.98 64.6079C130.59 73.0553 130.161 82.59 126.868 91.7543C123.599 100.883 117.442 109.557 108.911 115.83C100.44 122.139 89.5819 125.902 78.3544 125.867C67.1269 125.902 56.2692 122.127 47.7979 115.83C39.2669 109.557 33.1102 100.895 29.841 91.7543C26.536 82.6019 26.1065 73.0672 27.7292 64.6079C29.3399 56.1246 32.9909 48.7287 37.4533 42.9576C41.9157 37.1508 47.1536 32.9211 52.1409 30.0057C57.1402 27.0784 61.9128 25.4296 65.8502 24.4857C69.8115 23.5537 72.9614 23.2908 75.0971 23.2191C77.2328 23.1474 78.3425 23.243 78.3425 23.2908C78.3425 23.3625 77.2209 23.3864 75.121 23.5776C73.0091 23.7688 69.9069 24.1392 66.0292 25.1667C62.1634 26.1943 57.522 27.9148 52.654 30.866C47.8098 33.8053 42.7509 38.0111 38.4555 43.7223C34.1602 49.3978 30.6762 56.6264 29.1729 64.8827C27.6695 73.1031 28.1468 82.351 31.3802 91.1927C34.5778 100.011 40.5674 108.374 48.824 114.408C57.0328 120.478 67.4967 124.098 78.3425 124.074C89.1762 124.11 99.6521 120.49 107.861 114.408C116.117 108.374 122.095 100.011 125.305 91.1927C128.538 82.351 129.027 73.1031 127.512 64.8827C126.009 56.6264 122.525 49.4097 118.229 43.7343C113.934 38.023 108.875 33.8172 104.031 30.878C99.1748 27.9267 94.5215 26.2062 90.6557 25.1787C86.778 24.163 83.6639 23.7807 81.5639 23.5895C79.4521 23.4103 78.3305 23.3745 78.3425 23.3028L78.3663 23.2908Z" fill="black"/>
<path d="M44.3503 81.957C44.4935 81.957 44.5293 83.4745 44.9588 86.1509C45.4002 88.8153 46.2832 92.6746 48.4905 96.9401C50.674 101.194 54.2534 105.83 59.4555 109.426C64.6099 113.034 71.4109 115.448 78.689 115.436C85.9672 115.46 92.7682 113.034 97.9226 109.426C103.125 105.83 106.704 101.182 108.888 96.9401C111.095 92.6627 111.978 88.8034 112.419 86.1509C112.837 83.4745 112.885 81.957 113.028 81.957C113.135 81.957 113.326 83.4745 113.111 86.2345C112.885 88.9707 112.169 92.9972 110.033 97.5017C107.921 101.982 104.282 106.929 98.8771 110.776C93.5318 114.635 86.361 117.252 78.701 117.228C71.041 117.252 63.8702 114.635 58.5249 110.776C53.1199 106.929 49.4808 101.982 47.3689 97.5017C45.2213 92.9972 44.5173 88.9707 44.2787 86.2345C44.0639 83.4745 44.2668 81.957 44.3622 81.957H44.3503Z" fill="black"/>
<path d="M77.7349 69.6261C77.7349 72.6609 76.9952 75.1342 76.0764 75.1342C75.1577 75.1342 74.418 72.6729 74.418 69.6261C74.418 66.5793 75.1577 64.1299 76.0764 64.1299C76.9952 64.1299 77.7349 66.5912 77.7349 69.6261Z" fill="black"/>
<path d="M82.95 69.6261C82.95 72.6609 82.1983 75.1342 81.2796 75.1342C80.3608 75.1342 79.6211 72.6729 79.6211 69.6261C79.6211 66.5793 80.3608 64.1299 81.2796 64.1299C82.1983 64.1299 82.95 66.5912 82.95 69.6261Z" fill="black"/>
<path d="M55.3165 58.61C55.2927 58.383 59.1465 57.6303 65.4821 57.0926C71.8058 56.555 80.5993 56.316 90.2757 56.8537C95.096 57.1165 99.6539 57.5228 103.83 58.0843L102.899 58.8251C103.209 55.8142 102.899 52.9346 102.494 50.4136C102.076 47.8805 101.527 45.682 101.038 43.8659C100.048 40.2336 99.284 38.1546 99.463 38.083C99.63 38.0113 100.704 39.9708 101.992 43.5672C102.625 45.3714 103.305 47.5818 103.854 50.1626C104.379 52.7435 104.808 55.7186 104.534 58.9924L104.462 59.8288L103.603 59.7332C99.5107 59.2672 94.9409 58.9207 90.1803 58.6578C80.5754 58.1321 71.8535 58.168 65.5537 58.3711C59.2539 58.5742 55.3523 58.8849 55.3165 58.622V58.61Z" fill="black"/>
<path d="M126.092 60.6894C126.032 60.8806 124.839 60.6177 122.775 60.4743C120.723 60.319 117.764 60.2473 114.363 60.4743L113.719 60.5221L113.516 59.8769C112.884 57.8338 111.822 55.6831 110.545 53.5205C107.884 49.0638 104.914 45.324 102.79 42.6117C100.654 39.9114 99.2938 38.2506 99.4728 38.0714C99.6398 37.8921 101.334 39.2542 103.744 41.7873C106.142 44.3203 109.316 47.9884 112.084 52.6124C113.409 54.8587 114.495 57.1647 115.103 59.4229L114.256 58.8255C117.823 58.7179 120.818 59.0286 122.918 59.4826C125.018 59.9247 126.152 60.5341 126.092 60.7014V60.6894Z" fill="black"/>
<path d="M56.4848 47.0918C56.7115 47.1754 56.7235 47.8326 56.6996 48.8601C56.6638 49.8877 56.5922 51.3095 56.4729 52.8867C56.2223 56.041 55.8167 58.6099 55.3156 58.6099C54.8264 58.6099 54.4326 55.9813 54.6832 52.7433C54.8144 51.1303 55.0889 49.6607 55.4468 48.6331C55.8047 47.5936 56.2462 47.0082 56.4848 47.1037V47.0918Z" fill="black"/>
<path d="M29.5434 64.6202C29.3644 64.1781 36.7142 60.9521 46.3787 59.0164C47.8343 58.7297 49.2542 58.4907 50.6144 58.2995L49.8985 58.9806C50.8769 55.0257 52.6785 52.0984 53.979 50.0553C55.3154 48.036 56.3176 46.9726 56.4847 47.0921C56.6636 47.2116 55.9955 48.4781 54.9336 50.6049C53.9194 52.7317 52.3683 55.7426 51.5808 59.339L51.4496 59.9245L50.853 60.0201C49.5286 60.2352 48.1326 60.498 46.7128 60.7728C37.2153 62.6726 29.6985 65.0981 29.5195 64.6202H29.5434Z" fill="black"/>
<path d="M53.1551 29.9467C53.0477 30.0184 52.8568 29.8989 52.5466 29.8631C52.2364 29.8153 51.783 29.8272 51.1864 29.9706C49.9933 30.2574 48.3586 31.0101 46.7002 32.1333C45.0775 33.2325 43.7412 34.4751 43.0372 35.4668C42.2736 36.4824 42.4168 37.0918 42.2617 37.2829C42.2139 37.3068 42.1304 37.3068 42.023 37.2352C41.9157 37.1515 41.7963 36.9962 41.7128 36.7572C41.5458 36.2912 41.6054 35.5743 41.9037 34.8694C42.4884 33.4237 43.8605 31.8823 45.6979 30.6278C47.5115 29.409 49.4921 28.7041 51.0313 28.7041C51.7949 28.7041 52.475 28.9072 52.8449 29.2418C53.2148 29.5763 53.2267 29.887 53.1193 29.9348L53.1551 29.9467Z" fill="black"/>
<path d="M105.641 30.5673C105.545 30.5075 105.569 30.1969 105.963 29.8862C106.357 29.5756 107.049 29.4083 107.812 29.468C109.363 29.5517 111.284 30.3761 113.026 31.7024C114.792 33.0525 116.069 34.6894 116.57 36.1591C116.82 36.8879 116.844 37.6048 116.653 38.0588C116.558 38.2859 116.427 38.4292 116.319 38.5129C116.212 38.5726 116.14 38.5726 116.081 38.5487C115.938 38.3456 116.117 37.7482 115.424 36.6967C114.78 35.6572 113.515 34.331 111.964 33.1481C110.377 31.9294 108.791 31.0811 107.621 30.7226C107.037 30.5434 106.583 30.4956 106.273 30.5314C105.963 30.5553 105.76 30.6509 105.665 30.5792L105.641 30.5673Z" fill="black"/>
<path d="M27.1211 26.0873C27.2762 26.2187 26.7631 27.0909 25.9279 28.5725C25.1166 30.0422 23.9234 32.1809 23.1002 34.69L22.1337 33.6147C23.6729 33.2682 25.3671 32.9575 27.133 32.7305C31.2136 32.1928 35.0197 32.2526 37.7043 32.85C40.4246 33.3996 41.8564 34.6064 41.6655 34.8215C41.5343 34.9887 40.1025 34.3077 37.5134 34.1046C34.9481 33.8537 31.3329 33.9851 27.3597 34.5108C25.6416 34.7378 23.9831 35.0007 22.4559 35.2635L20.9883 35.5145L21.4894 34.1882C22.5513 31.3565 23.9711 29.3611 25.0688 27.9751C26.1665 26.613 26.9779 25.9559 27.1091 26.0753L27.1211 26.0873Z" fill="black"/>
<path d="M51.4867 28.7273C51.2122 28.7154 51.2242 26.8753 50.6753 24.0197C50.1265 21.1999 48.9214 17.2451 46.6186 13.565L47.6089 13.9234L47.2748 14.031C42.9199 15.3572 39.1972 17.1973 36.5843 18.6669C33.9713 20.1365 32.4202 21.2119 32.2531 21.0087C32.1099 20.8415 33.3747 19.3957 35.9042 17.5916C38.4217 15.7993 42.204 13.7084 46.7379 12.3224L47.0959 12.2148L47.7402 12.0117L48.0862 12.5733C50.6395 16.6596 51.6418 20.8176 51.9162 23.8644C52.1548 26.9231 51.7014 28.7751 51.4867 28.7512V28.7273Z" fill="black"/>
<path d="M36.0585 26.6488C35.8914 27.1267 33.8631 26.816 31.429 26.7443C28.9831 26.6368 27.0144 26.8877 26.8354 26.4456C26.6207 25.9677 28.7206 24.8326 31.4887 24.9521C34.2568 25.0358 36.2374 26.2067 36.0585 26.6488Z" fill="black"/>
<path d="M32.2508 21.0088C32.5133 20.6265 34.1598 21.2 35.4723 22.9086C36.1166 23.7569 36.4865 24.7247 36.5103 25.4655C36.558 26.2063 36.2836 26.6842 36.045 26.6484C35.5916 26.5767 35.1501 25.358 34.0405 23.9839C32.9786 22.5979 31.9286 21.4151 32.2388 20.9969L32.2508 21.0088Z" fill="black"/>
<path d="M131.88 26.0871C132.023 25.9676 132.822 26.6247 133.932 27.9868C135.018 29.3728 136.438 31.3682 137.511 34.1999L138.012 35.5262L136.545 35.2753C135.018 35.0124 133.371 34.7376 131.641 34.5225C127.668 33.9968 124.065 33.8654 121.487 34.1163C118.898 34.3194 117.466 35.0005 117.335 34.8332C117.132 34.6181 118.576 33.4113 121.296 32.8617C123.993 32.2643 127.787 32.1926 131.868 32.7422C133.646 32.9693 135.328 33.2799 136.867 33.6264L135.901 34.7017C135.077 32.1926 133.884 30.0419 133.073 28.5842C132.25 27.1027 131.725 26.2304 131.88 26.099V26.0871Z" fill="black"/>
<path d="M107.517 28.7278C107.302 28.7517 106.848 26.8997 107.087 23.8409C107.35 20.7941 108.364 16.6242 110.917 12.5498L111.263 11.9883L111.907 12.1914L112.265 12.2989C116.799 13.6849 120.594 15.7878 123.099 17.5801C125.629 19.3723 126.905 20.818 126.75 20.9973C126.583 21.2004 125.032 20.125 122.419 18.6554C119.806 17.1858 116.083 15.3577 111.728 14.0195L111.394 13.9119L112.385 13.5535C110.082 17.2336 108.865 21.1884 108.328 24.0082C107.779 26.8639 107.791 28.7039 107.517 28.7158V28.7278Z" fill="black"/>
<path d="M122.941 26.6488C122.762 26.2067 124.743 25.0477 127.511 24.9521C130.279 24.8326 132.367 25.9677 132.164 26.4456C131.985 26.8877 130.016 26.6368 127.57 26.7443C125.136 26.816 123.108 27.1267 122.941 26.6488Z" fill="black"/>
<path d="M126.738 21.0086C127.048 21.4268 125.998 22.5977 124.936 23.9956C123.827 25.3697 123.385 26.5884 122.944 26.6601C122.693 26.696 122.431 26.218 122.478 25.4772C122.514 24.7364 122.872 23.7686 123.516 22.9203C124.841 21.2117 126.475 20.6382 126.738 21.0205V21.0086Z" fill="black"/>
<path d="M71.5428 125.353C71.9127 125.401 71.9485 127.599 71.0655 130.132C70.5048 131.733 69.7053 133.024 68.9895 133.657L68.8224 133.8H68.7508C68.2497 133.776 67.9395 133.705 67.9156 133.561C67.8918 133.418 68.1423 133.227 68.5957 133.024L68.369 133.167C68.6554 132.45 69.1923 131.16 69.7053 129.666C70.5286 127.3 71.1252 125.293 71.5309 125.353H71.5428Z" fill="black"/>
<path d="M60.8153 135.39C60.8511 135.509 60.0875 135.856 58.7631 136.513C57.4864 137.194 55.4939 138.138 53.8951 139.978L54.0382 139.631C53.9189 143.299 53.7877 147.911 53.7161 152.894C53.6564 156.896 53.6445 160.648 53.6922 163.874L53.4178 163.372C58.787 166.825 63.1061 167.793 63.0226 168.068C63.0107 168.307 58.4887 167.793 52.7377 164.4L52.4752 164.245L52.4513 163.898C52.2724 160.66 52.2127 156.873 52.2724 152.846C52.3559 147.828 52.5945 143.216 52.8928 139.536L52.9167 139.321L53.036 139.201C54.9927 137.182 57.1165 136.429 58.5125 135.891C59.9443 135.402 60.7795 135.258 60.8153 135.366V135.39Z" fill="black"/>
<path d="M84.6324 125.52C85.0381 125.424 85.7301 127.432 86.78 129.666C87.5437 131.351 88.5459 132.522 88.9993 132.82L88.8561 132.725L89.0232 132.832C89.2379 132.964 89.3572 133.083 89.3334 133.179C89.3095 133.274 89.1663 133.346 88.9158 133.382H88.9396C87.9016 133.501 86.3386 132.163 85.4914 130.299C84.3222 127.802 84.2864 125.604 84.6324 125.52Z" fill="black"/>
<path d="M96.1797 134.96C96.2155 134.852 97.17 135.007 98.8046 135.557C99.616 135.832 100.594 136.214 101.668 136.764C102.73 137.337 103.947 138.042 105.021 139.201L105.152 139.345V139.56C105.439 143.025 105.653 147.195 105.749 151.687C105.832 156.216 105.773 160.433 105.57 163.922L105.546 164.257L105.295 164.4C100.165 167.399 96.2632 167.985 96.2393 167.782C96.1439 167.519 99.8784 166.479 104.651 163.408L104.377 163.886C104.424 160.421 104.4 156.228 104.317 151.723C104.233 147.254 104.102 143.096 103.983 139.643L104.126 140.002C103.255 138.962 102.169 138.222 101.203 137.612C100.213 137.015 99.3057 136.561 98.5541 136.19C97.0388 135.473 96.1558 135.079 96.1916 134.96H96.1797Z" fill="black"/>
<path d="M59.5159 150.481C59.7665 150.385 62.2125 157.088 63.3817 167.507L62.821 166.945C67.6771 167.339 73.2849 167.59 79.2625 167.555C85.4788 167.519 91.3014 167.112 96.3007 166.646L95.7518 167.22C96.4916 157.136 98.1858 150.528 98.4364 150.588C98.6989 150.636 97.4699 157.279 96.9808 167.292L96.9569 167.805L96.4319 167.865C91.4326 168.463 85.5623 168.953 79.2745 168.976C73.2491 169.012 67.5935 168.678 62.7136 168.176L62.1886 168.128L62.1409 167.626C61.2341 157.315 59.2534 150.54 59.5159 150.481Z" fill="black"/>
<path d="M85.1067 168.187C84.6533 168.283 82.7443 160.791 80.7517 151.137L80.6562 150.695L80.9665 150.348C81.3483 149.93 81.742 149.5 82.1119 149.046C85.4885 145.079 87.3737 140.658 88.1731 137.349C89.0083 134.027 88.9248 131.864 89.1753 131.841C89.4139 131.793 89.9628 134.027 89.4139 137.6C88.9009 141.148 87.0634 145.987 83.484 150.193C83.0903 150.671 82.6846 151.125 82.267 151.567L82.4937 150.779C84.4027 160.445 85.5601 168.092 85.0948 168.175L85.1067 168.187Z" fill="black"/>
<path d="M87.1002 167.59C86.8973 167.59 86.4559 164.471 87.1837 159.441C87.5655 156.944 88.2933 153.957 89.737 150.886C91.1807 147.827 93.3165 144.637 96.5022 142.176C96.8601 141.913 97.1823 141.674 97.6118 141.423L97.4448 142.869L91.5148 137.349L90.4529 136.357L91.825 135.927L96.3232 134.505L95.9056 135.64C93.925 132.247 91.3836 130.06 89.403 128.901C87.4223 127.718 86.086 127.432 86.1218 127.264C86.1218 127.109 87.5894 127.085 89.8205 128.101C92.0398 129.081 94.963 131.279 97.2181 134.828L97.7311 135.64L96.8005 135.963L92.35 137.528L92.6483 136.106L98.6498 141.543L99.5447 142.355L98.4709 142.988C98.2084 143.144 97.8743 143.383 97.576 143.598C94.7125 145.808 92.6483 148.759 91.2165 151.603C89.7728 154.471 88.9495 157.278 88.4246 159.668C87.4104 164.483 87.3985 167.59 87.1002 167.578V167.59Z" fill="black"/>
<path d="M71.9848 168.187C71.5314 168.092 72.6768 160.457 74.5859 150.779L74.8126 151.567C74.395 151.125 73.9893 150.671 73.5956 150.193C70.0161 145.987 68.1787 141.148 67.6656 137.6C67.1168 134.027 67.6656 131.793 67.9042 131.841C68.1548 131.864 68.0713 134.027 68.9065 137.349C69.7059 140.658 71.5911 145.067 74.9677 149.046C75.3495 149.488 75.7313 149.93 76.1131 150.348L76.4233 150.695L76.3279 151.137C74.3353 160.791 72.4263 168.283 71.9729 168.187H71.9848Z" fill="black"/>
<path d="M69.9914 167.59C69.6931 167.59 69.6812 164.484 68.667 159.681C68.142 157.291 67.3068 154.471 65.875 151.616C64.4433 148.772 62.3791 145.821 59.5156 143.61C59.2173 143.383 58.8832 143.144 58.6207 143.001L57.5469 142.368L58.4417 141.555L64.4433 136.119L64.7416 137.541L60.2911 135.975L59.3605 135.653L59.8735 134.84C62.1286 131.292 65.0398 129.093 67.271 128.113C69.5022 127.098 70.9698 127.122 70.9698 127.277C70.9936 127.444 69.6693 127.731 67.6886 128.914C65.708 130.073 63.1666 132.26 61.186 135.653L60.7684 134.518L65.2665 135.94L66.6387 136.37L65.5768 137.361L59.6468 142.882L59.4798 141.436C59.9093 141.687 60.2315 141.926 60.5894 142.189C63.7751 144.65 65.9108 147.852 67.3545 150.899C68.7983 153.981 69.5261 156.957 69.9079 159.454C70.6238 164.484 70.1823 167.614 69.9914 167.602V167.59Z" fill="black"/>
<path d="M88.2357 138.926C88.3073 139.069 87.3527 139.726 85.6346 140.36C83.9165 141.005 81.387 141.59 78.5593 141.566C75.7315 141.566 73.214 140.969 71.4958 140.348C69.7658 139.726 68.7993 139.105 68.8709 138.95C69.0021 138.591 73.1782 140.3 78.5593 140.312C83.9523 140.383 88.0925 138.567 88.2237 138.926H88.2357Z" fill="black"/>
</g>
</g>
<defs>
<clipPath id="clip0_461_9936">
<rect width="117" height="157" fill="white" transform="translate(21 12)"/>
</clipPath>
</defs>
</svg>
