<svg width="160" height="180" viewBox="0 0 160 180" fill="none" xmlns="http://www.w3.org/2000/svg">
<path d="M159.996 80C159.996 96.8527 154.78 112.495 145.878 125.391C145.483 125.964 145.079 126.529 144.672 127.093C144.184 127.767 143.68 128.428 143.171 129.082C128.537 147.895 105.682 159.996 80 159.996C61.1829 159.996 43.8743 153.494 30.2163 142.615C28.6996 141.409 27.2233 140.146 25.7994 138.835C25.4686 138.529 25.1419 138.226 24.8192 137.916C9.52754 123.35 0 102.782 0 79.996C0 35.8191 35.815 0 80 0C124.185 0 160 35.8191 160 80H159.996Z" fill="#FFCB91"/>
<g clip-path="url(#clip0_461_9762)">
<mask id="mask0_461_9762" style="mask-type:alpha" maskUnits="userSpaceOnUse" x="0" y="0" width="160" height="160">
<path d="M159.996 80C159.996 96.8527 154.78 112.495 145.878 125.391C145.483 125.964 145.079 126.529 144.672 127.093C144.184 127.767 143.68 128.428 143.171 129.082C128.537 147.895 105.682 159.996 80 159.996C61.1829 159.996 43.8743 153.494 30.2163 142.615C28.6996 141.409 27.2233 140.146 25.7994 138.835C25.4686 138.529 25.1419 138.226 24.8192 137.916C9.52754 123.35 0 102.782 0 79.996C0 35.8191 35.815 0 80 0C124.185 0 160 35.8191 160 80H159.996Z" fill="#FFCB91"/>
</mask>
<g mask="url(#mask0_461_9762)">
<path d="M137.294 79.2376C137.294 109.827 112.384 134.633 81.6731 134.633C50.9627 134.633 26.0391 109.84 26.0391 79.2376C26.0391 48.6348 50.9366 23.8418 81.66 23.8418C112.384 23.8418 137.281 48.6478 137.281 79.2376H137.294Z" fill="#FDD7BA"/>
<path d="M27.1077 35.161L36.9047 35.8138C36.9047 35.8138 25.3704 44.3 21.0074 55.1755C21.0074 55.1755 7.94474 74.2109 22.3137 107.725L23.62 99.2389C23.62 99.2389 28.7406 120.781 40.9281 129.698L39.9484 123.497C39.9484 123.497 48.008 135.025 58.7848 138.08L57.374 134.49C57.374 134.49 63.0955 138.55 71.4425 140.325C71.4425 140.325 72.8272 138.302 73.5848 133.837C73.5848 133.837 45.0689 129.489 33.3125 105.989C33.3125 105.989 34.3575 62.1734 56.1984 37.6155C56.1984 37.6155 72.174 61.377 105.04 70.738C105.04 70.738 128.357 77.3051 136.939 77.3965C136.939 77.3965 136.717 98.5861 127.573 109.475C127.573 109.475 113.426 129.933 88.1628 134.059H87.7317C87.7317 134.059 88.7114 138.85 89.5866 139.503C89.5866 139.503 95.2428 139.177 102.101 133.954L101.121 136.787C101.121 136.787 110.369 134.829 117.123 126.996L115.594 132.218C115.594 132.218 127.455 121.669 130.943 112.53L137.37 99.3694L137.148 107.634C137.148 107.634 141.171 98.8211 142.595 90.7657C142.595 90.7657 146.514 73.5712 140.531 58.8834L136.508 49.8488L143.261 59.3142C143.261 59.3142 137.932 35.7093 119.644 22.8624C119.644 22.8624 106.255 12.8486 90.0308 12.4178L99.5012 7.74379C99.5012 7.74379 79.032 6.43821 68.5818 12.7442C68.5818 12.7442 57.0474 20.0293 54.4349 27.6539C54.4349 27.6539 41.4767 23.0844 27.1077 35.161Z" fill="#BB813D"/>
<path d="M50.1667 85.7002C50.7545 88.5203 48.3509 91.4056 44.824 92.1237C41.2971 92.8417 37.953 91.1445 37.3783 88.3244C36.8035 85.5044 39.194 82.619 42.7209 81.901C46.2478 81.1829 49.5919 82.8801 50.1667 85.7002Z" fill="#F9BAAC"/>
<path d="M112.644 85.7002C112.069 88.5203 114.46 91.4056 117.987 92.1237C121.513 92.8417 124.858 91.1445 125.432 88.3244C126.02 85.5044 123.617 82.619 120.09 81.901C116.563 81.1829 113.219 82.8801 112.644 85.7002Z" fill="#F9BAAC"/>
<path d="M73.5874 133.837C73.5874 133.837 71.6803 140.965 70.0474 143.172L66.625 144.073C66.625 144.073 69.3943 148.146 80.2625 149.373C80.2625 149.373 89.7329 149.621 96.3818 143.785L91.6923 142.519C91.6923 142.519 89.1059 139.96 87.7474 134.059L73.6005 133.837H73.5874Z" fill="#FDD7BA"/>
<path d="M62.7053 144.961C62.7053 144.961 65.5269 150.875 76.0946 153.33C76.0946 153.33 71.5618 161.816 70.752 169.114C69.9421 176.412 69.6547 180.747 69.6547 180.747L63.5283 180.904L53.0781 176.373L53.5223 149.857C53.5223 149.857 58.1334 146.149 62.7053 144.961Z" fill="#284BC9"/>
<path d="M99.4898 144.347C99.4898 144.347 96.4723 151.775 85.1992 153.525C85.1992 153.525 91.1166 162.742 91.5216 168.748C91.9265 174.741 91.9265 180.746 91.9265 180.746L100.992 180.459L110.097 176.386L109.979 149.739C109.979 149.739 104.793 145.208 99.4898 144.36V144.347Z" fill="#284BC9"/>
<path d="M66.3751 144.06C66.3751 144.06 69.2619 147.35 76.0415 148.904C76.0415 148.904 81.0184 149.883 86.5962 148.525C86.5962 148.525 93.2581 146.045 96.0144 143.825L99.3584 144.778C99.3584 144.778 95.7139 150.458 92.0433 151.659C88.3727 152.86 85.4074 153.317 85.4074 153.317L90.1361 165.145L92.2523 175.159L92.0172 180.59L69.6408 180.904L69.9935 170.785L73.6118 160.21L77.0081 152.651L70.2808 151.646C70.2808 151.646 63.2923 146.854 62.6914 144.987L66.362 144.086L66.3751 144.06Z" fill="#F25D55"/>
<path d="M43.8179 86.8623C43.9746 86.8623 44.0138 88.5204 44.4841 91.4449C44.9674 94.3563 45.934 98.5734 48.3506 103.234C50.7411 107.882 54.6599 112.948 60.3552 116.878C65.9983 120.82 73.4441 123.471 81.4123 123.445C89.3806 123.471 96.8263 120.82 102.469 116.878C108.165 112.948 112.084 107.882 114.474 103.234C116.891 98.5603 117.857 94.3433 118.341 91.4449C118.798 88.5204 118.85 86.8623 119.007 86.8623C119.124 86.8623 119.333 88.5204 119.098 91.5363C118.837 94.5261 118.066 98.9259 115.728 103.848C113.416 108.744 109.432 114.149 103.514 118.353C97.6623 122.57 89.8116 125.429 81.4254 125.403C73.0391 125.429 65.1884 122.583 59.3364 118.353C53.4189 114.149 49.4479 108.744 47.1227 103.848C44.7714 98.9259 44.0007 94.5261 43.7525 91.5363C43.5174 88.5204 43.7395 86.8623 43.844 86.8623H43.8179Z" fill="black"/>
<path d="M80.3789 73.4022C80.3789 76.7183 79.5559 79.4078 78.5501 79.4078C77.5443 79.4078 76.7344 76.7183 76.7344 73.4022C76.7344 70.086 77.5443 67.3965 78.5501 67.3965C79.5559 67.3965 80.3789 70.086 80.3789 73.4022Z" fill="black"/>
<path d="M86.0742 73.4022C86.0742 76.7183 85.2643 79.4078 84.2454 79.4078C83.2265 79.4078 82.4297 76.7183 82.4297 73.4022C82.4297 70.086 83.2396 67.3965 84.2454 67.3965C85.2512 67.3965 86.0742 70.086 86.0742 73.4022Z" fill="black"/>
<path d="M33.4847 106.315C33.6153 106.237 34.6734 108.012 36.9072 110.95C39.1409 113.874 42.6547 117.961 47.8668 121.956C53.0657 125.938 60.0412 129.776 68.4666 131.8C76.8529 133.85 86.6499 134.007 96.2641 131.317C105.878 128.654 114.16 123.418 120.26 117.308C126.413 111.198 130.41 104.305 132.787 98.2206C135.191 92.0974 136.04 86.7837 136.432 83.128C136.811 79.4594 136.785 77.3835 136.941 77.3965C137.046 77.3965 137.333 79.4333 137.19 83.1933C137.02 86.9142 136.367 92.3846 134.081 98.7167C131.808 105.023 127.824 112.216 121.54 118.588C115.323 124.972 106.766 130.455 96.7866 133.21C86.8197 135.991 76.67 135.769 68.0356 133.55C59.3489 131.356 52.2166 127.257 47.0046 123.04C41.7665 118.797 38.3571 114.488 36.2801 111.381C34.2032 108.26 33.3802 106.354 33.4717 106.302L33.4847 106.315Z" fill="black"/>
<path d="M73.4677 134.308C73.5592 134.321 73.5461 135.235 73.2457 136.853C73.0889 137.663 72.8669 138.642 72.5011 139.765C72.1092 140.888 71.6781 142.128 70.7768 143.46L70.6723 143.603L70.4503 143.656C68.099 144.178 65.408 144.791 62.5343 145.758C61.0974 146.241 59.6213 146.815 58.1844 147.546C56.7605 148.277 55.3367 149.191 54.2656 150.405L54.4615 149.948L54.2133 155.314C53.8867 163.357 53.7692 170.733 53.8606 176.439L53.5863 175.956C59.6082 179.807 64.2324 180.76 64.141 181.034C64.141 181.23 59.347 180.721 52.9332 176.974L52.685 176.83V176.491C52.3453 170.746 52.3323 163.331 52.6589 155.262C52.7372 153.421 52.8156 151.633 52.9332 149.87V149.596L53.1291 149.4C54.4354 147.951 56.0029 146.998 57.5443 146.241C59.0857 145.483 60.6402 144.922 62.1293 144.465C65.1076 143.551 67.89 143.029 70.2543 142.611L69.9277 142.807C70.7115 141.762 71.2732 140.522 71.7043 139.491C72.1353 138.446 72.4488 137.506 72.684 136.736C73.1542 135.195 73.3763 134.321 73.4939 134.347L73.4677 134.308Z" fill="black"/>
<path d="M87.7965 134.503C87.9141 134.477 88.1884 135.391 88.8023 136.971C89.1158 137.754 89.5077 138.707 90.1086 139.726C90.409 140.235 90.7487 140.744 91.1797 141.227C91.3887 141.462 91.6239 141.684 91.8851 141.88C92.1072 142.063 92.486 142.233 92.6036 142.246H92.6166H92.6427C95.1116 142.676 97.9462 143.277 101.003 144.269C102.531 144.765 104.099 145.353 105.679 146.136C107.247 146.933 108.854 147.899 110.186 149.374L110.369 149.57V149.844L110.604 154.061C110.983 162.704 110.957 170.59 110.617 176.465V176.791L110.356 176.935C104.634 180.251 100.493 180.865 100.48 180.695C100.389 180.434 104.373 179.402 109.729 175.969L109.468 176.426C109.546 170.577 109.415 162.743 109.036 154.126L108.827 149.935L109.023 150.405C107.926 149.178 106.463 148.238 105 147.481C103.524 146.724 102.009 146.123 100.546 145.601C97.6066 144.569 94.8242 143.891 92.4207 143.342H92.4599C91.8329 143.212 91.5585 142.964 91.2059 142.703C90.8923 142.441 90.618 142.154 90.396 141.867C89.9257 141.292 89.5861 140.705 89.3118 140.144C88.7501 139.021 88.4366 138.002 88.2014 137.154C87.7573 135.483 87.6789 134.517 87.7834 134.503H87.7965Z" fill="black"/>
<path d="M90.2805 156.698C90.8216 156.698 91.2602 156.259 91.2602 155.718C91.2602 155.178 90.8216 154.739 90.2805 154.739C89.7394 154.739 89.3008 155.178 89.3008 155.718C89.3008 156.259 89.7394 156.698 90.2805 156.698Z" fill="black"/>
<path d="M55.0124 35.4489C55.2214 35.3183 57.9253 40.162 64.313 46.2591C67.4872 49.3011 71.5497 52.6434 76.4091 55.8551C81.2553 59.0668 86.8854 62.161 93.0379 64.8767C105.356 70.3079 117.295 73.2715 125.943 75.0732C134.616 76.8619 140.077 77.58 140.037 77.8802C140.011 78.1152 134.499 77.8802 125.695 76.431C116.917 74.9557 104.781 72.1879 92.2541 66.6653C85.9971 63.9105 80.2887 60.7118 75.4032 57.3565C70.5178 54.0012 66.4553 50.4761 63.3464 47.2513C57.0763 40.7756 54.7511 35.5664 55.0254 35.4619L55.0124 35.4489Z" fill="black"/>
<path d="M33.5609 113.992C33.3388 114.005 32.6465 109.462 32.6726 102.02C32.6987 94.6046 33.587 84.2644 36.6698 73.3105C39.7134 62.3437 44.3898 53.0218 48.5046 46.8334C52.5932 40.5927 56.0287 37.4201 56.2116 37.616C56.4075 37.7987 53.4162 41.2455 49.6802 47.5645C45.9312 53.8574 41.5422 63.0617 38.5639 73.8328C35.5333 84.6038 34.4491 94.7351 34.0703 102.059C33.6915 109.397 33.8874 113.966 33.5739 113.992H33.5609Z" fill="black"/>
<path d="M100.612 7.91397C100.599 8.21426 97.4244 8.12286 92.3692 8.38398C87.34 8.68426 80.3123 9.33705 73.167 12.0396C69.6139 13.3844 66.4266 15.1599 63.8272 17.1575C61.2146 19.142 59.1899 21.3353 57.7138 23.3329C54.7486 27.3671 53.9518 30.4613 53.6774 30.383C53.4162 30.37 53.7558 27.0016 56.5643 22.5495C57.962 20.3431 59.9998 17.9147 62.7038 15.7344C65.3947 13.541 68.7387 11.6218 72.4616 10.2118C79.9596 7.37868 87.2355 6.94784 92.3561 7.00007C97.5028 7.09146 100.638 7.66591 100.625 7.91397H100.612Z" fill="black"/>
<path d="M89.0772 12.7054C88.7114 12.3137 90.7622 10.0159 94.1585 8.65806C97.5287 7.27415 100.572 7.36554 100.612 7.91388C100.664 8.44917 97.999 9.19335 94.9031 10.4728C91.7942 11.7131 89.4298 13.1231 89.0772 12.7054Z" fill="black"/>
<path d="M143.836 60.5812C143.535 60.6726 142.242 56.4686 139.329 50.0843C136.403 43.7392 131.609 35.1223 123.811 27.8372C119.944 24.2077 115.738 21.3093 111.662 19.1812C107.587 17.0401 103.642 15.6431 100.272 14.7422C93.4922 12.9275 89.077 13.0058 89.0901 12.7186C89.0509 12.4575 93.5575 11.883 100.598 13.3975C104.099 14.1547 108.214 15.4603 112.485 17.5884C116.744 19.7034 121.146 22.654 125.156 26.4141C133.229 33.9734 137.971 42.9689 140.609 49.549C143.248 56.1944 144.058 60.542 143.849 60.5942L143.836 60.5812Z" fill="black"/>
<path d="M134.249 47.5255C134.419 47.3297 135.294 47.7474 136.43 48.7527C137.567 49.745 138.951 51.3117 140.271 53.1656C142.896 56.8865 144.294 60.3202 143.824 60.5813C143.353 60.8424 141.211 57.9049 138.664 54.2884L135.398 49.6797C134.575 48.4916 134.053 47.7344 134.236 47.5255H134.249Z" fill="black"/>
<path d="M136.981 108.77C136.706 108.652 138.065 105.297 139.711 99.7612C141.331 94.2255 143.133 86.379 143.042 77.6185C143.003 68.845 140.873 61.0768 138.574 55.8284C136.288 50.5408 134.055 47.6946 134.264 47.5249C134.446 47.3291 137.15 49.9402 139.828 55.2409C142.532 60.4893 144.975 68.5317 145.001 77.6055C145.093 86.6793 143.003 94.6955 141.03 100.205C139.018 105.728 137.203 108.887 136.981 108.796V108.77Z" fill="black"/>
<path d="M137.308 98.3252C137.856 98.3252 138.275 100.688 138.17 103.587C138.066 106.485 137.517 108.796 136.981 108.77C136.446 108.744 136.119 106.394 136.211 103.521C136.315 100.649 136.772 98.3383 137.308 98.3252Z" fill="black"/>
<path d="M114.878 133.04C114.499 132.609 121.553 126.395 127.679 116.721C133.923 107.111 136.823 98.1813 137.294 98.338C137.555 98.4032 137.202 100.766 135.935 104.383C134.681 107.999 132.499 112.856 129.325 117.778C126.164 122.713 122.624 126.708 119.829 129.319C117.033 131.931 115.035 133.236 114.878 133.04Z" fill="black"/>
<path d="M117.384 126.291C117.932 126.33 118.128 128.171 117.345 130.129C116.587 132.088 115.346 133.315 114.876 133.041C114.406 132.767 114.824 131.2 115.516 129.424C116.221 127.662 116.848 126.252 117.384 126.291Z" fill="black"/>
<path d="M99.9604 137.388C99.8167 136.814 104.336 135.482 109.17 132.544C111.573 131.082 113.585 129.489 114.969 128.249C116.367 127.022 117.151 126.16 117.386 126.304C117.621 126.434 117.203 127.635 115.988 129.202C114.787 130.769 112.775 132.662 110.202 134.229C107.628 135.795 105.055 136.735 103.161 137.179C101.254 137.636 100.039 137.662 99.9734 137.401L99.9604 137.388Z" fill="black"/>
<path d="M102.142 133.471C102.403 133.432 102.717 133.706 102.808 134.268C102.9 134.816 102.73 135.573 102.325 136.187C101.502 137.44 100.3 137.806 99.9738 137.388C99.6342 136.97 100.104 136.03 100.679 135.13C100.967 134.673 101.215 134.32 101.45 134.033C101.685 133.759 101.881 133.511 102.155 133.471H102.142Z" fill="black"/>
<path d="M89.9545 139.347C89.9937 138.825 92.9197 138.446 96.1201 136.671C99.3466 134.973 101.763 133.08 102.142 133.472C102.547 133.824 100.601 136.527 97.0214 138.407C95.2449 139.347 93.4161 139.804 92.0837 139.843C90.7382 139.895 89.9414 139.595 89.9414 139.347H89.9545Z" fill="black"/>
<path d="M26.3768 35.6575C26.207 35.4748 27.2782 34.13 29.4466 32.4066C31.6019 30.6963 34.9068 28.6466 38.9954 27.3802C43.071 26.1007 47.0029 25.931 49.746 26.2704C52.5153 26.5968 54.122 27.341 54.0306 27.6021C53.9522 27.8632 52.3194 27.6152 49.6676 27.6543C47.029 27.6804 43.3845 28.046 39.5702 29.2471C31.8762 31.6494 26.7557 36.1406 26.3768 35.6445V35.6575Z" fill="black"/>
<path d="M37.4801 35.8797C37.3495 36.402 34.9329 36.3106 31.9285 36.3106C28.924 36.2844 26.4552 36.1931 26.3768 35.6578C26.2984 35.1225 28.7803 34.3261 31.9415 34.3522C35.1288 34.3522 37.6238 35.3444 37.4801 35.8797Z" fill="black"/>
<path d="M23.1113 109.541C22.9023 109.632 20.6686 105.585 18.3565 98.4823C17.22 94.9311 16.1228 90.5966 15.4957 85.6745C14.8687 80.7656 14.7512 75.243 15.6133 69.5506C16.4754 63.8583 18.252 58.6099 20.5249 54.1709C22.7847 49.7319 25.4887 46.1155 28.0229 43.3476C33.1304 37.812 37.3627 35.6316 37.4672 35.8667C37.637 36.1017 33.7705 38.6345 29.0679 44.2615C26.7297 47.0685 24.2347 50.6458 22.1447 54.9803C20.0416 59.3018 18.3826 64.3675 17.5466 69.8509C15.8746 80.87 17.7948 91.0405 19.6758 98.0906C21.6091 105.18 23.3856 109.41 23.0982 109.541H23.1113Z" fill="black"/>
<path d="M23.545 97.999C23.8062 98.0904 23.8454 98.7432 23.8715 99.7616C23.8977 100.78 23.9107 102.19 23.8977 103.757C23.8715 106.89 23.6495 109.488 23.1139 109.54C22.5783 109.58 21.9121 107.008 21.9382 103.744C21.9513 102.112 22.1734 100.623 22.4999 99.5657C22.8265 98.5082 23.2837 97.9207 23.545 98.0121V97.999Z" fill="black"/>
<path d="M41.5026 130.313C41.3458 130.508 39.4648 129.438 36.8915 127.088C34.3312 124.738 31.17 121.004 28.6489 116.317C26.1017 111.63 24.6517 107.008 23.9463 103.613C23.2409 100.206 23.2671 98.0386 23.5283 98.0125C24.0378 97.9211 25.4355 106.342 30.3601 115.39C32.7898 119.907 35.6244 123.615 37.8712 126.135C40.1049 128.654 41.6724 130.104 41.4895 130.326L41.5026 130.313Z" fill="black"/>
<path d="M39.4402 122.805C39.9627 122.726 40.7334 124.267 41.3212 126.317C41.9091 128.366 42.0136 130.155 41.5041 130.312C40.9947 130.481 40.0411 128.941 39.4402 126.852C38.8263 124.763 38.8916 122.896 39.4402 122.805Z" fill="black"/>
<path d="M60.3404 138.798C60.249 139.046 58.7337 138.785 56.4478 137.884C54.1618 136.996 51.1051 135.417 48.1007 133.132C45.0963 130.86 42.745 128.34 41.282 126.356C39.8059 124.371 39.205 122.935 39.4401 122.792C39.8581 122.518 43.4765 127.218 49.2894 131.565C55.037 135.965 60.5494 138.25 60.3404 138.785V138.798Z" fill="black"/>
<path d="M56.3175 133.694C56.7878 133.432 57.872 134.359 58.9823 135.717C60.0796 137.088 60.7458 138.433 60.3408 138.798C59.949 139.164 58.6166 138.381 57.454 136.944C56.2783 135.521 55.8342 133.955 56.3175 133.694Z" fill="black"/>
<path d="M71.4445 140.326C71.4183 140.587 70.4256 140.731 68.8842 140.496C67.3428 140.287 65.2658 139.686 63.1235 138.694C58.8389 136.723 55.9913 134.112 56.3048 133.681C56.6183 133.237 59.8578 135.026 63.9334 136.906C67.9959 138.851 71.4836 139.791 71.4314 140.313L71.4445 140.326Z" fill="black"/>
<path d="M69.7084 180.577C69.4602 180.59 68.9899 178.058 69.212 173.919C69.421 169.793 70.4529 164.075 72.8957 158.226C73.7186 156.241 74.6069 154.4 75.665 152.664L76.3442 154.1C71.4326 153.474 67.4746 151.28 65.3324 149.139C63.1378 146.998 62.5369 145.196 62.7459 145.118C62.9419 145 63.8693 146.502 66.1161 148.238C68.3237 149.988 71.9943 151.75 76.5793 152.233L78.0032 152.377L77.2717 153.656C76.3703 155.236 75.4951 157.077 74.7114 158.97C72.3601 164.623 71.1453 170.067 70.5966 174.049C70.0349 178.031 70.0088 180.564 69.7214 180.577H69.7084Z" fill="black"/>
<path d="M92.0161 180.577C91.7287 180.577 91.6896 178.045 91.1409 174.049C90.5923 170.067 89.3775 164.623 87.0262 158.97C86.2424 157.077 85.3803 155.236 84.4659 153.656L83.7344 152.377L85.1582 152.233C89.7432 151.75 93.4008 149.988 95.6214 148.238C97.8682 146.502 98.7957 145 98.9916 145.118C99.1876 145.196 98.5997 146.998 96.4052 149.139C94.2629 151.28 90.3049 153.474 85.3933 154.1L86.0726 152.664C87.1307 154.4 88.0059 156.241 88.8419 158.226C91.2846 164.075 92.3166 169.793 92.5256 173.919C92.7346 178.058 92.2643 180.59 92.0292 180.577H92.0161Z" fill="black"/>
<path d="M96.3806 143.786C96.459 143.89 95.1136 145.183 92.501 146.697C89.9146 148.186 85.8782 149.831 81.1887 149.883C76.4992 149.961 72.4106 148.408 69.8111 146.932C67.1724 145.431 65.8662 144.073 65.9576 143.969C66.0621 143.825 67.5513 144.935 70.1899 146.201C72.8155 147.454 76.7213 148.786 81.1626 148.721C85.6039 148.682 89.4835 147.246 92.1091 145.979C94.7478 144.687 96.2761 143.642 96.3806 143.799V143.786Z" fill="black"/>
</g>
</g>
<defs>
<clipPath id="clip0_461_9762">
<rect width="130" height="175" fill="white" transform="translate(15 7)"/>
</clipPath>
</defs>
</svg>
