<svg width="160" height="160" viewBox="0 0 160 160" fill="none" xmlns="http://www.w3.org/2000/svg">
<g clip-path="url(#clip0_461_9592)">
<path d="M160 80C160 94.8157 155.966 108.7 148.936 120.603C147.976 122.237 146.955 123.838 145.878 125.391C145.563 125.847 145.249 126.299 144.922 126.746C141.655 131.276 137.924 135.451 133.801 139.202C126.593 145.761 118.175 151.021 108.93 154.607C108.409 154.805 107.885 155.006 107.352 155.196C98.8131 158.306 89.6042 160 79.996 160C69.0365 160 58.5933 157.794 49.0859 153.804C43.713 151.557 38.6467 148.738 33.9515 145.422C31.2368 143.51 28.6432 141.425 26.1907 139.194C26.0576 139.077 25.9285 138.956 25.7954 138.835C9.93899 124.225 0 103.27 0 80C0 35.8191 35.8151 0 80 0C124.185 0 160 35.8191 160 80Z" fill="#FFBDB3"/>
<g clip-path="url(#clip1_461_9592)">
<mask id="mask0_461_9592" style="mask-type:alpha" maskUnits="userSpaceOnUse" x="0" y="0" width="160" height="160">
<path d="M160 80C160 94.8157 155.966 108.7 148.936 120.603C147.976 122.237 146.955 123.838 145.878 125.391C145.563 125.847 145.249 126.299 144.922 126.746C141.655 131.276 137.924 135.451 133.801 139.202C126.593 145.761 118.175 151.021 108.93 154.607C108.409 154.805 107.885 155.006 107.352 155.196C98.8131 158.306 89.6042 160 79.996 160C69.0365 160 58.5933 157.794 49.0859 153.804C43.713 151.557 38.6467 148.738 33.9515 145.422C31.2368 143.51 28.6432 141.425 26.1907 139.194C26.0576 139.077 25.9285 138.956 25.7954 138.835C9.93899 124.225 0 103.27 0 80C0 35.8191 35.8151 0 80 0C124.185 0 160 35.8191 160 80Z" fill="#FFBDB3"/>
</mask>
<g mask="url(#mask0_461_9592)">
<path d="M73.121 134.694L71.2461 141.36L75.3129 145.023L74.9683 149.829L78.6766 150.449L86.0107 150.008L85.1835 145.629L88.1475 143.742L90.7392 140.809L89.016 137.628L88.4094 134.268L73.121 134.694Z" fill="#FDD7BA"/>
<path d="M139.388 76.6076L138.864 69.8322C132.316 66.7888 132.716 62.6024 132.716 62.6024L130.937 68.276L125.189 54.6702L122.032 61.6659C121.398 56.5568 114.615 47.3164 114.615 47.3164C108.301 41.2847 99.7953 40.3758 99.7953 40.3758L101.753 48.005C90.7794 47.9499 82.3425 39.4531 82.3425 39.4531C82.3425 39.4531 79.4199 47.881 75.7942 50.9933C72.1686 54.1056 68.3223 53.4033 68.3223 53.4033L70.5005 43.13C44.8865 45.9393 46.8992 63.4424 46.8992 63.4424C41.2746 60.5229 41.9088 53.1691 41.9088 53.1691C35.4157 56.9011 36.2842 69.2951 36.2842 69.2951C32.7274 69.061 29.7359 63.3873 29.7359 63.3873C29.3086 74.597 23.1325 77.1997 22.2227 77.5165C23.0222 109.135 48.9671 134.529 80.8674 134.529C112.768 134.529 139.278 108.584 139.526 76.4836C139.443 76.5387 139.388 76.58 139.388 76.58V76.6076Z" fill="#FDD7BA"/>
<path d="M49.0355 84.0717C49.6559 87.0462 47.1193 90.0896 43.3971 90.847C39.675 91.6045 36.1458 89.8142 35.5392 86.8397C34.9327 83.8651 37.4555 80.8217 41.1776 80.0643C44.8998 79.3069 48.429 81.0971 49.0355 84.0717Z" fill="#F9BAAC"/>
<path d="M114.973 84.0717C114.366 87.0462 116.889 90.0896 120.611 90.847C124.333 91.6045 127.863 89.8142 128.469 86.8397C129.089 83.8651 126.553 80.8217 122.831 80.0643C119.109 79.3069 115.579 81.0971 114.973 84.0717Z" fill="#F9BAAC"/>
<path d="M79.8219 12.448C79.8219 12.448 74.3076 5.61757 66.4359 10.6716L68.5589 12.7923C68.5589 12.7923 61.5557 11.9385 57.6406 12.5031C53.7392 13.0815 43.8548 16.5794 39.8845 24.3187L44.1305 24.3738C44.1305 24.3738 41.139 30.86 33.9566 31.2043L24.7614 31.7827C24.7614 31.7827 27.3532 36.4373 28.5525 36.9468C28.5525 36.9468 13.5674 39.7561 16.7795 59.2147L19.0817 56.8048C19.0817 56.8048 17.648 67.7666 17.5928 72.1182C17.5377 76.4837 19.6056 81.3036 22.6522 84.9116L22.0732 77.5716C22.0732 77.5716 29.2556 75.5059 29.7105 63.4011C29.7105 63.4011 32.7021 69.0748 36.2588 69.3089C36.2588 69.3089 35.4041 56.9149 41.8834 53.183C41.8834 53.183 41.2493 60.523 46.8739 63.4562C46.8739 63.4562 44.8611 45.9531 70.4751 43.1438L68.297 53.4171C68.297 53.4171 72.1432 54.1056 75.7689 51.0071C79.3945 47.9086 82.3171 39.4669 82.3171 39.4669C82.3171 39.4669 90.754 47.9637 101.728 48.0188L99.7699 40.3896C99.7699 40.3896 108.276 41.3123 114.59 47.3302C114.59 47.3302 121.372 56.5707 122.006 61.6797L125.163 54.684L130.912 68.2899L132.69 62.6162C132.69 62.6162 132.291 66.8026 138.839 69.846L139.363 76.6214C139.363 76.6214 140.976 75.6436 142.01 72.0356C143.044 68.4276 145.621 60.3302 141.21 52.9902L136.785 45.9944L141.72 48.6936C141.72 48.6936 140.796 41.7529 139.018 39.7424C139.018 39.7424 133.848 33.9998 129.023 33.4903L131.546 29.5242C131.546 29.5242 128.444 30.378 121.551 28.2573C114.659 26.1365 112.012 22.5836 112.012 22.5836L117.816 22.2944C117.816 22.2944 112.012 16.4967 108.855 15.3537C108.855 15.3537 100.873 11.0572 86.5631 14.4311L86.1634 14.0868L88.2864 11.5667C88.2864 11.5667 84.0404 7.60061 79.7805 12.4893L79.8219 12.448Z" fill="#E77025"/>
<path d="M74.9944 146C74.9944 146 72.9266 158.05 81.198 163.792C81.198 163.792 84.9891 159.551 85.7887 157.017C86.5883 154.483 85.2511 145.821 85.1684 145.628L85.0994 145.435C85.0994 145.435 92.6816 147.501 93.8258 150.999L97.6583 144.637C97.6583 144.637 108.191 147.102 111.292 150.889L111.747 179.064C111.747 179.064 104.344 183.361 101.808 183.361C101.808 183.361 70.4451 184.903 62.8078 183.65C62.8078 183.65 61.3741 183.361 59.8852 182.962C58.3963 182.562 51.5586 179.23 51.5586 179.23L52.1927 151.288C52.1927 151.288 55.0878 147.281 64.0623 145.27L67.1228 151.123C67.1228 151.123 69.7145 147.79 74.9944 146.014V146Z" fill="#C3C646"/>
<path d="M72.472 136.071C72.472 136.071 66.2684 136.595 64.7657 138.991C63.2631 141.401 64.2005 147.336 67.3988 150.738C67.3988 150.738 72.0998 145.312 76.4837 145.312L71.2451 141.332L72.472 136.058V136.071Z" fill="#A0A02D"/>
<path d="M88.63 136.167C88.63 136.167 94.6544 135.906 96.9015 140.175C99.1348 144.43 93.8411 151.618 93.8411 151.618C93.8411 151.618 90.3946 146.702 85.1836 145.628L90.5187 140.946L88.63 136.167Z" fill="#A0A02D"/>
<path d="M74.6643 149.843L86.2581 150.146C86.2581 150.146 86.8785 159.703 81.1987 163.793C81.1987 163.793 74.6229 159.193 74.6643 149.857V149.843Z" fill="white"/>
<path d="M73.1215 134.694C73.5627 134.763 73.7005 136.401 73.1629 138.302C72.639 140.216 71.6464 141.552 71.2329 141.359C70.8193 141.166 71.0812 139.651 71.5637 137.861C72.06 136.071 72.6528 134.625 73.1077 134.694H73.1215Z" fill="black"/>
<path d="M64.0761 145.271C64.1175 145.422 62.8354 145.863 60.6848 146.731C59.6095 147.171 58.3137 147.708 56.9075 148.466C55.5289 149.223 53.9849 150.187 52.7856 151.592L52.9648 151.165C52.8131 155.131 52.6615 159.772 52.565 164.716C52.4547 170.017 52.4271 174.948 52.4961 179.106L52.179 178.542C58.4102 182.535 63.3868 183.637 63.2903 183.94C63.2903 184.202 58.0931 183.623 51.4208 179.699L51.1313 179.52L51.1037 179.134C50.8693 174.948 50.8004 169.976 50.9107 164.661C51.021 159.689 51.2415 155.048 51.5448 151.055V150.793L51.724 150.628C53.1991 149.03 54.9086 148.108 56.3974 147.405C57.9139 146.703 59.2787 146.249 60.4229 145.918C62.6975 145.271 64.0485 145.106 64.0899 145.243L64.0761 145.271Z" fill="black"/>
<path d="M88.2568 134.887C88.7117 134.79 89.3734 136.126 89.9524 137.792C90.5176 139.459 90.9174 140.822 90.5452 141.084C90.1592 141.345 89.015 140.147 88.3946 138.343C87.7605 136.553 87.8156 134.983 88.2568 134.887Z" fill="black"/>
<path d="M97.6734 144.623C97.7147 144.472 99.2725 144.665 101.892 145.394C103.201 145.766 104.773 146.262 106.496 147.033C108.206 147.832 110.163 148.81 111.845 150.628L112.011 150.807V151.082C112.286 154.69 112.479 158.725 112.59 163.008C112.741 169.053 112.672 174.644 112.41 179.161L112.383 179.533L112.107 179.698C106.152 183.155 101.685 183.83 101.644 183.609C101.533 183.306 105.821 182.15 111.376 178.583L111.073 179.12C111.128 174.631 111.073 169.067 110.935 163.063C110.825 158.808 110.687 154.759 110.549 151.178L110.728 151.619C109.364 150.049 107.558 149.003 105.959 148.162C104.346 147.336 102.843 146.73 101.602 146.248C99.1071 145.298 97.6182 144.802 97.6734 144.637V144.623Z" fill="black"/>
<path d="M139.046 69.5567C139.156 69.5429 139.721 72.1594 139.804 76.9793C139.859 81.7717 139.321 88.8638 136.344 97.03C133.421 105.141 127.879 114.285 119.084 121.735C114.7 125.454 109.544 128.717 103.768 131.141C97.9914 133.565 91.6224 135.162 84.9915 135.603C78.3605 136.057 71.826 135.424 65.7741 133.826C59.7083 132.243 54.1389 129.75 49.2725 126.679C39.4983 120.537 32.7433 112.261 28.7041 104.645C24.5959 96.9887 23.0657 90.0343 22.4315 85.2971C21.8387 80.5047 22.0455 77.8469 22.142 77.8469C22.3212 77.8469 22.3902 80.4909 23.2173 85.1731C24.072 89.8278 25.8091 96.5756 29.9724 103.943C34.0805 111.283 40.7666 119.215 50.2788 125.068C55.0074 127.987 60.4114 130.37 66.2703 131.871C72.1293 133.386 78.4432 133.992 84.8398 133.537C91.2364 133.097 97.3987 131.582 102.982 129.268C108.579 126.955 113.583 123.829 117.857 120.276C126.445 113.142 131.96 104.37 134.979 96.5205C138.053 88.6297 138.797 81.7028 138.99 76.9793C139.156 72.2283 138.866 69.598 139.046 69.5705V69.5567Z" fill="black"/>
<path d="M42.1574 85.0078C42.3229 85.0078 42.3642 86.7567 42.8605 89.8415C43.3706 92.9124 44.3907 97.3605 46.9411 102.277C49.4639 107.179 53.5996 112.522 59.6102 116.668C65.5657 120.826 73.4236 123.608 81.8329 123.594C90.2423 123.622 98.1002 120.826 104.056 116.668C110.066 112.522 114.202 107.179 116.725 102.277C119.275 97.3467 120.295 92.8987 120.805 89.8415C121.288 86.7567 121.343 85.0078 121.508 85.0078C121.633 85.0078 121.853 86.7567 121.605 89.9379C121.343 93.0915 120.516 97.7323 118.034 102.924C115.594 108.088 111.39 113.789 105.145 118.224C98.9687 122.672 90.6834 125.688 81.8329 125.66C72.9825 125.688 64.6972 122.686 58.5212 118.224C52.2762 113.789 48.0715 108.088 45.6315 102.924C43.15 97.7323 42.3366 93.0915 42.0747 89.9379C41.8266 86.7567 42.0609 85.0078 42.1712 85.0078H42.1574Z" fill="black"/>
<path d="M80.729 70.8103C80.729 74.3082 79.8605 77.145 78.799 77.145C77.7375 77.145 76.8828 74.3082 76.8828 70.8103C76.8828 67.3124 77.7375 64.4756 78.799 64.4756C79.8605 64.4756 80.729 67.3124 80.729 70.8103Z" fill="black"/>
<path d="M86.7564 70.8103C86.7564 74.3082 85.9017 77.145 84.8264 77.145C83.7511 77.145 82.9102 74.3082 82.9102 70.8103C82.9102 67.3124 83.7649 64.4756 84.8264 64.4756C85.8879 64.4756 86.7564 67.3124 86.7564 70.8103Z" fill="black"/>
<path d="M65.6747 10.878C65.5506 10.6302 66.2261 9.98292 67.5633 9.29436C68.8868 8.63335 70.9133 7.88971 73.3534 8.01365C75.8072 8.11005 77.8751 9.39076 78.8401 10.6302C79.8465 11.8696 79.9843 12.8886 79.7224 12.9988C79.4605 13.1227 78.8952 12.4479 77.8337 11.6905C76.786 10.9194 75.1869 10.1757 73.2293 10.0793C71.2717 9.96914 69.4244 10.3823 68.0734 10.6715C66.7086 10.9744 65.8125 11.1535 65.6884 10.878H65.6747Z" fill="black"/>
<path d="M70.2387 13.9764C69.9492 13.9764 69.6873 13.7561 69.3426 13.5909L67.8951 12.8059C66.6544 12.1449 65.5378 11.4426 65.6756 10.8779C65.7997 10.3271 67.261 10.1481 68.8739 10.9881C69.6735 11.4012 70.3352 12.0898 70.5696 12.7921C70.8039 13.5082 70.5144 13.9902 70.2387 13.9764Z" fill="black"/>
<path d="M38.6983 24.9383C38.4915 24.773 39.4979 22.9828 41.7174 20.504C43.9369 18.0665 47.4799 14.8991 52.3187 12.9574C57.1299 10.9606 62.0514 10.9606 65.3187 11.7318C68.6273 12.4754 70.3781 13.7423 70.2264 13.9765C70.1023 14.2381 68.2275 13.5082 65.0705 13.164C61.9412 12.8059 57.5159 13.04 53.0769 14.8716C48.6241 16.6618 45.1363 19.4436 42.7375 21.5506C40.3388 23.6713 38.9189 25.1311 38.6845 24.9383H38.6983Z" fill="black"/>
<path d="M44.6803 23.9057C44.6527 24.4703 43.412 24.9247 41.8404 25.2277C40.2688 25.5169 38.8764 25.4756 38.6972 24.9385C38.518 24.4014 39.7312 23.5201 41.4682 23.2033C43.2052 22.8728 44.7078 23.3273 44.6803 23.9057Z" fill="black"/>
<path d="M24.1132 31.4797C24.1822 31.1768 25.4918 31.2732 27.5321 31.2319C29.5724 31.1905 32.3709 30.9564 35.2246 29.9098C38.092 28.877 40.3943 27.2795 41.9658 25.9988C43.5512 24.7043 44.4197 23.7679 44.6679 23.9194C44.916 24.0571 44.4197 25.3791 42.986 27.0454C41.5798 28.698 39.1398 30.7085 35.9277 31.8653C32.7156 33.0359 29.5586 33.0496 27.4218 32.7054C25.2575 32.3611 24.0443 31.7552 24.0995 31.4935L24.1132 31.4797Z" fill="black"/>
<path d="M30.0824 36.7542C30.0549 37.0296 29.5172 37.2775 28.6487 37.126C27.7802 37.0021 26.6773 36.4375 25.7813 35.5424C23.9891 33.7383 23.5893 31.6864 24.0994 31.4661C24.6233 31.2182 25.7813 32.6229 27.2288 34.0688C27.9594 34.7987 28.6349 35.3496 29.1726 35.7627C29.6964 36.1758 30.11 36.4512 30.0824 36.7404V36.7542Z" fill="black"/>
<path d="M16.8736 60.3995C16.6255 60.4684 15.8535 58.8572 15.3296 55.9928C15.0815 54.5744 14.916 52.8254 15.0539 50.8837C15.1917 48.942 15.688 46.7799 16.7357 44.7142C17.7835 42.6486 19.2861 40.9823 20.8577 39.7842C22.4293 38.5723 24.0422 37.8149 25.4208 37.3329C28.2055 36.3827 30.0528 36.4791 30.0804 36.7545C30.1217 37.0437 28.4261 37.4706 25.986 38.6825C23.5735 39.8806 20.389 42.0564 18.5693 45.6507C16.7357 49.2312 16.6668 53.1146 16.7633 55.8275C16.9012 58.5817 17.1631 60.3169 16.8598 60.3858L16.8736 60.3995Z" fill="black"/>
<path d="M21.1218 54.6565C21.1907 54.9457 20.8598 55.2625 20.4738 55.7169C20.074 56.1576 19.5915 56.736 19.109 57.4934C18.144 59.0082 17.441 60.5093 16.8757 60.4129C16.3243 60.344 16.1037 58.4023 17.372 56.3779C18.0062 55.3864 18.9574 54.6703 19.757 54.4637C20.5428 54.2296 21.0666 54.4224 21.1355 54.6841L21.1218 54.6565Z" fill="black"/>
<path d="M22.2785 84.8429C22.0717 84.9943 20.7207 83.7412 19.2181 81.1522C17.7154 78.6045 16.2266 74.5834 16.1439 69.9701C16.0336 65.3567 17.2191 61.308 18.4461 58.6227C19.673 55.9098 20.9 54.5051 21.1343 54.6566C21.3825 54.8081 20.638 56.4331 19.8109 59.1322C18.9837 61.8313 18.1014 65.6597 18.2117 69.915C18.2944 74.1702 19.4387 77.916 20.5277 80.505C21.6168 83.1077 22.5405 84.6638 22.2785 84.8429Z" fill="black"/>
<path d="M89.4851 12.3107C89.3196 12.5448 88.6579 12.3657 87.7343 12.049C86.8106 11.7323 85.5699 11.2916 84.3016 11.264C81.7375 11.1539 80.2072 13.2884 79.7247 12.9992C79.4766 12.889 79.5179 12.1179 80.2072 11.1676C80.5519 10.6994 81.0757 10.1899 81.7926 9.80431C82.5095 9.41872 83.4193 9.18461 84.343 9.21215C86.2178 9.26724 87.624 10.121 88.4511 10.7958C89.2921 11.4982 89.6505 12.1041 89.4851 12.3244V12.3107Z" fill="black"/>
<path d="M86.0397 14.6104C85.7639 14.6104 85.4744 14.335 85.4193 13.7291C85.3366 13.1369 85.8191 12.1454 86.6876 11.7322C87.5285 11.3191 88.2867 11.388 88.7692 11.5532C89.2655 11.7322 89.5275 12.0352 89.4861 12.3106C89.431 12.8752 88.3419 13.2058 87.6388 13.5776C87.308 13.7566 87.1012 13.8668 86.8392 14.1146C86.5911 14.3488 86.343 14.6242 86.0535 14.6104H86.0397Z" fill="black"/>
<path d="M118.656 23.0936C118.422 23.3002 116.974 21.9231 114.396 20.1053C111.832 18.2875 108.013 16.153 103.381 15.0513C98.7493 13.922 94.3654 13.9496 91.2222 14.1975C88.0653 14.4453 86.1215 14.8723 86.0388 14.5968C85.9423 14.3352 87.7896 13.385 91.0292 12.7515C94.2413 12.118 98.9147 11.8288 103.878 13.0407C108.854 14.225 112.88 16.7589 115.306 18.9623C117.774 21.1794 118.849 22.9283 118.656 23.0936Z" fill="black"/>
<path d="M111.418 22.0608C111.404 21.4962 113.114 21.0142 115.168 21.262C117.222 21.4962 118.78 22.3086 118.642 22.8733C118.518 23.4241 116.877 23.5343 114.933 23.3139C112.99 23.0798 111.432 22.6392 111.418 22.0608Z" fill="black"/>
<path d="M131.75 29.2897C131.861 29.5238 130.744 30.3776 128.566 30.6805C126.401 31.011 123.327 30.5428 120.377 29.207C117.413 27.885 115.069 26.1361 113.525 24.7452C111.981 23.3405 111.223 22.2664 111.416 22.0598C111.816 21.6054 115.731 24.8278 121.218 27.3204C123.948 28.5598 126.567 29.1657 128.483 29.2208C130.399 29.3034 131.64 29.0005 131.75 29.2897Z" fill="black"/>
<path d="M128.086 33.4212C128.073 33.132 128.39 32.8703 128.748 32.5674C129.12 32.2506 129.52 31.9201 129.892 31.4382C130.664 30.4742 131.188 29.2348 131.753 29.2899C132.043 29.3036 132.277 29.703 132.319 30.3365C132.346 30.9699 132.167 31.8788 131.505 32.7189C130.857 33.5727 129.823 33.972 129.162 33.9583C128.472 33.9583 128.1 33.6828 128.086 33.4074V33.4212Z" fill="black"/>
<path d="M142.091 49.9465C141.788 49.9465 141.595 48.6107 141.058 46.6001C140.534 44.6033 139.569 41.8904 137.57 39.5769C135.585 37.2358 133.089 35.8174 131.201 34.9498C129.312 34.0822 128.03 33.7104 128.071 33.4212C128.099 33.1458 129.519 32.9943 131.697 33.5727C133.848 34.1373 136.839 35.5282 139.141 38.2411C141.471 40.9402 142.326 44.1489 142.505 46.3523C142.684 48.597 142.353 49.9465 142.091 49.9465Z" fill="black"/>
<path d="M135.778 45.2512C135.805 44.9758 136.288 44.7417 137.074 44.7555C137.859 44.7555 138.948 45.0722 139.927 45.7608C141.926 47.1516 142.491 49.1347 141.981 49.3826C141.485 49.658 140.299 48.515 138.755 47.4546C137.253 46.3667 135.75 45.8296 135.778 45.2512Z" fill="black"/>
<path d="M139.913 76.58C139.637 76.4147 140.533 74.6933 141.498 71.8014C142.477 68.937 143.4 64.7919 142.739 60.2888C142.118 55.7718 140.161 51.9986 138.534 49.4509C136.88 46.8895 135.584 45.4711 135.777 45.2507C135.956 45.0304 137.666 46.1045 139.72 48.5833C141.746 51.0208 144.117 55.0282 144.793 59.9996C145.51 64.9709 144.241 69.4879 142.863 72.3522C141.47 75.2442 140.133 76.7177 139.913 76.58Z" fill="black"/>
<path d="M102.238 48.3498C102.141 48.8731 97.0406 48.3498 91.2092 45.9261C88.3141 44.7142 85.8465 43.1857 84.2749 41.7948C82.6895 40.4314 82.014 39.2333 82.2484 39.0543C82.469 38.8891 83.4202 39.6327 85.1296 40.6105C86.8253 41.6157 89.2378 42.8414 92.0225 44.0119C97.592 46.3392 102.389 47.7439 102.238 48.336V48.3498Z" fill="black"/>
<path d="M99.4792 40.1964C100.031 40.2377 100.513 41.9591 101.34 44.0661C102.126 46.2006 102.733 48.0321 102.236 48.3351C101.754 48.6381 100.279 47.1508 99.3965 44.7822C98.9553 43.5978 98.7899 42.4273 98.8588 41.5597C98.914 40.6921 99.2035 40.1826 99.4792 40.1826V40.1964Z" fill="black"/>
<path d="M122.102 61.9967C121.785 62.0518 121.344 60.2064 120.186 57.4798C119.041 54.7531 117.015 51.1726 113.706 48.1705C110.425 45.1408 106.731 43.268 103.987 42.1112C101.23 40.9544 99.4242 40.4724 99.4655 40.197C99.4931 39.9216 101.464 39.8941 104.47 40.7341C107.448 41.5741 111.542 43.3506 115.112 46.6419C118.711 49.9194 120.737 53.9957 121.564 56.984C122.419 60.0136 122.35 61.9554 122.102 61.9829V61.9967Z" fill="black"/>
<path d="M124.982 52.7014C125.52 52.6739 126.127 55.0287 125.341 57.8931C124.955 59.3115 124.266 60.4959 123.604 61.212C122.942 61.9418 122.322 62.2035 122.115 61.9969C121.743 61.6113 122.694 59.8073 123.356 57.3285C124.045 54.8772 124.403 52.7152 124.996 52.7014H124.982Z" fill="black"/>
<path d="M131.188 69.1163C130.733 69.4193 128.1 66.2933 126.212 61.6248C125.274 59.3113 124.75 57.0666 124.612 55.4141C124.461 53.7615 124.709 52.7012 124.998 52.7012C125.274 52.7012 125.564 53.6376 126.046 55.1249C126.529 56.6122 127.232 58.6365 128.128 60.8537C129.92 65.2742 131.698 68.7996 131.188 69.1163Z" fill="black"/>
<path d="M132.439 61.6523C132.991 61.8451 132.853 63.5527 132.481 65.522C132.081 67.4912 131.709 69.0336 131.171 69.1162C130.578 69.1989 130.013 67.3122 130.454 65.1502C130.868 62.9743 131.916 61.4733 132.439 61.6661V61.6523Z" fill="black"/>
<path d="M140.49 70.1487C140.449 70.4104 139.691 70.6032 138.464 70.3828C137.264 70.1625 135.583 69.3913 134.3 67.9453C133.005 66.4994 132.398 64.8606 132.191 63.6625C131.984 62.4644 132.164 61.6795 132.439 61.6519C133.005 61.5555 133.777 64.2409 135.831 66.5545C137.857 68.8818 140.573 69.5428 140.477 70.1349L140.49 70.1487Z" fill="black"/>
<path d="M67.9932 53.968C67.9519 53.6651 69.165 53.2932 70.9709 52.5358C72.7631 51.7784 75.148 50.5253 77.1194 48.4183C79.1046 46.3251 80.2626 43.8876 80.9656 42.0698C81.6687 40.2382 81.9582 39.0264 82.2477 39.0402C82.5234 39.0402 82.7578 40.376 82.3718 42.4554C81.9996 44.5073 80.9243 47.3992 78.6221 49.8229C76.3336 52.2604 73.4662 53.4723 71.4121 53.9129C69.3442 54.3674 68.0346 54.2159 67.9932 53.9543V53.968Z" fill="black"/>
<path d="M70.7504 43.1855C71.3018 43.2544 71.4948 45.8296 70.8055 48.9281C70.4609 50.4705 69.937 51.8476 69.3856 52.7702C68.8342 53.6929 68.2276 54.1611 67.9932 53.9821C67.7726 53.8168 67.8554 53.2247 68.0208 52.2469C68.2 51.283 68.4619 49.9609 68.7928 48.4874C69.4407 45.5404 70.1714 43.1305 70.7504 43.1993V43.1855Z" fill="black"/>
<path d="M47.204 63.7182C46.9834 63.7595 46.3079 61.7764 46.6801 58.4438C46.8869 56.7913 47.4521 54.822 48.6101 52.8803C49.7543 50.9524 51.4776 49.1208 53.5868 47.6611C57.819 44.7554 62.327 43.6674 65.5115 43.1717C68.7374 42.7035 70.7501 42.8825 70.7639 43.1717C70.7777 43.4609 68.8477 43.7914 65.801 44.6176C62.7957 45.4439 58.591 46.7246 54.7586 49.3687C52.8561 50.6907 51.3121 52.2606 50.2093 53.8994C49.1064 55.5381 48.4723 57.232 48.1138 58.7193C47.4108 61.6938 47.5348 63.7044 47.204 63.7182Z" fill="black"/>
<path d="M42.9593 51.4479C43.2212 51.5856 43.0282 52.3843 42.9593 53.5411C42.8766 54.6979 43.0558 56.2265 43.7864 57.8377C45.2753 61.0739 47.6051 63.2773 47.2191 63.7317C47.0537 63.9521 46.2265 63.6629 45.165 62.8504C44.1173 62.0241 42.7801 60.647 41.8978 58.6777C40.9879 56.7222 41.0017 54.5464 41.5393 53.2244C42.0494 51.8748 42.7525 51.3102 42.9731 51.4479H42.9593Z" fill="black"/>
<path d="M36.752 69.6942C36.5177 69.8044 35.7181 68.8266 35.3321 66.8849C34.9185 64.9569 35.1805 62.1339 36.3523 59.421C37.4965 56.708 39.1232 54.6011 40.4191 53.2377C41.7287 51.8744 42.7489 51.2409 42.9419 51.4475C43.383 51.8468 40.3777 55.3034 38.2547 60.2197C37.207 62.6709 36.7796 65.012 36.7796 66.7472C36.7658 68.4686 37.0278 69.584 36.7383 69.6942H36.752Z" fill="black"/>
<path d="M29.6254 62.1201C29.9287 62.1201 30.1355 62.7398 30.549 63.5385C30.9488 64.351 31.6243 65.315 32.6445 66.2377C34.6986 68.083 36.9319 69.1434 36.7526 69.708C36.6424 70.2313 33.8301 70.0523 31.2383 67.7663C29.97 66.6233 29.2256 65.0809 29.1429 63.9379C29.0326 62.7811 29.3635 62.1339 29.6254 62.1339V62.1201Z" fill="black"/>
<path d="M20.7766 77.957C20.7076 77.654 21.7829 77.296 23.1477 76.3596C24.5125 75.4369 26.029 73.7431 27.0215 71.3882C28.0279 69.0471 28.4828 66.6785 28.8137 64.9571C29.1446 63.2357 29.3238 62.134 29.6133 62.1202C29.9028 62.1065 30.2336 63.2219 30.275 65.0673C30.3026 66.8988 30.0682 69.5016 28.924 72.2007C28.345 73.5365 27.5592 74.7346 26.6631 75.671C25.767 76.6074 24.7469 77.2547 23.8508 77.6265C22.0311 78.3701 20.8179 78.1911 20.7766 77.9432V77.957Z" fill="black"/>
<path d="M71.9482 136.196C71.962 136.347 71.383 136.512 70.3767 136.802C69.3841 137.105 67.8814 137.518 66.4891 138.537C65.7998 139.046 65.207 139.749 64.8899 140.63C64.5728 141.511 64.5453 142.572 64.7796 143.701C65.2346 145.946 66.5718 148.424 68.2123 150.628L66.5718 150.655L67.0957 149.981C69.715 146.675 73.5336 144.197 77.4763 144.734L77.0766 146.469C73.6853 145.505 71.4657 143.329 70.4042 141.677C69.3152 139.983 69.1497 138.812 69.3152 138.757C69.4944 138.688 69.9907 139.666 71.2176 141.029C72.4307 142.379 74.5262 144.059 77.5177 144.748L77.1179 146.483C76.5665 146.428 75.7256 146.51 74.9949 146.717C74.2367 146.91 73.4785 147.24 72.734 147.667C71.259 148.521 69.8942 149.788 68.6948 151.275L68.2261 151.881L67.3714 152.983L66.5856 151.908C64.7383 149.402 63.3873 146.799 62.9186 144.031C62.698 142.668 62.7807 141.236 63.3183 140.01C63.856 138.785 64.7658 137.903 65.6757 137.366C67.5092 136.292 69.1497 136.127 70.2388 136.044C71.3279 135.989 71.9345 136.085 71.9482 136.209V136.196Z" fill="black"/>
<path d="M89.4171 136.195C89.4171 136.057 90.0237 135.961 91.1266 136.03C92.2018 136.112 93.8561 136.278 95.6896 137.352C96.5857 137.889 97.5094 138.784 98.047 139.996C98.5709 141.221 98.6674 142.654 98.4468 144.017C97.9781 146.785 96.6271 149.388 94.7798 151.894L93.994 152.968L93.1393 151.866L92.6706 151.26C91.4712 149.759 90.1064 148.492 88.6313 147.652C87.8869 147.226 87.1287 146.909 86.3705 146.702C85.6398 146.496 84.7989 146.413 84.2474 146.468L83.8477 144.733C86.8392 144.044 88.9346 142.378 90.1478 141.015C91.3885 139.651 91.871 138.674 92.0502 138.743C92.2156 138.798 92.0502 139.968 90.9611 141.662C89.8996 143.315 87.6801 145.49 84.2888 146.454L83.889 144.719C87.8318 144.182 91.6504 146.661 94.2697 149.966L94.7936 150.641L93.1531 150.613C94.8074 148.41 96.1308 145.931 96.5857 143.686C96.8201 142.557 96.7925 141.497 96.4754 140.615C96.1584 139.734 95.5656 139.032 94.8763 138.522C93.4839 137.503 91.9813 137.09 90.9887 136.787C89.9823 136.498 89.4033 136.333 89.4171 136.181V136.195Z" fill="black"/>
<path d="M81.3934 163.641C80.9936 163.297 84.2332 160.13 85.2534 155.048C85.7772 152.542 85.6532 150.173 85.4464 148.479C85.2396 146.772 84.9777 145.725 85.1844 145.629C85.3912 145.532 86.0667 146.483 86.5906 148.245C87.1145 149.994 87.4591 152.597 86.8801 155.392C86.3149 158.202 84.9363 160.46 83.7369 161.824C82.5238 163.201 81.545 163.793 81.3934 163.641Z" fill="black"/>
<path d="M81.3908 184.077C80.9359 184.077 80.5775 175.291 80.5637 164.343L80.8807 164.99L80.3707 164.577C78.1098 162.691 76.4693 160.281 75.5319 157.912C74.5806 155.543 74.2911 153.244 74.2773 151.357C74.2773 147.542 75.2286 145.339 75.4216 145.408C75.6559 145.463 75.1596 147.708 75.4491 151.302C75.6146 153.078 76.0006 155.199 76.938 157.334C77.8616 159.468 79.3781 161.589 81.4322 163.324L81.9009 163.71L82.218 163.971V164.357C82.2042 175.319 81.8457 184.091 81.3908 184.091V184.077Z" fill="black"/>
<path d="M86.0118 150.008C86.1083 150.366 83.6682 151.33 80.4699 151.275C77.2854 151.247 74.8453 150.201 74.9694 149.829C75.0934 149.443 77.506 149.815 80.4837 149.829C83.4614 149.884 85.9153 149.595 85.998 150.008H86.0118Z" fill="black"/>
</g>
</g>
</g>
<defs>
<clipPath id="clip0_461_9592">
<rect width="160" height="160" fill="white"/>
</clipPath>
<clipPath id="clip1_461_9592">
<rect width="130" height="177" fill="white" transform="translate(15 8)"/>
</clipPath>
</defs>
</svg>
