<svg width="160" height="180" viewBox="0 0 160 180" fill="none" xmlns="http://www.w3.org/2000/svg">
<path d="M160 79.998C160 96.8503 154.785 112.493 145.882 125.388C143.539 128.784 140.941 131.987 138.11 134.976C136.73 136.436 135.29 137.848 133.806 139.199C119.604 152.122 100.722 159.996 80.002 159.996C59.2815 159.996 40.4084 152.118 26.1981 139.195C26.065 139.078 25.9359 138.957 25.8028 138.836C24.4596 137.598 23.1528 136.311 21.8902 134.976C8.32128 120.648 0 101.295 0 79.998C0 35.8182 35.8141 0 79.9979 0C124.182 0 159.996 35.8182 159.996 79.998H160Z" fill="#96ADF1"/>
<g clip-path="url(#clip0_461_9957)">
<mask id="mask0_461_9957" style="mask-type:alpha" maskUnits="userSpaceOnUse" x="0" y="0" width="160" height="160">
<path d="M160 79.998C160 96.8503 154.785 112.493 145.882 125.388C143.539 128.784 140.941 131.987 138.11 134.976C136.73 136.436 135.29 137.848 133.806 139.199C119.604 152.122 100.722 159.996 80.002 159.996C59.2815 159.996 40.4084 152.118 26.1981 139.195C26.065 139.078 25.9359 138.957 25.8028 138.836C24.4596 137.598 23.1528 136.311 21.8902 134.976C8.32128 120.648 0 101.295 0 79.998C0 35.8182 35.8141 0 79.9979 0C124.182 0 159.996 35.8182 159.996 79.998H160Z" fill="#96ADF1"/>
</mask>
<g mask="url(#mask0_461_9957)">
<path d="M58.9623 146.285C58.9623 146.285 53.3205 147.633 50.8987 150.558L50.2222 162.635L49.9922 178.244C49.9922 178.244 57.2575 182.342 61.2082 182.8L75.7524 183.245L91.9337 182.409L99.8891 182.355L109.197 178.204L108.521 150.571C108.521 150.571 101.418 145.53 93.1243 144.007C93.1243 144.007 92.5561 151.245 89.3496 154.278L79.4324 143.603L76.9565 143.71L69.0012 154.548L64.4958 144.546L58.9758 146.285H58.9623Z" fill="#EED3EF"/>
<path d="M135.175 91.7214C135.689 90.387 136.772 82.7443 137.083 80.5607C137.083 80.372 137.11 80.1967 137.11 80.008L133.525 82.5421L132.97 75.0072C132.172 69.8312 128.153 67.1354 128.153 67.1354C127.815 73.3628 123.08 77.6222 123.08 77.6222L122.525 70.667C122.065 65.8684 119.143 61.1507 116.775 58.1987C114.407 55.2468 113.054 54.8289 113.054 54.8289C113.054 54.8289 111.661 63.9274 110.727 67.4185C109.794 70.9096 108.143 71.4218 108.143 71.4218C108.143 71.4218 107.805 63.7926 106.411 59.4119C105.018 55.0311 100.404 48.6285 100.404 48.6285C100.404 48.6285 95.3306 58.8188 94.573 60.4228C93.8153 62.0268 92.2865 62.7008 92.2865 62.7008L91.9889 44.8813C90.2165 34.8528 84.1282 30.5664 84.1282 30.5664C81.0435 27.4123 79.3117 27.3584 79.3117 27.3584C73.1422 29.542 69.381 37.8048 69.381 37.8048C66.5939 42.2664 66.161 57.9426 66.161 57.9426L66.4586 62.9973C61.5068 59.4119 58.9362 48.2915 58.9362 48.2915C50.7373 55.1929 50.602 71.4218 50.602 71.4218C44.2973 64.8035 45.8261 55.0311 45.8261 55.0311L45.3932 55.0581C34.4613 63.2534 35.8143 77.5279 35.8143 77.5279C31.5254 74.832 30.9977 66.7041 30.9977 66.7041C24.49 70.2626 26.0865 83.2161 26.0865 83.2161L22.393 81.0055C22.2577 81.6929 22.2306 82.4882 22.2712 83.3643C22.42 84.7796 22.6365 86.168 22.88 87.5429C23.8947 92.1662 25.7753 96.8435 25.7753 96.8435C26.5059 99.6606 27.9265 102.747 29.4148 105.551C39.3184 122.953 58.0568 134.693 79.5552 134.693C99.8766 134.693 117.736 124.193 127.991 108.355C131.928 101.238 135.162 91.7214 135.162 91.7214H135.175Z" fill="#FDD7BA"/>
<path d="M47.2595 84.942C47.8684 87.8535 45.3789 90.8324 41.726 91.5738C38.0595 92.3151 34.6094 90.5628 34.0141 87.6513C33.4188 84.7398 35.8947 81.7609 39.5477 81.0196C43.2007 80.2782 46.6642 82.0305 47.2595 84.942Z" fill="#F9BAAC"/>
<path d="M111.971 84.942C111.376 87.8535 113.852 90.8324 117.505 91.5738C121.171 92.3151 124.621 90.5628 125.217 87.6513C125.825 84.7398 123.336 81.7609 119.683 81.0196C116.03 80.2782 112.566 82.0305 111.971 84.942Z" fill="#F9BAAC"/>
<path d="M79.5682 12.7874C79.5682 12.7874 60.0721 6.87002 45.5279 13.3805C45.5279 13.3805 25.1254 19.5539 18.4688 46.0674L21.4048 43.6007L17.3459 53.3731C17.3459 53.3731 6.52227 74.495 14.1935 95.4955L16.5612 87.3002L17.4677 90.1039C17.4677 90.1039 21.1883 109.42 34.9478 114.474C34.9478 114.474 27.8448 104.594 25.8154 96.8434C25.8154 96.8434 21.4183 85.9523 22.433 81.0054L26.1266 83.216C26.1266 83.216 24.5165 70.2625 31.0378 66.704C31.0378 66.704 31.579 74.832 35.8543 77.5278C35.8543 77.5278 34.5013 63.2668 45.4332 55.058L45.8661 55.0311C45.8661 55.0311 44.3508 64.8035 50.6421 71.4217C50.6421 71.4217 50.7638 55.2063 58.9762 48.2915C58.9762 48.2915 61.5604 59.4118 66.4987 62.9973L66.201 57.9426C66.201 57.9426 66.6204 42.2798 69.421 37.8047C69.421 37.8047 73.1823 29.5555 79.3517 27.3583C79.3517 27.3583 81.0835 27.3988 84.1682 30.5664C84.1682 30.5664 90.2565 34.8662 92.0289 44.8813L92.3265 62.7007C92.3265 62.7007 93.8418 62.0268 94.613 60.4227C95.3707 58.8187 100.444 48.6285 100.444 48.6285C100.444 48.6285 105.058 55.0311 106.451 59.4118C107.845 63.7925 108.183 71.4217 108.183 71.4217C108.183 71.4217 109.834 70.9095 110.767 67.4184C111.701 63.9273 113.094 54.8289 113.094 54.8289C113.094 54.8289 114.447 55.2467 116.815 58.1987C119.183 61.1506 122.105 65.8683 122.565 70.6669L123.12 77.6222C123.12 77.6222 127.855 73.3627 128.193 67.1354C128.193 67.1354 132.212 69.8312 133.01 75.0072L133.565 82.5421L137.204 79.9675C137.204 79.9675 135.81 90.1578 135.215 91.7214C135.215 91.7214 129.885 107.384 124.608 113.544C124.608 113.544 125.027 114.178 126.34 113.423C127.652 112.668 132.847 109.163 136.406 102.936C136.406 102.936 141.303 93.4602 142.332 86.5049L144.618 96.3178C144.618 96.3178 146.431 91.6809 146.472 87.6372C146.472 87.6372 147.946 74.0771 145.416 64.9787C145.416 64.9787 142.251 52.0117 139.626 48.2511L135.865 41.4306L140.816 46.1483C140.816 46.1483 137.596 37.306 136.243 34.4349C136.243 34.4349 128.802 20.7401 118.574 15.6045C118.574 15.6045 108.345 9.53889 97.7248 9.795C97.7248 9.795 86.7794 9.795 79.6088 12.7874H79.5682Z" fill="#BE4440"/>
<path d="M71.2452 134.383L69.1211 141.649C69.1211 141.649 71.4211 143.226 79.2006 143.563C86.9801 143.9 88.2518 141.959 88.2518 141.959L88.7389 141.77L85.5459 134.289L71.2588 134.37L71.2452 134.383Z" fill="#FDD7BA"/>
<path d="M74.8578 147.97C74.8578 147.97 78.5784 147.809 78.7543 147.809C78.9302 147.809 82.529 148.199 82.529 148.199L81.6225 153.025C81.6225 153.025 81.3384 154.036 81.6767 154.885C82.0149 155.734 85.8979 176.223 85.8979 176.223L82.8537 182.908L75.3448 182.989L71.9219 176.223L76.5354 153.591C76.5354 153.591 75.3043 151.623 75.2501 151.461C75.196 151.3 74.6819 149.21 74.8578 147.984V147.97Z" fill="#E8C343"/>
<path d="M69.6117 139.182C69.4764 139.276 66.8923 139.613 65.7288 141.972C64.5788 144.331 65.5664 149.695 65.5664 149.695C65.5664 149.695 68.5294 154.157 68.5294 154.076C68.5294 153.995 78.5412 143.684 78.5412 143.684L72.9265 143.171L69.1517 141.797L69.6253 139.182H69.6117Z" fill="#D1B4D3"/>
<path d="M79.6503 143.536L84.0744 143.401C84.0744 143.401 88.6068 141.797 88.6068 141.689C88.6068 141.581 87.6191 139.074 87.6191 139.074C87.6191 139.074 90.3792 139.748 91.3939 141.231C92.4086 142.714 93.6533 146.933 92.4627 149.372C91.2721 151.812 89.7297 154.373 89.7297 154.373L79.6367 143.536H79.6503Z" fill="#D1B4D3"/>
<path d="M58.9492 146.083L59.2469 148.28L62.8863 147.903L62.5075 145.072L58.9492 146.083Z" fill="#EFCB67"/>
<path d="M60.2188 152.783L63.6417 152.54L64.5753 157.19L60.9764 157.379L60.2188 152.783Z" fill="#EFCB67"/>
<path d="M95.1797 157.203L98.6838 157.675L99.6038 152.944L95.8968 152.58L95.1797 157.203Z" fill="#EFCB67"/>
<path d="M96.4922 147.943L100.47 148.24L100.808 146.379L96.9116 144.91L96.4922 147.943Z" fill="#EFCB67"/>
<path d="M59.625 148.28L62.8856 147.902L63.765 152.701L60.2203 152.782L59.625 148.28Z" fill="#B2C370"/>
<path d="M60.8438 157.716L64.145 157.258L64.9838 161.895C64.9838 161.895 61.6555 162.272 61.6555 162.151C61.6555 162.029 60.8573 157.73 60.8573 157.73L60.8438 157.716Z" fill="#B2C370"/>
<path d="M94.5039 161.678L98.3057 161.975L98.6845 157.675L94.9369 157.189L94.5039 161.678Z" fill="#B2C370"/>
<path d="M95.9375 152.782L99.2387 152.823L100.47 148.24L96.4922 147.943L95.9375 152.782Z" fill="#B2C370"/>
<path d="M71.1385 134.761C71.5714 134.828 71.6932 136.513 71.1385 138.481C70.5838 140.462 69.542 141.851 69.1361 141.635C68.7302 141.433 69.0549 139.896 69.5691 138.036C70.0967 136.19 70.692 134.68 71.1385 134.747V134.761Z" fill="black"/>
<path d="M64.6998 144.52C64.7404 144.682 63.198 145.14 60.6139 146.029C59.3286 146.488 57.7727 147.054 56.095 147.863C54.4444 148.671 52.5774 149.723 51.1703 151.327L51.3462 150.895C51.1974 154.521 51.0621 158.592 50.9538 162.892C50.8185 168.58 50.7779 173.864 50.8456 178.245L50.5344 177.705C56.6768 181.628 61.5339 182.693 61.4392 182.989C61.4392 183.232 56.3656 182.666 49.7903 178.838L49.5062 178.676L49.4791 178.299C49.2356 173.891 49.1679 168.58 49.3168 162.865C49.425 158.538 49.6144 154.454 49.8715 150.815V150.545L50.0473 150.37C51.7656 148.523 53.795 147.539 55.5674 146.771C57.3533 146.016 58.9904 145.544 60.3298 145.207C63.0357 144.547 64.6322 144.385 64.6728 144.533L64.6998 144.52Z" fill="black"/>
<path d="M85.9788 134.963C86.4252 134.855 87.1152 136.378 87.7917 138.211C88.4682 140.058 89.05 141.487 88.7253 141.77C88.3735 142.08 86.9935 140.786 86.2764 138.777C85.5323 136.782 85.5458 135.044 85.9788 134.949V134.963Z" fill="black"/>
<path d="M93.125 143.994C93.1656 143.845 94.938 144.021 97.9009 144.762C99.3756 145.139 101.162 145.665 103.123 146.474C105.058 147.31 107.277 148.347 109.157 150.356L109.32 150.531V150.801C109.563 154.063 109.739 157.648 109.847 161.395C110.023 167.744 109.956 173.607 109.685 178.271L109.658 178.635L109.387 178.797C103.529 182.194 99.1592 182.854 99.1321 182.638C99.0239 182.355 103.218 181.223 108.684 177.719L108.386 178.231C108.454 173.58 108.386 167.757 108.21 161.436C108.102 157.702 107.98 154.13 107.832 150.882L108.021 151.326C106.492 149.588 104.422 148.482 102.609 147.606C100.769 146.743 99.0645 146.123 97.6439 145.625C94.8027 144.654 93.0979 144.155 93.1385 143.98L93.125 143.994Z" fill="black"/>
<path d="M137.015 80.5204C137.123 80.5204 137.245 82.9736 136.636 87.3678C135.987 91.735 134.499 98.0972 130.738 105.147C127.03 112.169 120.929 119.853 112.121 125.797C107.737 128.762 102.704 131.283 97.1978 133.022C91.7048 134.774 85.7113 135.745 79.5959 135.745C67.284 135.798 55.7839 131.795 47.0303 125.837C38.2091 119.906 32.1073 112.223 28.3867 105.214C24.6254 98.1646 23.1101 91.8024 22.4607 87.4352C21.8384 83.041 21.9601 80.5878 22.0684 80.5878C22.2443 80.5878 22.3795 83.014 23.2454 87.3004C24.1249 91.5598 25.816 97.7333 29.6449 104.527C33.4332 111.28 39.4809 118.626 48.0721 124.287C56.5822 129.962 67.717 133.763 79.5689 133.723C91.4613 133.75 102.556 129.935 111.079 124.247C119.657 118.572 125.705 111.226 129.479 104.459C133.295 97.6659 134.986 91.4924 135.852 87.2195C136.704 82.9331 136.839 80.4934 137.015 80.5069V80.5204Z" fill="black"/>
<path d="M40.82 85.9121C40.9824 85.9121 41.023 87.624 41.51 90.6433C42.0106 93.6491 43.0118 98.0029 45.5148 102.815C47.9907 107.614 52.0495 112.843 57.9484 116.901C63.7932 120.971 71.505 123.708 79.758 123.681C88.011 123.708 95.7228 120.971 101.568 116.901C107.466 112.843 111.525 107.614 114.001 102.815C116.504 97.9894 117.505 93.6357 118.006 90.6433C118.479 87.624 118.534 85.9121 118.696 85.9121C118.818 85.9121 119.034 87.624 118.791 90.7376C118.52 93.8244 117.722 98.3669 115.3 103.448C112.905 108.503 108.779 114.084 102.65 118.424C96.5887 122.778 88.4575 125.73 79.7715 125.703C71.0856 125.73 62.9543 122.791 56.8931 118.424C50.7642 114.084 46.6377 108.503 44.243 103.448C41.8077 98.3669 41.0094 93.8244 40.7524 90.7376C40.5088 87.624 40.7388 85.9121 40.8471 85.9121H40.82Z" fill="black"/>
<path d="M78.6732 72.0012C78.6732 75.4249 77.8208 78.2016 76.779 78.2016C75.7373 78.2016 74.8984 75.4249 74.8984 72.0012C74.8984 68.5775 75.7373 65.8008 76.779 65.8008C77.8208 65.8008 78.6732 68.5775 78.6732 72.0012Z" fill="black"/>
<path d="M84.5872 72.0012C84.5872 75.4249 83.7484 78.2016 82.6931 78.2016C81.6378 78.2016 80.8125 75.4249 80.8125 72.0012C80.8125 68.5775 81.6513 65.8008 82.6931 65.8008C83.7349 65.8008 84.5872 68.5775 84.5872 72.0012Z" fill="black"/>
<path d="M141.261 47.2677C140.936 47.3755 139.651 43.0352 136.458 36.5787C134.834 33.3707 132.67 29.6504 129.68 25.9976C126.703 22.3447 122.847 18.7862 118.126 16.1039C113.417 13.408 108.371 11.8984 103.703 11.2109C99.0218 10.5235 94.7194 10.5909 91.1341 10.9144C83.9364 11.5883 79.6475 13.0711 79.5528 12.788C79.4446 12.5588 83.6387 10.5505 90.9718 9.49908C94.6247 8.98687 99.0759 8.75772 103.96 9.37777C108.831 9.98433 114.161 11.5075 119.127 14.3516C124.106 17.1687 128.124 20.9698 131.141 24.8384C134.172 28.7069 136.255 32.6158 137.743 35.9722C140.666 42.7252 141.464 47.2273 141.247 47.2812L141.261 47.2677Z" fill="black"/>
<path d="M133.484 38.9639C133.795 38.5057 136.257 39.6783 138.503 42.0776C140.763 44.45 141.777 47.011 141.263 47.2806C140.79 47.5502 139.126 45.6766 137.015 43.466C134.932 41.2284 133.159 39.4357 133.484 38.9774V38.9639Z" fill="black"/>
<path d="M144.538 97.2615C144.227 97.1806 145.052 93.8243 145.674 88.3517C146.297 82.8927 146.513 75.223 144.93 66.9873C143.388 58.7515 140.425 51.6749 137.881 46.7955C135.338 41.9025 133.268 39.1393 133.484 38.9641C133.687 38.7754 136.204 41.269 139.126 46.0946C142.049 50.8931 145.336 58.1045 146.919 66.6098C148.556 75.1017 148.096 83.0275 147.081 88.5404C146.08 94.0939 144.754 97.3289 144.524 97.248L144.538 97.2615Z" fill="black"/>
<path d="M142.277 83.6611C142.832 83.4589 144.185 86.4244 144.726 90.2524C145.308 94.067 145.091 97.2212 144.523 97.2616C143.968 97.302 143.278 94.2827 142.71 90.5625C142.182 86.8287 141.763 83.8498 142.264 83.6746L142.277 83.6611Z" fill="black"/>
<path d="M124.69 114.326C124.528 114.07 126.233 112.87 128.641 110.66C131.049 108.449 134.093 105.093 136.502 100.753C138.923 96.4259 140.249 92.0721 141.007 88.8911C141.765 85.6965 141.995 83.6611 142.279 83.6611C142.563 83.6611 142.847 85.7639 142.428 89.1472C142.008 92.5035 140.831 97.1538 138.274 101.737C135.744 106.333 132.307 109.77 129.561 111.765C126.801 113.787 124.812 114.542 124.69 114.326Z" fill="black"/>
<path d="M17.8581 47.2676C17.7228 47.2406 17.8581 46.1084 18.3452 44.1269C18.8323 42.1455 19.6576 39.3014 21.1052 35.9316C22.5529 32.5618 24.6364 28.6529 27.7212 24.8383C30.7924 21.0237 34.9189 17.3573 39.9518 14.7019C44.9713 12.0196 50.2884 10.6043 55.132 9.9977C59.9891 9.39114 64.4132 9.53941 68.0662 9.94378C75.3857 10.793 79.6475 12.5453 79.5528 12.7879C79.4716 13.0709 75.1286 11.8443 67.9444 11.3726C64.3591 11.1569 60.0703 11.1569 55.389 11.8443C50.7214 12.5318 45.6748 13.9336 40.9124 16.4812C36.1365 19.0153 32.1859 22.439 29.1688 26.0244C26.1382 29.6099 23.987 33.3167 22.4176 36.5247C19.3058 42.9812 18.1964 47.3619 17.8581 47.2676Z" fill="black"/>
<path d="M25.6392 38.9638C25.9639 39.422 24.1915 41.2283 22.108 43.4523C19.9974 45.6764 18.3333 47.5365 17.8597 47.2669C17.3591 46.9973 18.3738 44.4363 20.6197 42.064C22.8656 39.6647 25.328 38.492 25.6392 38.9503V38.9638Z" fill="black"/>
<path d="M14.5867 97.2615C14.3567 97.3289 13.0714 94.067 12.0431 88.5135C11.0149 82.9871 10.3925 75.0613 11.8808 66.5021C13.3285 57.9293 16.6297 50.6506 19.6873 45.9059C22.745 41.1208 25.4374 38.7619 25.6268 38.9641C25.8297 39.1528 23.5838 41.7813 20.9185 46.6338C18.2532 51.4593 15.2632 58.5628 13.8696 66.8525C12.422 75.1287 12.8008 82.8253 13.4502 88.3114C14.0996 93.8109 14.8843 97.1941 14.5732 97.2615H14.5867Z" fill="black"/>
<path d="M16.8432 83.6609C17.3438 83.8362 16.9244 86.8285 16.3968 90.5488C15.8285 94.269 15.152 97.2884 14.5838 97.2479C14.0291 97.2075 13.8126 94.0534 14.3809 90.2388C14.922 86.4107 16.275 83.4453 16.8297 83.6475L16.8432 83.6609Z" fill="black"/>
<path d="M35.6793 115.054C35.5981 115.283 33.3928 114.825 30.2945 112.952C27.2098 111.118 23.4215 107.56 20.8374 102.68C18.2127 97.8279 17.1168 92.9215 16.7109 89.4169C16.305 85.8854 16.5756 83.6748 16.8462 83.6748C17.1303 83.6748 17.3738 85.818 18.1315 89.1878C18.8891 92.5441 20.1609 97.1674 22.6233 101.737C25.0721 106.333 28.3733 109.744 31.1063 111.792C33.8257 113.855 35.8146 114.785 35.6793 115.081V115.054Z" fill="black"/>
<path d="M66.7427 63.4428C66.4856 63.4833 65.8497 61.2457 65.4709 57.512C65.1056 53.8052 65.0109 48.5079 66.4856 42.8601C67.2297 40.0565 68.3256 37.455 69.6651 35.2983C70.991 33.1282 72.5469 31.4028 74.008 30.1628C76.9575 27.6556 79.4199 27.1165 79.474 27.3861C79.5822 27.6422 77.4851 28.6127 74.9822 31.2007C72.4521 33.7482 69.8004 38.0481 68.4339 43.3858C67.0403 48.7101 66.8915 53.7917 66.8915 57.4446C66.8915 61.1109 67.0268 63.4024 66.7292 63.4428H66.7427Z" fill="black"/>
<path d="M58.0555 42.55C58.6237 42.5096 59.3814 47.5373 61.8437 53.2121C64.2385 58.9272 67.1473 63.0923 66.7279 63.4428C66.3085 63.8336 62.4931 60.019 59.9631 53.9939C58.6913 51.0015 58.0284 48.1169 57.8119 46.0007C57.5954 43.8845 57.7713 42.5635 58.0419 42.55H58.0555Z" fill="black"/>
<path d="M50.9516 71.9885C50.6945 72.0289 50.1533 70.6001 50.018 68.1469C49.8692 65.7072 50.2616 62.2565 51.5875 58.7519C52.8863 55.2339 54.7534 52.3898 56.2687 50.5027C57.784 48.6156 58.961 47.6586 59.164 47.8203C59.6646 48.1978 55.9845 52.8481 53.4951 59.4394C52.2504 62.7283 51.6822 65.8555 51.4522 68.1604C51.2357 70.4653 51.2492 71.9346 50.9516 71.975V71.9885Z" fill="black"/>
<path d="M45.9884 54.4654C46.5972 54.5328 46.3672 58.6843 47.7066 63.456C48.9784 68.268 51.3461 71.6378 50.9537 71.9883C50.7508 72.177 49.8173 71.5435 48.7349 70.1551C47.6661 68.7668 46.4619 66.5966 45.7584 63.9951C45.0278 61.3937 44.9602 58.927 45.136 57.2016C45.3254 55.4628 45.7178 54.4384 45.9884 54.4654Z" fill="black"/>
<path d="M36.0683 78.2691C35.8112 78.3096 35.2701 76.8403 35.1212 74.3197C34.9724 71.8126 35.4054 68.2406 36.9748 64.6956C38.5307 61.1371 40.7631 58.3873 42.576 56.689C44.4025 54.9636 45.8096 54.2358 45.9719 54.4649C46.3507 54.8828 41.7236 58.8996 38.8283 65.5178C37.3807 68.7933 36.7718 72.0148 36.5418 74.3602C36.3118 76.719 36.3524 78.2422 36.0548 78.2826L36.0683 78.2691Z" fill="black"/>
<path d="M30.9974 66.7041C31.2815 66.7176 31.4709 67.432 31.8362 68.4699C32.188 69.5212 32.7427 70.9096 33.4868 72.4462C34.9886 75.4925 36.5039 77.9188 36.0709 78.2827C35.665 78.6466 33.3244 76.6787 31.6603 73.3358C30.835 71.6644 30.4291 69.9661 30.4156 68.7125C30.3885 67.4455 30.7268 66.7041 30.9974 66.7176V66.7041Z" fill="black"/>
<path d="M26.0977 83.2163C25.8406 83.2567 25.3806 82.2997 25.11 80.6417C24.8259 78.9838 24.7989 76.5845 25.4889 74.0504C26.1789 71.5163 27.4777 69.4405 28.6548 68.2005C29.8318 66.9469 30.8465 66.4751 31.0089 66.7043C31.1848 66.9199 30.5895 67.7152 29.8048 69.0631C29.0201 70.411 28.073 72.3251 27.4506 74.5761C26.2195 79.1051 26.72 83.1219 26.1112 83.2163H26.0977Z" fill="black"/>
<path d="M18.2533 72.7697C18.5509 72.7562 18.7945 73.4841 19.295 74.522C19.7686 75.5734 20.5668 76.9078 21.6762 78.2557C23.9221 80.9516 26.371 82.7173 26.0869 83.2161C25.8569 83.7013 22.7045 82.6365 20.1068 79.5363C18.8215 77.9996 18.0774 76.2339 17.915 74.9129C17.7256 73.5919 17.9962 72.7697 18.2533 72.7697Z" fill="black"/>
<path d="M92.2176 63.4428C91.9199 63.4024 92.0417 61.1109 92.0552 57.4446C92.0552 53.7917 91.9064 48.7101 90.5129 43.3858C89.1464 38.0481 86.4946 33.7482 83.9646 31.2007C81.4616 28.6127 79.3645 27.6422 79.4728 27.3861C79.5404 27.1165 81.9893 27.6556 84.9387 30.1628C86.3999 31.4028 87.9558 33.1282 89.2817 35.2983C90.6211 37.455 91.717 40.0565 92.4611 42.8601C93.9358 48.5079 93.8411 53.7917 93.4758 57.512C93.097 61.2457 92.4611 63.4833 92.204 63.4428H92.2176Z" fill="black"/>
<path d="M101.687 41.3233C101.958 41.3502 102.134 42.7521 101.863 44.9896C101.593 47.2272 100.821 50.2869 99.4143 53.4276C96.6136 59.7493 92.636 63.82 92.2166 63.4426C91.7836 63.0921 94.8819 58.644 97.5607 52.6053C100.321 46.6071 101.146 41.2694 101.701 41.3098L101.687 41.3233Z" fill="black"/>
<path d="M108.008 71.9886C107.71 71.9482 107.724 70.5059 107.521 68.2684C107.318 66.0308 106.777 62.9845 105.6 59.763C103.245 53.32 99.7549 48.737 100.255 48.3596C100.472 48.1979 101.595 49.1414 103.056 51.0015C104.504 52.8482 106.29 55.6519 107.521 59.089C108.779 62.5127 109.131 65.8825 108.968 68.2549C108.806 70.6407 108.278 72.0425 108.021 72.0021L108.008 71.9886Z" fill="black"/>
<path d="M112.958 54.4654C113.228 54.4384 113.621 55.4628 113.81 57.2016C114 58.927 113.918 61.4071 113.188 63.9951C112.484 66.5966 111.28 68.7668 110.211 70.1551C109.129 71.5569 108.195 72.1905 107.993 71.9883C107.6 71.6378 109.968 68.268 111.24 63.456C112.579 58.6843 112.363 54.5193 112.958 54.4654Z" fill="black"/>
<path d="M122.89 78.2694C122.592 78.229 122.619 76.7193 122.403 74.347C122.186 71.9881 121.564 68.7801 120.116 65.5046C117.221 58.8864 112.58 54.8696 112.973 54.4517C113.135 54.2226 114.542 54.9639 116.368 56.6758C118.181 58.3876 120.427 61.1374 121.97 64.6824C123.539 68.2274 123.972 71.7994 123.823 74.3065C123.688 76.8271 123.133 78.2964 122.876 78.2559L122.89 78.2694Z" fill="black"/>
<path d="M127.961 66.7039C128.232 66.677 128.57 67.4318 128.543 68.6988C128.543 69.9524 128.124 71.6642 127.298 73.3222C125.648 76.6785 123.293 78.6464 122.888 78.269C122.455 77.9051 123.97 75.4788 125.472 72.4326C126.229 70.9094 126.771 69.5076 127.122 68.4562C127.488 67.4183 127.664 66.7174 127.961 66.6904V66.7039Z" fill="black"/>
<path d="M133.251 82.9875C132.629 82.9066 133.156 78.8764 131.803 74.4013C131.14 72.1637 130.112 70.3036 129.26 68.9961C128.407 67.6886 127.771 66.9203 127.947 66.7047C128.11 66.4755 129.138 66.8934 130.369 68.093C131.6 69.2792 132.994 71.3011 133.752 73.8217C134.509 76.3423 134.509 78.755 134.239 80.413C133.968 82.0844 133.522 83.0414 133.251 82.9875Z" fill="black"/>
<path d="M140.695 72.7696C140.952 72.7696 141.223 73.5648 141.06 74.8454C140.925 76.1259 140.249 77.8512 139.031 79.3744C136.569 82.4476 133.47 83.4855 133.254 82.9868C132.97 82.4881 135.324 80.7762 137.435 78.1208C139.613 75.5193 140.14 72.7561 140.695 72.7696Z" fill="black"/>
<path d="M69.6095 139.182C69.6637 139.303 69.2442 139.586 68.5407 140.098C67.8507 140.624 66.836 141.406 66.173 142.7C65.4966 143.98 65.3613 145.773 65.9295 147.714C66.4707 149.642 67.6072 151.758 69.0413 153.645L67.526 153.578L69.6907 151.259C72.4507 148.307 75.0755 145.598 77.3484 143.32L77.9302 144.776C74.7913 144.506 72.2072 143.819 70.516 143.037C68.8113 142.269 68.0401 141.446 68.1754 141.298C68.2836 141.163 69.1631 141.635 70.8678 142.093C72.559 142.552 75.0349 142.969 78.0384 143.05L79.8649 143.104L78.6202 144.506C76.4825 146.919 73.939 149.709 71.179 152.648L69.0007 154.952L68.1754 155.829L67.4854 154.885C65.8619 152.688 64.7524 150.423 64.2248 148.132C63.6701 145.867 63.9948 143.522 65.0366 142.026C66.0513 140.503 67.3501 139.829 68.2025 139.478C69.0684 139.128 69.5825 139.087 69.6366 139.195L69.6095 139.182Z" fill="black"/>
<path d="M88.0916 139.182C88.1322 139.074 88.6463 139.128 89.5257 139.465C90.3646 139.829 91.6634 140.503 92.6916 142.013C93.7334 143.522 94.0581 145.868 93.5034 148.119C92.9622 150.41 91.8663 152.661 90.2428 154.872L89.5528 155.815L88.7275 154.939L86.5492 152.634C83.7892 149.682 81.2457 146.892 79.108 144.493L77.8633 143.091L79.6898 143.037C82.6933 142.956 85.1828 142.538 86.8604 142.08C88.5516 141.635 89.431 141.15 89.5528 141.285C89.6746 141.419 88.9169 142.255 87.2122 143.023C85.521 143.805 82.9369 144.493 79.798 144.762L80.3798 143.307C82.6527 145.585 85.2775 148.307 88.0375 151.246L90.2022 153.564L88.6869 153.632C90.1346 151.745 91.2575 149.615 91.7987 147.701C92.3669 145.76 92.2316 143.967 91.5552 142.687C90.8922 141.393 89.8775 140.611 89.1875 140.085C88.484 139.573 88.0645 139.29 88.1187 139.168L88.0916 139.182Z" fill="black"/>
<path d="M74.8339 148.388C75.0774 148.388 75.118 149.736 75.9162 151.529C76.3221 152.405 77.0257 153.308 78.0945 153.483C78.6086 153.578 79.2851 153.524 79.8398 153.321C80.3945 153.119 80.8275 152.755 81.1251 152.189C81.7069 151.084 81.7069 149.534 81.5581 148.348L82.0857 148.914C78.2163 147.62 75.2939 148.496 75.2127 148.199C75.1451 148.051 75.808 147.579 77.1068 147.283C78.4057 146.986 80.3539 146.905 82.5187 147.485L82.9516 147.606L83.0463 148.065C83.2087 148.833 83.2628 149.588 83.2222 150.41C83.1816 151.232 83.0192 152.108 82.5728 152.971C82.1263 153.847 81.2739 154.562 80.381 154.831C79.488 155.114 78.6492 155.141 77.7968 154.939C76.958 154.737 76.2274 154.238 75.7809 153.658C75.3074 153.092 75.0503 152.486 74.8745 151.933C74.2521 149.722 74.6851 148.361 74.8745 148.375L74.8339 148.388Z" fill="black"/>
<path d="M75.3599 182.989C75.0893 183.124 73.5199 180.455 71.4228 176.385L71.3281 176.196L71.3687 175.94C71.734 173.729 72.2075 171.155 72.7623 168.418C74.4129 160.129 76.104 153.497 76.5505 153.578C76.997 153.659 76.0093 160.452 74.3587 168.728C73.8176 171.465 73.2628 174.012 72.7623 176.209L72.7081 175.778C74.5482 179.97 75.644 182.855 75.3735 182.989H75.3599Z" fill="black"/>
<path d="M82.5422 182.989C82.2717 182.855 83.354 179.97 85.2076 175.778L85.1534 176.209C84.6528 174.026 84.0981 171.465 83.557 168.728C81.9064 160.439 80.9187 153.659 81.3652 153.578C81.8116 153.497 83.5028 160.129 85.1534 168.418C85.6946 171.155 86.1682 173.716 86.547 175.94L86.5876 176.196L86.4929 176.385C84.3958 180.455 82.8264 183.124 82.5558 182.989H82.5422Z" fill="black"/>
<path d="M62.5067 182.477C62.1144 182.477 61.8844 174.174 60.8426 164.011C59.8414 153.834 58.4749 145.652 58.8537 145.571C59.2461 145.477 61.262 153.618 62.2632 163.862C63.3185 174.107 62.8991 182.477 62.5202 182.464L62.5067 182.477Z" fill="black"/>
<path d="M66.5106 182.706C66.1318 182.706 65.8477 174.254 64.63 163.889C63.453 153.523 62.1135 145.153 62.5194 145.085C62.8847 145.018 64.86 153.294 66.0506 163.741C67.2818 174.173 66.9301 182.733 66.5242 182.719L66.5106 182.706Z" fill="black"/>
<path d="M97.2243 182.814C96.832 182.814 96.4261 174.457 97.4814 164.213C98.4826 153.969 100.485 145.827 100.891 145.922C101.256 146.003 99.8897 154.184 98.902 164.361C97.8602 174.524 97.6302 182.828 97.2379 182.828L97.2243 182.814Z" fill="black"/>
<path d="M93.22 183.043C92.8141 183.043 92.4623 174.538 93.5447 164.132C94.573 153.712 96.44 145.423 96.8324 145.504C97.2112 145.571 95.98 153.928 94.9518 164.267C93.883 174.605 93.5988 183.043 93.22 183.043Z" fill="black"/>
<path d="M64.5777 157.19C64.5913 157.473 63.7254 157.743 62.643 157.878C61.5607 157.999 60.6542 157.931 60.6001 157.662C60.5459 157.392 61.4118 157.001 62.5213 156.867C63.6307 156.732 64.5642 156.907 64.5777 157.19Z" fill="black"/>
<path d="M63.9123 152.701C63.9123 152.984 63.0329 153.213 61.937 153.281C60.8547 153.348 59.9482 153.227 59.9076 152.957C59.867 152.674 60.7464 152.337 61.8694 152.27C62.9923 152.202 63.8988 152.431 63.8988 152.701H63.9123Z" fill="black"/>
<path d="M62.8842 147.902C62.8842 148.185 62.0995 148.442 61.1119 148.549C60.1242 148.644 59.2989 148.549 59.2448 148.293C59.1907 148.01 59.9889 147.646 61.0036 147.552C62.0319 147.458 62.8707 147.646 62.8842 147.916V147.902Z" fill="black"/>
<path d="M94.9377 157.19C94.9512 156.907 95.8712 156.746 96.9941 156.867C98.1171 156.988 98.9695 157.379 98.9153 157.662C98.8612 157.932 97.9547 157.999 96.8724 157.878C95.79 157.757 94.9241 157.473 94.9377 157.19Z" fill="black"/>
<path d="M95.5995 152.702C95.5995 152.419 96.5059 152.203 97.6289 152.27C98.7518 152.338 99.6313 152.675 99.5907 152.958C99.5501 153.227 98.6571 153.349 97.5612 153.281C96.4789 153.214 95.5859 152.985 95.5859 152.702H95.5995Z" fill="black"/>
<path d="M96.4923 147.943C96.4923 147.66 97.4529 147.485 98.6029 147.593C99.753 147.701 100.646 148.051 100.605 148.321C100.565 148.59 99.6312 148.698 98.5082 148.59C97.3853 148.482 96.4788 148.213 96.4923 147.943Z" fill="black"/>
</g>
</g>
<defs>
<clipPath id="clip0_461_9957">
<rect width="137" height="175" fill="white" transform="translate(11 9)"/>
</clipPath>
</defs>
</svg>
