<svg width="160" height="180" viewBox="0 0 160 180" fill="none" xmlns="http://www.w3.org/2000/svg">
<path d="M0.00403762 80.004C0.00403762 96.8567 5.21959 112.499 14.1219 125.395C14.1703 125.468 14.2228 125.54 14.2752 125.609C16.5744 128.929 19.1197 132.059 21.8948 134.983C23.2744 136.443 24.7143 137.855 26.1987 139.206C29.5265 142.236 33.1125 144.987 36.9203 147.419C41.914 150.622 47.2788 153.28 52.9501 155.317C61.3967 158.35 70.5087 160.004 80 160.004C93.3071 160.004 105.86 156.753 116.9 150.993C123.043 147.794 128.719 143.821 133.801 139.198C133.934 139.081 134.063 138.96 134.197 138.839C135.54 137.601 136.847 136.314 138.109 134.979C151.679 120.651 160 101.298 160 80C160 35.8191 124.185 0 80 0C35.815 0 0 35.8191 0 80L0.00403762 80.004Z" fill="#FFC09F"/>
<g clip-path="url(#clip0_461_9788)">
<mask id="mask0_461_9788" style="mask-type:alpha" maskUnits="userSpaceOnUse" x="0" y="0" width="160" height="161">
<path d="M0.00403762 80.004C0.00403762 96.8567 5.21959 112.499 14.1219 125.395C14.1703 125.468 14.2228 125.54 14.2752 125.609C16.5744 128.929 19.1197 132.059 21.8948 134.983C23.2744 136.443 24.7143 137.855 26.1987 139.206C29.5265 142.236 33.1125 144.987 36.9203 147.419C41.914 150.622 47.2788 153.28 52.9501 155.317C61.3967 158.35 70.5087 160.004 80 160.004C93.3071 160.004 105.86 156.753 116.9 150.993C123.043 147.794 128.719 143.821 133.801 139.198C133.934 139.081 134.063 138.96 134.197 138.839C135.54 137.601 136.847 136.314 138.109 134.979C151.679 120.651 160 101.298 160 80C160 35.8191 124.185 0 80 0C35.815 0 0 35.8191 0 80L0.00403762 80.004Z" fill="#FFC09F"/>
</mask>
<g mask="url(#mask0_461_9788)">
<path d="M61.7018 148.378C61.7018 148.378 53.8099 150.57 49.4146 154.266L49.2461 183.07C49.2461 183.07 56.0006 186.934 60.5644 187.721L78.904 188.508L100.319 187.37C100.319 187.37 106.989 185.796 110.233 182.888L109.882 154.252C109.882 154.252 105.318 150.121 94.9686 147.493L88.2142 148.814L77.0644 150.05L69.8325 149.264L61.7018 148.378Z" fill="#AB426D"/>
<path d="M139.23 78.1232C139.23 110.904 112.675 137.489 79.9001 137.489C47.1248 137.489 20.5703 110.904 20.5703 78.1232C20.5703 45.3423 47.1388 18.7578 79.9001 18.7578C112.661 18.7578 139.23 45.3423 139.23 78.1232Z" fill="#FDD7BA"/>
<path d="M45.7651 85.599C46.3971 88.634 43.8132 91.7393 40.0217 92.5121C36.2162 93.2849 32.6354 91.4583 32.0175 88.4233C31.3996 85.3883 33.9694 82.283 37.7609 81.5102C41.5524 80.7374 45.1473 82.564 45.7651 85.599Z" fill="#F9BAAC"/>
<path d="M112.932 85.599C112.314 88.634 114.883 91.7393 118.675 92.5121C122.48 93.2849 126.061 91.4583 126.679 88.4233C127.311 85.3883 124.727 82.283 120.936 81.5102C117.144 80.7374 113.549 82.564 112.932 85.599Z" fill="#F9BAAC"/>
<path d="M108.337 21.7788C108.337 21.7788 97.3413 6.46327 72.0647 6.81455L76.3617 9.97602C76.3617 9.97602 56.7864 10.243 40.7217 19.4604C40.7217 19.4604 26.5107 23.8443 17.9026 47.9137C17.9026 47.9137 12.9877 63.5384 14.5604 73.0368L16.4983 69.3555C16.4983 69.3555 16.4983 82.8725 17.9026 89.8137C19.3068 96.7549 21.8485 101.588 26.3281 104.216C26.3281 104.216 20.1775 91.3031 20.2758 78.8399C20.2758 78.8399 20.6268 68.7934 21.1604 67.5007C21.1604 67.5007 47.0549 68.4 68.4698 59.0842L59.0753 66.194C59.0753 66.194 78.117 63.9177 94.0132 51.7074L91.9911 59.0842C91.9911 59.0842 100.936 55.9227 107.606 43.1925C107.606 43.1925 109.98 50.9206 113.659 53.1125L114.445 48.4617C114.445 48.4617 119.29 62.1473 138.191 67.1214C138.191 67.1214 142.783 86.1464 132.869 104.413C132.869 104.413 135.593 104.848 140.508 93.7901C145.423 82.732 143.401 71.4772 141.21 66.6577L144.721 70.1704C144.721 70.1704 145.69 62.1754 144.454 52.3397C144.454 52.3397 139.399 25.1089 108.309 21.821L108.337 21.7788Z" fill="#6D3616"/>
<path d="M71.0117 137.25L69.4389 144.037L67.6836 146.847C67.6836 146.847 69.6074 149.25 69.8461 149.25C70.0849 149.25 79.5636 150.065 79.5636 150.065L88.4525 149.123L89.9832 145.877L87.7504 141.873L86.4023 136.955L71.0117 137.25Z" fill="#FDD7BA"/>
<path d="M67.6722 146.847L68.7535 143.531C67.939 142.899 67.0543 142.281 66.3943 141.62C65.7063 142.056 65.0041 142.604 64.3862 143.348C63.4033 144.515 62.7433 145.92 62.4062 147.367C64.5407 147.845 66.4224 147.985 68.5709 148.013C68.2058 147.62 67.8828 147.226 67.6582 146.861L67.6722 146.847Z" fill="#FE9900"/>
<path d="M75.5906 153.297C74.1583 152.397 72.7681 151.47 71.5323 150.557C68.8502 151.863 66.1821 153.03 63.5 153.606C64.483 155.165 66.2523 157.526 68.5413 159.732C71.1953 157.99 73.4281 155.531 75.5906 153.283V153.297Z" fill="#FE9900"/>
<path d="M79.2843 155.488C78.7648 158.832 77.0375 161.755 76.5039 164.945C77.3886 165.24 78.2873 165.45 79.2001 165.521C79.2001 165.521 82.2192 166.785 83.5252 162.992C83.5252 162.992 85.6456 161.657 86.6286 159.38C86.6286 159.38 83.2303 157.736 79.2843 155.488Z" fill="#FE9900"/>
<path d="M75.5923 153.297C73.4298 155.545 71.197 158.004 68.543 159.746C70.8038 161.938 73.5562 163.976 76.5051 164.945C77.0387 161.756 78.7659 158.833 79.2855 155.489C78.0779 154.8 76.8281 154.07 75.5923 153.297Z" fill="#4B4B4B"/>
<path d="M63.5005 153.62C66.1826 153.03 68.8507 151.864 71.5328 150.571C70.3673 149.7 69.3422 148.828 68.5839 148.014C66.4354 147.985 64.5396 147.845 62.4192 147.367C61.9979 149.194 62.1243 151.091 62.9388 152.664C63.0792 152.931 63.2758 153.269 63.5145 153.634L63.5005 153.62Z" fill="#4B4B4B"/>
<path d="M69.8467 140.229C69.8467 140.229 68.1756 140.482 66.4062 141.606C67.0662 142.281 67.9369 142.885 68.7654 143.517L69.8467 140.229Z" fill="#4B4B4B"/>
<path d="M92.7805 142.407C90.3793 139.484 87.332 139.835 87.332 139.835V142.112L88.7644 144.149C90.0001 143.236 91.8397 143.292 93.258 143.067C93.1035 142.828 92.935 142.604 92.7805 142.407Z" fill="#FE9900"/>
<path d="M89.5773 156.191C91.2062 154.899 92.3577 153.592 93.1581 152.341C92.2454 150.459 89.6475 149.138 89.3105 147.072L86.6986 151.653L85.6875 152.229C86.6284 153.915 88.0747 155.095 89.5913 156.191H89.5773Z" fill="#FE9900"/>
<path d="M85.6728 152.229L79.1992 155.924L85.9256 158.622C87.3439 157.821 88.5516 157.006 89.5767 156.205C88.0601 155.095 86.6137 153.915 85.6728 152.243V152.229Z" fill="#4B4B4B"/>
<path d="M89.3094 147.072C89.6464 149.138 92.2443 150.459 93.157 152.341C95.5162 148.576 94.6315 145.147 93.2553 143.054C91.837 143.279 89.9975 143.222 88.7617 144.136L89.9834 145.878L89.3094 147.058V147.072Z" fill="#4B4B4B"/>
<path d="M39.0813 86.6104C39.2498 86.6104 39.292 88.3948 39.7975 91.5422C40.3171 94.6756 41.3562 99.2141 43.9541 104.23C46.5239 109.232 50.7366 114.684 56.8592 118.914C62.9256 123.157 70.9298 125.995 79.4958 125.981C88.0617 126.009 96.066 123.157 102.132 118.914C108.255 114.684 112.468 109.232 115.037 104.23C117.635 99.2 118.675 94.6616 119.194 91.5422C119.686 88.3948 119.742 86.6104 119.91 86.6104C120.037 86.6104 120.261 88.3948 120.009 91.6406C119.742 94.8583 118.899 99.5935 116.372 104.891C113.886 110.16 109.603 115.977 103.242 120.501C96.9507 125.04 88.5111 128.117 79.4958 128.089C70.4805 128.117 62.0409 125.054 55.7498 120.501C49.3885 115.977 45.1056 110.16 42.62 104.891C40.0924 99.5935 39.2639 94.8583 38.983 91.6406C38.7302 88.3948 38.969 86.6104 39.0813 86.6104Z" fill="black"/>
<path d="M78.371 72.1099C78.371 75.6789 77.4863 78.5734 76.405 78.5734C75.3238 78.5734 74.4531 75.6789 74.4531 72.1099C74.4531 68.541 75.3238 65.6465 76.405 65.6465C77.4863 65.6465 78.371 68.541 78.371 72.1099Z" fill="black"/>
<path d="M84.4921 72.1099C84.4921 75.6789 83.6215 78.5734 82.5261 78.5734C81.4308 78.5734 80.5742 75.6789 80.5742 72.1099C80.5742 68.541 81.4449 65.6465 82.5261 65.6465C83.6074 65.6465 84.4921 68.541 84.4921 72.1099Z" fill="black"/>
<path d="M21.1636 67.4727C21.3462 67.5008 20.7985 70.3953 20.6721 75.6364C20.5879 80.8633 21.0372 88.5773 24.1828 97.3873C27.2862 106.141 33.2823 115.977 42.9296 123.677C47.7181 127.527 53.3632 130.801 59.6402 133.091C65.9172 135.367 72.8121 136.632 79.9036 136.604C86.9811 136.59 93.876 135.283 100.139 132.95C106.402 130.632 112.019 127.316 116.793 123.438C126.384 115.668 132.324 105.804 135.372 97.0219C138.447 88.1698 138.868 80.4839 138.742 75.2429C138.587 69.9879 138.012 67.1074 138.208 67.0793C138.307 67.0512 139.149 69.8895 139.57 75.2008C139.95 80.4699 139.767 88.3806 136.79 97.4997C133.855 106.563 127.859 116.82 118.029 124.941C113.142 128.988 107.343 132.459 100.869 134.889C94.3955 137.32 87.2619 138.683 79.9177 138.711C72.5874 138.739 65.4257 137.419 58.9521 135.03C52.4645 132.641 46.6368 129.213 41.7359 125.194C31.8359 117.157 25.7977 106.928 22.7925 97.8791C19.7453 88.774 19.5347 80.8774 19.8577 75.6083C20.2368 70.297 21.0653 67.4446 21.1636 67.4727Z" fill="black"/>
<path d="M70.9407 137.672C71.39 137.742 71.4462 140.102 70.5334 142.856C69.6628 145.624 67.9637 147.479 67.5705 147.156C67.2334 146.889 68.1041 144.922 68.9326 142.322C69.7892 139.751 70.4632 137.601 70.9407 137.672Z" fill="black"/>
<path d="M61.9992 148.393C62.0414 148.562 60.7073 149.011 58.4605 149.896C57.3371 150.346 55.989 150.908 54.5286 151.681C53.0822 152.468 51.4814 153.451 50.2316 154.913L50.4141 154.477C50.2597 158.496 50.1052 163.175 50.0069 168.163C49.8946 173.629 49.8665 178.715 49.9367 182.987L49.6137 182.41C55.9609 186.485 61.0303 187.609 60.932 187.918C60.932 188.171 55.638 187.595 48.8414 183.591L48.5465 183.408L48.5184 183.015C48.2797 178.715 48.2095 173.586 48.3218 168.107C48.4341 163.104 48.6588 158.425 48.9537 154.379V154.112L49.1363 153.943C50.6669 152.285 52.4503 151.33 54.009 150.599C55.5818 149.882 57.0141 149.405 58.1937 149.067C60.5669 148.407 61.9712 148.238 62.0133 148.379L61.9992 148.393Z" fill="black"/>
<path d="M86.3456 137.868C86.809 137.756 87.5673 139.61 88.4379 141.788C89.2804 143.994 90.2494 145.54 89.9685 145.877C89.8141 146.046 89.2664 145.849 88.6485 145.231C88.0166 144.627 87.3566 143.615 86.8792 142.435C85.9243 140.046 85.9102 137.966 86.3456 137.868Z" fill="black"/>
<path d="M95.3608 147.662C95.4029 147.508 97.06 147.705 99.8264 148.449C101.217 148.829 102.874 149.348 104.713 150.163C106.525 150.992 108.603 152.018 110.386 153.929L110.555 154.112V154.393C110.836 158.004 111.018 162.008 111.131 166.266C111.299 172.547 111.229 178.364 110.948 183.043L110.92 183.422L110.639 183.591C104.559 187.132 100.023 187.806 99.9949 187.581C99.8825 187.286 104.25 186.092 109.909 182.453L109.6 183.001C109.656 178.35 109.6 172.575 109.446 166.308C109.333 162.079 109.193 158.074 109.052 154.491L109.235 154.955C107.788 153.297 105.865 152.201 104.18 151.33C102.466 150.473 100.865 149.84 99.5455 149.348C96.8915 148.365 95.3046 147.859 95.3608 147.69V147.662Z" fill="black"/>
<path d="M91.1783 59.4776C91.0519 59.1826 92.8072 58.2974 95.391 56.5831C97.9468 54.8689 101.317 52.1992 103.845 48.3071C106.386 44.4431 107.482 40.2699 107.917 37.2349C108.366 34.1859 108.268 32.2328 108.563 32.1906C108.844 32.1344 109.476 34.1016 109.391 37.3614C109.321 40.5931 108.394 45.2159 105.6 49.4593C102.834 53.7167 99 56.4286 96.1353 57.8618C93.2425 59.3231 91.2625 59.7165 91.1783 59.4776Z" fill="black"/>
<path d="M94.3921 51.6378C94.9538 51.694 95.2206 53.8016 94.2657 56.1622C93.3389 58.5228 91.6117 59.8998 91.1764 59.4782C90.7551 59.0989 91.4993 57.4408 92.3138 55.3753C93.1423 53.3239 93.8023 51.5675 94.3921 51.6378Z" fill="black"/>
<path d="M57.139 66.9675C57.0829 66.6724 59.5965 66.012 63.5986 64.902C67.6007 63.7779 73.0914 62.162 78.8629 59.661C84.6484 57.188 89.479 54.167 92.6948 51.6238C95.9246 49.0806 97.6097 47.1275 97.8624 47.3242C98.0871 47.4788 96.7812 49.8253 93.6637 52.7619C90.5884 55.7126 85.6454 59.0568 79.6914 61.6141C73.7514 64.1854 68.0501 65.6045 63.9216 66.3633C59.779 67.122 57.1671 67.2485 57.125 66.9675H57.139Z" fill="black"/>
<path d="M69.2565 58.7614C69.6918 59.1549 67.6276 61.951 64.145 64.2694C60.6765 66.6019 57.3625 67.5152 57.1378 66.9672C56.9131 66.4333 59.6795 64.7331 62.9655 62.5131C66.2655 60.3351 68.8212 58.368 69.2565 58.7614Z" fill="black"/>
<path d="M19.2798 67.4445C19.2939 66.7982 32.6203 67.8661 48.4603 64.3112C56.3662 62.5969 63.3032 60.1661 68.2181 58.1568C73.1471 56.1475 76.0539 54.6019 76.2084 54.8408C76.3769 55.0797 73.6807 57.1171 68.822 59.5057C63.9913 61.8944 56.9701 64.6062 48.8956 66.3626C40.8352 68.1471 33.3224 68.5967 27.9301 68.4562C22.5377 68.3157 19.2377 67.7115 19.2658 67.4445H19.2798Z" fill="black"/>
<path d="M114.166 53.9564C113.801 54.3638 111.077 52.5653 109.055 49.1228C108.043 47.4227 107.496 45.6522 107.355 44.3455C107.201 43.0247 107.454 42.1816 107.749 42.1816C108.268 42.1816 108.984 44.9778 110.866 48.055C112.678 51.1462 114.587 53.5067 114.166 53.9564Z" fill="black"/>
<path d="M114.164 47.3519C114.712 47.4643 115.021 48.8413 115.063 50.6398C115.091 52.4243 114.74 53.9137 114.164 53.9558C113.588 53.998 112.984 52.5367 112.956 50.6679C112.9 48.7991 113.574 47.2254 114.164 47.3519Z" fill="black"/>
<path d="M140.369 67.6842C140.299 67.9512 138.333 67.7545 135.286 66.8693C132.252 65.9841 128.096 64.3542 124.052 61.558C119.993 58.7759 117.03 55.2491 115.556 52.3827C114.025 49.5023 113.885 47.4087 114.18 47.3665C114.461 47.3103 115.092 49.1088 116.834 51.6099C118.547 54.111 121.426 57.2022 125.259 59.8297C129.079 62.4854 132.969 64.2558 135.791 65.4782C138.642 66.7007 140.453 67.4032 140.369 67.6983V67.6842Z" fill="black"/>
<path d="M145.017 70.9574C144.68 70.9293 144.961 67.0231 144.497 60.8266C144.244 57.7354 143.753 54.054 142.658 50.1338C141.562 46.2136 139.821 42.0545 137.139 38.2467C134.471 34.4248 131.143 31.3898 127.773 29.1557C124.402 26.9075 121.004 25.4181 118.097 24.4064C112.227 22.3831 108.324 22.1021 108.352 21.793C108.352 21.526 112.368 21.259 118.547 22.9873C121.622 23.8585 125.217 25.2636 128.84 27.5398C132.449 29.802 136.044 32.9916 138.88 37.0523C141.731 41.099 143.514 45.5391 144.553 49.6561C145.593 53.7871 145.944 57.5949 146.014 60.7704C146.098 67.1495 145.284 71.0136 145.045 70.9855L145.017 70.9574Z" fill="black"/>
<path d="M140.988 65.5197C141.382 65.0982 142.884 65.885 144.036 67.4868C145.201 69.0605 145.538 70.7045 145.019 70.9715C144.499 71.2384 143.404 70.1846 142.336 68.7374C141.283 67.2901 140.581 65.9553 140.988 65.5197Z" fill="black"/>
<path d="M135.017 103.626C134.764 103.43 136.014 101.547 137.615 98.3572C139.216 95.1676 141.027 90.5589 141.8 85.1914C142.614 79.838 142.277 74.878 141.8 71.3371C141.308 67.7823 140.718 65.6325 140.985 65.52C141.252 65.4076 142.375 67.445 143.26 71.0561C144.145 74.6391 144.748 79.852 143.892 85.5005C143.077 91.1631 140.915 95.9685 138.921 99.0878C136.913 102.221 135.228 103.795 135.031 103.626H135.017Z" fill="black"/>
<path d="M69.018 6.91345C68.9899 6.64648 71.4333 6.09849 75.4494 6.01418C79.4516 5.92988 85.0967 6.39356 90.9665 8.445C96.8363 10.4683 101.569 13.7141 104.461 16.5384C107.396 19.3486 108.576 21.6389 108.337 21.7794C108.098 21.948 106.54 20.0652 103.478 17.6484C100.445 15.2176 95.8533 12.3512 90.2643 10.4262C84.6754 8.4731 79.2971 7.78461 75.3933 7.48954C71.4894 7.19446 69.032 7.22257 69.0039 6.89939L69.018 6.91345Z" fill="black"/>
<path d="M77.2609 10.2429C77.0362 10.4396 76.5588 10.2991 75.8145 10.0603C75.0843 9.8214 74.0873 9.45608 72.9639 9.0205C70.7171 8.13528 69.0039 7.41868 69.0039 6.8988C69.0039 6.2384 71.335 6.09789 73.7222 7.05336C74.9299 7.51704 75.969 8.16339 76.6009 8.79568C77.2469 9.42797 77.4575 10.0462 77.2469 10.2289L77.2609 10.2429Z" fill="black"/>
<path d="M14.6039 75.524C14.4635 75.524 14.2388 74.0908 14.0984 71.4492C13.9579 68.8217 13.9158 64.9857 14.3933 60.2646C14.8707 55.5575 15.8958 49.9512 18.1567 44.0498C20.3894 38.1624 23.9843 32.0221 29.1379 26.8092C34.2635 21.5682 40.2877 17.8447 46.0592 15.3577C51.8447 12.8566 57.3775 11.5077 62.0396 10.7349C71.406 9.25955 77.3039 9.97615 77.2758 10.2431C77.2758 10.5663 71.4341 10.3836 62.3065 12.2103C57.7707 13.1376 52.4064 14.613 46.8456 17.1422C41.2988 19.6573 35.5413 23.2824 30.6405 28.2986C25.7256 33.3008 22.229 39.1319 19.9681 44.7804C17.6933 50.443 16.5277 55.8807 15.8677 60.4754C15.2218 65.0841 15.0252 68.8498 14.9128 71.4633C14.8005 74.0767 14.7443 75.538 14.6039 75.538V75.524Z" fill="black"/>
<path d="M17.0623 68.8498C17.2308 69.0887 17.1325 69.4821 17.0061 70.0582C16.8657 70.6343 16.655 71.4071 16.3882 72.3064C15.8406 74.1049 15.1806 75.6084 14.6048 75.5241C14.0291 75.4538 13.7623 73.7255 14.3661 71.6881C14.675 70.6765 15.1806 69.7913 15.7423 69.2573C16.304 68.7093 16.8937 68.611 17.0482 68.8498H17.0623Z" fill="black"/>
<path d="M23.7301 102.573C23.5194 102.741 22.0449 101.322 20.416 98.498C18.773 95.6878 17.1441 91.4163 16.3296 86.5266C14.6866 76.6909 16.4981 68.71 17.0458 68.8505C17.6356 68.9067 16.8211 76.7612 18.4079 86.1753C19.1803 90.8684 20.5143 94.9712 21.7501 97.8236C22.9718 100.69 23.9828 102.376 23.7301 102.559V102.573Z" fill="black"/>
<path d="M79.6621 161.01C79.8026 160.827 80.5749 161.46 81.9511 161.881C82.6392 162.078 83.4255 162.092 84.0855 161.586C84.7596 161.109 85.3634 160.069 85.6724 158.987L86.2481 160.125C83.903 159.366 81.249 158.34 78.5809 156.935C74.2558 154.687 70.7873 151.821 68.723 149.376C66.6166 146.931 65.9285 144.978 66.1953 144.866C66.4481 144.739 67.5434 146.299 69.7902 148.35C72.023 150.416 75.4213 152.931 79.5638 155.081C82.1196 156.43 84.6332 157.511 86.866 158.383L87.7366 158.734L87.4417 159.521C86.8941 160.982 86.0936 162.162 84.886 162.893C84.2821 163.244 83.6081 163.385 83.0183 163.343C82.4285 163.3 81.923 163.118 81.5298 162.921C79.9711 162.036 79.5498 161.137 79.6481 161.024L79.6621 161.01Z" fill="black"/>
<path d="M69.5958 140.159C69.666 140.299 69.1605 140.65 68.2898 141.283C67.4332 141.915 66.1554 142.8 64.9758 144.163C63.7962 145.512 62.8694 147.479 63.2486 149.727C63.5856 151.976 65.0039 154.322 66.8715 156.43C68.7392 158.551 70.8596 160.336 72.8817 161.783C74.9179 163.216 76.8417 164.368 78.5549 164.748C80.2962 165.183 81.6583 164.804 82.3886 164.158C83.1328 163.525 83.3715 162.949 83.526 162.991C83.6524 163.006 83.7086 163.722 82.9924 164.72C82.6273 165.197 82.0234 165.717 81.1809 165.998C80.3524 166.293 79.3413 166.35 78.3022 166.223C76.1677 165.97 73.9911 164.818 71.8005 163.399C69.6098 161.952 67.3349 160.139 65.2988 157.835C63.2907 155.544 61.6617 152.861 61.3388 149.98C61.1703 148.561 61.409 147.142 61.9145 145.962C62.42 144.781 63.1643 143.854 63.9086 143.137C65.4111 141.704 66.8856 140.988 67.9107 140.552C68.9358 140.131 69.5537 140.032 69.6098 140.145L69.5958 140.159Z" fill="black"/>
<path d="M78.9618 155.854C78.7512 155.25 82.4163 153.887 85.7865 150.936C87.4575 149.461 88.6371 147.831 89.3392 146.538C90.0554 145.259 90.3644 144.36 90.6592 144.374C90.9541 144.374 91.1648 145.47 90.7295 147.1C90.3082 148.716 89.1146 150.838 87.1907 152.524C85.2809 154.224 83.1746 155.165 81.6299 155.643C80.0712 156.107 79.0601 156.135 78.9618 155.868V155.854Z" fill="black"/>
<path d="M86.2221 158.313C86.0817 158.032 87.2753 157.231 88.9745 155.77C89.817 155.039 90.7719 154.126 91.6426 153.002C92.5132 151.878 93.2996 150.529 93.6226 149.025C94.3528 146.018 92.5273 143.293 90.9966 141.944C89.3958 140.567 87.9494 140.342 87.9775 140.033C87.9353 139.766 89.6345 139.4 91.8673 140.735C92.9626 141.396 94.0579 142.492 94.8864 143.981C95.743 145.456 96.1362 147.522 95.6868 149.475C95.2515 151.442 94.2124 153.03 93.1311 154.238C92.0358 155.461 90.8702 156.332 89.8451 156.964C87.7809 158.215 86.3345 158.552 86.2221 158.313Z" fill="black"/>
<path d="M88.9607 148.744C89.073 149.11 84.776 150.599 79.2011 150.711C73.6262 150.866 69.273 149.32 69.4135 148.941C69.5258 148.548 73.8228 149.391 79.173 149.236C84.5232 149.138 88.8624 148.323 88.9607 148.744Z" fill="black"/>
</g>
</g>
<defs>
<clipPath id="clip0_461_9788">
<rect width="132" height="183" fill="white" transform="translate(14 6)"/>
</clipPath>
</defs>
</svg>
