<svg width="160" height="160" viewBox="0 0 160 160" fill="none" xmlns="http://www.w3.org/2000/svg">
<g clip-path="url(#clip0_461_9627)">
<path d="M160 80C160 95.9613 155.321 110.833 147.262 123.318C146.814 124.016 146.354 124.709 145.882 125.391C145.834 125.464 145.781 125.536 145.729 125.605C145.297 126.226 144.858 126.839 144.406 127.448C142.47 130.09 140.364 132.599 138.109 134.979C136.73 136.439 135.29 137.851 133.805 139.202C130.477 142.232 126.892 144.983 123.084 147.415C118.09 150.618 112.725 153.276 107.054 155.313C98.6074 158.346 89.4953 160 80.004 160C66.6969 160 54.1441 156.749 43.1039 150.989C41.3694 150.089 39.6753 149.125 38.0215 148.101C36.7347 147.306 35.4682 146.471 34.2339 145.608C31.4183 143.643 28.7359 141.502 26.1988 139.198C26.0656 139.081 25.9366 138.96 25.8035 138.839C24.4602 137.601 23.1533 136.314 21.8908 134.979C8.32148 120.651 0 101.298 0 80C0 35.8191 35.8151 0 80 0C124.185 0 160 35.8191 160 80Z" fill="#E8C8BF"/>
<g clip-path="url(#clip1_461_9627)">
<mask id="mask0_461_9627" style="mask-type:alpha" maskUnits="userSpaceOnUse" x="0" y="0" width="160" height="160">
<path d="M160 80C160 95.9613 155.321 110.833 147.262 123.318C146.814 124.016 146.354 124.709 145.882 125.391C145.834 125.464 145.781 125.536 145.729 125.605C145.297 126.226 144.858 126.839 144.406 127.448C142.47 130.09 140.364 132.599 138.109 134.979C136.73 136.439 135.29 137.851 133.805 139.202C130.477 142.232 126.892 144.983 123.084 147.415C118.09 150.618 112.725 153.276 107.054 155.313C98.6074 158.346 89.4953 160 80.004 160C66.6969 160 54.1441 156.749 43.1039 150.989C41.3694 150.089 39.6753 149.125 38.0215 148.101C36.7347 147.306 35.4682 146.471 34.2339 145.608C31.4183 143.643 28.7359 141.502 26.1988 139.198C26.0656 139.081 25.9366 138.96 25.8035 138.839C24.4602 137.601 23.1533 136.314 21.8908 134.979C8.32148 120.651 0 101.298 0 80C0 35.8191 35.8151 0 80 0C124.185 0 160 35.8191 160 80Z" fill="#E8C8BF"/>
</mask>
<g mask="url(#mask0_461_9627)">
<path d="M82.0069 139.798C115.793 139.798 143.182 112.346 143.182 78.4829C143.182 44.6196 115.793 17.168 82.0069 17.168C48.221 17.168 20.832 44.6196 20.832 78.4829C20.832 112.346 48.221 139.798 82.0069 139.798Z" fill="#FDD7BA"/>
<path d="M46.8049 86.203C47.4565 89.3377 44.7923 92.5449 40.8829 93.3431C36.959 94.1413 33.2668 92.2547 32.6297 89.12C31.9926 85.9853 34.6423 82.7781 38.5517 81.9799C42.4611 81.1817 46.1678 83.0683 46.8049 86.203Z" fill="#F9BAAC"/>
<path d="M116.059 86.203C115.422 89.3377 118.072 92.5449 121.981 93.3431C125.905 94.1413 129.598 92.2547 130.235 89.12C130.886 85.9853 128.222 82.7781 124.313 81.9799C120.403 81.1817 116.696 83.0683 116.059 86.203Z" fill="#F9BAAC"/>
<path d="M79.9479 12.3348C79.9479 12.3348 43.3878 5.19467 22.3928 34.3356L27.8226 31.5492C27.8226 31.5492 17.5712 45.5827 14.6754 56.7137C11.7795 67.8447 9.85379 81.1381 10.4474 83.8083L13.9514 78.2501C13.9514 78.2501 12.9813 95.9117 25.2887 102.196C25.2887 102.196 19.2798 89.5988 20.5974 74.2447C20.5974 74.2447 42.186 69.412 51.5975 60.7046C51.5975 60.7046 66.1926 53.5645 72.1146 35.9174C72.1146 35.9174 81.28 55.9881 105.533 64.4633C105.533 64.4633 96.8452 56.8443 95.3973 50.1976C95.3973 50.1976 110.658 65.9871 142.73 71.0955C142.73 71.0955 143.903 92.6464 138.603 102.326C138.603 102.326 143.193 102.21 146.929 79.1063L149.579 83.8229C149.579 83.8229 147.769 50.3282 131.957 31.6943L137.865 34.5968C137.865 34.5968 120.258 7.48763 79.9479 12.3348Z" fill="#663F39"/>
<path d="M72.7838 139.493L71.582 145.051C71.582 145.051 72.1322 146.865 73.7539 147.649L77.8516 155.573C77.8516 155.573 78.9375 163.308 81.6451 164.89C81.6451 164.89 84.903 161.015 84.3527 155.631C84.3527 155.631 88.1029 146.982 90.5354 145.951C90.5354 145.951 88.7544 141.481 88.5662 139.609L72.7549 139.493H72.7838Z" fill="#FDD7BA"/>
<path d="M69.3516 149.594C69.3516 149.594 71.6248 154.847 78.0826 156.037C78.0826 156.037 75.1867 148.694 71.2483 145.196L69.3516 149.594Z" fill="#9EC932"/>
<path d="M90.5474 145.965L93.1971 149.274C93.1971 149.274 91.4307 155.674 84.8281 155.804C84.8281 155.804 88.5783 147.997 90.5474 145.965Z" fill="#9EC932"/>
<path d="M112.585 157.067C112.585 157.067 106.272 164.773 105.331 170.172L103.565 182.464L103.246 191.259C103.246 191.259 110.717 188.951 113.555 186.818C113.555 186.818 113.773 159.883 112.585 157.067Z" fill="#9EC932"/>
<path d="M50.7605 157.662C50.7605 157.662 55.9151 162.466 58.1304 169.765L58.3042 170.723L59.3901 175.208L62.2425 191.621C62.2425 191.621 59.4335 191.171 56.5811 189.807L50.1523 186.861L50.746 157.662H50.7605Z" fill="#9EC932"/>
<path d="M93.1973 149.274C93.3421 149.376 103.84 151.916 103.84 151.916L112.947 157.271C112.947 157.271 111.383 158.301 110.442 159.752C109.501 161.204 104.621 170.245 104.621 170.245L94.4859 168.91L81.3098 170.274L73.491 169.127L58.2009 170.361C58.2009 170.361 53.611 159.259 50.5703 157.387C50.5703 157.387 53.4951 154.731 56.9122 153.483C60.3149 152.249 69.3065 149.739 69.3065 149.739C69.3065 149.739 70.1463 152.395 72.0575 153.483C73.9543 154.571 76.6475 155.863 77.8492 155.994C77.8492 155.994 80.47 164.425 81.498 164.817C81.498 164.817 82.555 164.483 83.25 162.64C83.945 160.797 84.2491 156.023 84.2491 156.023C84.2491 156.023 88.3178 155.326 90.5476 153.425C92.7774 151.524 93.1973 149.274 93.1973 149.274Z" fill="white"/>
<path d="M39.8987 87.248C40.0725 87.248 40.1159 89.0911 40.6372 92.3419C41.1729 95.5782 42.2444 100.266 44.923 105.447C47.5727 110.613 51.9165 116.244 58.2295 120.612C64.4845 124.995 72.7377 127.926 81.5701 127.912C90.4024 127.941 98.6556 124.995 104.911 120.612C111.224 116.244 115.567 110.613 118.217 105.447C120.896 100.251 121.967 95.5636 122.503 92.3419C123.01 89.0911 123.068 87.248 123.241 87.248C123.372 87.248 123.603 89.0911 123.343 92.4435C123.053 95.7668 122.199 100.658 119.607 106.129C117.044 111.571 112.628 117.579 106.069 122.252C99.5823 126.939 90.8802 130.118 81.5845 130.089C72.2888 130.118 63.5868 126.939 57.1001 122.252C50.541 117.579 46.1393 111.571 43.562 106.129C40.9557 100.658 40.1014 95.7668 39.8263 92.4435C39.5657 89.0911 39.8119 87.248 39.9277 87.248H39.8987Z" fill="black"/>
<path d="M80.4264 72.2861C80.4264 75.9722 79.5142 78.9618 78.3993 78.9618C77.2844 78.9618 76.3867 75.9722 76.3867 72.2861C76.3867 68.5999 77.2844 65.6104 78.3993 65.6104C79.5142 65.6104 80.4264 68.5999 80.4264 72.2861Z" fill="black"/>
<path d="M86.7389 72.2861C86.7389 75.9722 85.8412 78.9618 84.7118 78.9618C83.5825 78.9618 82.6992 75.9722 82.6992 72.2861C82.6992 68.5999 83.5969 65.6104 84.7118 65.6104C85.8267 65.6104 86.7389 68.5999 86.7389 72.2861Z" fill="black"/>
<path d="M20.5986 74.2303C20.7868 74.2303 20.5841 77.1183 20.9895 82.2557C21.4239 87.364 22.6257 94.8379 26.4338 103.183C30.1984 111.484 36.7575 120.626 46.6034 127.636C51.4974 131.133 57.1732 134.065 63.4138 136.053C69.6399 138.056 76.4306 139.043 83.3662 138.883C97.2808 138.578 110.124 133.281 119.492 125.749C128.961 118.246 135.043 108.77 138.373 100.295C141.747 91.7613 142.557 84.2293 142.731 79.1065C142.89 73.9546 142.528 71.0956 142.731 71.0811C142.847 71.0666 143.484 73.882 143.585 79.121C143.658 84.3164 143.079 92.0225 139.806 100.846C136.577 109.612 130.453 119.465 120.737 127.317C115.916 131.235 110.225 134.616 103.898 137.025C97.5704 139.449 90.6058 140.871 83.4241 141.06C76.2424 141.234 69.2055 140.189 62.7767 138.085C56.3334 136.01 50.4693 132.933 45.4595 129.261C35.353 121.933 28.736 112.398 25.0582 103.807C21.337 95.1572 20.3525 87.4946 20.1642 82.2992C20.005 77.0747 20.4973 74.2158 20.6131 74.2303H20.5986Z" fill="black"/>
<path d="M72.7684 139.986C72.8698 140.001 72.8553 141.017 72.5223 142.816C72.3485 143.716 72.1024 144.804 71.6969 146.053C71.2626 147.301 70.7703 148.679 69.7857 150.16L69.6698 150.319L69.4237 150.377C66.8174 150.958 63.8347 151.64 60.6493 152.714C59.0565 153.251 57.4204 153.889 55.8277 154.702C54.2494 155.515 52.6712 156.53 51.4839 157.88L51.7011 157.372L51.426 163.337C51.064 172.276 50.9337 180.476 51.035 186.818L50.731 186.281C57.4059 190.562 62.5316 191.621 62.4302 191.926C62.4302 192.144 57.1163 191.578 49.9925 187.413L49.7174 187.253V186.876C49.341 180.49 49.3265 172.247 49.6885 163.279C49.7753 161.232 49.8622 159.244 49.9925 157.285V156.98L50.2097 156.763C51.6576 155.152 53.3951 154.092 55.1037 153.251C56.8123 152.409 58.5353 151.785 60.1859 151.277C63.4872 150.261 66.5713 149.681 69.192 149.216L68.83 149.434C69.6988 148.273 70.3214 146.894 70.7992 145.748C71.277 144.572 71.6245 143.542 71.8852 142.686C72.4064 140.973 72.6526 140.001 72.7829 140.03L72.7684 139.986Z" fill="black"/>
<path d="M88.65 140.204C88.7803 140.175 89.0844 141.191 89.7649 142.947C90.1124 143.817 90.5468 144.877 91.2129 146.009C91.5459 146.575 91.9223 147.141 92.4002 147.678C92.6318 147.939 92.8925 148.186 93.182 148.403C93.4282 148.606 93.8336 148.795 93.9784 148.824H93.9929H94.0218C96.7584 149.303 99.9004 149.971 103.289 151.074C104.983 151.625 106.735 152.278 108.472 153.149C110.21 154.034 111.991 155.108 113.467 156.748L113.67 156.966V157.27L113.931 161.958C114.351 171.565 114.322 180.331 113.945 186.861V187.224L113.656 187.384C107.314 191.07 102.724 191.752 102.709 191.563C102.608 191.273 107.024 190.126 112.961 186.31L112.671 186.818C112.758 180.331 112.613 171.609 112.193 162.03L111.962 157.372L112.179 157.894C110.963 156.53 109.341 155.485 107.719 154.644C106.083 153.802 104.403 153.134 102.782 152.554C99.524 151.407 96.4399 150.653 93.7757 150.043H93.8191C93.1241 149.898 92.8201 149.622 92.4291 149.332C92.0816 149.042 91.792 148.723 91.5314 148.403C91.0102 147.765 90.6337 147.112 90.3296 146.488C89.7215 145.24 89.3595 144.108 89.0989 143.179C88.6066 141.307 88.5197 140.247 88.6356 140.218L88.65 140.204Z" fill="black"/>
<path d="M138.458 35.265C138.198 35.4972 135.794 32.7253 131.378 28.9085C126.991 25.1063 120.374 20.3753 112.121 17.1535C103.882 13.8882 95.8314 12.7998 90.0397 12.5531C84.219 12.2919 80.6137 12.7998 80.5558 12.495C80.4834 12.2048 84.0887 11.1599 90.0542 11.0148C95.9907 10.8551 104.374 11.7404 112.917 15.1218C121.474 18.4596 128.207 23.5825 132.42 27.7621C136.677 31.9707 138.661 35.0908 138.458 35.2505V35.265Z" fill="black"/>
<path d="M149.769 84.6069C149.45 84.6214 149.03 80.8772 148.06 74.9126C147.061 68.948 145.454 60.7195 142.268 52.1136C138.967 43.116 134.392 35.526 130.207 31.3899L131.047 30.1709C135.782 33.1024 138.605 35.0035 138.46 35.2647C138.315 35.5115 135.231 34.0457 130.308 31.4625L131.148 30.2435C136.028 34.423 140.893 42.0856 144.31 51.3445C147.582 60.1825 148.972 68.6142 149.58 74.6949C150.174 80.7901 150.044 84.5779 149.769 84.5924V84.6069Z" fill="black"/>
<path d="M140.818 101.021C140.558 100.832 141.383 99.3083 142.324 96.7106C143.28 94.1274 144.264 90.4412 144.786 86.2617C145.162 83.3302 145.321 80.5148 145.321 78.2218L147.044 77.7139C148.999 81.6758 150.114 84.4186 149.766 84.5927C149.419 84.7814 147.725 82.3723 145.423 78.5991L147.146 78.0912C147.363 80.5728 147.319 83.4463 146.929 86.5374C146.378 90.9056 145.09 94.7804 143.714 97.3346C142.339 99.9178 141.021 101.18 140.804 101.006L140.818 101.021Z" fill="black"/>
<path d="M21.5413 35.2651C21.3386 35.1054 23.3368 31.9853 27.5792 27.7767C31.7927 23.5971 38.5255 18.4597 47.0828 15.1364C55.6255 11.755 64.0235 10.8697 69.96 11.0149C75.9399 11.1455 79.5308 12.2049 79.4584 12.4951C79.4005 12.7999 75.7951 12.3065 69.9745 12.5532C64.1683 12.7999 56.1178 13.8883 47.8936 17.1536C39.6404 20.3608 33.0234 25.0919 28.6362 28.9086C24.22 32.7254 21.8164 35.4973 21.5558 35.2651H21.5413Z" fill="black"/>
<path d="M10.232 84.607C9.95693 84.607 9.82661 80.8048 10.4203 74.7096C11.0284 68.6289 12.4184 60.1972 15.6907 51.3591C19.1078 42.1002 23.9729 34.4377 28.8524 30.2581L29.6922 31.4771C24.7692 34.0604 21.6851 35.5261 21.5403 35.2794C21.3955 35.0327 24.219 33.1171 28.9537 30.1855L29.7935 31.4046C25.609 35.5406 21.0191 43.1306 17.7323 52.1283C14.5469 60.7341 12.9397 68.9627 11.9406 74.9273C10.956 80.9064 10.5506 84.6506 10.232 84.6216V84.607Z" fill="black"/>
<path d="M22.0894 100.469C21.9301 100.687 20.265 99.7579 18.4551 97.3634C16.6452 94.9978 14.9076 91.1956 13.9086 86.8274C13.1846 83.6927 12.8661 80.7467 12.8371 78.1925L14.5601 78.5988C12.2724 82.3721 10.5639 84.7811 10.2308 84.5924C9.89782 84.4038 10.9982 81.6755 12.9529 77.7136L14.3574 74.8691L14.676 78.1199C14.9076 80.4709 15.342 83.3444 16.0225 86.3194C16.9782 90.499 18.3682 94.0981 19.7292 96.5071C21.0758 98.9307 22.2921 100.222 22.0749 100.455L22.0894 100.469Z" fill="black"/>
<path d="M18.1656 74.8404C18.0787 74.5356 21.7709 73.3891 27.5916 71.2848C33.3977 69.1515 41.3758 65.9878 49.3684 61.0536C57.3754 56.1629 63.5581 50.1838 67.0041 45.1335C70.5515 40.1122 71.4637 36.3244 71.7388 36.3825C72.0574 36.3825 71.652 40.504 68.2928 45.9752C66.6421 48.689 64.2965 51.6931 61.2703 54.6246C58.2586 57.5416 54.5954 60.386 50.4978 62.9112C42.288 67.976 34.0493 70.9655 28.0694 72.7506C22.0605 74.5211 18.2235 75.1161 18.1656 74.8549V74.8404Z" fill="black"/>
<path d="M107.577 65.6396C107.49 65.8864 104.29 65.0882 99.4253 62.8968C94.6037 60.6909 88.0735 56.9903 82.1805 51.2579C76.244 45.569 72.378 38.9949 70.5391 33.9591C68.6423 28.9088 68.5555 25.4983 68.8595 25.4838C69.1636 25.4403 69.7717 28.6475 71.9581 33.3641C74.101 38.0806 77.9815 44.2048 83.7008 49.6905C89.3766 55.2052 95.5593 59.0075 100.135 61.5181C104.725 64.0143 107.722 65.3204 107.592 65.6396H107.577Z" fill="black"/>
<path d="M95.3844 51.1268C95.9346 50.9527 97.7879 54.6969 101.263 58.5136C104.666 62.3884 107.909 65.1313 107.576 65.6392C107.257 66.1472 103.261 64.0864 99.6268 59.9504C97.8169 57.9041 96.5137 55.7272 95.8622 54.0438C95.1816 52.3604 95.1092 51.2139 95.3844 51.1123V51.1268Z" fill="black"/>
<path d="M144.614 71.2122C144.585 71.4879 141.183 71.4154 135.782 70.4575C130.381 69.5142 122.982 67.5986 115.308 64.1446C107.62 60.7197 101.249 56.424 97.0645 52.8395C92.8511 49.2694 90.8095 46.4831 91.0412 46.2944C91.2583 46.0912 93.6474 48.4567 98.0202 51.635C102.349 54.8277 108.691 58.8041 116.192 62.1564C131.236 68.9192 144.759 70.5011 144.614 71.2122Z" fill="black"/>
<path d="M78.0802 156.037C78.0512 156.269 77.3707 156.4 76.2703 156.284C75.1843 156.139 73.6495 155.703 72.2595 154.644C70.855 153.599 69.9718 152.249 69.5519 151.234C69.1175 150.189 69.103 149.521 69.3057 149.42C69.798 149.202 70.9564 151.524 73.302 153.251C75.6332 154.978 78.1815 155.515 78.0947 156.037H78.0802Z" fill="black"/>
<path d="M84.3497 156.109C84.2629 155.587 86.927 155.021 89.3306 153.149C91.7486 151.291 92.8635 148.81 93.3558 149.013C93.5585 149.114 93.5585 149.796 93.1386 150.914C92.7332 151.988 91.8355 153.41 90.4021 154.527C88.9686 155.659 87.3759 156.153 86.2465 156.312C85.1026 156.472 84.3932 156.312 84.3497 156.095V156.109Z" fill="black"/>
<path d="M71.5383 145.414C71.6976 145.196 75.6649 148.723 78.7056 155.79L78.749 155.906V156.066C78.6766 158.765 79.9074 161.885 81.9055 164.454L82.0792 164.686V167.211C82.0503 180.722 81.6883 191.679 81.2684 191.679C80.8485 191.679 80.53 180.722 80.5589 167.211V164.947L80.7472 165.441C78.5174 162.524 77.2577 159.172 77.4169 156.022L77.4604 156.284C74.7817 149.405 71.3067 145.617 71.5383 145.428V145.414Z" fill="black"/>
<path d="M90.5482 145.965C90.693 146.125 89.9546 147.053 88.97 148.737C87.9854 150.406 86.7257 152.786 85.4805 155.471L85.0461 156.414L85.104 156.037C85.2633 158.997 84.4959 161.522 83.5113 163.119C82.5267 164.73 81.4987 165.31 81.3973 165.179C81.238 165.02 81.962 164.207 82.5991 162.654C83.2507 161.13 83.7719 158.736 83.5982 156.182V155.964L83.6561 155.804L84.1049 154.818C85.3936 152.06 86.827 149.695 88.0867 148.113C89.3319 146.531 90.4179 145.805 90.5482 145.965Z" fill="black"/>
<path d="M81.4565 170.259C81.3985 170.506 79.2556 170.186 75.7951 169.998C72.3345 169.809 67.5419 169.809 62.3149 170.477C60.9683 170.651 59.6362 170.854 58.4199 171.101L57.5367 171.275L57.3919 170.404C57.0444 168.416 56.1901 166.573 55.3648 164.976C54.525 163.38 53.6707 161.987 52.9323 160.855C51.4699 158.576 50.5143 157.227 50.6735 157.082C50.8328 156.951 52.078 158.054 53.8155 160.202C54.6843 161.276 55.6689 162.625 56.639 164.251C57.5801 165.876 58.5937 167.777 59.0426 170.114L58.0145 169.432C59.3466 169.127 60.6787 168.924 62.0832 168.75C67.455 168.068 72.3924 168.256 75.8964 168.779C79.4149 169.287 81.4854 170.056 81.4275 170.273L81.4565 170.259Z" fill="black"/>
<path d="M81.818 170.259C81.7601 170.041 83.8306 169.287 87.3491 168.764C90.8531 168.242 95.7905 168.053 101.162 168.735C102.567 168.91 103.899 169.127 105.217 169.417L104.188 170.1C104.652 167.763 105.651 165.862 106.592 164.236C107.562 162.611 108.547 161.276 109.416 160.188C111.153 158.025 112.413 156.922 112.557 157.067C112.717 157.213 111.776 158.548 110.299 160.841C109.575 161.987 108.72 163.366 107.881 164.962C107.055 166.558 106.201 168.402 105.854 170.39L105.709 171.261L104.826 171.086C103.609 170.84 102.277 170.636 100.931 170.462C95.7036 169.795 90.911 169.795 87.4505 169.983C83.9899 170.172 81.847 170.506 81.7891 170.245L81.818 170.259Z" fill="black"/>
</g>
</g>
</g>
<defs>
<clipPath id="clip0_461_9627">
<rect width="160" height="160" fill="white"/>
</clipPath>
<clipPath id="clip1_461_9627">
<rect width="140" height="182" fill="white" transform="translate(10 11)"/>
</clipPath>
</defs>
</svg>
