<svg width="160" height="200" viewBox="0 0 160 200" fill="none" xmlns="http://www.w3.org/2000/svg">
<path d="M159.996 100.004C159.996 116.857 154.78 132.499 145.878 145.395C145.83 145.468 145.777 145.54 145.725 145.609C143.426 148.929 140.88 152.055 138.105 154.983C136.726 156.443 135.286 157.855 133.801 159.206C130.473 162.236 126.888 164.987 123.08 167.419C118.086 170.622 112.721 173.28 107.05 175.317C98.6034 178.35 89.4912 180.004 80 180.004C66.6929 180.004 54.1401 176.753 43.0999 170.993C36.9566 167.794 31.2813 163.821 26.1988 159.198C26.0657 159.081 25.9366 158.96 25.8035 158.839C24.4603 157.601 23.1533 156.314 21.8908 154.979C8.32149 140.651 0 121.298 0 100C0 55.8191 35.8151 20 80 20C124.185 20 160 55.8191 160 100L159.996 100.004Z" fill="#D4E8DA"/>
<g clip-path="url(#clip0_461_10023)">
<mask id="mask0_461_10023" style="mask-type:alpha" maskUnits="userSpaceOnUse" x="0" y="4" width="160" height="177">
<path d="M159.996 100.004C159.996 116.857 154.78 132.499 145.878 145.395C145.83 145.468 145.777 145.54 145.725 145.609C143.426 148.929 140.88 152.055 138.105 154.983C136.726 156.443 135.286 157.855 133.801 159.206C130.473 162.236 126.888 164.987 123.08 167.419C118.086 170.622 112.721 173.28 107.05 175.317C98.6034 178.35 89.4912 180.004 80 180.004C66.6929 180.004 54.1401 176.753 43.0999 170.993C36.9566 167.794 31.2813 163.821 26.1988 159.198C26.0657 159.081 25.9366 158.96 25.8035 158.839C24.4603 157.601 23.1533 156.314 21.8908 154.979C8.32149 140.651 0 121.298 0 100C0 55.8191 35.8151 20 80 20C124.185 20 160 55.8191 160 100L159.996 100.004Z" fill="#D4E8DA"/>
<path d="M31 4H124V74H31V4Z" fill="#D9D9D9"/>
</mask>
<g mask="url(#mask0_461_10023)">
<path d="M64.2438 174.373C64.2438 174.373 54.6748 175.963 49.4565 180.648L48.5039 196.919L58.2863 202.243L60.1205 214.367L80.908 215.375L100.16 213.899L101.525 202.243L106.558 199.758L110.227 197.33L110.17 180.89C110.17 180.89 103.046 175.537 93.4914 173.947C93.4914 173.947 86.4248 183.956 78.306 186.214C78.306 186.214 69.0924 183.133 64.2296 174.387L64.2438 174.373Z" fill="#E64933"/>
<path d="M139.799 103.968C139.799 137.104 112.898 163.952 79.7257 163.952C46.5538 163.952 19.6523 137.104 19.6523 103.968C19.6523 70.8308 46.5538 43.9834 79.7257 43.9834C112.898 43.9834 139.799 70.845 139.799 103.968Z" fill="#FDD7BA"/>
<path d="M45.1612 111.535C45.8011 114.602 43.1849 117.739 39.3459 118.52C35.4926 119.301 31.8669 117.455 31.2413 114.389C30.6157 111.322 33.2177 108.184 37.0567 107.404C40.8957 106.623 44.5356 108.468 45.1612 111.535Z" fill="#F9BAAC"/>
<path d="M113.171 111.535C112.545 114.602 115.147 117.739 118.986 118.52C122.84 119.301 126.465 117.455 127.091 114.389C127.731 111.322 125.115 108.184 121.276 107.404C117.437 106.623 113.797 108.468 113.171 111.535Z" fill="#F9BAAC"/>
<path d="M19.626 98.2034C19.626 98.2034 16.9671 94.214 16.8676 90.6646C16.7823 87.1152 17.934 77.6171 22.7256 72.1227L20.5075 72.3925C20.5075 72.3925 22.4697 60.7648 36.1053 56.6475C36.1053 56.6475 36.7593 42.6772 44.935 37.7081L46.5275 41.8822C46.5275 41.8822 53.9069 26.9748 60.6607 23.0705C60.6607 23.0705 58.0018 31.7594 61.1868 36.0186C61.1868 36.0186 63.1347 17.2922 71.4952 12.7632C71.4952 12.7632 70.7132 29.9421 75.5475 31.5606C75.5475 31.5606 82.344 19.8619 81.8037 11.7836C81.2634 3.70521 82.1591 2.72559 82.1591 2.72559C82.1591 2.72559 87.8465 9.73913 90.3348 18.5132C92.823 27.2872 92.4676 32.4408 92.4676 32.4408C92.4676 32.4408 97.1739 27.202 96.3777 16.5539C96.3777 16.5539 108.99 23.4823 109.615 39.0995C109.615 39.0995 114.592 34.4853 113.44 25.5267C113.44 25.5267 120.99 31.4754 123.663 40.7889C126.336 50.1025 123.834 54.816 123.834 54.816C123.834 54.816 123.037 55.3555 129.166 56.0654C129.166 56.0654 137.697 60.1543 138.408 72.4777L136.104 71.3277C136.104 71.3277 146.939 85.085 139.488 98.0331L139.147 95.293C139.147 95.293 131.398 91.9992 128.284 85.9652C125.17 79.9313 124.729 76.1974 124.729 76.1974C124.729 76.1974 121.616 79.8319 116.639 79.7467C116.639 79.7467 120.279 73.9826 117.08 64.5697H116.099L102.591 67.5795L101.781 71.9382C101.781 71.9382 96.9891 64.9104 81.9743 62.866C81.9743 62.866 70.244 62.5111 65.4523 63.1357L71.0545 67.3098C71.0545 67.3098 59.3242 68.9993 55.5847 68.5592C51.8452 68.119 42.788 65.9894 42.788 65.9894C42.788 65.9894 42.4325 74.0678 39.1481 78.327L34.527 82.7566L32.3942 74.948C32.3942 74.948 29.1098 88.4356 20.2232 95.2646L19.5976 98.1892L19.626 98.2034Z" fill="#E8AD29"/>
<path d="M70.7685 163.683L69.304 170.199L67.4414 173.621C67.4414 173.621 71.4795 181.302 78.7736 183.204C78.7736 183.204 87.6602 178.462 90.7314 173.436C90.7314 173.436 88.2858 170.426 88.2858 170.242C88.2858 170.057 86.1957 165.401 86.153 163.81L70.7828 163.683H70.7685Z" fill="#FDD7BA"/>
<path d="M67.4445 173.748C67.4445 173.748 72.0939 181.585 78.5776 183.147C78.5776 183.147 88.8576 177.582 90.8055 173.294L93.2938 173.89C93.2938 173.89 88.2889 181.103 84.9049 182.948C81.5208 184.78 78.3217 186.554 78.3217 186.554C78.3217 186.554 68.3118 182.054 64.3164 174.572L67.4303 173.748H67.4445Z" fill="#1982BC"/>
<path d="M38.3939 112.543C38.5646 112.543 38.6072 114.346 39.1191 117.526C39.6452 120.692 40.6974 125.278 43.3278 130.347C45.9298 135.401 50.1953 140.909 56.3946 145.183C62.537 149.471 70.6416 152.338 79.3149 152.324C87.9882 152.353 96.0928 149.471 102.235 145.183C108.434 140.909 112.7 135.401 115.302 130.347C117.932 125.264 118.985 120.678 119.511 117.526C120.008 114.346 120.065 112.543 120.236 112.543C120.364 112.543 120.591 114.346 120.335 117.626C120.051 120.877 119.212 125.661 116.667 131.014C114.15 136.338 109.814 142.216 103.373 146.787C97.0028 151.373 88.4574 154.482 79.3291 154.454C70.2008 154.482 61.6555 151.387 55.2856 146.787C48.8446 142.216 44.5221 136.338 41.9912 131.014C39.4319 125.661 38.593 120.877 38.3086 117.626C38.0527 114.346 38.2944 112.543 38.4082 112.543H38.3939Z" fill="black"/>
<path d="M78.1779 97.9058C78.1779 101.512 77.2821 104.437 76.1873 104.437C75.0925 104.437 74.2109 101.512 74.2109 97.9058C74.2109 94.2997 75.0925 91.375 76.1873 91.375C77.2821 91.375 78.1779 94.2997 78.1779 97.9058Z" fill="black"/>
<path d="M84.3771 97.9058C84.3771 101.512 83.4956 104.437 82.3865 104.437C81.2775 104.437 80.4102 101.512 80.4102 97.9058C80.4102 94.2997 81.2917 91.375 82.3865 91.375C83.4814 91.375 84.3771 94.2997 84.3771 97.9058Z" fill="black"/>
<path d="M20.0398 95.6628C20.1109 95.6628 20.0825 96.4011 19.9687 97.7641C19.8692 99.127 19.6701 101.143 19.727 103.727C19.8408 108.866 20.5375 116.462 23.9215 125.066C27.2344 133.613 33.4052 143.139 43.0454 150.593C47.8513 154.298 53.4534 157.479 59.6811 159.679C65.8946 161.88 72.7195 163.087 79.7293 163.072C86.739 163.058 93.5497 161.795 99.749 159.566C105.962 157.322 111.565 154.128 116.328 150.38C125.925 142.869 132.039 133.3 135.295 124.725C138.608 116.107 139.276 108.512 139.362 103.358C139.419 98.1758 138.978 95.3079 139.163 95.2795C139.276 95.2511 139.987 98.0906 140.201 103.344C140.371 108.554 139.931 116.334 136.717 125.25C133.546 134.11 127.404 144.062 117.551 151.913C112.659 155.832 106.887 159.168 100.46 161.525C94.0473 163.867 86.9807 165.188 79.7293 165.202C72.4778 165.23 65.4112 163.967 58.9702 161.653C52.5292 159.353 46.7422 156.03 41.8226 152.154C31.9265 144.374 25.713 134.45 22.4996 125.605C19.2151 116.718 18.7459 108.952 18.8739 103.727C18.9592 101.1 19.2862 99.0702 19.528 97.7215C19.7839 96.3727 19.9545 95.6628 20.0256 95.677L20.0398 95.6628Z" fill="black"/>
<path d="M70.6567 164.137C70.7562 164.151 70.742 165.145 70.415 166.905C70.2443 167.785 70.0026 168.85 69.6045 170.071C69.1779 171.292 68.6945 172.641 67.7277 174.089L67.6139 174.245L67.3722 174.302C64.8129 174.87 61.8838 175.537 58.7558 176.588C57.1917 177.113 55.585 177.738 54.021 178.533C52.4712 179.328 50.9213 180.322 49.7554 181.642L49.9687 181.145L49.6985 186.98C49.3431 195.726 49.2151 203.748 49.3146 209.952L49.0161 209.427C55.5708 213.615 60.6042 214.651 60.5046 214.949C60.5046 215.162 55.2864 214.609 48.2909 210.534L48.0208 210.378V210.009C47.6511 203.762 47.6369 195.698 47.9923 186.924C48.0776 184.922 48.1629 182.977 48.2909 181.06V180.762L48.5042 180.549C49.926 178.973 51.6323 177.937 53.3101 177.113C54.9878 176.29 56.6798 175.679 58.3008 175.182C61.5426 174.189 64.5711 173.621 67.1447 173.166L66.7892 173.379C67.6423 172.243 68.2537 170.895 68.723 169.773C69.1922 168.637 69.5334 167.615 69.7893 166.777C70.3012 165.102 70.5429 164.151 70.6709 164.179L70.6567 164.137Z" fill="black"/>
<path d="M86.2544 164.349C86.3824 164.321 86.681 165.315 87.3492 167.033C87.6905 167.884 88.117 168.921 88.7711 170.028C89.0981 170.582 89.4678 171.136 89.937 171.661C90.1645 171.916 90.4204 172.158 90.7048 172.371C90.9465 172.57 91.3589 172.754 91.4868 172.783H91.5011H91.5295C94.2168 173.251 97.3022 173.904 100.629 174.983C102.293 175.523 104.013 176.161 105.72 177.013C107.426 177.879 109.175 178.93 110.625 180.534L110.824 180.747V181.045L111.08 185.631C111.492 195.03 111.464 203.605 111.094 209.994V210.349L110.81 210.505C104.582 214.111 100.075 214.779 100.061 214.594C99.9611 214.31 104.298 213.188 110.127 209.455L109.843 209.951C109.928 203.591 109.786 195.073 109.374 185.702L109.146 181.145L109.36 181.656C108.165 180.321 106.573 179.299 104.98 178.476C103.374 177.652 101.724 176.999 100.132 176.431C96.9325 175.31 93.904 174.571 91.2878 173.975H91.3304C90.6479 173.833 90.3494 173.563 89.9655 173.279C89.6242 172.995 89.3398 172.683 89.0839 172.371C88.572 171.746 88.2024 171.107 87.9038 170.497C87.3066 169.276 86.9511 168.168 86.6952 167.26C86.2118 165.442 86.1265 164.392 86.2402 164.378L86.2544 164.349Z" fill="black"/>
<path d="M67.2444 173.72C67.4434 173.592 68.4529 174.926 70.3724 176.8C72.2777 178.632 75.1499 181.088 78.9604 182.323H78.4344L78.9036 182.153C82.7568 180.733 85.6858 178.107 87.6764 176.204C89.6812 174.273 90.7903 172.925 90.9893 173.052C91.1884 173.18 90.4064 174.799 88.558 177.013C86.7095 179.186 83.7805 182.139 79.4723 183.743L78.9462 183.928L78.6903 184.013L78.4201 183.928C74.1688 182.522 71.2398 179.711 69.4909 177.595C67.7278 175.423 67.0453 173.833 67.2444 173.72Z" fill="black"/>
<path d="M64.3984 174.742C64.5548 174.643 65.7065 176.347 68.0242 178.703C70.3133 181.018 73.8538 184.113 78.617 185.66H78.2331L78.8303 185.447C83.6646 183.658 87.2476 180.364 89.6506 177.979C92.0677 175.537 93.3474 173.819 93.5038 173.933C93.646 174.018 92.608 175.949 90.3188 178.604C88.0297 181.188 84.4324 184.737 79.271 186.654L78.6312 186.881L78.4464 186.952L78.2473 186.881C73.1571 185.206 69.574 181.841 67.3843 179.314C65.1947 176.73 64.2705 174.827 64.4269 174.756L64.3984 174.742Z" fill="black"/>
<path d="M20.3498 73.0743C20.0796 72.9891 20.2076 71.6119 20.9185 69.4965C21.6294 67.4095 22.966 64.5558 25.2409 61.9435C27.5017 59.3169 30.2885 57.6132 32.4497 56.9034C34.6252 56.1793 36.0897 56.3355 36.1039 56.6194C36.1323 56.9176 34.8669 57.2867 33.0469 58.2805C31.2269 59.2601 28.9093 60.9496 26.8476 63.3348C24.7717 65.7058 23.3214 68.2471 22.2977 70.0928C21.274 71.9527 20.6483 73.1594 20.3498 73.0601V73.0743Z" fill="black"/>
<path d="M25.0984 70.0648C25.4965 70.4765 24.8993 71.7543 23.5201 72.7481C22.8376 73.2308 22.0698 73.529 21.4442 73.5716C20.8186 73.6283 20.3494 73.387 20.3636 73.0888C20.3636 72.5493 21.0887 71.8821 22.2973 71.016C23.4775 70.1784 24.7003 69.6389 25.1126 70.079L25.0984 70.0648Z" fill="black"/>
<path d="M19.2856 97.6931C19.0439 97.8067 17.9917 96.4011 17.0533 93.7178C16.1291 91.0629 15.5035 87.0024 16.513 82.7006C17.4799 78.3988 19.6695 74.9914 21.5179 72.8901C23.3806 70.7605 24.9019 69.8377 25.0868 70.0648C25.2858 70.292 24.1768 71.5556 22.7123 73.7988C21.262 76.0278 19.4562 79.279 18.5747 83.1691C17.6647 87.0592 17.9917 90.7363 18.5036 93.3345C19.0155 95.9468 19.57 97.5653 19.2714 97.6931H19.2856Z" fill="black"/>
<path d="M34.3431 83.14C34.144 83.14 34.0018 82.3449 33.6179 81.0529C33.234 79.7752 32.5658 77.9153 31.4141 76.0413L33.1203 75.6437C33.0208 78.2419 32.0539 81.1097 30.5894 83.8215C28.3713 87.8677 25.6129 90.9628 23.5086 93.0356C21.39 95.1084 19.8402 96.1448 19.6553 95.9319C19.4563 95.7189 20.5938 94.3134 22.3995 92.0276C24.1768 89.7418 26.6509 86.59 28.7268 82.7992C30.106 80.2579 31.0586 77.7165 31.3145 75.5017L31.67 72.4209L33.0208 75.09C35.3384 79.6758 34.727 83.211 34.3715 83.14H34.3431Z" fill="black"/>
<path d="M42.6889 65.5636C42.9591 65.5068 43.5278 66.6 43.67 68.5735C43.8264 70.5327 43.3003 73.3154 41.8642 75.9278C40.4424 78.5543 38.5798 80.4852 37.101 81.6919C35.6223 82.8987 34.5133 83.3814 34.3284 83.1543C33.9303 82.6858 37.3854 79.6475 39.9732 74.9339C41.2528 72.5914 41.9069 70.2772 42.1486 68.5309C42.4045 66.7988 42.3761 65.6488 42.6747 65.5778L42.6889 65.5636Z" fill="black"/>
<path d="M45.7182 36.5162C46.1875 36.928 43.0309 40.9033 40.2725 46.3267C38.8933 49.0384 37.9123 51.6081 37.3009 53.5106C36.6752 55.413 36.4193 56.634 36.1207 56.634C35.8221 56.634 35.552 55.2995 35.8221 53.184C36.0781 51.0828 36.9027 48.2291 38.3673 45.3613C41.3247 39.5829 45.3343 36.1329 45.7182 36.5162Z" fill="black"/>
<path d="M47.2543 44.4522C47.0126 44.6083 46.5007 44.3528 46.0173 43.6855C45.5196 43.0182 45.0789 41.9676 44.8798 40.7892C44.4959 38.3899 45.1215 36.4874 45.7045 36.53C46.2874 36.5726 46.6287 38.3473 46.9841 40.4343C47.2827 42.5213 47.7093 44.1114 47.2543 44.4522Z" fill="black"/>
<path d="M61.0023 22.446C61.4146 22.9713 56.6088 26.6626 52.5423 32.5829C50.5232 35.536 49.1867 38.5033 48.4758 40.7323C47.7364 42.9613 47.5516 44.4236 47.253 44.4378C46.9544 44.4662 46.5989 42.8761 47.0113 40.3773C47.3952 37.8928 48.618 34.5422 50.7792 31.3761C52.9262 28.1959 55.4855 25.8391 57.4619 24.3484C59.4383 22.8577 60.8317 22.2046 61.0023 22.4318V22.446Z" fill="black"/>
<path d="M61.7124 36.9274C61.4991 37.1119 60.6602 36.6008 59.9493 35.2805C59.2384 33.9743 58.8118 31.9583 58.8545 29.8002C58.9682 25.47 60.447 22.2756 60.9873 22.446C61.5702 22.6021 61.0726 25.8959 60.9873 29.8428C60.9446 31.8163 61.101 33.5484 61.357 34.7693C61.5987 35.9903 61.9399 36.7428 61.6982 36.9416L61.7124 36.9274Z" fill="black"/>
<path d="M138.861 73.7135C138.548 73.7277 138.249 72.237 137.68 69.9086C137.097 67.6086 136.244 64.3858 134.339 61.4611C132.462 58.508 129.69 56.8469 127.486 56.1939C125.282 55.4982 123.76 55.5266 123.732 55.2284C123.675 54.9587 125.239 54.3624 127.827 54.7315C129.107 54.9303 130.628 55.413 132.121 56.3358C133.614 57.2587 135.021 58.6216 136.116 60.2969C138.306 63.6617 138.946 67.2111 139.173 69.6672C139.372 72.166 139.145 73.6993 138.875 73.7135H138.861Z" fill="black"/>
<path d="M134.584 70.0081C134.982 69.5821 136.233 70.0932 137.385 71.1155C138.537 72.1519 139.191 73.2451 138.864 73.7136C138.522 74.2105 137.157 73.7562 135.977 72.7056C134.783 71.655 134.186 70.434 134.584 70.0081Z" fill="black"/>
<path d="M140.056 97.6213C139.757 97.5077 140.212 95.8892 140.61 93.2911C141.022 90.7071 141.25 87.0868 140.425 83.2109C139.629 79.335 138.022 76.0696 136.7 73.798C135.378 71.5122 134.354 70.206 134.567 69.993C134.766 69.7801 136.217 70.7739 137.951 72.9461C139.672 75.1041 141.648 78.5399 142.515 82.7708C143.411 87.0016 142.899 90.9769 142.089 93.6176C141.278 96.2867 140.312 97.7207 140.056 97.6213Z" fill="black"/>
<path d="M71.9658 12.3232C72.1648 12.5645 71.0842 13.6577 69.705 15.617C68.3258 17.5762 66.7191 20.4725 65.4679 23.9367C62.9512 30.865 62.3114 36.9699 61.7142 36.9273C61.1455 36.9415 60.8184 30.5527 63.4631 23.2126C64.7854 19.5639 66.7476 16.5114 68.5391 14.6657C70.3307 12.8059 71.7952 12.1102 71.9658 12.3232Z" fill="black"/>
<path d="M75.5766 31.5463C75.5198 31.674 75.1643 31.7024 74.6524 31.3759C74.1406 31.0778 73.5718 30.4389 73.0884 29.5728C72.1215 27.8407 71.5101 25.271 71.2258 22.4599C70.6712 16.8235 71.3964 12.2803 71.9651 12.3087C72.5623 12.3229 72.8182 16.8235 73.3443 22.2327C73.6145 24.9303 73.9842 27.3438 74.4818 28.9623C74.9368 30.6092 75.6762 31.2623 75.5766 31.5321V31.5463Z" fill="black"/>
<path d="M80.8504 0.0145731C81.0636 -0.141599 82.4002 1.42012 82.9974 4.50097C83.623 7.55342 83.3955 11.8836 82.3149 16.3842C80.111 25.4138 76.1298 31.8595 75.5895 31.5471C75.0919 31.3057 78.1204 24.5904 80.239 15.9015C81.2911 11.5713 81.7177 7.56762 81.5044 4.71393C81.3338 1.84604 80.5802 0.184942 80.8646 0.0287705L80.8504 0.0145731Z" fill="black"/>
<path d="M92.1954 33.2646C91.8826 33.2363 91.9111 31.2202 91.5129 28.0684C91.129 24.9165 90.1906 20.6147 88.4702 16.0573C85.0435 6.92837 80.3514 0.369151 80.849 0.0142147C81.2614 -0.383314 86.8919 5.79258 90.475 15.3049C92.2665 20.0326 93.0201 24.6326 93.0201 27.9548C93.0343 31.2912 92.4656 33.293 92.1954 33.2504V33.2646Z" fill="black"/>
<path d="M113.127 24.8602C113.411 24.8034 113.866 25.6268 114.207 27.0892C114.549 28.5373 114.719 30.6669 114.25 32.9811C113.781 35.2811 112.729 37.212 111.705 38.362C110.681 39.5261 109.757 39.9379 109.572 39.7107C109.387 39.4836 109.856 38.7453 110.454 37.5243C111.065 36.3033 111.762 34.5712 112.16 32.5552C112.97 28.5231 112.487 24.9738 113.112 24.8602H113.127Z" fill="black"/>
<path d="M123.721 55.2281C123.409 55.1145 124.02 53.283 124.12 50.33C124.262 47.3769 123.608 43.3022 121.802 39.114C120.025 34.9257 117.693 31.4332 115.944 28.9628C114.181 26.4782 112.986 25.0443 113.129 24.8597C113.342 24.59 114.991 25.7116 117.11 28.0116C119.214 30.3116 121.859 33.8183 123.764 38.2763C125.698 42.7201 126.181 47.3059 125.613 50.4719C125.086 53.6522 123.935 55.3275 123.707 55.2281H123.721Z" fill="black"/>
<path d="M116.271 80.1161C115.759 79.7895 117.48 76.5525 117.451 72.2365C117.494 67.9205 116.257 64.4563 116.797 64.2007C117.053 64.073 117.735 64.8112 118.375 66.2452C119.015 67.6649 119.612 69.8087 119.57 72.2507C119.57 74.6926 118.845 76.8649 118.063 78.242C117.266 79.6192 116.484 80.258 116.257 80.1161H116.271Z" fill="black"/>
<path d="M124.685 75.6869C124.941 75.8005 124.955 76.4678 124.486 77.3906C124.017 78.2992 122.965 79.364 121.571 80.0029C118.742 81.2949 116.239 80.6986 116.282 80.1307C116.282 79.5344 118.429 79.1085 120.661 78.0721C122.908 77.1067 124.13 75.4739 124.685 75.6869Z" fill="black"/>
<path d="M139.786 95.6762C139.686 95.9317 138.165 95.7188 135.933 94.6398C133.714 93.5892 130.814 91.5305 128.553 88.4497C126.278 85.383 125.126 82.075 124.671 79.6615C124.216 77.2337 124.387 75.6862 124.671 75.672C124.97 75.6578 125.311 77.0775 126.108 79.2639C126.904 81.4361 128.183 84.3892 130.259 87.1861C134.397 92.8793 140.056 95.0799 139.772 95.6762H139.786Z" fill="black"/>
<path d="M71.8358 67.75C71.9069 68.2895 65.3379 69.766 56.9916 69.695C52.8256 69.6382 49.0292 69.0703 46.3988 68.1191C43.74 67.2247 42.4176 65.7907 42.702 65.5636C42.8868 65.3932 44.2234 66.1882 46.8112 66.671C49.3563 67.1963 52.9962 67.5086 57.0343 67.5654C65.1246 67.6364 71.7789 67.1111 71.85 67.75H71.8358Z" fill="black"/>
<path d="M64.9702 63.1926C65.3825 62.795 66.9608 63.5759 68.8661 64.7543C70.7429 65.9469 72.1221 67.2247 71.852 67.75C71.5818 68.2611 69.6907 67.8067 67.7144 66.5432C65.7238 65.308 64.5294 63.6185 64.9702 63.1926Z" fill="black"/>
<path d="M101.824 71.9527C101.568 72.1656 100.118 70.4761 97.1602 68.6873C94.2311 66.87 89.6954 65.1805 84.4346 64.3428C79.1737 63.4768 74.2825 63.4058 70.7563 63.3916C67.2159 63.3916 65.012 63.491 64.9694 63.1928C64.9267 62.9089 67.0879 62.27 70.671 61.8867C74.2541 61.5033 79.2874 61.333 84.7758 62.2416C90.2642 63.1077 95.0842 65.1663 97.999 67.4521C100.956 69.7237 102.023 71.8249 101.81 71.9527H101.824Z" fill="black"/>
<path d="M99.3932 61.2473C99.5354 61.0202 100.317 61.1479 101.199 61.9714C102.08 62.7806 102.891 64.314 103.118 66.0461C103.588 69.5386 102.351 72.1084 101.825 71.9522C101.227 71.8244 101.426 69.2547 101.014 66.3584C100.815 64.9103 100.417 63.7177 100.005 62.88C99.6064 62.0282 99.2225 61.4887 99.3932 61.2331V61.2473Z" fill="black"/>
<path d="M102.022 67.8072C102.022 67.1967 105.435 66.8133 109.43 65.9331C113.468 65.1096 116.482 63.7751 116.795 64.201C116.98 64.4424 116.383 65.1948 115.132 65.9757C113.895 66.7565 112.032 67.5516 109.885 68.0201C105.562 68.9572 101.994 68.3751 102.008 67.8214L102.022 67.8072Z" fill="black"/>
<path d="M95.8925 15.6314C96.1626 15.5462 96.8025 16.4548 97.2575 18.1869C97.7125 19.9048 97.8546 22.4462 97.2148 25.1011C96.5892 27.756 95.409 29.9424 94.3711 31.348C93.3331 32.7677 92.4232 33.435 92.1957 33.2504C91.7264 32.8955 94.0014 29.4029 95.1389 24.6042C96.3617 19.8338 95.3237 15.8018 95.9067 15.6172L95.8925 15.6314Z" fill="black"/>
<path d="M109.573 39.7105C109.261 39.6679 109.346 38.0636 108.749 35.65C108.18 33.2365 106.772 30.0562 104.625 26.8476C100.289 20.4446 95.4545 16.1285 95.8952 15.6316C96.0801 15.4187 97.5019 16.2421 99.521 17.9458C101.526 19.6637 104.128 22.2618 106.403 25.655C108.692 29.034 110.028 32.6544 110.242 35.3803C110.498 38.1204 109.844 39.7531 109.588 39.6963L109.573 39.7105Z" fill="black"/>
</g>
</g>
<defs>
<clipPath id="clip0_461_10023">
<rect width="127" height="216" fill="white" transform="translate(16)"/>
</clipPath>
</defs>
</svg>
