<svg width="160" height="177" viewBox="0 0 160 177" fill="none" xmlns="http://www.w3.org/2000/svg">
<path d="M0 80.0041C0 95.9653 4.6791 110.838 12.7384 123.322C13.1861 124.02 13.6459 124.713 14.1179 125.395C14.1663 125.468 14.2187 125.54 14.2712 125.609C14.7028 126.23 15.1425 126.843 15.5942 127.452C17.5304 130.094 19.636 132.603 21.8908 134.983C23.1211 136.282 24.3917 137.54 25.7026 138.747C25.864 138.904 26.0294 139.049 26.1948 139.202C29.5225 142.232 33.1085 144.983 36.9163 147.415C41.91 150.618 47.2748 153.276 52.9461 155.313C61.3926 158.346 70.5048 160 79.996 160C93.3031 160 105.856 156.749 116.896 150.989C118.631 150.089 120.325 149.125 121.979 148.101C123.265 147.306 124.532 146.471 125.766 145.608C128.582 143.643 131.264 141.502 133.801 139.198C133.934 139.081 134.063 138.96 134.197 138.839C135.334 137.791 136.443 136.71 137.52 135.588C137.718 135.391 137.916 135.185 138.109 134.979C151.679 120.651 160 101.298 160 80C160 35.8191 124.185 0 80 0C35.8151 0 0 35.8191 0 80V80.0041Z" fill="#B8F1CD"/>
<g clip-path="url(#clip0_461_9833)">
<mask id="mask0_461_9833" style="mask-type:alpha" maskUnits="userSpaceOnUse" x="0" y="0" width="160" height="160">
<path d="M0 80.0041C0 95.9653 4.6791 110.838 12.7384 123.322C13.1861 124.02 13.6459 124.713 14.1179 125.395C14.1663 125.468 14.2187 125.54 14.2712 125.609C14.7028 126.23 15.1425 126.843 15.5942 127.452C17.5304 130.094 19.636 132.603 21.8908 134.983C23.1211 136.282 24.3917 137.54 25.7026 138.747C25.864 138.904 26.0294 139.049 26.1948 139.202C29.5225 142.232 33.1085 144.983 36.9163 147.415C41.91 150.618 47.2748 153.276 52.9461 155.313C61.3926 158.346 70.5048 160 79.996 160C93.3031 160 105.856 156.749 116.896 150.989C118.631 150.089 120.325 149.125 121.979 148.101C123.265 147.306 124.532 146.471 125.766 145.608C128.582 143.643 131.264 141.502 133.801 139.198C133.934 139.081 134.063 138.96 134.197 138.839C135.334 137.791 136.443 136.71 137.52 135.588C137.718 135.391 137.916 135.185 138.109 134.979C151.679 120.651 160 101.298 160 80C160 35.8191 124.185 0 80 0C35.8151 0 0 35.8191 0 80V80.0041Z" fill="#B8F1CD"/>
</mask>
<g mask="url(#mask0_461_9833)">
<path d="M136.037 81.8462C136.037 81.8462 138.598 65.583 122.301 51.2152C122.301 51.2152 121.85 55.5759 118.453 55.9072L115.467 44.2301C115.467 44.2301 111.233 44.2301 108.672 51.5995C108.672 51.5995 105.195 49.6114 103.868 42.6528C103.868 42.6528 99.5547 49.3595 91.2604 50.3536C91.2604 50.3536 95.6133 46.7219 93.2776 34.6206C93.2776 34.6206 88.2744 38.6764 86.6156 50.3536C86.6156 50.3536 82.4617 48.1666 80.0199 40.9297L77.6576 44.2168C77.6576 44.2168 74.5522 36.8871 68.6467 34.1699C68.6467 34.1699 66.9613 44.2963 70.8629 49.6776C70.8629 49.6776 62.98 48.3522 58.6669 41.884C58.6669 41.884 56.6762 48.7631 52.9471 51.6658C52.9471 51.6658 52.1243 46.0857 46.8159 44.4024C46.8159 44.4024 42.6754 48.7896 42.9143 56.2784L39.5302 51.573C39.5302 51.573 28.4091 60.0691 25.9141 83.9139C25.9141 83.9139 25.5426 83.6488 25.0117 83.1186C30.413 108.62 53.2391 127.773 80.5905 127.773C107.942 127.773 132.095 107.494 136.594 80.8786C136.421 81.1967 136.262 81.5016 136.063 81.8197L136.037 81.8462Z" fill="#FDD7BA"/>
<path d="M50.0261 79.6861C50.464 82.5756 47.8895 85.3723 44.2798 85.9289C40.6568 86.4856 37.3656 84.5902 36.9144 81.6875C36.4632 78.7981 39.051 76.0014 42.6607 75.4447C46.2837 74.888 49.5749 76.7834 50.0261 79.6861Z" fill="#F9BAAC"/>
<path d="M112.771 79.6861C112.333 82.5756 114.908 85.3723 118.518 85.9289C122.14 86.4856 125.432 84.5902 125.883 81.6875C126.334 78.7981 123.746 76.0014 120.137 75.4447C116.514 74.888 113.222 76.7834 112.771 79.6861Z" fill="#F9BAAC"/>
<path d="M25.902 83.9407C25.902 83.9407 17.2626 77.963 21.1642 62.548C21.1642 62.548 15.8028 45.0919 33.7451 33.0701C33.7451 33.0701 36.6647 24.0704 46.9497 20.0277C46.9497 20.0277 42.557 19.2987 46.4587 16.9792C50.3604 14.6597 60.0349 10.7496 69.9616 10.8822C69.9616 10.8822 72.0849 9.84832 70.519 7.62157C68.953 5.39482 65.2106 4.89115 65.2106 4.89115C65.2106 4.89115 72.6689 -0.251575 80.0608 6.46843C80.0608 6.46843 83.6307 -4.13513 97.7244 4.81163C97.7244 4.81163 87.2802 6.05755 90.6776 9.78205C90.6776 9.78205 111.075 9.37116 116.556 18.3179C116.556 18.3179 117.047 19.8024 114.074 19.8952C114.074 19.8952 126.43 23.9113 127.757 34.9523C127.757 34.9523 139.395 43.5942 138.519 61.819C138.519 61.819 142.859 70.8453 136.064 81.8598C136.064 81.8598 138.626 65.5966 122.329 51.2287C122.329 51.2287 121.878 55.5895 118.48 55.9208L115.494 44.2436C115.494 44.2436 111.261 44.2436 108.7 51.6131C108.7 51.6131 105.223 49.6249 103.895 42.6664C103.895 42.6664 99.5824 49.3731 91.288 50.3672C91.288 50.3672 95.6409 46.7355 93.3052 34.6342C93.3052 34.6342 88.3021 38.69 86.6432 50.3672C86.6432 50.3672 82.4894 48.1802 80.0475 40.9433L77.6853 44.2304C77.6853 44.2304 74.5799 36.9007 68.6743 34.1835C68.6743 34.1835 66.9889 44.3099 70.8905 49.6912C70.8905 49.6912 63.0076 48.3658 58.6945 41.8976C58.6945 41.8976 56.7039 48.7767 52.9747 51.6794C52.9747 51.6794 52.1519 46.0993 46.8436 44.4159C46.8436 44.4159 42.703 48.8032 42.9419 56.2919L39.5578 51.5866C39.5578 51.5866 28.4367 60.0827 25.9418 83.9275L25.902 83.9407Z" fill="#1B1913"/>
<path d="M73.1592 128.409L71.58 134.374L69.9609 137.356L71.3544 141.319C71.3544 141.319 79.8743 143.281 89.7347 141.372L91.5926 136.786C91.5926 136.786 88.7394 133.26 88.6995 133.048C88.6597 132.836 87.3326 128.197 87.3326 128.197L73.146 128.409H73.1592Z" fill="#FDD7BA"/>
<path d="M62.1168 139.397C62.1168 139.397 55.6273 140.961 52.8669 144.434L52.5352 171.327C52.5352 171.327 59.1176 175.356 63.0458 175.86L73.344 176.099L75.9319 163.931L73.5033 161.665L64.1074 152.055L69.4689 145.587L62.5016 145.362L62.1301 139.384L62.1168 139.397Z" fill="#CA8461"/>
<path d="M98.7192 138.708C98.7192 138.708 105.886 140.246 109.641 144.5L110.145 171.513C110.145 171.513 104.452 175.661 99.5818 175.436L87.7839 176.125L85.1562 163.785L97.1532 152.466L92.4022 146.449L98.9846 145.07L98.7325 138.721L98.7192 138.708Z" fill="#CA8461"/>
<path d="M72.0722 131.683C72.0722 131.683 67.9317 131.273 65.0254 134.334C62.119 137.396 62.6233 144.858 62.6233 144.858L68.5952 146.184L64.614 152.652L75.9208 163.945C75.9208 163.945 75.5625 152.48 69.9622 137.37L72.0722 131.697V131.683Z" fill="#B45F3E"/>
<path d="M88.5802 131.352C88.5802 131.352 96.7949 132.173 98.122 137.647C99.4491 143.122 98.5334 145.189 98.5334 145.189C98.5334 145.189 91.7387 146.183 91.9775 146.183C92.2164 146.183 96.5427 152.731 96.5427 152.731L85.1562 163.772L89.3366 141.465L91.6059 136.799L88.5934 131.365L88.5802 131.352Z" fill="#B45F3E"/>
<path d="M71.7398 141.465C71.7398 141.465 79.8219 142.128 80.1536 142.168C80.4854 142.208 89.7353 141.386 89.7353 141.386C89.7353 141.386 87.957 148.265 86.6697 153.977C85.3824 159.69 84.7587 163.547 84.7587 163.547L87.8641 175.768L73.3058 175.887L76.6235 163.547L71.7266 141.465H71.7398Z" fill="#D6BD61"/>
<path d="M73.0678 128.582C73.4925 128.648 73.5456 130.875 72.683 133.473C71.8602 136.084 70.2544 137.833 69.8828 137.528C69.5643 137.277 70.3871 135.421 71.1701 132.969C71.9796 130.543 72.6166 128.515 73.0678 128.582Z" fill="black"/>
<path d="M62.1158 139.397C62.1557 139.53 61.1869 139.94 59.5413 140.696C57.9355 141.491 55.4405 142.578 53.4499 144.818L53.6092 144.434C53.4764 148.45 53.3305 153.354 53.2376 158.629C53.1579 163.282 53.1447 167.616 53.1978 171.327L52.8925 170.784C58.8645 174.614 63.6686 175.688 63.5757 175.993C63.5757 176.244 58.546 175.688 52.1361 171.924L51.8441 171.751L51.8176 171.38C51.6052 167.642 51.5389 163.282 51.6185 158.603C51.7114 153.288 51.9636 148.384 52.2821 144.354V144.116L52.4413 143.957C53.6092 142.697 54.9363 141.915 56.1041 141.292C57.2852 140.696 58.3469 140.298 59.236 139.994C61.0144 139.424 62.0495 139.265 62.0893 139.384L62.1158 139.397Z" fill="black"/>
<path d="M87.623 128.78C88.0742 128.674 88.7908 130.596 89.7331 132.796C90.2108 133.896 90.6753 134.85 91.0602 135.513C91.4318 136.189 91.7104 136.6 91.591 136.786C91.4848 136.971 90.8744 136.825 90.1976 136.229C89.5075 135.646 88.7908 134.625 88.2733 133.419C87.2381 130.98 87.2116 128.859 87.623 128.767V128.78Z" fill="black"/>
<path d="M98.7196 138.708C98.7595 138.576 100.02 138.761 102.157 139.411C103.219 139.742 104.506 140.193 105.926 140.869C107.333 141.558 108.925 142.446 110.305 143.944L110.451 144.103V144.355C110.743 148.039 110.955 152.32 111.062 156.893C111.181 162.288 111.115 167.285 110.876 171.38L110.849 171.738L110.571 171.897C104.851 175.224 100.524 175.874 100.498 175.662C100.392 175.37 104.532 174.243 109.854 170.81L109.562 171.327C109.615 167.258 109.575 162.288 109.456 156.92C109.35 152.373 109.217 148.106 109.071 144.434L109.244 144.845C108.115 143.52 106.669 142.605 105.368 141.876C104.055 141.147 102.847 140.604 101.852 140.166C99.8344 139.305 98.64 138.854 98.6931 138.708H98.7196Z" fill="black"/>
<path d="M59.6905 156.455C59.9692 156.349 62.6897 163.785 63.9903 175.343L63.3665 174.72C68.7678 175.157 75.0052 175.436 81.6539 175.396C88.5681 175.356 95.0443 174.905 100.605 174.389L99.9944 175.025C100.817 163.838 102.702 156.508 102.98 156.575C103.272 156.628 101.905 163.997 101.361 175.104L101.335 175.674L100.751 175.74C95.1903 176.403 88.661 176.947 81.6672 176.973C74.9654 177.013 68.6749 176.642 63.2471 176.085L62.6632 176.032L62.6101 175.475C61.6015 164.037 59.3985 156.535 59.6905 156.455Z" fill="black"/>
<path d="M79.9393 66.8685C79.9393 70.2352 79.1165 72.9656 78.0947 72.9656C77.0728 72.9656 76.25 70.2352 76.25 66.8685C76.25 63.5019 77.0728 60.7715 78.0947 60.7715C79.1165 60.7715 79.9393 63.5019 79.9393 66.8685Z" fill="black"/>
<path d="M85.7378 66.8685C85.7378 70.2352 84.9017 72.9656 83.8798 72.9656C82.858 72.9656 82.0352 70.2352 82.0352 66.8685C82.0352 63.5019 82.858 60.7715 83.8798 60.7715C84.9017 60.7715 85.7378 63.5019 85.7378 66.8685Z" fill="black"/>
<path d="M80.1516 6.93203C79.926 6.8525 80.0321 5.52706 81.1469 3.67143C81.7175 2.77013 82.62 1.73628 83.9338 1.00729C85.2476 0.265038 86.933 -0.0928324 88.5919 0.0264577C91.9627 0.278292 94.5638 1.73628 96.2625 2.86291C97.9612 4.0293 98.8105 5.02339 98.638 5.23546C98.4655 5.46078 97.364 4.89084 95.5724 4.08232C93.7941 3.30031 91.2726 2.20019 88.4857 2.00137C87.1055 1.92185 85.8183 2.14717 84.7699 2.63759C83.7214 3.128 82.8986 3.84374 82.2616 4.51972C81.0142 5.92469 80.417 7.05132 80.1383 6.93203H80.1516Z" fill="black"/>
<path d="M80.1538 6.93223C79.9016 7.09129 79.2514 6.29602 78.0304 5.4875C76.8228 4.65247 74.925 4.003 72.6291 4.003C70.3465 3.98974 68.2232 4.42714 66.6837 4.73199C65.1443 5.0501 64.1623 5.24892 64.0428 4.99708C63.9234 4.7585 64.7329 4.06927 66.2591 3.39329C67.772 2.71732 70.0148 2.00158 72.6557 2.01483C73.9695 2.01483 75.2568 2.25341 76.345 2.69081C77.4465 3.1282 78.3357 3.76442 78.9461 4.40063C80.167 5.71282 80.3794 6.81294 80.1671 6.91898L80.1538 6.93223Z" fill="black"/>
<path d="M25.8992 83.9407C26.0585 83.9009 26.523 86.0216 27.8102 89.6931C29.1108 93.3381 31.327 98.5603 35.3614 104.18C39.3692 109.774 45.2881 115.738 53.2241 120.231C61.1071 124.738 71.0338 127.614 81.5577 127.415C92.0815 127.283 101.942 124.208 109.732 119.542C117.575 114.89 123.361 108.793 127.183 103.067C131.032 97.3277 133.022 92.0126 134.177 88.3146C135.305 84.6034 135.677 82.4562 135.836 82.4827C135.942 82.4959 135.836 84.6829 134.92 88.5134C133.991 92.3175 132.16 97.8313 128.364 103.822C124.609 109.8 118.743 116.202 110.687 121.106C102.685 126.024 92.4797 129.258 81.5975 129.39C70.7153 129.602 60.417 126.567 52.3217 121.809C44.1601 117.077 38.1749 110.807 34.2201 104.975C30.2256 99.1038 28.1818 93.6827 27.0803 89.9184C26.0054 86.1276 25.793 83.9539 25.9125 83.9274L25.8992 83.9407Z" fill="black"/>
<path d="M43.2058 80.667C43.3385 80.667 43.3518 82.3238 43.803 85.253C44.2675 88.169 45.2098 92.4104 47.6251 97.1025C50.0006 101.768 53.942 106.884 59.6618 110.834C65.3285 114.797 72.8134 117.475 80.8423 117.448C88.858 117.475 96.3561 114.81 102.023 110.834C107.743 106.871 111.671 101.768 114.06 97.1025C116.475 92.4104 117.417 88.169 117.882 85.253C118.32 82.3238 118.346 80.667 118.479 80.667C118.572 80.667 118.757 82.3238 118.505 85.3326C118.227 88.3148 117.43 92.702 115.081 97.6062C112.759 102.484 108.778 107.852 102.885 112.04C97.0461 116.229 89.2295 119.065 80.8688 119.039C72.5081 119.065 64.6915 116.229 58.8523 112.04C52.96 107.852 48.9787 102.484 46.6563 97.6062C44.3073 92.702 43.5111 88.3148 43.2324 85.3326C42.9802 82.3238 43.166 80.667 43.2589 80.667H43.2058Z" fill="black"/>
<path d="M39.5172 51.5997C39.703 51.8383 38.1768 53.1504 36.3587 55.7483C34.514 58.3197 32.457 62.2297 30.8114 66.8158C27.5202 76.0276 26.4718 84.0201 25.9011 83.9405C25.3836 83.9273 25.5428 75.6698 28.9402 66.1398C30.6389 61.3947 33.0011 57.3654 35.2572 54.8735C37.4867 52.3552 39.3844 51.4009 39.5172 51.5997Z" fill="black"/>
<path d="M42.9007 56.3047C42.8741 56.5698 42.3964 56.7951 41.7063 56.5566C41.0162 56.3312 40.2996 55.695 39.8351 54.8865C38.8929 53.2562 39.0123 51.7187 39.5299 51.5994C40.0607 51.4536 40.8039 52.6067 41.547 53.8792C41.9186 54.5154 42.2371 55.0191 42.476 55.3902C42.7016 55.7613 42.9405 56.0396 42.914 56.318L42.9007 56.3047Z" fill="black"/>
<path d="M46.7904 44.4426C46.8568 44.7077 46.4188 45.1186 46.0473 46.0995C45.6491 47.067 45.251 48.5383 44.8529 50.2083C44.0832 53.5617 43.4594 56.3717 42.902 56.3186C42.3712 56.2789 42.0925 53.3231 42.9286 49.7444C43.3533 47.9683 44.0168 46.3645 44.8661 45.3572C45.2908 44.8535 45.7553 44.5089 46.1402 44.3896C46.525 44.2571 46.7639 44.3234 46.8037 44.4559L46.7904 44.4426Z" fill="black"/>
<path d="M52.7363 52.3154C52.4443 52.2756 52.3382 51.6792 51.9931 50.9369C51.6614 50.1814 51.0642 49.2404 50.175 48.2728C48.3967 46.3376 46.5255 44.9327 46.7909 44.4423C47.0165 43.9651 49.4982 44.6278 51.6481 46.9473C52.7098 48.1005 53.3468 49.5585 53.36 50.6586C53.3999 51.772 52.9752 52.3684 52.723 52.3154H52.7363Z" fill="black"/>
<path d="M52.734 52.3152C52.4022 51.8646 54.2734 49.9559 55.6669 47.0532C57.1002 44.1637 57.7239 41.5261 58.268 41.5659C58.8254 41.5659 59.0775 44.6277 57.4452 47.928C56.649 49.5583 55.5209 50.8307 54.5787 51.5597C53.6232 52.2887 52.8933 52.5141 52.734 52.302V52.3152Z" fill="black"/>
<path d="M71.7002 49.9695C71.6736 50.2346 70.7181 50.4334 69.1654 50.2611C67.626 50.0756 65.5159 49.4128 63.512 48.1139C59.4643 45.4763 57.7657 41.818 58.27 41.5795C58.7344 41.2879 60.9772 44.1111 64.6002 46.4438C68.1701 48.8296 71.74 49.4128 71.7002 49.9695Z" fill="black"/>
<path d="M68.6221 34.1966C69.206 34.2628 68.9937 38.0138 69.4183 42.4276C69.6439 44.6278 70.1084 46.5365 70.6658 47.8089C71.2099 49.1078 71.8071 49.7175 71.6877 49.9561C71.5815 50.2345 70.4402 49.8766 69.4449 48.5246C68.4363 47.1992 67.6666 45.0255 67.4277 42.6397C66.9765 37.8283 68.1178 34.117 68.6088 34.1966H68.6221Z" fill="black"/>
<path d="M68.6185 34.1966C68.791 33.6796 72.268 34.6605 75.1213 37.8946C76.528 39.4983 77.3641 41.301 77.6958 42.6529C78.0276 44.0314 77.9082 44.8797 77.6427 44.9459C77.0854 45.0387 76.1564 42.0167 73.6216 39.2067C71.14 36.357 68.3929 34.7002 68.6185 34.1966Z" fill="black"/>
<path d="M77.6435 44.9457C77.1525 44.7204 77.179 43.5673 77.8293 42.3876C78.4663 41.208 79.5811 40.5453 79.9925 40.9561C80.364 41.3273 80.1517 42.2949 79.5545 43.3685C78.9573 44.4288 78.1345 45.1843 77.6302 44.9457H77.6435Z" fill="black"/>
<path d="M86.5621 50.6848C86.4028 50.8969 85.6995 50.7113 84.744 50.0751C83.8017 49.4389 82.6604 48.3255 81.7049 46.8808C79.7939 43.9781 79.4621 41.0886 79.993 40.9693C80.5238 40.8235 81.6386 43.1828 83.3638 45.7939C85.0492 48.4316 86.8673 50.2474 86.5488 50.6981L86.5621 50.6848Z" fill="black"/>
<path d="M93.2649 34.647C93.3976 34.8988 92.6545 35.5218 91.8847 36.8075C91.0885 38.0799 90.2392 40.0415 89.4827 42.3081C87.9831 46.8543 87.1337 50.7511 86.5764 50.6716C86.0455 50.6186 86.019 46.4965 87.5982 41.6718C88.3945 39.2728 89.5491 37.1786 90.7833 35.9327C92.0175 34.6602 93.172 34.3951 93.2649 34.6337V34.647Z" fill="black"/>
<path d="M91.0765 50.6853C90.8376 50.5262 91.1959 49.6514 91.6338 48.2729C92.0851 46.8945 92.5628 44.9858 92.7884 42.7989C93.2529 38.4249 92.7221 34.7799 93.2662 34.6474C93.7837 34.4751 95.2701 38.1863 94.7791 43.0109C94.5269 45.3967 93.7572 47.5042 92.9211 48.8561C92.0851 50.2081 91.3021 50.8311 91.0897 50.6853H91.0765Z" fill="black"/>
<path d="M91.0744 50.6853C91.0478 50.1287 94.5514 49.5852 97.962 47.1066C101.412 44.6811 103.523 41.8049 103.987 42.0832C104.478 42.3085 102.992 45.98 99.1033 48.7237C97.179 50.0889 95.0955 50.7914 93.5693 50.9769C92.0299 51.1625 91.0876 50.9372 91.0744 50.6721V50.6853Z" fill="black"/>
<path d="M108.763 52.1167C108.67 52.3553 107.887 52.3685 106.879 51.6925C105.87 51.0431 104.861 49.6911 104.251 48.0873C103.056 44.8532 103.455 42.0831 103.972 42.0698C104.53 42.03 105.047 44.5616 106.109 47.3716C106.64 48.7766 107.263 49.9032 107.821 50.6587C108.365 51.4142 108.869 51.8383 108.75 52.1167H108.763Z" fill="black"/>
<path d="M115.057 44.0573C115.283 44.5743 113.425 45.86 111.832 48.0072C110.2 50.1279 109.297 52.2221 108.767 52.1161C108.223 52.0498 108.302 49.3459 110.253 46.801C111.208 45.5418 112.403 44.6803 113.332 44.2694C114.274 43.8453 114.938 43.832 115.057 44.0706V44.0573Z" fill="black"/>
<path d="M118.546 56.5567C118.002 56.4905 117.803 53.6673 116.768 50.3404C115.786 47.0003 114.605 44.3627 115.056 44.0578C115.507 43.7397 117.591 46.1122 118.679 49.7705C119.223 51.5863 119.369 53.3359 119.25 54.5818C119.144 55.8278 118.812 56.57 118.546 56.5435V56.5567Z" fill="black"/>
<path d="M122.3 51.2281C122.565 51.2281 122.844 51.6257 122.91 52.3547C122.977 53.0705 122.764 54.1441 122.087 55.0719C121.411 55.9997 120.508 56.5299 119.818 56.7154C119.128 56.9143 118.624 56.8082 118.544 56.5431C118.372 56.0262 119.566 55.1647 120.482 53.8922C121.411 52.6728 121.742 51.2414 122.3 51.2148V51.2281Z" fill="black"/>
<path d="M135.826 82.4828C135.534 82.4696 135.468 80.4814 135.083 77.3401C134.698 74.212 133.915 69.9176 132.057 65.5171C130.226 61.1034 127.717 57.5379 125.687 55.1389C123.656 52.7266 122.157 51.4541 122.303 51.2288C122.449 50.9902 124.32 51.918 126.709 54.1713C129.098 56.4113 131.964 60.0828 133.902 64.7484C135.866 69.4007 136.476 73.9867 136.503 77.2473C136.529 80.5212 136.091 82.4961 135.839 82.4828H135.826Z" fill="black"/>
<path d="M138.492 61.8052C138.73 61.6992 139.487 62.7331 140.15 64.6682C140.814 66.5901 141.265 69.4796 140.814 72.6076C140.376 75.7357 139.208 78.3733 138.12 80.0831C137.018 81.8062 136.036 82.6413 135.824 82.4689C135.373 82.1641 138.067 78.0552 138.85 72.3293C139.699 66.6034 137.934 61.9908 138.492 61.792V61.8052Z" fill="black"/>
<path d="M138.493 61.8051C138.201 61.7521 138.374 59.9893 138.148 57.2058C137.936 54.4356 137.126 50.6714 135.281 46.8541C133.45 43.0368 131.128 39.9088 129.349 37.7085C127.571 35.5215 126.363 34.2358 126.536 34.0238C126.708 33.8117 128.288 34.7395 130.398 36.7542C132.495 38.7689 135.136 41.9102 137.086 45.9925C139.064 50.0617 139.727 54.2368 139.568 57.1793C139.435 60.1351 138.745 61.8581 138.506 61.8051H138.493Z" fill="black"/>
<path d="M127.741 34.9384C127.436 34.9384 127.343 33.666 126.64 31.8766C125.963 30.0873 124.476 27.8738 122.207 25.9519C119.951 24.0168 117.549 22.6383 115.81 21.6575C114.059 20.6766 112.944 20.0802 113.024 19.8283C113.103 19.5633 114.417 19.6958 116.394 20.385C118.358 21.0743 121.026 22.3202 123.521 24.4542C126.029 26.5616 127.608 29.3318 128.006 31.479C128.431 33.6395 128.006 34.9649 127.768 34.9384H127.741Z" fill="black"/>
<path d="M90.8636 10.1395C90.837 9.87443 92.6551 9.45028 95.6411 9.41052C98.6138 9.38401 102.794 9.74188 107.16 11.2794C111.752 12.8567 115.375 15.6799 117.193 18.1452L117.366 18.3705V18.5296C117.339 19.2321 116.994 19.6032 116.649 19.8683C116.304 20.1201 115.946 20.2262 115.64 20.2792C115.017 20.3852 114.526 20.3322 114.141 20.2792C113.358 20.1334 112.986 19.9346 113 19.802C113.013 19.6695 113.451 19.6297 114.167 19.5369C114.526 19.4839 114.964 19.4176 115.375 19.2586C115.574 19.1791 115.773 19.0598 115.893 18.9405C116.012 18.8344 116.052 18.6091 116.025 18.6356L116.185 19.0333C114.194 16.9921 110.81 14.6328 106.51 13.1483C102.409 11.7035 98.4413 11.1336 95.5748 10.8022C92.695 10.4709 90.8901 10.3913 90.8636 10.1263V10.1395Z" fill="black"/>
<path d="M98.6538 5.23563C98.6538 5.51397 98.0035 5.75255 96.9949 5.99113C95.9863 6.22971 94.5796 6.45504 93.1994 6.86593C92.5226 7.078 91.9254 7.32983 91.5538 7.62143C91.1822 7.91303 91.0097 8.17812 90.9434 8.54924C90.8372 9.318 91.1026 10.0072 90.877 10.153C90.7045 10.2988 89.9082 10.0072 89.5499 8.65528C89.3641 7.9793 89.6295 6.94545 90.3064 6.29598C90.9566 5.63326 91.7927 5.23563 92.6288 4.98379C94.3275 4.48012 95.8536 4.50663 96.9286 4.61267C98.0168 4.73196 98.6671 4.98379 98.6671 5.26214L98.6538 5.23563Z" fill="black"/>
<path d="M69.9598 10.8956C69.7475 10.6968 70.1058 10.0871 70.3181 9.29183C70.411 8.88095 70.3845 8.57609 70.1854 8.311C69.9996 8.01941 69.5352 7.67479 68.938 7.36994C67.7303 6.76023 66.4298 6.34935 65.5141 5.96497C64.5851 5.59384 64.0012 5.28899 64.041 5.01065C64.0675 4.74556 64.7443 4.55999 65.7927 4.5865C66.8412 4.62627 68.301 4.82508 69.8669 5.6071C70.6234 6.01798 71.4064 6.57467 71.831 7.48923C72.0434 7.93988 72.0965 8.47006 72.0168 8.8942C71.9372 9.31834 71.7647 9.66296 71.5922 9.91479C70.8357 10.9089 70.1324 11.0547 69.9598 10.8956Z" fill="black"/>
<path d="M48.3687 19.8283C48.3952 19.9343 48.0767 20.1596 47.3733 20.2922C47.0283 20.3585 46.5771 20.385 46.0462 20.2657C45.5154 20.1199 44.9182 19.9211 44.3874 19.1788L44.2148 18.9402L44.3874 18.5559C45.0376 17.1509 46.378 15.6796 48.1563 14.5663C49.9214 13.4264 52.0845 12.5516 54.3937 11.9154C58.6271 10.749 62.5553 10.4441 65.382 10.4044C68.2088 10.3646 69.9605 10.6297 69.9605 10.908C69.9605 11.1864 68.2353 11.425 65.4882 11.8093C62.7411 12.207 58.9456 12.7371 54.9245 13.8373C52.7348 14.447 50.7176 15.2025 49.0853 16.117C47.4397 17.0316 46.232 18.1317 45.5154 19.2053V18.5824C45.6348 18.8475 46.033 19.1788 46.3647 19.3246C46.7098 19.4837 47.0681 19.5764 47.3733 19.6162C47.9705 19.709 48.3554 19.7222 48.3687 19.8548V19.8283Z" fill="black"/>
<path d="M33.7441 33.0696C33.492 33.0033 33.5052 31.8635 34.1157 30.1404C34.7129 28.4306 36.0267 26.1773 38.0572 24.2421C40.0876 22.307 42.3304 21.0876 44.0158 20.4646C45.7145 19.8284 46.8691 19.7621 46.9355 20.0272C47.1213 20.5441 43.1134 22.1479 39.4241 25.6736C35.6817 29.1463 34.275 33.2287 33.7308 33.0564L33.7441 33.0696Z" fill="black"/>
<path d="M21.175 62.2169C20.9494 62.2964 20.0204 60.5468 19.6621 57.3922C19.2773 54.2642 19.8479 49.7179 22.0376 45.4102C24.1875 41.076 27.1868 37.8552 29.5092 35.814C31.8581 33.7596 33.5834 32.8583 33.7293 33.0836C33.8886 33.3089 32.5084 34.5813 30.4912 36.8213C28.4873 39.0481 25.8198 42.2557 23.8159 46.2983C21.7722 50.3276 21.0556 54.3835 21.0556 57.326C21.0423 60.2817 21.4537 62.1373 21.1617 62.2169H21.175Z" fill="black"/>
<path d="M25.9005 83.9404C25.7413 84.1393 24.4938 83.503 22.9942 81.8462C21.4946 80.2159 19.8888 77.406 19.3048 74.0261C18.7077 70.6462 19.0925 67.5579 19.6499 65.4505C20.2073 63.3298 20.9239 62.1369 21.1761 62.2296C21.4415 62.3224 21.2159 63.6214 21.0433 65.6891C20.8708 67.7568 20.7248 70.633 21.269 73.6815C21.7998 76.73 23.0074 79.2881 24.1222 81.0112C25.2237 82.7343 26.1129 83.7416 25.9138 83.9537L25.9005 83.9404Z" fill="black"/>
<path d="M73.3305 176.112C72.9191 176.019 73.8083 170.691 75.4141 163.202V163.533C75.0159 161.121 74.578 158.483 74.0472 155.74C72.9722 150.08 71.6982 145.03 70.5834 141.438C69.4952 137.833 68.5663 135.699 68.7919 135.566C69.044 135.407 70.464 137.396 71.9105 140.961C73.3836 144.513 74.9098 149.616 75.998 155.355C76.5288 158.139 76.927 160.816 77.2189 163.268L77.2455 163.454L77.2057 163.6C75.3079 171.022 73.7287 176.178 73.3173 176.085L73.3305 176.112Z" fill="black"/>
<path d="M71.1275 131.604C71.1541 131.723 70.7029 131.922 69.8933 132.293C69.0971 132.664 67.9292 133.194 66.695 134.135C65.4741 135.063 64.2399 136.481 63.6029 138.417C62.9394 140.312 62.8465 142.764 63.4304 145.057L62.6341 144.368L68.6326 145.123L69.3758 145.216L71.0745 145.441L70.0526 146.793L65.2485 153.156L65.1556 151.949C71.5257 158.51 75.852 163.348 75.56 163.653C75.2681 163.958 70.4109 159.624 63.8418 153.262L63.2711 152.705L63.7489 152.042L68.4468 145.601L69.1103 147.178L68.3672 147.085L62.3687 146.263L61.7052 146.17L61.5724 145.561C60.9222 142.738 61.161 140.073 62.0502 137.82C62.9394 135.567 64.5451 134.003 66.0049 133.115C67.478 132.214 68.8051 131.842 69.6943 131.657C70.5967 131.485 71.101 131.498 71.1275 131.604Z" fill="black"/>
<path d="M87.7837 176.112C87.3723 176.204 85.793 171.035 83.8953 163.626L83.8555 163.48L83.882 163.295C84.174 160.843 84.5721 158.165 85.1029 155.382C86.1912 149.643 87.7173 144.54 89.1904 140.987C90.6502 137.422 92.0702 135.434 92.3091 135.593C92.5347 135.725 91.5924 137.859 90.5175 141.465C89.4027 145.057 88.1287 150.106 87.0538 155.766C86.5229 158.51 86.085 161.147 85.7001 163.56V163.228C87.2926 170.717 88.1818 176.045 87.7704 176.138L87.7837 176.112Z" fill="black"/>
<path d="M89.9984 131.604C90.025 131.498 90.5293 131.485 91.4317 131.657C92.3208 131.842 93.6479 132.214 95.121 133.115C96.5808 134.003 98.1866 135.567 99.0758 137.82C99.9649 140.073 100.191 142.738 99.5535 145.561L99.4208 146.17L98.7573 146.263L92.7588 147.085L92.0156 147.178L92.6792 145.6L97.3771 152.042L97.8548 152.705L97.2842 153.262C90.7151 159.624 85.8712 163.945 85.5659 163.653C85.2607 163.348 89.6003 158.51 95.9704 151.949L95.8775 153.156L91.0734 146.793L90.0515 145.441L91.7502 145.216L92.4934 145.123L98.4918 144.368L97.6956 145.057C98.2662 142.764 98.1733 140.312 97.5231 138.417C96.8728 136.481 95.6386 135.076 94.4309 134.135C93.21 133.194 92.0422 132.664 91.2326 132.293C90.4231 131.935 89.9719 131.723 89.9984 131.604Z" fill="black"/>
<path d="M89.5884 141.292C89.6946 141.703 85.6602 143.015 80.4713 143.015C75.2823 143.055 71.2347 141.743 71.3541 141.332C71.447 140.894 75.4947 141.464 80.4713 141.425C85.4479 141.425 89.4955 140.855 89.5884 141.292Z" fill="black"/>
</g>
</g>
<defs>
<clipPath id="clip0_461_9833">
<rect width="122" height="177" fill="white" transform="translate(19)"/>
</clipPath>
</defs>
</svg>
