<svg width="205" height="218" viewBox="0 0 205 218" fill="none" xmlns="http://www.w3.org/2000/svg">
<g clip-path="url(#clip0_27_323)">
<path d="M73.1889 87.1977C91.7587 61.5291 101.317 36.8009 94.5377 31.9657C87.7585 27.1306 67.209 44.0194 48.6392 69.688C30.0694 95.3565 20.5112 120.085 27.2904 124.92C34.0696 129.755 54.6191 112.866 73.1889 87.1977Z" fill="url(#paint0_linear_27_323)"/>
<path d="M75.1837 87.3618C56.2937 113.726 35.0841 131.458 27.8106 126.969C26.5112 126.167 25.7424 124.705 25.4708 122.698C25.3887 122.099 25.3083 121.496 25.2226 120.896C25.4898 122.854 26.2388 124.281 27.5104 125.065C34.6133 129.454 55.3276 112.134 73.7763 86.387C92.2266 60.6366 101.424 36.2091 94.3211 31.821C93.2054 31.1314 91.759 30.9789 90.0328 31.3082C90.6337 31.1938 91.2309 31.0779 91.8318 30.9636C93.597 30.6256 95.0797 30.7856 96.2212 31.4866C103.493 35.98 94.0753 60.9935 75.1853 87.3582L75.1837 87.3618Z" fill="url(#paint1_linear_27_323)"/>
<path d="M7.40584 117.46C7.4566 117.842 7.50943 118.229 7.56019 118.61C7.56923 118.679 7.58129 118.771 7.59033 118.84C7.59588 118.877 7.60191 118.923 7.6054 118.955C7.61444 119.024 7.62649 119.116 7.63553 119.185C7.66011 119.377 7.68629 119.566 7.71455 119.761C6.29693 109.243 16.6983 85.6136 34.3745 60.9437C52.5243 35.6227 72.5471 17.2821 83.3668 15.1956C82.6008 15.3449 81.8363 15.4905 81.0666 15.6382C70.5334 17.6743 51.0343 35.5287 33.3651 60.193C16.1536 84.2122 6.02646 107.223 7.40424 117.464L7.40584 117.46Z" fill="url(#paint2_linear_27_323)"/>
<path d="M10.1297 124.485L21.3476 132.485C13.5468 126.922 24.2861 98.6907 45.5973 68.9511C67.1319 38.8864 91.3183 18.6706 99.6109 23.7899C99.7001 23.8467 99.7856 23.902 99.8732 23.9625L88.6537 15.9654C88.5698 15.9066 88.4822 15.8461 88.3914 15.7928C80.1004 10.6699 55.9178 30.8873 34.3758 60.9488C13.0682 90.6901 2.32896 118.921 10.1297 124.485Z" fill="url(#paint3_linear_27_323)"/>
<path d="M102.283 28.6837C102.386 29.4524 102.49 30.221 102.594 30.9897C102.293 28.749 101.44 27.1199 99.9887 26.225C91.9149 21.2375 68.3632 40.9254 47.3917 70.1969C26.4186 99.4719 15.9584 127.243 24.0358 132.232C25.3074 133.017 26.965 133.189 28.9328 132.811L26.6326 133.254C24.6116 133.643 22.9071 133.467 21.6019 132.659C13.3109 127.536 24.0473 99.0131 45.5893 68.9517C67.1329 38.8866 91.3192 18.6709 99.6118 23.7901C101.101 24.7102 101.974 26.3829 102.283 28.6837Z" fill="url(#paint4_linear_27_323)"/>
<path d="M47.397 70.1985C68.3702 40.9235 91.9203 21.2391 99.994 26.2267C108.068 31.2142 97.6112 58.9868 76.6381 88.2619C55.6649 117.537 32.1148 137.221 24.0411 132.234C15.9674 127.246 26.4239 99.4736 47.397 70.1985ZM27.8112 126.969C35.0831 131.462 56.2927 113.73 75.1843 87.3618C94.0743 60.9971 103.494 35.98 96.2202 31.4902C88.9484 26.9968 67.7387 44.7288 48.8471 71.097C29.9571 97.4617 20.5378 122.479 27.8112 126.969Z" fill="url(#paint5_linear_27_323)"/>
</g>
<g clip-path="url(#clip1_27_323)">
<path d="M177.943 206.117C191.985 197.695 189.656 168.193 172.742 140.225C155.827 112.256 130.732 96.4103 116.691 104.833C102.649 113.256 104.977 142.757 121.892 170.726C138.806 198.695 163.901 214.54 177.943 206.117Z" fill="url(#paint6_linear_27_323)"/>
<path d="M147.881 90.9435C147.323 90.7032 146.765 90.4596 146.211 90.2192C160.042 96.2278 175.409 110.48 187.449 129.999C199.943 150.256 205.901 171.403 204.724 186.971C204.743 186.73 204.759 186.487 204.779 186.246C204.782 186.191 204.789 186.12 204.792 186.064C204.815 185.762 204.838 185.46 204.861 185.158C206.008 169.997 200.207 149.406 188.039 129.678C176.315 110.671 161.349 96.7897 147.881 90.9403V90.9435Z" fill="url(#paint7_linear_27_323)"/>
<path d="M122.641 89.6994L111.859 96.1659C128.012 86.4775 156.848 104.334 176.663 136.462C196.693 168.941 199.925 203.7 183.877 214.103C183.704 214.214 183.531 214.324 183.355 214.428L194.136 207.962C194.313 207.858 194.485 207.747 194.658 207.637C210.707 197.234 207.475 162.472 187.444 129.996C167.629 97.8678 138.794 80.0109 122.641 89.6994Z" fill="url(#paint8_linear_27_323)"/>
<path d="M120.774 172.628C103.206 144.144 100.372 113.659 114.444 104.536C120.053 100.898 127.505 101.207 135.547 104.695C135.984 104.883 136.421 105.075 136.855 105.263C128.999 101.856 121.723 101.558 116.244 105.108C102.502 114.017 105.267 143.79 122.424 171.608C139.582 199.426 164.631 214.753 178.377 205.844C183.543 202.495 186.377 196.198 186.99 188.163C186.954 188.634 186.918 189.108 186.882 189.579C186.256 197.806 183.354 204.253 178.064 207.682C163.992 216.806 138.339 201.112 120.771 172.628H120.774Z" fill="url(#paint9_linear_27_323)"/>
<path d="M174.551 137.768C194.056 169.396 197.203 203.246 181.576 213.376C165.948 223.506 137.468 206.078 117.962 174.453C98.4571 142.825 95.31 108.976 110.938 98.8457C126.565 88.7156 155.046 106.144 174.551 137.768ZM114.447 104.536C100.375 113.659 103.209 144.144 120.777 172.628C138.345 201.112 163.994 216.806 178.07 207.682C192.142 198.559 189.311 168.074 171.743 139.59C154.172 111.107 128.522 95.4127 114.447 104.536Z" fill="url(#paint10_linear_27_323)"/>
<path d="M159.791 213.911C159.233 213.671 158.676 213.428 158.121 213.187C167.063 217.072 175.344 217.416 181.579 213.376C197.207 203.245 194.06 169.396 174.554 137.768C155.046 106.14 126.566 88.7151 110.938 98.8453C105.058 102.655 101.836 109.826 101.145 118.972C101.19 118.368 101.236 117.764 101.281 117.163C101.992 107.77 105.303 100.408 111.339 96.4938C127.387 86.0908 156.634 103.987 176.664 136.462C196.695 168.941 199.927 203.703 183.878 214.103C177.476 218.254 168.971 217.9 159.791 213.911Z" fill="url(#paint11_linear_27_323)"/>
</g>
<defs>
<linearGradient id="paint0_linear_27_323" x1="53.7187" y1="36.9242" x2="66.6967" y2="120.091" gradientUnits="userSpaceOnUse">
<stop stop-color="#E2AA21"/>
<stop offset="0.37" stop-color="#E8C53E"/>
<stop offset="0.82" stop-color="#EEC86A"/>
<stop offset="1" stop-color="#EEBE5B"/>
</linearGradient>
<linearGradient id="paint1_linear_27_323" x1="31.6416" y1="129.664" x2="99.8529" y2="34.0277" gradientUnits="userSpaceOnUse">
<stop stop-color="#BA7322"/>
<stop offset="0.03" stop-color="#A96017"/>
<stop offset="0.06" stop-color="#8B3E04"/>
<stop offset="0.08" stop-color="#A05A17"/>
<stop offset="0.11" stop-color="#D3A045"/>
<stop offset="0.13" stop-color="#F2CB61"/>
<stop offset="0.14" stop-color="#FFDC6D"/>
<stop offset="0.21" stop-color="#FFFFB5"/>
<stop offset="0.32" stop-color="#FCFDF6"/>
<stop offset="0.55" stop-color="#FFFF9C"/>
<stop offset="0.68" stop-color="#FDDF59"/>
<stop offset="0.78" stop-color="#FDDC53"/>
<stop offset="0.8" stop-color="#F5CF49"/>
<stop offset="0.84" stop-color="#E1AD31"/>
<stop offset="0.89" stop-color="#C07709"/>
<stop offset="0.9" stop-color="#BB6E03"/>
<stop offset="1" stop-color="#5B1F03"/>
</linearGradient>
<linearGradient id="paint2_linear_27_323" x1="1.92597" y1="115.589" x2="76.8658" y2="10.5193" gradientUnits="userSpaceOnUse">
<stop stop-color="#D6A346"/>
<stop offset="0.69" stop-color="#F5D04E"/>
<stop offset="1" stop-color="#E6BA56"/>
</linearGradient>
<linearGradient id="paint3_linear_27_323" x1="8.54247" y1="123.309" x2="86.3212" y2="14.2585" gradientUnits="userSpaceOnUse">
<stop stop-color="#FFEDC2"/>
<stop offset="0.09" stop-color="#FBEDB6"/>
<stop offset="0.18" stop-color="#F7EFA6"/>
<stop offset="0.38" stop-color="#F3D16E"/>
<stop offset="0.47" stop-color="#EEC65E"/>
<stop offset="0.56" stop-color="#E4B650"/>
<stop offset="0.62" stop-color="#AF7121"/>
<stop offset="0.65" stop-color="#AF7121"/>
<stop offset="0.73" stop-color="#F2D76C"/>
<stop offset="0.79" stop-color="#F8E77D"/>
<stop offset="0.84" stop-color="#F7F1A4"/>
<stop offset="0.89" stop-color="#FFF2C5"/>
<stop offset="0.93" stop-color="#E6AD06"/>
<stop offset="0.95" stop-color="#E6AD06"/>
<stop offset="1" stop-color="#FBCB4A"/>
</linearGradient>
<linearGradient id="paint4_linear_27_323" x1="18.1607" y1="127.164" x2="95.9372" y2="18.1163" gradientUnits="userSpaceOnUse">
<stop stop-color="#DBA42F"/>
<stop offset="0.13" stop-color="#FFE964"/>
<stop offset="0.39" stop-color="#FFDC6D"/>
<stop offset="0.62" stop-color="#FFFFB5"/>
<stop offset="0.75" stop-color="#FCFDF6"/>
<stop offset="0.81" stop-color="#FFFF9C"/>
<stop offset="0.86" stop-color="#FDDC53"/>
<stop offset="0.87" stop-color="#F5CF49"/>
<stop offset="0.9" stop-color="#E1AD31"/>
<stop offset="0.94" stop-color="#BB6E03"/>
<stop offset="1" stop-color="#5B1F03"/>
</linearGradient>
<linearGradient id="paint5_linear_27_323" x1="75.9394" y1="89.1219" x2="48.1634" y2="69.0274" gradientUnits="userSpaceOnUse">
<stop stop-color="#E6C049"/>
<stop offset="1" stop-color="#E09719"/>
</linearGradient>
<linearGradient id="paint6_linear_27_323" x1="192.892" y1="166.947" x2="101.816" y2="144.246" gradientUnits="userSpaceOnUse">
<stop stop-color="#E2AA21"/>
<stop offset="0.37" stop-color="#E8C53E"/>
<stop offset="0.82" stop-color="#EEC86A"/>
<stop offset="1" stop-color="#EEBE5B"/>
</linearGradient>
<linearGradient id="paint7_linear_27_323" x1="152.773" y1="86.4438" x2="210.935" y2="183.409" gradientUnits="userSpaceOnUse">
<stop stop-color="#D6A346"/>
<stop offset="0.69" stop-color="#F5D04E"/>
<stop offset="1" stop-color="#E6BA56"/>
</linearGradient>
<linearGradient id="paint8_linear_27_323" x1="132.049" y1="84.2196" x2="203.138" y2="202.736" gradientUnits="userSpaceOnUse">
<stop stop-color="#FFEDC2"/>
<stop offset="0.09" stop-color="#FBEDB6"/>
<stop offset="0.18" stop-color="#F7EFA6"/>
<stop offset="0.38" stop-color="#F3D16E"/>
<stop offset="0.47" stop-color="#EEC65E"/>
<stop offset="0.56" stop-color="#E4B650"/>
<stop offset="0.62" stop-color="#AF7121"/>
<stop offset="0.65" stop-color="#AF7121"/>
<stop offset="0.73" stop-color="#F2D76C"/>
<stop offset="0.79" stop-color="#F8E77D"/>
<stop offset="0.84" stop-color="#F7F1A4"/>
<stop offset="0.89" stop-color="#FFF2C5"/>
<stop offset="0.93" stop-color="#E6AD06"/>
<stop offset="0.95" stop-color="#E6AD06"/>
<stop offset="1" stop-color="#FBCB4A"/>
</linearGradient>
<linearGradient id="paint9_linear_27_323" x1="109.683" y1="107.546" x2="172.028" y2="211.485" gradientUnits="userSpaceOnUse">
<stop stop-color="#BA7322"/>
<stop offset="0.03" stop-color="#A96017"/>
<stop offset="0.06" stop-color="#8B3E04"/>
<stop offset="0.08" stop-color="#A05A17"/>
<stop offset="0.11" stop-color="#D3A045"/>
<stop offset="0.13" stop-color="#F2CB61"/>
<stop offset="0.14" stop-color="#FFDC6D"/>
<stop offset="0.21" stop-color="#FFFFB5"/>
<stop offset="0.32" stop-color="#FCFDF6"/>
<stop offset="0.55" stop-color="#FFFF9C"/>
<stop offset="0.68" stop-color="#FDDF59"/>
<stop offset="0.78" stop-color="#FDDC53"/>
<stop offset="0.8" stop-color="#F5CF49"/>
<stop offset="0.84" stop-color="#E1AD31"/>
<stop offset="0.89" stop-color="#C07709"/>
<stop offset="0.9" stop-color="#BB6E03"/>
<stop offset="1" stop-color="#5B1F03"/>
</linearGradient>
<linearGradient id="paint10_linear_27_323" x1="117.309" y1="173.635" x2="175" y2="138.746" gradientUnits="userSpaceOnUse">
<stop stop-color="#E6C049"/>
<stop offset="1" stop-color="#E09719"/>
</linearGradient>
<linearGradient id="paint11_linear_27_323" x1="117.677" y1="92.8409" x2="188.766" y2="211.357" gradientUnits="userSpaceOnUse">
<stop stop-color="#DBA42F"/>
<stop offset="0.13" stop-color="#FFE964"/>
<stop offset="0.39" stop-color="#FFDC6D"/>
<stop offset="0.62" stop-color="#FFFFB5"/>
<stop offset="0.75" stop-color="#FCFDF6"/>
<stop offset="0.81" stop-color="#FFFF9C"/>
<stop offset="0.86" stop-color="#FDDC53"/>
<stop offset="0.87" stop-color="#F5CF49"/>
<stop offset="0.9" stop-color="#E1AD31"/>
<stop offset="0.94" stop-color="#BB6E03"/>
<stop offset="1" stop-color="#5B1F03"/>
</linearGradient>
<clipPath id="clip0_27_323">
<rect width="60" height="134" fill="white" transform="translate(54.7422 0.81543) rotate(23.9193)"/>
</clipPath>
<clipPath id="clip1_27_323">
<rect width="104" height="130" fill="white" transform="translate(101 87.0654)"/>
</clipPath>
</defs>
</svg>
