<svg width="35" height="30" viewBox="0 0 35 30" fill="none" xmlns="http://www.w3.org/2000/svg">
<g clip-path="url(#clip0_1_1867)">
<path fill-rule="evenodd" clip-rule="evenodd" d="M17.2224 3.40576C17.152 3.48092 16.7879 4.48311 16.3972 5.66549C16.007 6.84551 15.5651 8.03302 15.4304 8.29674C15.1217 8.84955 14.7368 8.90647 11.7323 8.83251C10.7162 8.79274 9.77313 8.82523 9.65099 8.88797C9.30877 9.06458 9.1609 9.75049 9.38631 10.0608C9.48974 10.2149 10.5348 10.7989 11.6918 11.3526L13.7977 12.3752L13.5974 13.1406C13.497 13.5592 13.1276 14.8015 12.7763 15.8988C12.1662 17.8569 12.169 17.9148 12.4698 18.2083C12.9911 18.6841 13.5562 18.3222 15.4278 16.3333L17.1125 14.5385L17.5855 14.928C17.8312 15.1536 18.3496 15.7208 18.7116 16.1957C19.7207 17.4352 19.989 17.6464 20.4015 17.5438C21.2378 17.3016 21.2128 16.7409 20.2502 14.127C19.9244 13.2727 19.6869 12.4968 19.7123 12.391C19.7417 12.2687 20.397 11.6697 21.1846 11.0452C22.6066 9.90869 22.8781 9.51113 22.6032 9.03974C22.3908 8.67535 21.7793 8.56597 20.2972 8.63333C18.3289 8.73333 18.3919 8.76834 18.2547 6.97922C18.0492 3.93741 17.9718 3.45618 17.6365 3.37575C17.47 3.33581 17.2731 3.34329 17.2224 3.40576Z" fill="black"/>
<path fill-rule="evenodd" clip-rule="evenodd" d="M26.7547 14.1843C26.4946 14.306 26.2371 14.8735 25.5161 16.917L24.6158 19.4895L23.2547 19.5685C21.2707 19.6647 21.0833 19.7118 20.9699 20.1846C20.8317 20.7609 21.0745 21.0779 21.8261 21.2581C22.1772 21.3423 22.7571 21.5735 23.1165 21.7717L23.7768 22.1141L22.4616 27.5971L22.9454 27.7131C23.346 27.8092 23.4726 27.7277 23.8855 27.1078C24.5134 26.1863 26.4863 24.2218 26.7541 24.286C26.8711 24.3141 27.4301 24.7815 28.0064 25.3252C29.2176 26.4665 29.4257 26.5512 29.8148 26.1097C30.0367 25.8495 30.0565 25.6876 29.8823 25.3125C29.7525 25.0401 29.4121 24.2569 29.12 23.56L28.5565 22.298L29.1302 21.7515C29.432 21.4558 30.053 20.9207 30.4847 20.5989C31.3123 19.9466 31.6306 19.2842 31.2381 19.006C31.0997 18.918 30.3778 18.9115 29.6036 18.9646C28.8428 19.0408 28.162 19.0815 28.0945 19.0653C28.045 19.0534 28.0019 18.6376 28.0163 18.1411C28.0543 16.802 27.8014 14.6916 27.5473 14.352C27.2589 14.0067 27.1914 13.9905 26.7581 14.1801L26.7547 14.1843Z" fill="black"/>
</g>
<defs>
<clipPath id="clip0_1_1867">
<rect width="30" height="22" fill="white" transform="translate(5.13086 0.815674) rotate(13.4891)"/>
</clipPath>
</defs>
</svg>
