<svg width="230" height="246" viewBox="0 0 230 246" fill="none" xmlns="http://www.w3.org/2000/svg">
<ellipse cx="103.5" cy="227" rx="82.5" ry="19" fill="#D9D9D9" fill-opacity="0.5"/>
<path d="M164.777 115.712C164.777 115.712 181.883 105.767 187.096 100.666C187.096 100.666 192.17 85.8772 198.128 88.6852C204.086 91.4932 197.499 98.4899 197.499 98.4899C197.499 98.4899 205.738 89.317 208.904 93.6461C212.069 97.9751 203.714 103.334 203.714 103.334C203.714 103.334 210.044 98.4899 211.952 102.445C213.861 106.399 209.928 108.692 204.086 112.507C198.244 116.321 169.222 139.393 169.222 139.393" fill="#F280A1"/>
<path d="M169.22 140.961C168.778 140.961 168.336 140.75 168.033 140.376C167.521 139.721 167.614 138.761 168.289 138.223C169.476 137.287 197.451 115.057 203.269 111.243L204.13 110.681C209.832 106.961 211.718 105.463 210.6 103.123C210.368 102.655 210.112 102.538 209.879 102.468C208.738 102.187 206.784 103.146 205.48 103.989C205.015 104.34 204.666 104.55 204.549 104.644C203.851 105.089 202.943 104.901 202.478 104.223C202.012 103.544 202.152 102.632 202.804 102.14C202.92 102.047 203.246 101.813 203.735 101.485C205.294 100.338 207.714 98.1622 208.087 96.22C208.203 95.6116 208.087 95.0734 207.714 94.582C207.458 94.231 207.179 94.0672 206.76 94.0438C204.712 93.9736 200.988 97.039 198.824 99.3556C198.731 99.4492 198.661 99.5194 198.638 99.5662C198.056 100.175 197.102 100.198 196.497 99.6364C195.891 99.0748 195.845 98.1154 196.403 97.4836C196.45 97.4368 196.497 97.39 196.566 97.3198C197.451 96.3136 199.452 93.5992 199.103 91.774C199.057 91.5166 198.917 90.7444 197.521 90.0892C196.939 89.8084 196.38 89.8084 195.752 90.0892C192.54 91.4464 189.421 98.7472 188.584 101.204C188.514 101.438 188.374 101.625 188.211 101.789C182.928 106.961 166.311 116.648 165.589 117.07C164.868 117.491 163.937 117.233 163.518 116.508C163.099 115.783 163.355 114.847 164.077 114.425C164.239 114.332 180.554 104.831 185.837 99.847C186.582 97.7644 189.887 89.2702 194.565 87.2812C195.985 86.6728 197.451 86.6962 198.824 87.328C201.128 88.4044 201.873 90.0424 202.106 91.2124C202.199 91.657 202.222 92.125 202.175 92.5696C203.735 91.6102 205.387 90.9316 206.923 91.0018C208.25 91.072 209.367 91.6804 210.181 92.7802C211.043 93.9736 211.368 95.3542 211.089 96.805C210.926 97.7176 210.531 98.6068 209.995 99.4258C210.205 99.4258 210.391 99.4726 210.6 99.5194C211.834 99.8236 212.765 100.596 213.347 101.813C215.744 106.773 211.345 109.652 205.806 113.279L204.945 113.84C199.243 117.584 170.477 140.423 170.197 140.657C169.918 140.867 169.592 140.984 169.243 140.984L169.22 140.961Z" fill="black"/>
<path d="M104.894 30.021C111.061 11.8156 119.928 7.60361 119.928 7.60361C134.777 0.677172 139.688 13.243 139.688 13.243C148.392 34.5606 104.754 44.061 104.754 44.061L104.265 43.8738C104.265 43.8738 61.2323 34.5606 69.9367 13.243C69.9367 13.243 74.8241 0.677172 89.6959 7.60361C89.6959 7.60361 98.5631 11.7922 104.731 30.021H104.917H104.894Z" fill="#F5333F"/>
<path d="M104.614 45.6757L103.822 45.3481C101.518 44.8333 75.894 38.8663 68.9818 25.6686C66.8406 21.5736 66.6777 17.1977 68.5163 12.6815C68.5861 12.4709 70.704 7.20586 76.2431 4.98285C80.2927 3.34484 85.0405 3.76604 90.3236 6.22306C90.696 6.38686 98.6323 10.2947 104.823 25.8558C110.991 10.3181 118.95 6.41026 119.299 6.24646C124.582 3.78944 129.33 3.36824 133.38 4.98285C138.919 7.22926 141.013 12.4943 141.107 12.7049C142.922 17.1509 142.759 21.5034 140.641 25.575C133.496 39.2407 106.243 45.3247 105.079 45.5821L104.614 45.6757ZM81.3866 7.06546C79.9669 7.06546 78.617 7.32286 77.3835 7.81427C73.0779 9.54588 71.3324 13.8047 71.3091 13.8281C69.7963 17.5487 69.9127 20.9417 71.635 24.2412C78.0817 36.5262 104.288 42.3295 104.544 42.3997L104.823 42.4933C108.361 41.6509 131.867 35.6838 137.895 24.1476C139.617 20.8715 139.733 17.5019 138.244 13.8515C138.221 13.7813 136.475 9.54588 132.17 7.81427C128.934 6.52726 125.025 6.92506 120.533 9.00767C120.463 9.03107 112.131 13.2899 106.289 30.5124L105.94 31.542H103.59L103.24 30.5124C97.3988 13.2665 89.0669 9.03107 88.997 8.98427C86.2275 7.69727 83.6907 7.04206 81.3866 7.04206V7.06546Z" fill="black"/>
<path d="M74.0563 179.408V212.683C74.0563 212.683 60.5576 211.793 61.442 221.224C61.442 221.224 60.1852 232.947 78.4317 232.432C78.4317 232.432 92.6286 232.058 92.8846 224.008V181.42L74.0563 179.384V179.408Z" fill="#3E2B2F"/>
<path d="M77.2904 234C70.6574 234 65.7932 232.362 62.8142 229.133C59.8352 225.88 59.8585 222.113 59.905 221.247C59.6955 218.626 60.417 216.426 62.0462 214.742C64.9321 211.746 69.9359 211.232 72.5193 211.161V177.723L94.3964 180.086V224.032C94.0939 233.438 79.1057 233.953 78.454 233.977C78.0584 233.977 77.6627 233.977 77.2671 233.977L77.2904 234ZM73.1011 214.203C70.7738 214.203 66.3751 214.671 64.2339 216.871C63.2099 217.948 62.7909 219.328 62.9538 221.083V221.247V221.411C62.9538 221.528 62.6978 224.523 65.095 227.12C67.6086 229.835 72.1004 231.122 78.3842 230.935C78.5239 230.935 91.1614 230.396 91.3709 224.008V182.847L75.5914 181.139V214.344L73.9622 214.25C73.7295 214.25 73.4502 214.227 73.1011 214.227V214.203Z" fill="black"/>
<path d="M119.441 179.408V212.683C119.441 212.683 105.942 211.793 106.827 221.224C106.827 221.224 105.57 232.947 123.816 232.432C123.816 232.432 138.013 232.058 138.269 224.008V181.42L119.441 179.384V179.408Z" fill="#3E2B2F"/>
<path d="M122.675 234C116.042 234 111.178 232.362 108.199 229.133C105.22 225.88 105.243 222.113 105.29 221.247C105.08 218.626 105.802 216.426 107.431 214.742C110.317 211.746 115.321 211.232 117.904 211.161V177.723L139.781 180.086V224.032C139.479 233.438 124.49 233.953 123.839 233.977C123.443 233.977 123.048 233.977 122.652 233.977L122.675 234ZM118.486 214.203C116.159 214.203 111.76 214.671 109.619 216.871C108.595 217.948 108.176 219.328 108.339 221.083V221.247V221.411C108.339 221.528 108.083 224.523 110.48 227.12C112.993 229.835 117.485 231.122 123.769 230.935C123.909 230.935 136.546 230.396 136.756 224.008V182.847L120.976 181.139V214.344L119.347 214.25C119.114 214.25 118.835 214.227 118.486 214.227V214.203Z" fill="black"/>
<path d="M106.708 195.881C106.708 195.881 53.0159 197.449 36.4684 154.908C36.4684 154.908 21.3406 105.557 49.6412 66.8763C49.6412 66.8763 69.7263 36.9242 106.452 37.8134H105.94C143.108 37.3454 162.751 66.8763 162.751 66.8763C189.632 104.621 175.342 156.007 175.342 156.007C164.054 196.583 105.707 195.881 105.707 195.881" fill="#F280A1"/>
<path d="M106.198 197.402C100.403 197.402 50.877 196.162 35.0509 155.446C34.8647 154.837 19.9929 104.808 48.4332 65.9402C48.5961 65.6828 69.3096 35.4498 106.315 36.2454C106.478 36.2454 106.64 36.2454 106.78 36.2454C143.785 36.2454 163.8 65.7062 164.01 65.987C190.984 103.848 176.95 155.867 176.81 156.382C166.197 194.524 114.879 197.192 106.757 197.355C106.757 197.355 106.547 197.355 106.198 197.355V197.402ZM104.872 39.3108C70.4268 39.3108 51.1097 67.4378 50.9235 67.7186C23.3443 105.393 37.7739 153.948 37.9136 154.44C52.6457 192.348 98.4947 194.267 105.709 194.337C106.268 194.337 163.032 194.547 173.878 155.563C174.017 155.048 187.656 104.41 161.52 67.742C161.31 67.4144 142.133 39.3108 106.803 39.3108C106.687 39.3108 106.571 39.3108 106.478 39.3108H105.965C105.616 39.3108 105.244 39.3108 104.895 39.3108H104.872Z" fill="black"/>
<path d="M82.852 82.1565C82.2236 82.1565 81.6651 81.7821 81.4323 81.1503L78.3369 72.7731C78.0344 71.9775 78.4533 71.1117 79.2213 70.8075C80.0126 70.5032 80.897 70.9245 81.1763 71.6967L84.2717 80.0739C84.5743 80.8695 84.1553 81.7353 83.3873 82.0395C83.2011 82.1097 83.0382 82.1331 82.852 82.1331V82.1565Z" fill="black"/>
<path d="M96.2375 79.9569C96.2375 79.9569 96.0513 79.9569 95.9582 79.9335C95.1204 79.7931 94.5851 78.9975 94.7247 78.1551L96.0513 70.8075C96.191 69.9651 97.0055 69.4269 97.8201 69.5673C98.658 69.7077 99.1933 70.5033 99.0536 71.3457L97.727 78.6933C97.5874 79.4421 96.959 79.9569 96.2375 79.9569Z" fill="black"/>
<path d="M89.3952 79.3719C88.6039 79.3719 87.9289 78.7401 87.8824 77.9211L87.4867 70.5266C87.4402 69.6842 88.0918 68.9588 88.9297 68.912C89.7908 68.8652 90.489 69.5204 90.5356 70.3628L90.9312 77.7573C90.9778 78.5997 90.3261 79.3251 89.4882 79.3719C89.465 79.3719 89.4417 79.3719 89.3952 79.3719Z" fill="black"/>
<path d="M127.421 82.1566C127.235 82.1566 127.072 82.1332 126.885 82.063C126.094 81.7588 125.699 80.893 126.001 80.0974L129.096 71.7202C129.399 70.9246 130.26 70.5268 131.051 70.831C131.843 71.1352 132.238 72.001 131.936 72.7966L128.84 81.1738C128.608 81.7822 128.026 82.18 127.421 82.18V82.1566Z" fill="black"/>
<path d="M114.017 79.9569C113.296 79.9569 112.644 79.4421 112.528 78.6933L111.201 71.3456C111.062 70.5032 111.597 69.7076 112.435 69.5672C113.249 69.4034 114.064 69.965 114.204 70.8074L115.53 78.1551C115.67 78.9975 115.135 79.7931 114.297 79.9335C114.204 79.9335 114.11 79.9569 114.017 79.9569Z" fill="black"/>
<path d="M120.884 79.3719C120.884 79.3719 120.837 79.3719 120.791 79.3719C119.953 79.3251 119.301 78.5997 119.348 77.7573L119.743 70.3628C119.79 69.5204 120.511 68.8652 121.349 68.912C122.187 68.9588 122.839 69.6842 122.792 70.5266L122.397 77.9211C122.35 78.7401 121.675 79.3719 120.884 79.3719Z" fill="black"/>
<path d="M102.24 144.752C81.3166 144.752 74.6138 131.414 74.3346 130.829C73.8691 129.869 74.2647 128.746 75.2189 128.278C76.1732 127.81 77.2903 128.208 77.7558 129.144C78.0118 129.659 84.2491 141.78 104.404 140.891C104.73 140.891 124.326 141.219 134.124 127.038C134.729 126.172 135.916 125.962 136.778 126.57C137.639 127.178 137.848 128.372 137.243 129.238C126.258 145.126 105.312 144.752 104.427 144.729C103.683 144.752 102.961 144.775 102.24 144.775V144.752Z" fill="black"/>
<path d="M118.813 115.736C128.581 115.736 136.501 106.852 136.501 95.8924C136.501 84.9332 128.581 76.0491 118.813 76.0491C109.044 76.0491 101.125 84.9332 101.125 95.8924C101.125 106.852 109.044 115.736 118.813 115.736Z" fill="#FFD200"/>
<path d="M118.81 117.257C108.221 117.257 99.6094 107.663 99.6094 95.8924C99.6094 84.1221 108.221 74.5281 118.81 74.5281C129.4 74.5281 138.011 84.1221 138.011 95.8924C138.011 107.663 129.4 117.257 118.81 117.257ZM118.81 77.5701C109.896 77.5701 102.635 85.7835 102.635 95.8924C102.635 106.001 109.896 114.215 118.81 114.215C127.724 114.215 134.985 106.001 134.985 95.8924C134.985 85.7835 127.724 77.5701 118.81 77.5701Z" fill="black"/>
<path d="M90.3957 115.151C99.4575 115.151 106.804 106.916 106.804 96.7582C106.804 86.6003 99.4575 78.3657 90.3957 78.3657C81.3338 78.3657 73.9878 86.6003 73.9878 96.7582C73.9878 106.916 81.3338 115.151 90.3957 115.151Z" fill="#FFD200"/>
<path d="M90.3933 116.695C80.502 116.695 72.4727 107.756 72.4727 96.7582C72.4727 85.7601 80.502 76.8213 90.3933 76.8213C100.285 76.8213 108.314 85.7601 108.314 96.7582C108.314 107.756 100.285 116.695 90.3933 116.695ZM90.3933 79.8867C82.201 79.8867 75.5215 87.445 75.5215 96.7582C75.5215 106.071 82.201 113.63 90.3933 113.63C98.5856 113.63 105.265 106.071 105.265 96.7582C105.265 87.445 98.5856 79.8867 90.3933 79.8867Z" fill="black"/>
<path d="M103.522 135.251C111.748 135.251 118.417 129.426 118.417 122.241C118.417 115.055 111.748 109.23 103.522 109.23C95.2952 109.23 88.6265 115.055 88.6265 122.241C88.6265 129.426 95.2952 135.251 103.522 135.251Z" fill="#F5333F"/>
<path d="M103.519 136.796C94.4659 136.796 87.0881 130.267 87.0881 122.264C87.0881 114.262 94.4659 107.733 103.519 107.733C112.573 107.733 119.95 114.262 119.95 122.264C119.95 130.267 112.573 136.796 103.519 136.796ZM103.519 110.775C96.1416 110.775 90.137 115.923 90.137 122.264C90.137 128.606 96.1416 133.754 103.519 133.754C110.897 133.754 116.902 128.606 116.902 122.264C116.902 115.923 110.897 110.775 103.519 110.775Z" fill="black"/>
<path d="M91.1166 104.972C95.2555 104.972 98.6107 100.875 98.6107 95.8222C98.6107 90.7691 95.2555 86.6727 91.1166 86.6727C86.9778 86.6727 83.6226 90.7691 83.6226 95.8222C83.6226 100.875 86.9778 104.972 91.1166 104.972Z" fill="black"/>
<path d="M119.648 104.972C123.787 104.972 127.142 100.875 127.142 95.8222C127.142 90.7691 123.787 86.6727 119.648 86.6727C115.51 86.6727 112.154 90.7691 112.154 95.8222C112.154 100.875 115.51 104.972 119.648 104.972Z" fill="black"/>
<path d="M63.9795 153.855C61.6987 153.855 59.0921 152.357 56.1363 149.409C55.5312 148.8 55.5312 147.841 56.1363 147.256C56.7414 146.671 57.6957 146.647 58.2775 147.256C61.7453 150.742 63.6304 150.883 64.2588 150.766C65.0268 150.649 65.3527 150.017 65.3992 149.947C65.7716 149.081 63.7933 147.209 62.2107 146.273C54.321 141.055 55.6243 125.143 55.6941 124.464C55.764 123.622 56.5087 123.013 57.3466 123.083C58.1844 123.154 58.8128 123.902 58.7197 124.745C58.3706 128.84 58.5801 140.236 63.8166 143.699C64.3752 144.027 69.8445 147.396 68.1688 151.234C68.0757 151.468 67.168 153.34 64.8639 153.784C64.5614 153.831 64.2588 153.878 63.9562 153.878L63.9795 153.855Z" fill="black"/>
<path d="M57.9727 158.745C57.7166 158.745 57.4606 158.745 57.1814 158.675C54.8075 158.301 52.6197 156.312 50.6182 152.755C50.1993 152.029 50.4553 151.093 51.2 150.672C51.9448 150.251 52.8525 150.508 53.2714 151.257C55.2264 154.744 56.8323 155.516 57.6003 155.656C58.345 155.797 58.8571 155.469 59.02 155.376C59.9044 154.206 57.9494 151.21 56.6693 149.853C56.0875 149.245 56.134 148.262 56.7392 147.7C57.3443 147.115 58.3218 147.162 58.8803 147.771C59.4622 148.402 64.466 153.972 61.1844 157.528C60.9749 157.739 59.788 158.769 57.9494 158.769L57.9727 158.745Z" fill="black"/>
<path d="M51.7813 161.904C50.2917 161.904 48.8488 161.132 47.4989 159.634C47.0334 159.073 37.2818 146.905 37.1887 126.172C37.1887 125.33 37.8637 124.628 38.7015 124.628C39.5394 124.628 40.2143 125.306 40.2143 126.149C40.3074 145.735 49.6866 157.505 49.803 157.622C50.5012 158.394 51.1761 158.792 51.7813 158.839C52.2467 158.839 52.5493 158.535 52.5726 158.535C53.5268 157.505 51.8976 154.51 50.827 153.106C50.315 152.427 50.4314 151.468 51.1063 150.953C51.7813 150.438 52.7355 150.555 53.2475 151.234C53.7362 151.842 57.8324 157.365 54.8534 160.594C54.7603 160.711 53.6664 161.881 51.8278 161.904H51.8045H51.7813Z" fill="black"/>
</svg>
