<svg width="230" height="246" viewBox="0 0 230 246" fill="none" xmlns="http://www.w3.org/2000/svg">
<g clip-path="url(#clip0_37_2500)">
<path d="M98.9725 47.7058C98.9725 47.7058 72.2795 46.835 63.5295 70.6325C54.7795 94.4142 42.232 161.421 42.232 161.421C42.232 161.421 37.1213 180.69 49.3839 183.461C49.3839 183.461 59.5738 185.773 66.6782 174.262C66.6782 174.262 68.3396 170.858 72.0421 171.428C75.7447 171.998 77.1054 176.494 77.1054 176.494C77.1054 176.494 79.4947 188.306 90.001 188.813C100.507 189.319 107.96 175.481 107.96 175.481C107.96 175.481 110.349 171.063 113.023 170.984C115.697 170.905 121.789 177.872 121.789 177.872C121.789 177.872 132.517 190.269 146.995 185.852C161.488 181.434 160.159 168.546 156.109 159.093C152.058 149.641 146.536 130.736 145.808 116.248C145.064 101.761 141.805 44.8242 98.9725 47.7058Z" fill="#9DD4D1"/>
<path d="M90.5688 190C90.3631 190 90.1574 190 89.9359 190C79.1289 189.477 76.2175 177.887 75.9644 176.827C75.8378 176.431 74.6036 173.027 71.8346 172.599C69.0182 172.156 67.7207 174.752 67.7049 174.784C60.2049 186.976 49.208 184.632 49.0973 184.617C46.091 183.936 43.7808 182.289 42.2302 179.74C38.053 172.837 40.9486 161.611 41.0751 161.136C41.1859 160.55 53.7175 93.8442 62.4042 70.2367C71.1226 46.5183 97.3726 46.5342 98.9232 46.55C109.683 45.8375 118.86 48.7825 126.202 55.3217C138.48 66.2308 145.458 86.7192 146.961 116.217C147.705 130.767 153.385 149.799 157.167 158.65C159.034 162.988 161.676 171.317 158.48 178.188C156.534 182.368 152.784 185.329 147.325 186.992C132.293 191.583 121.012 178.79 120.901 178.663C118.132 175.512 114.287 172.14 113.053 172.187C111.534 172.235 109.651 174.816 108.971 176.067C108.654 176.652 101.312 190.032 90.553 190.032L90.5688 190ZM71.2175 170.192C71.534 170.192 71.8663 170.224 72.2144 170.272C76.5815 170.952 78.1479 175.94 78.227 176.162C78.3536 176.716 80.6005 187.197 90.0625 187.657C99.7144 188.147 106.866 175.069 106.945 174.927C107.23 174.404 109.746 169.907 113.006 169.812C115.964 169.749 121.17 175.37 122.673 177.096C122.784 177.222 133.1 188.86 146.661 184.727C151.471 183.255 154.746 180.722 156.392 177.175C159.208 171.127 156.756 163.527 155.047 159.552C151.455 151.145 145.442 131.987 144.651 116.312C143.18 87.4633 136.471 67.5292 124.683 57.0475C117.816 50.9358 109.192 48.1808 99.0656 48.8617C99.034 48.8617 98.9865 48.8617 98.9549 48.8617C98.7017 48.8617 72.9897 48.3233 64.6353 71.0125C56.0118 94.4458 43.5118 160.962 43.3853 161.627C43.3378 161.817 40.5846 172.457 44.2555 178.505C45.4739 180.532 47.246 181.767 49.6353 182.321C50.015 182.4 59.1289 184.268 65.6796 173.644C66.265 172.425 68.1954 170.192 71.2175 170.192Z" fill="black"/>
<path d="M120.697 95.4117C126.639 95.4117 131.456 89.45 131.456 82.0958C131.456 74.7417 126.639 68.78 120.697 68.78C114.755 68.78 109.938 74.7417 109.938 82.0958C109.938 89.45 114.755 95.4117 120.697 95.4117Z" fill="white"/>
<path d="M116.298 69.7617C116.298 69.7617 108.893 72.9758 110.428 84.5975C110.428 84.5975 110.855 91.7067 116.726 93.9233C116.726 93.9233 123.893 90.0283 122.722 79.705C122.722 79.705 121.979 70.49 116.298 69.7617Z" fill="#0090CF"/>
<path d="M120.649 96.4725C114.082 96.4725 108.734 89.9333 108.734 81.8742C108.734 73.815 114.082 67.2758 120.649 67.2758C127.215 67.2758 132.563 73.815 132.563 81.8742C132.563 89.9333 127.215 96.4725 120.649 96.4725ZM120.649 69.6192C115.364 69.6192 111.06 75.1133 111.06 81.8742C111.06 88.635 115.364 94.1292 120.649 94.1292C125.934 94.1292 130.237 88.635 130.237 81.8742C130.237 75.1133 125.934 69.6192 120.649 69.6192Z" fill="black"/>
<path d="M116.709 95.2375C116.313 95.2375 115.918 95.0317 115.696 94.6517C115.38 94.0975 115.57 93.385 116.123 93.0525C121.361 90.0125 121.804 82.0325 121.804 81.9533C122.152 73.7358 116.566 71.2025 116.329 71.1075C115.744 70.8542 115.459 70.1733 115.712 69.5717C115.965 68.9858 116.646 68.7008 117.231 68.9542C117.532 69.0808 124.557 72.1525 124.13 82.0642C124.114 82.4442 123.639 91.39 117.294 95.0792C117.104 95.19 116.915 95.2375 116.709 95.2375Z" fill="black"/>
<path d="M95.0329 95.4117C100.975 95.4117 105.792 89.45 105.792 82.0958C105.792 74.7417 100.975 68.78 95.0329 68.78C89.0906 68.78 84.2734 74.7417 84.2734 82.0958C84.2734 89.45 89.0906 95.4117 95.0329 95.4117Z" fill="white"/>
<path d="M90.6344 69.7617C90.6344 69.7617 83.2293 72.9758 84.7641 84.5975C84.7641 84.5975 85.1913 91.7067 91.0616 93.9233C91.0616 93.9233 98.2293 90.0283 97.0584 79.705C97.0584 79.705 96.3147 70.49 90.6344 69.7617Z" fill="#0090CF"/>
<path d="M94.9692 96.4725C88.4028 96.4725 83.0547 89.9333 83.0547 81.8742C83.0547 73.815 88.4028 67.2758 94.9692 67.2758C101.536 67.2758 106.884 73.815 106.884 81.8742C106.884 89.9333 101.536 96.4725 94.9692 96.4725ZM94.9692 69.6192C89.6844 69.6192 85.3806 75.1133 85.3806 81.8742C85.3806 88.635 89.6844 94.1292 94.9692 94.1292C100.254 94.1292 104.558 88.635 104.558 81.8742C104.558 75.1133 100.254 69.6192 94.9692 69.6192Z" fill="black"/>
<path d="M91.0289 95.2375C90.6334 95.2375 90.2378 95.0317 90.0163 94.6517C89.6998 94.0975 89.8897 93.385 90.4435 93.0525C95.6808 90.0125 96.1239 82.0325 96.1239 81.9533C96.472 73.7358 90.8865 71.2025 90.6492 71.1075C90.0637 70.8542 89.7789 70.1733 90.0321 69.5717C90.2853 68.9858 90.9656 68.7008 91.5511 68.9542C91.8517 69.0808 98.877 72.1525 98.4498 82.0642C98.434 82.4442 97.9593 91.39 91.6144 95.0792C91.4245 95.19 91.2346 95.2375 91.0289 95.2375Z" fill="black"/>
<path d="M107.087 110.849C92.372 110.849 83.0365 102.188 82.8941 102.062C82.1979 101.397 82.1663 100.288 82.8308 99.5917C83.4954 98.895 84.603 98.8633 85.2992 99.5283C86.0745 100.272 104.413 117.103 130.695 99.3383C131.502 98.8 132.578 99.0058 133.131 99.8133C133.669 100.621 133.464 101.698 132.657 102.252C123.1 108.696 114.413 110.865 107.071 110.865L107.087 110.849Z" fill="black"/>
<path d="M99.7469 1.1875C99.7469 1.1875 91.7564 -0.459165 86.6931 18.3033C81.6298 37.05 81.1393 38.7125 81.1393 38.7125C81.1393 38.7125 45.6646 49.9225 48.7975 61.6708C48.7975 61.6708 51.3766 67.5925 67.7848 63.4758C84.1931 59.3433 98.9241 58.5042 98.9241 58.5042C98.9241 58.5042 124.81 58.235 140.063 62.1933C155.316 66.1517 150.902 55.9708 150.902 55.9708C150.902 55.9708 148.513 47.6583 114.937 38.4908L107.199 9.5475C107.199 9.5475 105.554 1.235 99.731 1.17167L99.7469 1.1875Z" fill="black"/>
<path d="M81.0898 38.2533L83.4316 30.4475C83.4316 30.4475 109.128 28.8325 112.261 30.2733L114.318 37.8892L81.1057 38.2533H81.0898Z" fill="#497F44"/>
<path d="M57.4362 66.12C49.604 66.12 47.8002 62.6683 47.5786 62.1458C47.5628 62.0983 47.5312 62.035 47.5153 61.9875C44.3191 50.0333 74.2717 39.6783 80.0312 37.81C80.4109 36.4325 81.6609 31.9517 85.4109 18.0183C90.4109 -0.49083 98.5122 -0.126665 99.6989 0.0316687C106.329 0.174169 108.148 8.96167 108.227 9.34167L115.759 37.5567C147.594 46.3442 151.455 54.3558 151.867 55.5908C152.088 56.1292 153.496 59.85 151.376 62.3358C149.462 64.5683 145.632 64.9008 139.636 63.3492C124.699 59.47 99.0502 59.6917 98.797 59.6917C98.7021 59.6917 84.0343 60.5783 67.9267 64.6158C63.5913 65.7083 60.1577 66.12 57.4362 66.12ZM49.7464 61.2592C50.0628 61.7342 53.1957 65.9142 67.3571 62.3517C83.6862 58.2508 98.5596 57.3642 98.7179 57.3483C99.8413 57.3483 124.984 57.1267 140.221 61.085C145.047 62.3358 148.37 62.2408 149.588 60.8158C150.87 59.3275 149.699 56.4775 149.699 56.4458C149.683 56.3983 149.667 56.3508 149.651 56.3033C149.636 56.2558 146.455 48.355 114.509 39.6308C114.113 39.52 113.797 39.2033 113.686 38.8075L105.949 9.86417C105.917 9.72167 104.398 2.40667 99.5881 2.35917C99.5248 2.35917 99.4457 2.35917 99.3824 2.34334C99.2242 2.3275 92.2938 1.48834 87.6736 18.62C82.6577 37.1767 82.1198 38.9975 82.104 39.0608C81.9932 39.425 81.7084 39.7258 81.3445 39.8367C71.8191 42.845 47.6736 52.535 49.7622 61.2592H49.7464Z" fill="black"/>
<path d="M80.7911 39.8683C80.1899 39.8683 79.6677 39.4092 79.6361 38.7917C79.5886 38.1425 80.0633 37.5883 80.712 37.5408C81.7563 37.4617 106.266 35.6092 114.604 36.9233C115.237 37.0183 115.68 37.62 115.57 38.2533C115.475 38.8867 114.858 39.33 114.241 39.2192C106.171 37.9525 81.1392 39.8367 80.8861 39.8525C80.8544 39.8525 80.8228 39.8525 80.7911 39.8525V39.8683Z" fill="black"/>
<path d="M83.5139 31.6667C82.9126 31.6667 82.3905 31.1917 82.343 30.5742C82.2956 29.925 82.7861 29.3708 83.419 29.3233C84.2892 29.26 104.906 27.8192 112.422 29.1967C113.055 29.3075 113.482 29.925 113.356 30.5583C113.245 31.1917 112.628 31.6192 111.995 31.4925C104.78 30.1625 83.7987 31.635 83.593 31.6508C83.5614 31.6508 83.5297 31.6508 83.5139 31.6508V31.6667Z" fill="black"/>
<path d="M119.824 115.441C119.824 115.441 124.318 124.102 130.679 113.382C137.039 102.663 143.78 96.7258 149.951 100.842C156.122 104.943 152.941 130.039 148.084 145.097" fill="#9DD4D1"/>
<path d="M148.086 146.253C147.975 146.253 147.849 146.237 147.722 146.189C147.105 145.983 146.773 145.334 146.963 144.717C153.339 125.004 153.577 104.643 149.304 101.808C147.754 100.779 146.187 100.462 144.494 100.858C140.681 101.729 136.251 106.257 131.678 113.984C129.304 117.99 126.789 120.017 124.21 119.922C120.808 119.827 118.861 116.137 118.782 115.979C118.482 115.409 118.703 114.697 119.289 114.412C119.858 114.111 120.57 114.332 120.855 114.902C120.887 114.95 122.279 117.531 124.289 117.578C125.903 117.578 127.785 115.963 129.668 112.797C134.653 104.405 139.463 99.6233 143.972 98.5942C146.282 98.0717 148.513 98.4992 150.586 99.8767C157.88 104.737 153.624 131.718 149.178 145.461C149.02 145.952 148.561 146.268 148.07 146.268L148.086 146.253Z" fill="black"/>
<path d="M74.9688 118.069C74.9688 118.069 80.1112 126.73 87.4055 116.011C94.6998 105.292 102.421 99.3542 109.494 103.471C116.567 107.572 112.928 132.667 107.342 147.725" fill="#9DD4D1"/>
<path d="M107.359 148.881C107.217 148.881 107.09 148.849 106.948 148.802C106.346 148.58 106.03 147.899 106.251 147.297C113.546 127.632 113.799 107.302 108.91 104.468C103.087 101.096 96.1723 105.181 88.3716 116.66C85.6659 120.65 82.8336 122.613 79.9697 122.534C76.2355 122.423 74.052 118.813 73.9571 118.655C73.6248 118.101 73.8147 117.388 74.3685 117.056C74.9223 116.723 75.6343 116.913 75.9666 117.467C75.9824 117.499 77.6121 120.143 80.0488 120.207C82.0267 120.238 84.2419 118.592 86.4412 115.362C95.0488 102.695 103.008 98.3567 110.08 102.457C118.451 107.318 113.546 134.346 108.451 148.121C108.277 148.596 107.834 148.881 107.359 148.881Z" fill="black"/>
</g>
<ellipse cx="103.5" cy="227" rx="82.5" ry="19" fill="#D9D9D9" fill-opacity="0.5"/>
<defs>
<clipPath id="clip0_37_2500">
<rect width="120" height="190" fill="white" transform="translate(40)"/>
</clipPath>
</defs>
</svg>
