<svg width="244" height="266" viewBox="0 0 244 266" fill="none" xmlns="http://www.w3.org/2000/svg">
<ellipse cx="121.5" cy="247" rx="74.5" ry="19" fill="#D9D9D9" fill-opacity="0.5"/>
<g clip-path="url(#clip0_38_4966)">
<path d="M60.4419 157.002C59.9654 157.002 59.5297 156.675 59.4208 156.198L58.1139 150.705C57.9778 150.132 58.3317 149.573 58.8899 149.437C59.4481 149.301 60.0198 149.655 60.156 150.214L61.4629 155.707C61.599 156.279 61.2451 156.838 60.6869 156.974C60.6052 156.988 60.5235 157.002 60.4419 157.002Z" fill="black"/>
<path d="M81.0396 203.302L80.2364 231.925C80.2364 231.925 70.2846 238.004 73.4703 243.033C73.4703 243.033 75.8119 247.395 81.1757 244.873C81.1757 244.873 80.0049 249.071 83.1906 250.911C83.1906 250.911 87.547 253.596 92.0668 249.071C92.0668 249.071 91.9034 252.765 95.9195 253.773C95.9195 253.773 103.965 255.613 105.136 247.572L105.98 210.335L81.0532 203.316L81.0396 203.302Z" fill="#EF7B69"/>
<path d="M97.8392 255C96.6275 255 95.7699 254.809 95.6882 254.796C93.1424 254.155 91.8899 252.547 91.359 251.061C87.7649 253.637 84.1845 252.765 82.6461 251.811C80.4679 250.543 79.8961 248.281 79.9233 246.454C75.9617 247.49 73.4159 245.118 72.5582 243.524C71.8367 242.392 71.6189 241.07 71.9592 239.653C72.8577 235.823 77.6498 232.375 79.2154 231.339L80.0322 201.926L107.042 209.545L106.171 247.722C105.79 250.379 104.673 252.356 102.863 253.596C101.188 254.741 99.2686 255.014 97.8392 255.014V255ZM93.2377 246.4L93.1152 249.112C93.1152 249.398 93.1152 251.974 96.1783 252.737C96.1783 252.737 99.3775 253.433 101.678 251.838C102.972 250.952 103.775 249.48 104.074 247.463L104.891 211.112L82.0471 204.679L81.2711 232.524L80.781 232.824C79.1337 233.833 74.682 237.118 73.9877 240.144C73.7835 241.002 73.906 241.765 74.3553 242.474C74.5867 242.883 76.4382 245.936 80.7266 243.933L82.8095 242.951L82.1969 245.159C82.156 245.296 81.2983 248.594 83.7216 249.998C83.885 250.093 87.479 252.165 91.3318 248.321L93.2513 246.4H93.2377Z" fill="black"/>
<path d="M160.218 203.302L161.021 231.925C161.021 231.925 170.973 238.004 167.787 243.033C167.787 243.033 165.446 247.395 160.082 244.873C160.082 244.873 161.253 249.071 158.067 250.911C158.067 250.911 153.711 253.596 149.191 249.071C149.191 249.071 149.354 252.765 145.338 253.773C145.338 253.773 137.292 255.613 136.121 247.572L135.277 210.335L160.204 203.316L160.218 203.302Z" fill="#EF7B69"/>
<path d="M143.418 255C141.989 255 140.069 254.727 138.395 253.583C136.584 252.342 135.468 250.366 135.087 247.708V247.585L134.215 209.545L161.225 201.926L162.042 231.339C163.608 232.375 168.413 235.823 169.298 239.653C169.625 241.07 169.407 242.392 168.658 243.592C167.842 245.132 165.296 247.49 161.334 246.454C161.361 248.281 160.79 250.543 158.584 251.824C157.059 252.765 153.479 253.623 149.885 251.061C149.354 252.547 148.101 254.155 145.569 254.796C145.488 254.809 144.616 255.014 143.391 255.014L143.418 255ZM137.17 247.476C137.469 249.494 138.286 250.966 139.579 251.852C141.907 253.446 145.066 252.751 145.093 252.737C148.224 251.961 148.142 249.235 148.129 249.112L148.006 246.4L149.926 248.321C153.819 252.22 157.468 250.039 157.509 250.011C159.986 248.58 159.061 245.187 159.061 245.159L158.448 242.951L160.531 243.933C164.806 245.95 166.671 242.897 166.861 242.542C167.351 241.779 167.46 241.002 167.27 240.144C166.562 237.118 162.124 233.847 160.476 232.838L159.986 232.538L159.21 204.692L136.366 211.126L137.183 247.476H137.17Z" fill="black"/>
<path d="M87.6151 30.1355C87.6151 30.1355 79.3107 6.16069 92.9926 1.59471C92.9926 1.59471 108.308 -4.11618 111.085 21.8213L87.6287 30.1355H87.6151Z" fill="#EF7B69"/>
<path d="M86.9753 31.4849L86.6349 30.4899C86.4171 29.8766 81.5025 15.4426 85.8725 6.55596C87.3156 3.62555 89.6027 1.62197 92.6659 0.599736C92.8428 0.531587 97.9072 -1.29481 102.985 1.84005C107.981 4.93401 111.058 11.6262 112.134 21.7123L112.215 22.5437L86.9753 31.4985V31.4849ZM96.4913 2.11264C94.6671 2.11264 93.3874 2.56243 93.3602 2.57606C90.7735 3.43474 88.9493 5.04305 87.7512 7.46916C84.3886 14.2977 87.2748 25.3924 88.2958 28.7725L109.942 21.099C108.866 12.1714 106.157 6.29699 101.896 3.62555C99.9765 2.42613 98.0297 2.11264 96.4913 2.11264Z" fill="black"/>
<path d="M157.359 30.1355C157.359 30.1355 165.663 6.16065 151.981 1.58104C151.981 1.58104 136.666 -4.12985 133.889 21.8077L157.345 30.1218L157.359 30.1355Z" fill="#EF7B69"/>
<path d="M157.999 31.4849L132.759 22.5301L132.84 21.6987C133.916 11.599 136.992 4.90675 141.989 1.82641C147.053 -1.30844 152.117 0.517952 152.335 0.599731C155.371 1.60834 157.658 3.61192 159.101 6.54233C163.471 15.429 158.557 29.8629 158.339 30.4763L157.999 31.4712V31.4849ZM135.032 21.1126L156.678 28.7862C157.686 25.406 160.585 14.3113 157.223 7.48278C156.025 5.04305 154.2 3.44836 151.655 2.60331C151.587 2.57605 147.257 1.04951 143.078 3.65281C138.817 6.31062 136.108 12.1851 135.032 21.1262V21.1126Z" fill="black"/>
<path d="M130.226 221.443C186.847 218.254 190.658 157.124 190.658 157.124C202.816 10.4268 123.569 13.807 123.569 13.807H119.431C119.431 13.807 40.1708 10.4268 52.3416 157.124C52.3416 157.124 56.1535 218.268 112.774 221.443H130.226Z" fill="#EF7B69"/>
<path d="M130.254 222.493H112.774C82.9729 220.816 67.8479 203.111 60.3875 188.568C52.3553 172.867 51.3343 157.819 51.2934 157.179C46.3788 97.9301 55.5273 55.7322 78.4803 31.7983C97.4308 12.0487 118.573 12.7166 119.472 12.7574H123.556C124.4 12.7166 145.556 12.0487 164.506 31.7983C187.473 55.7322 196.621 97.9164 191.707 157.206C191.666 157.819 190.645 172.867 182.613 188.568C175.166 203.125 160.027 220.816 130.281 222.493H130.254ZM119.104 14.8564C116.368 14.8564 96.9951 15.5107 79.9506 33.3112C57.4605 56.7953 48.5298 98.4208 53.3899 157.029C53.3899 157.206 54.4382 172.349 62.2934 187.669C72.7761 208.086 89.7798 219.099 112.828 220.394H130.186C153.234 219.085 170.224 208.073 180.693 187.669C188.548 172.362 189.583 157.206 189.597 157.056C194.457 98.3799 185.512 56.7408 162.982 33.2567C144.684 14.1886 123.787 14.8564 123.597 14.8564H119.417C119.417 14.8564 119.295 14.8564 119.09 14.8564H119.104Z" fill="black"/>
<path d="M96.9133 46.6276C96.7499 47.4862 96.6682 48.3858 96.6682 49.3126C96.6682 56.0458 101.025 61.266 106.552 61.266C112.079 61.266 116.667 56.0458 116.667 49.3126C116.667 48.3858 116.572 47.4999 116.422 46.6276H96.9269H96.9133Z" fill="white"/>
<path d="M106.552 62.3155C100.426 62.3155 95.6201 56.6046 95.6201 49.3127C95.6201 48.3722 95.7154 47.4045 95.8924 46.4368L96.0558 45.5781H117.307L117.47 46.4368C117.647 47.4045 117.743 48.3722 117.743 49.3127C117.743 56.482 112.733 62.3155 106.566 62.3155H106.552ZM97.8256 47.6771C97.7575 48.2223 97.7303 48.7675 97.7303 49.3127C97.7303 55.4188 101.61 60.2165 106.552 60.2165C111.494 60.2165 115.619 55.3234 115.619 49.3127C115.619 48.7811 115.592 48.2359 115.524 47.6771H97.8256Z" fill="black"/>
<path d="M108.962 46.8456C108.962 46.8456 107.11 48.3585 107.478 52.9108C107.845 57.4632 111.671 58.8943 111.671 58.8943C111.671 58.8943 117.375 57.2042 116.313 47.0228L108.975 46.8456H108.962Z" fill="black"/>
<path d="M124.018 46.6276C123.855 47.4862 123.773 48.3858 123.773 49.3126C123.773 56.0458 128.13 61.266 133.657 61.266C139.184 61.266 143.772 56.0458 143.772 49.3126C143.772 48.3858 143.677 47.4999 143.527 46.6276H124.032H124.018Z" fill="white"/>
<path d="M133.644 62.3155C127.517 62.3155 122.712 56.6046 122.712 49.3127C122.712 48.3722 122.807 47.4045 122.984 46.4368L123.147 45.5781H144.399L144.562 46.4368C144.739 47.4045 144.834 48.3722 144.834 49.3127C144.834 56.482 139.824 62.3155 133.657 62.3155H133.644ZM124.917 47.6771C124.849 48.2223 124.822 48.7675 124.822 49.3127C124.822 55.4188 128.702 60.2165 133.644 60.2165C138.585 60.2165 142.71 55.3234 142.71 49.3127C142.71 48.7811 142.683 48.2359 142.615 47.6771H124.917Z" fill="black"/>
<path d="M136.053 46.8456C136.053 46.8456 134.202 48.3585 134.569 52.9108C134.937 57.4632 138.762 58.8943 138.762 58.8943C138.762 58.8943 144.467 57.2042 143.405 47.0228L136.067 46.8456H136.053Z" fill="black"/>
<path d="M119.975 105.495C108.431 105.495 100.848 98.9251 100.739 98.8161C100.085 98.23 100.031 97.235 100.603 96.5808C101.174 95.9265 102.182 95.872 102.822 96.4445C103.434 96.9897 118.165 109.638 138.054 96.3082C138.776 95.8175 139.756 96.0219 140.246 96.7443C140.736 97.4667 140.532 98.448 139.811 98.9387C132.5 103.845 125.734 105.481 119.975 105.481V105.495Z" fill="black"/>
<path d="M81.1757 245.923C80.9579 245.923 80.7264 245.854 80.5358 245.704C80.073 245.35 79.9777 244.696 80.3316 244.232L83.5173 240.034C83.8712 239.571 84.5247 239.476 84.9876 239.83C85.4504 240.184 85.5457 240.839 85.1918 241.302L82.0061 245.5C81.8019 245.773 81.4888 245.923 81.1621 245.923H81.1757Z" fill="black"/>
<path d="M92.0668 250.12C91.9035 250.12 91.7401 250.08 91.5903 249.998C91.073 249.725 90.8688 249.098 91.1411 248.58L93.823 243.387C94.0953 242.869 94.7215 242.665 95.2388 242.938C95.7562 243.21 95.9604 243.837 95.6881 244.355L93.0062 249.548C92.8156 249.916 92.448 250.12 92.0668 250.12Z" fill="black"/>
<path d="M160.082 245.923C159.769 245.923 159.456 245.773 159.238 245.514L156.052 241.316C155.698 240.852 155.793 240.198 156.256 239.844C156.719 239.489 157.373 239.585 157.727 240.048L160.912 244.246C161.266 244.71 161.171 245.364 160.708 245.718C160.517 245.868 160.3 245.936 160.068 245.936L160.082 245.923Z" fill="black"/>
<path d="M149.191 250.12C148.809 250.12 148.442 249.916 148.251 249.548L145.569 244.355C145.297 243.837 145.501 243.21 146.019 242.938C146.536 242.665 147.162 242.869 147.434 243.387L150.116 248.58C150.389 249.098 150.184 249.725 149.667 249.998C149.517 250.08 149.354 250.12 149.191 250.12Z" fill="black"/>
<path d="M119.962 91.0471H117.865V103.164H119.962V91.0471Z" fill="black"/>
<path d="M119.499 95.0815C127.491 95.0815 133.97 87.9235 133.97 79.0937C133.97 70.2639 127.491 63.106 119.499 63.106C111.506 63.106 105.027 70.2639 105.027 79.0937C105.027 87.9235 111.506 95.0815 119.499 95.0815Z" fill="#503B37"/>
<path d="M119.499 96.1446C110.936 96.1446 103.979 88.4983 103.979 79.1073C103.979 69.7164 110.949 62.0701 119.499 62.0701C128.048 62.0701 135.019 69.7164 135.019 79.1073C135.019 88.4983 128.048 96.1446 119.499 96.1446ZM119.499 64.1691C112.093 64.1691 106.076 70.8749 106.076 79.1073C106.076 87.3397 112.093 94.0456 119.499 94.0456C126.905 94.0456 132.922 87.3397 132.922 79.1073C132.922 70.8749 126.905 64.1691 119.499 64.1691Z" fill="black"/>
<path d="M57.2154 161.69C55.5273 161.69 52.7092 160.573 51.9741 156.129C51.8788 155.557 52.2599 155.012 52.8453 154.916C53.4307 154.821 53.9617 155.216 54.057 155.789C54.7104 159.769 57.2154 159.605 57.4877 159.578C58.1275 159.537 58.5359 159.346 58.8354 158.992C59.5161 158.16 59.4753 156.593 59.4072 156.116C59.3392 155.598 59.6523 155.094 60.1696 154.957C60.6733 154.821 61.2179 155.066 61.4221 155.557C62.2253 157.424 63.6003 157.751 63.8998 157.792C64.6349 157.711 65.1795 157.465 65.5062 157.043C66.0916 156.307 65.9419 155.216 65.9283 155.216C65.8466 154.685 66.1869 154.167 66.7042 154.044C67.2216 153.908 67.7661 154.194 67.9431 154.698C68.8416 157.111 71.4691 156.293 71.755 156.198C75.1176 154.862 72.3812 147.502 72.354 147.434C72.354 147.406 72.3268 147.365 72.3268 147.338C69.1411 135.78 74.0693 106.217 74.2736 104.977C74.3689 104.404 74.9134 104.023 75.4852 104.118C76.057 104.214 76.4382 104.759 76.3429 105.331C76.2884 105.631 71.2921 135.589 74.328 146.739C74.6411 147.57 77.7179 156.116 72.4901 158.188C71.2785 158.61 69.1684 158.828 67.5891 157.67C67.4802 157.901 67.3305 158.133 67.1671 158.351C66.4456 159.264 65.3701 159.796 63.9679 159.919C63.9134 159.919 63.859 159.919 63.8181 159.919C63.7364 159.919 62.4976 159.823 61.2587 158.815C61.0953 159.346 60.8503 159.878 60.4691 160.341C59.802 161.159 58.8491 161.622 57.6919 161.69C57.5557 161.704 57.3924 161.718 57.229 161.718L57.2154 161.69Z" fill="black"/>
<path d="M66.9629 156.088C66.5 156.088 66.0916 155.789 65.9555 155.325L64.526 150.323C64.3626 149.764 64.6894 149.178 65.2475 149.015C65.8057 148.851 66.3911 149.178 66.5409 149.737L67.9703 154.739C68.1337 155.298 67.807 155.884 67.2488 156.048C67.1535 156.075 67.0582 156.088 66.9629 156.088Z" fill="black"/>
<path d="M185.05 161.69C184.873 161.69 184.696 161.69 184.546 161.663C183.484 161.595 182.517 161.132 181.85 160.314C181.469 159.85 181.224 159.319 181.061 158.787C179.822 159.782 178.583 159.878 178.501 159.891C178.447 159.891 178.392 159.891 178.352 159.891C176.949 159.769 175.874 159.237 175.152 158.324C174.975 158.106 174.839 157.874 174.73 157.642C173.137 158.801 171.041 158.583 169.87 158.174C164.602 156.088 167.665 147.543 167.991 146.711C171.027 135.562 166.031 105.604 165.977 105.304C165.881 104.731 166.262 104.186 166.834 104.091C167.406 103.995 167.951 104.377 168.046 104.949C168.25 106.203 173.178 135.753 169.993 147.311C169.993 147.338 169.965 147.379 169.965 147.406C169.938 147.474 167.202 154.848 170.605 156.198C170.864 156.279 173.478 157.097 174.376 154.685C174.567 154.18 175.098 153.894 175.629 154.03C176.146 154.167 176.486 154.685 176.405 155.216C176.405 155.216 176.255 156.307 176.827 157.043C177.153 157.451 177.698 157.71 178.433 157.792C178.733 157.738 180.108 157.424 180.911 155.557C181.115 155.066 181.646 154.821 182.163 154.957C182.667 155.094 182.994 155.598 182.926 156.116C182.858 156.634 182.83 158.174 183.498 158.992C183.797 159.346 184.192 159.537 184.764 159.564C185.118 159.605 187.609 159.769 188.262 155.789C188.358 155.216 188.889 154.821 189.474 154.916C190.046 155.012 190.441 155.557 190.345 156.129C189.61 160.573 186.806 161.69 185.063 161.69H185.05Z" fill="black"/>
<path d="M175.356 156.088C175.261 156.088 175.166 156.088 175.071 156.048C174.512 155.884 174.186 155.298 174.349 154.739L175.778 149.737C175.942 149.178 176.527 148.851 177.072 149.015C177.63 149.178 177.957 149.764 177.793 150.323L176.364 155.325C176.228 155.789 175.806 156.088 175.356 156.088Z" fill="black"/>
<path d="M181.864 157.002C181.782 157.002 181.701 157.002 181.619 156.974C181.047 156.838 180.707 156.279 180.843 155.707L182.15 150.214C182.286 149.655 182.844 149.301 183.416 149.437C183.988 149.573 184.328 150.132 184.192 150.705L182.885 156.198C182.776 156.688 182.34 157.002 181.864 157.002Z" fill="black"/>
</g>
<defs>
<clipPath id="clip0_38_4966">
<rect width="143" height="255" fill="white" transform="translate(50)"/>
</clipPath>
</defs>
</svg>
