<svg width="230" height="246" viewBox="0 0 230 246" fill="none" xmlns="http://www.w3.org/2000/svg">
<ellipse cx="107.5" cy="223" rx="82.5" ry="19" fill="#D9D9D9" fill-opacity="0.5"/>
<g clip-path="url(#clip0_37_2395)">
<path d="M135.09 180.166V209.95C135.09 209.95 147.176 209.144 146.374 217.602C146.374 217.602 147.515 228.104 131.168 227.638C131.168 227.638 118.458 227.298 118.227 220.111V182.012L135.072 180.184L135.09 180.166Z" fill="#3E2B2F"/>
<path d="M132.203 229C131.847 229 131.508 229 131.151 229C130.581 229 117.158 228.534 116.891 220.147V180.776L136.464 178.661V208.571C138.763 208.624 143.255 209.108 145.84 211.778C147.302 213.302 147.961 215.255 147.765 217.603C147.819 218.373 147.837 221.742 145.163 224.663C142.507 227.548 138.157 229.018 132.203 229.018V229ZM119.6 183.213V220.094C119.778 225.774 131.098 226.258 131.205 226.258C136.874 226.419 140.885 225.255 143.148 222.8C145.27 220.506 145.038 217.764 145.02 217.728V217.585V217.441C145.163 215.846 144.788 214.61 143.862 213.66C141.669 211.384 136.838 211.187 135.162 211.295L133.718 211.384V181.672L119.582 183.195L119.6 183.213Z" fill="black"/>
<path d="M89.9377 180.166V209.95C89.9377 209.95 102.024 209.144 101.222 217.602C101.222 217.602 102.362 228.104 86.016 227.638C86.016 227.638 73.306 227.298 73.0742 220.111V182.012L89.9199 180.184L89.9377 180.166Z" fill="#3E2B2F"/>
<path d="M87.0314 229C86.6748 229 86.3361 229 85.9796 229C85.4092 229 71.9861 228.534 71.7188 220.147V180.776L91.2918 178.661V208.571C93.5914 208.624 98.0835 209.108 100.668 211.778C102.13 213.302 102.79 215.255 102.594 217.603C102.647 218.373 102.665 221.742 99.9909 224.663C97.3348 227.548 92.9853 229.018 87.0314 229.018V229ZM74.4283 183.213V220.094C74.6066 225.774 85.9261 226.258 86.0331 226.258C91.7018 226.419 95.7127 225.255 97.9766 222.8C100.098 220.506 99.8661 217.764 99.8483 217.728V217.585V217.441C99.9909 215.846 99.6166 214.61 98.6896 213.66C96.497 211.384 91.6661 211.187 89.9905 211.295L88.5466 211.384V181.672L74.4105 183.195L74.4283 183.213Z" fill="black"/>
<path d="M129.049 57.3746C129.049 57.3746 145.395 44.3643 158.551 55.7797C158.551 55.7797 164.897 63.3063 162.187 71.9799C162.187 71.9799 174.22 70.833 177.393 81.1014C177.393 81.1014 180.352 90.223 173.079 96.6207C173.079 96.6207 186.698 100.044 185.557 111.459C185.557 111.459 186.235 121.261 176.484 125.598C176.484 125.598 185.557 133.358 182.384 142.479C182.384 142.479 179.211 152.282 168.533 151.834C168.533 151.834 174.666 161.189 167.179 170.31C167.179 170.31 159.228 178.518 148.336 173.5C148.336 173.5 150.386 185.829 139.031 189.019C139.031 189.019 124.735 192.675 119.512 182.639C119.512 182.639 117.925 193.356 103.629 191.994H106.356C92.0594 193.356 90.4729 182.639 90.4729 182.639C85.2499 192.675 70.9533 189.019 70.9533 189.019C59.5981 185.829 61.6481 173.5 61.6481 173.5C50.7564 178.518 42.8059 170.31 42.8059 170.31C35.319 161.189 41.4512 151.834 41.4512 151.834C30.7912 152.282 27.6003 142.479 27.6003 142.479C24.4272 133.358 33.5007 125.598 33.5007 125.598C23.7499 121.261 24.4272 111.459 24.4272 111.459C23.2864 100.044 36.9055 96.6207 36.9055 96.6207C29.6503 90.2409 32.5916 81.1014 32.5916 81.1014C35.7646 70.833 47.7973 71.9799 47.7973 71.9799C45.0699 63.3063 51.4338 55.7797 51.4338 55.7797C64.5894 44.3643 80.9359 57.3746 80.9359 57.3746C80.9359 57.3746 85.2499 42.5364 103.86 42.7693C103.86 42.7693 119.066 40.0275 129.049 57.3746Z" fill="white"/>
<path d="M103.913 193.481C95.2494 193.481 91.5772 188.858 90.0798 185.704C83.6446 193.571 71.1842 190.507 70.6138 190.363C61.3442 187.747 60.1498 179.593 60.1498 175.579C49.5611 179.109 41.8959 171.367 41.8246 171.278C35.8885 164.056 37.7781 156.655 39.2577 153.16C29.4533 152.3 26.3338 143.017 26.2981 142.909C23.6598 135.311 28.5798 128.734 31.1825 125.957C23.0894 121.261 23.0359 112.677 23.0716 111.495C22.2694 102.911 29.2038 97.9826 34.3911 95.9934C28.6333 89.2911 31.2003 81.0477 31.3251 80.6713C33.9811 72.0694 42.3059 70.7433 46.0672 70.582C44.4272 62.0877 50.1494 55.1883 50.4168 54.8836C50.4703 54.8298 50.5059 54.7761 50.5594 54.7402C62.0394 44.7943 75.8368 52.303 80.3111 55.2599C81.0064 53.7367 82.272 51.3891 84.429 49.0594C87.709 45.5111 93.6985 41.3357 103.77 41.4073C104.537 41.2998 108.298 40.8518 113.111 42.2675C117.728 43.6295 124.217 47.0165 129.475 55.4212C133.7 52.5898 147.765 44.6151 159.459 54.7582C159.512 54.8119 159.566 54.8478 159.602 54.9015C159.869 55.2062 165.591 62.1235 163.951 70.6C167.712 70.7612 176.037 72.0874 178.711 80.7072C178.836 81.0656 181.385 89.309 175.627 96.0113C180.797 98.0005 187.731 102.929 186.947 111.513C186.982 112.695 186.929 121.297 178.818 125.975C181.403 128.752 186.341 135.329 183.685 142.963C183.667 143.035 180.529 152.336 170.743 153.178C172.222 156.673 174.112 164.056 168.247 171.206C168.087 171.367 160.422 179.109 149.851 175.597C149.851 179.611 148.674 187.765 139.422 190.363C138.816 190.524 126.338 193.589 119.921 185.722C118.37 189.001 114.43 193.876 105.018 193.481C104.644 193.481 104.287 193.499 103.949 193.499L103.913 193.481ZM103.628 190.614H106.355C106.533 190.614 106.712 190.65 106.872 190.722C116.801 190.327 118.12 182.783 118.174 182.424C118.263 181.833 118.726 181.385 119.297 181.277C119.885 181.188 120.455 181.475 120.723 181.994C125.375 190.937 138.567 187.729 138.692 187.693C148.674 184.88 147.052 174.181 146.981 173.733C146.892 173.231 147.105 172.729 147.498 172.425C147.89 172.12 148.442 172.066 148.888 172.263C158.799 176.833 166.108 169.432 166.179 169.36C172.846 161.242 167.605 152.927 167.374 152.587C167.089 152.157 167.071 151.601 167.338 151.153C167.588 150.705 168.069 150.454 168.586 150.454C178.052 150.848 180.957 142.408 181.082 142.031C183.916 133.895 175.681 126.691 175.592 126.62C175.235 126.315 175.057 125.849 175.128 125.383C175.199 124.917 175.502 124.523 175.93 124.326C184.665 120.455 184.219 111.889 184.202 111.531C184.202 111.459 184.202 111.369 184.202 111.298C185.2 101.226 173.256 98.0543 172.739 97.9288C172.24 97.8034 171.866 97.4092 171.741 96.9253C171.616 96.4235 171.795 95.9038 172.169 95.5813C178.64 89.8825 176.198 81.8541 176.091 81.5136C173.274 72.4458 162.757 73.288 162.311 73.3239C161.865 73.3776 161.42 73.1805 161.117 72.8221C160.832 72.4637 160.742 71.9798 160.885 71.5498C163.22 64.1306 158.193 57.5 157.569 56.7294C145.448 46.3355 130.509 57.948 129.885 58.4319C129.582 58.6828 129.172 58.7724 128.78 58.7007C128.388 58.629 128.049 58.3781 127.853 58.0376C118.459 41.712 104.216 44.0775 104.073 44.0954C103.984 44.0954 103.895 44.1133 103.824 44.1133C103.699 44.1133 103.556 44.1133 103.432 44.1133C86.3898 44.1133 82.272 57.5896 82.2364 57.733C82.1116 58.1631 81.7729 58.5215 81.3451 58.6469C80.9172 58.7903 80.4359 58.7007 80.0794 58.414C79.4555 57.9122 64.5351 46.3176 52.3955 56.6936C51.7716 57.4642 46.7625 64.1306 49.0798 71.5139C49.2225 71.944 49.1333 72.4279 48.8481 72.7863C48.5629 73.1447 48.1172 73.3418 47.6538 73.288C47.2081 73.2522 36.6729 72.392 33.8742 81.4598C33.7672 81.8182 31.3072 89.8467 37.7781 95.5454C38.1525 95.8859 38.3307 96.4056 38.2059 96.8895C38.0811 97.3912 37.7068 97.7676 37.2077 97.893C36.6907 98.0184 24.7472 101.172 25.7455 111.262C25.7455 111.333 25.7455 111.423 25.7455 111.495C25.7277 111.853 25.282 120.419 34.0168 124.29C34.4446 124.487 34.7477 124.881 34.819 125.347C34.8903 125.813 34.712 126.279 34.3555 126.584C34.2664 126.656 26.0307 133.86 28.8651 141.978C28.9898 142.372 31.8598 150.812 41.3611 150.418C41.8781 150.418 42.3594 150.669 42.609 151.117C42.8585 151.565 42.8407 152.121 42.5555 152.551C42.3238 152.891 37.1007 161.206 43.839 169.414C44.0529 169.629 51.2011 176.779 61.059 172.228C61.5225 172.013 62.0572 172.084 62.4494 172.389C62.8416 172.694 63.0555 173.195 62.9664 173.697C62.8951 174.145 61.2907 184.844 71.2911 187.675C71.3981 187.693 84.5894 190.919 89.242 181.976C89.5094 181.457 90.0977 181.17 90.6681 181.26C91.2564 181.367 91.702 181.815 91.7911 182.406C91.8446 182.747 93.1638 190.309 103.093 190.704C103.253 190.632 103.432 190.596 103.61 190.596L103.628 190.614Z" fill="black"/>
<path d="M64.7148 57.8226L72.8792 12.4119C72.8792 12.4119 102.381 -3.55538 133.702 12.4119L141.652 57.5896C141.652 57.5896 106.018 67.1771 64.7148 57.8226Z" fill="#FF4438"/>
<mask id="mask0_37_2395" style="mask-type:luminance" maskUnits="userSpaceOnUse" x="64" y="5" width="78" height="58">
<path d="M64.9453 58.2885L73.1097 12.8778C73.1097 12.8778 102.612 -3.08944 133.932 12.8778L141.883 58.0556C141.883 58.0556 106.248 67.6431 64.9453 58.2885Z" fill="white"/>
</mask>
<g mask="url(#mask0_37_2395)">
<path d="M81.769 2.04587L72.9139 70.0297L78.3226 70.7416L87.1776 2.75784L81.769 2.04587Z" fill="white"/>
<path d="M93.7911 2.01359L90.2811 70.4869L95.7287 70.7691L99.2387 2.29581L93.7911 2.01359Z" fill="white"/>
<path d="M111.483 1.99073L106.035 2.27295L109.545 70.7462L114.993 70.464L111.483 1.99073Z" fill="white"/>
<path d="M124.139 2.01709L118.73 2.72906L127.585 70.7129L132.994 70.0009L124.139 2.01709Z" fill="white"/>
</g>
<path d="M102.327 63.2704C90.9721 63.2704 77.9591 62.2311 64.4113 59.1666C63.6982 59.0054 63.2347 58.3065 63.3773 57.5896L71.5417 12.1789C71.613 11.7667 71.8626 11.4083 72.2369 11.2112C72.54 11.0499 102.737 -4.91736 134.325 11.2112C134.7 11.4083 134.985 11.7667 135.056 12.1968L143.006 57.3746C143.131 58.0735 142.703 58.7545 142.008 58.9337C141.759 59.0054 125.466 63.2704 102.345 63.2704H102.327ZM66.283 56.7832C102.042 64.5607 133.594 58.0914 140.083 56.5861L132.489 13.3437C104.77 -0.41929 78.2978 11.3008 74.1086 13.3437L66.3008 56.7832H66.283Z" fill="black"/>
<path d="M150.045 153.035C149.76 153.035 149.493 153.017 149.243 152.963C147.175 152.569 146.373 150.884 146.284 150.687C144.787 147.246 149.671 144.236 150.224 143.895C154.858 140.831 155.054 130.652 154.716 126.978C154.644 126.225 155.197 125.562 155.946 125.491C156.712 125.437 157.354 125.975 157.425 126.727C157.479 127.337 158.637 141.583 151.65 146.207C150.17 147.085 148.405 148.752 148.762 149.558C148.762 149.594 149.065 150.132 149.76 150.257C150.331 150.347 152.006 150.239 155.126 147.103C155.661 146.565 156.516 146.565 157.051 147.103C157.586 147.641 157.586 148.501 157.051 149.038C154.431 151.673 152.077 153.017 150.045 153.017V153.035Z" fill="black"/>
<path d="M155.414 157.407C153.774 157.407 152.722 156.493 152.597 156.368C149.602 153.106 154.059 148.124 154.594 147.551C155.111 146.995 155.966 146.978 156.519 147.479C157.071 147.999 157.089 148.859 156.59 149.415C155.449 150.651 153.702 153.321 154.487 154.361C154.629 154.468 155.093 154.737 155.752 154.63C156.447 154.504 157.874 153.823 159.621 150.705C159.995 150.042 160.815 149.809 161.474 150.185C162.134 150.562 162.366 151.386 161.991 152.049C160.209 155.239 158.23 157.013 156.109 157.354C155.859 157.389 155.627 157.407 155.396 157.407H155.414Z" fill="black"/>
<path d="M160.94 160.221H160.922C159.3 160.221 158.302 159.146 158.195 159.02C155.539 156.153 159.211 151.225 159.639 150.669C160.102 150.078 160.958 149.97 161.546 150.436C162.135 150.902 162.241 151.762 161.796 152.354C160.833 153.608 159.389 156.296 160.209 157.192C160.209 157.192 160.512 157.497 160.958 157.497C161.457 157.497 162.099 157.085 162.758 156.368C162.794 156.314 171.208 145.777 171.279 128.251C171.279 127.498 171.885 126.889 172.634 126.889C173.383 126.889 173.989 127.516 173.989 128.268C173.9 146.816 165.165 157.712 164.791 158.16C163.525 159.558 162.241 160.239 160.922 160.239L160.94 160.221Z" fill="black"/>
<path d="M141.884 84.9364C141.117 84.9364 140.44 84.4167 140.244 83.6462C140.172 83.3773 138.621 77.804 132.382 77.7144C132.026 77.6965 125.359 77.356 122.756 82.6964C122.453 83.3236 121.776 83.6999 121.098 83.6462C120.403 83.5924 119.815 83.1265 119.601 82.4455C119.494 82.1229 116.963 74.5963 107.782 74.8471C107.747 74.8471 102.274 75.1159 98.8336 79.399C98.2453 80.1337 97.1757 80.2412 96.4449 79.6499C95.714 79.0585 95.607 77.9832 96.1953 77.2485C100.634 71.729 107.408 71.4243 107.693 71.4243C114.931 71.2272 119.334 75.0801 121.491 78.5209C125.626 73.8974 132.204 74.2737 132.525 74.2916C139.548 74.3812 142.828 79.8828 143.559 82.786C143.791 83.6999 143.238 84.6318 142.329 84.8648C142.187 84.9006 142.044 84.9185 141.901 84.9185L141.884 84.9364Z" fill="black"/>
<path d="M120.99 142.408C120.402 142.408 119.778 142.408 119.154 142.372C118.53 142.39 101.06 142.712 91.88 129.451C91.3452 128.681 91.5413 127.605 92.3078 127.068C93.0743 126.53 94.1439 126.727 94.6787 127.498C102.79 139.218 119.029 138.967 119.19 138.949C136 139.648 141.133 129.684 141.347 129.254C141.757 128.412 142.791 128.053 143.629 128.483C144.467 128.896 144.823 129.917 144.413 130.759C144.182 131.243 138.566 142.408 120.99 142.408Z" fill="black"/>
<path d="M107.834 118.161C115.424 118.161 121.578 110.772 121.578 101.656C121.578 92.541 115.424 85.1515 107.834 85.1515C100.243 85.1515 94.0898 92.541 94.0898 101.656C94.0898 110.772 100.243 118.161 107.834 118.161Z" fill="#FFD200"/>
<path d="M107.835 119.523C99.5105 119.523 92.7188 111.513 92.7188 101.656C92.7188 91.8001 99.4927 83.7896 107.835 83.7896C116.178 83.7896 122.952 91.8001 122.952 101.656C122.952 111.513 116.178 119.523 107.835 119.523ZM107.835 86.5314C101.008 86.5314 95.4461 93.3233 95.4461 101.656C95.4461 109.989 101.008 116.781 107.835 116.781C114.663 116.781 120.224 109.989 120.224 101.656C120.224 93.3233 114.663 86.5314 107.835 86.5314Z" fill="black"/>
<path d="M101.026 112.462C105.072 112.462 108.352 107.424 108.352 101.208C108.352 94.9929 105.072 89.9542 101.026 89.9542C96.9794 89.9542 93.6992 94.9929 93.6992 101.208C93.6992 107.424 96.9794 112.462 101.026 112.462Z" fill="black"/>
<path d="M129.937 117.677C136.976 117.677 142.683 110.825 142.683 102.373C142.683 93.9209 136.976 87.069 129.937 87.069C122.898 87.069 117.191 93.9209 117.191 102.373C117.191 110.825 122.898 117.677 129.937 117.677Z" fill="#FFD200"/>
<path d="M129.939 119.039C122.167 119.039 115.82 111.566 115.82 102.373C115.82 93.1799 122.149 85.707 129.939 85.707C137.729 85.707 144.057 93.1799 144.057 102.373C144.057 111.566 137.729 119.039 129.939 119.039ZM129.939 88.4489C123.664 88.4489 118.548 94.7032 118.548 102.373C118.548 110.043 123.664 116.297 129.939 116.297C136.213 116.297 141.33 110.043 141.33 102.373C141.33 94.7032 136.213 88.4489 129.939 88.4489Z" fill="black"/>
<path d="M124.002 113.502C127.96 113.502 131.168 108.568 131.168 102.481C131.168 96.3939 127.96 91.4595 124.002 91.4595C120.044 91.4595 116.836 96.3939 116.836 102.481C116.836 108.568 120.044 113.502 124.002 113.502Z" fill="black"/>
<path d="M119.724 134.397C126.123 134.397 131.311 129.551 131.311 123.573C131.311 117.595 126.123 112.749 119.724 112.749C113.324 112.749 108.137 117.595 108.137 123.573C108.137 129.551 113.324 134.397 119.724 134.397Z" fill="#F5333F"/>
<path d="M119.723 135.759C112.593 135.759 106.781 130.293 106.781 123.573C106.781 116.853 112.593 111.387 119.723 111.387C126.853 111.387 132.665 116.853 132.665 123.573C132.665 130.293 126.853 135.759 119.723 135.759ZM119.723 114.129C114.09 114.129 109.509 118.376 109.509 123.573C109.509 128.77 114.09 133.017 119.723 133.017C125.356 133.017 129.937 128.77 129.937 123.573C129.937 118.376 125.356 114.129 119.723 114.129Z" fill="black"/>
<path d="M45.4062 133.68C45.4062 133.68 59.3641 137.605 65.2289 132.318C71.0936 127.032 75.7463 119.326 75.7463 119.326C75.7463 119.326 78.2954 112.982 83.7145 114.344C89.1158 115.706 88.8128 121.297 88.5276 122.946C88.2245 124.613 86.7271 129.433 81.3258 133.967" fill="white"/>
<path d="M55.6036 136.458C50.3092 136.458 45.3892 135.114 45.0327 135.007C44.3018 134.809 43.8918 134.057 44.0879 133.322C44.284 132.587 45.0505 132.175 45.7636 132.372C45.8884 132.408 59.0797 136.028 64.3027 131.315C69.6149 126.53 73.9823 119.577 74.5171 118.717C75.6044 116.118 78.9023 111.746 84.0184 113.036C89.794 114.487 90.4001 120.115 89.8297 123.215C89.6336 124.272 88.3679 129.845 82.1466 135.042C81.5762 135.526 80.7027 135.455 80.2214 134.863C79.7401 134.29 79.8114 133.412 80.3997 132.928C86.0149 128.233 87.0488 123.269 87.1379 122.713C87.2449 122.122 88.0471 116.871 83.341 115.688C79.134 114.631 76.9949 119.81 76.9771 119.864C76.9414 119.935 76.9236 120.007 76.8701 120.061C76.674 120.383 72.0392 128 66.1031 133.358C63.4471 135.759 59.4005 136.458 55.5679 136.458H55.6036Z" fill="black"/>
<path d="M75.7456 133.537C75.7456 133.537 84.6051 133.842 87.3147 136.548C90.0243 139.272 88.6695 141.225 88.6695 141.225C88.6695 141.225 87.5108 144.289 82.3056 143.698C82.3056 143.698 87.2077 144.397 86.1025 148.537C84.9973 152.658 81.2003 151.153 81.2003 151.153C81.2003 151.153 84.409 152.157 83.4999 154.88C82.5908 157.604 77.6886 157.389 71.4851 156.189C65.2816 154.988 51.4664 151.655 44.0508 151.959" fill="white"/>
<path d="M78.4933 158.411C76.2829 158.411 73.7338 158.017 71.2381 157.533C70.0794 157.3 68.6712 157.013 67.0846 156.673C60.2751 155.239 49.9894 153.106 44.1246 153.321C43.3759 153.357 42.7342 152.766 42.7164 152.013C42.6807 151.261 43.269 150.615 44.0177 150.597C50.239 150.329 60.7207 152.551 67.6551 154.002C69.2238 154.325 70.632 154.63 71.7729 154.845C80.2225 156.493 81.9516 155.293 82.2368 154.45C82.3973 153.967 82.3081 153.68 82.2368 153.519C81.9694 152.999 81.2386 152.622 80.9355 152.497C80.8464 152.461 80.7751 152.443 80.7394 152.425C80.062 152.157 79.7055 151.386 79.9551 150.705C80.2046 150.006 80.9533 149.63 81.6486 149.863C81.6842 149.863 81.7377 149.899 81.8446 149.934C82.219 150.042 83.0925 150.203 83.7342 149.863C84.2333 149.594 84.6077 149.038 84.8394 148.196C85.0355 147.479 84.982 146.906 84.679 146.44C84.0907 145.544 82.629 145.15 82.1477 145.078C81.4168 144.97 80.8999 144.289 80.989 143.555C81.0781 142.82 81.7555 142.282 82.5042 142.372C86.4794 142.838 87.4064 140.831 87.442 140.759C87.4777 140.669 87.5312 140.562 87.5846 140.49C87.6203 140.419 88.1551 139.343 86.3903 137.551C84.6968 135.849 78.9568 135.042 75.7481 134.935C74.9994 134.917 74.4112 134.272 74.429 133.519C74.4468 132.766 75.0886 132.157 75.8373 132.193C76.7999 132.229 85.3207 132.605 88.3155 135.616C91.3638 138.68 90.2764 141.243 89.9199 141.888C89.7059 142.354 88.8681 143.859 86.7468 144.666C86.8181 144.755 86.8894 144.845 86.9429 144.952C87.4599 145.723 87.959 147.049 87.4599 148.931C86.9073 150.974 85.7842 151.906 84.9464 152.336C84.8751 152.372 84.8038 152.407 84.7325 152.443C85.1425 153.339 85.1781 154.325 84.8394 155.346C84.0551 157.676 81.6129 158.447 78.529 158.447L78.4933 158.411Z" fill="black"/>
</g>
<defs>
<clipPath id="clip0_37_2395">
<rect width="164" height="227" fill="white" transform="translate(23 2)"/>
</clipPath>
</defs>
</svg>
