<svg width="230" height="246" viewBox="0 0 230 246" fill="none" xmlns="http://www.w3.org/2000/svg">
<g clip-path="url(#clip0_37_2444)">
<ellipse cx="103.5" cy="227" rx="82.5" ry="19" fill="#D9D9D9" fill-opacity="0.5"/>
<path d="M44.911 147.354C44.4173 147.409 29.4229 156.709 23.9371 162.976C18.4513 169.242 18.8353 176.061 13.8798 174.921C8.92434 173.782 13.6421 166.412 13.6421 166.412C13.6421 166.412 9.41806 173.727 6.93118 170.639C4.4443 167.552 9.27178 162.865 9.27178 162.865C9.27178 162.865 4.02372 168.287 1.8477 164.997C-0.328326 161.726 5.13916 156.782 5.13916 156.782C5.13916 156.782 21.1759 140.022 36.7372 129.822" fill="#FFD200"/>
<path d="M14.9378 176.391C14.5172 176.391 14.0601 176.336 13.5846 176.226C11.756 175.803 10.9515 174.701 10.6223 173.855C10.4029 173.322 10.3115 172.734 10.3115 172.146C9.76287 172.459 9.19601 172.679 8.61086 172.716C7.89771 172.771 6.81884 172.606 5.90455 171.485C4.84396 170.161 4.71596 168.654 5.08168 167.184C4.51482 167.35 3.94796 167.423 3.39938 167.368C2.30222 167.258 1.38793 166.706 0.747921 165.732C-1.99497 161.616 3.60052 156.378 4.25882 155.79C4.35025 155.698 20.4967 138.864 36.0032 128.701C36.6249 128.296 37.4295 128.48 37.8317 129.087C38.234 129.693 38.0512 130.52 37.4477 130.924C22.1973 140.922 6.25198 157.536 6.08741 157.701C4.82568 158.859 1.69879 162.369 2.94223 164.262C3.17995 164.63 3.41766 164.703 3.63709 164.721C4.93539 164.85 7.09313 163.141 8.11714 162.149C8.19029 162.075 8.26343 162.002 8.33657 161.928C8.84858 161.413 9.68973 161.432 10.2017 161.928C10.7137 162.443 10.7137 163.27 10.2017 163.803C10.1652 163.839 10.1103 163.894 10.0372 163.968C8.94001 165.107 6.59941 168.158 7.93428 169.812C8.15371 170.088 8.28172 170.088 8.37314 170.069C9.28744 169.996 11.0063 168.103 12.1766 166.228C12.3229 165.971 12.4509 165.787 12.5058 165.696C12.8898 165.089 13.6943 164.905 14.3161 165.273C14.9378 165.659 15.1389 166.449 14.7732 167.074C14.7001 167.203 14.5904 167.386 14.4441 167.625C13.5115 169.261 12.5789 171.687 13.0543 172.845C13.1641 173.102 13.3835 173.433 14.1698 173.616C15.9252 174.021 16.5104 173.23 18.2475 169.647C19.3081 167.46 20.6247 164.74 22.9287 162.093C28.2865 155.974 43.4821 146.16 44.7621 146.031C45.4935 145.958 46.1335 146.491 46.225 147.207C46.2981 147.851 45.8958 148.42 45.329 148.604C44.0855 149.211 30.1882 157.848 24.9402 163.839C22.8556 166.228 21.6853 168.654 20.643 170.805C19.2715 173.653 17.955 176.373 14.9561 176.373L14.9378 176.391Z" fill="black"/>
<path d="M181.066 102.439L185.528 24.1119L202.9 1.32324L212.664 26.7767L196.774 101.446L181.066 102.439Z" fill="#AFB1B4"/>
<path d="M181.068 103.78C180.721 103.78 180.392 103.633 180.136 103.394C179.861 103.119 179.733 102.751 179.752 102.384L184.213 24.0568C184.213 23.7995 184.323 23.5422 184.488 23.3217L201.859 0.514661C202.152 0.128724 202.627 -0.0550557 203.103 7.81395e-05C203.578 0.0735899 203.981 0.386015 204.145 0.845464L213.91 26.2989C214.001 26.5378 214.02 26.7951 213.965 27.0524L198.074 101.722C197.946 102.31 197.452 102.733 196.867 102.77L181.141 103.762C181.141 103.762 181.087 103.762 181.05 103.762L181.068 103.78ZM186.828 24.6081L182.476 101.024L195.697 100.178L211.295 26.887L202.518 4.02485L186.828 24.6081Z" fill="black"/>
<path d="M189.663 96.6312C189.663 96.6312 189.535 96.6312 189.481 96.6312C188.749 96.5393 188.255 95.8594 188.347 95.1426L198.934 16.2093C199.026 15.4742 199.702 14.978 200.416 15.0699C201.147 15.1618 201.641 15.8418 201.549 16.5585L190.962 95.4918C190.87 96.1534 190.303 96.6496 189.645 96.6496L189.663 96.6312Z" fill="#848689"/>
<path d="M197.727 98.7264L191.547 122.893L179.844 120.909L182.056 96.1719L197.727 98.7264Z" fill="#876355"/>
<path d="M192.512 124.419L178.414 122.011L180.864 94.6465L199.37 97.6605L192.531 124.419H192.512ZM181.267 119.806L190.556 121.386L196.078 99.8107L183.242 97.7156L181.267 119.788V119.806Z" fill="black"/>
<path d="M194.637 94.187C194.637 94.187 172.127 89.3168 170.262 95.1794C168.378 101.06 185.037 102.714 185.037 102.714C185.037 102.714 207.986 107.254 208.863 102.604C209.741 97.9545 201.805 95.841 194.637 94.187Z" fill="#737577"/>
<path d="M201.894 106.041C195.402 106.041 187.009 104.46 184.778 104.019C183.626 103.909 172.289 102.659 169.473 98.3404C168.76 97.2377 168.595 96.0064 168.979 94.7751C171.064 88.2509 189.349 91.6876 194.89 92.8821H194.908C201.436 94.4075 211.311 96.6864 210.141 102.861C210.031 103.394 209.72 104.148 208.824 104.773C207.452 105.71 204.856 106.041 201.875 106.041H201.894ZM178.835 93.5989C174.83 93.5989 171.96 94.187 171.521 95.5837C171.374 96.0615 171.429 96.4658 171.704 96.8885C173.313 99.3512 180.828 100.968 185.18 101.391C192.421 102.825 204.71 104.387 207.379 102.567C207.489 102.494 207.58 102.402 207.58 102.365C208.275 98.7079 199.224 96.6129 194.36 95.4918C188.984 94.334 183.242 93.6172 178.853 93.6172L178.835 93.5989Z" fill="black"/>
<path d="M184.541 138.753C189.813 138.753 194.087 134.532 194.087 129.326C194.087 124.119 189.813 119.898 184.541 119.898C179.27 119.898 174.996 124.119 174.996 129.326C174.996 134.532 179.27 138.753 184.541 138.753Z" fill="#876355"/>
<path d="M184.542 140.077C178.544 140.077 173.68 135.243 173.68 129.326C173.68 123.408 178.562 118.574 184.542 118.574C190.521 118.574 195.403 123.408 195.403 129.326C195.403 135.243 190.521 140.077 184.542 140.077ZM184.542 121.221C180.007 121.221 176.331 124.86 176.331 129.307C176.331 133.755 180.025 137.393 184.542 137.393C189.058 137.393 192.752 133.755 192.752 129.307C192.752 124.86 189.058 121.221 184.542 121.221Z" fill="black"/>
<path d="M153.765 114.917C154.021 114.917 176.348 105.6 176.348 105.6C176.348 105.6 176.019 98.3588 182.054 98.6896C188.088 99.0204 186.68 104.846 186.68 104.846C186.68 104.846 186.022 107.915 181.633 108.007L180.646 119.31L153.418 135.115L153.747 114.917H153.765Z" fill="#FFD200"/>
<path d="M153.436 136.456C153.199 136.456 152.979 136.401 152.76 136.272C152.358 136.034 152.102 135.574 152.102 135.096L152.431 114.899C152.431 114.292 152.851 113.778 153.418 113.631C154.46 113.263 166.566 108.228 175.05 104.699C175.142 103.321 175.544 100.766 177.263 99.0571C178.506 97.8258 180.134 97.2561 182.127 97.3663C184.34 97.495 185.985 98.2668 187.028 99.6636C188.728 101.961 188.015 105.03 187.979 105.159C187.96 105.287 187.174 108.632 182.858 109.238L181.962 119.42C181.926 119.861 181.688 120.247 181.304 120.449L154.076 136.254C153.875 136.364 153.638 136.438 153.418 136.438L153.436 136.456ZM155.082 115.836L154.808 132.799L179.402 118.519L180.335 107.897C180.39 107.217 180.957 106.702 181.633 106.684C184.797 106.629 185.364 104.754 185.418 104.552C185.418 104.534 185.876 102.549 184.906 101.262C184.358 100.527 183.37 100.105 181.999 100.031C180.774 99.9576 179.841 100.27 179.146 100.95C177.574 102.512 177.684 105.526 177.684 105.545C177.702 106.096 177.373 106.61 176.861 106.831C162.287 112.914 157.057 115.064 155.082 115.818V115.836Z" fill="black"/>
<path d="M195.459 101.189C195.459 101.189 188.839 98.9469 187.687 102.512C186.535 106.096 192.241 106.923 192.241 106.923C192.241 106.923 186.279 105.342 186.042 109.918C185.786 114.495 193.246 114.66 193.246 114.66C193.246 114.66 197.306 115.248 198.714 109C200.122 102.769 195.495 101.189 195.495 101.189H195.459Z" fill="#FFD200"/>
<path d="M193.558 116.02C193.393 116.02 193.247 116.02 193.119 116.002C192.351 115.983 188.109 115.726 185.951 113.373C185.055 112.399 184.634 111.187 184.707 109.845C184.817 107.934 185.731 106.886 186.463 106.335C186.682 106.169 186.92 106.041 187.158 105.93C187.011 105.765 186.883 105.581 186.755 105.397C186.152 104.423 186.042 103.302 186.426 102.126C186.755 101.097 187.45 100.288 188.438 99.7922C191.162 98.4138 195.405 99.7922 195.88 99.9576C197.873 100.638 201.293 103.468 199.976 109.33C198.769 114.697 195.514 116.038 193.558 116.038V116.02ZM190.029 108.007C189.297 108.007 188.511 108.117 188.017 108.503C187.761 108.706 187.395 109.073 187.341 110.01C187.304 110.635 187.487 111.131 187.889 111.572C189.151 112.951 192.186 113.318 193.247 113.337C193.302 113.337 193.357 113.337 193.411 113.337C193.686 113.373 196.319 113.502 197.398 108.706C198.531 103.707 195.185 102.494 195.039 102.439C193.649 101.961 190.943 101.465 189.626 102.145C189.279 102.328 189.059 102.567 188.95 102.935C188.767 103.486 188.895 103.78 189.005 103.982C189.462 104.717 190.797 105.232 191.747 105.471C192.168 105.544 192.461 105.618 192.57 105.636C193.247 105.82 193.667 106.5 193.521 107.18C193.375 107.878 192.735 108.338 192.04 108.228C191.949 108.228 191.656 108.173 191.254 108.081C190.906 108.026 190.486 107.989 190.047 107.989L190.029 108.007Z" fill="black"/>
<path d="M64.66 182.53V211.475C64.66 211.475 52.9204 210.703 53.6884 218.9C53.6884 218.9 52.5913 229.099 68.4635 228.658C68.4635 228.658 80.8247 228.328 81.0442 221.344V184.312L64.66 182.53Z" fill="#3E2B2F"/>
<path d="M67.4739 230C61.6956 230 57.4533 228.585 54.8749 225.773C52.2783 222.943 52.2966 219.653 52.3515 218.918C52.1686 216.639 52.7903 214.728 54.2166 213.258C56.7218 210.666 61.0922 210.189 63.323 210.133V181.06L82.3587 183.118V221.344C82.1027 229.541 69.0465 229.982 68.4979 230C68.1505 230 67.8031 230 67.4739 230ZM63.835 212.78C61.8053 212.78 57.9835 213.184 56.1184 215.096C55.2224 216.033 54.8567 217.227 55.0029 218.771V218.9V219.028C55.0029 219.12 54.7652 221.748 56.8681 223.99C59.0624 226.343 62.9573 227.464 68.4431 227.317C68.5528 227.317 79.5609 226.839 79.7255 221.289V185.489L65.9928 184V212.872L64.5848 212.78C64.3836 212.78 64.1276 212.762 63.835 212.762V212.78Z" fill="black"/>
<path d="M93.9516 64.6904C93.9516 64.6904 145.353 64.0839 156.179 98.3955C156.179 98.3955 168.32 138.753 144.933 171.577C144.933 171.577 126.135 197.636 94.1893 196.846H94.6282C62.2987 197.25 43.8848 171.577 43.8848 171.577C20.4971 138.753 32.6389 98.3955 32.6389 98.3955C42.4585 63.1099 94.8659 64.6904 94.8659 64.6904" fill="#FFD200"/>
<path d="M95.5614 198.188C95.1408 198.188 94.7203 198.188 94.2997 198.188C94.1717 198.188 94.0254 198.188 93.8974 198.188C61.7142 198.188 42.9894 172.606 42.8066 172.348C19.3092 139.378 31.2316 98.4139 31.3596 98.0096C41.3437 62.1542 94.3545 63.3488 94.8848 63.3672C101.998 63.5326 147.274 65.7563 157.441 97.9912C157.569 98.4139 169.491 139.378 146.012 172.348C145.811 172.624 126.995 198.206 95.5797 198.206L95.5614 198.188ZM94.6105 195.523C125.258 196.074 143.653 171.044 143.836 170.786C166.584 138.882 155.009 99.1674 154.899 98.7815C144.513 65.8114 94.4825 66.0136 93.9705 66.0136C87.3145 66.0136 42.6603 67.2633 33.9013 98.7447C33.7733 99.1674 22.2349 138.901 44.946 170.786C45.1289 171.025 63.0856 195.505 93.8791 195.505C93.9705 195.505 94.0803 195.505 94.1717 195.505H94.6105V195.523Z" fill="black"/>
<path d="M93.5707 75.1842C110.119 75.1842 126.997 81.01 126.997 81.01C149.836 86.8358 151.811 75.6804 151.811 75.6804C154.298 68.0352 139.395 61.7132 139.395 61.7132C126.321 56.3835 120.524 34.6057 120.524 34.6057C115.221 17.1466 92.8576 18.2861 92.8576 18.2861H94.2473C94.2473 18.2861 73.0356 17.1466 67.751 34.6057C67.751 34.6057 61.9544 56.3835 48.8799 61.7132C48.8799 61.7132 33.9952 68.0352 36.4638 75.6804C36.4638 75.6804 38.457 86.8174 61.2778 81.01C61.2778 81.01 78.1557 75.1842 94.7044 75.1842H93.5524H93.5707Z" fill="black"/>
<path d="M138.699 83.3624C135.28 83.3624 131.312 82.7926 126.831 81.6532C126.612 81.5797 110.21 75.9928 94.1546 75.8642C78.0813 75.9928 61.6971 81.5981 61.5142 81.6532C51.6398 84.171 44.3255 83.9321 39.754 80.9732C36.3894 78.8046 35.8591 75.956 35.8408 75.8274C33.2259 67.7779 48.0192 61.4007 48.6409 61.125C61.2765 55.9792 67.0731 34.6792 67.128 34.4586C71.7178 19.3152 88.0654 17.7531 92.9294 17.6428C93.0391 17.6428 93.2768 17.6428 93.6426 17.6428C93.7706 17.6428 93.8803 17.6428 93.99 17.6428C98.6712 17.698 116.518 18.9844 121.199 34.4403C121.254 34.6792 127.069 55.9976 139.686 61.125C140.326 61.4007 155.12 67.7779 152.487 75.9193C152.487 75.956 151.938 78.8046 148.592 80.9732C146.105 82.5905 142.813 83.3991 138.754 83.3991L138.699 83.3624ZM94.7214 74.5226C110.813 74.7799 127.033 80.3116 127.197 80.3667C138.882 83.344 144.843 81.7267 147.769 79.8522C150.658 77.996 151.133 75.662 151.152 75.5517C153.437 68.4762 139.284 62.3747 139.138 62.3196C125.917 56.9349 120.139 35.6716 119.901 34.7711C115.567 20.473 99.1101 19.0395 94.2643 18.9293H92.8746C88.1934 19.0579 72.7052 20.5465 68.3897 34.7894C68.152 35.6716 62.3737 56.9349 49.1347 62.3196C49.0067 62.3747 34.8351 68.4762 37.1025 75.4598C37.1391 75.6436 37.6145 77.996 40.5037 79.8338C43.4477 81.7083 49.4089 83.3256 61.1302 80.33C61.2399 80.2932 77.4595 74.7615 93.5694 74.5042H94.7214V74.5226Z" fill="black"/>
<path d="M93.1124 49.3816C98.7578 49.3816 103.334 45.2264 103.334 40.1007C103.334 34.975 98.7578 30.8198 93.1124 30.8198C87.4671 30.8198 82.8906 34.975 82.8906 40.1007C82.8906 45.2264 87.4671 49.3816 93.1124 49.3816Z" fill="#BBBBBB"/>
<path d="M93.3498 45.0076H92.4172C90.0035 45.0076 88.0469 46.9741 88.0469 49.3999V49.5285C88.0469 51.9544 90.0035 53.9209 92.4172 53.9209H93.3498C95.7635 53.9209 97.7201 51.9544 97.7201 49.5285V49.3999C97.7201 46.9741 95.7635 45.0076 93.3498 45.0076Z" fill="#BBBBBB"/>
<path d="M90.0028 37.4358H89.948C89.241 37.4358 88.668 38.0118 88.668 38.7222V41.3319C88.668 42.0424 89.241 42.6184 89.948 42.6184H90.0028C90.7098 42.6184 91.2828 42.0424 91.2828 41.3319V38.7222C91.2828 38.0118 90.7098 37.4358 90.0028 37.4358Z" fill="black"/>
<path d="M89.9847 42.6735C89.235 42.6735 88.6133 42.0487 88.6133 41.2952V38.7407C88.6133 37.9872 89.235 37.3623 89.9847 37.3623C90.7344 37.3623 91.3562 37.9872 91.3562 38.7407V41.2952C91.3562 42.0487 90.7344 42.6735 89.9847 42.6735ZM89.9847 37.4909C89.2899 37.4909 88.7413 38.0607 88.7413 38.7407V41.2952C88.7413 41.9935 89.3081 42.5449 89.9847 42.5449C90.6613 42.5449 91.2282 41.9752 91.2282 41.2952V38.7407C91.2282 38.0423 90.6613 37.4909 89.9847 37.4909Z" fill="#231815"/>
<path d="M95.6357 37.4358H95.5808C94.8739 37.4358 94.3008 38.0118 94.3008 38.7222V41.3319C94.3008 42.0424 94.8739 42.6184 95.5808 42.6184H95.6357C96.3426 42.6184 96.9157 42.0424 96.9157 41.3319V38.7222C96.9157 38.0118 96.3426 37.4358 95.6357 37.4358Z" fill="black"/>
<path d="M95.6175 42.6735C94.8678 42.6735 94.2461 42.0487 94.2461 41.2952V38.7407C94.2461 37.9872 94.8678 37.3623 95.6175 37.3623C96.3673 37.3623 96.989 37.9872 96.989 38.7407V41.2952C96.989 42.0487 96.3673 42.6735 95.6175 42.6735ZM95.6175 37.4909C94.9227 37.4909 94.3741 38.0607 94.3741 38.7407V41.2952C94.3741 41.9935 94.941 42.5449 95.6175 42.5449C96.2941 42.5449 96.861 41.9752 96.861 41.2952V38.7407C96.861 38.0423 96.2941 37.4909 95.6175 37.4909Z" fill="#231815"/>
<path d="M105.838 64.3963C105.692 64.3963 105.528 64.3779 105.363 64.3228L78.9764 55.1155C78.2267 54.8582 77.8427 54.0312 78.0987 53.296C78.3547 52.5425 79.1776 52.1566 79.909 52.4139L106.296 61.6212C107.045 61.8785 107.429 62.7055 107.173 63.4407C106.972 64.0288 106.424 64.3963 105.82 64.3963H105.838Z" fill="#BBBBBB"/>
<path d="M79.2873 63.4958C78.6656 63.4958 78.0805 63.0731 77.9159 62.4299C77.7147 61.658 78.1536 60.8862 78.9216 60.6656L105.875 53.2777C106.643 53.0755 107.411 53.5166 107.63 54.2885C107.832 55.0604 107.393 55.8322 106.625 56.0528L79.6713 63.4407C79.5433 63.4775 79.4153 63.4958 79.2873 63.4958Z" fill="#BBBBBB"/>
<path d="M103.186 126.936C111.689 126.936 118.583 119.21 118.583 109.679C118.583 100.149 111.689 92.4226 103.186 92.4226C94.6824 92.4226 87.7891 100.149 87.7891 109.679C87.7891 119.21 94.6824 126.936 103.186 126.936Z" fill="white"/>
<path d="M103.186 128.26C93.9699 128.26 86.4727 119.916 86.4727 109.661C86.4727 99.4063 93.9699 91.0627 103.186 91.0627C112.402 91.0627 119.899 99.4063 119.899 109.661C119.899 119.916 112.402 128.26 103.186 128.26ZM103.186 93.7459C95.4328 93.7459 89.1241 100.895 89.1241 109.68C89.1241 118.464 95.4328 125.613 103.186 125.613C110.939 125.613 117.248 118.464 117.248 109.68C117.248 100.895 110.939 93.7459 103.186 93.7459Z" fill="black"/>
<path d="M78.4466 126.44C86.3239 126.44 92.7096 119.274 92.7096 110.433C92.7096 101.593 86.3239 94.4259 78.4466 94.4259C70.5694 94.4259 64.1836 101.593 64.1836 110.433C64.1836 119.274 70.5694 126.44 78.4466 126.44Z" fill="white"/>
<path d="M78.4455 127.763C69.8512 127.763 62.8477 119.99 62.8477 110.433C62.8477 100.877 69.8329 93.1027 78.4455 93.1027C87.0582 93.1027 94.0434 100.877 94.0434 110.433C94.0434 119.99 87.0582 127.763 78.4455 127.763ZM78.4455 95.7675C71.314 95.7675 65.4991 102.347 65.4991 110.433C65.4991 118.519 71.314 125.099 78.4455 125.099C85.577 125.099 91.392 118.519 91.392 110.433C91.392 102.347 85.577 95.7675 78.4455 95.7675Z" fill="black"/>
<path d="M90.535 143.918C97.6952 143.918 103.5 138.849 103.5 132.597C103.5 126.345 97.6952 121.276 90.535 121.276C83.3748 121.276 77.5703 126.345 77.5703 132.597C77.5703 138.849 83.3748 143.918 90.535 143.918Z" fill="#F5333F"/>
<path d="M90.5352 145.241C82.654 145.241 76.2539 139.562 76.2539 132.597C76.2539 125.632 82.6723 119.953 90.5352 119.953C98.3981 119.953 104.816 125.632 104.816 132.597C104.816 139.562 98.3981 145.241 90.5352 145.241ZM90.5352 122.618C84.1168 122.618 78.8871 127.102 78.8871 132.597C78.8871 138.092 84.1168 142.576 90.5352 142.576C96.9536 142.576 102.183 138.092 102.183 132.597C102.183 127.102 96.9536 122.618 90.5352 122.618Z" fill="black"/>
<path d="M78.4828 119.107C82.6133 119.107 85.9618 115.067 85.9618 110.084C85.9618 105.1 82.6133 101.06 78.4828 101.06C74.3523 101.06 71.0039 105.1 71.0039 110.084C71.0039 115.067 74.3523 119.107 78.4828 119.107Z" fill="black"/>
<path d="M103.463 119.107C107.594 119.107 110.942 115.067 110.942 110.084C110.942 105.1 107.594 101.06 103.463 101.06C99.3328 101.06 95.9844 105.1 95.9844 110.084C95.9844 115.067 99.3328 119.107 103.463 119.107Z" fill="black"/>
<path d="M70.418 145.351C70.418 145.351 89.289 156.819 113.609 142.521C113.609 142.521 113.609 166.137 94.5737 167.625C75.538 169.114 70.418 145.333 70.418 145.333V145.351Z" fill="#5C0107"/>
<path d="M92.8727 169.04C74.3856 169.04 69.1742 145.884 69.1193 145.645C69.0096 145.131 69.2107 144.598 69.6496 144.285C70.0702 143.973 70.6553 143.954 71.0942 144.23C71.277 144.34 89.6178 155.091 112.932 141.4C113.335 141.161 113.847 141.161 114.267 141.4C114.67 141.639 114.926 142.08 114.926 142.558C114.926 142.815 114.688 167.423 94.683 169.004C94.0613 169.059 93.4579 169.077 92.8727 169.077V169.04ZM72.5205 147.887C73.2519 150.093 74.5319 153.29 76.5251 156.415C81.0966 163.564 87.1309 166.908 94.4819 166.32C108.617 165.199 111.543 150.681 112.128 144.892C93.5676 154.834 78.5183 150.46 72.5205 147.887Z" fill="black"/>
<path d="M89.4897 95.5102C88.996 95.5102 88.5206 95.2897 88.2097 94.9037C79.3411 84.024 68.9364 88.1039 68.4975 88.2877C67.6564 88.6368 66.6872 88.2325 66.3398 87.3871C65.9923 86.5418 66.3946 85.5677 67.2358 85.2185C67.3638 85.1634 79.1033 80.4403 89.2703 91.0811C90.276 89.5925 91.9035 87.5158 94.0978 85.6229C99.3824 81.0468 105.398 79.7603 111.506 81.9105C112.365 82.2229 112.823 83.1602 112.512 84.024C112.201 84.8877 111.268 85.3472 110.409 85.0348C98.4315 80.8078 91.044 94.481 90.9709 94.6097C90.7149 95.1059 90.2212 95.4367 89.6726 95.4918C89.6177 95.4918 89.5629 95.4918 89.508 95.4918L89.4897 95.5102Z" fill="black"/>
<path d="M112.332 219.855C112.332 219.855 112.167 202.065 134 202.396C155.834 202.727 157.498 213.368 157.498 213.368C157.498 213.368 161.137 227.17 153.036 227.501C144.935 227.831 117.799 228.162 117.799 228.162C117.799 228.162 112.167 228.328 112.332 219.855Z" fill="#737577"/>
<path d="M117.741 229.504C117.303 229.504 115.255 229.412 113.481 227.629C111.78 225.938 110.939 223.31 111.012 219.837C111.012 219.304 111.104 212.339 116.461 206.972C120.521 202.929 126.427 200.944 134.034 201.036C155.996 201.367 158.592 211.934 158.812 213.056C159.031 213.883 161.024 222.153 157.952 226.343C156.837 227.868 155.154 228.714 153.106 228.805C145.079 229.136 118.089 229.467 117.815 229.467C117.815 229.467 117.778 229.467 117.76 229.467L117.741 229.504ZM133.394 203.72C126.811 203.72 121.728 205.447 118.308 208.884C113.645 213.552 113.645 219.782 113.645 219.855V219.892C113.591 222.557 114.157 224.56 115.291 225.718C116.388 226.839 117.668 226.857 117.76 226.857C118.034 226.857 144.969 226.527 152.978 226.196C154.24 226.141 155.154 225.7 155.794 224.817C157.806 222.079 156.782 215.886 156.215 213.717L156.178 213.589C156.178 213.589 154.24 204.05 133.961 203.738C133.76 203.738 133.577 203.738 133.376 203.738L133.394 203.72Z" fill="black"/>
<path d="M136.412 188.172L136.595 181.739C136.595 181.739 137.93 169.794 126.537 170.363C115.145 170.933 118.163 193.189 118.163 193.189C118.163 193.189 118.089 203.609 123.977 205.888C129.866 208.167 146.177 208.976 148.261 202.157C150.327 195.339 148.371 190.855 144.97 189.863C141.569 188.87 134.565 186.793 129.408 193.851" fill="#3E2B2F"/>
<path d="M134.877 208.865C130.47 208.865 126.118 208.149 123.503 207.138C117.085 204.657 116.847 194.475 116.829 193.281C116.646 191.921 115.074 178.376 120.212 172.165C121.839 170.198 123.942 169.151 126.466 169.022C130.123 168.838 133.012 169.831 135.023 171.981C138.534 175.748 137.931 181.629 137.894 181.887L137.73 187.529C140.802 187.271 143.581 188.08 145.245 188.558C146.982 189.072 148.354 190.212 149.25 191.866C150.695 194.531 150.768 198.316 149.506 202.525C148.939 204.381 147.549 205.87 145.373 206.936C142.576 208.314 138.699 208.847 134.859 208.847L134.877 208.865ZM127.289 171.668C127.069 171.668 126.831 171.668 126.594 171.668C124.802 171.76 123.394 172.477 122.242 173.855C117.688 179.35 119.444 192.858 119.462 193.005V193.097V193.189C119.462 193.281 119.462 202.727 124.436 204.638C128.843 206.348 139.101 207.046 144.221 204.547C145.702 203.811 146.635 202.874 146.982 201.753C148.061 198.225 148.043 195.174 146.946 193.134C146.397 192.105 145.574 191.406 144.587 191.131C141.204 190.157 135.042 188.356 130.452 194.623C130.013 195.211 129.19 195.339 128.605 194.898C128.02 194.457 127.892 193.63 128.331 193.042C130.397 190.212 132.756 188.723 135.078 188.006L135.261 181.684C135.261 181.519 135.755 176.649 133.085 173.782C131.75 172.367 129.812 171.65 127.289 171.65V171.668Z" fill="black"/>
</g>
<defs>
<clipPath id="clip0_37_2444">
<rect width="230" height="246" fill="white"/>
</clipPath>
</defs>
</svg>
