<svg width="244" height="266" viewBox="0 0 244 266" fill="none" xmlns="http://www.w3.org/2000/svg">
<ellipse cx="127" cy="247" rx="103" ry="19" fill="#D9D9D9" fill-opacity="0.5"/>
<g clip-path="url(#clip0_38_4679)">
<path d="M70.8509 198.84L72.2095 234.895C72.2095 234.895 57.3567 231.173 56.4597 242.008C55.5496 252.843 68.0544 255.337 68.0544 255.337C68.0544 255.337 89.0805 259.6 91.3493 247.577C93.6181 235.542 93.1169 201.216 93.1169 201.216L70.8641 198.84H70.8509Z" fill="#032640"/>
<path d="M76.048 257C71.7083 257 68.1468 256.301 67.8566 256.235C67.7247 256.208 64.5325 255.548 61.4063 253.503C57.172 250.718 55.1407 246.719 55.5496 241.942C55.787 239.092 56.9478 236.901 58.9924 235.436C62.8441 232.678 68.7535 233.338 71.2598 233.786L69.9539 198.88C69.9539 198.616 70.0462 198.365 70.2441 198.181C70.442 197.996 70.6926 197.917 70.9564 197.943L93.2092 200.319C93.6709 200.371 94.0139 200.754 94.0139 201.203C94.0403 202.615 94.4887 235.766 92.2199 247.749C91.7055 250.454 90.2809 252.619 87.9857 254.163C84.6616 256.406 80.0317 257 76.048 257ZM66.7485 235.198C64.4797 235.198 61.9075 235.568 60.0344 236.914C58.4252 238.075 57.5414 239.765 57.3435 242.1C57.0006 246.218 58.689 249.544 62.356 251.972C65.1788 253.846 68.1863 254.466 68.2127 254.466C68.3446 254.493 80.6516 256.921 86.97 252.671C88.8695 251.391 90.0039 249.676 90.426 247.432C92.4574 236.65 92.2463 207.287 92.1935 202.047L71.7742 199.87L73.0933 234.882C73.0933 235.172 72.9746 235.436 72.7635 235.621C72.5393 235.805 72.2491 235.871 71.9721 235.792C71.9325 235.792 69.5582 235.212 66.7354 235.212L66.7485 235.198Z" fill="black"/>
<path d="M115.396 198.84L116.755 234.895C116.755 234.895 101.902 231.173 101.005 242.008C100.095 252.843 112.6 255.337 112.6 255.337C112.6 255.337 133.626 259.6 135.894 247.577C138.163 235.542 137.662 201.216 137.662 201.216L115.409 198.84H115.396Z" fill="#032640"/>
<path d="M120.593 257C116.253 257 112.692 256.301 112.402 256.235C112.27 256.208 109.078 255.548 105.951 253.503C101.717 250.718 99.6858 246.719 100.095 241.942C100.332 239.092 101.493 236.901 103.538 235.436C107.389 232.678 113.299 233.338 115.805 233.786L114.499 198.88C114.499 198.616 114.591 198.365 114.789 198.181C114.987 197.996 115.238 197.917 115.502 197.943L137.754 200.319C138.216 200.371 138.559 200.754 138.559 201.203C138.585 202.615 139.034 235.766 136.765 247.749C136.251 250.454 134.826 252.619 132.531 254.163C129.207 256.406 124.577 257 120.593 257ZM111.294 235.198C109.025 235.198 106.453 235.568 104.58 236.914C102.97 238.075 102.087 239.765 101.889 242.1C101.546 246.218 103.234 249.544 106.901 251.972C109.724 253.846 112.732 254.466 112.758 254.466C112.877 254.493 125.197 256.921 131.515 252.671C133.415 251.391 134.549 249.676 134.971 247.432C137.003 236.65 136.791 207.287 136.739 202.047L116.319 199.87L117.638 234.882C117.638 235.172 117.52 235.436 117.309 235.621C117.084 235.805 116.794 235.871 116.517 235.792C116.478 235.792 114.103 235.212 111.281 235.212L111.294 235.198Z" fill="black"/>
<path d="M108.722 23.5303C108.722 23.5303 121.596 1.00293 127.466 2.89011C133.336 4.77729 128.218 31.673 128.218 31.673L108.722 23.5303Z" fill="#9BCEE6"/>
<path d="M128.217 32.5704C128.099 32.5704 127.98 32.544 127.874 32.5044L108.379 24.3618C108.141 24.2562 107.956 24.0583 107.864 23.8207C107.785 23.57 107.811 23.3061 107.93 23.0817C107.956 23.0289 111.215 17.341 115.159 11.9698C120.738 4.35505 124.854 1.10857 127.729 2.03236C134.035 4.06471 129.972 27.2256 129.101 31.8446C129.048 32.1085 128.877 32.3461 128.64 32.478C128.508 32.544 128.363 32.5836 128.204 32.5836L128.217 32.5704ZM110.027 23.0817L127.532 30.3929C129.471 19.6241 130.592 4.84334 127.189 3.74798C123.733 2.63943 115.277 14.1077 110.027 23.0817Z" fill="black"/>
<path d="M166.444 173.066C166.444 173.066 176.562 160.107 180.07 161.836C183.579 163.551 177.933 179.942 177.933 179.942L166.458 173.066H166.444Z" fill="#9BCEE6"/>
<path d="M177.92 180.84C177.762 180.84 177.604 180.8 177.459 180.708L165.983 173.832C165.758 173.7 165.6 173.476 165.561 173.225C165.508 172.974 165.574 172.71 165.732 172.499C168.212 169.319 176.601 159.117 180.466 161.004C184.384 162.931 180.163 176.207 178.778 180.219C178.685 180.483 178.488 180.681 178.237 180.774C178.131 180.813 178.026 180.826 177.92 180.826V180.84ZM167.79 172.816L177.419 178.583C179.807 171.311 181.244 163.42 179.662 162.641C178.026 161.836 172.367 167.128 167.79 172.816Z" fill="black"/>
<path d="M183.46 182.318C183.46 182.318 193.578 169.358 197.087 171.087C200.595 172.803 194.95 189.193 194.95 189.193L183.474 182.318H183.46Z" fill="#9BCEE6"/>
<path d="M194.95 190.104C194.791 190.104 194.633 190.064 194.488 189.972L183.012 183.096C182.788 182.964 182.629 182.74 182.59 182.489C182.537 182.238 182.603 181.975 182.761 181.763C185.241 178.583 193.631 168.382 197.495 170.269C201.413 172.196 197.192 185.472 195.807 189.484C195.715 189.748 195.517 189.946 195.266 190.038C195.161 190.078 195.055 190.091 194.95 190.091V190.104ZM184.819 182.08L194.448 187.847C196.836 180.576 198.274 172.684 196.691 171.905C195.068 171.1 189.396 176.392 184.819 182.08Z" fill="black"/>
<path d="M201.598 191.569C201.598 191.569 211.715 178.609 215.224 180.338C218.733 182.067 213.087 198.444 213.087 198.444L201.611 191.569H201.598Z" fill="#9BCEE6"/>
<path d="M213.074 199.355C212.915 199.355 212.757 199.316 212.612 199.223L201.136 192.348C200.912 192.216 200.754 191.991 200.714 191.74C200.661 191.49 200.727 191.226 200.885 191.015C203.365 187.834 211.755 177.633 215.619 179.52C219.537 181.447 215.316 194.723 213.931 198.735C213.839 198.999 213.641 199.197 213.39 199.289C213.285 199.329 213.179 199.342 213.074 199.342V199.355ZM202.943 191.331L212.572 197.098C214.96 189.827 216.398 181.935 214.815 181.156C213.179 180.351 207.52 185.643 202.943 191.331Z" fill="black"/>
<path d="M55.0879 23.2928C55.0879 23.2928 58.5703 1.1745 63.8861 0.910555C69.202 0.646614 73.3044 23.8999 73.3044 23.8999L55.0879 23.306V23.2928Z" fill="#9BCEE6"/>
<path d="M73.3044 24.7973C73.3044 24.7973 73.2912 24.7973 73.278 24.7973L55.0615 24.2034C54.7977 24.2034 54.5603 24.0715 54.3888 23.8735C54.2173 23.6756 54.1514 23.4116 54.1909 23.1609C54.7977 19.3469 58.0822 0.290336 63.8334 0C63.873 0 63.9125 0 63.9653 0C69.7033 0 73.489 19.7428 74.2013 23.7284C74.2541 23.9923 74.175 24.2694 73.9903 24.4806C73.8188 24.6785 73.5682 24.7973 73.3044 24.7973ZM56.1432 22.4218L72.2095 22.9497C69.479 8.23498 65.7461 1.71562 63.9257 1.808C62.0658 1.90038 58.4779 8.36695 56.1432 22.4218Z" fill="black"/>
<path d="M219.735 196.94C195.029 189.695 173.99 175.257 164.017 167.629C164.044 167.471 164.07 167.326 164.096 167.181C169.096 136.656 170.903 85.0552 157.752 52.1417C144.6 19.2414 95.3329 14.7808 76.7867 14.9391C76.7867 14.9391 -0.959688 15.7442 8.60362 70.6704L5.02892 70.4989C5.02892 70.4989 0.544058 107.306 49.7324 107.464C49.7324 107.464 42.5435 199.712 75.8106 209.715C109.078 219.718 140.34 208.712 140.34 208.712C140.34 208.712 143.915 206.614 148.36 201.704C188.935 216.947 227.795 212.803 229.866 206.376C231.937 199.936 219.735 196.94 219.735 196.94Z" fill="#1B9749"/>
<path d="M105.384 214.782C96.2035 214.782 85.9411 213.7 75.5336 210.573C67.6719 208.21 61.3799 201.229 56.8422 189.84C53.2675 180.866 50.7613 169.107 49.3763 154.907C47.3053 133.581 48.4397 112.98 48.7431 108.348C32.0304 108.124 19.7102 103.65 12.0991 95.0322C2.56221 84.2106 4.05276 70.9475 4.11872 70.38C4.17148 69.9049 4.60678 69.5618 5.05526 69.5882L7.50875 69.707C5.50375 56.7606 8.19467 45.7411 15.5155 36.9386C33.9958 14.7279 75.0323 14.0417 76.7735 14.0285C82.1026 13.9889 100.899 14.3056 119.564 20.2839C139.667 26.7109 152.792 37.3213 158.583 51.8117C164.519 66.6452 167.988 86.9555 168.634 110.526C169.148 129.318 167.829 149.985 165.007 167.247C175.375 175.125 195.926 189.009 219.973 196.069C220.513 196.201 227.966 198.128 230.301 202.298C231.066 203.684 231.211 205.149 230.723 206.666C230.367 207.775 229.285 208.778 227.491 209.636C216.728 214.848 182.537 215.363 148.61 202.773C144.323 207.405 140.933 209.411 140.788 209.504C140.736 209.53 140.683 209.556 140.63 209.583C140.419 209.662 125.461 214.809 105.384 214.809V214.782ZM5.8599 71.4358C5.7148 74.4711 5.79395 85.1475 13.4842 93.8576C20.8842 102.225 33.0725 106.5 49.7192 106.553C49.9698 106.553 50.2073 106.659 50.3788 106.844C50.5502 107.028 50.6294 107.279 50.6162 107.53C50.5502 108.44 43.8625 199.157 76.048 208.844C107.785 218.398 138.084 208.501 139.931 207.88C140.459 207.55 143.73 205.439 147.674 201.084C147.925 200.807 148.32 200.714 148.663 200.846C185.136 214.545 217.981 212.209 226.687 207.986C228.428 207.141 228.863 206.442 228.982 206.086C229.312 205.056 229.219 204.093 228.692 203.169C226.713 199.619 219.564 197.824 219.498 197.811C219.484 197.811 219.471 197.811 219.458 197.811C194.765 190.566 173.765 176.234 163.437 168.342C163.173 168.144 163.041 167.801 163.094 167.471L163.173 167.022C172.235 111.7 163.476 68.9811 156.881 52.4716C142.437 16.338 83.4612 15.7837 76.7735 15.8365C76.668 15.8365 66.1549 15.9816 53.5577 18.8058C41.9894 21.4056 26.2528 26.856 16.9006 38.0867C9.7248 46.7176 7.23174 57.6184 9.46098 70.4856C9.51374 70.7495 9.4346 71.0399 9.24993 71.2378C9.06526 71.449 8.78825 71.5545 8.52444 71.5414L5.83352 71.4226L5.8599 71.4358Z" fill="black"/>
<path d="M46.6986 63.6363C46.4479 63.6363 46.1973 63.5308 46.0258 63.3328L38.019 54.2796C37.6893 53.9101 37.7288 53.3294 38.0982 52.9995C38.4675 52.6696 39.0479 52.7092 39.3777 53.0787L47.3845 62.1319C47.7143 62.5014 47.6747 63.0821 47.3053 63.412C47.1339 63.5704 46.9228 63.6363 46.7118 63.6363H46.6986Z" fill="black"/>
<path d="M37.9003 63.1084C37.6496 63.1084 37.399 63.0028 37.2275 62.8049C36.8978 62.4354 36.9373 61.8547 37.3067 61.5248L46.3687 53.5141C46.7381 53.1842 47.3185 53.2238 47.6482 53.5933C47.978 53.9628 47.9384 54.5435 47.5691 54.8734L38.507 62.8841C38.3356 63.0424 38.1245 63.1084 37.9135 63.1084H37.9003Z" fill="black"/>
<path d="M26.4639 62.5013C26.2133 62.5013 25.9627 62.3958 25.7912 62.1978L17.7844 53.1446C17.4546 52.7751 17.4942 52.1944 17.8636 51.8645C18.2329 51.5346 18.8133 51.5741 19.1431 51.9437L27.1499 60.9969C27.4796 61.3664 27.4401 61.9471 27.0707 62.277C26.8992 62.4353 26.6882 62.5013 26.4771 62.5013H26.4639Z" fill="black"/>
<path d="M17.6788 61.9867C17.4282 61.9867 17.1776 61.8811 17.0061 61.6832C16.6763 61.3137 16.7159 60.733 17.0852 60.4031L26.1341 52.3924C26.5035 52.0625 27.0838 52.1021 27.4136 52.4716C27.7434 52.8411 27.7038 53.4218 27.3345 53.7517L18.2856 61.7624C18.1141 61.9207 17.9031 61.9867 17.692 61.9867H17.6788Z" fill="black"/>
<path d="M131.568 165.214C131.37 165.214 131.199 165.188 131.054 165.148C130.315 164.977 129.708 164.515 129.299 163.815C128.811 162.984 128.653 161.862 128.653 160.688C127.809 161.889 126.793 162.944 125.685 163.367C124.893 163.657 124.089 163.617 123.377 163.235C122.651 162.852 122.15 162.219 121.899 161.387C121.569 160.252 121.754 158.84 122.137 157.454C121.042 158.365 119.855 159.064 118.694 159.21C117.81 159.315 117.005 159.091 116.359 158.55C114.13 156.689 117.216 151.107 118.272 149.351C124.168 136.168 122.374 119.328 122.361 119.156C122.308 118.655 122.664 118.206 123.165 118.153C123.654 118.101 124.115 118.457 124.168 118.959C124.247 119.671 126.028 136.511 119.907 150.156C119.894 150.196 119.881 150.222 119.855 150.249C118.021 153.271 116.9 156.636 117.533 157.164C117.797 157.388 118.1 157.468 118.483 157.415C119.947 157.243 122.123 155.382 124.3 152.44C124.59 152.057 125.118 151.964 125.527 152.215C125.922 152.479 126.054 153.007 125.817 153.416C125.025 154.828 123.073 158.906 123.654 160.872C123.759 161.229 123.944 161.466 124.234 161.625C124.498 161.77 124.762 161.783 125.078 161.664C126.714 161.057 128.679 157.402 129.523 155.237C129.695 154.789 130.196 154.551 130.658 154.709C131.12 154.868 131.37 155.356 131.238 155.818C130.671 157.811 130.064 161.48 130.882 162.892C131.04 163.156 131.225 163.314 131.489 163.367C131.687 163.419 131.99 163.301 132.32 163.063C135.011 161.07 140.036 150.196 141.778 122.099C141.804 121.598 142.239 121.215 142.741 121.255C143.242 121.281 143.624 121.717 143.585 122.218C141.923 149.074 137.24 161.677 133.402 164.528C132.702 165.043 132.082 165.201 131.594 165.201L131.568 165.214Z" fill="black"/>
<path d="M60.219 75.7777C28.0863 75.7777 5.67521 72.0165 5.29268 71.9637C4.554 71.8318 4.05275 71.1323 4.18466 70.3933C4.31656 69.6542 5.01567 69.1528 5.75436 69.2847C6.38751 69.3903 69.3339 79.9216 135.723 65.3652C136.462 65.2068 137.174 65.6687 137.345 66.4078C137.504 67.1468 137.042 67.8594 136.317 68.031C109.038 74.0093 82.34 75.7909 60.2322 75.7909L60.219 75.7777Z" fill="black"/>
<path d="M61.9075 50.4128C68.617 50.4128 74.0562 43.9193 74.0562 35.9092C74.0562 27.8991 68.617 21.4056 61.9075 21.4056C55.198 21.4056 49.7588 27.8991 49.7588 35.9092C49.7588 43.9193 55.198 50.4128 61.9075 50.4128Z" fill="#FFF200"/>
<path d="M61.9075 51.3103C54.7185 51.3103 48.8618 44.395 48.8618 35.8961C48.8618 27.3972 54.7185 20.4951 61.9075 20.4951C69.0965 20.4951 74.9532 27.4104 74.9532 35.8961C74.9532 44.3818 69.0965 51.3103 61.9075 51.3103ZM61.9075 22.3031C55.7078 22.3031 50.669 28.4002 50.669 35.8961C50.669 43.3921 55.7078 49.4891 61.9075 49.4891C68.1072 49.4891 73.146 43.3921 73.146 35.8961C73.146 28.4002 68.1072 22.3031 61.9075 22.3031Z" fill="black"/>
<path d="M55.8926 45.398C59.4622 45.398 62.356 40.9725 62.356 35.5134C62.356 30.0543 59.4622 25.6288 55.8926 25.6288C52.3229 25.6288 49.4291 30.0543 49.4291 35.5134C49.4291 40.9725 52.3229 45.398 55.8926 45.398Z" fill="black"/>
<path d="M83.3293 50.9672C90.3156 50.9672 95.9792 44.2019 95.9792 35.8565C95.9792 27.5111 90.3156 20.7458 83.3293 20.7458C76.3429 20.7458 70.6793 27.5111 70.6793 35.8565C70.6793 44.2019 76.3429 50.9672 83.3293 50.9672Z" fill="#FFF200"/>
<path d="M83.3293 51.8777C75.8501 51.8777 69.7692 44.6985 69.7692 35.8696C69.7692 27.0408 75.8501 19.8616 83.3293 19.8616C90.8084 19.8616 96.8894 27.0408 96.8894 35.8696C96.8894 44.6985 90.8084 51.8777 83.3293 51.8777ZM83.3293 21.6696C76.8526 21.6696 71.5895 28.0438 71.5895 35.8696C71.5895 43.6955 76.8526 50.0697 83.3293 50.0697C89.8059 50.0697 95.0691 43.6955 95.0691 35.8696C95.0691 28.0438 89.8059 21.6696 83.3293 21.6696Z" fill="black"/>
<path d="M77.4331 46.8496C81.3597 46.8496 84.5429 41.981 84.5429 35.9752C84.5429 29.9695 81.3597 25.1008 77.4331 25.1008C73.5064 25.1008 70.3232 29.9695 70.3232 35.9752C70.3232 41.981 73.5064 46.8496 77.4331 46.8496Z" fill="black"/>
</g>
<defs>
<clipPath id="clip0_38_4679">
<rect width="227" height="257" fill="white" transform="translate(4)"/>
</clipPath>
</defs>
</svg>
