<svg width="436" height="410" viewBox="0 0 436 410" fill="none" xmlns="http://www.w3.org/2000/svg">
<g clip-path="url(#clip0_37_1953)">
<path d="M157.311 248.157C157.311 248.157 96.1295 289.332 97.1154 288.692C98.1014 288.051 89.9145 267.135 74.2098 275.498C58.505 283.861 69.6322 303.167 69.6322 303.167C69.6322 303.167 81.0762 332.117 104.316 321.832C127.539 311.53 176.291 271.965 176.291 271.965L157.311 248.157Z" fill="#F0514F"/>
<path d="M94.5972 326.075C91.7978 326.075 89.0689 325.538 86.4103 324.482C74.4557 319.668 68.4344 305.678 67.7654 304.05C67.0435 302.751 61.8673 292.968 64.473 284.017C65.7583 279.601 68.6985 276.138 73.2233 273.732C81.956 269.074 90.6534 271.931 96.4459 281.402C97.2029 282.649 97.96 284.017 98.4882 285.315H98.5234L156.149 246.495C157.046 245.889 158.261 246.08 158.93 246.911L177.91 270.719C178.596 271.585 178.456 272.831 177.593 273.524C175.586 275.151 128.366 313.383 105.161 323.685C101.552 325.278 98.0304 326.075 94.5972 326.075ZM81.4102 275.55C79.4383 275.55 77.3784 276.121 75.1952 277.281C71.6916 279.151 69.4204 281.783 68.452 285.107C66.1808 292.865 71.3746 302.076 71.4275 302.163C71.4803 302.249 71.5155 302.336 71.5507 302.422C71.6035 302.561 77.2023 316.396 87.9949 320.724C92.8014 322.646 97.9952 322.404 103.471 319.98C123.876 310.941 164.934 278.441 173.42 271.654L156.888 250.91C147.521 257.213 100.126 289.125 98.3474 290.337C98.3121 290.354 98.2945 290.371 98.2593 290.389C97.3262 291.012 96.0233 290.769 95.3895 289.852C94.8965 289.125 94.7733 288.622 95.055 288.086C94.5444 286.025 91.4985 279.601 86.3223 276.848C84.7378 276 83.1004 275.567 81.4102 275.567V275.55ZM95.9705 287.012C95.6712 287.203 95.4775 287.445 95.3543 287.67C95.5304 287.48 95.7416 287.272 96.0057 287.064L95.9705 287.012Z" fill="black"/>
<path d="M184.442 286.094L146.5 327.927C146.5 327.927 136.359 307.981 120.003 321.175C103.647 334.369 124.264 354.315 124.264 354.315C124.264 354.315 140.954 376.513 163.191 360.098C185.445 343.684 224.038 302.509 224.038 302.509L184.459 286.094H184.442Z" fill="#F0514F"/>
<path d="M146.626 368.167C145.429 368.167 144.214 368.081 143.017 367.907C131.309 366.228 123.685 356.912 122.699 355.631C121.431 354.367 111.132 343.805 111.66 332.602C111.889 327.546 114.266 323.166 118.702 319.581C123.843 315.443 129.002 313.868 134.037 314.924C140.323 316.24 144.689 321.365 146.837 324.499L182.93 284.727C183.511 284.086 184.462 283.878 185.272 284.207L224.85 300.622C225.467 300.881 225.924 301.418 226.065 302.059C226.206 302.699 226.03 303.375 225.572 303.86C225.185 304.275 186.592 345.363 164.443 361.691C158.633 365.985 152.665 368.15 146.644 368.15L146.626 368.167ZM131.009 318.681C127.911 318.681 124.653 320.032 121.308 322.733C117.752 325.59 115.938 328.88 115.762 332.793C115.304 342.68 125.587 352.757 125.692 352.861C125.763 352.93 125.833 353.017 125.903 353.103C125.974 353.19 133.052 362.401 143.633 363.908C149.725 364.773 155.887 362.955 161.943 358.488C180.905 344.498 212.315 311.876 220.519 303.254L185.007 288.536L148.034 329.278C147.577 329.78 146.908 330.022 146.221 329.936C145.552 329.849 144.953 329.434 144.654 328.845C144.619 328.758 140.252 320.395 133.14 318.924C132.435 318.768 131.713 318.698 130.992 318.698L131.009 318.681Z" fill="black"/>
<path d="M6.9347 236.522L296.293 322.542L301.574 304.777L10.0686 218.48C10.0686 218.48 3.48388 219.016 2.12821 226.895C2.12821 226.895 1.07183 233.18 6.9347 236.522Z" fill="#4F3128"/>
<path d="M296.296 324.586C296.103 324.586 295.891 324.551 295.698 324.499L6.33969 238.461C6.18124 238.409 6.04039 238.357 5.89954 238.271C-1.10773 234.271 0.054277 226.86 0.107096 226.548C1.37474 219.068 7.07915 216.679 9.89614 216.437C10.1602 216.419 10.4067 216.437 10.6532 216.523L302.159 302.821C303.251 303.15 303.867 304.258 303.55 305.331L298.268 323.096C298.11 323.616 297.758 324.049 297.265 324.309C296.965 324.464 296.631 324.551 296.279 324.551L296.296 324.586ZM7.7834 234.669L294.905 320.032L299.025 306.162L9.91375 220.558C8.73414 220.783 5.08965 221.891 4.17413 227.241C4.13892 227.432 3.48749 232.072 7.7834 234.669Z" fill="black"/>
<path d="M379.29 267.325L341.789 387.404C341.789 387.404 320.609 383.023 321.507 356.029C322.405 329.036 290.696 321.988 290.696 321.988L296.259 301.02C296.259 301.02 329.535 313.279 343.022 284.121C356.49 254.962 379.273 267.308 379.273 267.308L379.29 267.325Z" fill="#F0514F"/>
<path d="M341.789 389.43C341.648 389.43 341.507 389.43 341.366 389.378C341.137 389.326 318.513 384.322 319.447 355.96C320.274 330.923 290.555 324.031 290.256 323.962C289.71 323.841 289.234 323.512 288.953 323.045C288.671 322.577 288.583 322.006 288.724 321.486L294.287 300.518C294.428 299.964 294.816 299.496 295.326 299.237C295.837 298.977 296.453 298.942 296.999 299.133C297.087 299.167 305.15 302.076 314.605 301.487C327 300.726 335.926 294.613 341.155 283.289C345.909 273.022 352.335 266.494 360.258 263.914C370.751 260.486 379.906 265.334 380.294 265.542C381.156 266.009 381.561 266.996 381.262 267.914L343.761 387.993C343.497 388.859 342.687 389.43 341.789 389.43ZM293.213 320.586C300.467 322.785 324.376 331.927 323.566 356.099C322.88 376.703 335.592 383.179 340.416 384.876L376.79 268.416C374.061 267.36 368.022 265.628 361.508 267.758C354.747 269.992 349.148 275.775 344.905 284.952C332.845 311.045 305.608 305.747 297.721 303.583L293.213 320.586Z" fill="black"/>
<path d="M379.75 267.706C379.75 267.706 435.086 267.256 433.924 275.74C432.762 284.224 424.452 283.22 424.452 283.22C424.452 283.22 432.621 286.787 430.685 293.003C428.73 299.219 420.895 298.076 420.895 298.076C420.895 298.076 429.065 300.12 426.494 306.803C423.941 313.469 416.089 311.582 416.089 311.582C416.089 311.582 425.332 314.526 422.779 320.447C420.226 326.369 410.966 323.408 410.966 323.408C410.966 323.408 420.209 326.352 418.114 332.118C416.019 337.883 406.3 334.334 406.3 334.334C406.3 334.334 418.924 335.892 416.67 343.476C414.416 351.06 403.483 346.905 403.483 346.905C403.483 346.905 413.659 350.298 410.173 357.276C410.173 357.276 407.779 361.778 399.768 358.107C399.768 358.107 411.106 362.055 407.145 369.622C407.145 369.622 405.015 374.66 395.455 370.245C395.455 370.245 406.793 375.717 402.145 382.746C402.145 382.746 399.856 386.573 391.071 381.777C391.071 381.777 401.722 387.473 396.986 395.057C396.986 395.057 395.331 399.94 385.912 393.707C385.912 393.707 396.405 399.334 390.507 406.537C390.507 406.537 384.556 416.372 339.696 385.119L375.137 268.191L379.767 267.741L379.75 267.706Z" fill="#A76828"/>
<path d="M385.945 410C378.973 410 365.293 405.411 338.496 386.746C337.775 386.244 337.458 385.344 337.704 384.512L373.146 267.585C373.392 266.806 374.079 266.234 374.906 266.148L379.537 265.697C379.537 265.697 379.66 265.697 379.73 265.697C387.811 265.645 428.552 265.663 434.873 272.693C435.982 273.939 436.088 275.186 435.964 276.017C435.313 280.813 432.654 283.289 429.855 284.449C432.144 286.666 433.852 289.8 432.654 293.609C431.669 296.76 429.45 298.492 427.073 299.392C427.513 299.877 427.918 300.414 428.235 301.037C428.94 302.37 429.556 304.587 428.429 307.53C427.249 310.612 425.101 312.309 422.795 313.158C423.552 313.885 424.221 314.733 424.679 315.703C425.489 317.452 425.489 319.374 424.679 321.244C423.482 324.014 421.21 325.382 418.71 325.919C419.133 326.421 419.503 326.958 419.784 327.546C420.612 329.209 420.7 331.027 420.048 332.81C419.432 334.472 418.288 335.771 416.686 336.55C417.108 336.966 417.496 337.398 417.812 337.901C419.01 339.701 419.291 341.831 418.64 344.047C417.953 346.333 416.527 348.082 414.485 349.069C413.499 349.554 412.46 349.831 411.404 349.969C411.791 350.489 412.108 351.043 412.372 351.666C413.235 353.726 413.112 355.977 412.02 358.194C411.932 358.367 410.805 360.393 408.023 361.241C408.622 361.968 409.115 362.765 409.485 363.648C410.365 365.847 410.189 368.236 408.974 370.557C408.957 370.626 408.076 372.565 405.506 373.535C404.854 373.777 404.15 373.95 403.411 374.037C404.132 375.007 404.713 376.08 405.048 377.257C405.682 379.491 405.277 381.777 403.886 383.872C403.71 384.183 402.354 386.192 398.833 386.244C399.308 387.058 399.713 387.923 399.96 388.858C400.611 391.265 400.241 393.655 398.851 395.958C398.446 396.875 397.46 398.035 395.84 398.572C395.188 398.797 394.537 398.901 393.727 398.884C393.938 399.386 394.115 399.923 394.22 400.477C394.572 402.191 394.502 404.84 392.178 407.714C391.808 408.217 390.787 409.29 388.498 409.758C387.776 409.913 386.931 410 385.963 410H385.945ZM342.071 384.27C380.822 411.039 388.428 405.654 388.815 405.308C388.833 405.273 388.85 405.256 388.868 405.221C389.977 403.853 390.4 402.555 390.135 401.256C389.678 399.04 387.459 397.17 386.051 396.183C385.611 395.923 385.171 395.646 384.713 395.334C383.797 394.728 383.533 393.533 384.097 392.598C384.66 391.681 385.875 391.352 386.843 391.871C386.914 391.906 387.512 392.235 388.322 392.789C392.248 395.109 393.991 394.849 394.449 394.694C394.784 394.572 394.977 394.365 394.977 394.365C395.03 394.226 395.1 394.07 395.171 393.949C396.034 392.564 396.28 391.213 395.91 389.863C394.96 386.33 390.329 383.699 390.047 383.525C390.047 383.525 390.03 383.525 390.012 383.525C389.026 382.989 388.657 381.759 389.202 380.772C389.748 379.785 390.998 379.439 392.002 379.976C392.002 379.976 392.037 379.976 392.055 380.011C397.512 382.989 399.925 382.158 400.382 381.603C401.122 380.495 401.333 379.439 401.016 378.314C400.206 375.37 396.034 372.79 394.502 372.046C393.481 371.561 393.058 370.349 393.551 369.345C394.044 368.34 395.259 367.925 396.28 368.392C403.551 371.751 405.154 368.877 405.206 368.756C405.928 367.371 406.034 366.211 405.594 365.102C404.766 363.025 402.125 361.397 400.312 360.531C399.837 360.358 399.361 360.15 398.851 359.925C397.847 359.475 397.389 358.315 397.812 357.328C398.234 356.324 399.379 355.822 400.4 356.185C400.594 356.254 401.175 356.462 401.967 356.826C406.826 358.575 408.252 356.376 408.323 356.272C408.851 355.198 408.939 354.159 408.534 353.19C407.618 351.025 404.502 349.45 403.041 348.896C402.882 348.844 402.759 348.792 402.689 348.774C401.65 348.376 401.104 347.233 401.491 346.194C401.879 345.156 403.023 344.619 404.097 344.965C404.168 344.982 404.291 345.034 404.467 345.086C406.157 345.658 410.171 346.593 412.636 345.398C413.657 344.896 414.291 344.099 414.643 342.887C414.96 341.796 414.872 340.896 414.326 340.1C413.464 338.801 411.633 337.883 409.854 337.26C407.636 336.966 405.875 336.342 405.541 336.221C404.555 335.857 404.009 334.836 404.256 333.832C404.502 332.827 405.47 332.169 406.509 332.308C406.897 332.36 408.71 332.602 410.84 333.295C412.231 333.451 413.675 333.416 414.749 332.931C415.436 332.62 415.876 332.135 416.14 331.425C416.422 330.663 416.386 329.988 416.052 329.312C415.013 327.235 411.457 325.694 410.295 325.33C409.432 325.053 408.868 324.256 408.868 323.408C408.868 323.2 408.904 322.992 408.974 322.785C409.326 321.728 410.488 321.14 411.562 321.486C411.633 321.503 419.045 323.789 420.841 319.651C421.21 318.82 421.21 318.092 420.894 317.382C419.96 315.357 416.615 313.885 415.418 313.504C414.362 313.158 413.781 312.067 414.08 311.011C414.379 309.954 415.471 309.331 416.545 309.608C417.161 309.747 422.707 310.889 424.538 306.093C425.013 304.846 425.013 303.808 424.556 302.924C423.675 301.245 421.21 300.275 420.348 300.05C419.291 299.773 418.64 298.734 418.851 297.678C419.08 296.622 420.084 295.912 421.175 296.085C421.422 296.12 427.302 296.882 428.693 292.432C430.084 287.982 423.658 285.125 423.605 285.107C422.672 284.709 422.179 283.688 422.46 282.718C422.725 281.748 423.675 281.125 424.696 281.246C425.735 281.35 431.035 281.61 431.88 275.498C430.647 272.208 406.826 269.559 379.853 269.766L376.684 270.078L342.071 384.305V384.27ZM388.727 405.446C388.727 405.446 388.727 405.446 388.727 405.463C388.727 405.463 388.727 405.463 388.727 405.446Z" fill="black"/>
<path d="M411.124 298.89C410.983 298.89 410.842 298.89 410.701 298.856L383.412 293.332C382.303 293.107 381.581 292.033 381.81 290.943C382.038 289.852 383.13 289.142 384.239 289.367L411.529 294.89C412.638 295.116 413.36 296.189 413.131 297.28C412.937 298.232 412.075 298.89 411.106 298.89H411.124Z" fill="black"/>
<path d="M414.75 285.956C414.609 285.956 414.468 285.956 414.327 285.921L387.037 280.398C385.928 280.173 385.206 279.099 385.435 278.008C385.664 276.917 386.756 276.208 387.865 276.433L415.154 281.956C416.264 282.181 416.986 283.255 416.757 284.346C416.563 285.298 415.7 285.956 414.732 285.956H414.75Z" fill="black"/>
<path d="M406.95 311.807C406.809 311.807 406.651 311.807 406.51 311.755L380.523 306.214C379.414 305.972 378.71 304.898 378.939 303.808C379.185 302.717 380.277 302.024 381.386 302.249L407.373 307.79C408.482 308.032 409.186 309.106 408.957 310.197C408.746 311.149 407.901 311.79 406.95 311.79V311.807Z" fill="black"/>
<path d="M401.859 323.322C401.701 323.322 401.542 323.322 401.401 323.27L375.274 317.348C374.165 317.088 373.478 316.015 373.725 314.924C373.971 313.833 375.098 313.158 376.189 313.4L402.317 319.322C403.426 319.582 404.113 320.655 403.866 321.746C403.655 322.681 402.792 323.322 401.859 323.322Z" fill="black"/>
<path d="M380.681 398.243C380.382 398.243 380.065 398.174 379.783 398.035L351.912 384.616C350.891 384.131 350.469 382.902 350.962 381.898C351.455 380.894 352.705 380.478 353.726 380.963L381.597 394.382C382.618 394.867 383.04 396.096 382.547 397.1C382.195 397.81 381.456 398.243 380.699 398.243H380.681Z" fill="black"/>
<path d="M383.18 385.482C382.916 385.482 382.634 385.43 382.37 385.309L355.679 374.037C354.64 373.604 354.147 372.409 354.605 371.37C355.063 370.349 356.26 369.864 357.316 370.314L384.007 381.586C385.046 382.019 385.539 383.214 385.081 384.253C384.747 385.015 383.99 385.482 383.18 385.482Z" fill="black"/>
<path d="M388.005 372.548C387.723 372.548 387.424 372.496 387.16 372.357L360.469 360.445C359.43 359.977 358.972 358.782 359.448 357.761C359.923 356.739 361.138 356.289 362.177 356.757L388.867 368.669C389.906 369.137 390.364 370.331 389.889 371.353C389.537 372.098 388.797 372.548 388.005 372.548Z" fill="black"/>
<path d="M392.689 358.609C392.443 358.609 392.214 358.575 391.967 358.488L364.378 348.376C363.304 347.978 362.776 346.818 363.164 345.762C363.568 344.705 364.748 344.186 365.822 344.567L393.411 354.679C394.485 355.077 395.013 356.237 394.626 357.293C394.309 358.107 393.534 358.609 392.689 358.609Z" fill="black"/>
<path d="M397.25 344.913C397.056 344.913 396.845 344.879 396.651 344.827L368.57 336.377C367.478 336.048 366.862 334.923 367.196 333.849C367.531 332.776 368.693 332.187 369.767 332.498L397.849 340.948C398.94 341.277 399.556 342.403 399.222 343.476C398.958 344.342 398.13 344.913 397.25 344.913Z" fill="black"/>
<path d="M399.218 333.174C399.042 333.174 398.866 333.156 398.708 333.104L372.052 326.3C370.943 326.023 370.291 324.914 370.573 323.824C370.855 322.733 371.981 322.092 373.091 322.369L399.746 329.174C400.856 329.451 401.507 330.559 401.225 331.65C400.979 332.568 400.151 333.174 399.236 333.174H399.218Z" fill="black"/>
<path d="M148.349 175.331L63.1354 232.799L79.0338 250.72L156.325 212.523L148.349 175.331Z" fill="black"/>
<path d="M79.0371 252.746C78.4561 252.746 77.8927 252.503 77.4877 252.053L61.5893 234.132C61.202 233.699 61.0259 233.111 61.0964 232.539C61.1668 231.968 61.4837 231.448 61.9767 231.119L147.191 173.634C147.754 173.253 148.476 173.166 149.127 173.426C149.761 173.686 150.237 174.223 150.377 174.881L158.353 212.073C158.547 212.973 158.107 213.891 157.261 214.307L79.9702 252.503C79.6709 252.642 79.354 252.711 79.0371 252.711V252.746ZM66.2022 233.18L79.5301 248.192L153.987 211.398L146.979 178.69L66.2198 233.163L66.2022 233.18Z" fill="black"/>
<path d="M129.459 238.028C129.459 238.028 101.817 249.802 106.377 263.256C106.377 263.256 109.088 267.862 114.071 266.771C114.071 266.771 111.853 271.273 115.18 273.714C118.508 276.173 123.631 272.9 123.631 272.9C123.631 272.9 121.976 277.402 125.849 278.216C129.723 279.03 135.973 280.935 150.093 266.909C150.093 266.909 143.297 242.305 129.441 238.046L129.459 238.028Z" fill="#F4B6B3"/>
<path d="M130.021 280.813C128.331 280.813 126.958 280.519 125.796 280.259L125.426 280.173C123.401 279.74 122.398 278.614 121.905 277.731C121.606 277.212 121.43 276.658 121.324 276.104C119.141 276.762 116.306 277.039 113.947 275.307C111.57 273.558 111.112 270.996 111.359 268.849C107.01 268.243 104.704 264.433 104.598 264.243C104.528 264.122 104.475 264.001 104.422 263.862C99.3162 248.815 127.433 236.643 128.63 236.141C129.088 235.95 129.599 235.916 130.057 236.072C144.828 240.608 151.8 265.282 152.082 266.338C152.276 267.031 152.082 267.775 151.554 268.295C141.06 278.718 134.441 280.796 130.004 280.796L130.021 280.813ZM123.648 270.875C124.106 270.875 124.563 271.03 124.933 271.325C125.62 271.862 125.884 272.779 125.585 273.593C125.391 274.164 125.215 275.273 125.514 275.792C125.567 275.879 125.69 276.104 126.289 276.225L126.676 276.312C130.215 277.073 135.515 278.216 147.786 266.321C146.325 261.698 140.145 244.14 129.564 240.21C122.011 243.586 105.461 253.196 108.26 262.39C108.718 263.031 110.602 265.438 113.63 264.78C114.405 264.607 115.197 264.884 115.69 265.507C116.183 266.113 116.271 266.944 115.919 267.654C115.866 267.775 114.493 270.684 116.412 272.104C118.172 273.403 121.482 271.844 122.521 271.204C122.856 270.996 123.243 270.892 123.63 270.892L123.648 270.875Z" fill="black"/>
<path d="M114.09 268.779C113.668 268.779 113.263 268.658 112.893 268.399C111.96 267.741 111.749 266.477 112.418 265.576C115.305 261.594 123.387 254.98 123.721 254.702C124.601 253.993 125.904 254.114 126.626 254.962C127.348 255.828 127.242 257.092 126.362 257.819C126.274 257.888 118.351 264.382 115.781 267.931C115.376 268.485 114.742 268.779 114.108 268.779H114.09Z" fill="black"/>
<path d="M122.54 275.861C122.03 275.861 121.537 275.688 121.132 275.307C120.304 274.545 120.251 273.264 121.044 272.45L131.431 261.542C132.206 260.728 133.509 260.676 134.336 261.455C135.164 262.217 135.217 263.499 134.424 264.312L124.037 275.221C123.632 275.654 123.086 275.861 122.54 275.861Z" fill="black"/>
<path d="M229.128 194.637L132.03 237.474C132.03 237.474 143.826 244.85 151.978 266.009L252.245 225.942" fill="black"/>
<path d="M151.961 268.035C151.679 268.035 151.397 267.983 151.133 267.862C150.623 267.637 150.235 267.238 150.024 266.719C142.225 246.426 131.009 239.24 130.904 239.171C130.27 238.773 129.9 238.063 129.953 237.318C130.006 236.574 130.481 235.916 131.168 235.621L228.266 192.784C229.305 192.317 230.52 192.784 230.995 193.806C231.453 194.827 230.995 196.022 229.956 196.49L135.957 237.959C139.936 241.387 147.277 249.162 153.105 263.36L251.436 224.072C252.492 223.657 253.689 224.159 254.112 225.181C254.534 226.219 254.042 227.397 252.985 227.812L152.718 267.879C152.471 267.983 152.207 268.035 151.943 268.035H151.961Z" fill="black"/>
<path d="M54.5272 259.308C54.5272 259.308 40.5478 250.149 53.6645 233.977C53.6645 233.977 59.7386 226.167 64.8972 228.886C70.0558 231.604 66.2353 238.323 66.2353 238.323C66.2353 238.323 70.4256 230.288 75.637 233.994C80.8484 237.717 76.218 243.188 76.218 243.188C76.218 243.188 80.9893 235.119 86.0775 239.275C91.1833 243.43 86.7465 252.071 86.7465 252.071C86.7465 252.071 78.0843 272.26 54.5448 259.326L54.5272 259.308Z" fill="#F4B6B3"/>
<path d="M69.1223 265.663C64.3158 265.663 59.0868 264.122 53.5232 261.074C53.4704 261.057 53.4352 261.022 53.3824 260.988C53.1359 260.832 47.3258 256.953 46.1814 249.733C45.3187 244.296 47.2906 238.582 52.0619 232.713C52.326 232.366 59.2452 223.605 65.8652 227.085C67.6082 228.003 68.823 229.423 69.3336 231.189C69.404 231.414 69.4568 231.639 69.492 231.864C70.0554 231.553 70.6716 231.31 71.3231 231.154C73.2069 230.704 75.0908 231.12 76.8162 232.349C78.4888 233.544 79.5628 235.05 79.9677 236.764C80.5663 236.487 81.2002 236.262 81.8868 236.141C83.8059 235.812 85.7073 236.349 87.3799 237.699C93.6654 242.825 88.7708 252.556 88.5596 252.971C88.4715 253.196 84.7918 261.542 75.8127 264.589C73.6823 265.317 71.4463 265.68 69.1047 265.68L69.1223 265.663ZM55.6183 257.577C62.7665 261.473 69.0871 262.546 74.4394 260.763C81.6931 258.339 84.8094 251.326 84.8446 251.257C84.9327 251.066 88.5243 243.881 84.7566 240.816C83.7883 240.037 83.084 240.054 82.6263 240.123C81.1473 240.383 79.6508 241.941 78.7353 243.119C78.2951 243.863 77.9078 244.331 77.8022 244.452C77.1155 245.266 75.9183 245.422 75.038 244.816C74.1577 244.21 73.8936 243.05 74.4394 242.132C74.5274 241.976 74.8267 241.491 75.2845 240.868C75.7246 240.054 76.1648 238.946 76.0239 237.924C75.9007 237.059 75.3901 236.297 74.4218 235.604C73.4534 234.912 72.7492 234.964 72.309 235.067C70.478 235.5 68.735 238.011 68.1364 239.05C68.0835 239.154 68.0483 239.223 68.0131 239.275C67.4673 240.245 66.2349 240.591 65.2489 240.071C64.263 239.552 63.8757 238.34 64.3862 237.353C64.4038 237.301 64.4567 237.232 64.5095 237.128C64.9848 236.21 65.8828 233.942 65.3898 232.28C65.1785 231.552 64.7032 231.033 63.9285 230.617C61.0058 229.076 56.6219 233.492 55.3014 235.154C51.2696 240.123 49.5794 244.798 50.2485 249.058C51.0759 254.218 55.0902 257.179 55.6007 257.525L55.6183 257.577Z" fill="black"/>
<path d="M337.952 120.304C337.952 120.304 329.713 41.2788 248.319 10.8738C166.926 -19.5312 128.738 29.4701 128.738 29.4701C128.738 29.4701 108.315 52.1353 110.287 87.9079C112.364 125.758 132.418 155.263 132.418 155.263L147.365 176.041L146.432 181.443L142.788 181.322C142.893 181.339 143.017 181.391 143.105 181.408L128.192 236.695C128.192 236.695 139.161 238.548 152.418 272.052C165.658 305.539 197.455 315.218 197.455 315.218C197.455 315.218 247.861 327.529 298.937 291.445C298.937 291.445 284.87 285.073 272.757 253.439C263.003 227.951 256.119 202.446 253.812 193.477C253.812 193.477 253.83 193.477 253.848 193.477C254.041 193.529 251.682 183.175 250.291 177.08C257.422 173.513 319.994 141.809 337.952 120.321V120.304Z" fill="black"/>
<path d="M218.793 318.162C205.676 318.162 197.419 316.222 197.208 316.188C196.838 316.067 164.742 305.955 151.467 272.398C138.72 240.158 128.121 237.699 128.016 237.665L126.942 237.457L127.206 236.418L141.854 182.118L142.576 180.924L145.569 180.404L146.273 176.283L131.572 155.852C131.361 155.54 111.307 125.672 109.247 87.9598C107.293 52.1872 127.751 29.0371 127.963 28.7947C128.297 28.3619 167.506 -20.397 248.688 9.92147C329.73 40.1879 338.903 119.404 338.991 120.2L339.026 120.616L338.762 120.945C321.156 142 261.294 172.647 251.47 177.599C253.988 188.525 254.78 192.022 254.851 193.304C257.351 202.983 264.129 227.951 273.742 253.058C285.521 283.809 299.253 290.423 299.394 290.492L300.979 291.22L299.553 292.224C269.024 313.798 238.459 318.144 218.793 318.144V318.162ZM129.442 236.02C132.593 237.353 142.259 243.552 153.386 271.654C166.291 304.275 197.454 314.127 197.771 314.231C198.211 314.335 247.403 325.78 297.053 291.497C293.074 288.951 281.806 279.861 271.805 253.767C262.122 228.47 255.308 203.329 252.826 193.702L252.439 192.196L252.615 192.23C252.28 190.533 251.417 186.568 249.287 177.287L249.111 176.526L249.833 176.162C256.858 172.647 318.691 141.324 336.896 119.992C336.068 113.776 324.782 40.4996 247.967 11.8261C168.21 -17.9556 129.935 29.6085 129.565 30.0934C129.318 30.3704 109.406 52.949 111.325 87.8559C113.35 124.979 133.086 154.414 133.297 154.709L148.474 175.798L147.33 182.482L143.949 182.361L129.477 236.02H129.442Z" fill="black"/>
<path d="M61.0085 247.725C60.6035 247.725 60.1986 247.603 59.8288 247.361C58.8957 246.72 58.6668 245.456 59.3183 244.539L64.5297 237.163C65.1811 236.245 66.4664 236.02 67.3995 236.66C68.3326 237.301 68.5615 238.565 67.9101 239.483L62.6987 246.859C62.2937 247.43 61.6599 247.725 61.0085 247.725Z" fill="black"/>
<path d="M70.4245 252.555C70.002 252.555 69.5795 252.434 69.2097 252.175C68.2942 251.517 68.0829 250.253 68.752 249.335L75.3895 240.4C76.0585 239.5 77.3438 239.292 78.2769 239.95C79.21 240.608 79.4037 241.872 78.7347 242.79L72.0971 251.724C71.6922 252.261 71.0584 252.555 70.4245 252.555Z" fill="black"/>
<path d="M138.351 157.912C138.351 157.912 109.142 136.251 111.008 78.0211C111.008 78.0211 117.487 51.0271 175.359 48.7589C233.231 46.5079 250.52 78.5232 250.52 78.5232C250.52 78.5232 272.792 114.902 246.224 144.978C218.846 175.954 163.686 174.361 138.368 157.895L138.351 157.912Z" fill="#EBABAB"/>
<path d="M184.321 171.452C165.835 171.452 148.352 166.847 137.207 159.609C137.172 159.592 137.137 159.557 137.101 159.54C135.869 158.622 107.065 136.58 108.931 77.9692C108.931 77.8307 108.949 77.6922 108.984 77.571C109.266 76.4109 116.502 49.0533 175.254 46.7504C233.724 44.4648 251.594 76.2377 252.316 77.5883C252.492 77.8653 274.993 115.491 247.756 146.329C231.84 164.336 207.28 171.452 184.304 171.452H184.321ZM139.549 156.267C163.37 171.695 217.368 174.535 244.658 143.662C269.958 115.023 248.971 79.9258 248.742 79.5795C248.513 79.1812 231.136 48.6377 175.43 50.7848C122.453 52.8453 113.755 76.1338 113.051 78.3328C111.361 133.671 138.316 155.315 139.549 156.267Z" fill="black"/>
<mask id="mask0_37_1953" style="mask-type:luminance" maskUnits="userSpaceOnUse" x="114" y="50" width="144" height="118">
<path d="M141.112 155.886C141.112 155.886 113.03 135.074 114.826 79.0773C114.826 79.0773 121.059 53.1222 176.694 50.9579C232.33 48.7935 248.95 79.5794 248.95 79.5794C248.95 79.5794 270.359 114.556 244.813 143.471C218.491 173.253 165.462 171.729 141.112 155.886Z" fill="white"/>
</mask>
<g mask="url(#mask0_37_1953)">
<path opacity="0.25" d="M244.83 142.502C254.726 134.705 257.386 121.802 250.771 113.683C244.156 105.563 230.772 105.301 220.876 113.097C210.981 120.894 208.321 133.797 214.936 141.917C221.55 150.037 234.935 150.299 244.83 142.502Z" fill="url(#paint0_radial_37_1953)"/>
<path opacity="0.25" d="M140.588 146.752C147.309 138.717 144.819 125.782 135.026 117.86C125.234 109.938 111.848 110.03 105.127 118.065C98.4061 126.1 100.896 139.036 110.689 146.958C120.481 154.88 133.867 154.788 140.588 146.752Z" fill="url(#paint1_radial_37_1953)"/>
</g>
<path d="M171.062 138.71C168.826 138.71 164.653 138.346 161.784 135.939C159.917 134.364 158.879 132.251 158.738 129.637C158.597 127.247 159.389 125.135 161.009 123.525C164.988 119.577 172.717 119.802 173.562 119.837C174.706 119.888 175.569 120.841 175.516 121.949C175.464 123.074 174.478 123.906 173.368 123.888C171.52 123.802 166.203 124.096 163.914 126.382C163.104 127.178 162.769 128.148 162.84 129.412C162.928 130.901 163.456 132.026 164.442 132.857C167.101 135.074 172.118 134.623 172.171 134.606C173.316 134.502 174.319 135.299 174.442 136.407C174.566 137.515 173.738 138.519 172.611 138.641C172.541 138.641 171.942 138.71 171.044 138.71H171.062Z" fill="black"/>
<path d="M214.077 80.4106C213.743 80.4106 213.39 80.324 213.074 80.1508C212.95 80.0816 200.644 73.5019 188.196 77.6748C187.122 78.0384 185.942 77.467 185.573 76.4108C185.203 75.3546 185.784 74.1945 186.858 73.8309C201.066 69.052 214.517 76.2896 215.081 76.6013C216.067 77.138 216.436 78.3847 215.873 79.3543C215.503 80.0123 214.799 80.3932 214.077 80.3932V80.4106Z" fill="black"/>
<path d="M124.176 86.2283C123.666 86.2283 123.137 86.0379 122.75 85.657C121.94 84.8778 121.905 83.5965 122.697 82.8C123.102 82.3844 132.891 72.5669 148.314 75.4065C149.441 75.6143 150.163 76.6705 149.969 77.7787C149.776 78.8868 148.684 79.5967 147.557 79.4063C134.37 76.9822 126.007 85.276 125.673 85.6223C125.268 86.0379 124.722 86.2457 124.194 86.2457L124.176 86.2283Z" fill="black"/>
<path d="M171.786 150.016C158.124 150.016 149.321 145.549 148.704 145.237C147.701 144.718 147.314 143.489 147.842 142.502C148.37 141.515 149.62 141.134 150.624 141.653C150.852 141.775 173.811 153.289 203.072 137.688C204.076 137.151 205.326 137.515 205.872 138.502C206.418 139.489 206.048 140.718 205.044 141.255C192.438 147.973 180.994 149.999 171.786 149.999V150.016Z" fill="black"/>
<path d="M159.054 111.936C159.561 104.484 151.384 97.8778 140.789 97.1803C130.195 96.4828 121.195 101.958 120.688 109.41C120.181 116.862 128.358 123.468 138.952 124.166C149.547 124.863 158.547 119.388 159.054 111.936Z" fill="white"/>
<path d="M203.291 121.159C213.769 119.471 221.269 112.128 220.042 104.758C218.815 97.3877 209.325 92.7809 198.846 94.4685C188.368 96.156 180.868 103.499 182.095 110.869C183.323 118.24 192.812 122.846 203.291 121.159Z" fill="white"/>
<path d="M208.196 94.349C203.548 96.6346 200.45 101.742 200.731 107.543C201.031 113.603 204.939 118.573 210.133 120.217C217.704 117.135 221.735 111.162 220.732 105.067C219.834 99.5608 215.098 95.4745 208.196 94.3663V94.349Z" fill="#005CA3"/>
<path d="M146.362 97.76C142.313 100.288 139.69 105.119 139.954 110.538C140.288 117.326 145.024 122.763 151.01 123.802C156.468 121.672 159.902 117.534 160.218 112.547C160.641 105.829 155.306 99.8205 146.38 97.7773L146.362 97.76Z" fill="#005CA3"/>
<path d="M198.528 124.148C188.792 124.148 181.362 119.369 180.095 111.768C179.373 107.474 180.869 103.214 184.267 99.7512C187.665 96.3228 192.595 93.9853 198.546 93.033C210.712 91.0764 220.624 96.0977 222.103 104.998C222.825 109.292 221.328 113.551 217.93 117.014C214.532 120.443 209.603 122.78 203.652 123.732C201.891 124.009 200.166 124.148 198.528 124.148ZM203.687 96.6691C202.261 96.6691 200.764 96.7903 199.215 97.0327C194.215 97.8292 189.972 99.8031 187.243 102.574C184.76 105.084 183.669 108.114 184.179 111.11C185.271 117.689 193.194 121.308 203 119.733C208 118.936 212.243 116.962 214.972 114.192C217.455 111.681 218.546 108.651 218.036 105.656C217.12 100.115 211.346 96.6691 203.669 96.6691H203.687Z" fill="black"/>
<path d="M141.058 126.849C140.337 126.849 139.597 126.832 138.84 126.78C132.836 126.382 127.695 124.529 123.98 121.43C120.248 118.313 118.364 114.209 118.663 109.863C118.963 105.517 121.392 101.708 125.512 99.0933C129.614 96.5133 134.949 95.3359 140.953 95.7342C153.26 96.548 161.746 103.664 161.129 112.651C160.548 121.101 152.256 126.849 141.058 126.849ZM138.752 99.7166C134.474 99.7166 130.618 100.686 127.731 102.504C124.737 104.392 122.977 107.11 122.766 110.123C122.554 113.153 123.945 116.062 126.639 118.33C129.632 120.823 134.051 122.382 139.104 122.728C148.999 123.369 156.552 119.023 157.01 112.391C157.467 105.742 150.583 100.444 140.671 99.7859C140.02 99.7512 139.368 99.7166 138.734 99.7166H138.752Z" fill="black"/>
<path d="M146.644 125.273C146.187 125.273 145.746 125.135 145.359 124.841C145.077 124.615 138.545 119.404 138 110.937C137.454 102.314 142.877 98.0371 143.105 97.8466C144.003 97.154 145.289 97.3098 145.993 98.1929C146.697 99.076 146.539 100.34 145.658 101.033C145.465 101.188 141.715 104.288 142.119 110.677C142.542 117.309 147.894 121.637 147.947 121.672C148.827 122.382 148.968 123.646 148.264 124.512C147.859 125.014 147.261 125.273 146.662 125.273H146.644Z" fill="black"/>
<path d="M207.544 122.416C207.086 122.416 206.628 122.261 206.241 121.966C205.959 121.741 199.427 116.408 198.882 107.785C198.336 98.9894 203.723 94.6434 203.97 94.4529C204.85 93.7603 206.153 93.8988 206.857 94.7646C207.561 95.6303 207.421 96.8943 206.54 97.6042C206.347 97.7601 202.579 100.946 202.984 107.526C203.406 114.348 208.776 118.78 208.829 118.832C209.709 119.542 209.833 120.824 209.111 121.689C208.706 122.174 208.107 122.434 207.509 122.434L207.544 122.416Z" fill="black"/>
</g>
<defs>
<radialGradient id="paint0_radial_37_1953" cx="0" cy="0" r="1" gradientUnits="userSpaceOnUse" gradientTransform="translate(231.482 128.88) rotate(-38.2344) scale(22.8387 18.9606)">
<stop stop-color="#D9315C" stop-opacity="0.8"/>
<stop offset="0.14" stop-color="#D9315D" stop-opacity="0.78"/>
<stop offset="0.26" stop-color="#D93160" stop-opacity="0.73"/>
<stop offset="0.38" stop-color="#D93166" stop-opacity="0.65"/>
<stop offset="0.49" stop-color="#D9316F" stop-opacity="0.54"/>
<stop offset="0.54" stop-color="#D93174" stop-opacity="0.47"/>
<stop offset="0.58" stop-color="#D9366F" stop-opacity="0.42"/>
<stop offset="0.77" stop-color="#DB4F5A" stop-opacity="0.19"/>
<stop offset="0.91" stop-color="#DD5E4D" stop-opacity="0.05"/>
<stop offset="1" stop-color="#DE6449" stop-opacity="0"/>
</radialGradient>
<radialGradient id="paint1_radial_37_1953" cx="0" cy="0" r="1" gradientUnits="userSpaceOnUse" gradientTransform="translate(121.772 131.553) rotate(-141.028) scale(22.8339 18.9646)">
<stop stop-color="#D9315C" stop-opacity="0.8"/>
<stop offset="0.14" stop-color="#D9315D" stop-opacity="0.78"/>
<stop offset="0.26" stop-color="#D93160" stop-opacity="0.73"/>
<stop offset="0.38" stop-color="#D93166" stop-opacity="0.65"/>
<stop offset="0.49" stop-color="#D9316F" stop-opacity="0.54"/>
<stop offset="0.54" stop-color="#D93174" stop-opacity="0.47"/>
<stop offset="0.58" stop-color="#D9366F" stop-opacity="0.42"/>
<stop offset="0.77" stop-color="#DB4F5A" stop-opacity="0.19"/>
<stop offset="0.91" stop-color="#DD5E4D" stop-opacity="0.05"/>
<stop offset="1" stop-color="#DE6449" stop-opacity="0"/>
</radialGradient>
<clipPath id="clip0_37_1953">
<rect width="436" height="410" fill="white"/>
</clipPath>
</defs>
</svg>
