<svg width="230" height="246" viewBox="0 0 230 246" fill="none" xmlns="http://www.w3.org/2000/svg">
<ellipse cx="103.5" cy="227" rx="82.5" ry="19" fill="#D9D9D9" fill-opacity="0.5"/>
<g clip-path="url(#clip0_37_2713)">
<path d="M91.138 197.011L91.989 214.476C91.989 214.476 82.6122 212.13 82.0341 218.974C81.4561 225.819 89.3558 227.393 89.3558 227.393C89.3558 227.393 102.634 230.093 104.063 222.493C105.492 214.894 105.187 198.522 105.187 198.522L91.138 197.011Z" fill="#528A51"/>
<path d="M94.3992 229C91.6054 229 89.3094 228.55 89.1327 228.518C86.066 227.907 80.3821 225.096 80.8959 218.878C81.0564 216.902 81.8753 215.376 83.3043 214.347C85.5843 212.725 88.8758 212.837 90.7705 213.094L89.9837 197.076C89.9837 196.738 90.0961 196.417 90.337 196.176C90.5778 195.951 90.8989 195.823 91.2522 195.871L105.301 197.381C105.879 197.445 106.313 197.927 106.329 198.506C106.329 199.18 106.634 215.086 105.189 222.718C104.836 224.582 103.856 226.076 102.267 227.136C100.051 228.63 96.9842 229.016 94.3831 229.016L94.3992 229ZM88.5868 215.231C87.1899 215.231 85.6806 215.456 84.637 216.211C83.77 216.838 83.2883 217.769 83.1759 219.055C82.6942 224.807 89.2933 226.188 89.5663 226.253C89.6465 226.253 97.193 227.763 100.982 225.208C102.042 224.485 102.684 223.521 102.925 222.268C104.113 215.954 104.081 203.229 104.033 199.55L92.3279 198.297L93.1147 214.412C93.1307 214.781 92.9702 215.135 92.6972 215.359C92.4243 215.584 92.0389 215.681 91.6857 215.584C91.0595 215.424 89.8713 215.231 88.5708 215.231H88.5868Z" fill="black"/>
<path d="M121.165 197.011L122.016 214.476C122.016 214.476 112.64 212.13 112.061 218.974C111.483 225.819 119.383 227.393 119.383 227.393C119.383 227.393 132.662 230.093 134.091 222.493C135.52 214.894 135.215 198.522 135.215 198.522L121.165 197.011Z" fill="#528A51"/>
<path d="M124.423 229C121.629 229 119.333 228.55 119.156 228.518C116.089 227.907 110.406 225.096 110.919 218.878C111.08 216.902 111.899 215.376 113.328 214.347C115.608 212.725 118.883 212.837 120.794 213.094L120.007 197.076C120.007 196.738 120.12 196.417 120.36 196.176C120.601 195.951 120.938 195.823 121.276 195.871L135.325 197.381C135.903 197.445 136.336 197.927 136.352 198.506C136.352 199.18 136.657 215.086 135.212 222.718C134.859 224.582 133.88 226.076 132.29 227.136C130.074 228.63 127.024 229.016 124.407 229.016L124.423 229ZM118.61 215.231C117.213 215.231 115.704 215.456 114.66 216.211C113.793 216.838 113.312 217.769 113.199 219.055C112.718 224.807 119.317 226.188 119.59 226.253C119.67 226.253 127.216 227.747 131.006 225.208C132.081 224.485 132.708 223.521 132.948 222.268C134.137 215.954 134.105 203.229 134.056 199.55L122.351 198.297L123.138 214.412C123.154 214.781 122.994 215.135 122.721 215.359C122.448 215.584 122.062 215.681 121.709 215.584C121.083 215.424 119.895 215.231 118.594 215.231H118.61Z" fill="black"/>
<path d="M137.749 132.665L154.271 184.946C154.271 184.946 152.922 201.864 119.124 202.442H110.1C76.3018 201.864 74.9531 184.946 74.9531 184.946L91.475 132.665H137.765H137.749Z" fill="black"/>
<path d="M110.084 203.583C75.6117 202.988 73.8455 185.765 73.7813 185.026C73.7813 184.881 73.7812 184.721 73.8294 184.592L90.3513 132.311C90.4958 131.829 90.9454 131.508 91.4431 131.508H137.733C138.231 131.508 138.681 131.829 138.825 132.311L155.347 184.592C155.395 184.737 155.411 184.881 155.395 185.026C155.331 185.765 153.565 202.988 119.108 203.583H110.068H110.084ZM76.1094 185.042C76.4305 186.841 79.8505 200.771 110.1 201.285H119.108C136.031 200.996 144.381 196.497 148.411 192.786C152.152 189.332 152.939 185.909 153.067 185.058L136.882 133.838H92.278L76.0933 185.058L76.1094 185.042Z" fill="black"/>
<path d="M123.075 6.1568L111.274 8.37398C111.274 8.37398 111.001 37.9204 99.0391 47.5925C99.0391 47.5925 115.176 57.1681 131.585 47.5925C131.585 47.5925 120.057 43.6883 123.156 6.51026" fill="#528A51"/>
<path d="M115.93 52.9747C106.007 52.9747 98.5729 48.6528 98.4606 48.5886C98.1394 48.3958 97.9307 48.0584 97.8986 47.6728C97.8665 47.3032 98.027 46.9337 98.316 46.6927C109.732 37.4705 110.117 8.64708 110.117 8.35789C110.117 7.81162 110.519 7.32963 111.065 7.23323L122.866 5.01604C123.492 4.90357 124.086 5.30524 124.215 5.93183C124.215 5.96397 124.215 6.01217 124.215 6.0443C124.279 6.20497 124.327 6.39777 124.311 6.59056C121.357 42.0334 131.874 46.4517 131.97 46.4999C132.387 46.6606 132.676 47.0462 132.725 47.48C132.757 47.9298 132.548 48.3476 132.163 48.5725C126.543 51.8661 120.923 52.9587 115.93 52.9587V52.9747ZM101.062 47.3354C105.092 49.2312 117.054 53.6977 129.353 47.5121C126.045 44.6844 119.783 35.5264 121.935 7.55456L112.429 9.33795C112.285 14.3989 111.049 37.5026 101.078 47.3354H101.062Z" fill="black"/>
<path d="M109.799 49.6168C109.799 49.6168 79.3399 41.0052 59.5586 57.3288C39.7773 73.6524 43.2455 101.946 43.2455 101.946C43.2455 101.946 46.5852 133.195 82.4388 139.622C118.292 146.048 148.221 138.079 148.221 138.079C148.221 138.079 181.12 129.082 184.332 101.56C187.543 74.038 174.826 61.4418 174.826 61.4418C174.826 61.4418 158.642 42.9332 131.523 47.8174C131.523 47.8174 121.247 51.6734 109.815 49.6168H109.799Z" fill="#F37448"/>
<path d="M111.162 143.253C102.363 143.253 92.5206 142.594 82.2285 140.746C63.2982 137.356 53.3915 127.026 48.4141 118.976C43.0192 110.236 42.1361 102.396 42.104 102.074C42.0719 101.801 38.7964 72.9937 58.8346 56.4451C78.6159 40.1215 108.159 47.962 110.07 48.4922C121.02 50.4362 131.023 46.7731 131.12 46.7409C131.184 46.7249 131.248 46.6927 131.312 46.6927C158.753 41.7442 175.515 60.51 175.692 60.7028C176.174 61.1687 188.714 73.9577 185.47 101.705C184.121 113.305 177.281 123.475 165.705 131.106C157.035 136.826 148.862 139.108 148.525 139.188C148.3 139.252 132.886 143.253 111.162 143.253ZM91.3164 48.4922C82.373 48.4922 69.9776 50.2274 60.2957 58.2125C41.2209 73.9577 44.3519 101.528 44.384 101.801C44.5285 103.054 48.093 132.279 82.6299 138.481C117.809 144.795 147.626 137.035 147.915 136.955C148.22 136.874 180.091 127.829 183.174 101.415C184.796 87.5179 182.211 77.6209 179.754 71.7566C177.105 65.4103 174.022 62.2934 173.99 62.2612C173.781 62.0202 157.869 44.2988 131.81 48.926C130.638 49.3437 120.715 52.7498 109.588 50.7415C109.556 50.7415 109.508 50.7415 109.476 50.7094C109.396 50.6933 101.849 48.5886 92.0228 48.4922C91.782 48.4922 91.5412 48.4922 91.3003 48.4922H91.3164Z" fill="black"/>
<path d="M90.7056 95.4869C98.1455 95.4869 104.177 89.2575 104.177 81.5732C104.177 73.889 98.1455 67.6596 90.7056 67.6596C83.2656 67.6596 77.2344 73.889 77.2344 81.5732C77.2344 89.2575 83.2656 95.4869 90.7056 95.4869Z" fill="white"/>
<path d="M90.7054 96.6276C82.6451 96.6276 76.0781 89.8636 76.0781 81.5572C76.0781 73.2508 82.6451 66.4868 90.7054 66.4868C98.7656 66.4868 105.333 73.2508 105.333 81.5572C105.333 89.8636 98.7656 96.6276 90.7054 96.6276ZM90.7054 68.8003C83.9136 68.8003 78.3902 74.52 78.3902 81.5572C78.3902 88.5943 83.9136 94.314 90.7054 94.314C97.4971 94.314 103.02 88.5943 103.02 81.5572C103.02 74.52 97.4971 68.8003 90.7054 68.8003Z" fill="black"/>
<path d="M90.5762 88.0641C94.07 88.0641 96.9023 85.1077 96.9023 81.4608C96.9023 77.8138 94.07 74.8574 90.5762 74.8574C87.0823 74.8574 84.25 77.8138 84.25 81.4608C84.25 85.1077 87.0823 88.0641 90.5762 88.0641Z" fill="black"/>
<path d="M135.776 95.4869C143.216 95.4869 149.247 89.2575 149.247 81.5732C149.247 73.889 143.216 67.6596 135.776 67.6596C128.336 67.6596 122.305 73.889 122.305 81.5732C122.305 89.2575 128.336 95.4869 135.776 95.4869Z" fill="white"/>
<path d="M135.776 96.6276C127.715 96.6276 121.148 89.8636 121.148 81.5572C121.148 73.2508 127.715 66.4868 135.776 66.4868C143.836 66.4868 150.403 73.2508 150.403 81.5572C150.403 89.8636 143.836 96.6276 135.776 96.6276ZM135.776 68.8003C128.984 68.8003 123.461 74.52 123.461 81.5572C123.461 88.5943 128.984 94.314 135.776 94.314C142.567 94.314 148.091 88.5943 148.091 81.5572C148.091 74.52 142.567 68.8003 135.776 68.8003Z" fill="black"/>
<path d="M135.646 88.0641C139.14 88.0641 141.973 85.1077 141.973 81.4608C141.973 77.8138 139.14 74.8574 135.646 74.8574C132.153 74.8574 129.32 77.8138 129.32 81.4608C129.32 85.1077 132.153 88.0641 135.646 88.0641Z" fill="black"/>
<path d="M113.811 89.0442C113.811 89.0442 111.627 89.0442 108.817 93.334C106.007 97.6237 103.197 102.267 103.197 102.267C103.197 102.267 102.218 103.6 102.7 104.805C103.181 106.01 107.051 106.846 111.916 106.91H115.93C120.779 106.846 124.649 105.994 125.146 104.805C125.644 103.617 124.649 102.267 124.649 102.267C124.649 102.267 121.839 97.6237 119.029 93.334C116.219 89.0442 114.035 89.0442 114.035 89.0442" fill="black"/>
<path d="M111.915 108.067C109.154 108.019 102.635 107.665 101.639 105.239C100.917 103.488 102.121 101.769 102.265 101.576C102.265 101.576 105.075 96.9329 107.853 92.6913C110.856 88.1123 113.344 87.8874 113.81 87.8874C113.842 87.8874 113.874 87.8874 113.922 87.8874C113.954 87.8874 113.987 87.8874 114.035 87.8874C114.5 87.8874 116.989 88.1123 119.992 92.7074C122.785 96.965 125.611 101.624 125.643 101.672C125.724 101.785 126.928 103.504 126.221 105.239C125.226 107.665 118.707 108.019 115.961 108.067H111.931H111.915ZM113.858 90.201C113.746 90.201 112.06 90.5062 109.78 93.9766C107.018 98.2021 104.208 102.829 104.176 102.877C103.935 103.231 103.582 103.938 103.759 104.372C104.064 104.741 106.585 105.689 111.915 105.769H115.913C121.228 105.689 123.749 104.741 124.086 104.323C124.246 103.922 123.861 103.183 123.701 102.974C123.62 102.845 120.81 98.2182 118.033 93.9927C115.688 90.4259 113.97 90.217 113.954 90.217H113.922C113.906 90.217 113.874 90.217 113.858 90.217V90.201Z" fill="black"/>
<path d="M109.924 45.6966C109.764 45.6966 109.603 45.6645 109.459 45.6002C108.881 45.3431 108.624 44.6523 108.881 44.0739C110.615 40.2179 112.622 24.1353 112.654 23.9746C112.734 23.348 113.312 22.8821 113.939 22.9785C114.565 23.0588 115.014 23.6372 114.934 24.2638C114.854 24.9386 112.863 40.8445 110.984 45.0218C110.792 45.4556 110.374 45.6966 109.924 45.6966Z" fill="black"/>
<path d="M121.615 45.6966C121.213 45.6966 120.812 45.4717 120.603 45.0861C117.36 39.1254 116.444 17.9336 116.396 17.0339C116.364 16.3912 116.862 15.861 117.504 15.8289C118.13 15.7807 118.676 16.2948 118.708 16.9375C118.708 17.1463 119.656 38.4988 122.626 43.9936C122.931 44.5559 122.722 45.2468 122.16 45.552C121.984 45.6484 121.791 45.6966 121.615 45.6966Z" fill="black"/>
<path d="M113.139 118.157C93.839 118.157 81.2991 109.111 81.1064 108.983C80.3357 108.42 80.1751 107.328 80.7371 106.557C81.2991 105.786 82.3909 105.625 83.1455 106.187C83.4024 106.38 109.831 125.29 144.818 106.059C145.652 105.593 146.712 105.898 147.162 106.733C147.627 107.569 147.322 108.629 146.487 109.079C134.14 115.859 122.788 118.125 113.123 118.125L113.139 118.157Z" fill="black"/>
<path d="M59.124 127.427C63.716 116.389 64.6634 112.276 62.9935 108.372C61.3237 104.468 54.6443 102.122 57.7431 98.7645C60.6332 95.6315 62.7848 95.3101 70.0262 102.669C76.5771 109.352 74.7949 123.732 73.7191 128.054L59.124 127.443V127.427Z" fill="#6B8550"/>
<path d="M73.718 129.211C73.718 129.211 73.6859 129.211 73.6698 129.211L59.0747 128.6C58.7054 128.6 58.3522 128.391 58.1434 128.07C57.9347 127.749 57.9026 127.363 58.0471 127.009C62.6071 116.036 63.4099 112.309 61.9327 108.838C61.3868 107.569 60.1505 106.412 58.9302 105.304C56.9392 103.456 54.1936 100.917 56.8911 98.0093C58.0632 96.7401 59.3958 95.5672 61.2744 95.5351C63.6026 95.503 66.3161 97.2864 70.8439 101.881C77.7321 108.902 75.9819 123.716 74.8419 128.343C74.7135 128.857 74.2479 129.211 73.718 129.211ZM60.8088 126.351L72.8028 126.865C74.0231 121.001 74.585 108.983 69.1901 103.488C65.3527 99.5678 62.9282 97.8326 61.3386 97.8326H61.3065C60.4877 97.8326 59.733 98.3307 58.593 99.5678C57.6457 100.596 57.9347 101.239 60.5037 103.617C61.8203 104.838 63.3296 106.219 64.0521 107.938C65.8665 112.18 64.8068 116.598 60.8088 126.367V126.351Z" fill="black"/>
<path d="M115.916 130.785C106.619 122.27 98.2697 125.451 91.8633 128.054L68.5015 127.652L45.0915 128.054C38.685 125.451 30.3358 122.27 21.0392 130.785C11.7427 139.3 4.82242 166.035 15.0824 185.347C25.3262 204.659 41.4306 212.532 59.1246 208.242C59.1246 208.242 62.5285 211.343 68.4854 211.343C74.4423 211.343 77.8462 208.242 77.8462 208.242C95.5402 212.532 111.645 204.659 121.888 185.347C132.132 166.035 125.228 139.3 115.932 130.785H115.916Z" fill="#EE6C2F"/>
<path d="M68.483 212.484C63.4092 212.484 60.0535 210.379 58.8493 209.479C40.5612 213.656 24.2641 205.093 14.0684 185.877C3.64791 166.244 10.536 138.834 20.2661 129.934C30.1407 120.904 39.2285 124.439 45.3139 126.897L68.4991 126.495L91.6682 126.897C97.7535 124.423 106.841 120.904 116.716 129.934C126.446 138.834 133.334 166.26 122.914 185.877C112.718 205.093 96.4209 213.672 78.1328 209.479C76.9286 210.379 73.5728 212.484 68.4991 212.484H68.483ZM59.1222 207.069C59.4112 207.069 59.6842 207.182 59.8929 207.374C59.925 207.407 63.0721 210.17 68.467 210.17C73.8618 210.17 77.0249 207.39 77.057 207.374C77.3461 207.117 77.7314 207.021 78.1007 207.101C95.5057 211.327 111.096 203.197 120.858 184.785C130.797 166.067 124.343 140.039 115.142 131.621C106.231 123.459 98.171 126.72 92.2944 129.114C92.1499 129.178 91.9733 129.195 91.8448 129.195L68.483 128.793L45.1051 129.195C44.9767 129.195 44.8001 129.162 44.6556 129.114C38.779 126.736 30.7348 123.459 21.8075 131.621C12.6073 140.039 6.15268 166.067 16.0915 184.785C25.8537 203.181 41.4443 211.311 58.8493 207.101C58.9456 207.085 59.0259 207.069 59.1222 207.069Z" fill="black"/>
<path d="M35.9883 129.419C38.5252 125.531 43.8077 122.463 50.2141 122.463C57.0541 122.463 62.8825 125.612 65.0982 130.014" fill="#EE6C2F"/>
<path d="M65.0821 131.171C64.6647 131.171 64.2472 130.93 64.0545 130.528C61.9833 126.399 56.4118 123.619 50.198 123.619C44.6907 123.619 39.4885 126.142 36.9355 130.046C36.5823 130.576 35.8758 130.737 35.346 130.383C34.8161 130.03 34.6556 129.323 35.0088 128.793C37.9792 124.246 43.9361 121.322 50.198 121.322C57.2627 121.322 63.6531 124.616 66.1097 129.5C66.3987 130.062 66.174 130.769 65.5959 131.042C65.4354 131.122 65.2588 131.171 65.0821 131.171Z" fill="black"/>
<path d="M100.966 129.419C98.4293 125.531 93.1468 122.463 86.7404 122.463C80.2857 122.463 74.7463 125.258 72.2737 129.259" fill="#EE6C2F"/>
<path d="M100.981 130.576C100.611 130.576 100.242 130.4 100.017 130.046C97.4644 126.142 92.2622 123.619 86.7549 123.619C80.8943 123.619 75.6118 126.078 73.2676 129.869C72.9304 130.416 72.224 130.576 71.6781 130.239C71.1321 129.901 70.9716 129.195 71.3088 128.648C74.0544 124.182 80.1236 121.306 86.7549 121.306C93.0168 121.306 98.9737 124.246 101.944 128.777C102.297 129.307 102.137 130.03 101.607 130.367C101.414 130.496 101.189 130.56 100.981 130.56V130.576Z" fill="black"/>
<path d="M52.6523 132.488C52.6523 126.158 59.7331 121.033 68.4838 121.033C77.2344 121.033 84.3153 126.158 84.3153 132.488" fill="#EE6C2F"/>
<path d="M84.2994 133.645C83.6572 133.645 83.1434 133.131 83.1434 132.488C83.1434 126.817 76.5603 122.189 68.468 122.189C60.3756 122.189 53.7926 126.817 53.7926 132.488C53.7926 133.131 53.2788 133.645 52.6365 133.645C51.9943 133.645 51.4805 133.131 51.4805 132.488C51.4805 125.531 59.0911 119.892 68.4519 119.892C77.8127 119.892 85.4234 125.547 85.4234 132.488C85.4234 133.131 84.9096 133.645 84.2673 133.645H84.2994Z" fill="black"/>
<path d="M46.9048 140.618L34.7502 162.131H59.1236L46.9048 140.618Z" fill="#FFE633"/>
<path d="M59.1231 163.288H34.7497C34.3322 163.288 33.9629 163.063 33.7542 162.709C33.5455 162.356 33.5455 161.922 33.7542 161.569L45.9088 140.056C46.1175 139.686 46.5029 139.477 46.9043 139.477C47.3217 139.477 47.7071 139.702 47.8998 140.056L60.1186 161.569C60.3273 161.922 60.3112 162.356 60.1186 162.725C59.9259 163.095 59.5405 163.304 59.1231 163.304V163.288ZM36.7246 160.974H57.1481L46.9203 142.964L36.7407 160.974H36.7246Z" fill="black"/>
<path d="M89.3113 140.618L77.1406 162.131H101.53L89.3113 140.618Z" fill="#FFE633"/>
<path d="M101.529 163.288H77.1559C76.7385 163.288 76.3692 163.063 76.1605 162.709C75.9517 162.356 75.9517 161.922 76.1605 161.569L88.315 140.056C88.5238 139.686 88.9091 139.477 89.3105 139.477C89.728 139.477 90.1133 139.702 90.306 140.056L102.525 161.569C102.734 161.922 102.717 162.356 102.525 162.725C102.332 163.095 101.947 163.304 101.529 163.304V163.288ZM79.1309 160.974H99.5544L89.3266 142.964L79.1469 160.974H79.1309Z" fill="black"/>
<path d="M68.4664 165.698L62.3008 176.607H74.6641L68.4664 165.698Z" fill="#FFE633"/>
<path d="M74.6677 177.764H62.3044C61.8869 177.764 61.5176 177.539 61.3089 177.185C61.1002 176.832 61.1002 176.398 61.3089 176.045L67.4745 165.135C67.6832 164.766 68.0686 164.557 68.47 164.557C68.8874 164.557 69.2728 164.782 69.4655 165.135L75.6632 176.045C75.8719 176.398 75.8558 176.832 75.6632 177.201C75.4705 177.571 75.0851 177.78 74.6677 177.78V177.764ZM64.2793 175.45H72.6928L68.486 168.027L64.2953 175.45H64.2793Z" fill="black"/>
<path d="M84.3016 181.684V188.56H75.6955V184.255C73.1586 184.721 70.5253 184.978 67.8118 184.978C65.9333 184.978 64.0868 184.849 62.2885 184.624V188.56H53.6824V182.6C47.6773 180.479 42.6035 177.041 39.0391 172.767C39.296 187.404 52.0767 199.197 67.8118 199.197C83.547 199.197 96.3277 187.404 96.5846 172.767C93.5018 176.478 89.263 179.547 84.3016 181.684Z" fill="#FFE633"/>
<path d="M67.8273 200.337C51.5944 200.337 38.1714 187.966 37.8984 172.767C37.8984 172.285 38.1875 171.835 38.6531 171.658C39.1027 171.498 39.6325 171.626 39.9376 171.996C43.3897 176.141 48.2868 179.435 54.0831 181.491C54.5488 181.652 54.8538 182.086 54.8538 182.584V187.388H61.1479V184.608C61.1479 184.271 61.2924 183.965 61.5332 183.741C61.7741 183.516 62.1112 183.419 62.4324 183.467C66.9602 184.046 71.2151 183.901 75.4861 183.114C75.8233 183.05 76.1765 183.146 76.4334 183.355C76.6903 183.58 76.8509 183.901 76.8509 184.239V187.388H83.1449V181.668C83.1449 181.202 83.4179 180.784 83.8353 180.608C88.6201 178.551 92.7144 175.579 95.6848 172.012C96.006 171.642 96.5198 171.498 96.9693 171.675C97.435 171.851 97.724 172.285 97.724 172.783C97.451 187.982 84.028 200.353 67.7952 200.353L67.8273 200.337ZM40.4835 175.964C42.4102 188.4 54.0189 198.024 67.8273 198.024C81.6356 198.024 93.2443 188.384 95.171 175.948C92.4575 178.535 89.166 180.736 85.4731 182.407V188.528C85.4731 189.171 84.9593 189.685 84.317 189.685H75.7109C75.0686 189.685 74.5548 189.171 74.5548 188.528V185.588C70.894 186.151 67.2814 186.263 63.46 185.877V188.512C63.46 189.155 62.9462 189.669 62.3039 189.669H53.6978C53.0555 189.669 52.5417 189.155 52.5417 188.512V183.355C47.8694 181.588 43.759 179.065 40.4835 175.932V175.964Z" fill="black"/>
<path d="M2.18721 160.428C2.18721 160.428 1.09539 148.185 11.1305 149.728C22.2896 151.447 20.9248 154.531 20.9248 154.531C20.9248 154.531 21.5832 158.548 9.95843 157.263C9.95843 157.263 21.3102 157.15 21.1175 161.376C21.1175 161.376 22.402 165.135 11.837 164.38C11.837 164.38 20.106 164.509 19.8491 168.14C19.5922 171.771 11.2108 171.225 11.2108 171.225C1.86609 170.935 2.42806 161.633 2.18721 160.444V160.428Z" fill="#F37448"/>
<path d="M12.4649 172.398C11.8066 172.398 11.341 172.365 11.1483 172.365C5.0148 172.173 1.62693 168.429 1.11313 161.231C1.09708 160.974 1.08102 160.781 1.06496 160.669C1.06496 160.637 1.06496 160.573 1.04891 160.54C1.01679 160.267 0.486939 153.825 4.09959 150.435C5.88184 148.764 8.32238 148.137 11.3249 148.603C17.2015 149.503 20.7178 150.965 21.7936 152.925C22.1468 153.584 22.195 154.21 22.0986 154.676C22.0986 155.254 21.8739 156.042 21.2155 156.733C20.8141 157.15 20.3003 157.504 19.6741 157.793C20.3164 158.098 20.8623 158.484 21.2958 158.918C21.9381 159.592 22.2913 160.412 22.2913 161.279C22.3716 161.713 22.4198 162.613 21.7293 163.513C21.2155 164.188 20.4127 164.702 19.3209 165.055C19.626 165.264 19.8829 165.489 20.1237 165.73C20.782 166.437 21.0871 167.304 21.0229 168.236C20.766 171.98 15.1623 172.43 12.481 172.43L12.4649 172.398ZM3.34495 160.283C3.37706 160.46 3.39312 160.717 3.42523 161.055C3.71424 165.135 4.87029 169.859 11.2607 170.052C14.215 170.245 18.5984 169.73 18.7108 168.043C18.7268 167.754 18.6465 167.513 18.4218 167.256C17.5226 166.276 15.066 165.762 13.1232 165.585C12.6897 165.569 12.2401 165.537 11.7745 165.505C11.1483 165.457 10.6827 164.927 10.6987 164.3C10.7148 163.673 11.2446 163.159 11.8708 163.191C12.0314 163.191 12.5452 163.191 13.2517 163.272C18.2612 163.448 19.5778 162.452 19.8668 162.115C20.0595 161.89 20.0434 161.713 20.0434 161.665C19.9953 161.52 19.9953 161.44 19.9953 161.296C19.9953 161.087 19.9792 160.814 19.642 160.476C18.7268 159.512 16.4147 158.95 14.0866 158.645C12.8181 158.645 11.4052 158.564 9.86378 158.387C9.25365 158.323 8.80407 157.793 8.83618 157.182C8.8683 156.572 9.36604 156.09 9.97618 156.09C10.3776 156.09 12.1598 156.09 14.2632 156.347C17.7474 156.331 19.0319 155.592 19.4654 155.19C19.8026 154.885 19.8026 154.644 19.8026 154.628C19.7705 154.451 19.8026 154.323 19.8508 154.162C19.8026 153.953 19.0801 152.089 10.9877 150.836C8.70773 150.483 6.94155 150.9 5.68916 152.073C3.02383 154.564 3.31284 159.753 3.34495 160.267V160.283Z" fill="black"/>
<path d="M133.546 160.428C133.546 160.428 134.638 148.185 124.603 149.728C113.443 151.447 114.808 154.531 114.808 154.531C114.808 154.531 114.15 158.548 125.775 157.263C125.775 157.263 114.423 157.15 114.616 161.376C114.616 161.376 113.331 165.135 123.896 164.38C123.896 164.38 115.627 164.509 115.884 168.14C116.141 171.771 124.522 171.225 124.522 171.225C133.867 170.935 133.305 161.633 133.546 160.444V160.428Z" fill="#F37448"/>
<path d="M123.269 172.397C120.604 172.397 115 171.948 114.727 168.204C114.663 167.272 114.968 166.405 115.626 165.698C115.851 165.441 116.124 165.216 116.429 165.023C115.337 164.669 114.55 164.155 114.021 163.481C113.33 162.581 113.378 161.681 113.459 161.247C113.459 160.38 113.796 159.56 114.454 158.885C114.888 158.436 115.434 158.066 116.076 157.761C115.45 157.472 114.936 157.118 114.534 156.7C113.876 156.01 113.651 155.222 113.651 154.644C113.555 154.178 113.603 153.551 113.956 152.893C115.032 150.933 118.564 149.47 124.441 148.571C127.46 148.105 129.884 148.731 131.666 150.402C135.263 153.792 134.733 160.235 134.717 160.508C134.717 160.556 134.717 160.589 134.701 160.637C134.685 160.749 134.669 160.942 134.653 161.199C134.139 168.397 130.751 172.14 124.586 172.333C124.409 172.333 123.927 172.365 123.301 172.365L123.269 172.397ZM122.627 165.601C120.684 165.778 118.227 166.292 117.328 167.272C117.103 167.513 117.007 167.754 117.039 168.059C117.152 169.746 121.535 170.261 124.457 170.068C130.896 169.875 132.052 165.151 132.341 161.071C132.357 160.733 132.389 160.476 132.421 160.299C132.453 159.801 132.742 154.612 130.077 152.121C128.84 150.965 127.058 150.547 124.778 150.884C116.606 152.138 115.947 154.033 115.915 154.21C115.963 154.387 115.979 154.564 115.947 154.74C115.947 154.74 115.995 154.965 116.301 155.238C116.734 155.624 118.019 156.379 121.503 156.395C123.606 156.138 125.388 156.138 125.79 156.138C126.4 156.138 126.898 156.62 126.93 157.231C126.962 157.841 126.512 158.371 125.902 158.436C124.361 158.612 122.948 158.693 121.679 158.693C119.351 158.982 117.039 159.56 116.108 160.524C115.787 160.862 115.755 161.135 115.755 161.344C115.755 161.488 115.755 161.633 115.69 161.777C115.69 161.777 115.69 161.954 115.883 162.163C116.172 162.5 117.505 163.513 122.498 163.32C123.205 163.256 123.702 163.24 123.879 163.24C124.505 163.207 125.019 163.722 125.051 164.348C125.083 164.975 124.602 165.505 123.975 165.553C123.51 165.585 123.06 165.617 122.627 165.633V165.601Z" fill="black"/>
</g>
<defs>
<clipPath id="clip0_37_2713">
<rect width="185" height="224" fill="white" transform="translate(1 5)"/>
</clipPath>
</defs>
</svg>
