<svg width="244" height="266" viewBox="0 0 244 266" fill="none" xmlns="http://www.w3.org/2000/svg">
<ellipse cx="121.5" cy="247" rx="74.5" ry="19" fill="#D9D9D9" fill-opacity="0.5"/>
<path d="M91.8551 209.194L93.052 233.455C93.052 233.455 79.9505 230.187 79.158 239.702C78.3654 249.217 89.3803 251.406 89.3803 251.406C89.3803 251.406 107.916 255.157 109.922 244.596C111.928 234.035 111.491 211.303 111.491 211.303L91.8551 209.21V209.194Z" fill="#032640"/>
<path d="M96.4337 253C92.5842 253 89.4301 252.372 89.1875 252.324C89.0743 252.308 77.3477 249.845 78.205 239.622C78.4152 237.062 79.4666 235.114 81.3105 233.794C84.6586 231.411 89.7051 231.894 92.0504 232.28L90.9182 209.242C90.9182 208.969 91.0152 208.695 91.2093 208.502C91.4196 208.308 91.6784 208.212 91.9695 208.244L111.606 210.337C112.091 210.385 112.447 210.788 112.463 211.271C112.479 212.204 112.883 234.228 110.878 244.773C110.425 247.188 109.147 249.12 107.077 250.505C104.117 252.485 99.9921 253.016 96.4499 253.016L96.4337 253ZM88.2332 233.874C86.2599 233.874 84.0278 234.196 82.4104 235.355C81.0355 236.337 80.2753 237.786 80.1136 239.783C79.4019 248.315 89.1552 250.376 89.5757 250.472C89.6889 250.489 100.494 252.614 106.009 248.911C107.659 247.816 108.629 246.335 109.001 244.419C110.748 235.21 110.619 216.358 110.554 212.156L92.8753 210.273L94.0075 233.423C94.0075 233.729 93.8943 234.019 93.6517 234.212C93.4253 234.405 93.1179 234.47 92.8106 234.405C92.7783 234.405 90.6917 233.89 88.217 233.89L88.2332 233.874Z" fill="black"/>
<path d="M131.144 209.194L132.341 233.455C132.341 233.455 119.24 230.187 118.447 239.702C117.655 249.217 128.669 251.406 128.669 251.406C128.669 251.406 147.205 255.157 149.211 244.596C151.217 234.035 150.78 211.303 150.78 211.303L131.144 209.21V209.194Z" fill="#032640"/>
<path d="M135.703 253C131.854 253 128.7 252.372 128.457 252.324C128.344 252.308 116.617 249.845 117.474 239.622C117.685 237.062 118.736 235.114 120.58 233.794C123.928 231.411 128.975 231.894 131.32 232.28L130.188 209.242C130.188 208.969 130.285 208.695 130.479 208.502C130.689 208.308 130.948 208.212 131.239 208.244L150.875 210.337C151.36 210.385 151.716 210.788 151.732 211.271C151.748 212.204 152.153 234.228 150.147 244.773C149.694 247.188 148.416 249.12 146.346 250.505C143.386 252.485 139.262 253.016 135.719 253.016L135.703 253ZM127.503 233.874C125.529 233.874 123.297 234.196 121.68 235.355C120.305 236.337 119.545 237.786 119.383 239.783C118.671 248.315 128.425 250.376 128.845 250.472C128.958 250.489 139.763 252.614 145.279 248.911C146.928 247.816 147.899 246.335 148.271 244.419C150.018 235.21 149.888 216.358 149.824 212.156L132.145 210.273L133.277 233.423C133.277 233.729 133.164 234.019 132.921 234.212C132.695 234.405 132.371 234.47 132.08 234.405C132.048 234.405 129.961 233.89 127.487 233.89L127.503 233.874Z" fill="black"/>
<path d="M199.451 152.396C202.589 151.607 202.718 148.532 202.718 148.484C202.718 146.938 202.281 145.698 201.392 144.797C200.777 144.185 200.065 143.831 199.435 143.622C202.75 142.495 202.427 139.243 202.427 139.194C202.233 137.665 201.618 136.49 200.615 135.733C199.968 135.234 199.257 134.992 198.626 134.864C201.537 133.399 200.971 130.356 200.955 130.324C200.615 128.81 199.904 127.699 198.836 127.023C198.06 126.524 197.219 126.363 196.539 126.315C199.483 124.399 198.351 121.324 198.335 121.276C197.752 119.843 196.863 118.861 195.698 118.378C194.987 118.072 194.275 118.008 193.644 118.024C196.394 115.738 194.841 112.791 194.825 112.759C194.065 111.407 193.062 110.554 191.832 110.216C191.008 109.99 190.215 110.039 189.568 110.167C191.897 107.624 190.086 104.951 190.053 104.903C189.147 103.647 188.064 102.907 186.802 102.697C185.977 102.568 185.217 102.697 184.602 102.874C186.446 100.137 184.392 97.7548 184.376 97.7226C182.613 95.7907 180.801 95.7102 179.459 96.0965C181.109 93.7139 179.524 91.3795 179.491 91.3473C178.569 90.0915 177.486 89.3671 176.224 89.1739C175.9 89.1256 175.609 89.1256 175.318 89.1417C177.178 87.258 176.305 84.8271 176.289 84.7949C175.706 83.362 174.833 82.38 173.668 81.8809C173.345 81.7521 173.038 81.6716 172.73 81.6072C175.011 80.2388 174.752 77.6468 174.752 77.6146C174.542 76.0852 173.927 74.926 172.924 74.1532C172.391 73.7508 171.841 73.5254 171.307 73.3805C174.202 72.3018 174.105 69.3557 174.105 69.3074C174.008 67.7618 173.474 66.5705 172.52 65.7333C171.97 65.2504 171.339 64.9606 170.773 64.7835C173.685 63.5921 173.442 60.5977 173.442 60.5494C173.264 59.0199 172.666 57.8447 171.679 57.0558C171.048 56.5567 170.353 56.2992 169.738 56.1704C172.795 54.7375 172.213 51.6143 172.197 51.566C171.873 50.0526 171.161 48.9418 170.094 48.2656C169.447 47.847 168.751 47.6538 168.153 47.5734C171.048 45.899 170.223 42.8402 170.207 42.808C169.754 41.3268 168.962 40.2804 167.846 39.6847C167.118 39.2983 166.357 39.1695 165.71 39.1534C168.476 37.1732 167.296 34.1949 167.279 34.1466C166.665 32.7298 165.759 31.7639 164.594 31.297C163.85 30.9911 163.106 30.9428 162.459 30.9911C164.853 28.6567 163.3 25.9037 163.284 25.8554C162.476 24.5353 161.457 23.7142 160.227 23.4083C159.37 23.1991 158.577 23.2796 157.931 23.4405C160.017 20.6876 157.963 18.1761 157.931 18.1439C155.99 15.9222 153.806 16.0027 152.253 16.6628C153.725 13.6522 151.315 11.5754 151.283 11.5432C148.743 9.49858 146.576 10.3035 145.347 11.1246C146.301 7.75986 143.422 6.18213 143.39 6.14993C140.462 4.6527 138.505 5.89234 137.486 6.97099C137.664 3.50965 134.526 2.59199 134.477 2.57589C131.857 1.89972 130.272 2.89788 129.366 3.97653C129.366 3.46135 129.237 2.91398 128.929 2.431C128.477 1.70653 127.668 1.23965 126.552 1.07866C126.519 1.07866 123.737 0.821072 122.589 3.13937C122.395 2.62419 122.088 2.10901 121.602 1.69043C120.81 1.03036 119.71 0.756675 118.319 0.885469C118.287 0.885469 115.23 1.27185 114.712 4.45951C113.919 3.26816 112.27 1.80313 109.261 2.57589C109.229 2.57589 106.075 3.49355 106.253 6.95489C105.282 5.94064 103.293 4.6366 100.349 6.14993C100.317 6.16603 97.4375 7.74376 98.3918 11.1085C97.1463 10.2552 94.9951 9.48248 92.4557 11.5432C92.4234 11.5593 90.0134 13.6522 91.5014 16.6789C90.1266 16.0832 87.9107 15.7451 85.808 18.1439C85.7918 18.1761 83.7214 20.6876 85.808 23.4405C84.4493 23.1186 82.1201 23.1025 80.4542 25.8715C80.438 25.9037 78.8691 28.6567 81.2791 30.9911C79.8395 30.8945 77.6721 31.2809 76.4429 34.1466C76.4429 34.1788 75.2621 37.1571 78.028 39.1373C76.5884 39.1856 74.4372 39.7813 73.5153 42.7919C73.5153 42.8241 72.6742 45.8829 75.5856 47.5573C74.1622 47.7504 72.1728 48.5715 71.5258 51.5499C71.5258 51.5821 70.9435 54.7053 74.0005 56.1382C72.561 56.4601 70.6362 57.4583 70.2803 60.5333C70.2803 60.5655 70.0215 63.5599 72.9492 64.7513C71.5581 65.1699 69.8113 66.2968 69.6172 69.2752C69.6172 69.3074 69.5201 72.2535 72.3992 73.3322C71.0082 73.7025 69.3422 74.7489 68.954 77.5663C68.954 77.5985 68.6791 80.1905 70.9758 81.5589C69.7142 81.7843 68.2747 82.5732 67.4013 84.7466C67.4013 84.7788 66.5117 87.1937 68.3556 89.0773C67.0778 89.0129 65.5412 89.4636 64.1825 91.299C64.1663 91.3312 62.5651 93.6495 64.2149 96.0322C62.8724 95.6458 61.077 95.7424 59.2978 97.6743C59.2816 97.7065 57.2274 100.073 59.0713 102.81C57.648 102.359 55.4482 102.295 53.6205 104.838C53.6043 104.871 51.7766 107.543 54.1057 110.087C52.7309 109.813 50.4341 109.894 48.8652 112.679C48.849 112.711 47.2962 115.657 50.0459 117.943C48.574 117.895 46.5037 118.394 45.3715 121.211C45.3715 121.244 44.2231 124.319 47.1507 126.234C45.6949 126.331 43.4467 127.039 42.7512 130.243C42.7512 130.275 42.1689 133.318 45.0803 134.783C43.657 135.073 41.6836 136.039 41.2793 139.13C41.2793 139.162 40.9558 142.414 44.2716 143.541C42.8644 143.992 40.972 145.215 41.0043 148.403C41.0043 148.435 41.1337 151.51 44.2716 152.299C42.8967 152.879 41.1822 154.247 41.4572 157.37C41.4572 157.403 41.8616 160.703 45.42 161.057C44.1907 161.798 42.5733 163.408 43.3011 166.499C43.3011 166.531 44.126 169.574 47.458 169.59C46.067 170.765 45.2259 172.697 46.2611 175.257C46.2611 175.289 47.6036 178.332 51.0973 177.639C50.1268 178.75 49.221 180.682 50.7576 183.338C50.7738 183.371 52.5368 186.188 55.8849 185.029C55.4968 185.608 55.1247 186.381 55.0439 187.299C54.9306 188.555 55.3835 189.794 56.3702 190.986C56.4025 191.018 58.4567 193.336 61.4167 191.919C61.1579 192.467 60.9476 193.159 60.9638 193.932C60.9961 195.171 61.5784 196.331 62.7268 197.393C62.7753 197.441 64.0693 198.584 65.8809 198.488C66.6249 198.456 67.3204 198.182 67.9997 197.747C67.7733 198.343 67.6115 199.084 67.7248 199.889C67.8865 201.112 68.5982 202.191 69.876 203.092C69.8921 203.092 71.0405 203.881 72.5286 203.881C73.3212 203.881 74.2108 203.656 75.068 202.996C74.9225 203.624 74.8739 204.348 75.068 205.121C75.3753 206.312 76.2002 207.31 77.5427 208.067C77.5589 208.067 78.4647 208.534 79.6616 208.534C80.5997 208.534 81.7158 208.244 82.7186 207.262C82.6377 207.874 82.6539 208.582 82.9127 209.323C83.3332 210.482 84.2552 211.383 85.6947 212.011C85.7109 212.011 86.4711 212.333 87.4901 212.333C88.5091 212.333 89.8031 212.011 90.8383 210.739C90.8221 211.351 90.903 212.06 91.2426 212.736C91.7764 213.83 92.7954 214.619 94.2835 215.07C94.2835 215.07 94.801 215.199 95.5127 215.199C96.5964 215.199 98.1815 214.877 99.2652 213.331C99.3137 213.911 99.4593 214.571 99.8313 215.183C100.462 216.229 101.546 216.922 103.066 217.227C103.066 217.227 103.374 217.292 103.843 217.292C104.91 217.292 106.851 216.986 107.919 215.006C108.032 215.553 108.242 216.149 108.646 216.696C109.374 217.678 110.523 218.258 112.076 218.419C112.076 218.419 112.156 218.419 112.334 218.419C113.143 218.419 115.618 218.21 116.669 215.762C116.831 216.31 117.106 216.905 117.575 217.421C118.4 218.322 119.597 218.789 121.149 218.789C121.149 218.789 124.643 218.709 125.517 215.489C126.083 216.905 127.409 218.692 130.482 218.709C130.595 218.709 133.2 218.612 134.768 216.889C135.286 216.326 135.61 215.634 135.771 214.845C136.823 216.938 138.812 217.244 139.912 217.244C140.365 217.244 140.672 217.195 140.688 217.179C142.209 216.873 143.309 216.181 143.923 215.135C144.295 214.523 144.441 213.863 144.489 213.283C145.573 214.845 147.158 215.151 148.242 215.151C148.954 215.151 149.455 215.022 149.487 215.006C150.975 214.555 151.978 213.782 152.512 212.671C152.836 211.979 152.933 211.287 152.916 210.675C153.952 211.947 155.229 212.269 156.265 212.269C157.3 212.269 158.044 211.963 158.06 211.947C159.483 211.319 160.421 210.417 160.826 209.258C161.085 208.534 161.101 207.809 161.02 207.198C162.023 208.18 163.139 208.469 164.077 208.469C165.274 208.469 166.196 208.019 166.212 208.003C167.554 207.246 168.379 206.264 168.687 205.056C168.881 204.284 168.816 203.559 168.687 202.931C169.56 203.591 170.45 203.817 171.226 203.817C172.714 203.817 173.862 203.044 173.879 203.028C175.14 202.126 175.852 201.048 176.014 199.824C176.127 199.019 175.965 198.279 175.739 197.683C176.418 198.118 177.114 198.375 177.858 198.423C177.922 198.423 178.003 198.423 178.068 198.423C179.766 198.423 180.947 197.377 181.012 197.313C182.16 196.266 182.759 195.107 182.775 193.867C182.775 193.095 182.581 192.402 182.322 191.855C183.001 192.177 183.648 192.322 184.23 192.322C186.139 192.322 187.352 190.953 187.384 190.921C188.387 189.73 188.824 188.506 188.711 187.251C188.63 186.301 188.242 185.528 187.837 184.948C188.42 185.158 188.953 185.254 189.439 185.254C191.768 185.254 192.981 183.306 192.997 183.274C193.773 181.938 194 180.634 193.66 179.426C193.45 178.67 193.062 178.042 192.641 177.575C192.997 177.639 193.337 177.688 193.644 177.688C196.394 177.688 197.477 175.241 197.494 175.192C198.593 172.504 197.574 170.62 196.313 169.525C199.629 169.493 200.437 166.45 200.454 166.418C200.809 164.921 200.648 163.601 199.968 162.538C199.515 161.814 198.901 161.331 198.335 160.993C201.893 160.639 202.281 157.338 202.297 157.306C202.427 155.76 202.087 154.505 201.278 153.539C200.745 152.895 200.082 152.508 199.483 152.251L199.451 152.396Z" fill="white"/>
<path d="M121.132 219.884C119.272 219.884 117.832 219.304 116.83 218.21C116.716 218.081 116.603 217.952 116.506 217.807C115.034 219.353 112.996 219.498 112.284 219.498C112.042 219.498 111.929 219.498 111.912 219.498C110.085 219.304 108.71 218.596 107.82 217.389C107.739 217.276 107.659 217.147 107.578 217.018C106.591 217.888 105.281 218.371 103.793 218.371C103.34 218.371 102.984 218.322 102.855 218.306C102.839 218.306 102.806 218.306 102.79 218.306C101.027 217.952 99.733 217.115 98.9566 215.827C98.8596 215.666 98.7787 215.505 98.6978 215.328C97.792 215.972 96.676 216.31 95.4467 216.31C94.5895 216.31 93.991 216.149 93.9586 216.133C92.1794 215.602 90.9664 214.652 90.3194 213.299C90.2385 213.122 90.1576 212.929 90.0929 212.736C89.1548 213.283 88.1843 213.428 87.4403 213.428C86.2272 213.428 85.3214 213.058 85.2729 213.042C83.5746 212.301 82.4747 211.207 81.9733 209.79C81.9086 209.58 81.8439 209.387 81.7954 209.162C81.116 209.468 80.3882 209.629 79.628 209.629C78.1722 209.629 77.0724 209.065 77.0562 209.049C75.4549 208.148 74.4521 206.94 74.0962 205.491C74.0315 205.25 73.9992 204.992 73.9668 204.751C73.4816 204.896 72.9964 204.976 72.4788 204.976C70.6349 204.976 69.2762 204.01 69.26 204.01C67.7881 202.948 66.9309 201.644 66.7368 200.162C66.7044 199.937 66.6883 199.712 66.6883 199.47C66.4295 199.535 66.1545 199.567 65.8795 199.583C63.7283 199.712 62.2079 198.392 62.0462 198.247C60.6875 197.007 59.992 195.622 59.9596 194.109C59.9596 193.884 59.9596 193.674 59.992 193.449C57.954 193.658 56.3042 192.547 55.6087 191.759C54.4279 190.358 53.9103 188.877 54.0397 187.364C54.0721 187.042 54.1206 186.72 54.2177 186.398C52.0017 186.381 50.4813 184.933 49.899 183.967C48.6536 181.809 48.7992 180.054 49.3168 178.767C46.9714 178.445 45.6613 176.593 45.3216 175.74C44.5291 173.776 44.6261 171.892 45.5804 170.363C42.9925 169.477 42.3293 166.869 42.3131 166.837C41.7309 164.374 42.4425 162.699 43.3645 161.621C40.7766 160.429 40.4531 157.628 40.4531 157.596C40.2266 155.052 41.1648 153.491 42.2161 152.557C40.5663 151.382 40.0325 149.546 40.0002 148.532C39.984 145.956 41.0515 144.475 42.1999 143.622C40.5016 142.269 40.1781 140.225 40.2913 139.13C40.6148 136.619 41.8441 135.298 43.0734 134.606C41.5853 133.028 41.6015 130.968 41.7794 130.147C42.2485 128.022 43.4454 126.524 45.1599 125.816C43.4939 123.643 44.3997 121.115 44.4482 120.986C45.3701 118.716 46.8259 117.734 48.1522 117.332C46.9876 115.4 47.4567 113.323 48.0066 112.325C49.2521 110.119 50.918 109.346 52.3252 109.169C51.5327 107.205 52.212 105.289 52.8105 104.404C54.3147 102.311 56.0454 101.748 57.4688 101.715C56.8218 99.1395 58.5363 97.1593 58.5686 97.1432C59.9758 95.6138 61.3992 95.0825 62.6446 95.0181C62.1917 93.2472 62.8387 91.6212 63.3725 90.8645C64.4238 89.4317 65.5884 88.7233 66.6559 88.4335C65.7501 86.4694 66.4618 84.5375 66.478 84.5214C67.1573 82.8471 68.1278 81.8811 69.1145 81.3337C67.7558 79.6433 67.9822 77.5987 67.9822 77.5826C68.241 75.699 69.0659 74.2501 70.3599 73.3485C68.9851 72.125 68.6131 70.4023 68.6454 69.372C68.8071 66.941 69.8747 65.5564 70.9907 64.7676C69.438 63.3508 69.2277 61.3545 69.3247 60.5496C69.6159 58.0703 70.7966 56.734 71.9935 56.0257C70.5055 54.5445 70.3599 52.5482 70.5702 51.5018C71.0878 49.103 72.3817 47.8956 73.611 47.2838C72.1715 45.5773 72.3332 43.4683 72.592 42.6311C73.3199 40.2323 74.7594 39.1376 76.0857 38.6546C74.8888 36.8998 75.1314 34.9034 75.5358 33.9053C76.5386 31.5709 78.1075 30.6371 79.4824 30.3152C78.4796 28.3027 79.1589 26.2581 79.5956 25.5015C80.6955 23.6662 82.2968 22.6358 84.1245 22.4748C83.4452 20.3819 84.3186 18.4983 85.0464 17.645C86.7933 15.6487 88.621 15.2784 90.0767 15.4394C89.8018 13.1855 91.1443 11.4951 91.8236 10.9316C93.9101 9.24121 95.8026 9.20901 97.2259 9.64369C97.3715 6.81022 99.8462 5.45788 99.8786 5.44178C102.305 4.20214 104.197 4.62072 105.475 5.32909C106.122 3.05909 108.111 2.02874 109.001 1.78725C111.508 1.14328 113.206 1.83555 114.306 2.73711C115.536 0.370513 118.156 0.0485275 118.188 0.0485275C119.854 -0.128564 121.197 0.22562 122.2 1.06278C122.361 1.20767 122.523 1.35257 122.669 1.52966C124.189 0.0968253 126.324 0.20952 126.599 0.225619C128.087 0.451009 129.106 1.04668 129.721 2.02874C129.785 2.12533 129.834 2.22193 129.899 2.33462C130.998 1.62626 132.551 1.20767 134.702 1.75505C135.802 2.06094 137.614 3.15569 138.229 5.28079C139.539 4.55632 141.399 4.16994 143.825 5.40958C144.634 5.82816 146.364 7.2932 146.478 9.62759C147.901 9.19291 149.793 9.22511 151.88 10.8994C152.721 11.6078 153.918 13.2821 153.643 15.4233C155.05 15.2784 156.91 15.6326 158.657 17.6128C159.369 18.4822 160.242 20.3819 159.579 22.4426C159.87 22.4587 160.177 22.507 160.452 22.5875C161.941 22.9578 163.17 23.9237 164.108 25.4693C164.658 26.4191 165.192 28.3832 164.237 30.283C164.48 30.3473 164.723 30.4117 164.949 30.5083C166.372 31.0718 167.456 32.1988 168.168 33.8731C168.232 34.018 169.154 36.4651 167.65 38.6546C167.877 38.7351 168.087 38.8317 168.297 38.9444C169.656 39.6527 170.61 40.8924 171.128 42.6311C171.386 43.4522 171.548 45.5773 170.109 47.2838C170.287 47.3643 170.448 47.4609 170.61 47.5736C171.904 48.3946 172.745 49.7148 173.133 51.4696C173.166 51.6306 173.602 54.1743 171.726 56.0418C171.92 56.1545 172.098 56.2833 172.26 56.4121C173.457 57.3619 174.169 58.7465 174.379 60.5496C174.476 61.5638 174.185 63.4474 172.713 64.7837C172.858 64.8803 173.004 64.993 173.133 65.1218C174.282 66.1199 174.929 67.5528 175.058 69.3559C175.107 70.3379 174.751 72.1088 173.344 73.3646C173.408 73.4129 173.457 73.4451 173.522 73.4934C174.735 74.411 175.479 75.7956 175.721 77.5826C175.818 78.5003 175.624 80.078 174.589 81.3498C175.737 81.9938 176.627 83.0564 177.209 84.5214C177.258 84.6341 177.937 86.5338 177.048 88.4657C178.293 88.8199 179.393 89.6249 180.315 90.8806C180.331 90.9128 181.641 92.7803 181.059 95.0664C182.304 95.1308 183.728 95.6621 185.119 97.1754C185.701 97.8033 186.769 99.6225 186.219 101.78C186.477 101.78 186.736 101.812 186.995 101.844C188.499 102.086 189.809 102.955 190.861 104.436C191.491 105.338 192.171 107.254 191.362 109.234C191.621 109.266 191.864 109.314 192.106 109.379C193.578 109.781 194.775 110.795 195.681 112.357C196.231 113.371 196.7 115.448 195.535 117.38C195.713 117.428 195.907 117.509 196.085 117.573C197.492 118.169 198.544 119.312 199.223 121.002C199.563 121.84 199.918 124.013 198.511 125.864C198.802 125.993 199.094 126.138 199.352 126.299C200.646 127.12 201.504 128.424 201.892 130.195C201.924 130.34 202.345 132.803 200.598 134.671C200.808 134.783 201.002 134.912 201.196 135.057C202.409 135.991 203.153 137.359 203.38 139.162C203.509 140.273 203.186 142.334 201.471 143.686C201.682 143.847 201.892 144.024 202.07 144.201C203.137 145.28 203.687 146.761 203.671 148.564C203.671 148.613 203.59 151.14 201.455 152.605C201.649 152.766 201.811 152.943 201.973 153.136C202.959 154.296 203.38 155.809 203.218 157.612C203.089 158.755 202.312 160.719 200.307 161.653C200.468 161.846 200.614 162.039 200.76 162.265C201.568 163.553 201.779 165.098 201.358 166.869C201.083 167.916 200.096 169.703 198.091 170.411C199.045 171.94 199.142 173.824 198.35 175.788C198.301 175.917 197.185 178.445 194.338 178.831C194.419 179.024 194.484 179.217 194.532 179.427C194.937 180.892 194.678 182.437 193.772 183.999C193.594 184.272 192.171 186.43 189.437 186.462C189.518 186.784 189.583 187.09 189.615 187.412C189.745 188.925 189.227 190.406 188.062 191.791C187.998 191.871 186.526 193.53 184.181 193.53C184.003 193.53 183.841 193.53 183.663 193.497C183.695 193.723 183.695 193.932 183.695 194.157C183.663 195.671 182.967 197.055 181.625 198.295C181.56 198.359 179.959 199.76 177.775 199.647C177.5 199.647 177.242 199.599 176.967 199.535C176.967 199.76 176.967 200.001 176.918 200.227C176.724 201.724 175.867 203.012 174.395 204.091C174.33 204.139 173.004 205.057 171.176 205.057C170.659 205.057 170.173 204.976 169.688 204.831C169.656 205.089 169.623 205.33 169.559 205.572C169.187 207.037 168.2 208.228 166.631 209.114C166.469 209.194 165.402 209.709 164.027 209.709C163.267 209.709 162.523 209.548 161.86 209.242C161.811 209.452 161.763 209.661 161.682 209.87C161.18 211.287 160.064 212.382 158.398 213.106C158.35 213.122 157.444 213.509 156.215 213.509C155.471 213.509 154.5 213.364 153.562 212.816C153.497 213.01 153.416 213.203 153.336 213.38C152.689 214.732 151.476 215.682 149.729 216.213C149.583 216.246 149.001 216.39 148.208 216.39C146.979 216.39 145.863 216.052 144.957 215.408C144.876 215.586 144.795 215.747 144.698 215.908C143.938 217.195 142.628 218.033 140.833 218.403C140.719 218.419 140.364 218.483 139.862 218.483C138.326 218.483 136.983 217.984 135.98 217.051C135.819 217.324 135.624 217.566 135.43 217.807C133.619 219.804 130.772 219.932 130.465 219.948C128.362 219.948 126.68 219.192 125.548 217.791C124.302 219.482 122.248 219.997 121.116 220.013L121.132 219.884ZM116.619 214.942C116.619 214.942 116.652 214.942 116.684 214.942C117.088 214.974 117.428 215.231 117.541 215.618C117.687 216.133 117.929 216.568 118.237 216.906C118.868 217.598 119.838 217.952 121.116 217.968C121.213 217.968 123.882 217.872 124.561 215.376C124.674 214.974 125.014 214.7 125.434 214.668C125.839 214.636 126.227 214.877 126.373 215.264C127.068 217.002 128.443 217.872 130.465 217.888C130.465 217.888 132.745 217.807 134.039 216.374C134.428 215.956 134.67 215.425 134.816 214.781C134.897 214.378 135.22 214.088 135.624 214.024C136.029 213.976 136.417 214.185 136.611 214.539C137.404 216.085 138.827 216.423 139.895 216.423C140.267 216.423 140.493 216.374 140.493 216.374C141.722 216.117 142.596 215.586 143.081 214.781C143.324 214.362 143.469 213.879 143.518 213.332C143.55 212.929 143.825 212.591 144.229 212.494C144.618 212.398 145.038 212.543 145.264 212.865C146.656 214.861 149.211 214.217 149.227 214.217C150.408 213.863 151.233 213.251 151.637 212.398C151.864 211.947 151.961 211.416 151.945 210.836C151.945 210.434 152.187 210.063 152.575 209.919C152.964 209.774 153.4 209.902 153.659 210.208C154.338 211.029 155.212 211.448 156.263 211.448C157.072 211.448 157.687 211.207 157.703 211.207C158.851 210.707 159.611 209.983 159.935 209.081C160.113 208.598 160.161 208.051 160.08 207.455C160.032 207.053 160.242 206.667 160.598 206.489C160.954 206.312 161.407 206.377 161.698 206.667C162.377 207.327 163.186 207.665 164.076 207.665C165.03 207.665 165.774 207.294 165.79 207.294C166.841 206.699 167.521 205.91 167.763 204.976C167.893 204.461 167.893 203.897 167.763 203.286C167.682 202.899 167.844 202.497 168.184 202.271C168.524 202.062 168.96 202.078 169.284 202.32C169.882 202.771 170.545 203.012 171.257 203.012C172.422 203.012 173.36 202.4 173.376 202.384C174.395 201.644 174.977 200.79 175.107 199.84C175.171 199.309 175.107 198.746 174.88 198.15C174.735 197.764 174.864 197.329 175.171 197.071C175.495 196.814 175.948 196.798 176.287 197.023C176.853 197.393 177.387 197.587 177.937 197.603H178.099C179.409 197.603 180.38 196.765 180.396 196.749C181.334 195.88 181.835 194.962 181.851 193.98C181.851 193.465 181.738 192.934 181.479 192.386C181.302 192.016 181.382 191.582 181.674 191.308C181.965 191.018 182.401 190.954 182.757 191.131C183.259 191.372 183.76 191.501 184.245 191.501C185.685 191.501 186.671 190.438 186.671 190.422C187.48 189.456 187.852 188.458 187.771 187.46C187.707 186.832 187.48 186.22 187.06 185.609C186.833 185.271 186.833 184.82 187.092 184.498C187.351 184.176 187.771 184.047 188.176 184.176C190.812 185.094 192.155 182.968 192.203 182.888C192.834 181.809 193.028 180.747 192.753 179.781C192.608 179.266 192.333 178.767 191.944 178.3C191.686 177.994 191.637 177.543 191.847 177.205C192.058 176.851 192.462 176.674 192.866 176.754C193.157 176.818 193.449 176.851 193.691 176.851C195.778 176.851 196.619 175.015 196.667 174.935C197.606 172.633 196.667 171.184 195.745 170.379C195.438 170.121 195.341 169.703 195.47 169.332C195.6 168.962 195.956 168.704 196.36 168.704C198.867 168.672 199.514 166.547 199.579 166.306C199.87 165.082 199.741 164.02 199.207 163.166C198.899 162.683 198.463 162.265 197.897 161.927C197.541 161.717 197.363 161.299 197.46 160.896C197.557 160.494 197.897 160.204 198.301 160.156C201.002 159.898 201.374 157.564 201.407 157.306C201.52 156.05 201.245 155.02 200.598 154.263C200.242 153.829 199.757 153.491 199.158 153.233C198.786 153.072 198.544 152.686 198.576 152.283C198.608 151.881 198.899 151.543 199.288 151.43C201.682 150.818 201.827 148.516 201.827 148.419C201.827 147.164 201.487 146.149 200.776 145.441C200.371 145.039 199.838 144.717 199.207 144.507C198.819 144.378 198.544 144.024 198.544 143.606C198.544 143.187 198.802 142.833 199.191 142.704C201.698 141.851 201.568 139.533 201.536 139.275C201.374 138.035 200.889 137.085 200.08 136.474C199.644 136.136 199.11 135.91 198.495 135.781C198.091 135.701 197.783 135.379 197.735 134.976C197.686 134.574 197.88 134.188 198.252 133.994C200.485 132.867 200.096 130.565 200.08 130.469C199.805 129.245 199.239 128.344 198.398 127.796C197.88 127.474 197.266 127.281 196.554 127.233C196.15 127.201 195.794 126.927 195.697 126.524C195.6 126.122 195.762 125.703 196.101 125.494C198.317 124.045 197.605 121.839 197.525 121.582C197.056 120.423 196.344 119.618 195.422 119.231C194.937 119.022 194.387 118.926 193.788 118.958C193.335 118.958 193.012 118.732 192.866 118.346C192.721 117.96 192.834 117.541 193.141 117.267C195.212 115.529 194.209 113.403 194.096 113.162C193.481 112.067 192.672 111.375 191.702 111.101C191.152 110.94 190.537 110.94 189.89 111.069C189.486 111.15 189.065 110.972 188.871 110.602C188.661 110.248 188.709 109.797 189.001 109.491C190.747 107.576 189.551 105.628 189.405 105.402C188.677 104.388 187.788 103.776 186.801 103.615C186.251 103.519 185.652 103.583 185.038 103.76C184.65 103.873 184.229 103.744 183.986 103.422C183.744 103.1 183.728 102.665 183.954 102.327C185.361 100.234 183.857 98.4151 183.792 98.3346C182.612 97.0466 181.285 96.5958 179.862 96.9983C179.474 97.111 179.053 96.9661 178.827 96.6441C178.6 96.3221 178.584 95.8875 178.827 95.5494C180.088 93.7302 178.908 91.9592 178.859 91.8787C178.115 90.8645 177.226 90.2688 176.239 90.1078C176.029 90.0756 175.818 90.0595 175.527 90.0756C175.139 90.0917 174.767 89.8663 174.605 89.5122C174.443 89.158 174.524 88.7394 174.799 88.4496C176.206 87.0168 175.576 85.1654 175.543 85.0849C175.074 83.9257 174.363 83.1207 173.441 82.7344C173.23 82.6378 173.004 82.5734 172.697 82.5251C172.308 82.4607 172.001 82.1548 171.936 81.7523C171.872 81.3659 172.05 80.9634 172.389 80.7703C174.12 79.7238 173.958 77.7597 173.942 77.6792C173.78 76.4396 173.279 75.4897 172.486 74.8779C172.131 74.6042 171.71 74.411 171.192 74.2662C170.788 74.1535 170.513 73.7993 170.481 73.3968C170.465 72.9782 170.707 72.6079 171.095 72.463C173.295 71.642 173.263 69.4203 173.263 69.3237C173.182 68.0679 172.761 67.0859 172.001 66.4419C171.613 66.1038 171.144 65.8623 170.61 65.6852C170.222 65.5725 169.947 65.2184 169.931 64.8159C169.915 64.4134 170.141 64.0431 170.529 63.8821C172.761 62.9645 172.616 60.7106 172.6 60.614C172.454 59.3743 171.985 58.4084 171.192 57.7805C170.772 57.4424 170.238 57.2009 169.64 57.0721C169.235 56.9755 168.944 56.6535 168.896 56.2511C168.847 55.8486 169.074 55.4622 169.446 55.2851C171.742 54.2065 171.419 51.9687 171.37 51.7272C171.112 50.5036 170.545 49.586 169.688 49.0547C169.235 48.7649 168.718 48.5878 168.135 48.5073C167.731 48.459 167.408 48.1531 167.327 47.7507C167.246 47.3482 167.424 46.9457 167.78 46.7364C169.995 45.4485 169.413 43.1463 169.397 43.0497C169.025 41.8422 168.394 40.989 167.505 40.5221C167.003 40.2645 166.437 40.1196 165.79 40.1035C165.386 40.1035 165.03 39.8298 164.9 39.4273C164.787 39.041 164.917 38.6063 165.256 38.3809C167.343 36.8837 166.599 34.7425 166.502 34.501C166 33.3418 165.272 32.569 164.351 32.1988C163.849 31.9895 163.267 31.9251 162.652 31.9573C162.248 31.9734 161.876 31.7641 161.714 31.3938C161.552 31.0235 161.633 30.6049 161.924 30.3152C163.736 28.5603 162.701 26.564 162.571 26.3386C161.924 25.26 161.083 24.5838 160.113 24.3423C159.547 24.1974 158.932 24.2135 158.269 24.3745C157.881 24.4711 157.46 24.3101 157.25 23.972C157.023 23.634 157.04 23.1993 157.282 22.8773C158.867 20.8005 157.476 18.9652 157.315 18.7559C155.665 16.8562 153.918 17.0494 152.753 17.5484C152.381 17.7094 151.961 17.6128 151.686 17.323C151.411 17.0333 151.346 16.6147 151.524 16.2444C152.64 13.9744 150.99 12.4289 150.796 12.2679C149.211 10.9799 147.594 10.8672 146.025 11.9137C145.685 12.1391 145.248 12.123 144.925 11.8976C144.601 11.6561 144.456 11.2536 144.569 10.8672C145.297 8.32355 143.307 7.11611 143.081 6.98731C141.237 6.05355 139.636 6.26284 138.326 7.63128C138.051 7.92107 137.63 8.00157 137.258 7.85667C136.886 7.69568 136.66 7.3254 136.676 6.93901C136.805 4.31483 134.605 3.59037 134.363 3.50987C132.632 3.05909 131.241 3.42937 130.271 4.60462C130.012 4.91051 129.591 5.0232 129.219 4.89441C128.847 4.76561 128.588 4.41143 128.572 4.02505C128.572 3.60647 128.459 3.23618 128.281 2.9464C127.974 2.44732 127.408 2.15753 126.567 2.02874C126.421 2.02874 124.432 1.91604 123.607 3.57427C123.445 3.91235 123.105 4.12164 122.701 4.10554C122.313 4.08944 121.989 3.84795 121.86 3.47767C121.698 3.04299 121.455 2.68881 121.148 2.41512C120.566 1.91604 119.709 1.72285 118.576 1.83555C118.512 1.83555 116.215 2.18973 115.811 4.60462C115.746 4.991 115.455 5.29689 115.067 5.37738C114.678 5.45788 114.29 5.29689 114.064 4.9749C113.077 3.49377 111.589 2.99469 109.648 3.49377C109.422 3.55817 107.222 4.29873 107.351 6.90682C107.367 7.3093 107.141 7.66348 106.769 7.82447C106.397 7.98547 105.976 7.90497 105.701 7.61518C104.796 6.68143 103.227 5.81207 100.914 6.98731C100.703 7.10001 98.7302 8.30745 99.4418 10.835C99.5551 11.2214 99.4095 11.64 99.086 11.8654C98.7625 12.1069 98.3258 12.1069 97.9861 11.8654C96.4334 10.8028 94.8159 10.9316 93.1984 12.2518C93.0205 12.3967 91.3869 13.9422 92.5029 16.2283C92.6809 16.5825 92.6162 17.0172 92.3412 17.3069C92.0662 17.5967 91.6295 17.6772 91.2737 17.5162C89.5753 16.7757 88.0387 17.1942 86.6801 18.7398C86.5345 18.9169 85.1435 20.7522 86.7124 22.829C86.955 23.151 86.9712 23.5857 86.7448 23.9237C86.5183 24.2618 86.114 24.4228 85.7258 24.3262C83.9142 23.9076 82.4747 24.5677 81.4072 26.3225C81.3748 26.3869 80.2426 28.4798 82.0865 30.2669C82.3776 30.5405 82.4585 30.9752 82.2968 31.3455C82.135 31.7158 81.763 31.9412 81.3586 31.909C79.5794 31.7963 78.2531 32.6495 77.4767 34.4849C77.3959 34.6942 76.6518 36.8354 78.7384 38.3326C79.078 38.5741 79.2074 38.9927 79.0942 39.379C78.981 39.7654 78.6251 40.0391 78.2046 40.0552C76.393 40.1035 75.1638 41.1178 74.5815 43.0336C74.5653 43.098 73.983 45.4163 76.2151 46.7042C76.571 46.9135 76.7489 47.316 76.668 47.7185C76.5871 48.1209 76.2636 48.4268 75.8593 48.4751C74.1124 48.7005 73.0125 49.8114 72.6082 51.7272C72.5758 51.9526 72.2523 54.1743 74.5653 55.2529C74.9373 55.43 75.1476 55.8164 75.1152 56.2189C75.0667 56.6214 74.7756 56.9594 74.3712 57.0399C72.6244 57.4263 71.6215 58.6338 71.3951 60.614C71.3951 60.6784 71.2495 62.9323 73.4654 63.8499C73.8374 64.0109 74.0801 64.3812 74.0639 64.7837C74.0477 65.1862 73.7727 65.5403 73.3846 65.653C71.7509 66.1521 70.8613 67.3918 70.7319 69.3237C70.7319 69.3881 70.6996 71.5937 72.8993 72.4308C73.2875 72.5757 73.5301 72.9621 73.514 73.3646C73.4978 73.7832 73.2066 74.1374 72.8023 74.234C71.2333 74.6525 70.3114 75.8117 70.0526 77.6792C70.0526 77.7275 69.8908 79.6916 71.6215 80.722C71.9612 80.9312 72.1391 81.3176 72.0744 81.704C72.0097 82.0904 71.7024 82.3963 71.3142 82.4768C70.0202 82.7183 69.0498 83.5876 68.4513 85.0849C68.4351 85.1332 67.8043 86.9685 69.2115 88.4013C69.4865 88.675 69.5674 89.0936 69.4056 89.4639C69.2439 89.818 68.9042 90.0273 68.4837 90.0273C67.1897 89.9629 66.0898 90.5586 65.1355 91.8627C65.1032 91.911 63.9386 93.6819 65.184 95.5011C65.4105 95.8392 65.4105 96.2739 65.184 96.5958C64.9414 96.9178 64.5371 97.0627 64.1489 96.95C62.7255 96.5475 61.3992 96.9983 60.2023 98.3185C60.1537 98.3668 58.6495 100.186 60.0567 102.279C60.2831 102.617 60.267 103.052 60.0243 103.374C59.7817 103.696 59.3612 103.841 58.973 103.712C57.2423 103.18 55.7704 103.744 54.5897 105.386C54.4603 105.579 53.2472 107.527 55.0102 109.443C55.2852 109.749 55.3337 110.2 55.1396 110.554C54.9293 110.908 54.525 111.101 54.1206 111.021C52.3091 110.667 50.8857 111.375 49.899 113.146C49.7858 113.355 48.783 115.48 50.8695 117.219C51.1768 117.477 51.2901 117.911 51.1445 118.298C50.9989 118.684 50.6431 118.909 50.2225 118.909C48.4433 118.845 47.2141 119.747 46.47 121.566C46.3891 121.775 45.6775 123.981 47.8934 125.446C48.2331 125.671 48.3948 126.09 48.2978 126.476C48.2007 126.879 47.8449 127.152 47.4405 127.184C45.5481 127.313 44.3511 128.424 43.8983 130.453C43.8983 130.533 43.4939 132.819 45.726 133.93C46.0818 134.107 46.2921 134.51 46.2436 134.912C46.1951 135.315 45.8877 135.637 45.4834 135.717C43.7203 136.071 42.7013 137.263 42.4425 139.243C42.4264 139.468 42.297 141.786 44.804 142.64C45.1922 142.769 45.451 143.139 45.451 143.541C45.451 143.944 45.1761 144.314 44.7879 144.443C43.041 145.022 42.1514 146.343 42.1676 148.387C42.1676 148.452 42.3131 150.754 44.707 151.366C45.1114 151.462 45.3863 151.816 45.4187 152.219C45.451 152.621 45.2246 153.008 44.8364 153.169C43.1704 153.877 42.4102 155.262 42.5881 157.29C42.6205 157.532 42.9925 159.85 45.6936 160.107C46.098 160.14 46.4377 160.446 46.5347 160.848C46.6318 161.251 46.4538 161.669 46.098 161.878C44.5129 162.828 43.9468 164.309 44.4158 166.29C44.432 166.354 45.0952 168.624 47.6508 168.64C48.0551 168.64 48.411 168.898 48.5404 169.268C48.6698 169.638 48.5727 170.057 48.2654 170.314C47.3111 171.119 46.3891 172.568 47.3273 174.903C47.4243 175.128 48.4595 177.237 51.096 176.706C51.5003 176.625 51.9047 176.802 52.115 177.157C52.3252 177.511 52.2767 177.945 52.0179 178.251C50.8695 179.588 50.7886 181.133 51.7915 182.856C51.9209 183.049 53.2472 184.997 55.7704 184.128C56.1586 183.999 56.5953 184.128 56.8379 184.45C57.0967 184.772 57.0967 185.222 56.8703 185.56C56.4659 186.156 56.2395 186.768 56.1748 187.396C56.0777 188.394 56.4659 189.392 57.2908 190.374C57.3394 190.422 58.9245 192.145 61.1889 191.066C61.5609 190.889 61.9815 190.97 62.2726 191.243C62.5638 191.533 62.6446 191.952 62.4667 192.322C62.2079 192.853 62.0947 193.385 62.1109 193.916C62.127 194.882 62.6284 195.816 63.5666 196.685C63.5666 196.685 64.6179 197.619 66.0089 197.538C66.5589 197.506 67.0926 197.313 67.6588 196.959C67.9984 196.733 68.4513 196.749 68.7748 197.007C69.0983 197.265 69.2115 197.699 69.0659 198.086C68.8395 198.681 68.7748 199.229 68.8395 199.776C68.9689 200.726 69.5512 201.595 70.6025 202.336C70.6025 202.336 71.5245 202.948 72.689 202.948C73.3846 202.948 74.0477 202.722 74.6624 202.255C74.9858 202.014 75.4226 201.998 75.7622 202.207C76.1019 202.416 76.2636 202.819 76.1828 203.221C76.0534 203.833 76.0534 204.397 76.1828 204.912C76.4254 205.862 77.0885 206.634 78.2046 207.262C78.2046 207.262 78.9324 207.6 79.8544 207.6C80.7764 207.6 81.5689 207.262 82.2482 206.602C82.5394 206.312 82.9761 206.248 83.3481 206.425C83.7201 206.602 83.9304 206.989 83.8657 207.391C83.7848 207.971 83.8334 208.518 84.0113 209.001C84.3348 209.902 85.095 210.627 86.2757 211.142C86.2757 211.142 86.8904 211.384 87.6829 211.384C88.7343 211.384 89.6077 210.965 90.287 210.144C90.5458 209.822 90.9825 209.709 91.3707 209.854C91.7589 209.999 92.0015 210.369 92.0015 210.772C91.9854 211.351 92.0824 211.883 92.3088 212.333C92.7132 213.171 93.5381 213.799 94.7512 214.169C94.7512 214.169 95.1556 214.265 95.7055 214.265C96.5951 214.265 97.8406 214.008 98.6816 212.8C98.9081 212.462 99.3286 212.317 99.7168 212.43C100.105 212.543 100.396 212.881 100.428 213.283C100.477 213.831 100.623 214.314 100.865 214.732C101.35 215.537 102.224 216.068 103.469 216.326C103.469 216.326 103.469 216.326 103.485 216.326C103.485 216.326 103.712 216.358 104.068 216.358C105.103 216.358 106.51 216.052 107.303 214.571C107.497 214.217 107.885 214.024 108.289 214.088C108.694 214.153 109.001 214.459 109.082 214.845C109.179 215.36 109.373 215.795 109.632 216.165C110.182 216.922 111.12 217.373 112.382 217.517C112.382 217.517 112.446 217.517 112.543 217.517C113.32 217.517 115.196 217.308 116.005 215.441C116.15 215.086 116.506 214.861 116.878 214.861L116.619 214.942Z" fill="black"/>
<path d="M106.12 53.353C100.75 53.353 96.3828 48.2817 96.3828 42.0352C96.3828 35.7887 100.75 30.7174 106.12 30.7174C111.49 30.7174 115.857 35.7887 115.857 42.0352C115.857 48.2817 111.49 53.353 106.12 53.353ZM106.12 32.6332C101.801 32.6332 98.2914 36.8512 98.2914 42.0352C98.2914 47.2192 101.801 51.4372 106.12 51.4372C110.439 51.4372 113.948 47.2192 113.948 42.0352C113.948 36.8512 110.439 32.6332 106.12 32.6332Z" fill="black"/>
<path d="M108.919 50.9703C111.983 50.9703 114.467 46.833 114.467 41.7293C114.467 36.6257 111.983 32.4883 108.919 32.4883C105.855 32.4883 103.371 36.6257 103.371 41.7293C103.371 46.833 105.855 50.9703 108.919 50.9703Z" fill="black"/>
<path d="M131.952 53.353C126.582 53.353 122.215 48.2817 122.215 42.0352C122.215 35.7887 126.582 30.7174 131.952 30.7174C137.322 30.7174 141.689 35.7887 141.689 42.0352C141.689 48.2817 137.322 53.353 131.952 53.353ZM131.952 32.6332C127.633 32.6332 124.123 36.8512 124.123 42.0352C124.123 47.2192 127.633 51.4372 131.952 51.4372C136.271 51.4372 139.78 47.2192 139.78 42.0352C139.78 36.8512 136.271 32.6332 131.952 32.6332Z" fill="black"/>
<path d="M134.767 50.9703C137.831 50.9703 140.315 46.833 140.315 41.7293C140.315 36.6257 137.831 32.4883 134.767 32.4883C131.703 32.4883 129.219 36.6257 129.219 41.7293C129.219 46.833 131.703 50.9703 134.767 50.9703Z" fill="black"/>
<path d="M119.143 66.4417C123.565 66.4417 127.15 63.1909 127.15 59.1809C127.15 55.1709 123.565 51.9202 119.143 51.9202C114.721 51.9202 111.137 55.1709 111.137 59.1809C111.137 63.1909 114.721 66.4417 119.143 66.4417Z" fill="#F1614E"/>
<path d="M119.145 67.4076C114.195 67.4076 110.168 63.7209 110.168 59.197C110.168 54.6731 114.195 50.9864 119.145 50.9864C124.094 50.9864 128.122 54.6731 128.122 59.197C128.122 63.7209 124.094 67.4076 119.145 67.4076ZM119.145 52.8861C115.247 52.8861 112.093 55.7196 112.093 59.197C112.093 62.6745 115.263 65.5079 119.145 65.5079C123.027 65.5079 126.197 62.6745 126.197 59.197C126.197 55.7196 123.027 52.8861 119.145 52.8861Z" fill="black"/>
<path d="M128.344 85.8896C145.894 85.1812 149.403 79.9329 149.403 79.9329C149.403 79.9329 152.04 77.3087 151.15 73.6702C150.277 70.0157 147.883 69.2268 147.883 69.2268C147.883 69.2268 144.777 67.633 139.424 69.5488C134.07 71.4646 123.314 71.8671 123.314 71.8671H115.663C115.663 71.8671 104.891 71.4485 99.5533 69.5488C94.2157 67.6491 91.094 69.2268 91.094 69.2268C91.094 69.2268 88.7001 70.0157 87.8267 73.6702C86.9533 77.3248 89.5735 79.9329 89.5735 79.9329C89.5735 79.9329 93.0834 85.1651 110.633 85.8896H128.344Z" fill="#F1614E"/>
<path d="M128.376 86.8395H110.649C93.7948 86.1472 89.4277 81.2852 88.8616 80.5447C88.441 80.0939 85.9825 77.2926 86.9045 73.4449C87.8102 69.6455 90.2526 68.5346 90.7217 68.3414C91.2231 68.116 94.5389 66.7315 99.8765 68.6312C105.02 70.4665 115.598 70.8851 115.711 70.9012H123.313C123.313 70.9012 133.956 70.4665 139.1 68.6312C144.438 66.7315 147.753 68.0999 148.255 68.3414C148.724 68.5185 151.166 69.6455 152.072 73.4449C152.994 77.3087 150.535 80.11 150.115 80.5447C149.549 81.2852 145.182 86.1472 128.376 86.8395ZM94.555 69.5489C92.6303 69.5489 91.5627 70.0479 91.5466 70.064L91.4172 70.1123C91.4172 70.1123 89.5086 70.8368 88.7807 73.8796C88.0367 76.9545 90.1879 79.1601 90.285 79.2567L90.3982 79.4016C90.3982 79.4016 94.0698 84.2475 110.697 84.9237H128.344C144.955 84.2475 148.594 79.4338 148.627 79.3855L148.74 79.2567C148.821 79.1601 150.972 76.9545 150.244 73.8796C149.516 70.8368 147.672 70.1445 147.592 70.1123L147.462 70.064C147.462 70.064 144.599 68.7117 139.763 70.4343C134.345 72.3662 123.815 72.7848 123.362 72.817H115.679C115.194 72.8009 104.664 72.3823 99.2457 70.4343C97.3694 69.7582 95.7843 69.565 94.555 69.565V69.5489Z" fill="black"/>
<path d="M119.578 79.5948C105.215 79.5948 94.4108 76.8257 94.249 76.7774C93.7314 76.6486 93.4403 76.1173 93.5697 75.6183C93.6991 75.1031 94.2328 74.8133 94.7342 74.9421C94.9769 75.0065 118.834 81.1081 142.579 74.9421C143.096 74.8133 143.614 75.1192 143.743 75.6183C143.873 76.1334 143.565 76.6486 143.064 76.7774C134.944 78.8864 126.808 79.5948 119.578 79.5948Z" fill="black"/>
<path d="M69.7464 105.692C69.7464 105.692 95.0273 113.79 97.0977 90.6067C97.0977 90.6067 97.0977 82.3478 100.931 82.8308C104.764 83.3137 103.665 89.5441 103.665 89.5441C103.665 89.5441 102.888 82.5249 106.527 82.9434C110.167 83.362 107.967 89.4958 107.967 89.4958C107.967 89.4958 108.08 82.8951 112.221 83.7162C116.345 84.5534 111.865 100.379 111.865 100.379C111.865 100.379 105.088 124.979 67.207 124.834" fill="white"/>
<path d="M67.5484 125.784C67.419 125.784 67.3058 125.784 67.1926 125.784C66.6588 125.784 66.2383 125.349 66.2383 124.834C66.2383 124.302 66.675 123.884 67.1926 123.884C67.3058 123.836 67.419 123.884 67.5323 123.884C78.0943 123.884 92.6838 121.807 102.971 112.067C109.182 106.191 110.896 100.202 110.913 100.137C112.239 95.4687 113.824 87.2419 112.465 85.0363C112.287 84.7465 112.126 84.6821 111.996 84.666C111.365 84.5372 110.864 84.6338 110.443 84.9719C110.071 85.2778 109.78 85.7447 109.554 86.276C109.489 87.9664 108.939 89.5602 108.842 89.8339C108.68 90.2686 108.228 90.5262 107.775 90.4457C107.322 90.3652 106.982 89.9627 106.998 89.4958C106.998 89.2221 107.063 87.5156 107.661 85.8896C107.661 85.31 107.564 84.7948 107.338 84.4407C107.209 84.2314 106.982 83.9738 106.4 83.9094C105.995 83.8611 105.704 83.9577 105.446 84.1992C105.025 84.6177 104.782 85.3905 104.653 86.2116C104.879 87.8859 104.621 89.4636 104.572 89.7212C104.491 90.1881 104.087 90.5262 103.602 90.5101C103.133 90.5101 102.728 90.1398 102.68 89.6568C102.647 89.3831 102.502 87.8376 102.712 86.2277C102.599 85.5837 102.405 84.9719 102.081 84.5211C101.758 84.0865 101.353 83.8611 100.787 83.7806C100.383 83.7323 100.059 83.8289 99.752 84.1026C98.3449 85.3422 98.0375 89.3187 98.0375 90.6228C97.4391 97.3362 94.932 102.166 90.5972 105.032C82.1703 110.586 69.9584 106.786 69.4409 106.609C68.9394 106.448 68.6645 105.917 68.8262 105.418C68.988 104.919 69.5379 104.645 70.0231 104.806C70.1364 104.838 81.8791 108.509 89.5459 103.438C93.3793 100.91 95.5952 96.5634 96.1289 90.5423C96.1289 90.0271 96.1936 84.6982 98.4904 82.6858C99.2021 82.058 100.076 81.7843 101.03 81.9131C102.097 82.0419 103.003 82.557 103.634 83.4103C103.763 83.201 103.925 83.0078 104.103 82.8307C104.766 82.1707 105.64 81.8809 106.626 81.9936C107.645 82.1063 108.47 82.6053 108.972 83.4103C109.02 83.4747 109.052 83.5391 109.085 83.6196C109.149 83.5713 109.198 83.523 109.263 83.4747C110.12 82.7824 111.204 82.557 112.384 82.7824C113.096 82.9273 113.678 83.362 114.099 84.0382C116.331 87.6927 113.128 99.3325 112.756 100.653C112.692 100.894 105.381 125.784 67.5323 125.8L67.5484 125.784Z" fill="black"/>
<path d="M170.692 105.692C170.692 105.692 145.411 113.79 143.34 90.6067C143.34 90.6067 143.34 82.3478 139.507 82.8308C135.674 83.3137 136.774 89.5441 136.774 89.5441C136.774 89.5441 137.55 82.5249 133.911 82.9434C130.255 83.362 132.471 89.4958 132.471 89.4958C132.471 89.4958 132.358 82.8951 128.217 83.7162C124.077 84.5373 128.573 100.379 128.573 100.379C128.573 100.379 135.35 124.979 173.231 124.834" fill="white"/>
<path d="M172.906 125.784C161.956 125.784 146.8 123.594 136.06 113.355C129.509 107.108 127.746 100.894 127.682 100.637C127.31 99.3325 124.107 87.6766 126.339 84.0382C126.76 83.362 127.342 82.9274 128.054 82.7825C129.234 82.541 130.318 82.7825 131.175 83.4747C131.24 83.523 131.289 83.5713 131.353 83.6196C131.386 83.5552 131.434 83.4747 131.466 83.4103C131.968 82.6054 132.777 82.1063 133.812 81.9936C134.798 81.8809 135.672 82.1707 136.335 82.8308C136.513 83.0079 136.659 83.2011 136.804 83.4103C137.435 82.5571 138.324 82.0419 139.408 81.9131C140.362 81.8004 141.236 82.0741 141.948 82.6859C144.244 84.7144 144.309 90.0271 144.309 90.6228C144.843 96.5634 147.059 100.91 150.892 103.438C158.559 108.493 170.286 104.838 170.399 104.79C170.9 104.629 171.434 104.903 171.596 105.402C171.757 105.901 171.482 106.432 170.981 106.593C170.463 106.754 158.252 110.57 149.825 105.016C145.474 102.15 142.967 97.3362 142.384 90.7033C142.384 88.6748 141.915 85.1974 140.654 84.1026C140.346 83.8289 140.023 83.7323 139.618 83.7806C139.052 83.845 138.648 84.0865 138.325 84.5212C137.985 84.972 137.791 85.5837 137.694 86.2277C137.904 87.8537 137.758 89.3832 137.726 89.6569C137.678 90.1237 137.273 90.494 136.804 90.5101C136.319 90.5423 135.914 90.1881 135.834 89.7213C135.785 89.4637 135.526 87.8859 135.753 86.2116C135.623 85.3584 135.365 84.5856 134.96 84.1831C134.718 83.9416 134.426 83.845 134.006 83.8933C133.424 83.9577 133.197 84.2153 133.068 84.4246C132.841 84.7949 132.744 85.3101 132.744 85.8574C133.359 87.4835 133.407 89.19 133.407 89.4798C133.407 89.9466 133.084 90.3491 132.631 90.4296C132.178 90.5101 131.709 90.2525 131.564 89.8179C131.466 89.5442 130.917 87.9503 130.852 86.2599C130.625 85.7286 130.334 85.2618 129.962 84.972C129.542 84.6339 129.056 84.5373 128.409 84.6661C128.28 84.6983 128.118 84.7627 127.94 85.0364C126.582 87.2581 128.167 95.4687 129.493 100.137C129.509 100.202 131.24 106.191 137.435 112.067C143.145 117.476 153.901 123.884 172.857 123.884C172.97 123.884 173.116 123.884 173.213 123.884C173.747 123.884 174.167 124.302 174.167 124.834C174.167 125.365 173.747 125.784 173.213 125.784C173.1 125.784 172.987 125.784 172.873 125.784H172.906Z" fill="black"/>
</svg>
