<svg width="244" height="266" viewBox="0 0 244 266" fill="none" xmlns="http://www.w3.org/2000/svg">
<ellipse cx="121.5" cy="247" rx="74.5" ry="19" fill="#D9D9D9" fill-opacity="0.5"/>
<g clip-path="url(#clip0_38_5039)">
<path d="M145.398 194.361L159.037 208.445L166.552 224.43L177.687 217.775C177.687 217.775 183.123 211.892 182.862 211.892C182.601 211.892 162.053 203.679 162.053 203.679L148.935 189.845L145.398 194.338V194.361Z" fill="#FFE800"/>
<path d="M180.927 212.367C180.797 212.367 180.666 212.343 180.536 212.296L161.969 204.832C161.827 204.773 161.708 204.689 161.601 204.583L147.416 189.655C147.024 189.239 147.036 188.573 147.451 188.181C147.867 187.789 148.532 187.801 148.923 188.217L162.943 202.978L181.295 210.359C181.829 210.573 182.091 211.179 181.877 211.714C181.711 212.118 181.319 212.367 180.904 212.367H180.927Z" fill="black"/>
<path d="M165.139 222.909C164.747 222.909 164.379 222.695 164.201 222.315L157.981 209.432L145.362 195.788C144.97 195.36 144.994 194.706 145.421 194.314C145.849 193.922 146.502 193.945 146.893 194.373L159.607 208.136C159.678 208.207 159.738 208.303 159.785 208.386L166.077 221.412C166.326 221.935 166.112 222.553 165.59 222.802C165.448 222.873 165.293 222.909 165.139 222.909Z" fill="black"/>
<path d="M170.113 221.293C169.769 221.293 169.424 221.126 169.235 220.805L162.658 210.418C162.349 209.931 162.492 209.289 162.979 208.98C163.465 208.671 164.106 208.814 164.415 209.301L170.991 219.688C171.3 220.176 171.158 220.817 170.671 221.126C170.493 221.233 170.303 221.293 170.113 221.293Z" fill="black"/>
<path d="M176.832 217.632C176.642 217.632 176.452 217.585 176.274 217.466L168.237 212.343C167.751 212.034 167.608 211.393 167.917 210.905C168.225 210.418 168.867 210.275 169.353 210.584L177.39 215.707C177.877 216.016 178.019 216.658 177.71 217.145C177.509 217.454 177.176 217.632 176.832 217.632Z" fill="black"/>
<path d="M101.582 198.878L101.286 230.492C101.286 230.492 89.7233 228.055 89.0348 236.541C88.3463 245.039 98.2822 245.574 98.2822 245.574C98.2822 245.574 111.305 248.153 112.872 239.655C114.439 231.157 114.913 205.545 114.913 205.545L114.89 199.401L101.582 198.878Z" fill="#FFE800"/>
<path d="M102.52 247C100.3 247 98.5316 246.691 98.1517 246.62C97.4632 246.572 92.7148 246.12 89.937 242.923C88.4413 241.212 87.7884 239.037 88.0021 236.458C88.192 234.105 89.1536 232.274 90.8392 231.015C93.7713 228.828 98.1398 229.018 100.265 229.279L100.55 198.866C100.55 198.581 100.668 198.319 100.87 198.117C101.072 197.927 101.357 197.82 101.63 197.832L114.937 198.355C115.495 198.379 115.934 198.83 115.934 199.389L115.958 205.533C115.934 206.603 115.471 231.359 113.892 239.845C113.489 242.032 112.373 243.755 110.592 244.98C108.218 246.596 105.061 247 102.52 247ZM97.7362 231.217C95.8844 231.217 93.6526 231.514 92.0738 232.69C90.8748 233.594 90.2219 234.877 90.0795 236.636C89.9133 238.621 90.4 240.273 91.504 241.545C93.8544 244.255 98.306 244.54 98.3535 244.54C98.401 244.54 98.4485 244.54 98.4959 244.564C98.5672 244.575 105.547 245.907 109.441 243.256C110.77 242.353 111.554 241.117 111.863 239.477C113.406 231.157 113.881 205.795 113.892 205.533L113.869 200.411L102.639 199.971L102.342 230.516C102.342 230.825 102.2 231.122 101.95 231.324C101.701 231.514 101.381 231.597 101.084 231.538C101.06 231.538 99.5999 231.24 97.7481 231.24L97.7362 231.217Z" fill="black"/>
<path d="M129.455 198.901L130.001 230.516C130.001 230.516 118.38 228.388 117.917 236.898C117.454 245.407 127.402 245.681 127.402 245.681C127.402 245.681 140.483 247.903 141.837 239.37C143.178 230.836 142.964 205.212 142.964 205.212L142.774 199.068L129.455 198.901Z" fill="#FFE800"/>
<path d="M131.022 246.988C129.123 246.988 127.663 246.774 127.318 246.715C126.63 246.679 121.87 246.358 119.009 243.244C117.466 241.569 116.753 239.417 116.896 236.838C117.026 234.485 117.929 232.619 119.579 231.312C122.451 229.042 126.82 229.113 128.957 229.315L128.422 198.913C128.422 198.628 128.529 198.355 128.731 198.165C128.933 197.974 129.206 197.856 129.479 197.856L142.798 198.022C143.356 198.022 143.807 198.474 143.831 199.032L144.021 205.177C144.021 206.246 144.223 231.003 142.881 239.524C142.537 241.723 141.468 243.482 139.723 244.742C137.183 246.572 133.681 246.988 131.034 246.988H131.022ZM126.974 231.324C125.051 231.324 122.558 231.633 120.872 232.964C119.697 233.891 119.08 235.198 118.973 236.957C118.866 238.942 119.389 240.582 120.528 241.83C122.95 244.468 127.401 244.635 127.449 244.647C127.496 244.647 127.544 244.647 127.591 244.659C127.663 244.671 134.678 245.811 138.501 243.054C139.795 242.115 140.554 240.855 140.816 239.215C142.133 230.86 141.931 205.486 141.931 205.236L141.765 200.114L130.524 199.971L131.058 230.504C131.058 230.813 130.927 231.11 130.69 231.312C130.452 231.514 130.132 231.597 129.823 231.55C129.799 231.55 128.577 231.336 126.962 231.336L126.974 231.324Z" fill="black"/>
<path d="M138.679 132.571C138.679 132.571 158.266 165.065 152.71 187.171C147.155 209.277 126.547 210.002 126.547 210.002H114.26C114.26 210.002 93.6526 209.265 88.097 187.171C82.5415 165.065 102.128 132.571 102.128 132.571H138.679Z" fill="#FFE800"/>
<path d="M114.26 211.048C114.011 211.048 92.7623 210.026 87.0761 187.421C84.7138 178.043 86.3876 165.861 92.05 151.207C96.2405 140.356 101.179 132.12 101.226 132.037C101.416 131.728 101.749 131.537 102.117 131.537H138.667C139.035 131.537 139.367 131.728 139.557 132.037C139.605 132.12 144.555 140.368 148.734 151.207C154.396 165.861 156.07 178.043 153.707 187.421C148.021 210.026 126.772 211.036 126.559 211.048H114.237H114.26ZM102.722 133.617C100.312 137.801 84.0847 166.967 89.1061 186.91C91.3378 195.764 96.2523 202.17 103.731 205.937C109.31 208.742 114.249 208.956 114.296 208.956H126.535C126.535 208.956 131.556 208.73 137.148 205.902C144.579 202.134 149.481 195.74 151.701 186.91C156.723 166.955 140.495 137.801 138.085 133.617H102.734H102.722Z" fill="black"/>
<path d="M133.349 170.068C133.349 170.068 142.822 172.766 145.695 177.722C145.695 177.722 142.739 193.042 137.266 193.304C131.794 193.565 136.922 193.304 136.922 193.304L134.666 191.913L131.188 191.735L129.883 190.344C129.883 190.344 126.143 189.821 127.366 185.733C128.589 181.644 133.8 178.602 133.361 170.068H133.349Z" fill="#F37448"/>
<path d="M129.645 190.939C128.885 190.939 128.031 190.653 127.212 189.869C125.419 188.146 126.464 185.412 127.366 184.069L129.301 180.539C134.619 169.141 131.343 158.1 131.307 157.993C131.141 157.447 131.449 156.852 131.996 156.686C132.542 156.52 133.123 156.829 133.301 157.375C133.444 157.851 136.839 169.296 131.153 181.478L129.135 185.151C129.075 185.246 127.686 187.432 128.648 188.348C129.538 189.203 130.144 188.728 130.262 188.621C130.298 188.585 130.345 188.55 130.381 188.526C130.405 188.514 132.732 186.886 133.907 183.38C134.097 182.833 134.678 182.536 135.224 182.726C135.77 182.904 136.067 183.499 135.877 184.045C134.572 187.955 132.055 189.905 131.604 190.225C131.153 190.618 130.44 190.939 129.633 190.939H129.645Z" fill="black"/>
<path d="M132.91 193.149C132.328 193.149 131.782 193.018 131.26 192.769C129.657 191.984 129.087 190.297 129.016 190.107C128.838 189.56 129.147 188.966 129.693 188.799C130.239 188.621 130.82 188.93 130.998 189.477C131.01 189.512 131.366 190.523 132.185 190.915C132.648 191.141 133.195 191.129 133.859 190.879C136.435 189.928 137.444 186.006 137.456 185.971C137.587 185.412 138.157 185.067 138.714 185.198C139.272 185.329 139.617 185.899 139.486 186.458C139.439 186.66 138.24 191.497 134.583 192.84C134.002 193.054 133.444 193.161 132.91 193.161V193.149Z" fill="black"/>
<path d="M137.219 194.599C136.874 194.599 136.578 194.54 136.328 194.445C134.714 193.874 134.168 191.937 134.109 191.723C133.966 191.164 134.298 190.594 134.856 190.451C135.414 190.309 135.984 190.641 136.127 191.188C136.222 191.545 136.566 192.317 137.029 192.484C137.42 192.614 137.978 192.27 138.287 192.044C140.626 190.32 147 180.753 145.778 160.049C145.742 159.479 146.181 158.98 146.751 158.944C147.356 158.909 147.819 159.348 147.855 159.919C149.149 181.656 142.276 191.687 139.522 193.708C138.619 194.373 137.848 194.575 137.219 194.575V194.599Z" fill="black"/>
<path d="M107.328 170.068C107.328 170.068 97.8548 172.766 94.9821 177.722C94.9821 177.722 97.9379 193.042 103.41 193.304C108.883 193.565 103.755 193.304 103.755 193.304L106.01 191.913L109.488 191.735L110.794 190.344C110.794 190.344 114.533 189.821 113.311 185.733C112.088 181.644 106.877 178.602 107.316 170.068H107.328Z" fill="#F37448"/>
<path d="M111.032 190.939C110.224 190.939 109.512 190.618 109.061 190.225C108.61 189.905 106.093 187.967 104.788 184.045C104.609 183.499 104.894 182.904 105.44 182.726C105.986 182.548 106.58 182.833 106.758 183.38C107.933 186.886 110.26 188.514 110.284 188.538C110.319 188.562 110.367 188.597 110.402 188.633C110.652 188.847 111.222 189.108 112.017 188.359C112.967 187.444 111.59 185.258 111.578 185.234L109.548 181.549C103.838 169.308 107.221 157.863 107.375 157.375C107.542 156.829 108.123 156.52 108.681 156.686C109.227 156.852 109.536 157.435 109.37 157.993C109.334 158.1 106.081 169.177 111.411 180.611L113.358 184.152C114.213 185.412 115.258 188.146 113.465 189.869C112.646 190.653 111.791 190.939 111.032 190.939Z" fill="black"/>
<path d="M107.767 193.149C107.233 193.149 106.675 193.042 106.093 192.828C102.425 191.485 101.238 186.648 101.191 186.446C101.06 185.887 101.404 185.329 101.962 185.186C102.508 185.056 103.078 185.4 103.221 185.959C103.221 185.994 104.206 189.916 106.817 190.867C107.482 191.105 108.028 191.117 108.491 190.903C109.322 190.511 109.666 189.477 109.678 189.465C109.856 188.918 110.45 188.621 110.996 188.799C111.542 188.978 111.839 189.56 111.673 190.107C111.613 190.297 111.032 191.984 109.429 192.769C108.919 193.018 108.361 193.149 107.779 193.149H107.767Z" fill="black"/>
<path d="M103.458 194.599C102.841 194.599 102.057 194.385 101.155 193.732C98.4009 191.699 91.5277 181.668 92.8216 159.943C92.8572 159.372 93.3439 158.932 93.9256 158.968C94.4954 159.004 94.9346 159.491 94.899 160.073C93.6763 180.777 100.051 190.344 102.39 192.068C102.686 192.293 103.256 192.638 103.648 192.507C104.111 192.341 104.455 191.568 104.55 191.212C104.704 190.653 105.274 190.332 105.82 190.475C106.378 190.618 106.711 191.188 106.556 191.747C106.497 191.961 105.951 193.898 104.336 194.468C104.087 194.552 103.79 194.623 103.446 194.623L103.458 194.599Z" fill="black"/>
<path d="M168.047 132.001C170.422 138.086 163.679 143.684 158.135 140.225C159.31 146.655 151.63 150.874 146.846 146.429C146.787 152.966 138.441 155.652 134.595 150.375C133.301 156.781 124.6 157.839 121.822 151.932C119.341 157.981 110.604 157.363 108.978 151.041C105.405 156.508 96.9289 154.25 96.5372 147.725C91.9906 152.419 84.0965 148.592 84.9512 142.115C79.5974 145.859 72.5698 140.618 74.6354 134.414C68.6762 137.076 62.7645 130.598 65.9578 124.894C59.6068 126.379 55.0247 118.892 59.2388 113.9C52.7217 114.15 49.6353 105.937 54.716 101.837C48.2583 100.85 46.7982 92.1981 52.5555 89.1318C46.4064 86.945 46.5963 78.162 52.8404 76.2485C47.2136 72.9326 49.0655 64.3516 55.547 63.6504C50.6562 59.3243 54.0869 51.2544 60.5921 51.7892C56.6035 46.6192 61.4943 39.3456 67.7859 41.1046C64.8419 35.2691 71.0266 29.0532 76.8671 31.9769C75.0865 25.6898 82.3277 20.7575 87.5153 24.7271C86.9455 18.2141 95.0058 14.7437 99.3387 19.6285C100.015 13.1274 108.574 11.2495 111.91 16.8593C113.809 10.6078 122.57 10.3819 124.778 16.5265C127.817 10.7385 136.471 12.1766 137.48 18.642C141.563 13.5433 149.778 16.5859 149.553 23.1226C154.526 18.8916 162.017 23.4435 160.557 29.8139C166.243 26.593 172.736 32.488 170.101 38.4661C176.286 36.3863 181.556 43.3984 177.841 48.7704C184.31 47.8909 188.157 55.7826 183.491 60.3464C190.009 60.7148 192.3 69.1888 186.851 72.79C193.178 74.3825 193.819 83.1418 187.789 85.6376C193.7 88.4068 192.679 97.1185 186.281 98.4377C191.564 102.277 188.916 110.644 182.387 110.727C186.851 115.493 182.66 123.206 176.238 122.053C179.716 127.58 174.149 134.354 168.059 132.013L168.047 132.001Z" fill="#FFE800"/>
<path d="M115.578 157.185C115.388 157.185 115.198 157.185 115.008 157.162C112.231 156.971 109.88 155.415 108.646 153.049C106.711 154.88 103.992 155.593 101.298 154.88C98.6028 154.167 96.5966 152.194 95.825 149.638C93.5814 151.065 90.7799 151.255 88.2633 150.043C85.7585 148.83 84.1559 146.513 83.8829 143.862C81.4019 144.849 78.6122 144.492 76.3805 142.828C74.1488 141.164 73.0211 138.585 73.2466 135.923C70.635 136.422 67.9522 135.543 66.0766 133.487C64.201 131.431 63.5718 128.685 64.3078 126.118C61.6487 126.118 59.1796 124.739 57.7314 122.362C56.2712 119.985 56.1881 117.169 57.3871 114.792C54.7755 114.281 52.615 112.474 51.6416 109.859C50.6682 107.245 51.1074 104.464 52.7337 102.36C50.2646 101.362 48.4839 99.1748 48.021 96.4294C47.558 93.684 48.5077 91.0336 50.5139 89.2746C48.2703 87.8247 46.9407 85.3526 47.0001 82.5596C47.0594 79.7667 48.4958 77.354 50.7988 75.9991C48.8757 74.157 48.0328 71.471 48.6264 68.7374C49.2081 66.0157 51.0837 63.9121 53.5884 63.0207C52.0571 60.8458 51.7366 58.0409 52.8287 55.4857C53.9208 52.9185 56.1525 51.2071 58.7879 50.8149C57.6957 48.3903 57.9094 45.5736 59.4645 43.2679C61.0196 40.9503 63.5481 39.6905 66.1953 39.8094C65.578 37.2184 66.3259 34.4968 68.2846 32.5239C70.2551 30.551 72.9617 29.7903 75.5496 30.3965C75.4308 27.7342 76.6773 25.2027 78.9802 23.6458C81.2832 22.077 84.0847 21.8512 86.5183 22.9327C86.91 20.2942 88.6075 18.048 91.1598 16.9546C93.7239 15.8493 96.5135 16.1583 98.6978 17.6914C99.5762 15.1718 101.665 13.294 104.396 12.6997C107.114 12.1055 109.797 12.9374 111.661 14.8509C113.002 12.5215 115.412 11.0715 118.19 11.0002C120.979 10.9289 123.46 12.2481 124.909 14.4825C126.666 12.4739 129.301 11.5112 132.043 11.9629C134.785 12.4145 136.981 14.1854 137.99 16.6574C140.092 15.0173 142.857 14.5657 145.481 15.5402C148.093 16.5148 149.909 18.666 150.431 21.2807C152.805 20.0684 155.619 20.1516 157.993 21.6016C160.379 23.0516 161.744 25.5117 161.768 28.174C164.332 27.4371 167.074 28.0432 169.14 29.9211C171.205 31.7989 172.084 34.4611 171.609 37.0877C174.244 36.85 176.832 37.9672 178.506 40.2016C180.18 42.4359 180.536 45.217 179.574 47.701C182.221 47.9625 184.548 49.5551 185.771 52.0628C186.993 54.5705 186.815 57.3754 185.403 59.6335C187.955 60.3941 189.937 62.3908 190.662 65.0887C191.386 67.7866 190.685 70.5083 188.869 72.4455C191.231 73.6816 192.798 76.011 193 78.804C193.202 81.5851 192.003 84.1284 189.842 85.6973C191.932 87.3493 193.024 89.9521 192.691 92.7213C192.371 95.4905 190.697 97.7605 188.287 98.8896C190.02 100.91 190.602 103.667 189.759 106.318C188.917 108.98 186.851 110.893 184.275 111.535C185.593 113.853 185.652 116.658 184.322 119.118C182.993 121.566 180.607 123.052 177.948 123.206C178.803 125.726 178.328 128.507 176.559 130.658C174.79 132.809 172.155 133.82 169.531 133.463C169.899 136.101 168.902 138.74 166.754 140.511C164.605 142.294 161.839 142.781 159.322 141.937C159.18 144.599 157.708 147 155.263 148.331C152.817 149.674 150.004 149.627 147.689 148.319C147.048 150.91 145.149 152.978 142.489 153.834C139.842 154.69 137.088 154.119 135.058 152.384C133.942 154.808 131.687 156.472 128.921 156.817C126.155 157.15 123.555 156.068 121.893 153.988C120.445 156.009 118.154 157.197 115.602 157.197L115.578 157.185ZM108.978 149.995C108.978 149.995 109.097 149.995 109.144 150.007C109.548 150.078 109.88 150.375 109.987 150.779C110.747 153.739 113.145 154.951 115.151 155.082C117.145 155.224 119.697 154.357 120.861 151.528C121.015 151.148 121.383 150.886 121.799 150.886C122.167 150.886 122.594 151.112 122.772 151.481C124.078 154.25 126.666 154.975 128.648 154.725C130.63 154.488 132.981 153.156 133.574 150.161C133.658 149.757 133.966 149.436 134.37 149.353C134.773 149.27 135.189 149.425 135.438 149.757C137.243 152.229 139.925 152.443 141.825 151.837C143.736 151.219 145.778 149.472 145.801 146.418C145.801 146.002 146.051 145.633 146.431 145.467C146.81 145.3 147.25 145.384 147.558 145.657C149.802 147.737 152.473 147.452 154.23 146.489C155.987 145.526 157.66 143.423 157.114 140.416C157.043 140.012 157.209 139.596 157.554 139.358C157.898 139.12 158.337 139.12 158.693 139.334C161.281 140.951 163.857 140.166 165.4 138.883C166.943 137.599 168.19 135.222 167.086 132.37C166.932 131.989 167.027 131.55 167.323 131.252C167.62 130.955 168.059 130.872 168.439 131.015C171.288 132.12 173.662 130.848 174.933 129.303C176.203 127.758 176.986 125.179 175.36 122.588C175.134 122.244 175.146 121.792 175.372 121.447C175.597 121.103 176.013 120.924 176.416 121.008C179.42 121.542 181.509 119.855 182.471 118.096C183.432 116.337 183.705 113.651 181.616 111.428C181.331 111.131 181.26 110.691 181.414 110.311C181.568 109.931 181.948 109.681 182.364 109.681C185.415 109.645 187.16 107.589 187.765 105.676C188.37 103.762 188.133 101.088 185.664 99.2937C185.331 99.056 185.165 98.6281 185.26 98.224C185.343 97.8199 185.664 97.499 186.067 97.4158C189.059 96.7978 190.377 94.4565 190.614 92.4598C190.851 90.4631 190.115 87.8841 187.35 86.5886C186.97 86.4104 186.744 86.03 186.744 85.6141C186.744 85.1981 187.005 84.8297 187.385 84.6752C190.21 83.4985 191.053 80.9433 190.911 78.9466C190.768 76.9499 189.558 74.5492 186.59 73.8004C186.186 73.7053 185.889 73.3725 185.818 72.9685C185.747 72.5644 185.925 72.1484 186.269 71.9226C188.822 70.2349 189.166 67.5727 188.643 65.6354C188.121 63.6982 186.471 61.5708 183.42 61.3925C183.005 61.3687 182.649 61.1073 182.506 60.715C182.364 60.3228 182.459 59.895 182.756 59.5979C184.94 57.4586 184.774 54.7726 183.895 52.966C183.017 51.1595 181.011 49.3887 177.972 49.7928C177.556 49.8522 177.152 49.6501 176.939 49.3055C176.725 48.9489 176.737 48.5092 176.974 48.1645C178.719 45.6568 178.055 43.0421 176.844 41.4376C175.645 39.8331 173.318 38.4664 170.434 39.4409C170.042 39.5717 169.614 39.4647 169.33 39.1557C169.045 38.8467 168.973 38.4069 169.14 38.0266C170.374 35.2337 169.223 32.7972 167.739 31.4423C166.255 30.0993 163.726 29.1961 161.067 30.7055C160.711 30.9075 160.26 30.8838 159.928 30.6342C159.595 30.3846 159.441 29.9686 159.536 29.5645C160.213 26.5814 158.634 24.4064 156.924 23.3724C155.215 22.3266 152.556 21.9225 150.229 23.9073C149.909 24.1806 149.47 24.2282 149.102 24.0499C148.734 23.8716 148.496 23.4913 148.508 23.0753C148.615 20.0209 146.644 18.1906 144.769 17.4894C142.893 16.7882 140.198 16.8951 138.299 19.284C138.038 19.6049 137.611 19.7475 137.219 19.6406C136.815 19.5336 136.518 19.2008 136.459 18.7967C135.984 15.7779 133.705 14.3518 131.734 14.019C129.764 13.6862 127.14 14.3042 125.716 17.014C125.526 17.3824 125.134 17.5963 124.719 17.5726C124.303 17.5488 123.947 17.2755 123.805 16.8833C122.772 14.0071 120.22 13.0325 118.261 13.0919C116.255 13.1395 113.798 14.2448 112.919 17.1685C112.8 17.5607 112.456 17.8578 112.053 17.9054C111.637 17.9529 111.245 17.7627 111.032 17.4062C109.477 14.7796 106.829 14.3042 104.871 14.7321C102.912 15.1599 100.716 16.705 100.395 19.7475C100.348 20.1635 100.075 20.5082 99.6831 20.6389C99.2913 20.7696 98.864 20.6389 98.5791 20.3418C96.5491 18.0599 93.8663 18.0836 92.0263 18.8799C90.1864 19.6762 88.3108 21.6016 88.5838 24.656C88.6194 25.072 88.4057 25.4642 88.0496 25.6662C87.6816 25.8683 87.2424 25.8326 86.91 25.5831C84.4883 23.729 81.853 24.2638 80.1911 25.3929C78.5291 26.522 77.0572 28.7682 77.9 31.7157C78.0187 32.1198 77.8762 32.5358 77.5676 32.8091C77.2471 33.0706 76.8079 33.1181 76.4399 32.9399C73.7096 31.5731 71.2286 32.6071 69.8159 34.0214C68.4033 35.4476 67.3824 37.9315 68.7594 40.6651C68.9493 41.0335 68.9019 41.4852 68.6288 41.7942C68.3677 42.1151 67.9403 42.2458 67.5367 42.1388C64.5927 41.3188 62.3491 42.7925 61.2333 44.4564C60.1174 46.1203 59.5832 48.7588 61.4469 51.1833C61.6962 51.5161 61.7318 51.9558 61.5419 52.3243C61.3401 52.6927 60.9484 52.8947 60.5448 52.871C57.4939 52.6214 55.5709 54.4992 54.7874 56.3414C54.0039 58.1835 53.9802 60.8814 56.2712 62.9019C56.5799 63.1752 56.6986 63.6031 56.5799 63.9953C56.4493 64.3875 56.105 64.6727 55.7014 64.7203C52.6625 65.0531 51.1311 67.2637 50.7157 69.2247C50.2883 71.1857 50.775 73.8361 53.4104 75.3811C53.7665 75.595 53.9683 75.9872 53.9208 76.4032C53.8733 76.8192 53.5884 77.152 53.1967 77.2827C50.2764 78.186 49.1843 80.6462 49.1487 82.6428C49.1012 84.6514 50.0865 87.1591 52.9593 88.1812C53.351 88.3238 53.624 88.6804 53.6478 89.0845C53.6715 89.4886 53.4578 89.8927 53.1017 90.0828C50.407 91.5209 49.8016 94.1475 50.134 96.1204C50.4664 98.0933 51.9028 100.375 54.9298 100.839C55.3334 100.898 55.6658 101.195 55.7845 101.599C55.8914 102.003 55.7489 102.419 55.4284 102.681C53.0542 104.606 52.9593 107.292 53.6596 109.17C54.36 111.048 56.1881 113.009 59.2508 112.89C59.6901 112.878 60.0462 113.104 60.2242 113.472C60.4023 113.841 60.3548 114.293 60.0818 114.602C58.1112 116.943 58.5267 119.593 59.5713 121.305C60.616 123.016 62.7884 124.597 65.7679 123.896C66.1716 123.8 66.587 123.955 66.8363 124.288C67.0856 124.621 67.1094 125.06 66.9075 125.429C65.4118 128.091 66.3259 130.634 67.6792 132.108C69.0324 133.594 71.466 134.723 74.2556 133.487C74.6355 133.32 75.0747 133.392 75.3834 133.665C75.692 133.938 75.7988 134.378 75.6683 134.77C74.7067 137.67 76.0837 139.988 77.6863 141.188C79.2889 142.389 81.9005 143.042 84.4052 141.295C84.7495 141.057 85.1887 141.046 85.5448 141.26C85.901 141.473 86.0909 141.878 86.0434 142.294C85.6517 145.324 87.4323 147.333 89.2367 148.212C91.0411 149.08 93.7239 149.234 95.8488 147.036C96.1337 146.739 96.5729 146.643 96.9646 146.786C97.3564 146.929 97.6175 147.285 97.6413 147.701C97.8312 150.756 99.9561 152.396 101.891 152.907C103.826 153.418 106.497 153.061 108.159 150.506C108.349 150.209 108.681 150.031 109.037 150.031L108.978 149.995Z" fill="black"/>
<path d="M120.469 126.926C131.96 126.926 140.068 121.138 140.198 121.043C140.899 120.532 141.053 119.557 140.543 118.856C140.032 118.155 139.059 118.012 138.358 118.511C137.67 119.011 121.252 130.646 102.211 118.012C101.499 117.537 100.526 117.727 100.039 118.452C99.5643 119.177 99.7542 120.14 100.478 120.627C107.625 125.369 114.51 126.926 120.481 126.926H120.469Z" fill="black"/>
<path d="M120.493 126.296C121.359 126.296 122.06 125.595 122.06 124.727V116.051C122.06 115.184 121.359 114.483 120.493 114.483C119.626 114.483 118.926 115.184 118.926 116.051V124.727C118.926 125.595 119.626 126.296 120.493 126.296Z" fill="black"/>
<path d="M130.654 100.803L111.186 100.743C111.186 100.743 106.366 114.328 118.415 115.54C130.464 116.752 131.093 109.954 131.093 109.954C131.093 109.954 131.794 104.119 130.654 100.815V100.803Z" fill="#F15F5A"/>
<path d="M121.371 116.883C125.894 116.681 129.111 115.279 130.986 112.7C133.752 108.908 132.482 104.059 132.423 103.857L129.325 88.799C129.206 88.2285 128.66 87.872 128.09 87.9908C127.52 88.1097 127.164 88.6564 127.283 89.2269L130.405 104.356C130.429 104.463 131.485 108.528 129.301 111.499C127.817 113.532 125.134 114.637 121.335 114.815H120.504C116.741 114.649 114.059 113.52 112.575 111.487C110.39 108.492 111.459 104.463 111.471 104.416L114.605 89.2269C114.723 88.6564 114.355 88.1097 113.797 87.9908C113.239 87.872 112.682 88.2404 112.563 88.799L109.441 103.929C109.405 104.071 108.123 108.92 110.889 112.712C112.765 115.291 115.982 116.693 120.457 116.895H121.383L121.371 116.883Z" fill="black"/>
<path d="M134.833 91.7346C141.199 91.7346 146.359 85.7537 146.359 78.3759C146.359 70.9981 141.199 65.0172 134.833 65.0172C128.467 65.0172 123.306 70.9981 123.306 78.3759C123.306 85.7537 128.467 91.7346 134.833 91.7346Z" fill="white"/>
<path d="M130.12 66.0155C130.12 66.0155 122.178 69.2363 123.828 80.8836C123.828 80.8836 124.291 88.0146 130.583 90.2371C130.583 90.2371 138.263 86.3388 137.005 75.987C137.005 75.987 136.21 66.7524 130.12 66.0155Z" fill="#0090CF"/>
<path d="M122.214 78.162C122.214 70.1634 127.853 63.6624 134.785 63.6624C141.718 63.6624 147.356 70.1634 147.356 78.162C147.356 86.1606 141.718 92.6617 134.785 92.6617C127.853 92.6617 122.214 86.1606 122.214 78.162ZM124.303 78.162C124.303 85.0078 129.004 90.5818 134.785 90.5818C140.566 90.5818 145.267 85.0078 145.267 78.162C145.267 71.3163 140.566 65.7422 134.785 65.7422C129.004 65.7422 124.303 71.3163 124.303 78.162Z" fill="black"/>
<path d="M130.559 91.4376C130.725 91.4376 130.903 91.4019 131.058 91.3068C137.777 87.6463 138.299 78.7325 138.311 78.3522C138.762 68.4877 131.105 65.3501 131.022 65.3144C130.488 65.1005 129.882 65.3619 129.669 65.9086C129.455 66.4435 129.716 67.0496 130.25 67.2635C130.512 67.3705 136.601 69.9258 136.222 78.2571C136.222 78.3284 135.735 86.3865 130.049 89.4766C129.538 89.7499 129.36 90.3917 129.633 90.8909C129.823 91.2355 130.179 91.4376 130.547 91.4376H130.559Z" fill="black"/>
<path d="M107.316 91.7346C113.682 91.7346 118.843 85.7537 118.843 78.3759C118.843 70.9981 113.682 65.0172 107.316 65.0172C100.95 65.0172 95.7893 70.9981 95.7893 78.3759C95.7893 85.7537 100.95 91.7346 107.316 91.7346Z" fill="white"/>
<path d="M102.603 66.0155C102.603 66.0155 94.6616 69.2363 96.3117 80.8836C96.3117 80.8836 96.7746 88.0146 103.066 90.2371C103.066 90.2371 110.747 86.3388 109.488 75.987C109.488 75.987 108.693 66.7524 102.603 66.0155Z" fill="#0090CF"/>
<path d="M94.6973 78.162C94.6973 70.1634 100.336 63.6624 107.269 63.6624C114.201 63.6624 119.84 70.1634 119.84 78.162C119.84 86.1606 114.201 92.6617 107.269 92.6617C100.336 92.6617 94.6973 86.1606 94.6973 78.162ZM96.7865 78.162C96.7865 85.0078 101.487 90.5818 107.269 90.5818C113.05 90.5818 117.751 85.0078 117.751 78.162C117.751 71.3163 113.05 65.7422 107.269 65.7422C101.487 65.7422 96.7865 71.3163 96.7865 78.162Z" fill="black"/>
<path d="M103.031 91.4376C103.197 91.4376 103.375 91.4019 103.529 91.3068C110.248 87.6463 110.77 78.7325 110.782 78.3522C111.233 68.4877 103.577 65.3501 103.494 65.3144C102.959 65.1005 102.354 65.3619 102.14 65.9086C101.927 66.4435 102.188 67.0496 102.722 67.2635C102.983 67.3705 109.073 69.9258 108.693 78.2571C108.693 78.3284 108.206 86.3865 102.52 89.4766C102.01 89.7499 101.832 90.3917 102.105 90.8909C102.295 91.2355 102.651 91.4376 103.019 91.4376H103.031Z" fill="black"/>
<path d="M111.494 101.789H130.63C131.212 101.789 131.675 101.326 131.675 100.744C131.675 100.161 131.212 99.6976 130.63 99.6976H111.494C110.913 99.6976 110.45 100.161 110.45 100.744C110.45 101.326 110.913 101.789 111.494 101.789Z" fill="black"/>
<path d="M99.5049 102.11C99.9085 102.11 100.288 101.873 100.466 101.48C100.692 100.957 100.455 100.339 99.9204 100.102L83.7641 93.0658C83.2299 92.84 82.6245 93.0777 82.3871 93.6125C82.1616 94.1354 82.399 94.7535 82.9332 94.9912L99.0894 102.027C99.22 102.086 99.3625 102.11 99.5049 102.11Z" fill="black"/>
<path d="M98.6858 106.318C99.2675 106.318 99.7304 105.854 99.7304 105.272C99.7304 104.689 99.3268 104.297 98.8045 104.238C98.0685 104.107 88.6786 101.944 82.4939 100.518C81.936 100.387 81.378 100.732 81.2475 101.302C81.1169 101.861 81.473 102.419 82.0309 102.55C98.2941 106.318 98.5315 106.318 98.6858 106.318Z" fill="black"/>
<path d="M98.0448 111.25C98.6147 111.25 99.0895 110.786 99.0895 110.216C99.0895 109.633 98.6265 109.17 98.0567 109.17L82.7314 109.075C82.1616 109.075 81.6868 109.538 81.6868 110.109C81.6868 110.691 82.1497 111.155 82.7195 111.155L98.0448 111.25Z" fill="black"/>
<path d="M138.833 102.11C138.976 102.11 139.118 102.086 139.249 102.027L155.405 94.9912C155.939 94.7653 156.177 94.1473 155.951 93.6125C155.725 93.0896 155.108 92.84 154.574 93.0658L138.418 100.102C137.883 100.328 137.646 100.946 137.872 101.48C138.038 101.873 138.43 102.11 138.833 102.11Z" fill="black"/>
<path d="M139.652 106.318C139.807 106.318 140.044 106.318 156.307 102.55C156.865 102.419 157.221 101.861 157.091 101.302C156.96 100.743 156.39 100.387 155.844 100.518C149.659 101.956 140.281 104.107 139.534 104.238C139.011 104.297 138.608 104.737 138.608 105.272C138.608 105.806 139.071 106.318 139.652 106.318Z" fill="black"/>
<path d="M140.293 111.25L155.619 111.155C156.2 111.155 156.663 110.679 156.651 110.109C156.651 109.526 156.188 109.087 155.607 109.075L140.281 109.17C139.7 109.17 139.237 109.645 139.249 110.216C139.249 110.786 139.723 111.25 140.293 111.25Z" fill="black"/>
<path d="M154.242 63.4365C154.538 63.4365 154.835 63.3058 155.049 63.0562C157.411 60.2157 160.604 53.5957 155.785 48.8417C154.289 47.368 152.556 46.6668 150.645 46.7856C146.122 47.059 142.264 51.8724 142.098 52.0863C141.741 52.538 141.813 53.1916 142.264 53.5482C142.715 53.9047 143.368 53.8334 143.724 53.3818C143.76 53.3343 147.178 49.0913 150.763 48.8774C152.081 48.7942 153.232 49.2815 154.301 50.3274C158.978 54.9387 153.482 61.6537 153.422 61.7251C153.054 62.1648 153.114 62.8304 153.553 63.1988C153.743 63.3652 153.98 63.4365 154.218 63.4365H154.242Z" fill="black"/>
<path d="M88.5243 63.4365C88.7618 63.4365 88.9992 63.3534 89.1891 63.1988C89.6283 62.8304 89.6877 62.1767 89.3197 61.7251C89.0941 61.4518 83.7879 54.9269 88.4412 50.3274C89.5096 49.2697 90.673 48.7943 91.9906 48.8775C95.5875 49.0914 98.9945 53.3462 99.0301 53.3819C99.3862 53.8335 100.039 53.9048 100.49 53.5482C100.941 53.1917 101.013 52.538 100.656 52.0864C100.49 51.8844 96.6322 47.0709 92.1093 46.7857C90.21 46.6668 88.465 47.3562 86.9693 48.8418C82.1497 53.5958 85.3429 60.2276 87.7053 63.0562C87.9071 63.3058 88.2038 63.4365 88.5125 63.4365H88.5243Z" fill="black"/>
</g>
<defs>
<clipPath id="clip0_38_5039">
<rect width="146" height="236" fill="white" transform="translate(47 11)"/>
</clipPath>
</defs>
</svg>
