<svg width="230" height="246" viewBox="0 0 230 246" fill="none" xmlns="http://www.w3.org/2000/svg">
<g clip-path="url(#clip0_37_2286)">
<ellipse cx="79.5" cy="228" rx="75.5" ry="19" fill="#D9D9D9" fill-opacity="0.5"/>
<g clip-path="url(#clip1_37_2286)">
<path d="M130.529 71.2998C130.529 71.2998 164.734 48.8851 201.944 71.2208C239.154 93.5566 218.348 130.842 218.348 130.842C218.348 130.842 203.496 156.496 165.912 156.772C128.348 157.048 113.398 182.11 113.398 182.11C113.398 182.11 98.093 204.011 71.2364 188.093C44.3799 172.176 93.3779 89.1723 130.529 71.2998Z" fill="#F68E57"/>
<mask id="mask0_37_2286" style="mask-type:luminance" maskUnits="userSpaceOnUse" x="63" y="61" width="161" height="133">
<path d="M130.158 71.1813C130.158 71.1813 164.362 48.7666 201.573 71.1023C238.783 93.4381 217.977 130.724 217.977 130.724C217.977 130.724 203.125 156.377 165.541 156.654C127.977 156.93 113.026 181.991 113.026 181.991C113.026 181.991 97.7219 203.892 70.8654 187.975C44.0088 172.057 93.0068 89.0539 130.158 71.1813Z" fill="white"/>
</mask>
<g mask="url(#mask0_37_2286)">
<path d="M220.746 143.54C218.271 142.731 216.345 140.598 215.913 137.853C209.862 98.6122 175.992 95.2154 175.638 95.1759C171.748 94.8402 168.86 91.3842 169.194 87.474C169.528 83.5637 172.966 80.6607 176.856 80.9964C192.495 82.3591 223.713 95.5512 229.901 135.661C230.491 139.551 227.858 143.185 223.988 143.777C222.848 143.955 221.748 143.856 220.727 143.521L220.746 143.54Z" fill="black"/>
<path d="M198.801 172.472C196.483 171.327 194.852 168.937 194.833 166.153C194.4 126.458 161.355 118.242 161.002 118.163C157.19 117.275 154.833 113.443 155.717 109.612C156.601 105.781 160.412 103.411 164.224 104.3C179.509 107.874 208.546 125.391 208.978 165.995C209.017 169.925 205.894 173.144 201.984 173.183C200.844 173.183 199.764 172.926 198.801 172.472Z" fill="black"/>
<path d="M173.93 191.549C171.612 190.404 169.981 188.014 169.962 185.23C169.529 145.535 136.484 137.32 136.131 137.241C132.319 136.352 129.962 132.521 130.846 128.689C131.73 124.858 135.541 122.488 139.353 123.377C154.637 126.952 183.675 144.469 184.107 185.072C184.146 189.002 181.023 192.221 177.113 192.26C175.973 192.26 174.893 192.004 173.93 191.549Z" fill="black"/>
</g>
<path d="M90.1951 195.479C84.5173 195.479 77.9358 193.86 70.5487 189.496C64.6155 185.98 61.6882 179.187 62.1008 169.846C63.4564 138.406 100.175 84.3142 129.881 69.9569C131.963 68.6535 166.227 47.9174 202.867 69.8977C240.942 92.7469 220.038 131.276 219.822 131.652C219.645 131.948 215.834 138.425 207.287 145.002C199.429 151.025 185.893 158.253 166.05 158.391C129.783 158.648 115.008 182.722 114.871 182.959C114.714 183.196 105.873 195.479 90.1951 195.479ZM167.209 63.0054C146.659 63.0054 131.747 72.5242 131.531 72.6625L131.354 72.7612C103.005 86.3878 66.5605 139.986 65.2639 169.964C64.9102 178.18 67.2285 183.828 72.1597 186.75C82.8081 193.07 92.8081 194.057 101.826 189.673C108.564 186.395 112.199 181.28 112.238 181.221C112.808 180.253 128.014 155.488 166.03 155.212C184.93 155.074 197.798 148.26 205.264 142.573C213.378 136.391 217.071 130.151 217.111 130.072C217.916 128.63 236.678 93.8528 201.276 72.6032C189.272 65.395 177.543 62.9856 167.209 62.9856V63.0054Z" fill="black"/>
<path d="M53.9278 192.952C53.9278 192.952 34.1243 206.144 31.6292 212.068C31.6292 212.068 25.9907 198.876 18.5054 203.636C11.0398 208.375 18.643 219.592 18.643 219.592C18.643 219.592 24.8119 231.58 33.9868 226.583C43.1616 221.567 53.2598 209.185 63.3581 204.169L53.9082 192.971L53.9278 192.952Z" fill="#884F4A"/>
<path d="M29.5274 229.368C28.5451 229.368 27.5628 229.21 26.6001 228.914C21.0991 227.215 17.7396 221.212 17.3073 220.382C16.7769 219.573 12.7297 213.214 13.8692 207.724C14.3407 205.413 15.6374 203.596 17.6806 202.273C19.7042 200.989 21.826 200.673 23.9282 201.325C27.5431 202.451 30.2936 206.302 31.7867 208.908C37.0127 202.391 51.2366 192.833 53.0637 191.609C53.7317 191.174 54.6158 191.293 55.1266 191.905L64.5765 203.102C64.8908 203.478 65.0087 203.971 64.9105 204.445C64.8123 204.919 64.4979 205.334 64.0657 205.551C58.9183 208.099 53.6335 212.779 48.5254 217.282C43.7514 221.508 39.2327 225.478 34.7533 227.926C33.0244 228.874 31.2759 229.348 29.547 229.348L29.5274 229.368ZM21.8064 204.169C21.0009 204.169 20.1954 204.425 19.3702 204.959C18.0343 205.808 17.2484 206.914 16.9537 208.355C16.0303 212.799 19.9203 218.625 19.9596 218.664C19.9989 218.724 20.0382 218.763 20.0578 218.822C20.0775 218.881 23.0441 224.49 27.5431 225.873C29.4292 226.445 31.2956 226.208 33.2405 225.142C37.4056 222.871 41.7867 219 46.4429 214.892C51.1384 210.745 55.991 206.46 60.9026 203.636L53.6335 195.005C47.5824 199.133 34.8516 208.415 33.0834 212.641C32.8476 213.233 32.2779 213.609 31.6492 213.609C31.0205 213.609 30.4508 213.233 30.1954 212.661C29.3506 210.706 26.4233 205.393 23.0048 204.327C22.6119 204.208 22.2189 204.149 21.8064 204.149V204.169Z" fill="black"/>
<path d="M88.8203 202.036C89.0757 202.431 114.518 214.695 114.518 214.695C114.518 214.695 105.343 218.783 108.742 224.846C112.16 230.908 123.83 228.539 127.897 223.127C131.964 217.716 132.219 211.002 127.897 206.519C123.575 202.036 100.746 189.259 100.746 189.259L88.8203 202.036Z" fill="#884F4A"/>
<path d="M116.109 230C115.775 230 115.461 230 115.147 229.961C111.591 229.724 108.84 228.183 107.386 225.616C106.384 223.819 106.149 221.903 106.758 220.106C107.524 217.795 109.489 215.998 111.159 214.833C87.9955 203.655 87.8187 203.379 87.5043 202.925C87.0918 202.312 87.1703 201.503 87.6615 200.969L99.5869 188.192C100.078 187.659 100.864 187.54 101.493 187.896C102.436 188.429 124.557 200.851 128.997 205.452C133.752 210.39 133.811 217.894 129.115 224.115C126.502 227.591 121.041 230.04 116.07 230.04L116.109 230ZM91.3747 201.621C95.7165 203.833 107.485 209.54 115.206 213.273C115.756 213.53 116.109 214.102 116.09 214.715C116.09 215.327 115.717 215.88 115.166 216.136C113.929 216.689 110.53 218.664 109.744 221.113C109.43 222.081 109.548 223.048 110.117 224.075C111.276 226.129 113.595 226.702 115.343 226.82C119.489 227.097 124.479 225.063 126.64 222.18C130.353 217.242 130.412 211.397 126.758 207.625C123.516 204.268 108.015 195.183 101.041 191.233L91.355 201.621H91.3747Z" fill="black"/>
<path d="M53.8715 129.341C53.8715 129.341 34.4019 171.465 51.9068 198.343C51.9068 198.343 58.9795 211.199 79.844 208.039C100.708 204.88 112.3 187.284 100.689 168.878C89.0777 150.492 82.9874 139.61 81.6121 126.359C81.6121 126.359 62.1426 122.607 53.8715 129.321V129.341Z" fill="#F68E57"/>
<path d="M73.3988 210.133C56.8173 210.133 50.8055 199.627 50.5304 199.113C43.2024 187.856 41.1984 172.038 44.7741 153.454C47.4656 139.531 52.2397 129.104 52.4361 128.67C52.5344 128.452 52.6915 128.255 52.8684 128.097C61.5914 120.987 81.0609 124.641 81.886 124.799C82.5737 124.937 83.0845 125.49 83.1631 126.181C84.558 139.551 91.2181 150.907 102.004 168.009C107.289 176.402 108.291 185.25 104.794 192.952C100.864 201.601 91.6306 207.803 80.0589 209.56C77.6621 209.916 75.442 210.093 73.3792 210.093L73.3988 210.133ZM55.1473 130.348C53.3792 134.377 37.2102 172.907 53.222 197.494C53.556 198.066 60.1768 209.442 79.6071 206.479C90.1179 204.88 98.4676 199.35 101.945 191.688C104.99 184.993 104.067 177.192 99.3517 169.747C88.6248 152.743 81.8861 141.269 80.1768 127.741C76.0511 127.11 61.7878 125.332 55.1473 130.348Z" fill="black"/>
<path d="M48.248 41.9951C48.3668 30.958 39.8084 21.9165 29.1323 21.8004C18.4561 21.6843 9.70505 30.5375 9.58623 41.5746C9.46742 52.6117 18.0258 61.6532 28.702 61.7693C39.3781 61.8855 48.1292 53.0323 48.248 41.9951Z" fill="black"/>
<path d="M28.9198 62.5512C28.9198 62.5512 28.7823 62.5512 28.7037 62.5512C17.6035 62.4327 8.68406 53.0126 8.80194 41.5583C8.91981 30.1831 17.9375 21 28.9198 21C28.9984 21 29.0573 21 29.1359 21C40.2361 21.1185 49.1556 30.5386 49.0377 41.9928C48.9198 53.368 39.9021 62.5512 28.9002 62.5512H28.9198ZM28.9198 22.5799C18.7823 22.5799 10.4915 31.0521 10.3736 41.5781C10.2558 52.1634 18.4876 60.8528 28.7234 60.9713C28.7823 60.9713 28.8609 60.9713 28.9198 60.9713C39.0573 60.9713 47.3678 52.4991 47.4856 41.9731C47.6035 31.3878 39.3717 22.6984 29.1359 22.5799C29.077 22.5799 28.9984 22.5799 28.9395 22.5799H28.9198Z" fill="black"/>
<path d="M123.92 42.8183C124.039 31.7811 115.48 22.7397 104.804 22.6235C94.128 22.5074 85.3769 31.3606 85.2581 42.3977C85.1393 53.4348 93.6977 62.4763 104.374 62.5924C115.05 62.7086 123.801 53.8554 123.92 42.8183Z" fill="black"/>
<path d="M104.576 63.3806C104.576 63.3806 104.439 63.3806 104.36 63.3806C93.2598 63.2621 84.3403 53.842 84.4582 42.3878C84.5761 31.0126 93.5937 21.8294 104.596 21.8294C104.674 21.8294 104.733 21.8294 104.812 21.8294C110.195 21.8887 115.224 24.1005 118.977 28.07C122.729 32.0395 124.773 37.2729 124.714 42.8223C124.655 48.3716 122.513 53.5655 118.663 57.4363C114.871 61.2675 109.881 63.3806 104.576 63.3806ZM104.576 23.4093C94.4385 23.4093 86.1281 31.8815 86.0102 42.4075C85.8924 52.9928 94.1242 61.6822 104.36 61.8007C109.291 61.8995 113.987 59.9048 117.523 56.3303C121.079 52.7361 123.063 47.9372 123.103 42.8025C123.162 37.6679 121.275 32.8294 117.818 29.1562C114.36 25.5027 109.723 23.4488 104.773 23.4093C104.714 23.4093 104.635 23.4093 104.576 23.4093Z" fill="black"/>
<path d="M124.379 89.3029C124.67 62.2227 99.4527 39.993 68.0535 39.6514C36.6543 39.3099 10.9639 60.9858 10.6724 88.066C10.3809 115.146 35.5986 137.376 66.9978 137.717C98.397 138.059 124.087 116.383 124.379 89.3029Z" fill="#F68E57"/>
<path d="M67.721 139.314C67.4656 139.314 67.2102 139.314 66.9744 139.314C34.7544 138.959 8.80154 115.971 9.09624 88.0664C9.23376 74.4991 15.4813 61.8205 26.6797 52.3806C37.7996 43 52.5147 37.9443 68.055 38.0826C100.275 38.4381 126.228 61.4255 125.933 89.3303C125.796 102.898 119.548 115.576 108.35 125.016C97.4067 134.259 83.0059 139.314 67.721 139.314ZM67.3084 41.2424C52.7701 41.2424 39.0766 46.0413 28.7033 54.8097C18.2318 63.6571 12.3772 75.4865 12.2397 88.1059C11.9646 114.273 36.5226 135.838 66.9941 136.154C67.2298 136.154 67.4656 136.154 67.721 136.154C82.2593 136.154 95.9528 131.355 106.326 122.587C116.798 113.74 122.652 101.91 122.79 89.2908C123.065 63.1239 98.5068 41.5583 68.0353 41.2424C67.7996 41.2424 67.5638 41.2424 67.3084 41.2424Z" fill="black"/>
<path d="M11.9075 85.8348C11.9075 85.8348 55.5028 72.07 125.071 86.9013C123.892 60.9318 99.2553 39.9982 68.8034 39.6625C39.0588 39.3465 14.4419 58.7792 11.6914 83.86C11.7503 84.5117 11.8289 85.1634 11.9075 85.8348Z" fill="black"/>
<path d="M125.912 87.8887L124.91 87.6715C56.3836 73.0575 12.5722 86.447 12.1399 86.5853L11.2362 86.8618L11.1183 85.9336C11.0398 85.3016 10.9808 84.6894 10.9219 84.0772V83.781C13.7117 58.2657 39.1144 38.5368 68.8001 38.8725C99.5859 39.2083 124.635 60.2801 125.853 86.8618L125.892 87.8887H125.912ZM62.5132 79.2783C79.5663 79.2783 100.411 80.9174 124.242 85.9138C122.474 60.6553 98.3482 40.7684 68.8001 40.4524C68.5643 40.4524 68.3286 40.4524 68.0928 40.4524C39.5663 40.4524 15.2244 59.4111 12.4936 83.86C12.5329 84.1957 12.5525 84.5117 12.5918 84.8079C16.6979 83.6822 34.5172 79.2783 62.5132 79.2783Z" fill="black"/>
<path d="M64.1981 75.8737C64.2331 67.4755 58.0604 60.6413 50.4109 60.609C42.7614 60.5768 36.532 67.3588 36.497 75.757C36.462 84.1553 42.6347 90.9895 50.2842 91.0217C57.9336 91.0539 64.1631 84.2719 64.1981 75.8737Z" fill="#FFE800"/>
<path d="M50.3326 92.6086H50.2737C41.7668 92.5691 34.8906 85.0054 34.9102 75.763C34.9495 66.5206 41.865 59.0359 50.3522 59.0359H50.4112C54.5566 59.0359 58.4465 60.833 61.3542 64.0521C64.2226 67.2316 65.7943 71.4381 65.7746 75.9013C65.7746 80.3644 64.144 84.5512 61.256 87.7109C58.3483 90.8905 54.4583 92.6284 50.3326 92.6284V92.6086ZM50.3326 62.1957C43.5939 62.1957 38.0733 68.2783 38.0536 75.7828C38.0143 83.2873 43.5153 89.4291 50.2737 89.4686C53.535 89.4291 56.5998 88.0862 58.9181 85.5583C61.2756 82.991 62.5919 79.5548 62.5919 75.8815C62.5919 72.2083 61.3346 68.772 58.9966 66.1849C56.698 63.6373 53.6332 62.2154 50.3719 62.2154H50.3326V62.1957Z" fill="black"/>
<path d="M30.2931 99.9946C30.2931 99.9946 59.4876 112.535 93.3186 99.3429C93.3186 99.3429 90.7449 127.327 62.3756 127.702C34.0062 128.057 30.2734 99.9946 30.2734 99.9946H30.2931Z" fill="#884F4A"/>
<path d="M51.7109 105.741L52.2217 114.253L67.4673 115.122L68.6658 105.485" fill="white"/>
<path d="M67.4644 116.702C67.4644 116.702 67.4055 116.702 67.3662 116.702L52.1402 115.813C51.3347 115.774 50.7061 115.122 50.6668 114.332L50.156 105.82C50.097 104.952 50.765 104.201 51.6294 104.142C52.5135 104.083 53.2404 104.754 53.2994 105.623L53.7316 112.733L66.1088 113.443L67.1304 105.268C67.2287 104.399 68.0342 103.786 68.879 103.885C69.7434 103.984 70.3524 104.794 70.2542 105.643L69.0558 115.28C68.9575 116.07 68.2896 116.662 67.5037 116.662L67.4644 116.702Z" fill="black"/>
<path d="M61.6503 129.282C32.7309 129.282 28.5855 100.488 28.5462 100.192C28.4676 99.6194 28.7034 99.0664 29.1552 98.7307C29.6071 98.3752 30.1965 98.316 30.7269 98.5332C31.0216 98.6517 59.7643 110.639 92.5737 97.8617C93.0845 97.6643 93.6542 97.7433 94.0865 98.079C94.5187 98.4147 94.7544 98.9479 94.7151 99.4811C94.6955 99.7774 91.67 128.907 62.2397 129.282C62.0432 129.282 61.8664 129.282 61.67 129.282H61.6503ZM32.2004 102.463C33.9096 109.257 40.3536 126.399 62.1611 126.102C84.0668 125.826 89.7643 108.467 91.1395 101.752C63.7328 111.508 40.059 105.169 32.2004 102.463Z" fill="black"/>
<path d="M87.3387 76.3696C87.3737 67.9714 81.201 61.1372 73.5515 61.1049C65.9021 61.0727 59.6726 67.8547 59.6376 76.253C59.6026 84.6512 65.7753 91.4854 73.4248 91.5176C81.0742 91.5498 87.3037 84.7678 87.3387 76.3696Z" fill="#FFE800"/>
<path d="M73.4968 93.0826H73.4379C69.2925 93.0826 65.4025 91.2855 62.4948 88.0664C59.6265 84.8869 58.0548 80.6804 58.0744 76.2172C58.0744 71.754 59.7051 67.5673 62.5931 64.4075C65.5204 61.2083 69.4693 59.4901 73.5754 59.4901C77.7208 59.4901 81.6107 61.2873 84.5184 64.5063C87.3868 67.6858 88.9585 71.8923 88.9388 76.3555C88.9388 80.8187 87.3082 85.0054 84.4202 88.1652C81.5125 91.3447 77.6225 93.0826 73.4968 93.0826ZM73.4968 62.6697C70.2551 62.6697 67.21 64.0521 64.8917 66.5799C62.5341 69.1472 61.2178 72.5835 61.1982 76.2567C61.1982 79.93 62.4555 83.3663 64.7935 85.9533C67.0921 88.5009 70.1569 89.9228 73.4182 89.9228H73.4575C76.6992 89.9228 79.7443 88.5404 82.0626 86.0126C84.4202 83.4452 85.7365 80.009 85.7561 76.3357C85.7561 72.6625 84.4988 69.2262 82.1608 66.6391C79.8622 64.0916 76.7974 62.6697 73.5361 62.6697H73.4968Z" fill="black"/>
<path d="M75.2411 76.5327C75.2567 72.7808 72.8066 69.7289 69.7685 69.7161C66.7304 69.7033 64.2549 72.7345 64.2392 76.4864C64.2236 80.2383 66.6738 83.2902 69.7119 83.303C72.75 83.3158 75.2255 80.2846 75.2411 76.5327Z" fill="black"/>
<path d="M69.7439 84.0772H69.7242C66.2664 84.0772 63.457 80.6409 63.4767 76.474C63.4767 72.307 66.3057 68.93 69.7635 68.93H69.7831C71.4924 68.93 73.0837 69.7594 74.2625 71.2208C75.402 72.6427 76.0307 74.5386 76.0307 76.5332C76.0307 80.7002 73.2016 84.0772 69.7439 84.0772ZM69.7439 70.5099C67.1505 70.5099 65.0484 73.1957 65.0287 76.4937C65.0287 79.7917 67.1112 82.4973 69.7046 82.517C72.2979 82.517 74.4 79.8312 74.4197 76.5332C74.4197 74.8941 73.9285 73.3734 73.0051 72.228C72.1211 71.1221 70.9619 70.5296 69.7439 70.5099Z" fill="black"/>
<path d="M52.8505 76.5325C52.8661 72.7806 50.4159 69.7287 47.3779 69.7159C44.3398 69.7031 41.8643 72.7343 41.8486 76.4862C41.833 80.2381 44.2832 83.29 47.3212 83.3028C50.3593 83.3156 52.8349 80.2844 52.8505 76.5325Z" fill="black"/>
<path d="M47.3493 84.0772H47.3297C43.8719 84.0772 41.0625 80.6409 41.0821 76.474C41.0821 74.4793 41.7305 72.6032 42.8896 71.1813C44.088 69.7199 45.6794 68.93 47.369 68.93H47.3886C49.0979 68.93 50.6892 69.7594 51.868 71.2208C53.0075 72.6427 53.6362 74.5386 53.6362 76.5332C53.6362 80.7002 50.8071 84.0772 47.3493 84.0772ZM47.3493 70.5099C46.1313 70.5099 44.9721 71.1023 44.088 72.1885C43.1646 73.3339 42.6342 74.8546 42.6342 76.474C42.6342 79.772 44.7167 82.4776 47.31 82.4973C49.9034 82.4973 52.0055 79.8115 52.0252 76.5135C52.0252 74.8743 51.534 73.3537 50.6106 72.2083C49.7265 71.1023 48.5674 70.5099 47.3493 70.4901V70.5099Z" fill="black"/>
<path d="M60.8754 100.706C66.0104 100.417 69.9714 96.5547 69.7225 92.0789C69.4735 87.6032 65.1089 84.2089 59.9739 84.4975C54.8388 84.786 50.8778 88.6483 51.1268 93.124C51.3757 97.5998 55.7403 100.994 60.8754 100.706Z" fill="#EF3831"/>
<path d="M60.2754 102.305C54.5779 102.305 49.8432 98.3555 49.5485 93.2208C49.2538 87.8887 53.8903 83.2675 59.8825 82.9318C65.8157 82.5961 71.0023 86.6643 71.297 91.9964C71.4542 94.623 70.4129 97.1508 68.409 99.1059C66.464 101.002 63.8117 102.127 60.963 102.285C60.7272 102.285 60.4915 102.285 60.2754 102.285V102.305ZM60.5897 86.0718C60.4129 86.0718 60.2361 86.0718 60.0593 86.0718C55.796 86.3088 52.4954 89.4291 52.6919 93.0234C52.8883 96.6176 56.5033 99.3627 60.7862 99.1059C62.8883 98.9874 64.8333 98.1777 66.2282 96.8151C67.5642 95.5117 68.2518 93.8528 68.1536 92.1544C67.9571 88.6984 64.6172 86.0521 60.5701 86.0521L60.5897 86.0718Z" fill="black"/>
<path d="M55.9934 131.237C55.9934 131.237 31.9266 137.952 35.5808 149.998C35.5808 149.998 37.5847 159.971 50.9246 157.147C64.2841 154.323 87.9973 145.081 83.2625 134.871C78.5278 124.661 66.6417 127.899 55.9934 131.237Z" fill="#875A4D"/>
<path d="M46.4655 159.241C43.4989 159.241 40.9645 158.549 38.8427 157.147C34.9134 154.56 34.0686 150.492 34.0293 150.314C33.2631 147.786 33.5382 145.16 34.9134 142.652C39.4321 134.377 54.5794 129.993 55.5421 129.736C64.9527 126.794 79.1767 122.35 84.6777 134.219C85.7582 136.549 85.6993 138.959 84.5009 141.348C80.2769 149.82 62.3005 156.377 51.2396 158.707C49.55 159.063 47.939 159.241 46.4458 159.241H46.4655ZM71.6718 129.539C67.3299 129.539 62.0844 130.98 56.4655 132.738H56.4262C56.269 132.797 41.6325 136.964 37.7032 144.153C36.7405 145.93 36.5441 147.688 37.0942 149.524C37.2121 149.998 39.0588 158.036 50.6109 155.587C61.4164 153.316 78.214 146.937 81.7111 139.907C82.4576 138.386 82.5166 136.944 81.8486 135.522C79.7857 131.099 76.2101 129.519 71.6914 129.519L71.6718 129.539Z" fill="black"/>
<path d="M44.3203 157.601C44.3203 157.601 56.1671 145.851 80.2535 144.192C80.2535 144.192 90.725 160.07 75.7348 173.44C75.7348 173.44 72.2967 176.521 72.67 179.661C72.67 179.661 69.0747 176.916 66.7368 177.074C63.5934 177.271 47.0315 175.355 44.3203 157.601Z" fill="#C9A09B"/>
<path d="M72.6702 181.241C72.3362 181.241 72.0022 181.142 71.7272 180.925C70.4305 179.937 68.014 178.574 66.8352 178.653C62.513 178.93 45.5779 176.244 42.7684 157.838C42.6898 157.345 42.8667 156.831 43.2203 156.476C43.7311 155.982 55.7547 144.291 80.1555 142.612C80.7252 142.573 81.2557 142.849 81.57 143.323C81.6879 143.501 92.6113 160.524 76.7763 174.625C75.9904 175.336 74.0062 177.587 74.2419 179.483C74.3205 180.115 74.0062 180.727 73.4757 181.043C73.2399 181.181 72.9649 181.26 72.6898 181.26L72.6702 181.241ZM66.9138 175.494C68.4266 175.494 70.1162 176.244 71.4521 176.975C72.3166 174.427 74.3794 172.531 74.6938 172.255C86.8549 161.433 81.2164 149.05 79.4286 145.851C59.7036 147.451 48.623 155.982 46.0297 158.214C49.2124 175.553 66.4816 175.553 66.6584 175.513C66.7566 175.513 66.8549 175.513 66.9531 175.513L66.9138 175.494Z" fill="black"/>
<path d="M50.0008 174.447C50.0008 174.447 59.2738 151.124 47.5253 146.74C47.5253 146.74 38.4291 142.296 32.5548 154.679C26.6805 167.061 19.6275 191.628 30.5902 194.038C41.5332 196.447 46.1894 184.973 50.0008 174.447Z" fill="#875A4D"/>
<path d="M33.437 195.953C32.435 195.953 31.3741 195.835 30.2542 195.598C27.7592 195.045 25.8928 193.544 24.714 191.135C20.5686 182.623 26.2857 164.276 31.1383 154.027C33.3584 149.327 36.3053 146.325 39.9006 145.061C44.3407 143.501 48.0539 145.278 48.211 145.357C50.6668 146.266 52.5725 148.102 53.7317 150.729C57.543 159.359 51.826 174.131 51.4527 175.059C48.3682 183.551 43.8692 195.993 33.4173 195.993L33.437 195.953ZM43.712 147.569C40.9812 147.569 37.0519 148.912 33.9871 155.37C29.2326 165.382 24.1049 182.682 27.5431 189.733C28.2896 191.253 29.3898 192.162 30.9222 192.497C40.2346 194.531 44.3996 185.289 48.5254 173.914V173.874C48.604 173.736 54.1835 159.497 50.8633 151.993C50.0578 150.156 48.7808 148.932 46.9733 148.26C46.7965 148.181 45.4998 147.589 43.712 147.589V147.569Z" fill="black"/>
<path d="M36.207 149.129C36.207 149.129 38.3288 165.718 25.0282 186C25.0282 186 6.10874 184.736 4.63526 164.652C4.63526 164.652 4.28163 160.031 1.55078 158.431C1.55078 158.431 5.89263 157.206 7.18929 155.251C8.93781 152.625 20.4899 140.539 36.1873 149.129H36.207Z" fill="#C9A09B"/>
<path d="M25.0302 187.58C25.0302 187.58 24.9516 187.58 24.932 187.58C24.7355 187.58 4.63726 185.98 3.08519 164.77C3.00661 163.724 2.41722 160.761 0.78657 159.794C0.236472 159.478 -0.0582237 158.865 0.0203618 158.233C0.0989472 157.601 0.550814 157.088 1.15985 156.91C2.73156 156.456 5.24629 155.39 5.91427 154.382C8.33077 150.709 20.708 138.84 36.9752 147.747C37.427 147.984 37.7217 148.438 37.7807 148.932C37.8789 149.623 39.8239 166.35 26.3465 186.869C26.0518 187.323 25.5606 187.58 25.0302 187.58ZM4.44079 159.083C5.93392 161.314 6.18932 164.118 6.22861 164.533C7.42704 180.826 20.6294 183.808 24.264 184.321C34.9123 167.634 34.9123 153.553 34.7355 150.136C19.097 142.178 8.64512 155.982 8.54688 156.14C7.6628 157.463 5.93392 158.451 4.46044 159.102L4.44079 159.083Z" fill="black"/>
<path d="M42.3978 115.517C42.3978 115.517 17.5844 112.555 16.4253 125.115C16.4253 125.115 14.5196 135.108 27.9381 137.576C41.3565 140.045 66.7986 140.519 66.2485 129.262C65.718 118.005 53.498 116.485 42.3781 115.517H42.3978Z" fill="#875A4D"/>
<path d="M44.2641 140.618C38.3113 140.618 32.2995 139.986 27.6629 139.136C22.5745 138.208 18.9203 136.115 16.7592 132.975C14.1069 129.084 14.8535 124.996 14.8731 124.819C15.1089 122.192 16.3663 119.862 18.5863 118.065C25.8948 112.12 41.5726 113.838 42.5352 113.957C52.3584 114.806 67.1914 116.11 67.8201 129.203C67.938 131.77 66.9753 133.962 64.9714 135.74C60.826 139.393 52.5942 140.637 44.2445 140.637L44.2641 140.618ZM36.327 116.801C31.3368 116.801 24.382 117.433 20.5902 120.513C19.0382 121.777 18.1934 123.338 18.0166 125.253C17.938 125.747 16.6217 133.864 28.2523 136.016C39.1168 138.011 57.0539 138.524 62.9281 133.35C64.2052 132.224 64.7749 130.921 64.716 129.341C64.2641 119.783 54.2838 118.144 42.2798 117.097H42.2209C42.2209 117.097 39.6865 116.801 36.327 116.801Z" fill="black"/>
<path d="M21.6715 135.463C21.6715 135.463 37.0546 129.084 59.982 136.727C59.982 136.727 63.6951 155.409 44.7757 162.065C44.7757 162.065 40.4338 163.605 39.6087 166.666C39.6087 166.666 37.3101 162.756 35.09 162.005C32.1038 160.998 17.5065 152.921 21.6715 135.443V135.463Z" fill="#C9A09B"/>
<path d="M39.5883 168.266C39.0382 168.266 38.5274 167.969 38.2327 167.496C37.3879 166.074 35.6983 163.921 34.5588 163.526C30.4134 162.124 15.7965 153.197 20.1187 135.088C20.2366 134.594 20.5902 134.18 21.0421 134.002C21.6904 133.725 37.2307 127.485 60.4527 135.226C60.9832 135.404 61.3957 135.858 61.494 136.411C61.5333 136.609 65.2268 156.535 45.2661 163.546C44.2838 163.901 41.5922 165.224 41.0814 167.061C40.9242 167.673 40.3938 168.127 39.7847 168.206C39.7062 168.206 39.6472 168.206 39.5686 168.206L39.5883 168.266ZM23.0067 136.668C19.4311 153.928 35.4036 160.485 35.5804 160.524C37.0932 161.038 38.4684 162.46 39.4704 163.724C41.2189 161.709 43.8515 160.722 44.2445 160.583C59.5293 155.212 58.9989 141.605 58.5667 137.932C39.7062 131.908 26.2484 135.582 23.0067 136.648V136.668Z" fill="black"/>
<path d="M73.8893 189.811C73.8893 189.811 94.6555 175.829 87.406 165.54C87.406 165.54 82.3961 156.713 70.5887 163.605C58.8008 170.497 39.1741 186.77 46.8559 194.966C54.5376 203.162 64.8126 196.348 73.8893 189.811Z" fill="#875A4D"/>
<path d="M55.067 200.298C51.7861 200.298 48.5837 199.113 45.7153 196.052C43.9668 194.176 43.2595 191.885 43.6525 189.219C45.0081 179.838 60.0375 167.95 69.8018 162.242C74.2615 159.636 78.3872 158.806 82.0611 159.813C86.5994 161.038 88.6819 164.632 88.7605 164.77C90.2733 166.923 90.8234 169.51 90.3126 172.334C88.6033 181.616 75.5975 190.562 74.7723 191.115C69.3303 195.025 62.0022 200.298 55.067 200.298ZM78.9177 162.578C76.8941 162.578 74.399 163.21 71.3735 164.968C61.8254 170.537 47.8764 181.892 46.7566 189.673C46.5208 191.352 46.9138 192.734 47.9943 193.88C54.5365 200.851 63.1613 195.578 72.9648 188.528H73.0041C73.122 188.409 85.735 179.838 87.2281 171.761C87.6014 169.786 87.2281 168.048 86.1279 166.469C85.9511 166.172 83.7703 162.598 78.9373 162.598L78.9177 162.578Z" fill="black"/>
<path d="M76.7399 161.097C76.7399 161.097 69.176 175.987 46.7988 185.171C46.7988 185.171 31.8872 173.4 41.9658 155.982C41.9658 155.982 44.2644 151.973 42.9285 149.11C42.9285 149.11 47.2114 150.571 49.3725 149.682C52.2801 148.497 68.6063 145.081 76.7399 161.097Z" fill="#C9A09B"/>
<path d="M46.7965 186.75C46.4429 186.75 46.1089 186.632 45.8142 186.415C45.657 186.296 29.9596 173.578 40.5883 155.192C41.1187 154.284 42.2975 151.519 41.4724 149.781C41.1973 149.208 41.2956 148.517 41.7278 148.043C42.1403 147.569 42.8083 147.391 43.4174 147.589C44.9694 148.122 47.661 148.655 48.7612 148.201C52.828 146.542 69.7042 143.777 78.1128 160.366C78.3486 160.82 78.3486 161.354 78.1128 161.808C77.7985 162.44 70.0185 177.33 47.3663 186.632C47.1698 186.711 46.9734 186.75 46.7769 186.75H46.7965ZM44.9105 151.262C44.8908 153.948 43.5156 156.417 43.3191 156.772C35.1855 170.853 44.38 180.846 47.0912 183.334C65.3034 175.592 73.1816 164 74.9301 161.057C66.4822 145.614 50.1168 151.084 49.94 151.144C48.4665 151.736 46.4822 151.578 44.9105 151.262Z" fill="black"/>
<path d="M83.672 145.89C83.5737 146.7 85.5973 162.321 75.8331 171.228C75.8331 171.228 69.3498 174.704 70.9215 177.607C72.4932 180.53 77.169 176.797 77.169 176.797C77.169 176.797 71.4519 180.135 73.7702 182.346C76.0885 184.558 80.0767 179.878 80.0767 179.878C80.0767 179.878 75.3419 183.571 77.8763 185.585C80.4107 187.6 88.3085 182.761 94.1631 168.977" fill="#F68E57"/>
<path d="M79.292 187.619C78.1722 187.619 77.406 187.224 76.9148 186.849C76.129 186.237 75.6771 185.427 75.5789 184.539C75.5396 184.539 75.5003 184.539 75.461 184.539C74.4001 184.598 73.4571 184.242 72.6909 183.512C71.905 182.761 71.5514 181.794 71.6693 180.786C71.6889 180.589 71.7282 180.391 71.7871 180.194C70.8245 179.937 70.0386 179.325 69.5278 178.377C69.0563 177.508 68.9581 176.521 69.2528 175.533C70.0779 172.788 73.7714 170.557 74.8913 169.944C78.6044 166.488 82.8087 159.655 82.1015 146.68C82.0818 146.167 82.0818 145.831 82.1015 145.713C82.1997 144.844 83.0052 144.212 83.85 144.33C84.6948 144.429 85.3038 145.16 85.2449 146.009C85.2449 146.108 85.2449 146.285 85.2645 146.522C86.0308 160.899 81.1388 168.542 76.8755 172.413C76.7773 172.492 76.6791 172.571 76.5612 172.63C75.0091 173.46 72.6516 175.197 72.2783 176.442C72.1997 176.679 72.2587 176.777 72.2783 176.876C72.3962 177.113 72.4944 177.133 72.5926 177.153C73.1231 177.271 74.0268 176.916 74.8716 176.442C75.4807 175.987 76.0307 175.652 76.3647 175.454C77.072 175.039 77.9954 175.257 78.4473 175.928C78.9188 176.619 78.7616 177.548 78.1133 178.061C77.8972 178.239 77.3471 178.653 76.6005 179.088C75.5199 179.917 74.7537 180.806 74.7537 181.181C74.9502 181.359 75.0484 181.399 75.2645 181.379C75.8343 181.339 76.5808 180.905 77.3078 180.352C78.0543 179.483 78.8205 178.871 79.0956 178.653C79.7243 178.16 80.6477 178.219 81.1977 178.811C81.7478 179.404 81.7871 180.312 81.2567 180.925C81.0406 181.181 80.3922 181.912 79.5082 182.643C79.0366 183.235 78.683 183.788 78.683 184.163C78.683 184.203 78.683 184.262 78.8402 184.381C78.9581 184.479 79.3117 184.539 79.9207 184.381C83.1624 183.551 88.5455 178.199 92.6909 168.404C93.0249 167.594 93.9482 167.219 94.7537 167.575C95.5592 167.91 95.9325 168.838 95.5789 169.648C90.6673 181.221 84.4787 186.474 80.6869 187.461C80.1565 187.6 79.685 187.659 79.2528 187.659L79.292 187.619Z" fill="black"/>
<path d="M16.4655 190.621C16.4655 190.621 8.43009 183.452 14.2847 177.883C20.1393 172.314 22.0843 176.244 22.0843 176.244C22.0843 176.244 23.1256 178.002 20.0411 181.892C20.0411 181.892 23.5381 178.14 26.4458 180.233C29.3535 182.347 23.9114 187.066 23.9114 187.066C23.9114 187.066 27.8996 182.82 30.6698 185.487C33.4399 188.153 27.2317 193.09 27.2317 193.09C27.2317 193.09 23.8721 196.427 16.4655 190.601V190.621Z" fill="#F68E57"/>
<path d="M24.2651 195.637C22.1629 195.637 19.2553 194.808 15.5028 191.865C15.4832 191.846 15.4439 191.826 15.4242 191.806C15.2278 191.628 10.6502 187.501 10.5716 182.662C10.5323 180.431 11.4164 178.436 13.2042 176.738C15.935 174.131 18.4105 173.005 20.5126 173.381C22.5558 173.756 23.4006 175.355 23.4792 175.533C23.5971 175.731 23.99 176.56 23.715 178.061C24.9134 177.883 26.1511 178.101 27.3496 178.95C28.2926 179.621 28.8034 180.569 28.8623 181.675C28.882 182.129 28.823 182.584 28.6855 183.038C29.825 183.077 30.8859 183.531 31.7307 184.361C32.5558 185.171 32.9684 186.198 32.9291 187.343C32.772 190.503 29.0391 193.662 28.214 194.334C27.8407 194.65 26.5048 195.637 24.2258 195.637H24.2651ZM17.4871 189.417C23.5382 194.156 26.1511 191.984 26.1708 191.964C27.6639 190.759 29.7661 188.508 29.825 187.205C29.825 186.968 29.7661 186.829 29.6089 186.652C29.2749 186.336 28.9999 186.217 28.5283 186.217C27.605 186.237 26.4655 186.968 25.7189 187.6C25.3849 187.916 25.1295 188.153 24.992 188.291C24.3633 188.844 23.4006 188.804 22.8309 188.192C22.2612 187.58 22.2415 186.632 22.8309 186.02C22.9095 185.941 23.1845 185.664 23.5971 185.309C24.6973 184.203 25.8368 182.682 25.7975 181.853C25.7975 181.774 25.7975 181.695 25.601 181.557C23.8722 180.312 21.2788 182.978 21.2592 182.998C20.6894 183.61 19.7268 183.67 19.0784 183.117C18.4498 182.564 18.3515 181.596 18.882 180.944C20.827 178.476 20.768 177.232 20.7287 176.975C20.6109 176.817 20.3948 176.58 19.9822 176.521C19.491 176.442 18.0765 176.56 15.4242 179.068C14.3044 180.135 13.7543 181.3 13.7739 182.623C13.8132 185.467 16.4655 188.469 17.5264 189.417H17.4871ZM20.7287 177.034C20.7287 177.034 20.7287 177.034 20.7287 177.054C20.7287 177.054 20.7287 177.054 20.7287 177.034Z" fill="black"/>
</g>
</g>
<defs>
<clipPath id="clip0_37_2286">
<rect width="230" height="246" fill="white"/>
</clipPath>
<clipPath id="clip1_37_2286">
<rect width="230" height="209" fill="white" transform="translate(0 21)"/>
</clipPath>
</defs>
</svg>
