<svg width="230" height="246" viewBox="0 0 230 246" fill="none" xmlns="http://www.w3.org/2000/svg">
<ellipse cx="87.5" cy="227" rx="66.5" ry="19" fill="#D9D9D9" fill-opacity="0.5"/>
<g clip-path="url(#clip0_38_4809)">
<path d="M115.935 54.3888L109.654 5.88762L99.6419 19.9995L84.1189 3.01044L78.5566 22.4657L62.5202 6.16164L61.9554 6.3329L57.1291 28.7167L42.0339 15.2727L38.0291 37.9477L22.0098 31.4227L42.6501 75.7451L115.935 54.3888Z" fill="#FFF200"/>
<path d="M42.6501 76.7726C42.2565 76.7726 41.8971 76.55 41.7259 76.1903L21.1027 31.8508C20.9316 31.4741 21 31.0288 21.291 30.7205C21.5819 30.4122 22.0269 30.3266 22.4034 30.4807L37.259 36.5263L41.0584 15.0844C41.1269 14.7247 41.3836 14.4164 41.7259 14.2966C42.0682 14.1767 42.4618 14.2452 42.7357 14.5021L56.5301 26.7815L60.997 6.09315C61.0826 5.7335 61.3393 5.44236 61.6987 5.3396L62.2635 5.16834C62.6229 5.06558 62.9994 5.16834 63.2733 5.42523L78.0946 20.4962L83.1434 2.73643C83.2461 2.37678 83.5199 2.11989 83.8793 2.03426C84.2388 1.94863 84.6153 2.06851 84.8549 2.34253L99.5221 18.3897L108.815 5.30535C109.055 4.96283 109.483 4.80869 109.894 4.91145C110.304 5.01421 110.595 5.35673 110.647 5.76776L116.928 54.2689C116.996 54.7656 116.688 55.228 116.209 55.3821L42.9239 76.7384C42.8384 76.7726 42.7357 76.7726 42.633 76.7726H42.6501ZM24.0293 33.3408L43.2149 74.5291L114.84 53.6524L109.004 8.57644L100.481 20.5818C100.309 20.8387 100.018 20.9929 99.7104 21.01C99.4023 21.0271 99.1114 20.9072 98.906 20.6846L84.5982 5.03133L79.5322 22.7397C79.4295 23.0823 79.1557 23.3563 78.8134 23.4419C78.4711 23.5275 78.0946 23.4419 77.8379 23.1679L62.6743 7.77151L58.1046 28.9223C58.0362 29.2819 57.7795 29.5559 57.4372 29.6758C57.0949 29.7957 56.7184 29.7101 56.4445 29.4703L42.7014 17.2423L39.0047 38.119C38.9533 38.4273 38.7651 38.6842 38.4912 38.8383C38.2174 38.9924 37.9093 39.0095 37.6184 38.8897L23.9951 33.3408H24.0293Z" fill="black"/>
<path d="M67.0727 103.267L51.6524 109.621L48.9312 118.406L54.6817 125.377L71.899 134.162L101.507 137.176L119.341 129.607L107.549 100.835L67.0727 103.267Z" fill="black"/>
<path d="M141.847 112.361C141.727 112.361 141.607 112.344 141.504 112.292C140.974 112.104 140.717 111.521 140.905 110.991L166.577 41.2188C166.766 40.6879 167.348 40.431 167.878 40.6194C168.409 40.8078 168.665 41.39 168.477 41.921L142.805 111.693C142.651 112.104 142.275 112.361 141.847 112.361Z" fill="black"/>
<path d="M109.705 132.33C109.705 132.33 112.94 121.078 106.282 106.778C106.282 106.778 114.84 101.828 119.974 110.408C119.974 110.408 125.109 98.5913 137.859 103.164C150.609 107.737 150.798 127.757 150.798 127.757C150.798 127.757 152.321 163.208 126.461 173.706C126.461 173.706 135.018 204.02 108.388 205.356L106.111 180.197L109.723 132.347L109.705 132.33Z" fill="#37519B"/>
<mask id="mask0_38_4809" style="mask-type:luminance" maskUnits="userSpaceOnUse" x="106" y="102" width="45" height="105">
<path d="M109.637 133.1C109.637 133.1 112.871 121.849 106.214 107.548C106.214 107.548 114.771 102.599 119.906 111.179C119.906 111.179 125.04 99.362 137.79 103.935C150.541 108.507 150.729 128.528 150.729 128.528C150.729 128.528 152.252 163.979 126.392 174.477C126.392 174.477 134.949 204.79 108.319 206.126L106.043 180.968L109.654 133.118L109.637 133.1Z" fill="white"/>
</mask>
<g mask="url(#mask0_38_4809)">
<path d="M136.319 102.462L142.771 96.7588L145.509 104.483L153.416 106.949L145.646 112.258L144.174 120.615L138.099 113.851L128.668 116.625L132.468 108.473L127.898 101.28L136.319 102.462Z" fill="#FFF200"/>
<path d="M144.174 121.626C143.883 121.626 143.609 121.506 143.421 121.283L137.79 114.981L128.976 117.567C128.6 117.687 128.189 117.567 127.915 117.259C127.659 116.951 127.59 116.522 127.761 116.163L131.321 108.507L127.042 101.794C126.837 101.451 126.837 101.04 127.042 100.698C127.248 100.372 127.641 100.184 128.035 100.235L135.993 101.349L142.103 95.9368C142.36 95.7141 142.702 95.6285 143.028 95.7141C143.353 95.7998 143.609 96.0395 143.729 96.3649L146.296 103.609L153.724 105.921C154.101 106.041 154.375 106.349 154.426 106.743C154.477 107.12 154.323 107.514 153.998 107.737L146.587 112.806L145.167 120.753C145.098 121.129 144.825 121.438 144.448 121.557C144.363 121.592 144.26 121.592 144.174 121.592V121.626ZM138.116 112.823C138.407 112.823 138.68 112.943 138.869 113.166L143.541 118.389L144.671 112.07C144.722 111.796 144.876 111.556 145.098 111.402L151.123 107.274L145.218 105.425C144.91 105.322 144.671 105.099 144.568 104.791L142.343 98.4886L137.003 103.215C136.781 103.404 136.49 103.507 136.199 103.455L129.969 102.582L133.358 107.908C133.546 108.199 133.563 108.576 133.426 108.884L130.568 114.998L137.842 112.857C137.927 112.823 138.03 112.823 138.133 112.823H138.116Z" fill="black"/>
<path d="M136.986 143.085L143.438 137.365L146.177 145.089L154.084 147.555L146.331 152.864L144.842 161.222L138.783 154.457L129.353 157.231L133.152 149.079L128.566 141.903L136.986 143.085Z" fill="#FFF200"/>
<path d="M144.842 162.249C144.551 162.249 144.277 162.129 144.089 161.907L138.458 155.604L129.644 158.19C129.25 158.31 128.857 158.19 128.583 157.882C128.326 157.574 128.258 157.146 128.429 156.786L131.989 149.131L127.71 142.417C127.505 142.075 127.505 141.664 127.71 141.321C127.915 140.996 128.309 140.807 128.703 140.859L136.661 141.972L142.771 136.56C143.028 136.337 143.37 136.252 143.695 136.337C144.02 136.423 144.277 136.663 144.397 136.988L146.964 144.232L154.392 146.544C154.768 146.664 155.042 146.973 155.093 147.367C155.145 147.743 154.991 148.137 154.666 148.36L147.255 153.429L145.834 161.376C145.766 161.752 145.492 162.061 145.116 162.181C145.03 162.215 144.927 162.215 144.842 162.215V162.249ZM138.783 153.446C139.074 153.446 139.348 153.566 139.536 153.789L144.208 159.012L145.338 152.693C145.389 152.419 145.543 152.179 145.766 152.025L151.79 147.897L145.886 146.048C145.578 145.945 145.338 145.722 145.235 145.414L143.01 139.112L137.671 143.839C137.448 144.027 137.157 144.13 136.866 144.078L130.637 143.205L134.025 148.531C134.214 148.822 134.231 149.199 134.094 149.507L131.236 155.621L138.509 153.481C138.595 153.446 138.698 153.446 138.8 153.446H138.783Z" fill="black"/>
</g>
<path d="M108.593 206.349C108.079 206.349 107.634 205.955 107.583 205.424L105.307 180.266C105.307 180.266 105.307 180.146 105.307 180.095L108.918 132.244C108.918 132.244 108.935 132.107 108.952 132.039C108.987 131.936 111.982 120.958 105.581 107.206C105.358 106.726 105.529 106.161 105.991 105.904C106.077 105.853 114.48 101.126 120.111 108.473C122.131 105.271 127.864 98.4201 138.407 102.205C143.935 104.192 148.042 109.261 150.284 116.882C151.944 122.534 152.013 127.534 152.013 127.74C152.013 128.065 153.228 163.26 127.847 174.289C128.651 177.697 131.03 190.148 124.989 198.591C121.566 203.369 116.072 205.972 108.627 206.349C108.627 206.349 108.593 206.349 108.576 206.349H108.593ZM107.326 180.163L109.517 204.259C115.815 203.746 120.47 201.451 123.363 197.409C129.712 188.538 125.742 174.118 125.69 173.963C125.554 173.467 125.81 172.936 126.289 172.747C151.208 162.643 150.01 128.134 149.993 127.791C149.993 127.569 149.651 108.387 137.739 104.106C126.067 99.91 121.326 110.357 121.138 110.802C120.984 111.145 120.659 111.385 120.282 111.402C119.906 111.419 119.546 111.23 119.358 110.905C115.627 104.671 109.962 106.315 107.857 107.24C113.813 120.718 111.28 131.251 110.955 132.484L107.361 180.146L107.326 180.163Z" fill="black"/>
<path d="M49.3589 98.3002C49.3589 98.3002 58.7207 117.824 90.1945 114.827C121.668 111.83 124.287 82.527 124.287 82.527C124.287 82.527 130.089 48.3604 93.1896 44.233C56.2904 40.1056 41.8627 75.7793 41.8627 75.7793C41.8627 75.7793 29.5059 75.0258 29.8825 85.7296C30.259 96.4334 40.9385 102.445 49.3589 98.3173V98.3002Z" fill="#FAC3C1"/>
<path d="M83.8621 116.146C70.9577 116.146 62.4517 112.155 57.3857 108.507C52.4738 104.979 49.9066 101.246 48.9311 99.6018C44.8407 101.263 40.1513 100.886 36.2149 98.5228C31.748 95.834 29.061 91.1757 28.8727 85.7638C28.7529 82.5784 29.6942 80.0095 31.6282 78.1085C34.7088 75.0943 39.4325 74.7518 41.2295 74.7518C43.4544 69.8879 58.8747 39.3692 93.3094 43.2226C104.93 44.5242 113.607 48.8913 119.101 56.2042C127.71 67.6615 125.382 82.0989 125.28 82.6983C125.28 82.9209 122.216 112.789 90.2973 115.837C88.0381 116.06 85.8988 116.146 83.8621 116.146ZM49.359 97.2897C49.4788 97.2897 49.5815 97.3068 49.6841 97.3411C49.9409 97.4267 50.1462 97.6151 50.266 97.8549C50.3516 98.0262 58.464 114.108 83.8621 114.108C85.8303 114.108 87.9012 114.005 90.0919 113.799C120.368 110.905 123.243 82.7154 123.26 82.4243C123.294 82.2016 125.553 68.1411 117.458 57.403C112.307 50.5526 104.109 46.4594 93.0698 45.2263C57.3344 41.2188 42.941 75.7965 42.804 76.139C42.6329 76.55 42.2393 76.7898 41.8114 76.7726C41.7601 76.7726 36.1636 76.4815 33.0316 79.5471C31.5255 81.0199 30.8067 83.075 30.8922 85.6611C31.0634 90.3879 33.3739 94.4297 37.2418 96.7588C40.8701 98.9338 45.2343 99.1736 48.914 97.3582C49.0509 97.2897 49.2049 97.2555 49.359 97.2555V97.2897Z" fill="black"/>
<path d="M42.5475 89.5659C42.3592 89.5659 42.1709 89.5145 42.0169 89.4117C41.5035 89.0863 38.6624 88.7267 36.3519 88.6068C35.7872 88.5725 35.3593 88.093 35.3935 87.545C35.4277 86.9798 35.907 86.5517 36.4546 86.5859C37.704 86.6544 41.8629 86.9284 43.078 87.6991C43.5572 87.9902 43.6941 88.6239 43.4032 89.1034C43.2149 89.4117 42.8726 89.583 42.5475 89.583V89.5659Z" fill="black"/>
<path d="M87.7131 94.0529C89.1782 94.0529 90.3658 93.0331 90.3658 91.7751C90.3658 90.5171 89.1782 89.4973 87.7131 89.4973C86.248 89.4973 85.0603 90.5171 85.0603 91.7751C85.0603 93.0331 86.248 94.0529 87.7131 94.0529Z" fill="#231F20"/>
<path d="M86.8915 101.177C81.894 101.177 78.3684 99.2079 78.1459 99.0709C77.6667 98.7968 77.4955 98.1803 77.7694 97.6836C78.0432 97.2041 78.6593 97.0328 79.1556 97.3069C79.2583 97.3754 86.515 101.366 94.576 97.2897C95.0723 97.0328 95.6884 97.2384 95.928 97.735C96.1847 98.2317 95.9794 98.8482 95.483 99.1051C92.4024 100.664 89.4587 101.177 86.8915 101.177Z" fill="black"/>
<path d="M93.7717 62.6264C93.4807 62.6264 93.2069 62.5066 93.0015 62.2668C92.6421 61.8386 92.6934 61.205 93.1213 60.8282C101.285 53.8921 94.8841 45.3291 94.6103 44.9694C94.268 44.5241 94.3536 43.8905 94.7985 43.548C95.2435 43.2054 95.8768 43.2911 96.2191 43.7363C96.3046 43.8391 104.075 54.1833 94.4391 62.3867C94.2509 62.5408 94.0113 62.6264 93.7888 62.6264H93.7717Z" fill="black"/>
<path d="M104.879 59.9034C104.776 59.9034 104.657 59.8863 104.554 59.852C104.023 59.6637 103.749 59.0985 103.921 58.5676C105.769 53.1044 101.507 47.2472 101.473 47.1958C101.148 46.7506 101.234 46.1169 101.679 45.7744C102.124 45.4319 102.757 45.5346 103.099 45.9799C103.305 46.2539 108.028 52.7618 105.837 59.2184C105.701 59.6465 105.307 59.9034 104.879 59.9034Z" fill="black"/>
<path d="M113.214 62.2154C113.111 62.2154 112.991 62.1983 112.889 62.164C112.358 61.9757 112.084 61.4105 112.255 60.8796C114.069 55.5191 109.859 50.9293 109.825 50.8951C109.449 50.484 109.466 49.8504 109.876 49.4565C110.287 49.0797 110.92 49.0968 111.314 49.4907C111.519 49.7134 116.414 54.9882 114.189 61.5304C114.052 61.9585 113.659 62.2154 113.231 62.2154H113.214Z" fill="black"/>
<path d="M73.8159 61.1194C73.4052 61.1194 73.0287 60.8796 72.8746 60.4686C72.6693 59.9377 72.926 59.3554 73.4565 59.1499C83.6226 55.1937 84.3586 45.175 84.3928 44.7468C84.427 44.1816 84.9234 43.7535 85.471 43.7877C86.0358 43.822 86.4466 44.3015 86.4123 44.8667C86.4123 44.9866 85.5908 56.6152 74.1925 61.0509C74.0727 61.1023 73.9529 61.1194 73.8331 61.1194H73.8159Z" fill="black"/>
<path d="M65.4811 60.8111C65.1045 60.8111 64.7451 60.6056 64.574 60.2288C64.3344 59.715 64.5398 59.1156 65.0532 58.8758C72.036 55.5191 75.2707 45.586 75.3049 45.4832C75.476 44.9523 76.0408 44.6612 76.5714 44.8324C77.1019 45.0037 77.3929 45.5688 77.2217 46.0997C77.0848 46.545 73.6961 56.9577 65.926 60.7083C65.7891 60.7768 65.6351 60.8111 65.4811 60.8111Z" fill="black"/>
<path d="M86.2924 61.1022C86.0186 61.1022 85.7448 60.9995 85.5565 60.7768C85.18 60.3658 85.1971 59.715 85.6078 59.3382C90.708 54.5943 90.0234 45.0379 90.0234 44.9523C89.9721 44.3871 90.3999 43.9076 90.9476 43.8562C91.4953 43.8049 91.9916 44.233 92.0429 44.7982C92.0772 45.2263 92.796 55.4335 86.9941 60.8282C86.8059 61.0166 86.5491 61.1022 86.3095 61.1022H86.2924Z" fill="black"/>
<path d="M89.3047 211.846C89.3047 211.846 85.5052 220.992 91.7692 223.098C98.0503 225.188 107.172 225.77 107.172 225.77C107.172 225.77 118.4 227.106 119.529 222.533C120.676 217.96 110.784 212.24 110.784 212.24L89.2876 211.863L89.3047 211.846Z" fill="#47484A"/>
<path d="M110.715 226.969C108.901 226.969 107.463 226.815 107.052 226.763C106.727 226.746 97.7763 226.164 91.4439 224.057C89.7324 223.492 88.5001 222.413 87.7984 220.872C86.0699 217.053 88.2605 211.692 88.3461 211.47C88.5001 211.093 88.8938 210.819 89.3045 210.853L110.801 211.23C110.972 211.23 111.143 211.281 111.297 211.367C112.375 211.983 121.805 217.618 120.522 222.79C119.632 226.352 114.412 227.003 110.715 227.003V226.969ZM90.0062 212.874C89.527 214.278 88.5857 217.669 89.6639 220.033C90.126 221.06 90.9304 221.745 92.0942 222.139C98.1699 224.177 107.155 224.759 107.241 224.759C109.979 225.085 117.8 225.307 118.554 222.293C119.238 219.57 114.069 215.374 110.51 213.251L90.0062 212.891V212.874Z" fill="black"/>
<path d="M85.2998 195.833L87.3878 215.477C87.3878 215.477 97.8449 220.632 111.348 212.994L109.072 190.49L85.2998 195.833Z" fill="#7E8083"/>
<path d="M96.3387 218.2C90.7593 218.2 87.1995 216.505 86.9428 216.368C86.6347 216.213 86.4122 215.905 86.378 215.563L84.29 195.919C84.2387 195.405 84.581 194.926 85.0773 194.823L108.85 189.48C109.141 189.411 109.431 189.48 109.671 189.651C109.911 189.822 110.065 190.079 110.082 190.37L112.358 212.874C112.392 213.268 112.204 213.662 111.845 213.867C105.906 217.224 100.532 218.2 96.3216 218.2H96.3387ZM88.3462 214.758C90.4855 215.597 99.3338 218.337 110.287 212.411L108.182 191.723L86.4122 196.621L88.3462 214.758Z" fill="black"/>
<path d="M165.961 24.7435L175.289 16.8826L178.883 27.8947L189.99 31.6624L178.832 38.9068L176.435 50.6724L168.101 40.8934L154.666 44.4899L160.313 33.0839L154.101 22.774L165.961 24.7435Z" fill="#FFF200"/>
<path d="M176.435 51.7C176.144 51.7 175.853 51.5801 175.665 51.3403L167.741 42.0409L154.922 45.4661C154.529 45.5688 154.135 45.4318 153.878 45.1236C153.622 44.8153 153.57 44.3871 153.758 44.0275L159.167 33.1182L153.228 23.2878C153.023 22.9452 153.04 22.5171 153.262 22.1917C153.485 21.8663 153.878 21.695 154.272 21.7635L165.67 23.6645L174.638 16.1119C174.895 15.8893 175.237 15.8208 175.563 15.9064C175.888 15.992 176.144 16.2489 176.247 16.5743L179.687 27.1069L190.298 30.7034C190.675 30.8233 190.932 31.1487 190.983 31.5426C191.034 31.9365 190.846 32.3132 190.521 32.5187L179.721 39.5233L177.411 50.8779C177.325 51.2547 177.052 51.563 176.675 51.6657C176.589 51.6829 176.504 51.7 176.418 51.7H176.435ZM168.101 39.883C168.391 39.883 168.682 40.0029 168.871 40.2426L175.853 48.446L177.839 38.7013C177.89 38.4273 178.061 38.2046 178.284 38.0505L187.68 31.9536L178.575 28.8709C178.267 28.7681 178.044 28.5284 177.941 28.2201L174.809 18.6295L166.629 25.5142C166.406 25.7025 166.098 25.7882 165.807 25.7368L156.12 24.1269L161.203 32.553C161.374 32.8441 161.392 33.2209 161.238 33.5292L156.582 42.9143L167.844 39.9001C167.929 39.883 168.015 39.8658 168.101 39.8658V39.883Z" fill="black"/>
<path d="M69.9651 214.878C69.9651 214.878 66.1656 224.023 72.4296 226.129C78.7107 228.219 87.8328 228.801 87.8328 228.801C87.8328 228.801 99.06 230.137 100.19 225.564C101.336 220.992 91.444 215.272 91.444 215.272L69.948 214.895L69.9651 214.878Z" fill="#47484A"/>
<path d="M91.3756 230C89.5615 230 88.1238 229.846 87.7131 229.794C87.3879 229.777 78.4369 229.195 72.1045 227.089C70.393 226.523 69.1608 225.444 68.4591 223.903C66.7305 220.084 68.9212 214.723 69.0068 214.501C69.1608 214.124 69.5544 213.85 69.9652 213.884L91.4612 214.261C91.6323 214.261 91.8035 214.312 91.9575 214.398C93.0358 215.015 102.466 220.649 101.182 225.821C100.292 229.383 95.0724 230.034 91.3756 230.034V230ZM70.6669 215.905C70.1877 217.31 69.2464 220.7 70.3246 223.064C70.7867 224.091 71.5911 224.777 72.7549 225.17C78.8306 227.208 87.8158 227.791 87.9014 227.791C90.6397 228.116 98.4611 228.339 99.2141 225.325C99.9672 222.293 93.7203 217.806 91.1703 216.282L70.6669 215.922V215.905Z" fill="black"/>
<path d="M65.9602 198.865L68.0482 218.508C68.0482 218.508 78.5053 223.663 92.0087 216.025L89.7325 193.521L65.9602 198.865Z" fill="#7E8083"/>
<path d="M76.9991 221.231C71.4198 221.231 67.8599 219.536 67.6032 219.399C67.2951 219.245 67.0726 218.937 67.0384 218.594L64.9504 198.95C64.8991 198.437 65.2414 197.957 65.7377 197.854L89.5099 192.511C89.8009 192.442 90.0918 192.511 90.3315 192.682C90.5711 192.853 90.7251 193.11 90.7422 193.401L93.0185 215.905C93.0527 216.299 92.8644 216.693 92.505 216.899C86.5662 220.255 81.1922 221.231 76.982 221.231H76.9991ZM69.0066 217.789C71.1459 218.628 79.9942 221.368 90.9476 215.443L88.8425 194.754L67.0726 199.653L69.0066 217.789Z" fill="black"/>
<path d="M63.6841 127.363C63.6841 127.363 39.1587 144.712 52.8505 188.178C52.8505 188.178 40.3054 185.506 37.6355 194.857C34.9656 204.191 44.8579 207.633 44.8579 207.633C44.8579 207.633 59.8846 214.107 93.5492 200.012C127.214 185.9 120.744 148.737 120.744 148.737C120.744 148.737 116.945 126.233 102.86 120.324C102.86 120.324 85.9331 113.457 63.6841 127.38V127.363Z" fill="#37519B"/>
<mask id="mask1_38_4809" style="mask-type:luminance" maskUnits="userSpaceOnUse" x="37" y="118" width="85" height="92">
<path d="M63.5984 127.466C63.5984 127.466 39.073 144.815 52.7648 188.281C52.7648 188.281 40.2197 185.609 37.5498 194.96C34.88 204.294 44.7722 207.736 44.7722 207.736C44.7722 207.736 59.7989 214.21 93.4635 200.115C127.128 186.003 120.659 148.839 120.659 148.839C120.659 148.839 116.859 126.336 102.774 120.427C102.774 120.427 85.8474 113.56 63.5984 127.483V127.466Z" fill="white"/>
</mask>
<g mask="url(#mask1_38_4809)">
<path d="M99.1626 125.839L105.615 120.119L108.353 127.843L116.26 130.309L108.49 135.618L107.018 143.976L100.943 137.211L91.5123 139.985L95.3118 131.833L90.7422 124.64L99.1626 125.839Z" fill="#FFF200"/>
<path d="M107.018 145.003C106.727 145.003 106.453 144.883 106.265 144.661L100.634 138.358L91.8204 140.944C91.4439 141.064 91.0331 140.944 90.7593 140.636C90.5026 140.328 90.4341 139.899 90.6053 139.54L94.1651 131.884L89.8865 125.171C89.6811 124.829 89.6811 124.417 89.8865 124.075C90.0918 123.75 90.4855 123.561 90.8791 123.613L98.8374 124.726L104.947 119.314C105.204 119.091 105.546 119.006 105.872 119.091C106.197 119.177 106.453 119.417 106.573 119.742L109.14 126.986L116.568 129.298C116.945 129.418 117.219 129.727 117.27 130.12C117.321 130.497 117.167 130.891 116.842 131.114L109.431 136.183L108.011 144.13C107.942 144.506 107.669 144.815 107.292 144.935C107.206 144.969 107.104 144.969 107.018 144.969V145.003ZM100.96 136.2C101.251 136.2 101.524 136.32 101.713 136.543L106.385 141.766L107.515 135.447C107.566 135.173 107.72 134.933 107.942 134.779L113.967 130.651L108.062 128.802C107.754 128.699 107.515 128.476 107.412 128.168L105.187 121.866L99.8472 126.592C99.6247 126.781 99.3337 126.884 99.0428 126.832L92.8131 125.959L96.2018 131.285C96.39 131.576 96.4071 131.953 96.2702 132.261L93.4121 138.375L100.686 136.234C100.771 136.2 100.874 136.2 100.977 136.2H100.96Z" fill="black"/>
<path d="M58.6521 148.839L65.1043 143.136L67.8427 150.86L75.7497 153.326L67.9796 158.635L66.4906 166.993L60.432 160.228L51.0019 163.003L54.8013 154.851L50.2317 147.658L58.6521 148.839Z" fill="#FFF200"/>
<path d="M66.4906 168.003C66.1997 168.003 65.9259 167.884 65.7376 167.661L60.1069 161.359L51.2928 163.945C50.9163 164.064 50.5055 163.945 50.2317 163.636C49.975 163.328 49.9065 162.9 50.0777 162.54L53.6375 154.885L49.3589 148.171C49.1535 147.829 49.1535 147.418 49.3589 147.075C49.5642 146.75 49.9579 146.562 50.3515 146.613L58.3098 147.726L64.4198 142.314C64.6765 142.092 65.0188 142.006 65.344 142.092C65.6691 142.177 65.9259 142.417 66.0457 142.742L68.6129 149.987L76.0406 152.299C76.4172 152.419 76.691 152.727 76.7423 153.121C76.7937 153.498 76.6396 153.892 76.3145 154.114L68.9038 159.183L67.4833 167.13C67.4148 167.507 67.141 167.815 66.7645 167.935C66.6789 167.969 66.5762 167.969 66.4906 167.969V168.003ZM60.4321 159.201C60.723 159.201 60.9968 159.32 61.1851 159.543L65.8574 164.767L66.987 158.447C67.0383 158.173 67.1924 157.933 67.4148 157.779L73.4392 153.652L67.5346 151.802C67.2266 151.699 66.987 151.477 66.8843 151.168L64.6594 144.866L59.3196 149.593C59.0971 149.781 58.8062 149.884 58.5152 149.833L52.2855 148.959L55.6742 154.285C55.8624 154.577 55.8796 154.953 55.7426 155.262L52.8845 161.376L60.1582 159.235C60.2438 159.201 60.3465 159.201 60.4492 159.201H60.4321Z" fill="black"/>
<path d="M95.7739 163.739L102.243 158.019L104.982 165.743L112.889 168.209L105.119 173.518L103.63 181.893L97.571 175.111L88.1408 177.885L91.9402 169.733L87.3706 162.557L95.7739 163.739Z" fill="#FFF200"/>
<path d="M103.63 182.903C103.339 182.903 103.065 182.783 102.877 182.561L97.2458 176.258L88.4317 178.844C88.0552 178.964 87.6445 178.844 87.3706 178.536C87.1139 178.228 87.0454 177.8 87.2166 177.44L90.7764 169.785L86.4978 163.071C86.2924 162.729 86.2924 162.318 86.4978 161.975C86.7203 161.65 87.0968 161.461 87.4904 161.513L95.4488 162.626L101.559 157.214C101.815 156.991 102.158 156.906 102.483 156.991C102.808 157.077 103.065 157.317 103.185 157.642L105.752 164.886L113.18 167.199C113.556 167.318 113.83 167.627 113.881 168.021C113.933 168.397 113.779 168.791 113.453 169.014L106.043 174.083L104.622 182.03C104.554 182.407 104.28 182.715 103.903 182.835C103.818 182.869 103.715 182.869 103.63 182.869V182.903ZM97.571 174.1C97.8619 174.1 98.1358 174.22 98.324 174.443L102.996 179.666L104.126 173.347C104.177 173.073 104.331 172.833 104.554 172.679L110.578 168.551L104.674 166.702C104.365 166.599 104.126 166.376 104.023 166.068L101.798 159.766L96.4585 164.493C96.236 164.681 95.9451 164.784 95.6541 164.732L89.4244 163.859L92.8131 169.185C93.0014 169.476 93.0185 169.853 92.8816 170.161L90.0234 176.275L97.2971 174.135C97.3998 174.1 97.4854 174.1 97.5881 174.1H97.571Z" fill="black"/>
<path d="M69.4514 194.532L75.9037 188.812L78.642 196.536L86.549 199.002L78.796 204.311L77.3071 212.685L71.2313 205.904L61.8012 208.678L65.6006 200.526L61.031 193.35L69.4514 194.532Z" fill="#FFF200"/>
<path d="M77.3071 213.696C77.0161 213.696 76.7423 213.576 76.554 213.353L70.9233 207.051L62.1092 209.637C61.7327 209.757 61.322 209.637 61.0481 209.329C60.7914 209.021 60.7229 208.592 60.8941 208.233L64.4539 200.577L60.1753 193.864C59.9699 193.521 59.9699 193.11 60.1753 192.768C60.3806 192.442 60.7743 192.254 61.1679 192.305L69.1262 193.419L75.2362 188.007C75.4929 187.784 75.8352 187.699 76.1604 187.784C76.4856 187.87 76.7423 188.11 76.8621 188.435L79.4293 195.679L86.857 197.991C87.2336 198.111 87.5074 198.419 87.5587 198.813C87.6101 199.19 87.4561 199.584 87.1309 199.807L79.7202 204.876L78.2997 212.823C78.2312 213.199 77.9574 213.508 77.5809 213.627C77.4953 213.662 77.3926 213.662 77.3071 213.662V213.696ZM71.2485 204.893C71.5394 204.893 71.8132 205.013 72.0015 205.236L76.6738 210.459L77.8034 204.14C77.8547 203.866 78.0088 203.626 78.2312 203.472L84.2556 199.344L78.351 197.495C78.043 197.392 77.8034 197.169 77.7007 196.861L75.4758 190.559L70.136 195.285C69.9135 195.474 69.6226 195.577 69.3316 195.525L63.1019 194.652L66.4906 199.978C66.6788 200.269 66.696 200.646 66.559 200.954L63.7009 207.068L70.9746 204.927C71.0773 204.893 71.1629 204.893 71.2656 204.893H71.2485Z" fill="black"/>
</g>
<path d="M55.5887 210.151C48.315 210.151 44.7551 208.678 44.447 208.558C44.4128 208.558 33.7504 204.722 36.6428 194.566C38.7136 187.322 46.4323 186.346 51.3785 186.911C47.6646 174.409 45.0461 156.82 52.1829 141.047C56.6669 131.131 62.8111 126.712 63.0678 126.524C63.0678 126.524 63.102 126.507 63.1191 126.49C85.5565 112.463 102.5 119.074 103.219 119.348C109.226 121.866 114.343 127.74 117.989 136.303C120.71 142.708 121.686 148.291 121.72 148.514C121.788 148.891 127.932 186.654 93.9084 200.903C76.2119 208.318 63.6155 210.117 55.5716 210.117L55.5887 210.151ZM48.8455 188.812C45.2343 188.812 40.0999 189.805 38.5938 195.114C37.6012 198.591 38.3884 201.588 40.9385 203.985C42.8896 205.835 45.1659 206.64 45.183 206.64C45.3883 206.726 60.3979 212.754 93.1554 199.036C125.656 185.421 119.803 149.233 119.752 148.856C119.717 148.634 115.867 126.832 102.483 121.215C102.329 121.146 85.7618 114.758 64.2658 128.168C63.4786 128.75 40.6989 146.168 53.8259 187.835C53.9286 188.178 53.8601 188.555 53.6034 188.829C53.3638 189.103 53.0044 189.223 52.645 189.137C52.4738 189.103 50.9164 188.777 48.8626 188.777L48.8455 188.812Z" fill="black"/>
<path d="M54.4421 105.562C54.4421 105.562 42.1195 111.59 44.1733 123.202C46.227 134.813 56.7868 137.605 68.5103 132.313C80.2339 127.021 86.8401 123.047 98.7177 126.438C98.7177 126.438 102.089 126.284 105.752 122.328C105.752 122.328 96.9549 112.035 65.8576 119.674C65.8576 119.674 55.8797 123.047 54.134 118.783C52.3712 114.519 56.1878 112.172 56.1878 112.172C56.1878 112.172 57.9506 110.562 61.6131 110.699C61.6131 110.699 55.9653 107.634 54.425 105.562H54.4421Z" fill="#D5D7D8"/>
<path d="M57.7794 135.909C55.0582 135.909 52.5595 135.344 50.3859 134.196C46.5522 132.158 44.0535 128.425 43.1635 123.373C41.0071 111.145 53.8602 104.705 53.98 104.637C54.425 104.414 54.9384 104.551 55.2294 104.945C56.3932 106.504 60.5691 108.987 62.0923 109.809C62.5031 110.032 62.7085 110.511 62.5887 110.973C62.4689 111.436 62.041 111.727 61.5789 111.727C58.4298 111.607 56.9237 112.892 56.8724 112.943C56.8381 112.977 56.7697 113.029 56.7354 113.046C56.4274 113.234 53.7061 115.084 55.0924 118.406C56.2391 121.163 63.2048 119.519 65.5666 118.714C96.9891 110.991 106.18 121.215 106.556 121.66C106.899 122.054 106.881 122.636 106.522 123.013C102.62 127.243 98.9402 127.449 98.7862 127.449C98.6835 127.449 98.5637 127.449 98.461 127.415C88.0724 124.452 82.0994 127.209 72.19 131.765C71.146 132.244 70.0678 132.741 68.9382 133.255C65.0018 135.036 61.2024 135.926 57.7966 135.926L57.7794 135.909ZM54.2025 106.829C51.7208 108.25 43.5229 113.697 45.1659 123.013C45.9532 127.432 48.0754 130.668 51.3443 132.398C55.5888 134.642 61.6987 134.282 68.0996 131.388C69.2292 130.874 70.2903 130.394 71.3343 129.915C81.2608 125.359 87.8328 122.328 98.8204 125.411C99.3852 125.325 101.696 124.863 104.297 122.362C101.713 120.341 91.4782 114.416 66.1143 120.65C65.0874 121.009 55.2636 124.161 53.2098 119.177C51.5839 115.221 54.0313 112.361 55.6059 111.35C55.8797 111.128 56.821 110.425 58.4469 110.014C56.9922 109.107 55.2807 107.925 54.2196 106.846L54.2025 106.829Z" fill="black"/>
<path d="M103.749 87.3691C109.309 86.1591 113.114 81.9488 112.249 77.9653C111.383 73.9819 106.174 71.7336 100.613 72.9437C95.0531 74.1537 91.2475 78.364 92.1133 82.3475C92.9791 86.3309 98.1884 88.5792 103.749 87.3691Z" fill="white"/>
<path d="M97.8962 74.1523C97.8962 74.1523 102.192 75.4539 102.106 81.3796C102.021 87.2881 98.4952 88.0759 98.4952 88.0759C98.4952 88.0759 91.9746 87.0483 92.043 81.4652C92.1115 75.8821 97.8962 74.1695 97.8962 74.1695V74.1523Z" fill="black"/>
<path d="M100.498 89.0521C95.7055 89.0521 91.9917 86.7058 91.153 82.8524C90.1262 78.0913 94.0283 73.6214 100.446 72.2342C106.864 70.847 112.255 73.296 113.282 78.0571C114.309 82.8181 110.407 87.2881 103.989 88.6753C102.791 88.9322 101.61 89.0692 100.498 89.0692V89.0521ZM103.938 73.8783C102.962 73.8783 101.935 73.9811 100.874 74.2208C95.62 75.3683 92.3511 78.8106 93.1383 82.4242C93.9256 86.0379 98.307 87.819 103.561 86.6887C108.815 85.5412 112.084 82.0988 111.297 78.4852C110.681 75.608 107.754 73.8783 103.938 73.8783Z" fill="black"/>
<path d="M99.5222 88.504C99.2312 88.504 98.9574 88.3841 98.752 88.1444C98.3926 87.7162 98.444 87.0826 98.8718 86.7058C98.9745 86.6201 101.61 84.291 101.234 80.4376C100.857 76.6699 97.9647 75.3854 97.8449 75.334C97.3315 75.1114 97.0919 74.512 97.3144 73.9982C97.5369 73.4844 98.1188 73.2447 98.6322 73.4502C98.8034 73.5187 102.757 75.2142 103.253 80.2321C103.732 85.1644 100.344 88.1272 100.19 88.2471C100.001 88.4013 99.7618 88.4869 99.5393 88.4869L99.5222 88.504Z" fill="black"/>
<path d="M82.6028 82.4776C83.1916 78.4438 79.1045 74.5066 73.474 73.6836C67.8436 72.8607 62.8019 75.4636 62.2131 79.4974C61.6243 83.5312 65.7114 87.4684 71.3418 88.2914C76.9723 89.1143 82.014 86.5114 82.6028 82.4776Z" fill="white"/>
<path d="M70.0336 73.8612C70.0336 73.8612 74.3465 76.5671 72.6521 82.3558C70.9578 88.1444 67.5862 87.6649 67.5862 87.6649C67.5862 87.6649 60.09 84.6164 62.5545 78.8107C65.019 73.0049 70.0507 73.8612 70.0507 73.8612H70.0336Z" fill="black"/>
<path d="M73.6448 89.7885C72.8575 89.7885 72.036 89.7371 71.1974 89.6001C68.014 89.1377 65.3784 87.9217 63.53 86.0892C61.6816 84.2567 60.8601 81.9618 61.2024 79.6498C61.5447 77.3206 62.9823 75.3683 65.2586 74.1352C67.5348 72.9021 70.4272 72.4911 73.5934 72.9535C76.7768 73.4159 79.4124 74.6318 81.2608 76.4643C83.1092 78.2968 83.9307 80.5917 83.5884 82.9038C82.9723 87.0997 78.9503 89.7713 73.6277 89.7713L73.6448 89.7885ZM71.1631 74.8202C69.2976 74.8202 67.5862 75.197 66.2341 75.9334C64.5227 76.8582 63.4615 78.2797 63.2219 79.9581C62.9823 81.6364 63.5985 83.2977 64.9848 84.6678C66.4908 86.1748 68.8013 87.2024 71.5054 87.5963C76.8281 88.367 81.0897 86.2776 81.6202 82.6297C81.8598 80.9514 81.2437 79.2902 79.8574 77.9201C78.3513 76.413 76.0408 75.3854 73.3367 74.9915C72.6008 74.8887 71.882 74.8374 71.1803 74.8374L71.1631 74.8202Z" fill="black"/>
<path d="M68.9725 88.6068C68.6131 88.6068 68.2708 88.4184 68.0825 88.093C67.8087 87.5963 67.9798 86.9798 68.4761 86.7058C68.5959 86.6373 71.6595 84.839 72.0531 80.9C72.4467 77.0466 69.8795 75.1799 69.7597 75.0943C69.2976 74.7689 69.195 74.1352 69.503 73.6899C69.8282 73.2275 70.4443 73.1076 70.9064 73.433C71.0605 73.5358 74.5861 76.0191 74.0555 81.1055C73.5421 86.1235 69.6228 88.3841 69.4517 88.4698C69.2976 88.5554 69.1265 88.6068 68.9554 88.6068H68.9725Z" fill="black"/>
<path d="M109.979 69.083C109.825 69.083 109.671 69.0487 109.517 68.9802C109.466 68.946 103.458 65.966 97.8106 68.1924C97.2972 68.3979 96.6981 68.1411 96.4928 67.6273C96.2874 67.1135 96.5441 66.5141 97.0576 66.3086C103.561 63.7396 110.15 67.0279 110.424 67.1649C110.92 67.4218 111.126 68.0212 110.869 68.5349C110.698 68.8946 110.339 69.083 109.962 69.083H109.979Z" fill="black"/>
<path d="M64.3343 69.357C63.9749 69.357 63.6326 69.1686 63.4615 68.8432C63.1877 68.3637 63.3588 67.73 63.838 67.456C64.1119 67.3019 70.5299 63.7054 77.1532 65.966C77.6838 66.1544 77.9576 66.7196 77.7865 67.2505C77.5982 67.7814 77.0334 68.0725 76.5029 67.8841C70.7352 65.9146 64.8991 69.1686 64.8478 69.2029C64.6938 69.2885 64.5226 69.3399 64.3515 69.3399L64.3343 69.357Z" fill="black"/>
</g>
<defs>
<clipPath id="clip0_38_4809">
<rect width="170" height="228" fill="white" transform="translate(21 2)"/>
</clipPath>
</defs>
</svg>
