<svg width="230" height="246" viewBox="0 0 230 246" fill="none" xmlns="http://www.w3.org/2000/svg">
<ellipse cx="97.5" cy="227" rx="76.5" ry="19" fill="#D9D9D9" fill-opacity="0.5"/>
<ellipse cx="199.5" cy="212.5" rx="18.5" ry="6.5" fill="#D9D9D9" fill-opacity="0.5"/>
<g clip-path="url(#clip0_37_2143)">
<path d="M63.0836 189.436C63.0836 189.436 52.422 207.557 51.6724 210.607C51.6724 210.607 44.636 201.072 38.7316 208.507C32.8271 215.942 45.0185 225.677 45.0185 225.677C45.0185 225.677 53.3856 233.311 61.5693 221.093C69.7529 208.89 73.7453 199.156 73.7453 199.156L63.0836 189.436Z" fill="#3E2B2F"/>
<path d="M51.2754 229.172C47.1912 229.172 44.3614 226.643 44.2237 226.52C44.1472 226.459 41.0726 223.991 38.7016 220.526C35.367 215.666 35.0611 211.266 37.8144 207.802C39.5735 205.594 41.5927 204.49 43.8719 204.536C47.0076 204.598 49.7457 206.867 51.2754 208.446C53.7381 203.08 61.1263 190.479 62.0747 188.869L62.7936 187.658L75.0767 198.864L74.7708 199.6C74.7249 199.692 70.6407 209.58 62.4877 221.737C59.5049 226.183 56.1397 228.651 52.4532 229.096C52.0402 229.142 51.6425 229.172 51.2601 229.172H51.2754ZM43.7648 206.821C42.2504 206.821 40.889 207.602 39.6041 209.227C34.4798 215.682 45.5851 224.696 45.7074 224.788C45.7839 224.864 48.5373 227.287 52.2238 226.827C55.2066 226.459 58.0211 224.312 60.6062 220.465C67.3673 210.377 71.2679 201.946 72.3539 199.462L63.3443 191.23C59.1225 198.466 53.2639 208.875 52.7591 210.883L52.1779 213.229L50.74 211.282C50.74 211.282 47.4207 206.867 43.8413 206.805C43.8107 206.805 43.7954 206.805 43.7648 206.805V206.821Z" fill="black"/>
<path d="M84.5739 198.788C84.5739 198.788 91.2279 210.99 98.0807 216.141C98.0807 216.141 89.5147 215.758 90.6619 221.86C91.8091 227.961 97.6983 229.295 103.404 228.728C109.109 228.16 116.146 222.81 111.588 215.375C107.014 207.94 96.5511 193.821 96.5511 193.821L84.5586 198.772L84.5739 198.788Z" fill="#3E2B2F"/>
<path d="M101.064 230C94.6547 230 90.4941 227.195 89.5457 222.074C89.2092 220.25 89.5457 218.702 90.6011 217.49C91.779 216.126 93.6604 215.498 95.236 215.222C89.1174 209.442 83.8248 199.799 83.5647 199.339L82.9529 198.22L96.9339 192.441L97.4693 193.161C97.5763 193.299 108.024 207.403 112.552 214.792C114.923 218.64 114.295 221.722 113.347 223.638C111.466 227.44 106.938 229.54 103.511 229.893C102.655 229.985 101.829 230.015 101.049 230.015L101.064 230ZM97.7293 217.291C96.3985 217.291 93.5534 217.582 92.3143 219.008C91.7484 219.667 91.5648 220.541 91.779 221.66C92.9109 227.716 99.4884 227.976 103.297 227.593C106.112 227.317 109.814 225.631 111.313 222.611C112.307 220.587 112.077 218.364 110.624 215.988C106.724 209.626 98.3565 198.205 96.1691 195.231L86.211 199.355C88.016 202.451 93.3851 211.19 98.7695 215.237L101.706 217.444L98.0352 217.291C97.9434 217.291 97.8517 217.291 97.7293 217.291Z" fill="black"/>
<path d="M73.348 154.728C72.782 154.728 44.8047 155.112 44.8047 155.112L45.7531 163.697L67.26 166.18L73.348 154.744V154.728Z" fill="#FAC3C1"/>
<path d="M67.2606 167.315C67.2606 167.315 67.1688 167.315 67.1229 167.315L45.616 164.831C45.0807 164.77 44.6676 164.356 44.6065 163.819L43.6581 155.234C43.6275 154.912 43.7193 154.59 43.9334 154.345C44.1476 154.1 44.4535 153.962 44.7747 153.962C45.922 153.947 72.7673 153.579 73.3333 153.579C73.731 153.579 74.1134 153.793 74.3123 154.131C74.5111 154.468 74.5264 154.897 74.3429 155.265L68.2549 166.701C68.056 167.069 67.6583 167.315 67.2453 167.315H67.2606ZM46.7939 162.654L66.6181 164.938L71.4365 155.893C66.664 155.955 54.0903 156.123 46.0902 156.231L46.8092 162.654H46.7939Z" fill="black"/>
<path d="M43.2446 162.838C43.2446 162.838 35.5352 177.141 37.2484 181.142C38.9616 185.144 43.9483 176.283 43.9483 176.283C43.9483 176.283 42.6634 187.152 47.0841 186.293C51.5048 185.435 50.0822 163.267 50.0822 163.267L43.2293 162.838H43.2446Z" fill="#F0534A"/>
<path d="M46.6102 187.489C45.8148 187.489 45.0959 187.213 44.5146 186.661C43.1226 185.374 42.7096 182.706 42.6331 180.361C41.3482 181.986 39.8033 183.427 38.3501 183.335C37.8147 183.304 36.8052 183.043 36.1933 181.602C34.3577 177.31 40.9046 164.77 42.2354 162.302C42.4496 161.903 42.8626 161.673 43.3062 161.704L50.159 162.133C50.725 162.164 51.1839 162.623 51.2298 163.206C51.6734 170.181 52.1935 186.477 47.3139 187.428C47.0691 187.474 46.8397 187.504 46.6102 187.504V187.489ZM43.9486 175.133C44.071 175.133 44.1934 175.148 44.3005 175.194C44.8205 175.363 45.1418 175.869 45.0806 176.421C44.7441 179.287 44.8205 183.841 46.0596 184.99C46.2125 185.144 46.4267 185.266 46.8703 185.174C48.6447 184.837 49.6084 175.225 49.0118 164.356L43.9028 164.034C40.8741 169.798 37.31 178.383 38.2889 180.698C38.396 180.943 38.4878 181.035 38.5184 181.05C39.222 181.05 41.3941 178.475 42.9544 175.716C43.1685 175.348 43.5509 175.133 43.9486 175.133Z" fill="black"/>
<path d="M53.5236 139.674C53.5236 139.674 44.8199 148.688 44.2539 158.27L48.5369 164.141C48.5369 164.141 55.8181 155.985 62.6709 151.126C62.6709 151.126 74.9387 136.823 53.5389 139.689L53.5236 139.674Z" fill="#F0534A"/>
<path d="M48.522 165.276C48.522 165.276 48.4914 165.276 48.4608 165.276C48.109 165.26 47.8031 165.092 47.5889 164.8L43.3059 158.929C43.1529 158.714 43.0765 158.454 43.0918 158.178C43.673 148.29 52.3156 139.229 52.6827 138.862C52.8662 138.678 53.0957 138.555 53.3557 138.524C60.8051 137.528 65.1646 138.432 66.7249 141.299C68.9123 145.346 64.0633 151.187 63.5126 151.846C63.4514 151.923 63.3902 151.984 63.3137 152.03C56.6445 156.767 49.4551 164.8 49.3786 164.877C49.1645 165.122 48.8585 165.26 48.522 165.26V165.276ZM45.4015 157.932L48.6138 162.332C50.8012 159.971 56.3997 154.176 61.8606 150.267C63.069 148.811 65.9141 144.61 64.7057 142.403C64.1397 141.345 61.9829 139.751 54.0594 140.747C52.6521 142.296 46.0746 149.945 45.4015 157.917V157.932Z" fill="black"/>
<path d="M108.238 113.383C108.238 113.383 147.932 105.81 166.242 137.497C184.568 169.185 160.139 195.814 160.139 195.814C160.139 195.814 130.051 232.545 91.8861 178.138L76.406 118.672L108.253 113.398L108.238 113.383Z" fill="#F0534A"/>
<path d="M134.533 209.09C134.135 209.09 133.737 209.09 133.324 209.074C118.9 208.538 104.643 198.343 90.9376 178.797C90.8611 178.69 90.8 178.567 90.7694 178.429L75.2893 118.963C75.2128 118.656 75.2587 118.319 75.4423 118.058C75.6105 117.782 75.9012 117.598 76.2071 117.552L108.039 112.279C109.064 112.095 148.865 105.181 167.237 136.945C185.761 168.986 161.225 196.35 160.98 196.611C160.598 197.086 150.548 209.105 134.533 209.105V209.09ZM92.9262 177.647C106.158 196.457 119.772 206.253 133.385 206.775C149.003 207.357 159.16 195.216 159.252 195.093C159.527 194.786 182.915 168.633 165.248 138.064C147.535 107.435 108.835 114.425 108.437 114.502C108.437 114.502 108.422 114.502 108.406 114.502L77.7979 119.576L92.9109 177.632L92.9262 177.647Z" fill="black"/>
<path d="M41.3604 156.246C41.3604 156.246 38.0258 165.996 45.2304 167.345C52.4351 168.694 52.4963 164.816 52.4963 164.816C52.4963 164.816 53.1846 161.842 45.4599 160.83C45.4599 160.83 52.9704 163.022 53.3987 159.465C53.3987 159.465 54.5919 156.476 47.6167 155.219C47.6167 155.219 53.8424 156.614 54.1483 153.533C54.4542 150.451 47.5402 149.731 47.5402 149.731C47.5402 149.731 43.3184 148.596 41.3604 156.261V156.246Z" fill="#FAC3C1"/>
<path d="M48.0787 168.786C47.1609 168.786 46.1513 168.679 45.0347 168.48C42.9697 168.096 41.4553 167.085 40.5069 165.46C38.4113 161.857 40.0786 156.537 40.2775 155.939C41.1341 152.613 42.5261 150.359 44.4075 149.255C45.9525 148.351 47.3292 148.52 47.7269 148.612C48.8129 148.734 55.6811 149.654 55.2833 153.655C55.1916 154.544 54.7633 155.28 54.0443 155.801C53.7996 155.985 53.5243 156.123 53.2336 156.246C53.6466 156.599 53.9679 156.982 54.1973 157.411C54.7633 158.438 54.6103 159.343 54.5185 159.726C54.3809 160.631 53.9067 161.366 53.1418 161.872C52.943 162.01 52.7288 162.118 52.4994 162.21C52.7135 162.424 52.9124 162.639 53.0654 162.869C53.6925 163.773 53.6772 164.57 53.6313 164.923C53.616 165.337 53.4631 166.548 52.3158 167.529C51.3216 168.372 49.899 168.802 48.0634 168.802L48.0787 168.786ZM46.9621 150.804C46.136 150.804 43.811 151.294 42.4802 156.537C42.4802 156.568 42.4649 156.599 42.4496 156.629C42.4343 156.675 40.8282 161.489 42.4802 164.31C43.0767 165.337 44.0557 165.965 45.4477 166.226C48.9353 166.885 50.3273 166.226 50.8474 165.782C51.3369 165.352 51.3674 164.862 51.3674 164.846C51.3674 164.754 51.3674 164.647 51.398 164.555C51.398 164.555 51.291 163.405 48.2928 162.547C46.7326 162.378 45.4171 162.01 45.1571 161.934C44.5911 161.765 44.2393 161.182 44.3616 160.6C44.484 160.017 45.0347 159.619 45.6313 159.695C46.7632 159.849 47.7881 160.048 48.6906 160.293C50.0061 160.431 51.2757 160.385 51.9181 159.956C52.1476 159.803 52.2546 159.619 52.2852 159.327C52.2852 159.235 52.3158 159.128 52.3617 159.036C52.3617 159.036 52.4076 158.776 52.1935 158.438C51.8875 157.948 50.9391 157.059 48.0022 156.445C47.6963 156.399 47.4821 156.353 47.3904 156.323C46.7785 156.185 46.3961 155.587 46.5185 154.974C46.6408 154.36 47.2221 153.962 47.834 154.069C48.0328 154.1 48.247 154.146 48.4305 154.192C49.9143 154.437 51.9334 154.498 52.7288 153.916C52.9124 153.778 53.0042 153.625 53.0195 153.395C53.1418 152.138 49.7919 151.095 47.4362 150.85C47.3751 150.85 47.3139 150.834 47.2527 150.819C47.2374 150.819 47.1303 150.789 46.9621 150.789V150.804Z" fill="black"/>
<path d="M66.8934 135.474C66.8934 135.474 49.7613 163.513 56.6141 186.585C63.467 209.657 84.775 203.555 84.775 203.555C84.775 203.555 106.282 200.321 104.186 181.434C102.091 162.547 99.0466 165.613 98.4806 135.857L66.8934 135.474Z" fill="#875A4D"/>
<path d="M78.6256 205.518C70.4573 205.518 59.8721 201.624 55.5126 186.907C51.8874 174.688 54.9161 161.182 58.0977 152C61.5242 142.096 65.7307 135.167 65.9143 134.876L66.2508 134.324L99.5971 134.722V135.826C99.9796 154.314 101.31 160.14 102.733 166.318C103.62 170.181 104.538 174.167 105.333 181.311C107.46 200.459 86.5186 204.429 85.0349 204.674C83.2605 205.18 81.0578 205.518 78.6409 205.518H78.6256ZM67.5204 136.623C65.2106 140.655 51.5814 165.69 57.6847 186.247C64.1246 207.94 83.6123 202.681 84.4383 202.451L84.576 202.421C84.576 202.421 89.838 201.593 94.687 198.558C101.02 194.602 103.834 188.884 103.008 181.556C102.228 174.55 101.326 170.626 100.454 166.839C99.0465 160.677 97.7004 154.851 97.318 136.991L67.5051 136.623H67.5204Z" fill="black"/>
<path d="M98.9523 146.634C98.9523 146.634 88.1071 167.33 76.7877 174.474C65.4683 181.618 71.9387 182.675 71.9387 182.675C71.9387 182.675 73.6519 182.967 77.8432 179.809C77.8432 179.809 72.6118 183.335 74.2332 184.96C75.8546 186.585 80.1376 182.859 80.1376 182.859C80.1376 182.859 75.7628 186.585 77.6596 188.102C79.5564 189.635 83.1816 187.535 85.6444 185.435C88.1224 183.335 98.2946 173.033 101.629 167.131C101.629 167.131 98.4934 151.969 98.9676 146.634H98.9523Z" fill="#FAC3C1"/>
<path d="M79.2218 189.773C78.3958 189.773 77.6004 189.559 76.9121 189.007C76.3308 188.532 76.0096 187.903 76.0096 187.152C76.0096 186.907 76.0402 186.661 76.1014 186.416C75.1071 186.631 74.1434 186.508 73.4092 185.772C72.935 185.297 72.7055 184.668 72.782 183.994C72.782 183.917 72.7973 183.825 72.8126 183.749C72.2619 183.856 71.9254 183.825 71.7419 183.81C71.5124 183.779 69.3709 183.381 69.0038 181.526C68.5755 179.425 70.8547 176.881 76.1778 173.508C87.1148 166.609 97.8377 146.312 97.9448 146.097C98.1895 145.607 98.7555 145.377 99.2756 145.53C99.7956 145.684 100.132 146.189 100.086 146.726C99.6274 151.831 102.702 166.747 102.733 166.885C102.794 167.161 102.733 167.437 102.61 167.682C99.2297 173.677 89.1034 183.979 86.3653 186.309C85.2487 187.259 82.0211 189.773 79.2218 189.773ZM80.7668 183.81C79.5431 184.868 78.2888 186.431 78.2888 187.121C79.3595 188.026 82.1129 186.922 84.8815 184.561C87.4055 182.415 96.9964 172.649 100.392 166.931C99.9945 164.938 98.3731 156.737 97.8836 150.835C94.1818 157.181 85.9982 169.982 77.371 175.44C70.977 179.471 71.2065 181.004 71.2218 181.066C71.2677 181.265 71.8183 181.495 72.0937 181.541C72.0631 181.541 73.3174 181.541 76.1931 179.563C76.5908 179.257 76.9427 179.012 77.1721 178.858C77.6922 178.506 78.3805 178.644 78.7476 179.15C79.0995 179.655 78.9924 180.361 78.5029 180.729C78.1817 180.958 77.891 181.188 77.6004 181.388C76.1778 182.492 75.0153 183.733 75.0459 184.224C75.4436 184.576 77.5698 183.519 79.283 182.062C79.3136 182.032 79.3442 182.001 79.3748 181.986C79.849 181.587 80.5679 181.633 80.9809 182.108C81.3939 182.583 81.3328 183.304 80.8586 183.718C80.828 183.733 80.7974 183.764 80.7668 183.795V183.81Z" fill="black"/>
<path d="M127.144 80.8672C127.144 80.8672 132.941 142.648 78.394 142.648H77.3539C22.8066 142.648 28.6039 80.8672 28.6039 80.8672C28.6039 80.8672 73.0403 49.8234 127.129 80.8672H127.144Z" fill="#FAC3C1"/>
<path d="M78.3933 143.798H77.3531C62.1025 143.798 50.0489 139.03 41.4981 129.617C24.8097 111.236 27.3489 81.9863 27.4559 80.7599C27.4865 80.4226 27.6701 80.116 27.9454 79.932C28.4043 79.6254 73.6055 48.8269 127.694 79.8707C128.015 80.0547 128.229 80.3919 128.26 80.7599C128.382 82.0016 130.906 111.252 114.218 129.617C105.682 139.015 93.6133 143.798 78.3627 143.798H78.3933ZM29.7045 81.511C29.4445 85.5889 28.4043 111.804 43.196 128.084C51.2879 136.991 62.7756 141.498 77.3531 141.498H78.3933C92.9709 141.498 104.459 136.976 112.55 128.069C127.312 111.819 126.317 85.7729 126.042 81.5417C76.2977 53.334 34.4464 78.445 29.7045 81.4957V81.511Z" fill="black"/>
<path d="M57.6315 113.235C63.8554 113.065 68.7271 106.533 68.5127 98.6453C68.2984 90.7572 63.0792 84.5004 56.8553 84.6703C50.6314 84.8402 45.7597 91.3724 45.974 99.2604C46.1884 107.148 51.4076 113.405 57.6315 113.235Z" fill="white"/>
<path d="M57.3783 114.379C50.6632 114.379 45.0647 107.68 44.8352 99.2788C44.6058 90.7705 49.9748 83.7033 56.8277 83.504C60.1623 83.3966 63.3899 84.9603 65.8067 87.8884C68.1777 90.7245 69.5391 94.5264 69.6461 98.6043C69.7532 102.682 68.606 106.545 66.388 109.504C64.1241 112.539 61.0189 114.272 57.6537 114.364C57.5619 114.364 57.4701 114.364 57.3783 114.364V114.379ZM57.0877 85.8035C57.0877 85.8035 56.95 85.8035 56.8736 85.8035C51.2903 85.9568 46.9155 91.9816 47.1144 99.2175C47.3132 106.469 52.0093 112.202 57.5925 112.08C60.2388 112.003 62.7168 110.608 64.5524 108.14C66.4492 105.595 67.4434 102.222 67.3517 98.6656C67.2599 95.109 66.0821 91.7976 64.0476 89.3601C62.1356 87.0606 59.6728 85.8035 57.0877 85.8035Z" fill="black"/>
<path d="M61.5337 111.292C65.6544 110.998 68.5894 105.063 68.0893 98.0363C67.5892 91.0099 63.8434 85.5526 59.7228 85.8472C55.6021 86.1418 52.6671 92.0766 53.1672 99.103C53.6673 106.129 57.4131 111.587 61.5337 111.292Z" fill="black"/>
<path d="M87.0612 112.433C93.2851 112.263 98.1568 105.731 97.9424 97.8426C97.7281 89.9546 92.5089 83.6978 86.285 83.8676C80.0611 84.0375 75.1894 90.5697 75.4037 98.4577C75.6181 106.346 80.8373 112.603 87.0612 112.433Z" fill="white"/>
<path d="M86.8234 113.582C80.1083 113.582 74.5098 106.883 74.2803 98.4817C74.1732 94.4038 75.3205 90.5406 77.5385 87.5818C79.8023 84.5464 82.9075 82.8141 86.2728 82.7221C86.3645 82.7221 86.4563 82.7221 86.5481 82.7221C93.2633 82.7221 98.8618 89.4215 99.0912 97.8225C99.3207 106.331 93.9516 113.398 87.0988 113.597C87.007 113.597 86.9152 113.597 86.8234 113.597V113.582ZM86.5328 85.0063C86.5328 85.0063 86.3951 85.0063 86.3187 85.0063C83.6724 85.083 81.1943 86.4781 79.3587 88.9462C77.462 91.4911 76.4677 94.8637 76.5595 98.4203C76.7583 105.672 81.485 111.42 87.0376 111.282C92.6208 111.129 96.9956 105.104 96.7968 97.8684C96.5979 90.7092 92.0242 85.0063 86.5328 85.0063Z" fill="black"/>
<path d="M90.9673 110.482C95.0879 110.188 98.023 104.253 97.5229 97.2264C97.0228 90.2 93.277 84.7427 89.1563 85.0373C85.0357 85.3319 82.1007 91.2667 82.6008 98.2931C83.1009 105.32 86.8467 110.777 90.9673 110.482Z" fill="black"/>
<path d="M72.6696 117.459C74.7639 117.402 76.4332 116.306 76.398 115.011C76.3628 113.716 74.6365 112.713 72.5421 112.77C70.4478 112.827 68.7785 113.923 68.8137 115.218C68.8489 116.513 70.5752 117.517 72.6696 117.459Z" fill="black"/>
<path d="M72.5067 118.028C71.4512 118.028 70.457 117.782 69.6922 117.338C68.7897 116.817 68.2696 116.065 68.2543 115.222C68.239 114.394 68.6979 113.613 69.5851 113.045C70.3805 112.524 71.4207 112.218 72.5526 112.187C74.9694 112.141 76.9427 113.352 76.9886 114.992C77.0345 116.633 75.153 117.966 72.7056 118.028C72.6444 118.028 72.5832 118.028 72.522 118.028H72.5067ZM72.7056 113.321C72.7056 113.321 72.6138 113.321 72.5679 113.321C71.6654 113.352 70.8241 113.582 70.1969 113.996C69.891 114.195 69.3709 114.624 69.3862 115.192C69.3862 115.759 69.9369 116.157 70.2581 116.341C70.8853 116.709 71.7725 116.909 72.6597 116.878C74.3729 116.832 75.8566 115.958 75.826 115.008C75.7955 114.088 74.3576 113.321 72.7056 113.321Z" fill="black"/>
<path d="M125.555 88.1797C125.555 88.1797 143.773 89.0995 150.152 75.0876C156.53 61.0911 148.943 50.4366 148.943 50.4366C148.943 50.4366 144.079 38.2643 114.924 33.3893C85.7687 28.5296 76.6979 1.11911 76.6979 1.11911C76.6979 1.11911 67.627 28.5296 38.4719 33.3893C9.33207 38.2643 4.46779 50.4366 4.46779 50.4366C4.46779 50.4366 -3.11928 61.0911 3.25936 75.0876C9.638 89.0842 27.8561 88.1797 27.8561 88.1797C27.8561 88.1797 69.172 59.3895 125.555 88.1797Z" fill="#F0534A"/>
<path d="M72.4125 124.788C65.3914 124.788 60.6036 122.075 60.2976 121.891C59.747 121.569 59.5634 120.879 59.8846 120.327C60.2059 119.775 60.8942 119.591 61.4449 119.913C61.5519 119.975 72.336 126.03 84.9556 119.223C85.5063 118.917 86.2099 119.132 86.5005 119.683C86.8065 120.235 86.5923 120.94 86.0416 121.232C81.0703 123.915 76.3895 124.773 72.4278 124.773L72.4125 124.788Z" fill="black"/>
<path d="M27.5194 89.3454C23.7106 89.3454 8.58236 88.5022 2.67791 75.5788C-3.63954 61.7202 3.09092 51.127 3.93222 49.8853C4.58997 48.4289 10.6015 36.9772 38.7624 32.2708C65.9136 27.733 75.3516 2.80601 76.0552 0.874392C76.0858 0.72109 76.147 0.583117 76.2388 0.445145C76.6671 -0.152735 77.6613 -0.152735 78.0896 0.445145C78.1814 0.567787 78.2426 0.70576 78.2732 0.843732C78.9004 2.60671 88.323 27.7024 115.566 32.2555C143.727 36.9618 149.738 48.4136 150.396 49.8699C151.238 51.1117 157.953 61.7049 151.651 75.5635C145.027 90.0966 126.733 89.3607 125.952 89.3147C125.799 89.3147 125.631 89.2687 125.494 89.1921C70.6403 61.2143 29.3703 88.8395 28.9573 89.1154C28.789 89.2381 28.5749 89.2994 28.376 89.3147C28.2842 89.3147 27.9936 89.33 27.5194 89.33V89.3454ZM126.32 87.0458C128.415 87.0918 144.002 86.9079 149.585 74.613C155.612 61.3676 148.545 51.2037 148.484 51.0964C148.438 51.0197 148.392 50.943 148.346 50.8511C148.301 50.7437 143.207 39.1847 115.199 34.509C91.1682 30.4925 80.3841 11.2683 77.1566 4.12441C73.9443 11.253 63.1603 30.4925 39.1142 34.509C10.938 39.2307 6.04314 50.7438 5.99725 50.8664C5.96666 50.943 5.92077 51.035 5.85958 51.1117C5.56895 51.5256 -1.25329 61.429 4.75823 74.6283C10.2956 86.8005 25.6074 87.1072 27.963 87.0612C31.8177 84.593 72.8277 59.9113 126.304 87.0612L126.32 87.0458Z" fill="black"/>
<mask id="mask0_37_2143" style="mask-type:luminance" maskUnits="userSpaceOnUse" x="0" y="1" width="153" height="88">
<path d="M125.813 88.1797C125.813 88.1797 144.031 89.0995 150.409 75.0876C156.788 61.0911 149.201 50.4366 149.201 50.4366C149.201 50.4366 144.337 38.2643 115.182 33.3893C86.0265 28.5296 76.9557 1.11911 76.9557 1.11911C76.9557 1.11911 67.8848 28.5296 38.7297 33.3893C9.58989 38.2643 4.7256 50.4366 4.7256 50.4366C4.7256 50.4366 -2.86146 61.0911 3.51718 75.0876C9.89582 89.0842 28.1139 88.1797 28.1139 88.1797C28.1139 88.1797 81.0857 61.0911 125.813 88.1797Z" fill="white"/>
</mask>
<g mask="url(#mask0_37_2143)">
<path d="M17.7257 63.2833C21.671 63.2833 24.8692 60.078 24.8692 56.1241C24.8692 52.1702 21.671 48.9649 17.7257 48.9649C13.7805 48.9649 10.5823 52.1702 10.5823 56.1241C10.5823 60.078 13.7805 63.2833 17.7257 63.2833Z" fill="black"/>
<path d="M12.2802 86.9993C16.2254 86.9993 19.4236 83.794 19.4236 79.84C19.4236 75.8861 16.2254 72.6808 12.2802 72.6808C8.33496 72.6808 5.13672 75.8861 5.13672 79.84C5.13672 83.794 8.33496 86.9993 12.2802 86.9993Z" fill="black"/>
<path d="M33.9247 75.9155C37.8699 75.9155 41.0682 72.7102 41.0682 68.7562C41.0682 64.8023 37.8699 61.597 33.9247 61.597C29.9795 61.597 26.7812 64.8023 26.7812 68.7562C26.7812 72.7102 29.9795 75.9155 33.9247 75.9155Z" fill="black"/>
<path d="M56.0419 63.2833C59.9871 63.2833 63.1854 60.078 63.1854 56.1241C63.1854 52.1702 59.9871 48.9649 56.0419 48.9649C52.0967 48.9649 48.8984 52.1702 48.8984 56.1241C48.8984 60.078 52.0967 63.2833 56.0419 63.2833Z" fill="black"/>
<path d="M65.8036 42.9247C69.7489 42.9247 72.9471 39.7194 72.9471 35.7655C72.9471 31.8116 69.7489 28.6063 65.8036 28.6063C61.8584 28.6063 58.6602 31.8116 58.6602 35.7655C58.6602 39.7194 61.8584 42.9247 65.8036 42.9247Z" fill="black"/>
<path d="M76.862 71.0251C80.8072 71.0251 84.0054 67.8198 84.0054 63.8659C84.0054 59.9119 80.8072 56.7066 76.862 56.7066C72.9167 56.7066 69.7185 59.9119 69.7185 63.8659C69.7185 67.8198 72.9167 71.0251 76.862 71.0251Z" fill="black"/>
<path d="M103.784 75.1336C107.729 75.1336 110.928 71.9283 110.928 67.9744C110.928 64.0205 107.729 60.8152 103.784 60.8152C99.8389 60.8152 96.6406 64.0205 96.6406 67.9744C96.6406 71.9283 99.8389 75.1336 103.784 75.1336Z" fill="black"/>
<path d="M89.206 52.1995C93.1512 52.1995 96.3494 48.9942 96.3494 45.0403C96.3494 41.0864 93.1512 37.8811 89.206 37.8811C85.2607 37.8811 82.0625 41.0864 82.0625 45.0403C82.0625 48.9942 85.2607 52.1995 89.206 52.1995Z" fill="black"/>
<path d="M87.663 30.5532C91.6082 30.5532 94.8065 27.3479 94.8065 23.394C94.8065 19.44 91.6082 16.2347 87.663 16.2347C83.7178 16.2347 80.5195 19.44 80.5195 23.394C80.5195 27.3479 83.7178 30.5532 87.663 30.5532Z" fill="black"/>
<path d="M114.155 55.2963C118.1 55.2963 121.299 52.091 121.299 48.137C121.299 44.1831 118.1 40.9778 114.155 40.9778C110.21 40.9778 107.012 44.1831 107.012 48.137C107.012 52.091 110.21 55.2963 114.155 55.2963Z" fill="black"/>
<path d="M137.468 53.2267C141.413 53.2267 144.611 50.0214 144.611 46.0674C144.611 42.1135 141.413 38.9082 137.468 38.9082C133.522 38.9082 130.324 42.1135 130.324 46.0674C130.324 50.0214 133.522 53.2267 137.468 53.2267Z" fill="black"/>
<path d="M127.433 72.2975C131.378 72.2975 134.576 69.0922 134.576 65.1383C134.576 61.1844 131.378 57.9791 127.433 57.9791C123.487 57.9791 120.289 61.1844 120.289 65.1383C120.289 69.0922 123.487 72.2975 127.433 72.2975Z" fill="black"/>
<path d="M152.12 71.531C156.065 71.531 159.264 68.3257 159.264 64.3718C159.264 60.4179 156.065 57.2126 152.12 57.2126C148.175 57.2126 144.977 60.4179 144.977 64.3718C144.977 68.3257 148.175 71.531 152.12 71.531Z" fill="black"/>
<path d="M140.296 90.3413C144.241 90.3413 147.439 87.136 147.439 83.182C147.439 79.2281 144.241 76.0228 140.296 76.0228C136.351 76.0228 133.152 79.2281 133.152 83.182C133.152 87.136 136.351 90.3413 140.296 90.3413Z" fill="black"/>
<path d="M37.7802 48.3363C41.7254 48.3363 44.9236 45.131 44.9236 41.1771C44.9236 37.2232 41.7254 34.0179 37.7802 34.0179C33.835 34.0179 30.6367 37.2232 30.6367 41.1771C30.6367 45.131 33.835 48.3363 37.7802 48.3363Z" fill="black"/>
</g>
<path d="M201.195 176.267C201.195 176.267 204.224 163.068 206.993 164.862C209.761 166.655 203.842 176.666 203.842 176.666L201.195 176.267Z" fill="black"/>
<path d="M203.842 177.816C203.842 177.816 203.735 177.816 203.674 177.816L201.027 177.417C200.706 177.371 200.431 177.187 200.247 176.927C200.064 176.666 200.003 176.344 200.079 176.022C200.676 173.431 202.832 164.877 205.647 163.727C206.305 163.467 206.993 163.528 207.605 163.911C210.94 166.073 206.764 173.968 204.806 177.264C204.592 177.616 204.224 177.831 203.827 177.831L203.842 177.816ZM202.603 175.332L203.245 175.424C205.662 171.132 207.192 166.625 206.442 165.873C205.494 166.41 203.796 170.595 202.603 175.317V175.332Z" fill="black"/>
<path d="M202.326 176.329C202.326 176.329 184.919 171.27 182.609 180.085C182.609 180.085 180.07 186.983 189.385 190.341C198.701 193.698 216.843 197.071 217.791 188.976C218.739 180.882 210.173 178.337 202.326 176.329Z" fill="#875A4D"/>
<path d="M208.094 195.139C201.792 195.139 194.098 193.269 188.989 191.429C185.455 190.157 183.084 188.24 181.922 185.726C180.484 182.629 181.493 179.809 181.539 179.686C182.014 177.846 183.191 176.329 184.996 175.302C190.931 171.929 201.945 175.026 202.633 175.225C209.563 177.003 220.025 179.701 218.924 189.114C218.71 190.954 217.761 192.41 216.109 193.437C214.152 194.648 211.306 195.139 208.094 195.139ZM192.354 176.022C190.075 176.022 187.811 176.344 186.128 177.295C184.859 178.015 184.079 179.027 183.727 180.376C183.604 180.713 181.723 186.355 189.784 189.267C197.325 191.996 210.098 194.48 214.932 191.49C215.972 190.847 216.538 189.973 216.675 188.838C217.471 181.955 210.542 179.609 202.067 177.433H202.037C202.037 177.433 197.111 176.022 192.369 176.022H192.354Z" fill="black"/>
<path d="M185.132 188.102C185.132 188.102 196.895 185.389 212.406 193.575C212.406 193.575 212.849 207.357 198.532 209.841C198.532 209.841 195.243 210.423 194.279 212.508C194.279 212.508 193.086 209.442 191.587 208.645C189.568 207.572 180.069 200.075 185.132 188.102Z" fill="#B3887F"/>
<path d="M194.282 213.658C194.282 213.658 194.267 213.658 194.252 213.658C193.793 213.658 193.395 213.351 193.227 212.937C192.799 211.834 191.835 210.086 191.07 209.672C188.271 208.185 178.864 200.075 184.095 187.673C184.233 187.336 184.539 187.091 184.89 186.999C185.395 186.891 197.25 184.285 212.959 192.564C213.327 192.763 213.556 193.131 213.571 193.545C213.571 193.698 213.877 208.354 198.749 210.975C197.999 211.113 195.919 211.742 195.338 212.999C195.154 213.413 194.741 213.658 194.298 213.658H194.282ZM185.961 189.114C181.357 201.01 192.019 207.572 192.141 207.633C193.15 208.17 193.992 209.35 194.558 210.377C196.057 209.151 198.061 208.752 198.351 208.706C209.931 206.698 211.154 196.917 211.277 194.25C198.504 187.704 188.424 188.716 185.976 189.099L185.961 189.114Z" fill="black"/>
</g>
<defs>
<clipPath id="clip0_37_2143">
<rect width="219" height="230" fill="white"/>
</clipPath>
</defs>
</svg>
