<svg width="244" height="266" viewBox="0 0 244 266" fill="none" xmlns="http://www.w3.org/2000/svg">
<g clip-path="url(#clip0_38_4563)">
<ellipse cx="121.5" cy="247" rx="74.5" ry="19" fill="#D9D9D9" fill-opacity="0.5"/>
<path d="M87.6136 207.416L83.3857 233.11C83.3857 233.11 72.8077 228.887 70.525 235.873C68.2422 242.858 75.8943 249.539 86.9706 250.02C98.0469 250.502 100.153 240.257 100.153 240.257L107.483 209.52L87.6297 207.4L87.6136 207.416Z" fill="#F15649"/>
<path d="M87.7256 251C87.4683 251 87.1951 251 86.9218 250.984C79.9448 250.679 73.8038 247.885 70.9102 243.693C69.1418 241.156 68.6917 238.33 69.5919 235.551C70.1868 233.721 71.3281 232.404 72.984 231.633C76.2152 230.124 80.5557 231.151 82.5974 231.794L86.6485 207.24C86.7289 206.726 87.1951 206.372 87.7095 206.421L107.563 208.54C107.837 208.573 108.094 208.717 108.254 208.942C108.415 209.167 108.48 209.456 108.399 209.729L101.069 240.465C101.069 240.465 98.7697 250.984 87.6934 250.984L87.7256 251ZM76.9708 232.805C75.8615 232.805 74.7684 232.966 73.8199 233.416C72.6624 233.962 71.8908 234.861 71.4568 236.178C70.7494 238.362 71.1192 240.578 72.5178 242.601C75.0738 246.295 80.6361 248.768 87.0182 249.041C97.13 249.491 99.1234 240.449 99.2038 240.064L106.277 210.387L88.4329 208.492L84.3496 233.271C84.3014 233.56 84.1246 233.817 83.8673 233.962C83.6101 234.106 83.3047 234.122 83.0314 234.026C82.9832 234.01 79.9609 232.821 76.9708 232.821V232.805Z" fill="black"/>
<path d="M151.917 207.416L156.145 233.11C156.145 233.11 166.723 228.887 169.005 235.873C171.288 242.858 163.636 249.539 152.56 250.02C141.483 250.502 139.377 240.257 139.377 240.257L132.047 209.52L151.901 207.4L151.917 207.416Z" fill="#F15649"/>
<path d="M151.805 251C140.729 251 138.446 240.562 138.414 240.449L131.099 209.745C131.035 209.472 131.099 209.183 131.244 208.958C131.389 208.733 131.662 208.589 131.935 208.556L151.789 206.437C152.303 206.372 152.769 206.742 152.85 207.256L156.901 231.81C158.943 231.167 163.283 230.14 166.514 231.649C168.17 232.42 169.312 233.737 169.906 235.567C170.807 238.346 170.356 241.172 168.588 243.709C165.678 247.901 159.553 250.679 152.577 251C152.303 251 152.03 251.016 151.773 251.016L151.805 251ZM133.253 210.371L140.327 240.032C140.407 240.449 142.384 249.491 152.512 249.041C158.894 248.752 164.441 246.295 167.013 242.601C168.411 240.578 168.781 238.362 168.074 236.178C167.64 234.861 166.868 233.962 165.711 233.416C162.206 231.778 156.563 233.994 156.499 234.01C156.226 234.122 155.92 234.106 155.663 233.946C155.406 233.785 155.229 233.544 155.181 233.255L151.098 208.476L133.253 210.371Z" fill="black"/>
<path d="M83.2719 26.4489C83.0307 25.1482 82.3877 24.1365 81.3588 23.4459C81.0534 23.205 79.8798 22.4021 78.1436 22.7393C76.0216 23.1569 73.9961 25.1 72.1313 28.5526C69.4627 28.1351 60.2351 26.5935 54.6568 24.3934C54.2227 24.2168 50.3645 22.7072 48.146 23.7189C47.4387 24.0401 46.9242 24.5861 46.6831 25.3088C46.2973 26.4329 46.2973 27.4446 46.6831 28.376C46.2169 28.5366 45.7186 28.7775 45.2845 29.1629C44.6093 29.7892 44.2235 30.6564 44.2074 31.7002C44.1913 32.6798 44.6736 33.6433 45.6703 34.5747C45.1398 35.2974 44.7218 36.293 44.9469 37.4171C45.4453 39.8741 48.7247 41.7851 54.8497 43.2465L59.9136 44.9809C60.0261 45.013 60.1386 45.0451 60.2512 45.0451C60.2994 45.0451 60.3315 45.0451 60.3798 45.0451L76.0859 43.2304C76.3914 43.1983 76.6486 43.0377 76.8254 42.7969C77.1309 42.3633 84.365 32.1819 83.2879 26.4971L83.2719 26.4489Z" fill="#F9B9BC"/>
<path d="M56.6502 39.007C56.6502 39.007 56.5537 39.007 56.5216 39.007C52.0525 38.3968 44.1271 35.4259 44.2235 31.7002C44.2557 30.6885 44.6093 29.8374 45.2845 29.2271C46.4902 28.1351 48.2104 28.2154 48.4033 28.2154C48.9338 28.2475 49.3517 28.7133 49.3196 29.2593C49.2874 29.7892 48.8212 30.2067 48.2907 30.1746C47.9853 30.1586 47.1011 30.2228 46.6028 30.6724C46.3295 30.9133 46.2009 31.2666 46.1848 31.7484C46.1366 33.547 51.7953 36.3894 56.7949 37.0799C57.3254 37.1602 57.6951 37.642 57.6308 38.1719C57.5665 38.6537 57.1486 39.023 56.6663 39.023L56.6502 39.007Z" fill="black"/>
<path d="M60.1869 44.9327C60.0744 44.9327 59.9779 44.9167 59.8654 44.8845L54.8015 43.1502C48.6926 41.6888 45.4453 39.8099 44.947 37.3851C44.5933 35.6828 45.7829 34.2857 46.5385 33.7236C46.9725 33.4025 47.5834 33.4988 47.9049 33.9324C48.2264 34.366 48.13 34.9762 47.712 35.2974C47.6799 35.3135 46.6832 36.1003 46.8761 37.0157C47.0208 37.7223 48.1621 39.5691 55.3481 41.2874L60.2834 42.9735L75.3304 41.2231C77.4203 38.2041 81.9215 30.6885 81.1981 26.8344C81.0534 26.0636 80.6998 25.5015 80.1371 25.1321C80.105 25.1 80.0567 25.084 80.0246 25.0519C80.0246 25.0519 79.3976 24.554 78.4331 24.7628C77.3238 25.0037 75.5876 26.1278 73.546 30.1746C73.3531 30.544 72.9512 30.7688 72.5332 30.7046C72.0509 30.6403 60.621 28.9702 53.8369 26.3044C52.5026 25.7584 49.9948 25.1 48.9177 25.5818C48.7087 25.6781 48.6123 25.7906 48.548 25.9672C48.2907 26.722 48.3068 27.284 48.6123 27.83C49.4964 29.4359 52.8563 30.9615 58.6115 32.3265C59.142 32.455 59.4635 32.9849 59.3349 33.4988C59.2063 34.0288 58.6758 34.3499 58.1614 34.2215C51.5863 32.6477 48.1139 30.9615 46.9082 28.7614C46.3456 27.7176 46.2813 26.5935 46.7153 25.3249C46.9564 24.6343 47.4387 24.1044 48.13 23.7993C50.3163 22.8036 54.1424 24.3131 54.5764 24.4737C60.2191 26.6899 69.5592 28.2476 72.1474 28.649C73.9961 25.1964 76.0056 23.2372 78.1276 22.8357C79.8317 22.4985 80.9731 23.3014 81.2624 23.5263C82.2591 24.2007 82.8861 25.1964 83.1272 26.4811C84.1882 32.1338 76.9862 42.283 76.6808 42.7166C76.52 42.9414 76.2789 43.086 76.0056 43.1181L60.2994 44.9327C60.2994 44.9327 60.2191 44.9327 60.1869 44.9327Z" fill="black"/>
<path d="M157.719 26.4489C157.96 25.1482 158.603 24.1365 159.632 23.4459C159.938 23.205 161.111 22.4021 162.847 22.7393C164.969 23.1569 166.995 25.1 168.86 28.5526C171.528 28.1351 180.756 26.5935 186.334 24.3934C186.768 24.2168 190.626 22.7072 192.845 23.7189C193.552 24.0401 194.067 24.5861 194.308 25.3088C194.694 26.4329 194.694 27.4446 194.308 28.376C194.774 28.5366 195.272 28.7775 195.706 29.1629C196.382 29.7892 196.767 30.6564 196.784 31.7002C196.8 32.6798 196.317 33.6433 195.321 34.5747C195.851 35.2974 196.269 36.293 196.044 37.4171C195.546 39.8741 192.266 41.7851 186.141 43.2465L181.077 44.9809C180.965 45.013 180.852 45.0451 180.74 45.0451C180.692 45.0451 180.659 45.0451 180.611 45.0451L164.905 43.2304C164.6 43.1983 164.342 43.0377 164.166 42.7969C163.86 42.3633 156.626 32.1819 157.703 26.4971L157.719 26.4489Z" fill="#F9B9BC"/>
<path d="M184.342 39.007C183.86 39.007 183.442 38.6537 183.378 38.1559C183.297 37.6259 183.683 37.1281 184.214 37.0639C189.213 36.3733 194.872 33.5309 194.824 31.7323C194.824 31.2506 194.679 30.8973 194.406 30.6564C193.908 30.1907 193.023 30.1425 192.718 30.1586C192.171 30.1907 191.721 29.7731 191.689 29.2432C191.657 28.7133 192.059 28.2476 192.589 28.2154C192.782 28.2154 194.502 28.1191 195.708 29.2271C196.367 29.8374 196.737 30.6885 196.769 31.7002C196.865 35.4419 188.924 38.3968 184.471 39.007C184.423 39.007 184.375 39.007 184.342 39.007Z" fill="black"/>
<path d="M180.82 44.9327C180.82 44.9327 180.74 44.9327 180.708 44.9327L165.002 43.118C164.728 43.0859 164.487 42.9414 164.326 42.7165C164.021 42.283 156.819 32.1338 157.88 26.481C158.121 25.1963 158.748 24.2007 159.745 23.5262C160.034 23.2853 161.192 22.4984 162.88 22.8357C165.002 23.2371 166.995 25.1963 168.86 28.649C171.448 28.2475 180.788 26.6898 186.431 24.4576C186.849 24.281 190.691 22.7875 192.877 23.7831C193.569 24.0883 194.051 24.6182 194.292 25.3087C194.726 26.5774 194.662 27.7015 194.099 28.7453C192.893 30.9454 189.421 32.6316 182.846 34.2053C182.331 34.3338 181.801 34.0126 181.672 33.4827C181.544 32.9528 181.865 32.4389 182.396 32.3104C188.135 30.9293 191.511 29.4198 192.395 27.8139C192.7 27.2679 192.717 26.6898 192.459 25.9511C192.395 25.7744 192.282 25.646 192.09 25.5657C190.964 25.0518 188.296 25.8226 187.186 26.2723C180.402 28.9541 168.972 30.6082 168.49 30.6885C168.072 30.7527 167.67 30.5439 167.477 30.1585C165.87 26.9789 164.117 25.0518 162.542 24.7467C161.594 24.57 160.999 25.0357 160.999 25.0357C160.967 25.0679 160.934 25.1 160.886 25.116C160.307 25.4854 159.97 26.0474 159.825 26.8183C159.102 30.6724 163.603 38.1879 165.693 41.207L180.74 42.9574L185.595 41.3034C192.877 39.5529 194.003 37.7222 194.163 36.9996C194.356 36.0842 193.327 35.2973 193.327 35.2813C192.893 34.9601 192.813 34.3499 193.134 33.9163C193.456 33.4827 194.067 33.4024 194.501 33.7236C195.256 34.2856 196.43 35.6828 196.092 37.385C195.594 39.8099 192.347 41.6888 186.158 43.1823L181.19 44.8845C181.094 44.9166 180.981 44.9327 180.869 44.9327H180.82Z" fill="black"/>
<path d="M155.904 69.4385L162.977 40.661L181.529 44.8042C181.529 44.8042 181.529 96.5137 159.794 146.264C159.794 146.264 158.813 156.991 161.996 173.58C165.163 190.169 166.884 197.235 166.884 197.235C166.884 197.235 171.417 211.126 156.627 214.305C111.213 224.069 83.1281 214.305 83.1281 214.305C68.2418 211.624 72.8717 197.235 72.8717 197.235C72.8717 197.235 74.5757 190.169 77.7588 173.58C80.9257 156.991 79.9612 146.264 79.9612 146.264C58.2266 96.5137 58.2266 44.8042 58.2266 44.8042L76.7781 40.661L83.8515 69.4385C83.8515 69.4385 119.749 51.6292 155.888 69.4385H155.904Z" fill="#497959"/>
<path d="M117.289 219.621C111.663 219.621 106.792 219.332 102.773 218.947C90.6514 217.774 83.7227 215.542 82.9028 215.269C78.2568 214.418 74.9452 212.378 73.0322 209.199C69.8009 203.819 71.8747 197.219 71.9551 196.946C71.9551 196.946 73.6752 189.768 76.81 173.404C79.7198 158.212 79.1089 147.87 79.0124 146.505C57.5189 97.1722 57.2617 45.3181 57.2617 44.8042C57.2617 44.3546 57.5832 43.9531 58.0173 43.8568L76.5689 39.7136C77.0994 39.6012 77.5977 39.9223 77.7263 40.4362L84.5264 68.0735C90.8121 65.3275 122.964 52.7855 155.228 68.0414L162.028 40.4362C162.157 39.9223 162.671 39.6012 163.186 39.7136L181.737 43.8568C182.188 43.9531 182.493 44.3546 182.493 44.8042C182.493 45.3181 182.236 97.1882 160.742 146.505C160.646 147.87 160.035 158.212 162.945 173.404C166.079 189.768 167.8 196.946 167.816 197.01C167.88 197.203 169.873 203.45 166.787 208.781C164.906 212.057 161.546 214.241 156.804 215.269C141.355 218.593 127.947 219.621 117.257 219.621H117.289ZM59.223 45.5911C59.3355 52.2395 60.9109 100.191 80.8611 145.895C80.9094 145.991 80.9254 146.087 80.9415 146.2C80.9737 146.65 81.89 157.264 78.723 173.789C75.5882 190.201 73.852 197.428 73.836 197.492C73.8038 197.62 71.939 203.626 74.7041 208.219C76.3117 210.901 79.2214 212.635 83.3047 213.374C83.3529 213.374 83.4011 213.39 83.4494 213.406C83.7227 213.503 111.839 222.945 156.418 213.374C160.582 212.475 163.507 210.612 165.115 207.834C167.751 203.241 165.967 197.62 165.951 197.556C165.919 197.412 164.183 190.201 161.032 173.773C157.865 157.248 158.781 146.633 158.813 146.184C158.813 146.087 158.845 145.975 158.894 145.879C178.86 100.175 180.419 52.2395 180.532 45.5751L163.684 41.8173L156.836 69.6634C156.772 69.9524 156.563 70.1933 156.305 70.3218C156.032 70.4502 155.727 70.4502 155.453 70.3218C120.151 52.93 84.639 70.1451 84.2853 70.3218C84.012 70.4502 83.7066 70.4502 83.4333 70.3218C83.16 70.1933 82.9671 69.9524 82.9028 69.6634L76.0544 41.8173L59.2069 45.5751L59.223 45.5911Z" fill="black"/>
<path d="M79.2049 70.8196C79.2049 70.8196 64.9295 96.6904 88.3842 124.263C88.3842 124.263 89.3649 124.44 89.4131 134.846C89.4613 145.252 89.3166 158.421 89.3166 158.421C89.3166 158.421 86.9856 192.546 114.813 194.633C142.624 196.721 149.649 179.57 149.649 179.57C149.649 179.57 155.276 171.011 149.907 125.259C149.907 125.259 175.95 95.775 157.205 67.929C157.205 67.929 111.003 50.1839 79.2049 70.8196Z" fill="white"/>
<path d="M119.348 195.774C117.886 195.774 116.342 195.709 114.751 195.597C86.2964 193.461 88.3381 158.694 88.3541 158.34C88.3541 158.26 88.4988 145.108 88.4506 134.83C88.4184 127.154 87.8719 125.307 87.7111 124.954L87.6468 124.89C64.0152 97.124 78.2102 70.6108 78.3549 70.3539L78.4675 70.1451L78.6764 70.0166C110.539 49.3489 157.095 66.853 157.561 67.0297L157.85 67.1421L158.027 67.399C175.887 93.9283 153.751 122.176 150.938 125.58C155.969 168.891 151.147 178.944 150.52 180.02C150.246 180.63 148.317 184.773 143.253 188.676C138.881 192.048 131.309 195.806 119.332 195.806L119.348 195.774ZM88.9811 123.428C89.6241 123.846 90.3475 125.645 90.3958 134.83C90.444 145.124 90.2993 158.292 90.2993 158.421C90.2993 158.565 89.7688 166.964 92.5821 175.475C96.2956 186.7 103.803 192.819 114.879 193.654C141.678 195.677 148.671 179.345 148.735 179.185L148.816 179.024C148.816 179.024 154.137 169.758 148.928 125.355L148.88 124.922L149.169 124.601C149.426 124.312 174.328 95.5342 156.564 68.7319C152.642 67.3027 109.655 52.4322 79.9464 71.4941C78.7086 73.9832 67.5519 98.0715 88.965 123.428H88.9811Z" fill="#231F20"/>
<path d="M120.455 66.0019C120.455 66.0019 144.81 65.5843 144.505 82.8797C144.2 100.962 119.153 98.5371 119.153 98.5371H119.893C119.893 98.5371 94.8143 100.416 94.8947 82.3337C94.9751 65.0383 119.314 65.9858 119.314 65.9858H120.455V66.0019Z" fill="#F9B9BC"/>
<path d="M122.127 99.6131C120.937 99.6131 120.037 99.5649 119.523 99.5328C117.031 99.6452 105.231 99.854 98.5275 93.6071C95.457 90.7486 93.9137 86.9427 93.9298 82.3177C93.9459 77.9337 95.457 74.2562 98.415 71.4298C105.617 64.5406 118.799 64.9742 119.362 64.9902H120.455C121.195 64.9902 134.248 64.8939 141.241 71.8795C144.135 74.7701 145.566 78.4636 145.501 82.8637C145.421 87.4887 143.797 91.2464 140.662 94.0407C135.229 98.8905 126.692 99.5971 122.143 99.5971L122.127 99.6131ZM119.908 97.5897C122.657 97.7342 133.348 97.943 139.344 92.5954C142.045 90.1866 143.46 86.8945 143.524 82.8477C143.588 79.0096 142.35 75.7818 139.843 73.2766C133.38 66.8209 120.6 66.9494 120.455 66.9655H119.298C119.137 66.9494 106.34 66.5319 99.7493 72.843C97.1932 75.3 95.8911 78.4797 95.8589 82.3177C95.8428 86.3806 97.1771 89.6887 99.8297 92.1618C105.697 97.6379 116.404 97.67 119.153 97.5736V97.5255L119.892 97.5736L119.908 97.5897Z" fill="black"/>
<path d="M118.898 113.713C110.555 113.713 105.33 110.019 105.009 109.794C104.575 109.473 104.478 108.863 104.8 108.429C105.121 107.996 105.716 107.899 106.166 108.205C106.279 108.285 117.146 115.897 132.418 108.413C132.9 108.172 133.495 108.381 133.72 108.863C133.961 109.345 133.752 109.939 133.27 110.164C127.869 112.813 122.998 113.697 118.898 113.697V113.713Z" fill="black"/>
<path d="M129.552 99.2006C129.599 94.8728 124.901 91.3132 119.06 91.25C113.218 91.1869 108.444 94.6441 108.397 98.972C108.351 103.3 113.048 106.859 118.89 106.923C124.732 106.986 129.505 103.528 129.552 99.2006Z" fill="#EF4647"/>
<path d="M119.105 107.899C119.105 107.899 118.977 107.899 118.896 107.899C115.794 107.867 112.932 107.032 110.874 105.539C108.624 103.917 107.402 101.572 107.434 98.9547C107.466 96.3371 108.736 94.0246 111.019 92.4508C113.109 91.0055 116.003 90.2347 119.089 90.2668C125.889 90.3471 130.6 94.0085 130.551 99.2116C130.487 104.35 125.793 107.899 119.105 107.899ZM118.896 92.226C116.26 92.226 113.865 92.8844 112.144 94.0728C110.907 94.9239 109.428 96.4656 109.412 98.9868C109.379 101.508 110.826 103.082 112.048 103.965C113.784 105.218 116.228 105.924 118.945 105.956C119.009 105.956 119.073 105.956 119.121 105.956C124.684 105.956 128.574 103.194 128.622 99.1956C128.67 95.1487 124.748 92.2903 119.089 92.226C119.025 92.226 118.977 92.226 118.912 92.226H118.896Z" fill="black"/>
<path d="M120.923 81.8133C120.97 77.4677 117.619 73.9082 113.437 73.863C109.256 73.8178 105.828 77.304 105.781 81.6496C105.733 85.9951 109.085 89.5546 113.267 89.5998C117.448 89.645 120.876 86.1588 120.923 81.8133Z" fill="white"/>
<path d="M113.349 90.572C113.349 90.572 113.285 90.572 113.253 90.572C110.97 90.5399 108.816 89.5924 107.225 87.9062C105.633 86.22 104.781 83.9879 104.797 81.6433C104.813 79.2987 105.729 77.0826 107.353 75.4285C108.993 73.7744 111.179 72.843 113.43 72.8912C118.14 72.9394 121.934 76.9541 121.886 81.8199C121.854 84.1806 120.953 86.3806 119.33 88.0347C117.722 89.6727 115.6 90.572 113.333 90.572H113.349ZM113.349 74.8343C111.629 74.8343 109.99 75.5248 108.752 76.7935C107.482 78.0782 106.774 79.8126 106.758 81.6593C106.742 83.5061 107.417 85.2565 108.655 86.5733C109.877 87.8741 111.533 88.6128 113.285 88.6289C115.054 88.661 116.693 87.9544 117.947 86.6697C119.217 85.385 119.925 83.6506 119.941 81.8039C119.989 77.9979 117.063 74.8825 113.43 74.8504C113.414 74.8504 113.382 74.8504 113.366 74.8504L113.349 74.8343Z" fill="black"/>
<path d="M116.198 81.4525C116.216 79.7852 115 78.4203 113.482 78.4039C111.964 78.3875 110.719 79.7258 110.701 81.3931C110.683 83.0604 111.899 84.4253 113.417 84.4417C114.935 84.4581 116.18 83.1198 116.198 81.4525Z" fill="black"/>
<path d="M133.779 81.96C133.826 77.6144 130.474 74.055 126.293 74.0098C122.111 73.9645 118.683 77.4507 118.636 81.7963C118.589 86.1419 121.941 89.7013 126.122 89.7465C130.304 89.7917 133.732 86.3056 133.779 81.96Z" fill="white"/>
<path d="M126.213 90.7165C126.213 90.7165 126.149 90.7165 126.117 90.7165C121.406 90.6683 117.612 86.6536 117.661 81.7878C117.709 76.9059 121.551 72.9715 126.309 73.0357C128.592 73.0678 130.746 74.0153 132.338 75.7015C133.929 77.3876 134.781 79.6198 134.765 81.9644C134.733 84.3251 133.833 86.5251 132.209 88.1792C130.602 89.8172 128.48 90.7165 126.213 90.7165ZM126.213 74.9788C122.612 74.9788 119.654 78.03 119.622 81.8038C119.574 85.6098 122.499 88.7252 126.133 88.7573C127.853 88.7894 129.541 88.0828 130.795 86.7981C132.065 85.5134 132.772 83.7791 132.788 81.9323C132.804 80.0855 132.129 78.3351 130.891 77.0183C129.669 75.7175 128.013 74.9788 126.261 74.9628C126.245 74.9628 126.213 74.9628 126.197 74.9628L126.213 74.9788Z" fill="black"/>
<path d="M129.069 81.5834C129.087 79.9161 127.871 78.5512 126.353 78.5348C124.835 78.5184 123.59 79.8567 123.572 81.5239C123.554 83.1912 124.77 84.5562 126.288 84.5726C127.806 84.589 129.051 83.2507 129.069 81.5834Z" fill="black"/>
<path d="M119.813 69.7757C146.612 69.4546 156.981 79.1059 156.981 79.1059C178.378 94.41 183.876 84.3251 183.876 84.3251C191.721 70.5626 154.216 50.473 154.216 50.473C154.216 50.473 148.155 43.5837 140.841 20.4911C134.121 -0.690529 120.247 1.01171 120.247 1.01171H120.408C120.408 1.01171 106.567 -0.979589 99.4131 20.0093C91.6002 42.9414 85.3788 49.7022 85.3788 49.7022C85.3788 49.7022 47.4397 68.9889 54.9954 82.9119C54.9954 82.9119 60.2683 93.1253 82.0029 78.2869C82.0029 78.2869 92.5808 68.8604 119.363 69.7757H119.829H119.813Z" fill="#497959"/>
<path d="M176.562 88.5646C171.224 88.5646 164.456 85.658 156.402 79.8928L156.306 79.8126C156.21 79.7162 145.808 70.4502 119.814 70.7554H119.331C93.3045 69.8721 82.7266 78.9293 82.6301 79.0257L82.5337 79.106C72.8078 85.7543 64.9949 88.388 59.3201 86.9587C55.5101 85.9952 54.1597 83.474 54.1115 83.3776C52.8737 81.0973 52.6807 78.5278 53.5328 75.7818C57.4231 63.288 82.2122 50.2482 84.7522 48.9474C85.5881 47.9357 91.3915 40.5005 98.481 19.7203C105.345 -0.417513 118.528 -0.112394 120.328 0.0321356C122.145 -0.0802764 135.327 -0.0802749 141.741 20.1699C148.364 41.0946 154.007 48.6584 154.827 49.6861C157.335 51.0511 181.835 64.6209 185.452 77.195C186.255 79.9571 185.998 82.5265 184.696 84.7908C184.648 84.8872 183.249 87.3602 179.423 88.2435C178.523 88.4522 177.558 88.5486 176.546 88.5486L176.562 88.5646ZM157.592 78.3351C168.909 86.4127 175.485 87.1515 179.005 86.3485C181.947 85.674 183.008 83.8594 183.008 83.8433C184.053 81.9966 184.246 80.0053 183.587 77.7249C180.066 65.5362 154.007 51.4526 153.734 51.3081L153.573 51.2278L153.461 51.0993C153.203 50.8103 147.175 43.7925 139.876 20.7641C133.607 0.995667 121.244 1.89496 120.376 1.97526H120.216C119.412 1.8789 107.017 0.658431 100.314 20.3305C92.5168 43.1984 86.3437 50.0876 86.0865 50.3606L85.9739 50.4891L85.8132 50.5694C85.556 50.6978 59.1754 64.2355 55.3976 76.3438C54.6902 78.6081 54.8349 80.5994 55.8316 82.4462C55.8798 82.5265 56.8926 84.3572 59.8827 85.0799C63.3873 85.931 69.9623 85.3047 81.3762 77.5161C82.3086 76.7132 93.1438 67.9129 119.364 68.7962H119.798C145.985 68.4911 156.676 77.5161 157.576 78.3351H157.592Z" fill="black"/>
<path d="M88.0781 45.832C98.7525 44.9969 128.252 43.1662 151.321 46.0408C149.761 43.3107 147.671 39.1515 145.292 33.0813C135.261 31.0418 116.323 28.649 94.4924 33.001C91.9042 39.1033 89.6857 43.2144 88.0942 45.832H88.0781Z" fill="black"/>
<path d="M153.122 47.2613L151.193 47.0204C128.414 44.1779 99.5252 45.9284 88.1435 46.8116L86.2305 46.9561L87.2272 45.3342C89.2527 42.01 91.4551 37.6099 93.5611 32.6316L93.7701 32.1499L94.2845 32.0535C116.55 27.6052 135.905 30.2067 145.47 32.1338L145.985 32.2462L146.177 32.744C148.171 37.8026 150.18 42.1224 152.158 45.5751L153.122 47.2613ZM121.806 43.5195C130.97 43.5195 140.647 43.8728 149.537 44.8685C147.882 41.7691 146.226 38.1238 144.554 33.9645C135.053 32.0856 116.501 29.725 95.1687 33.8842C93.3842 38.0595 91.5998 41.6888 89.8636 44.74C96.9692 44.2261 108.865 43.5195 121.806 43.5195Z" fill="black"/>
<path d="M42.6986 237.173L40.7856 188.836C40.7856 188.836 40.5766 181.08 32.1207 174.56C23.6647 168.04 18.4401 155.369 26.4298 153.747C34.4195 152.126 39.9336 159.93 41.7341 168.377C41.7341 168.377 49.2254 148.544 60.4464 154.39C71.6835 160.251 54.4179 175.363 54.4179 175.363C54.4179 175.363 48.068 182.525 47.9072 207.4C47.7464 232.275 48.068 236.675 48.068 236.675C48.068 236.675 45.9459 239.116 42.6986 237.157V237.173Z" fill="#5B9D60"/>
<path d="M45.1879 238.892C44.2876 238.892 43.2749 238.651 42.1978 237.992C41.9084 237.816 41.7316 237.527 41.7316 237.189L39.8185 188.852C39.8185 188.772 39.497 181.433 31.5234 175.315C25.0448 170.336 20.5275 161.938 21.6688 156.991C22.1994 154.727 23.7587 153.266 26.2183 152.768C33.983 151.178 39.5452 157.794 41.9406 165.39C43.7411 161.648 47.5832 155 52.9847 152.945C55.6051 151.949 58.2576 152.142 60.894 153.507C63.434 154.84 64.8809 156.718 65.1702 159.111C66.0223 166.177 56.0874 175.186 55.1228 176.037C54.6727 176.599 49.03 184.179 48.8853 207.4C48.7246 231.858 49.0461 236.547 49.0461 236.595C49.0622 236.852 48.9818 237.109 48.805 237.302C48.2102 237.992 46.8919 238.876 45.1879 238.876V238.892ZM43.6446 236.563C45.3486 237.366 46.5543 236.692 47.0688 236.274C46.9884 234.636 46.7955 228.164 46.9241 207.4C47.0848 182.445 53.4188 175.026 53.676 174.72C53.7081 174.688 53.7242 174.656 53.7563 174.64C53.8528 174.544 63.9645 165.615 63.209 159.368C63 157.634 61.939 156.285 59.9777 155.273C57.8396 154.149 55.7658 154.004 53.676 154.807C46.9884 157.361 42.664 168.634 42.6318 168.747C42.4871 169.148 42.0692 169.405 41.6512 169.373C41.2171 169.341 40.8635 169.019 40.767 168.602C39.1273 160.862 33.9991 153.218 26.6202 154.727C24.9162 155.08 23.9356 155.98 23.5819 157.473C22.6013 161.681 26.8774 169.325 32.713 173.805C41.4422 180.518 41.7476 188.483 41.7637 188.82L43.6607 236.579L43.6446 236.563Z" fill="black"/>
<path d="M189.519 239.438L187.606 191.1C187.606 191.1 187.397 183.344 178.941 176.824C170.469 170.32 165.26 157.634 173.25 156.012C181.224 154.39 186.754 162.195 188.554 170.641C188.554 170.641 196.046 150.809 207.267 156.654C218.504 162.516 201.238 177.627 201.238 177.627C201.238 177.627 194.888 184.789 194.727 209.664C194.567 234.54 194.888 238.94 194.888 238.94C194.888 238.94 192.766 241.381 189.519 239.422V239.438Z" fill="#5B9D60"/>
<path d="M192.012 241.172C191.112 241.172 190.099 240.931 189.022 240.273C188.733 240.096 188.556 239.807 188.556 239.47L186.643 191.133C186.643 191.052 186.321 183.713 178.348 177.595C171.869 172.617 167.352 164.218 168.493 159.272C169.024 157.007 170.583 155.546 173.043 155.048C180.807 153.474 186.369 160.075 188.765 167.687C190.565 163.945 194.407 157.297 199.793 155.241C202.413 154.245 205.066 154.438 207.702 155.803C210.242 157.136 211.689 159.015 211.978 161.408C212.83 168.473 202.895 177.482 201.931 178.334C201.481 178.896 195.838 186.475 195.693 209.697C195.533 234.154 195.854 238.843 195.854 238.892C195.87 239.149 195.79 239.405 195.613 239.598C195.018 240.289 193.7 241.172 191.996 241.172H192.012ZM190.469 238.843C192.189 239.646 193.379 238.956 193.893 238.554C193.813 236.932 193.62 230.445 193.748 209.681C193.909 184.725 200.243 177.306 200.5 177.001C200.532 176.969 200.548 176.936 200.581 176.92C200.677 176.824 210.789 167.895 210.033 161.648C209.824 159.914 208.763 158.565 206.802 157.553C204.664 156.429 202.59 156.285 200.5 157.088C193.829 159.625 189.488 170.914 189.456 171.027C189.295 171.428 188.893 171.685 188.475 171.653C188.041 171.621 187.688 171.3 187.591 170.882C185.952 163.142 180.823 155.498 173.444 157.007C171.756 157.361 170.76 158.26 170.406 159.754C169.425 163.961 173.702 171.605 179.537 176.085C188.266 182.798 188.572 190.763 188.588 191.1L190.485 238.859L190.469 238.843Z" fill="black"/>
<path d="M14.9523 237.912L13.6341 212.33C13.6341 212.33 13.4894 206.967 7.63778 202.47C1.78616 197.974 -1.81485 189.222 3.69919 188.097C9.21322 186.973 13.0393 192.369 14.2771 198.215C14.2771 198.215 19.4536 184.516 27.2022 188.547C34.9668 192.594 23.0385 203.032 23.0385 203.032C23.0385 203.032 18.6498 207.978 18.5372 225.161C18.4247 242.344 18.6498 237.575 18.6498 237.575C18.6498 237.575 17.1869 239.261 14.9362 237.912H14.9523Z" fill="#5B9D60"/>
<path d="M16.6699 239.422C15.9947 239.422 15.2552 239.245 14.4514 238.763C14.1782 238.603 14.0013 238.297 13.9852 237.976L12.667 212.394C12.667 212.17 12.4259 207.384 7.05653 203.257C2.41059 199.692 -0.692054 193.879 0.143893 190.297C0.529714 188.643 1.73541 187.519 3.51983 187.15C8.82488 186.074 12.6831 190.314 14.4997 195.388C15.8661 192.706 18.4383 188.627 21.9589 187.294C23.8558 186.572 25.7689 186.716 27.6658 187.696C29.5146 188.659 30.5595 190.041 30.7685 191.791C31.3633 196.769 24.531 203.032 23.7594 203.723C23.4057 204.172 19.6279 209.424 19.5314 225.177C19.4832 232.661 19.4993 235.808 19.5314 237.125C19.6118 237.27 19.66 237.446 19.644 237.639C19.6118 238.217 19.5797 239.197 18.583 239.181C18.4222 239.181 18.2775 239.165 18.165 239.116C17.747 239.293 17.2326 239.422 16.686 239.422H16.6699ZM15.8983 237.302C16.6538 237.607 17.2326 237.43 17.5702 237.221C17.5702 236.836 17.5702 236.37 17.5541 235.824C17.538 233.656 17.5541 230.075 17.5702 225.161C17.6827 207.802 22.1196 202.599 22.3126 202.39C22.3447 202.358 22.3608 202.326 22.3929 202.31C24.322 200.623 29.2413 195.468 28.8233 192.016C28.6947 190.924 28.0195 190.073 26.7495 189.414C25.3509 188.692 24.0005 188.579 22.6341 189.109C18.1489 190.827 15.207 198.487 15.1749 198.568C15.0141 198.969 14.6122 199.226 14.1942 199.194C13.7602 199.162 13.4065 198.841 13.3101 198.423C12.2008 193.22 8.79273 188.065 3.88958 189.061C2.82857 189.27 2.23376 189.816 2.02477 190.731C1.38174 193.541 4.2754 198.664 8.23007 201.715C14.3711 206.437 14.5961 212.089 14.5961 212.314L15.8822 237.318L15.8983 237.302Z" fill="black"/>
<path d="M219.309 234.572C219.309 234.572 220.772 169.533 218.827 161.729C216.866 153.924 212.477 137.657 208.088 132.454C203.7 127.25 199.954 117.824 207.429 115.222C214.921 112.621 218.988 121.726 219.968 132.132C219.968 132.132 220.628 110.838 237.379 115.865C254.146 120.907 228.264 141.719 228.264 141.719C228.264 141.719 223.875 147.902 224.196 164.314C224.518 180.743 224.518 234.716 224.518 234.716C224.518 234.716 221.431 235.857 219.309 234.556V234.572Z" fill="#5B9D60"/>
<path d="M221.813 236.162C220.833 236.162 219.74 235.985 218.791 235.391C218.502 235.214 218.325 234.877 218.325 234.54C218.325 233.897 219.772 169.533 217.859 161.954C214.097 146.923 210.351 136.677 207.313 133.08C204.034 129.194 201.236 123.316 202.442 118.98C203.053 116.764 204.661 115.142 207.088 114.307C209.532 113.456 211.782 113.681 213.776 114.949C216.541 116.732 218.679 120.602 219.933 125.918C220.833 122.545 222.553 118.579 225.865 116.202C228.983 113.954 232.954 113.536 237.632 114.949C241.249 116.041 243.339 117.936 243.854 120.57C245.445 128.696 230.591 141.061 228.967 142.394C228.453 143.229 224.852 149.572 225.141 164.314C225.463 180.566 225.463 234.202 225.463 234.748C225.463 235.15 225.206 235.519 224.82 235.664C224.723 235.696 223.389 236.178 221.781 236.178L221.813 236.162ZM220.302 233.962C221.412 234.379 222.762 234.17 223.55 233.994C223.55 227.474 223.534 179.522 223.228 164.346C222.907 147.79 227.295 141.43 227.472 141.157C227.52 141.077 227.585 141.013 227.649 140.965C232.038 137.432 243.146 126.961 241.973 120.939C241.603 119.028 240.011 117.679 237.102 116.812C233.034 115.592 229.642 115.913 227.038 117.776C221.331 121.871 220.945 132.052 220.945 132.164C220.929 132.678 220.511 133.096 219.997 133.112C219.499 133.112 219.048 132.743 219 132.229C218.277 124.488 215.946 118.643 212.747 116.603C211.268 115.656 209.628 115.495 207.747 116.154C205.898 116.796 204.789 117.888 204.339 119.51C203.342 123.155 205.963 128.455 208.824 131.843C212.956 136.741 217.055 150.68 219.772 161.504C221.653 169.02 220.463 226.928 220.302 233.994V233.962Z" fill="black"/>
<path d="M25.9626 85.0477C25.9626 85.0477 14.3718 110.533 26.7021 124.199C26.7021 124.199 31.4605 128.471 39.6431 126.03C47.8258 123.589 48.4367 115.303 47.9383 112.974C47.456 110.662 46.5879 93.8319 25.9626 85.0477Z" fill="#629D45"/>
<path d="M34.6903 127.764C29.3049 127.764 26.2183 125.066 26.0575 124.922C26.0254 124.906 26.0093 124.874 25.9771 124.842C20.7364 119.028 18.9198 110.212 20.7525 99.3241C22.1189 91.2143 24.9644 84.9032 25.0769 84.6302C25.302 84.1484 25.8646 83.9236 26.3469 84.1324C39.288 89.6406 46.8276 99.0189 48.7728 112.011C48.821 112.332 48.8531 112.589 48.9014 112.765C49.5123 115.656 48.5156 124.392 39.931 126.945C38.0019 127.523 36.2496 127.748 34.6903 127.748V127.764ZM27.3918 123.509C27.8419 123.878 32.1181 127.266 39.3684 125.099C47.2456 122.754 47.3099 114.676 46.9883 113.183C46.9401 112.99 46.908 112.701 46.8437 112.316C45.0592 100.352 38.2109 91.6158 26.4755 86.3485C24.6268 90.9092 16.9425 111.882 27.3757 123.509H27.3918Z" fill="black"/>
<path d="M39.6104 126.223C39.2085 126.223 38.8227 125.966 38.678 125.548L25.4154 85.6258C25.2385 85.112 25.5279 84.566 26.0423 84.3893C26.5568 84.2127 27.1033 84.5017 27.2802 85.0156L40.5428 124.938C40.7196 125.452 40.4303 125.998 39.9158 126.174C39.8194 126.207 39.7068 126.223 39.6104 126.223Z" fill="black"/>
<path d="M32.2142 104.752C32.0856 104.752 31.9569 104.72 31.8283 104.672L21.9256 100.304C21.4272 100.079 21.2022 99.5167 21.4272 99.0189C21.6362 98.5211 22.215 98.2963 22.7133 98.5211L31.7962 102.52L37.2459 92.4027C37.5031 91.9209 38.0979 91.7443 38.5641 92.0012C39.0464 92.2581 39.2233 92.8523 38.966 93.318L33.0823 104.222C32.9054 104.543 32.5678 104.736 32.2142 104.736V104.752Z" fill="black"/>
<path d="M35.0791 113.809C34.9827 113.809 34.8862 113.809 34.7737 113.761L20.6751 109.232C20.1607 109.072 19.8713 108.526 20.0482 108.012C20.2089 107.498 20.7716 107.225 21.2699 107.386L34.6933 111.705L43.0046 100.207C43.3261 99.7737 43.937 99.6773 44.371 99.9824C44.8051 100.304 44.9015 100.914 44.5961 101.347L35.8669 113.424C35.674 113.681 35.3846 113.825 35.0791 113.825V113.809Z" fill="black"/>
<path d="M38.1005 122.031C38.004 122.031 37.9076 122.031 37.8272 121.983L22.7158 117.455C22.2014 117.294 21.912 116.748 22.0567 116.234C22.2175 115.72 22.748 115.415 23.2785 115.576L37.7468 119.912L46.0741 109.04C46.3956 108.606 47.0065 108.526 47.4406 108.863C47.8746 109.2 47.955 109.81 47.6174 110.228L38.8882 121.63C38.6953 121.871 38.4059 122.015 38.1166 122.015L38.1005 122.031Z" fill="black"/>
<path d="M231.765 48.9314C231.765 48.9314 203.89 51.9183 198.392 69.4707C198.392 69.4707 197.138 75.7336 203.391 81.5309C209.661 87.3281 217.104 83.6346 218.856 82.0287C220.609 80.4228 234.675 71.1408 231.749 48.9314H231.765Z" fill="#629D45"/>
<path d="M211.156 85.6258C208.455 85.6258 205.465 84.7586 202.732 82.2374C196.141 76.135 197.379 69.5509 197.427 69.2618C197.427 69.2297 197.427 69.1976 197.459 69.1655C199.806 61.6981 206.478 55.66 216.782 51.6934C224.467 48.7386 231.363 47.9838 231.653 47.9517C232.183 47.8875 232.649 48.2729 232.73 48.7868C234.562 62.7259 230.318 73.9831 220.11 82.2534C219.853 82.4622 219.66 82.6228 219.531 82.7352C218.261 83.9075 214.982 85.6097 211.156 85.6097V85.6258ZM199.34 69.6954C199.244 70.2735 198.504 75.6693 204.066 80.8081C210.095 86.3806 217.088 82.3337 218.213 81.306C218.358 81.1775 218.583 80.9848 218.888 80.7439C228.293 73.1159 232.344 62.7901 230.913 50.0233C226.042 50.7459 204.066 54.8088 199.34 69.6954Z" fill="black"/>
<path d="M204.067 82.0768C203.842 82.0768 203.617 81.9965 203.424 81.8359C203.022 81.4826 202.974 80.8724 203.328 80.4548L230.994 48.7386C231.348 48.3371 231.975 48.2889 232.377 48.6422C232.779 48.9955 232.827 49.6058 232.473 50.0233L204.807 81.7396C204.614 81.9644 204.34 82.0768 204.067 82.0768Z" fill="black"/>
<path d="M218.808 64.7974C218.31 64.7974 217.892 64.4281 217.844 63.9303L216.558 53.1869C216.493 52.6569 216.879 52.1591 217.41 52.0949C217.956 52.0307 218.439 52.4161 218.503 52.946L219.676 62.7901L231.155 62.3404C231.701 62.3404 232.151 62.7419 232.167 63.2719C232.184 63.8179 231.766 64.2675 231.235 64.2836L218.841 64.7814H218.808V64.7974Z" fill="black"/>
<path d="M227.312 73.2284C227.312 73.2284 227.247 73.2284 227.215 73.2284L212.361 71.8634C211.943 71.8313 211.589 71.5262 211.493 71.1086L208.229 56.6717C208.117 56.1418 208.438 55.6279 208.969 55.4994C209.499 55.387 210.014 55.7082 210.142 56.2381L213.261 69.9845L227.408 71.2853C227.938 71.3335 228.34 71.8152 228.292 72.3452C228.244 72.859 227.826 73.2284 227.328 73.2284H227.312Z" fill="black"/>
<path d="M221.19 80.3586C221.19 80.3586 221.11 80.3586 221.078 80.3586L206.802 78.6563C206.4 78.6082 206.063 78.3191 205.966 77.9176L202.189 62.6135C202.06 62.0836 202.381 61.5537 202.896 61.4252C203.426 61.2967 203.957 61.6179 204.085 62.1318L207.703 76.7775L221.303 78.3994C221.833 78.4636 222.219 78.9454 222.155 79.4914C222.09 79.9892 221.673 80.3586 221.19 80.3586Z" fill="black"/>
</g>
<defs>
<clipPath id="clip0_38_4563">
<rect width="244" height="266" fill="white"/>
</clipPath>
</defs>
</svg>
