<svg width="388" height="594" viewBox="0 0 388 594" fill="none" xmlns="http://www.w3.org/2000/svg">
<g clip-path="url(#clip0_1_1635)">
<path d="M333.169 0H55.5065C26.4886 0 2.96484 23.5101 2.96484 52.5113V735.159C2.96484 764.16 26.4886 787.67 55.5065 787.67H333.169C362.187 787.67 385.711 764.16 385.711 735.159V52.5113C385.711 23.5101 362.187 0 333.169 0Z" fill="#E3E3E8"/>
<path d="M333.223 0.185791H55.4476C26.5636 0.185791 3.14844 23.5874 3.14844 52.4548V735.215C3.14844 764.083 26.5636 787.484 55.4476 787.484H333.223C362.107 787.484 385.522 764.083 385.522 735.215V52.4548C385.522 23.5874 362.107 0.185791 333.223 0.185791Z" fill="#E4E4E9"/>
<path d="M333.273 0.371582H55.3926C26.6425 0.371582 3.33594 23.6647 3.33594 52.3982V735.28C3.33594 764.013 26.6425 787.307 55.3926 787.307H333.273C362.023 787.307 385.33 764.013 385.33 735.28V52.3982C385.33 23.6647 362.023 0.371582 333.273 0.371582Z" fill="#E4E4E9"/>
<path d="M55.3295 0.557373H333.332C361.922 0.557373 385.138 23.7593 385.138 52.3336V735.336C385.138 763.911 361.922 787.113 333.332 787.113H55.3295C26.7388 787.113 3.52344 763.911 3.52344 735.336V52.3336C3.52344 23.7512 26.7388 0.557373 55.3295 0.557373Z" fill="#E5E5EA"/>
<path d="M333.398 0.735107H55.2745C26.7967 0.735107 3.71094 23.8076 3.71094 52.2689V735.393C3.71094 763.854 26.7967 786.927 55.2745 786.927H333.398C361.876 786.927 384.961 763.854 384.961 735.393V52.2689C384.961 23.8076 361.876 0.735107 333.398 0.735107Z" fill="#E6E6EA"/>
<path d="M55.2155 0.920898H333.452C361.776 0.920898 384.773 23.9047 384.773 52.2124V735.458C384.773 763.765 361.776 786.749 333.452 786.749H55.2155C26.8915 786.749 3.89442 763.765 3.89442 735.458V52.2124C3.89442 23.9047 26.8915 0.920898 55.2155 0.920898Z" fill="#E6E6EB"/>
<path d="M333.506 1.10669H55.1645C26.9546 1.10669 4.08594 23.9622 4.08594 52.1558V735.514C4.08594 763.708 26.9546 786.563 55.1645 786.563H333.506C361.716 786.563 384.585 763.708 384.585 735.514V52.1558C384.585 23.9622 361.716 1.10669 333.506 1.10669Z" fill="#E7E7EB"/>
<path d="M333.572 1.29248H55.1014C27.0299 1.29248 4.27344 24.0358 4.27344 52.0912V735.579C4.27344 763.634 27.0299 786.378 55.1014 786.378H333.572C361.644 786.378 384.4 763.634 384.4 735.579V52.0912C384.4 24.0358 361.644 1.29248 333.572 1.29248Z" fill="#E8E8EC"/>
<path d="M333.622 1.47852H55.0464C27.1088 1.47852 4.46094 24.1133 4.46094 52.0348V735.636C4.46094 763.557 27.1088 786.192 55.0464 786.192H333.622C361.56 786.192 384.208 763.557 384.208 735.636V52.0348C384.208 24.1133 361.56 1.47852 333.622 1.47852Z" fill="#E8E8EC"/>
<path d="M333.681 1.66431H54.9914C27.1878 1.66431 4.64844 24.1906 4.64844 51.9783V735.692C4.64844 763.48 27.1878 786.006 54.9914 786.006H333.681C361.484 786.006 384.024 763.48 384.024 735.692V51.9783C384.024 24.1906 361.484 1.66431 333.681 1.66431Z" fill="#E9E9ED"/>
<path d="M333.735 1.8501H54.9326C27.2628 1.8501 4.83209 24.2679 4.83209 51.9217V735.757C4.83209 763.411 27.2628 785.828 54.9326 785.828H333.735C361.405 785.828 383.835 763.411 383.835 735.757V51.9217C383.835 24.2679 361.405 1.8501 333.735 1.8501Z" fill="#EAEAEE"/>
<path d="M333.789 2.03589H54.8655C27.3342 2.03589 5.01562 24.3416 5.01562 51.857V735.821C5.01562 763.337 27.3342 785.642 54.8655 785.642H333.789C361.32 785.642 383.639 763.337 383.639 735.821V51.857C383.639 24.3416 361.32 2.03589 333.789 2.03589Z" fill="#EBEBEE"/>
<path d="M333.855 2.21362H54.8184C27.4209 2.21362 5.21094 24.4108 5.21094 51.7924V735.87C5.21094 763.251 27.4209 785.449 54.8184 785.449H333.855C361.252 785.449 383.462 763.251 383.462 735.87V51.7924C383.462 24.4108 361.252 2.21362 333.855 2.21362Z" fill="#EBEBEF"/>
<path d="M333.913 2.39941H54.7634C27.4999 2.39941 5.39844 24.4881 5.39844 51.7358V735.926C5.39844 763.174 27.4999 785.263 54.7634 785.263H333.913C361.177 785.263 383.278 763.174 383.278 735.926V51.7358C383.278 24.4881 361.177 2.39941 333.913 2.39941Z" fill="#ECECEF"/>
<path d="M333.959 2.58521H54.7044C27.5749 2.58521 5.58203 24.5654 5.58203 51.6793V735.991C5.58203 763.105 27.5749 785.085 54.7044 785.085H333.959C361.089 785.085 383.082 763.105 383.082 735.991V51.6793C383.082 24.5654 361.089 2.58521 333.959 2.58521Z" fill="#EDEDF0"/>
<path d="M334.026 2.771H54.6416C27.6504 2.771 5.76976 24.639 5.76976 51.6146V736.056C5.76976 763.031 27.6504 784.899 54.6416 784.899H334.026C361.017 784.899 382.898 763.031 382.898 736.056V51.6146C382.898 24.639 361.017 2.771 334.026 2.771Z" fill="#EDEDF0"/>
<path d="M334.08 2.95679H54.5825C27.7252 2.95679 5.95312 24.7163 5.95312 51.5581V736.112C5.95312 762.954 27.7252 784.713 54.5825 784.713H334.08C360.937 784.713 382.709 762.954 382.709 736.112V51.5581C382.709 24.7163 360.937 2.95679 334.08 2.95679Z" fill="#EEEEF1"/>
<path d="M334.13 3.14258H54.5275C27.8041 3.14258 6.14062 24.7936 6.14062 51.5015V736.177C6.14062 762.885 27.8041 784.536 54.5275 784.536H334.13C360.853 784.536 382.517 762.885 382.517 736.177V51.5015C382.517 24.7936 360.853 3.14258 334.13 3.14258Z" fill="#EFEFF2"/>
<path d="M334.196 3.32837H54.4803C27.8909 3.32837 6.33594 24.8709 6.33594 51.4449V736.233C6.33594 762.807 27.8909 784.35 54.4803 784.35H334.196C360.785 784.35 382.34 762.807 382.34 736.233V51.4449C382.34 24.8709 360.785 3.32837 334.196 3.32837Z" fill="#EFEFF2"/>
<path d="M334.262 3.5061H54.4172C27.9662 3.5061 6.52344 24.9365 6.52344 51.3722V736.29C6.52344 762.725 27.9662 784.156 54.4172 784.156H334.262C360.713 784.156 382.156 762.725 382.156 736.29V51.3722C382.156 24.9365 360.713 3.5061 334.262 3.5061Z" fill="#F0F0F3"/>
<path d="M334.308 3.69189H54.3583C28.0412 3.69189 6.70703 25.0138 6.70703 51.3157V736.346C6.70703 762.648 28.0412 783.97 54.3583 783.97H334.308C360.625 783.97 381.96 762.648 381.96 736.346V51.3157C381.96 25.0138 360.625 3.69189 334.308 3.69189Z" fill="#F1F1F3"/>
<path d="M334.363 3.87769H54.2994C28.1162 3.87769 6.89062 25.0911 6.89062 51.2591V736.411C6.89062 762.579 28.1162 783.792 54.2994 783.792H334.363C360.546 783.792 381.771 762.579 381.771 736.411V51.2591C381.771 25.0911 360.546 3.87769 334.363 3.87769Z" fill="#F1F1F4"/>
<path d="M334.413 4.06348H54.2444C28.1952 4.06348 7.07812 25.1683 7.07812 51.2025V736.467C7.07812 762.502 28.1952 783.607 54.2444 783.607H334.413C360.462 783.607 381.579 762.502 381.579 736.467V51.2025C381.579 25.1683 360.462 4.06348 334.413 4.06348Z" fill="#F2F2F4"/>
<path d="M334.487 4.24927H54.1889C28.2781 4.24927 7.27325 25.242 7.27325 51.1379V736.532C7.27325 762.428 28.2781 783.421 54.1889 783.421H334.487C360.397 783.421 381.402 762.428 381.402 736.532V51.1379C381.402 25.242 360.397 4.24927 334.487 4.24927Z" fill="#F3F3F5"/>
<path d="M334.545 4.4353H54.1341C28.3572 4.4353 7.46094 25.3195 7.46094 51.0815V736.589C7.46094 762.351 28.3572 783.235 54.1341 783.235H334.545C360.322 783.235 381.218 762.351 381.218 736.589V51.0815C381.218 25.3195 360.322 4.4353 334.545 4.4353Z" fill="#F3F3F5"/>
<path d="M334.591 4.62109H54.0752C28.4323 4.62109 7.64453 25.3968 7.64453 51.025V736.654C7.64453 762.282 28.4323 783.057 54.0752 783.057H334.591C360.234 783.057 381.022 762.282 381.022 736.654V51.025C381.022 25.3968 360.234 4.62109 334.591 4.62109Z" fill="#F4F4F6"/>
<path d="M334.645 4.80688H54.0163C28.5073 4.80688 7.82812 25.4741 7.82812 50.9684V736.71C7.82812 762.204 28.5073 782.872 54.0163 782.872H334.645C360.154 782.872 380.834 762.204 380.834 736.71V50.9684C380.834 25.4741 360.154 4.80688 334.645 4.80688Z" fill="#F5F5F7"/>
<path d="M334.712 4.98462H53.9532C28.5826 4.98462 8.01562 25.5397 8.01562 50.8957V736.767C8.01562 762.123 28.5826 782.678 53.9532 782.678H334.712C360.082 782.678 380.649 762.123 380.649 736.767V50.8957C380.649 25.5397 360.082 4.98462 334.712 4.98462Z" fill="#F5F5F7"/>
<path d="M53.8982 5.17041H334.762C359.982 5.17041 380.457 25.6337 380.457 50.8391V736.823C380.457 762.029 359.982 782.492 334.762 782.492H53.8982C28.6782 782.492 8.20312 762.029 8.20312 736.823V50.8391C8.20312 25.6337 28.6782 5.17041 53.8982 5.17041Z" fill="#F6F6F8"/>
<path d="M334.828 5.3562H53.851C28.7483 5.3562 8.39844 25.6943 8.39844 50.7826V736.888C8.39844 761.976 28.7483 782.314 53.851 782.314H334.828C359.93 782.314 380.28 761.976 380.28 736.888V50.7826C380.28 25.6943 359.93 5.3562 334.828 5.3562Z" fill="#F7F7F8"/>
<path d="M334.882 5.54199H53.7921C28.8233 5.54199 8.58203 25.7716 8.58203 50.726V736.944C8.58203 761.899 28.8233 782.128 53.7921 782.128H334.882C359.851 782.128 380.092 761.899 380.092 736.944V50.726C380.092 25.7716 359.851 5.54199 334.882 5.54199Z" fill="#F7F7F9"/>
<path d="M334.94 5.72778H53.729C28.8986 5.72778 8.76953 25.8452 8.76953 50.6613V737.009C8.76953 761.825 28.8986 781.942 53.729 781.942H334.94C359.771 781.942 379.9 761.825 379.9 737.009V50.6613C379.9 25.8452 359.771 5.72778 334.94 5.72778Z" fill="#F8F8F9"/>
<path d="M53.6701 5.91357H334.994C359.673 5.91357 379.711 25.9406 379.711 50.6048V737.065C379.711 761.73 359.673 781.757 334.994 781.757H53.6701C28.9917 781.757 8.95312 761.73 8.95312 737.065V50.6048C8.95312 25.9406 28.9917 5.91357 53.6701 5.91357Z" fill="#F9F9FA"/>
<path d="M335.052 6.09937H53.615C29.0524 6.09937 9.14052 25.9998 9.14052 50.5482V737.13C9.14052 761.678 29.0524 781.579 53.615 781.579H335.052C359.615 781.579 379.527 761.678 379.527 737.13V50.5482C379.527 25.9998 359.615 6.09937 335.052 6.09937Z" fill="#FAFAFB"/>
<path d="M335.103 6.2771H53.5601C29.1315 6.2771 9.32812 26.069 9.32812 50.4836V737.178C9.32812 761.593 29.1315 781.385 53.5601 781.385H335.103C359.531 781.385 379.335 761.593 379.335 737.178V50.4836C379.335 26.069 359.531 6.2771 335.103 6.2771Z" fill="#FAFAFB"/>
<path d="M335.173 6.46289H53.5009C29.2107 6.46289 9.51953 26.1427 9.51953 50.4189V737.243C9.51953 761.519 29.2107 781.199 53.5009 781.199H335.173C359.463 781.199 379.154 761.519 379.154 737.243V50.4189C379.154 26.1427 359.463 6.46289 335.173 6.46289Z" fill="#FBFBFC"/>
<path d="M335.231 6.64868H53.4459C29.2896 6.64868 9.70703 26.22 9.70703 50.3624V737.308C9.70703 761.45 29.2896 781.021 53.4459 781.021H335.231C359.387 781.021 378.97 761.45 378.97 737.308V50.3624C378.97 26.22 359.387 6.64868 335.231 6.64868Z" fill="#FCFCFC"/>
<path d="M335.277 6.83447H53.387C29.3646 6.83447 9.89062 26.2972 9.89062 50.3058V737.364C9.89062 761.373 29.3646 780.836 53.387 780.836H335.277C359.3 780.836 378.774 761.373 378.774 737.364V50.3058C378.774 26.2972 359.3 6.83447 335.277 6.83447Z" fill="#FCFCFD"/>
<path d="M335.335 7.02026H53.3321C29.4436 7.02026 10.0782 26.3745 10.0782 50.2492V737.421C10.0782 761.295 29.4436 780.65 53.3321 780.65H335.335C359.224 780.65 378.589 761.295 378.589 737.421V50.2492C378.589 26.3745 359.224 7.02026 335.335 7.02026Z" fill="#FDFDFD"/>
<path d="M335.402 7.20605H53.269C29.5189 7.20605 10.2656 26.4482 10.2656 50.1846V737.485C10.2656 761.222 29.5189 780.464 53.269 780.464H335.402C359.152 780.464 378.405 761.222 378.405 737.485V50.1846C378.405 26.4482 359.152 7.20605 335.402 7.20605Z" fill="#FEFEFE"/>
<path d="M335.448 7.39209H53.2101C29.5939 7.39209 10.4492 26.5257 10.4492 50.1283V737.55C10.4492 761.153 29.5939 780.286 53.2101 780.286H335.448C359.064 780.286 378.209 761.153 378.209 737.55V50.1283C378.209 26.5257 359.064 7.39209 335.448 7.39209Z" fill="#FEFEFE"/>
<path d="M335.514 7.57788H53.1629C29.6806 7.57788 10.6445 26.603 10.6445 50.0717V737.607C10.6445 761.076 29.6806 780.101 53.1629 780.101H335.514C358.996 780.101 378.032 761.076 378.032 737.607V50.0717C378.032 26.603 358.996 7.57788 335.514 7.57788Z" fill="white"/>
<path d="M377.43 735.862L377.43 51.8003C377.43 27.707 357.887 8.17554 333.78 8.17554L54.9047 8.17554C30.7975 8.17554 11.2547 27.707 11.2547 51.8003L11.2547 735.862C11.2547 759.955 30.7975 779.486 54.9047 779.486H333.78C357.887 779.486 377.43 759.955 377.43 735.862Z" stroke="#E4E8E9" stroke-width="1.5" stroke-miterlimit="10"/>
<path d="M365.91 730.409L365.91 53.6182C365.91 33.8751 349.896 17.8701 330.141 17.8701L58.5414 17.8701C38.7869 17.8701 22.7726 33.8751 22.7726 53.6182L22.7726 730.409C22.7726 750.152 38.7869 766.157 58.5414 766.157H330.141C349.896 766.157 365.91 750.152 365.91 730.409Z" fill="url(#paint0_linear_1_1635)"/>
<path d="M212.981 32.1692H175.394C174.052 32.1692 172.969 31.0867 172.969 29.7456C172.969 28.4046 174.052 27.322 175.394 27.322H212.981C214.323 27.322 215.406 28.4046 215.406 29.7456C215.406 31.0867 214.323 32.1692 212.981 32.1692Z" fill="#9B9B9E"/>
<path d="M213.278 32.7752H175.691C174.349 32.7752 173.266 31.6926 173.266 30.3516C173.266 29.0105 174.349 27.928 175.691 27.928H213.278C214.62 27.928 215.703 29.0105 215.703 30.3516C215.703 31.6926 214.62 32.7752 213.278 32.7752Z" fill="#EBEBEB"/>
<path d="M387.507 179.072H384.516C384.182 179.072 383.91 179.343 383.91 179.678V272.986C383.91 273.321 384.182 273.592 384.516 273.592H387.507C387.842 273.592 388.113 273.321 388.113 272.986V179.678C388.113 179.343 387.842 179.072 387.507 179.072Z" fill="#DCDDE0"/>
<path d="M387.506 273.592H385.122C384.79 273.592 384.516 273.318 384.516 272.986V179.678C384.516 179.346 384.79 179.072 385.122 179.072H387.506C388.177 179.072 388.719 179.613 388.719 180.284V272.38C388.719 273.051 388.177 273.592 387.506 273.592Z" fill="#F5F6FA"/>
<path d="M4.28339 100.878H1.13089C0.840706 100.878 0.605469 101.114 0.605469 101.404V126.609C0.605469 126.899 0.840706 127.134 1.13089 127.134H4.28339C4.57357 127.134 4.8088 126.899 4.8088 126.609V101.404C4.8088 101.114 4.57357 100.878 4.28339 100.878Z" fill="#D7DADB"/>
<path d="M4.28339 163.448H1.13089C0.840706 163.448 0.605469 163.683 0.605469 163.973V225.936C0.605469 226.226 0.840706 226.461 1.13089 226.461H4.28339C4.57357 226.461 4.8088 226.226 4.8088 225.936V163.973C4.8088 163.683 4.57357 163.448 4.28339 163.448Z" fill="#D7DADB"/>
<path d="M4.28339 238.797H1.13089C0.840706 238.797 0.605469 239.032 0.605469 239.322V301.286C0.605469 301.576 0.840706 301.811 1.13089 301.811H4.28339C4.57357 301.811 4.8088 301.576 4.8088 301.286V239.322C4.8088 239.032 4.57357 238.797 4.28339 238.797Z" fill="#D7DADB"/>
<path d="M1.2125 100.878H3.59708C3.9285 100.878 4.20333 101.153 4.20333 101.484V126.528C4.20333 126.859 3.9285 127.134 3.59708 127.134H1.2125C0.541583 127.134 0 126.593 0 125.922V102.09C0 101.42 0.541583 100.878 1.2125 100.878Z" fill="#F5F6FA"/>
<path d="M1.2125 163.448H3.67792C3.96892 163.448 4.20333 163.682 4.20333 163.973V225.936C4.20333 226.227 3.96892 226.461 3.67792 226.461H1.2125C0.541583 226.461 0 225.92 0 225.25V164.66C0 163.989 0.541583 163.448 1.2125 163.448Z" fill="#F5F6FA"/>
<path d="M1.2125 238.797H3.67792C3.96892 238.797 4.20333 239.032 4.20333 239.322V301.286C4.20333 301.577 3.96892 301.811 3.67792 301.811H1.2125C0.541583 301.811 0 301.27 0 300.599V240.009C0 239.339 0.541583 238.797 1.2125 238.797Z" fill="#F5F6FA"/>
<g clip-path="url(#clip1_1_1635)">
<path d="M295.862 184.757C295.566 181.065 294.775 177.552 293.51 174.316C292.641 169.989 290.981 166.198 288.59 163.062C282.701 155.381 272.505 151.391 263.237 153.138C260.925 153.574 258.811 154.368 256.894 155.52C256.222 154.289 255.294 153.177 254.167 152.264C253.515 149.545 252.211 147.441 250.215 145.893C246.698 143.154 241.837 143.114 238.043 145.734C234.841 145.496 231.739 146.607 229.684 148.771C227.945 150.597 226.957 152.999 226.858 155.559C219.112 153.177 211.386 154.388 206.268 155.837C207.809 152.78 208.461 149.505 208.125 146.369L205.28 119.692C204.805 115.524 203.62 112.329 201.505 109.57C197.435 104.27 191.032 101.968 184.373 103.377C183.82 103.496 183.266 103.635 182.713 103.754L152.44 110.761L139.853 113.658C139.102 113.817 138.331 113.996 137.6 114.214C135.169 114.949 131.731 116.437 129.261 119.335C126.87 122.134 125.526 125.349 125.171 129.2C124.933 131.721 125.467 134.123 125.921 136.246L129.874 154.229C127.996 154.011 126.139 153.991 124.281 154.11C119.519 154.468 114.974 155.639 109.935 157.822C105.449 159.767 101.478 162.347 97.4465 165.047C95.5495 166.337 94.0674 168.322 93.3956 170.505C92.6249 173.066 92.9608 175.646 94.3836 177.77L101.122 187.873C101.754 188.826 102.584 189.679 103.533 190.394L104.639 199.504L102.387 203.831C102.11 204.347 101.853 204.864 101.596 205.36L101.497 205.538C101.161 206.193 100.746 207.027 100.509 207.98C99.6596 211.374 100.569 214.947 102.94 217.547C104.718 219.492 107.169 220.385 109.145 221.12L109.678 221.318C111.121 221.854 112.583 222.291 114.085 222.608C122.147 224.355 130.407 223.502 138.035 220.187C138.193 220.445 138.371 220.683 138.568 220.921C139.418 222.033 140.228 222.866 141.592 223.64C141.631 223.66 141.69 223.7 141.75 223.72C143.093 226.042 145.346 227.809 148.053 228.603C148.883 228.841 149.753 228.96 150.602 228.96C153.191 228.96 155.78 227.888 157.775 225.923C157.894 225.903 158.013 225.864 158.131 225.824C158.862 225.645 159.672 225.347 160.68 224.772C162.696 223.601 164.237 221.755 165.047 219.631C166.292 220.008 167.458 220.246 168.525 220.425C168.683 220.485 168.841 220.524 169.019 220.544L170.501 220.743C170.501 220.743 170.62 220.743 170.659 220.762C170.798 220.762 170.916 220.782 171.054 220.782C171.114 220.782 171.173 220.762 171.232 220.743C176.212 221.12 180.796 220.385 185.223 218.5C187.377 217.587 189.372 216.475 191.21 215.145C192.08 216.257 193.186 217.209 194.55 218.023C197.672 219.869 201.13 221.298 204.549 222.152C213.243 224.296 222.412 223.363 230.395 219.512C234.802 217.388 238.754 214.153 241.856 210.203C245.571 214.589 250.334 217.865 255.59 219.552C261.795 221.537 268.77 221.338 274.718 218.996C281.061 216.495 286.258 212.327 290.151 206.59C294.499 200.219 296.573 192.24 295.862 184.697V184.757Z" fill="white"/>
<path d="M171.035 217.845C170.6 217.786 170.185 217.726 169.77 217.666C169.632 217.666 169.513 217.647 169.375 217.627C169.928 217.706 170.482 217.786 171.035 217.845Z" fill="#4416CE"/>
<path d="M292.916 185.015C292.363 178.207 290.051 172.014 285.605 166.794C282.048 162.606 276.831 159.43 271.437 158.319C265.924 157.207 260.312 157.902 255.194 160.045C255.055 157.862 253.968 155.897 252.19 154.508C251.953 154.329 251.716 154.13 251.479 153.952C251.439 153.753 251.4 153.555 251.36 153.356C250.945 151.312 250.095 149.585 248.396 148.255C245.748 146.191 242.152 146.409 239.523 148.335C239.306 148.493 239.089 148.652 238.852 148.811C238.595 148.791 238.318 148.751 238.061 148.732C235.789 148.493 233.417 149.148 231.797 150.836C229.9 152.82 229.406 155.579 230.038 158.18C230.098 158.457 230.196 158.735 230.275 159.013C230.315 159.152 230.355 159.271 230.394 159.41L230.275 159.668C230.216 159.807 230.157 159.946 230.098 160.065C229.367 159.708 228.616 159.39 227.865 159.093C220.553 156.195 211.977 156.929 204.666 159.45C203.717 159.787 202.789 160.145 201.86 160.522C201.82 160.026 201.741 159.509 201.623 158.993C201.524 158.537 201.425 158.08 201.326 157.624C202.136 156.81 202.868 155.897 203.441 154.785C204.745 152.304 205.436 149.506 205.14 146.687C205.002 145.377 204.863 144.067 204.725 142.757L203.006 126.699C202.808 124.774 202.591 122.829 202.393 120.904C202.354 120.606 202.334 120.308 202.295 120.03C201.939 116.854 201.089 113.957 199.113 111.396C195.675 106.91 190.438 105.124 184.945 106.295C184.115 106.474 183.305 106.672 182.475 106.87C172.654 109.133 162.853 111.416 153.032 113.679C149.099 114.592 145.167 115.505 141.234 116.418C140.286 116.636 139.318 116.815 138.389 117.093C135.84 117.867 133.212 119.236 131.453 121.301C129.398 123.702 128.37 126.362 128.074 129.498C127.876 131.662 128.37 133.805 128.845 135.909C129.339 138.132 129.813 140.355 130.307 142.598C131.354 147.382 132.402 152.146 133.449 156.929C133.508 157.227 133.587 157.544 133.646 157.842C133.646 157.902 133.686 157.941 133.686 158.001C130.682 157.207 127.58 156.87 124.458 157.108C119.715 157.465 115.407 158.696 111.08 160.581C106.812 162.427 102.919 164.968 99.0655 167.548C96.3978 169.335 94.8565 173.165 96.8326 176.123C99.0853 179.497 101.338 182.871 103.571 186.226C104.223 187.218 105.191 188.072 106.298 188.647C106.713 192.022 107.128 195.416 107.523 198.79C107.582 199.227 107.622 199.664 107.681 200.08C106.91 201.569 106.14 203.038 105.349 204.526C104.974 205.261 104.579 205.975 104.203 206.71C103.887 207.345 103.531 208.02 103.354 208.715C102.741 211.136 103.413 213.697 105.092 215.543C106.515 217.091 108.748 217.805 110.665 218.54C111.969 219.016 113.293 219.413 114.657 219.711C122.403 221.378 130.267 220.465 137.46 217.17C138.152 216.853 138.824 216.515 139.476 216.138C139.693 217.25 140.148 218.202 140.859 219.115C141.491 219.929 142.025 220.505 142.993 221.06C143.171 221.16 143.349 221.239 143.527 221.319C143.645 221.358 143.744 221.418 143.843 221.457L143.942 221.656C144.87 223.681 146.688 225.129 148.803 225.745C151.49 226.539 154.355 225.348 156.094 223.284C156.134 223.224 156.193 223.184 156.233 223.125C156.371 223.125 156.509 223.085 156.628 223.065C156.786 223.045 156.944 223.026 157.102 223.006L156.747 223.045C157.537 222.926 158.169 222.748 159.098 222.192C160.699 221.259 161.944 219.691 162.418 217.885C162.635 217.071 162.694 216.277 162.615 215.483C163.169 215.741 163.722 215.979 164.275 216.217C166.054 216.952 167.832 217.329 169.709 217.627C174.65 218.242 179.392 217.726 183.996 215.781C186.98 214.51 189.747 212.744 192.118 210.521C192.157 210.699 192.197 210.878 192.256 211.037C192.928 213.022 194.212 214.411 195.991 215.483C198.836 217.17 201.978 218.48 205.18 219.274C213.202 221.259 221.601 220.425 229.05 216.853C234.287 214.332 238.733 210.124 241.697 205.102C245.155 210.521 250.293 214.768 256.438 216.733C261.892 218.48 268.235 218.361 273.591 216.237C279.42 213.935 284.123 210.124 287.66 204.923C291.573 199.167 293.529 191.903 292.857 184.975L292.916 185.015Z" fill="#4416CE"/>
<path d="M198.936 146.747L196.091 120.03C195.577 115.386 192.237 111.972 188.127 112.15C187.653 112.17 187.179 112.23 186.685 112.349L141.315 122.849C135.465 124.02 133.549 128.089 134.556 132.733L139.694 156.195C139.852 156.929 140.109 157.624 140.445 158.279C142.026 161.296 145.385 163.102 148.903 162.566L176.231 158.418L180.598 157.743L193.917 162.884C194.036 162.923 194.134 162.943 194.233 162.943C195.221 163.043 195.873 162.169 195.696 161.077L194.431 155.202C194.431 155.202 195.241 154.746 195.32 154.686C195.616 154.488 195.893 154.289 196.15 154.051C196.664 153.594 197.138 153.078 197.533 152.523C198.324 151.371 198.837 150.022 198.976 148.632C199.035 147.997 198.996 147.382 198.936 146.747Z" fill="white"/>
<path d="M194.747 181.78C193.976 178.386 192.613 175.349 190.676 172.689C190.084 171.875 189.431 171.081 188.72 170.347C184.709 166.179 179.413 163.896 174.058 163.896C172.18 163.896 170.303 164.233 168.505 164.769C160.008 167.25 153.981 174.594 152.578 183.943C152.38 185.432 152.242 186.841 152.242 188.25C152.242 195.515 155.325 202.383 160.542 206.809C161.391 207.524 162.28 208.159 163.17 208.734C165.64 210.283 168.248 211.255 171.054 211.593C171.924 211.732 172.793 211.732 173.801 211.732C175.401 211.732 176.943 211.593 178.425 211.196C186.467 209.171 192.475 202.859 194.767 194.106C195.3 192.022 195.577 189.938 195.577 187.913C195.577 185.888 195.3 183.884 194.767 181.8L194.747 181.78ZM175.5 176.56C178.168 177.294 180.381 179.358 181.685 181.819C184.511 187.099 183.306 193.788 178.662 197.579C177.496 198.532 176.073 199.227 174.552 199.326C169.789 199.644 166.015 195.158 165.027 190.91C164.731 189.62 164.592 188.231 164.632 186.801C164.77 181.105 169.157 174.813 175.5 176.56Z" fill="#F7CE46"/>
<path d="M173.783 211.712C175.384 211.712 176.925 211.573 178.407 211.176C186.45 209.151 192.457 202.839 194.749 194.086C195.283 192.002 195.559 189.918 195.559 187.893C195.559 185.869 195.283 183.864 194.749 181.78C193.979 178.386 192.615 175.349 190.679 172.689C191.212 174.158 191.686 175.666 192.101 177.175C194.413 185.849 192.457 196.428 186.015 202.919C182.419 206.531 177.597 208.734 172.558 209.31C170.167 209.588 167.756 209.469 165.385 209.092C164.674 208.973 163.923 208.853 163.172 208.695C165.642 210.243 168.25 211.215 171.056 211.553C171.926 211.692 172.795 211.692 173.803 211.692L173.783 211.712Z" fill="#F19A38"/>
<path d="M286.673 185.015C286.396 181.145 285.31 177.592 283.452 174.416C283.136 173.86 282.8 173.324 282.425 172.808C279.065 168.084 274.184 165.027 268.889 164.214C267.031 163.936 265.134 163.975 263.257 164.253C254.483 165.444 247.429 171.776 244.642 180.807C244.227 182.236 243.872 183.626 243.674 185.015C242.587 192.2 244.623 199.445 249.128 204.606C249.583 205.122 250.077 205.618 250.571 206.075C253.001 208.397 255.728 210.025 258.811 210.898C259.66 211.156 260.51 211.295 261.498 211.434C263.079 211.672 264.62 211.771 266.142 211.593C274.382 210.799 281.278 205.459 284.835 197.163C285.685 195.178 286.258 193.153 286.554 191.168C286.851 189.183 286.89 187.139 286.673 184.995V185.015ZM256.143 185.432C257.131 179.835 262.387 174.257 268.414 176.956C270.944 178.088 272.821 180.45 273.75 183.07C275.765 188.707 273.572 195.138 268.414 198.195C267.11 198.969 265.608 199.445 264.087 199.306C259.344 198.889 256.281 193.907 255.926 189.56C255.827 188.231 255.886 186.841 256.143 185.432Z" fill="#ED739F"/>
<path d="M261.498 211.454C263.079 211.692 264.62 211.791 266.142 211.612C274.382 210.818 281.278 205.479 284.835 197.182C285.685 195.197 286.258 193.173 286.554 191.188C286.851 189.203 286.89 187.159 286.673 185.015C286.396 181.145 285.31 177.592 283.452 174.416C283.808 176.063 284.065 177.731 284.262 179.398C284.993 185.968 284.163 191.863 280.844 197.659C276.951 204.467 270.054 208.496 261.419 208.238C258.554 208.159 255.827 207.801 253.1 206.928C252.29 206.67 251.42 206.392 250.551 206.055C252.981 208.377 255.708 210.005 258.791 210.878C259.641 211.136 260.49 211.275 261.478 211.414L261.498 211.454Z" fill="#DD468F"/>
<path d="M240.057 184.122C239.8 181.998 239.306 179.934 238.555 177.949C236.599 172.749 232.943 168.263 227.47 165.702C220.87 162.586 214.013 163.4 209.408 164.591C204.113 165.96 199.291 168.481 195.082 170.704L200.714 181.482C201.662 180.946 202.611 180.41 203.559 179.954L203.856 200.199L200.457 205.3L198.343 208.476C198.046 208.913 198.165 209.528 198.619 209.806C201.662 211.712 206.266 213.756 212.056 214.054C213.104 214.153 214.151 214.173 215.179 214.113C221.561 213.816 227.371 211.533 231.837 207.484C238.2 201.728 241.006 192.597 239.998 184.142L240.057 184.122ZM204.943 179.239C207.452 178.008 209.981 176.917 212.531 176.242C216.305 175.23 219.783 175.349 222.352 176.559C228.102 179.299 229.525 187.853 227.41 193.252C226.64 195.197 225.434 196.944 223.932 198.353C222.707 199.505 221.265 200.438 219.704 201.112C217.609 202.006 216.147 202.145 216.147 202.184C216.147 202.224 215.811 179.1 215.811 179.1L212.728 179.14L204.982 179.259L204.943 179.239Z" fill="#ED739F"/>
<path d="M198.682 209.786C201.725 211.692 206.329 213.736 212.119 214.034C213.166 214.133 214.214 214.153 215.241 214.094C221.624 213.796 227.433 211.513 231.899 207.464C238.262 201.708 241.068 192.578 240.06 184.122C239.804 181.998 239.31 179.934 238.559 177.949C238.835 182.197 238.717 186.444 237.788 190.573C236.602 195.872 233.915 200.795 229.647 204.308C225.892 207.405 220.992 209.786 216.15 209.806C210.321 209.806 205.578 208.715 200.263 205.598L198.366 208.437C198.069 208.873 198.188 209.489 198.642 209.767L198.682 209.786Z" fill="#DD468F"/>
<path d="M216.13 202.184L215.794 179.1L212.711 179.14C212.691 179.338 212.691 179.537 212.691 179.735C212.869 186.087 212.81 192.419 212.968 198.77C212.968 198.77 212.968 198.79 212.968 198.81C212.968 198.85 212.968 198.909 212.968 198.949C212.968 199.207 212.968 199.485 212.968 199.743C213.008 200.993 214.529 202.323 216.13 202.184Z" fill="#DD468F"/>
<path d="M148.367 181.542C147.893 179.458 147.162 177.453 146.214 175.567C143.724 170.605 139.613 166.536 133.903 164.571C127.006 162.169 120.288 163.717 115.822 165.385C110.704 167.31 106.179 170.327 102.227 172.987L108.965 183.09C109.854 182.455 110.743 181.82 111.633 181.264L114.083 201.351L111.237 206.789L109.479 210.164C109.222 210.64 109.419 211.216 109.894 211.454C113.134 213.022 117.916 214.57 123.706 214.252C124.754 214.233 125.801 214.133 126.828 213.975C133.152 213.002 138.665 210.104 142.696 205.598C148.407 199.187 150.245 189.819 148.348 181.522L148.367 181.542ZM112.937 180.45C115.308 178.961 117.699 177.592 120.149 176.659C123.805 175.25 127.263 174.992 129.951 175.924C135.958 178.028 138.29 186.385 136.748 191.982C136.195 194.007 135.167 195.853 133.824 197.421C132.717 198.691 131.393 199.783 129.911 200.616C127.935 201.728 126.493 202.026 126.493 202.065C126.493 202.105 123.706 179.14 123.706 179.14L120.643 179.517L112.937 180.45Z" fill="#F7CE46"/>
<path d="M109.935 211.474C113.176 213.042 117.958 214.59 123.747 214.272C124.795 214.252 125.842 214.153 126.87 213.994C133.193 213.022 138.706 210.124 142.737 205.618C148.448 199.207 150.286 189.838 148.389 181.542C147.915 179.457 147.183 177.453 146.235 175.567C146.966 179.755 147.302 184.003 146.808 188.211C146.195 193.61 144.041 198.79 140.168 202.74C136.77 206.214 132.126 209.112 127.324 209.647C121.534 210.283 116.693 209.687 111.081 207.147L109.5 210.183C109.243 210.66 109.441 211.235 109.915 211.474H109.935Z" fill="#F19A38"/>
<path d="M126.494 202.045L123.707 179.12L120.645 179.497C120.645 179.696 120.645 179.894 120.684 180.093C121.534 186.385 122.146 192.697 122.957 198.989C122.957 198.989 122.957 199.009 122.957 199.028C122.957 199.068 122.957 199.128 122.957 199.167C122.996 199.425 123.016 199.683 123.055 199.941C123.213 201.172 124.893 202.343 126.454 202.045H126.494Z" fill="#F19A38"/>
<path d="M168.781 124.218C169.157 127.136 171.014 141.487 172.793 148.89C172.872 149.188 172.674 149.486 172.378 149.565L166.825 151.034C166.529 151.113 166.232 150.935 166.153 150.637C165.481 147.938 164.908 145.179 164.394 142.42C164.335 142.122 164.039 141.923 163.742 141.983C160.917 142.598 158.091 143.293 155.285 144.067C155.008 144.147 154.83 144.424 154.87 144.702L156.115 152.364C156.154 152.662 155.957 152.959 155.66 153.019L150.009 154.051C149.712 154.111 149.416 153.912 149.376 153.614L145.306 128.486C145.266 128.188 145.464 127.89 145.76 127.831L151.412 126.799C151.708 126.739 152.005 126.938 152.044 127.235L153.605 136.902C153.665 137.219 153.981 137.418 154.297 137.338C157.083 136.564 159.889 135.889 162.695 135.274C162.991 135.215 163.169 134.937 163.13 134.639C162.656 131.423 162.28 128.188 162.003 124.953C161.984 124.655 162.201 124.377 162.517 124.337L168.189 123.742C168.485 123.702 168.742 123.921 168.781 124.218Z" fill="black"/>
<path d="M167.371 170.807C166.937 170.052 166.028 169.814 165.158 170.211C163.162 171.144 161.325 172.871 159.566 175.511C158.262 177.456 157.215 179.659 156.503 181.862C156.385 182.259 156.424 182.676 156.642 183.073C156.859 183.47 157.234 183.768 157.649 183.887C157.788 183.927 157.926 183.946 158.064 183.946C158.776 183.946 159.408 183.47 159.645 182.756C159.783 182.319 159.942 181.862 160.119 181.426C160.159 181.346 160.198 181.247 160.218 181.168L160.297 181.009C160.396 180.771 160.495 180.552 160.613 180.314C161.107 179.242 161.68 178.25 162.293 177.317C163.696 175.193 165.119 173.843 166.779 173.069C167.115 172.911 167.391 172.593 167.51 172.196C167.648 171.739 167.609 171.204 167.371 170.826V170.807Z" fill="white"/>
<path d="M117.525 169.771C117.209 168.898 116.339 168.441 115.49 168.699C112.783 169.513 110.293 170.922 108.079 172.888C107.783 173.146 107.625 173.543 107.625 173.999C107.625 174.495 107.823 174.952 108.159 175.23C108.494 175.508 108.87 175.646 109.245 175.646C109.66 175.646 110.075 175.488 110.451 175.15L110.55 175.051C110.55 175.051 110.708 174.912 110.787 174.853C110.787 174.853 110.826 174.833 110.826 174.813L110.945 174.714C111.182 174.515 111.439 174.336 111.696 174.158C112.19 173.801 112.723 173.463 113.277 173.165C113.553 173.007 113.83 172.868 114.106 172.729L114.265 172.649C114.265 172.649 114.284 172.649 114.304 172.649L114.423 172.59C114.521 172.55 114.62 172.51 114.719 172.451C115.272 172.213 115.865 172.014 116.478 171.836C116.893 171.716 117.248 171.399 117.446 170.982C117.644 170.585 117.683 170.148 117.545 169.771H117.525Z" fill="white"/>
<path d="M210.1 168.938C209.804 168.084 209.014 167.667 208.085 167.866C205.753 168.322 203.421 169.275 201.386 170.625C201.011 170.863 200.754 171.28 200.655 171.736C200.576 172.153 200.655 172.57 200.872 172.907C201.208 173.404 201.742 173.662 202.275 173.662C202.572 173.662 202.868 173.582 203.125 173.404C203.619 173.086 204.113 172.788 204.587 172.55L204.666 172.51C204.844 172.411 205.042 172.312 205.239 172.232C205.299 172.213 205.378 172.173 205.457 172.133C205.575 172.074 205.694 172.034 205.812 171.974C206.82 171.558 207.907 171.24 209.014 171.022C209.389 170.942 209.725 170.684 209.942 170.287C210.18 169.87 210.239 169.354 210.1 168.957V168.938Z" fill="white"/>
<path d="M248.378 159.43L245.829 157.425L245.137 154.071C245.137 154.071 245.018 153.336 244.445 153.098C243.872 152.86 243.279 153.317 243.24 153.336L240.572 155.282L237.391 154.944C237.292 154.944 236.423 154.865 236.126 155.42C235.869 155.937 236.047 156.512 236.047 156.532L236.976 159.748L235.652 162.844C235.652 162.844 235.276 163.717 235.691 164.174C236.067 164.61 236.739 164.67 236.798 164.67L239.979 164.71L242.331 166.933C242.331 166.933 242.746 167.27 243.22 167.33C243.299 167.33 243.378 167.33 243.457 167.33C244.07 167.29 244.346 166.476 244.366 166.397L245.473 163.201L248.279 161.534C248.279 161.534 248.812 161.216 248.97 160.661C249.129 160.045 248.457 159.489 248.358 159.43H248.378Z" fill="#F7EBA1"/>
<path d="M154.987 213.141L155.402 210.561C155.461 210.322 155.461 209.846 155.125 209.528C154.73 209.151 154.157 209.29 154.097 209.29L151.687 209.866L149.513 208.675C149.513 208.675 148.762 208.278 148.347 208.655C147.991 208.973 147.952 209.469 147.952 209.528L147.734 212.089L145.956 213.895C145.956 213.895 145.383 214.451 145.581 215.007C145.739 215.463 146.233 215.741 146.272 215.761L148.525 216.753L149.592 219.036C149.592 219.036 149.888 219.532 150.303 219.711H150.343C150.876 219.889 151.331 219.334 151.39 219.274L153.05 217.349L155.5 217.011C155.5 217.011 156.034 216.952 156.33 216.555C156.666 216.098 156.291 215.423 156.251 215.344L154.987 213.161V213.141Z" fill="#F7EBA1"/>
<path d="M184.727 124.536C184.766 123.464 183.916 122.551 182.849 122.511L178.067 122.353C177 122.313 176.091 123.166 176.052 124.238L175.973 126.799L184.648 127.077L184.727 124.516V124.536Z" fill="black"/>
<path d="M175.718 145.119L178.722 147.858L178.682 148.97C178.682 149.426 179.018 149.803 179.473 149.823H179.73C180.184 149.843 180.56 149.486 180.579 149.029L180.619 147.918L183.781 145.377C183.978 145.218 184.097 144.98 184.097 144.742L184.571 129.776L175.896 129.498L175.422 144.464C175.422 144.722 175.521 144.96 175.699 145.119H175.718Z" fill="black"/>
<path d="M176.449 155.321L149.061 159.43C147.598 159.629 146.591 159.629 145.01 159.509L144.615 159.47C144.239 159.43 143.864 159.371 143.468 159.311C142.579 159.172 141.374 158.735 140.485 158.279C142.065 161.296 145.425 163.102 148.942 162.566L176.271 158.418L180.638 157.743C180.342 157.286 180.263 157.147 180.065 156.929C178.899 155.639 178.425 155.083 176.449 155.321Z" fill="#C7B9F0"/>
<path d="M194.586 130.649C194.863 132.992 195.12 135.334 195.357 137.696C195.535 139.542 195.851 141.388 196.029 143.253C196.128 144.305 196.187 145.357 196.147 146.429C196.147 146.667 196.128 146.925 196.108 147.164C196.068 147.699 195.969 148.335 195.713 149.029C195.614 149.347 195.495 149.625 195.377 149.863C195.278 150.061 195.159 150.24 195.06 150.419C194.883 150.697 194.646 151.014 194.31 151.332C193.974 151.669 193.638 151.907 193.361 152.086C193.084 152.265 192.808 152.423 192.531 152.562C191.741 152.979 191.029 153.456 191.563 154.924C192.511 157.505 193.065 159.867 194.053 162.427C194.112 162.606 194.191 162.765 194.27 162.923C195.258 163.023 195.91 162.149 195.732 161.058L194.468 155.182C194.468 155.182 195.278 154.726 195.357 154.666C195.653 154.468 195.93 154.269 196.187 154.031C196.701 153.575 197.175 153.059 197.57 152.503C198.36 151.352 198.874 150.002 199.013 148.613C199.072 147.977 199.032 147.362 198.973 146.727L196.128 120.01C195.614 115.366 192.274 111.952 188.164 112.13C188.619 112.329 188.875 112.488 189.211 112.686C189.211 112.686 192.413 114.453 193.341 120.189L194.646 130.59L194.586 130.649Z" fill="#C7B9F0"/>
<path d="M264.105 199.326C265.607 199.465 267.128 198.989 268.432 198.215C273.59 195.158 275.783 188.727 273.768 183.09C272.839 180.47 270.962 178.108 268.432 176.976C262.405 174.297 257.149 179.854 256.161 185.452C255.904 186.861 255.845 188.25 255.944 189.58C256.299 193.927 259.362 198.929 264.105 199.326Z" fill="black"/>
<path d="M259.364 184.539L248.773 175.051C248.773 175.051 248.773 175.051 248.773 175.031C248.575 174.575 247.468 172.292 246.322 171.915C246.026 171.816 245.749 171.836 245.512 171.975C245.315 172.034 245.097 172.213 244.959 172.511C244.919 172.59 244.9 172.669 244.9 172.749C244.662 172.59 244.406 172.471 244.129 172.451C243.793 172.411 243.477 172.511 243.24 172.729C242.983 172.947 242.864 173.245 242.884 173.582C242.884 173.662 242.884 173.761 242.924 173.84C242.864 173.84 242.805 173.84 242.746 173.84C242.469 173.84 242.252 173.959 242.094 174.158C241.738 174.595 241.837 175.111 242.113 175.567C241.876 175.607 241.659 175.706 241.481 175.925C241.264 176.183 241.204 176.5 241.283 176.838C241.481 177.77 242.726 178.882 244.722 179.874L256.4 191.645C256.4 191.645 256.499 191.724 256.558 191.744C256.618 191.744 256.657 191.764 256.716 191.744C256.835 191.744 256.934 191.645 256.993 191.545L259.463 184.995C259.522 184.837 259.503 184.678 259.364 184.559V184.539Z" fill="black"/>
<path d="M274.124 188.965C276.554 189.005 278.293 188.846 280.368 188.508C283.411 188.012 288.015 186.921 290.94 184.32C290.999 184.261 291.039 184.201 291.058 184.122C291.058 184.023 292.54 173.126 286.237 164.888C281.139 158.239 272.088 154.508 263.769 156.076C258.552 157.068 254.442 160.204 252.17 165.146C249.205 171.617 252.308 180.013 257.426 184.082C259.698 185.888 262.089 186.782 264.915 187.655C266.358 188.111 269.737 188.886 274.124 188.965Z" fill="black"/>
<path d="M271.812 165.147C269.322 164.392 266.694 164.015 264.165 164.313C263.434 164.392 262.722 164.551 262.031 164.769C260.825 165.166 259.679 165.802 258.75 166.675C257.98 167.37 257.347 168.223 256.834 169.136C252.387 176.976 259.857 182.296 259.936 182.355C259.995 182.395 265.686 186.484 274.065 186.266C280.112 186.107 284.182 179.854 282.522 174.138C281.416 170.347 278.037 167.648 274.579 166.159C273.709 165.782 272.78 165.444 271.852 165.166L271.812 165.147Z" fill="#EAB3B1"/>
<path d="M246.045 172.709C246.045 172.709 245.887 172.709 245.828 172.749C245.769 172.788 245.769 172.868 245.769 172.947C245.769 173.046 245.788 173.145 245.828 173.225C245.887 173.384 245.947 173.542 246.026 173.701C246.085 173.82 246.144 173.92 246.223 174.039C246.342 174.237 246.282 174.495 246.085 174.634C245.887 174.773 245.69 174.674 245.551 174.495C245.156 174.039 244.465 173.304 244.03 173.265C243.951 173.265 243.891 173.265 243.832 173.324C243.753 173.384 243.753 173.443 243.753 173.503C243.753 173.8 244.129 174.237 244.484 174.614C244.702 174.793 244.879 174.952 244.939 175.011C245.117 175.17 245.117 175.428 244.959 175.607C244.8 175.785 244.563 175.766 244.366 175.627C244.03 175.369 243.714 175.071 243.378 174.813C243.259 174.733 243.141 174.634 243.022 174.594C242.943 174.575 242.844 174.575 242.785 174.634C242.647 174.753 242.765 174.952 242.844 175.071C243.121 175.488 243.476 175.805 243.852 176.123L243.911 176.182C244.089 176.341 244.109 176.599 243.97 176.778C243.812 176.956 243.556 176.996 243.358 176.837C243.081 176.619 242.686 176.381 242.429 176.321C242.291 176.282 242.172 176.341 242.153 176.5C242.153 176.599 242.153 176.698 242.212 176.798C242.311 176.956 242.409 177.095 242.528 177.234C242.824 177.552 243.16 177.83 243.516 178.088C243.714 178.227 243.911 178.346 244.109 178.465C244.227 178.525 244.326 178.604 244.445 178.663C244.484 178.663 244.8 178.882 244.8 178.862L247.883 175.091C247.409 174.118 246.618 172.868 246.085 172.689L246.045 172.709Z" fill="#EAB3B1"/>
<path opacity="0.25" d="M281.08 180.43C281.653 182.137 280.428 184.062 278.353 184.698C276.278 185.333 274.124 184.459 273.551 182.752C272.978 181.045 274.203 179.12 276.278 178.485C278.353 177.85 280.507 178.723 281.08 180.43Z" fill="url(#paint1_radial_1_1635)"/>
<path opacity="0.25" d="M257.271 172.133C255.69 173.007 255.295 175.25 256.402 177.115C257.508 178.981 259.662 179.815 261.243 178.922C262.824 178.028 263.219 175.805 262.113 173.94C261.026 172.054 258.852 171.24 257.271 172.133Z" fill="url(#paint2_radial_1_1635)"/>
<path d="M261.932 167.131C261.814 167.092 261.735 167.012 261.695 166.893C261.636 166.715 261.754 166.516 261.952 166.476C262.07 166.457 264.639 165.821 266.734 167.231C266.892 167.33 266.932 167.548 266.833 167.707C266.734 167.866 266.517 167.906 266.339 167.806C264.501 166.576 262.149 167.131 262.13 167.151C262.07 167.151 261.991 167.151 261.932 167.151V167.131Z" fill="black"/>
<path d="M278.829 172.193C278.829 172.193 278.73 172.153 278.691 172.093C278.691 172.093 276.971 170.347 274.758 170.406C274.561 170.406 274.403 170.267 274.383 170.069C274.383 169.87 274.521 169.712 274.719 169.712C277.248 169.632 279.106 171.538 279.185 171.617C279.323 171.756 279.323 171.974 279.185 172.113C279.086 172.213 278.947 172.232 278.829 172.193Z" fill="black"/>
<path d="M272.664 179.795L263.534 176.758C263.356 176.699 263.179 176.778 263.099 176.937C263.06 177.036 261.934 179.577 262.941 181.74C263.455 182.852 264.423 183.646 265.826 184.102C265.866 184.102 265.905 184.122 265.945 184.142C267.921 184.757 269.344 184.539 270.352 183.943L270.529 183.824C272.031 182.852 272.604 181.105 272.861 180.291L272.901 180.192C272.96 180.013 272.861 179.815 272.683 179.755L272.664 179.795ZM266.143 183.507C264.937 183.13 264.107 182.474 263.653 181.581C264.502 181.383 267.308 180.986 269.68 183.526C268.83 183.904 267.684 183.983 266.143 183.507ZM270.292 183.169C267.605 180.192 264.265 180.728 263.396 180.926C263.198 180.212 263.218 179.477 263.317 178.842L271.596 181.581C271.3 182.157 270.885 182.733 270.292 183.149V183.169ZM272.11 180.331C272.051 180.529 271.972 180.748 271.873 180.966L263.435 178.167C263.495 177.909 263.574 177.671 263.633 177.512L272.11 180.331Z" fill="black"/>
<path d="M271.875 180.966C271.974 180.728 272.053 180.509 272.112 180.331L263.635 177.512C263.576 177.671 263.517 177.909 263.438 178.167L271.875 180.966Z" fill="white"/>
<path d="M270.29 183.169C270.883 182.752 271.298 182.177 271.595 181.601L263.315 178.862C263.216 179.497 263.196 180.232 263.394 180.946C264.283 180.728 267.603 180.212 270.29 183.189V183.169Z" fill="#DE5C56"/>
<path d="M263.652 181.581C264.107 182.475 264.937 183.11 266.142 183.507C267.683 183.983 268.829 183.904 269.679 183.527C267.308 180.986 264.502 181.383 263.652 181.581Z" fill="#ED7580"/>
<path d="M270.312 178.108C270.154 178.048 270.055 177.909 270.075 177.751C270.095 177.473 270.016 177.155 269.897 176.917C269.383 175.786 267.684 175.527 266.854 176.421C266.795 176.48 266.736 176.56 266.676 176.639C266.577 176.798 266.36 176.857 266.202 176.758C266.044 176.659 265.985 176.441 266.083 176.282C266.36 175.825 266.815 175.488 267.328 175.309C268.712 174.833 270.47 175.686 270.727 177.195C270.767 177.413 270.786 177.612 270.767 177.83C270.767 178.028 270.589 178.167 270.391 178.148C270.371 178.148 270.332 178.148 270.312 178.148V178.108Z" fill="black"/>
<path d="M264.878 169.196C263.83 168.7 262.783 168.541 261.874 168.719C260.965 168.898 260.273 169.414 259.918 170.168C259.562 170.923 259.621 171.776 260.076 172.59C260.53 173.404 261.321 174.098 262.388 174.575C262.605 174.674 262.842 174.773 263.06 174.833C264.957 175.468 266.715 174.992 267.367 173.582C268.099 172.014 267.051 170.168 264.897 169.176L264.878 169.196ZM260.688 172.272C260.352 171.657 260.293 171.022 260.55 170.466C260.807 169.91 261.321 169.533 262.012 169.394C262.605 169.275 263.297 169.335 263.988 169.573C264.186 169.632 264.384 169.712 264.581 169.811C264.641 169.831 264.7 169.871 264.759 169.91C264.324 170.148 263.672 170.665 263.356 171.717C263.02 172.769 263.297 173.721 263.514 174.257C263.238 174.178 262.961 174.079 262.684 173.959C261.775 173.543 261.084 172.947 260.708 172.272H260.688ZM264.324 174.356C264.324 174.356 263.633 173.165 264.028 171.915C264.127 171.558 264.285 171.22 264.522 170.942C264.779 170.645 265.095 170.446 265.47 170.327C266.636 171.161 267.17 172.312 266.715 173.304C266.34 174.118 265.431 174.495 264.344 174.396V174.356H264.324Z" fill="black"/>
<path d="M263.356 171.716C263.672 170.664 264.344 170.148 264.759 169.91C264.7 169.89 264.64 169.851 264.581 169.811C264.383 169.712 264.186 169.632 263.988 169.573C263.277 169.334 262.605 169.275 262.012 169.394C261.321 169.533 260.807 169.91 260.55 170.466C260.293 171.022 260.352 171.657 260.688 172.272C261.064 172.947 261.755 173.542 262.664 173.959C262.941 174.098 263.218 174.178 263.494 174.257C263.277 173.721 263.02 172.748 263.336 171.716H263.356Z" fill="white"/>
<path d="M266.692 173.324C267.147 172.352 266.633 171.2 265.447 170.347C265.072 170.466 264.736 170.645 264.499 170.962C264.262 171.24 264.123 171.597 264.005 171.935C263.61 173.185 264.301 174.356 264.301 174.376C264.301 174.376 264.301 174.396 264.301 174.416C265.388 174.495 266.297 174.118 266.672 173.324H266.692Z" fill="#2255B2"/>
<path d="M278.216 174.158C277.583 173.463 276.654 172.967 275.528 172.729C273.216 172.232 271.28 173.106 270.924 174.793C270.608 176.301 271.734 177.731 273.631 178.366C273.848 178.445 274.086 178.505 274.323 178.544C275.449 178.783 276.496 178.703 277.346 178.326C278.196 177.949 278.749 177.294 278.907 176.48C279.065 175.666 278.828 174.833 278.196 174.138L278.216 174.158ZM274.481 177.889C272.564 177.492 271.359 176.242 271.615 174.952C271.872 173.662 273.473 173.007 275.39 173.404C275.607 173.443 275.805 173.503 276.002 173.582C275.568 173.84 274.955 174.376 274.619 175.408C274.303 176.421 274.52 177.373 274.718 177.929C274.639 177.929 274.56 177.929 274.461 177.889H274.481ZM275.291 175.607C275.686 174.356 276.437 174.078 276.536 174.039C276.615 173.999 276.674 173.979 276.793 173.939C277.148 174.138 277.445 174.356 277.682 174.614C278.156 175.13 278.354 175.746 278.235 176.341C278.117 176.937 277.702 177.413 277.05 177.711C276.615 177.909 276.081 177.989 275.489 177.989C275.33 177.671 274.935 176.679 275.271 175.607H275.291Z" fill="black"/>
<path d="M274.62 175.408C274.936 174.376 275.569 173.84 276.003 173.582C275.806 173.523 275.608 173.463 275.391 173.404C273.474 173.007 271.893 173.642 271.616 174.952C271.36 176.242 272.565 177.492 274.482 177.889C274.561 177.889 274.64 177.909 274.739 177.929C274.541 177.373 274.304 176.421 274.64 175.408H274.62Z" fill="white"/>
<path d="M277.702 174.614C277.465 174.356 277.149 174.118 276.813 173.939C276.675 173.999 276.635 174.019 276.556 174.039C276.457 174.078 275.706 174.356 275.311 175.607C274.975 176.679 275.37 177.671 275.529 177.989C276.102 177.989 276.635 177.909 277.09 177.711C277.722 177.413 278.137 176.937 278.275 176.341C278.394 175.746 278.196 175.13 277.722 174.614H277.702Z" fill="#2255B2"/>
</g>
</g>
<defs>
<linearGradient id="paint0_linear_1_1635" x1="194.341" y1="766.165" x2="194.341" y2="17.8701" gradientUnits="userSpaceOnUse">
<stop stop-color="#F2F2F7"/>
<stop offset="1" stop-color="#F8F8FA"/>
</linearGradient>
<radialGradient id="paint1_radial_1_1635" cx="0" cy="0" r="1" gradientUnits="userSpaceOnUse" gradientTransform="translate(344.655 155.346) rotate(-17.1619) scale(3.94217 3.28608)">
<stop stop-color="#D32E5B" stop-opacity="0.8"/>
<stop offset="0.14" stop-color="#D32E5C" stop-opacity="0.78"/>
<stop offset="0.27" stop-color="#D32E5F" stop-opacity="0.73"/>
<stop offset="0.38" stop-color="#D32E66" stop-opacity="0.65"/>
<stop offset="0.49" stop-color="#D32F6E" stop-opacity="0.53"/>
<stop offset="0.54" stop-color="#D33073" stop-opacity="0.47"/>
<stop offset="0.57" stop-color="#D3346F" stop-opacity="0.43"/>
<stop offset="0.76" stop-color="#D54D5A" stop-opacity="0.2"/>
<stop offset="0.91" stop-color="#D75D4C" stop-opacity="0.05"/>
<stop offset="1" stop-color="#D86348" stop-opacity="0"/>
</radialGradient>
<radialGradient id="paint2_radial_1_1635" cx="0" cy="0" r="1" gradientUnits="userSpaceOnUse" gradientTransform="translate(348.935 317.891) rotate(-120.239) scale(3.95376 3.27645)">
<stop stop-color="#D32E5B" stop-opacity="0.8"/>
<stop offset="0.14" stop-color="#D32E5C" stop-opacity="0.78"/>
<stop offset="0.27" stop-color="#D32E5F" stop-opacity="0.73"/>
<stop offset="0.38" stop-color="#D32E66" stop-opacity="0.65"/>
<stop offset="0.49" stop-color="#D32F6E" stop-opacity="0.53"/>
<stop offset="0.54" stop-color="#D33073" stop-opacity="0.47"/>
<stop offset="0.57" stop-color="#D3346F" stop-opacity="0.43"/>
<stop offset="0.76" stop-color="#D54D5A" stop-opacity="0.2"/>
<stop offset="0.91" stop-color="#D75D4C" stop-opacity="0.05"/>
<stop offset="1" stop-color="#D86348" stop-opacity="0"/>
</radialGradient>
<clipPath id="clip0_1_1635">
<rect width="388" height="594" fill="white"/>
</clipPath>
<clipPath id="clip1_1_1635">
<rect width="203" height="126" fill="white" transform="translate(93 103)"/>
</clipPath>
</defs>
</svg>
