<svg width="1101" height="245" viewBox="0 0 1101 245" fill="none" xmlns="http://www.w3.org/2000/svg">
<g clip-path="url(#clip0_337_5821)">
<rect x="829.5" width="270" height="244" fill="white"/>
<rect x="829.5" width="270" height="244" stroke="#F7F0F9" stroke-width="2"/>
<rect x="830.5" y="1" width="268" height="106" fill="#BC3C9D"/>
<path d="M932.777 32.1477H931.004C930.936 31.7689 930.809 31.4356 930.624 31.1477C930.438 30.8598 930.211 30.6155 929.942 30.4148C929.673 30.214 929.372 30.0625 929.038 29.9602C928.709 29.858 928.358 29.8068 927.987 29.8068C927.317 29.8068 926.716 29.9754 926.186 30.3125C925.66 30.6496 925.243 31.1439 924.936 31.7955C924.633 32.447 924.481 33.2424 924.481 34.1818C924.481 35.1288 924.633 35.928 924.936 36.5795C925.243 37.2311 925.661 37.7235 926.192 38.0568C926.722 38.3902 927.319 38.5568 927.981 38.5568C928.349 38.5568 928.697 38.5076 929.027 38.4091C929.36 38.3068 929.661 38.1572 929.93 37.9602C930.199 37.7633 930.427 37.5227 930.612 37.2386C930.802 36.9508 930.932 36.6212 931.004 36.25L932.777 36.2557C932.682 36.8277 932.499 37.3542 932.226 37.8352C931.957 38.3125 931.61 38.7254 931.186 39.0739C930.766 39.4186 930.285 39.6856 929.743 39.875C929.201 40.0644 928.61 40.1591 927.97 40.1591C926.963 40.1591 926.065 39.9205 925.277 39.4432C924.489 38.9621 923.868 38.2746 923.413 37.3807C922.963 36.4867 922.737 35.4205 922.737 34.1818C922.737 32.9394 922.964 31.8731 923.419 30.983C923.874 30.089 924.495 29.4034 925.283 28.9261C926.07 28.4451 926.966 28.2045 927.97 28.2045C928.588 28.2045 929.163 28.2936 929.697 28.4716C930.235 28.6458 930.718 28.9034 931.146 29.2443C931.574 29.5814 931.928 29.9943 932.209 30.483C932.489 30.9678 932.678 31.5227 932.777 32.1477ZM944.346 34.1818C944.346 35.4242 944.118 36.4924 943.664 37.3864C943.209 38.2765 942.586 38.9621 941.795 39.4432C941.007 39.9205 940.111 40.1591 939.107 40.1591C938.1 40.1591 937.2 39.9205 936.408 39.4432C935.62 38.9621 934.999 38.2746 934.545 37.3807C934.09 36.4867 933.863 35.4205 933.863 34.1818C933.863 32.9394 934.09 31.8731 934.545 30.983C934.999 30.089 935.62 29.4034 936.408 28.9261C937.2 28.4451 938.1 28.2045 939.107 28.2045C940.111 28.2045 941.007 28.4451 941.795 28.9261C942.586 29.4034 943.209 30.089 943.664 30.983C944.118 31.8731 944.346 32.9394 944.346 34.1818ZM942.607 34.1818C942.607 33.2348 942.454 32.4375 942.147 31.7898C941.844 31.1383 941.427 30.6458 940.897 30.3125C940.37 29.9754 939.774 29.8068 939.107 29.8068C938.437 29.8068 937.838 29.9754 937.312 30.3125C936.785 30.6458 936.368 31.1383 936.062 31.7898C935.759 32.4375 935.607 33.2348 935.607 34.1818C935.607 35.1288 935.759 35.928 936.062 36.5795C936.368 37.2273 936.785 37.7197 937.312 38.0568C937.838 38.3902 938.437 38.5568 939.107 38.5568C939.774 38.5568 940.37 38.3902 940.897 38.0568C941.427 37.7197 941.844 37.2273 942.147 36.5795C942.454 35.928 942.607 35.1288 942.607 34.1818ZM953.378 28.3636H955.139V36.017C955.139 36.8314 954.948 37.553 954.565 38.1818C954.183 38.8068 953.645 39.2992 952.951 39.6591C952.258 40.0152 951.446 40.1932 950.514 40.1932C949.586 40.1932 948.775 40.0152 948.082 39.6591C947.389 39.2992 946.851 38.8068 946.469 38.1818C946.086 37.553 945.895 36.8314 945.895 36.017V28.3636H947.65V35.875C947.65 36.4015 947.766 36.8693 947.997 37.2784C948.232 37.6875 948.563 38.0095 948.991 38.2443C949.419 38.4754 949.927 38.5909 950.514 38.5909C951.105 38.5909 951.614 38.4754 952.042 38.2443C952.474 38.0095 952.804 37.6875 953.031 37.2784C953.262 36.8693 953.378 36.4015 953.378 35.875V28.3636ZM957.052 40V28.3636H961.199C962.101 28.3636 962.849 28.5189 963.444 28.8295C964.042 29.1402 964.489 29.5701 964.784 30.1193C965.08 30.6648 965.228 31.2955 965.228 32.0114C965.228 32.7235 965.078 33.3504 964.779 33.892C964.483 34.4299 964.036 34.8485 963.438 35.1477C962.843 35.447 962.095 35.5966 961.194 35.5966H958.052V34.0852H961.034C961.603 34.0852 962.065 34.0038 962.421 33.8409C962.781 33.678 963.044 33.4413 963.211 33.1307C963.377 32.8201 963.461 32.447 963.461 32.0114C963.461 31.572 963.375 31.1913 963.205 30.8693C963.038 30.5473 962.775 30.3011 962.415 30.1307C962.059 29.9564 961.591 29.8693 961.012 29.8693H958.807V40H957.052ZM962.796 34.75L965.671 40H963.671L960.853 34.75H962.796ZM973.071 31.4205C973.01 30.8826 972.76 30.4659 972.321 30.1705C971.881 29.8712 971.328 29.7216 970.662 29.7216C970.184 29.7216 969.771 29.7973 969.423 29.9489C969.074 30.0966 968.804 30.3011 968.61 30.5625C968.421 30.8201 968.326 31.1136 968.326 31.4432C968.326 31.7197 968.391 31.9583 968.519 32.1591C968.652 32.3598 968.824 32.5284 969.037 32.6648C969.252 32.7973 969.484 32.9091 969.73 33C969.976 33.0871 970.213 33.1591 970.44 33.2159L971.576 33.5114C971.948 33.6023 972.328 33.7254 972.718 33.8807C973.109 34.036 973.47 34.2405 973.804 34.4943C974.137 34.7481 974.406 35.0625 974.61 35.4375C974.819 35.8125 974.923 36.2614 974.923 36.7841C974.923 37.4432 974.752 38.0284 974.412 38.5398C974.074 39.0511 973.584 39.4545 972.94 39.75C972.3 40.0455 971.525 40.1932 970.616 40.1932C969.745 40.1932 968.991 40.0549 968.355 39.7784C967.718 39.5019 967.22 39.1098 966.86 38.6023C966.501 38.0909 966.302 37.4848 966.264 36.7841H968.025C968.059 37.2045 968.196 37.5549 968.434 37.8352C968.677 38.1117 968.985 38.3182 969.36 38.4545C969.739 38.5871 970.154 38.6534 970.605 38.6534C971.101 38.6534 971.542 38.5758 971.929 38.4205C972.319 38.2614 972.626 38.0417 972.849 37.7614C973.073 37.4773 973.184 37.1458 973.184 36.767C973.184 36.4223 973.086 36.1402 972.889 35.9205C972.696 35.7008 972.432 35.5189 972.099 35.375C971.769 35.2311 971.396 35.1042 970.98 34.9943L969.605 34.6193C968.673 34.3655 967.934 33.9924 967.389 33.5C966.847 33.0076 966.576 32.3561 966.576 31.5455C966.576 30.875 966.758 30.2898 967.122 29.7898C967.485 29.2898 967.978 28.9015 968.599 28.625C969.22 28.3447 969.921 28.2045 970.701 28.2045C971.489 28.2045 972.184 28.3428 972.787 28.6193C973.393 28.8958 973.87 29.2765 974.218 29.7614C974.567 30.2424 974.749 30.7955 974.764 31.4205H973.071ZM976.381 40V28.3636H983.676V29.875H978.137V33.4205H983.296V34.9261H978.137V38.4886H983.745V40H976.381ZM988.572 37.7273V36.3068L993.601 28.3636H994.72V30.4545H994.01L990.413 36.1477V36.2386H997.305V37.7273H988.572ZM994.09 40V37.2955L994.101 36.6477V28.3636H995.766V40H994.09Z" fill="white"/>
<path d="M897.344 64.97V69.95C901.544 69.92 905.024 69.71 908.924 69.05L909.344 72.26C904.844 73.04 900.794 73.22 895.784 73.22H893.294V61.85H902.264V57.44H893.264V54.29H906.314V64.97H897.344ZM910.844 51.92H914.804V79.64H910.844V51.92ZM923.472 57.56V69.74C927.432 69.71 930.282 69.5 933.432 68.96L933.822 72.17C930.102 72.86 926.802 72.98 921.762 72.98H919.512V54.41H932.022V57.56H923.472ZM937.452 51.95H941.412V79.67H937.452V64.67H930.702V61.49H937.452V51.95ZM968.769 64.94L967.089 68.27C962.289 67.31 958.749 64.64 956.979 61.13C955.209 64.64 951.699 67.34 946.899 68.27L945.219 64.94C951.429 63.89 954.879 59.51 954.879 55.55V53.57H959.109V55.55C959.109 59.6 962.529 63.89 968.769 64.94ZM944.619 73.01H969.639V76.22H944.619V73.01ZM978.741 61.46L995.331 60.92C995.421 59.66 995.421 58.49 995.421 57.41H979.581V54.26H999.321V56.69C999.321 60.02 999.351 63.89 998.061 69.95L994.161 69.47C994.641 67.43 994.941 65.6 995.091 63.95L979.251 64.79L978.741 61.46ZM989.571 73.19H1001.75V76.4H976.761V73.19H985.611V66.59H989.571V73.19ZM1027.31 64.94L1025.63 68.27C1020.83 67.31 1017.29 64.64 1015.52 61.13C1013.75 64.64 1010.24 67.34 1005.44 68.27L1003.76 64.94C1009.97 63.89 1013.42 59.51 1013.42 55.55V53.57H1017.65V55.55C1017.65 59.6 1021.07 63.89 1027.31 64.94ZM1003.16 73.01H1028.18V76.22H1003.16V73.01Z" fill="white"/>
<path d="M883.747 145.296V152.512C886.291 152.512 888.131 152.4 890.211 152.032L890.355 153.12C888.163 153.536 886.275 153.632 883.571 153.632H882.435V144.208H889.107V145.296H883.747ZM895.235 148.496V149.584H892.867V157.216H891.555V142.832H892.867V148.496H895.235ZM897.458 147.056C897.458 148.4 898.482 149.344 899.922 149.344C901.346 149.344 902.386 148.4 902.386 147.056C902.386 145.712 901.346 144.784 899.922 144.784C898.482 144.784 897.458 145.712 897.458 147.056ZM903.666 147.056C903.666 149.056 902.082 150.448 899.922 150.448C897.746 150.448 896.178 149.056 896.178 147.056C896.178 145.072 897.746 143.696 899.922 143.696C902.082 143.696 903.666 145.072 903.666 147.056ZM902.482 156.128C904.594 156.128 905.89 155.504 905.89 154.48C905.89 153.44 904.594 152.832 902.482 152.832C900.354 152.832 899.058 153.44 899.058 154.48C899.058 155.504 900.354 156.128 902.482 156.128ZM902.482 151.792C905.378 151.792 907.202 152.768 907.202 154.48C907.202 156.176 905.378 157.168 902.482 157.168C899.57 157.168 897.746 156.176 897.746 154.48C897.746 152.768 899.57 151.792 902.482 151.792ZM909.138 146.048H907.058V148.032H909.138V149.12H907.058V151.344H905.746V142.848H907.058V144.976H909.138V146.048ZM918.497 144.592V145.648H910.033V144.592H913.601V142.832H914.913V144.592H918.497ZM912.081 149.104C912.081 150.112 912.961 150.752 914.257 150.752C915.553 150.752 916.449 150.112 916.449 149.104C916.449 148.112 915.553 147.472 914.257 147.472C912.961 147.472 912.081 148.112 912.081 149.104ZM917.697 149.104C917.697 150.72 916.289 151.776 914.257 151.776C912.225 151.776 910.833 150.72 910.833 149.104C910.833 147.504 912.225 146.448 914.257 146.448C916.289 146.448 917.697 147.504 917.697 149.104ZM913.505 152.752V155.792H921.761V156.864H912.193V152.752H913.505ZM921.121 147.568H923.233V148.672H921.121V153.6H919.809V142.832H921.121V147.568ZM928.938 149.808L928.442 148.768C930.938 148.4 933.418 146.752 933.418 144.864V144.784H928.89V143.728H939.37V144.784H934.874V144.864C934.874 146.752 937.354 148.4 939.882 148.768L939.37 149.808C937.146 149.424 935.018 148.224 934.154 146.528C933.274 148.224 931.162 149.424 928.938 149.808ZM940.634 151.008L940.65 152.08H934.778V157.184H933.466V152.08H927.674V151.008H940.634ZM945.945 145.584V146.88C945.945 149.376 947.017 151.872 949.001 152.992L948.201 153.952C946.809 153.12 945.817 151.584 945.321 149.76C944.825 151.728 943.785 153.408 942.361 154.304L941.561 153.328C943.561 152.128 944.681 149.52 944.681 146.88V145.584H941.961V144.512H948.505V145.584H945.945ZM949.785 147.984V143.152H951.033V156.432H949.785V149.056H947.417V147.984H949.785ZM952.665 142.816H953.929V157.168H952.665V142.816ZM960.472 143.888C962.712 143.888 964.312 145.248 964.312 147.264C964.312 149.264 962.712 150.64 960.472 150.64C958.248 150.64 956.632 149.264 956.632 147.264C956.632 145.248 958.248 143.888 960.472 143.888ZM960.472 145.008C959 145.008 957.912 145.92 957.912 147.264C957.912 148.592 959 149.52 960.472 149.52C961.96 149.52 963.032 148.592 963.032 147.264C963.032 145.92 961.96 145.008 960.472 145.008ZM966.2 142.832H967.512V157.216H966.2V142.832ZM956.072 154.064L955.912 152.96C958.52 152.96 962.12 152.944 965.256 152.464L965.368 153.44C962.136 154.032 958.664 154.064 956.072 154.064ZM981.793 149.12L981.937 150.176C979.969 150.576 978.273 150.672 975.265 150.672H974.145V144.08H980.497V145.136H975.457V149.6C978.289 149.6 979.921 149.488 981.793 149.12ZM977.009 152.176V155.792H985.265V156.864H975.697V152.176H977.009ZM984.625 147.088H986.753V148.176H984.625V153.216H983.313V142.832H984.625V147.088ZM991.407 152.784C992.767 152.784 993.727 151.28 993.727 148.944C993.727 146.624 992.767 145.12 991.407 145.12C990.031 145.12 989.071 146.624 989.071 148.944C989.071 151.28 990.031 152.784 991.407 152.784ZM998.079 142.832H999.391V157.216H998.079V149.376H994.959C994.831 152.192 993.407 153.952 991.407 153.952C989.311 153.952 987.823 152 987.823 148.944C987.823 145.888 989.311 143.936 991.407 143.936C993.343 143.936 994.751 145.616 994.959 148.304H998.079V142.832ZM1003.41 147.136C1003.41 148.496 1004.46 149.392 1005.93 149.392C1007.39 149.392 1008.45 148.496 1008.45 147.136C1008.45 145.792 1007.39 144.864 1005.93 144.864C1004.46 144.864 1003.41 145.792 1003.41 147.136ZM1006.59 150.464V152.896C1007.9 152.832 1009.23 152.752 1010.46 152.576L1010.57 153.536C1007.53 154.048 1004.19 154.096 1001.66 154.096L1001.49 152.992C1002.62 152.992 1003.93 152.976 1005.28 152.944V150.464C1003.41 150.24 1002.13 148.928 1002.13 147.136C1002.13 145.12 1003.71 143.76 1005.93 143.76C1008.13 143.76 1009.73 145.12 1009.73 147.136C1009.73 148.928 1008.43 150.224 1006.59 150.464ZM1014.96 148.752V149.856H1012.69V157.184H1011.37V142.816H1012.69V148.752H1014.96ZM1031.69 150.048L1031.1 151.136C1028.92 150.64 1026.68 149.104 1025.77 146.992C1024.86 149.088 1022.62 150.624 1020.46 151.136L1019.86 150.048C1022.38 149.552 1025.08 147.392 1025.08 144.944V143.84H1026.46V144.944C1026.46 147.392 1029.18 149.568 1031.69 150.048ZM1019.32 154.176H1032.33V155.264H1019.32V154.176ZM1040.55 154.32H1046.42V155.392H1033.38V154.32H1039.24V151.36H1035.06V144H1044.79V145.072H1036.39V147.088H1044.47V148.128H1036.39V150.288H1044.93V151.36H1040.55V154.32ZM1049.62 149.28V152.64C1051.97 152.64 1054.08 152.528 1056.6 152.128L1056.72 153.2C1054.13 153.632 1051.96 153.728 1049.49 153.728H1048.31V148.224H1053.59V145.232H1048.26V144.16H1054.92V149.28H1049.62ZM1057.94 142.816H1059.25V157.2H1057.94V142.816ZM1068.71 154.336H1074.58V155.408H1061.54V154.336H1067.38V151.632H1063.17V147.2H1071.68V144.96H1063.14V143.888H1072.96V148.256H1064.47V150.576H1073.3V151.632H1068.71V154.336ZM903.656 175.936V177.008H897.8V183.2H896.472V177.008H890.68V175.936H900.2C900.648 173.872 900.648 172.352 900.648 171.008V170.816H892.296V169.76H901.928V171.008C901.928 172.352 901.928 173.872 901.528 175.936H903.656ZM915.239 177.328V172.96H912.119V171.888H915.239V168.848H916.567V177.328H915.239ZM913.159 175.632L912.455 176.656C910.887 176.064 909.671 174.928 909.047 173.44C908.439 175.136 907.143 176.432 905.415 177.088L904.727 176.016C906.935 175.232 908.359 173.312 908.359 171.12V169.648H909.671V171.072C909.671 173.12 911.063 174.896 913.159 175.632ZM911.831 182.128C913.991 182.128 915.303 181.504 915.303 180.464C915.303 179.408 913.991 178.784 911.831 178.784C909.671 178.784 908.359 179.408 908.359 180.464C908.359 181.504 909.671 182.128 911.831 182.128ZM911.831 177.76C914.775 177.76 916.615 178.736 916.615 180.464C916.615 182.176 914.775 183.168 911.831 183.168C908.887 183.168 907.047 182.176 907.047 180.464C907.047 178.736 908.887 177.76 911.831 177.76ZM930.565 168.832V179.568H929.253V168.832H930.565ZM928.101 176.288L928.197 177.232C925.157 177.664 921.749 177.76 919.077 177.76L918.885 176.688C920.133 176.688 921.525 176.672 922.933 176.624V174.592H920.165V169.76H926.997V170.832H921.477V173.536H927.093V174.592H924.245V176.576C925.573 176.512 926.869 176.432 928.101 176.288ZM922.597 181.792H931.045V182.864H921.285V178.864H922.597V181.792ZM938.639 175.28V178.64C940.991 178.64 943.103 178.528 945.615 178.128L945.743 179.2C943.151 179.632 940.975 179.728 938.511 179.728H937.327V174.224H942.607V171.232H937.279V170.16H943.935V175.28H938.639ZM946.959 168.816H948.271V183.2H946.959V168.816ZM952.605 171.28V178.56C955.149 178.56 956.829 178.464 958.765 178.096L958.925 179.184C956.845 179.568 955.117 179.664 952.397 179.664H951.293V170.192H957.821V171.28H952.605ZM961.085 168.832H962.397V183.216H961.085V175.12H956.973V174.032H961.085V168.832ZM977.02 176.048L976.428 177.136C974.252 176.64 972.012 175.104 971.1 172.992C970.188 175.088 967.948 176.624 965.788 177.136L965.196 176.048C967.708 175.552 970.412 173.392 970.412 170.944V169.84H971.788V170.944C971.788 173.392 974.508 175.568 977.02 176.048ZM964.652 180.176H977.66V181.264H964.652V180.176ZM985.883 180.336H991.755V181.408H978.715V180.336H984.555V177.632H980.347V173.2H988.859V170.96H980.315V169.888H990.139V174.256H981.643V176.576H990.475V177.632H985.883V180.336ZM1008.77 176.048L1008.18 177.136C1006 176.64 1003.76 175.104 1002.85 172.992C1001.94 175.088 999.7 176.624 997.54 177.136L996.948 176.048C999.46 175.552 1002.16 173.392 1002.16 170.944V169.84H1003.54V170.944C1003.54 173.392 1006.26 175.568 1008.77 176.048ZM996.404 180.176H1009.41V181.264H996.404V180.176ZM1017.63 180.32H1023.51V181.392H1010.47V180.32H1016.32V177.36H1012.15V170H1021.87V171.072H1013.47V173.088H1021.55V174.128H1013.47V176.288H1022.02V177.36H1017.63V180.32ZM1026.71 175.28V178.64C1029.06 178.64 1031.17 178.528 1033.68 178.128L1033.81 179.2C1031.22 179.632 1029.04 179.728 1026.58 179.728H1025.39V174.224H1030.67V171.232H1025.35V170.16H1032V175.28H1026.71ZM1035.03 168.816H1036.34V183.2H1035.03V168.816ZM1052.67 168.832H1053.98V183.216H1052.67V168.832ZM1046.41 169.936C1048.54 169.936 1050.06 171.888 1050.06 174.944C1050.06 178 1048.54 179.952 1046.41 179.952C1044.28 179.952 1042.76 178 1042.76 174.944C1042.76 171.888 1044.28 169.936 1046.41 169.936ZM1046.41 171.12C1045 171.12 1044.01 172.624 1044.01 174.944C1044.01 177.28 1045 178.784 1046.41 178.784C1047.8 178.784 1048.79 177.28 1048.79 174.944C1048.79 172.624 1047.8 171.12 1046.41 171.12ZM1059.87 178.768C1060.97 178.768 1061.77 177.856 1061.77 176.576C1061.77 175.328 1060.97 174.416 1059.87 174.416C1058.75 174.416 1057.96 175.328 1057.96 176.576C1057.96 177.856 1058.75 178.768 1059.87 178.768ZM1059.87 173.312C1061.64 173.312 1062.94 174.656 1062.94 176.576C1062.94 178.528 1061.64 179.856 1059.87 179.856C1058.09 179.856 1056.79 178.528 1056.79 176.576C1056.79 174.656 1058.09 173.312 1059.87 173.312ZM1060.51 169.248V171.28H1063.42V172.352H1056.3V171.28H1059.21V169.248H1060.51ZM1067.21 168.816H1068.47V183.168H1067.21V175.952H1065.37V182.48H1064.14V169.152H1065.37V174.88H1067.21V168.816ZM905.613 198.832V199.888H895.869V195.136H897.181V198.832H905.613ZM900.589 208.112C902.829 208.112 904.173 207.52 904.173 206.528C904.173 205.504 902.845 204.928 900.589 204.928C898.333 204.928 897.005 205.504 897.005 206.528C897.005 207.52 898.333 208.112 900.589 208.112ZM900.589 203.904C903.645 203.904 905.501 204.848 905.501 206.528C905.501 208.192 903.645 209.136 900.589 209.136C897.533 209.136 895.677 208.192 895.677 206.528C895.677 204.848 897.533 203.904 900.589 203.904ZM894.125 201.552H907.101V202.624H894.125V201.552ZM915.772 201.6L915.9 202.656C914.14 202.96 912.684 203.008 909.82 203.008H908.796V198.752H913.66V196.768H908.748V195.696H914.94V199.76H910.076V201.936C912.732 201.936 914.108 201.872 915.772 201.6ZM910.396 205.504V204.432H920.012V209.2H918.684V205.504H910.396ZM918.684 194.848H920.012V203.664H918.684V201.008H915.884V199.952H918.684V198.032H915.884V196.96H918.684V194.848ZM934.373 196.448V197.504H925.909V196.448H929.477V194.704H930.789V196.448H934.373ZM927.957 200.752C927.957 201.696 928.821 202.304 930.133 202.304C931.445 202.304 932.325 201.696 932.325 200.752C932.325 199.824 931.445 199.216 930.133 199.216C928.821 199.216 927.957 199.824 927.957 200.752ZM933.573 200.752C933.573 202.304 932.181 203.296 930.133 203.296C928.085 203.296 926.709 202.304 926.709 200.752C926.709 199.216 928.085 198.224 930.133 198.224C932.181 198.224 933.573 199.216 933.573 200.752ZM932.501 208.16C934.597 208.16 935.877 207.616 935.877 206.688C935.877 205.76 934.597 205.216 932.501 205.216C930.405 205.216 929.125 205.76 929.125 206.688C929.125 207.616 930.405 208.16 932.501 208.16ZM932.501 204.208C935.381 204.208 937.173 205.104 937.173 206.688C937.173 208.256 935.381 209.168 932.501 209.168C929.605 209.168 927.829 208.256 927.829 206.688C927.829 205.104 929.605 204.208 932.501 204.208ZM939.077 198.384H936.997V200.368H939.077V201.456H936.997V204.064H935.685V194.832H936.997V197.312H939.077V198.384ZM948.228 201.584L947.54 202.608C945.988 202.032 944.756 200.848 944.116 199.376C943.524 201.056 942.244 202.368 940.564 203.008L939.876 201.968C942.052 201.184 943.444 199.232 943.444 197.04V195.568H944.756V197.152C944.756 199.088 946.164 200.88 948.228 201.584ZM946.516 208.144C948.628 208.144 949.924 207.552 949.924 206.56C949.924 205.552 948.628 204.96 946.516 204.96C944.388 204.96 943.092 205.552 943.092 206.56C943.092 207.552 944.388 208.144 946.516 208.144ZM946.516 203.936C949.428 203.936 951.236 204.88 951.236 206.56C951.236 208.224 949.428 209.168 946.516 209.168C943.588 209.168 941.78 208.224 941.78 206.56C941.78 204.88 943.588 203.936 946.516 203.936ZM951.076 198.544H953.204V199.632H951.076V203.536H949.764V194.848H951.076V198.544ZM969.373 194.832V203.072H968.061V194.832H969.373ZM963.789 200.576V196.8H959.645V200.576H963.789ZM965.069 195.76V201.632H958.365V195.76H965.069ZM969.709 205.056H965.517C965.533 206.432 967.757 207.824 970.221 208.128L969.773 209.136C967.613 208.832 965.693 207.84 964.845 206.512C963.981 207.872 961.997 208.832 959.837 209.136L959.405 208.128C961.853 207.84 964.141 206.48 964.157 205.056H959.965V204.048H964.173V202.656H965.501V204.048H969.709V205.056ZM976.758 199.088C976.758 200.432 977.814 201.392 979.206 201.392C980.614 201.392 981.638 200.432 981.638 199.088C981.638 197.76 980.614 196.8 979.206 196.8C977.814 196.8 976.758 197.76 976.758 199.088ZM985.782 197.968H982.71C982.822 198.304 982.886 198.672 982.886 199.088C982.886 199.488 982.822 199.856 982.694 200.208H985.782V197.968ZM985.782 201.28H982.102C981.446 202.048 980.422 202.512 979.206 202.512C977.078 202.512 975.51 201.104 975.51 199.088C975.51 197.088 977.078 195.696 979.206 195.696C980.422 195.696 981.446 196.16 982.102 196.896H985.782V194.832H987.11V203.328H985.782V201.28ZM982.358 208.128C984.55 208.128 985.862 207.488 985.862 206.416C985.862 205.328 984.55 204.688 982.358 204.688C980.198 204.688 978.886 205.328 978.886 206.416C978.886 207.488 980.198 208.128 982.358 208.128ZM982.358 203.664C985.318 203.664 987.158 204.672 987.158 206.416C987.158 208.16 985.318 209.168 982.358 209.168C979.414 209.168 977.59 208.16 977.59 206.416C977.59 204.672 979.414 203.664 982.358 203.664ZM993.205 204.784C994.565 204.784 995.525 203.28 995.525 200.944C995.525 198.624 994.565 197.12 993.205 197.12C991.829 197.12 990.869 198.624 990.869 200.944C990.869 203.28 991.829 204.784 993.205 204.784ZM999.877 194.832H1001.19V209.216H999.877V201.376H996.757C996.629 204.192 995.205 205.952 993.205 205.952C991.109 205.952 989.621 204 989.621 200.944C989.621 197.888 991.109 195.936 993.205 195.936C995.141 195.936 996.549 197.616 996.757 200.304H999.877V194.832ZM1008.64 198.704C1008.64 199.952 1009.68 200.848 1011.07 200.848C1012.48 200.848 1013.5 199.952 1013.5 198.704C1013.5 197.456 1012.48 196.56 1011.07 196.56C1009.68 196.56 1008.64 197.456 1008.64 198.704ZM1014.78 198.704C1014.78 200.608 1013.21 201.92 1011.07 201.92C1008.93 201.92 1007.37 200.608 1007.37 198.704C1007.37 196.8 1008.93 195.488 1011.07 195.488C1013.21 195.488 1014.78 196.8 1014.78 198.704ZM1010.13 206.416V207.984C1011.95 207.984 1013.12 207.936 1014.56 207.68L1014.69 208.672C1013.09 208.96 1011.82 208.992 1009.73 208.992H1008.86V205.456H1012.3V204.096H1008.83V203.104H1013.58V206.416H1010.13ZM1014.19 204.16V203.104H1018.8V209.088H1017.5V204.16H1014.19ZM1017.49 194.848H1018.8V202.448H1017.49V194.848ZM1021.96 196.384H1028.68C1028.68 200.528 1026.78 204.176 1022.01 206.512L1021.31 205.44C1025.16 203.6 1027.08 200.848 1027.36 197.44H1021.96V196.384ZM1031.58 194.832H1032.89V209.184H1031.58V194.832ZM1040.23 205.504V204.432H1050.2V209.296H1048.87V205.504H1040.23ZM1045.94 201.984H1051.78V203.04H1038.79V201.984H1044.63V200.272H1040.42V195.408H1050.17V196.464H1041.73V199.216H1050.29V200.272H1045.94V201.984ZM1061.59 200.896L1061.73 201.952C1059.38 202.336 1057.43 202.416 1054.77 202.416H1053.62V198.4H1058.8V196.592H1053.57V195.536H1060.1V199.408H1054.9V201.344C1057.44 201.344 1059.32 201.264 1061.59 200.896ZM1063.35 207.92V206.16H1056.64V207.92H1063.35ZM1063.35 205.136V203.44H1064.64V208.992H1055.35V203.44H1056.64V205.136H1063.35ZM1063.33 194.848H1064.64V202.72H1063.33V194.848Z" fill="black"/>
<path d="M550.5 0H549.5V1V243V244H550.5H801.742H802.359L802.635 243.449L862.394 124.422L862.615 123.98L862.399 123.536L802.641 0.562927L802.368 0H801.742H550.5Z" fill="white" stroke="#F7F0F9" stroke-width="2"/>
<mask id="mask0_337_5821" style="mask-type:alpha" maskUnits="userSpaceOnUse" x="550" y="1" width="312" height="242">
<path d="M550.5 1H801.742L861.5 123.973L801.742 243H550.5V1Z" fill="white"/>
</mask>
<g mask="url(#mask0_337_5821)">
<rect x="550.5" y="1" width="311" height="106" fill="#A936A5"/>
</g>
<path d="M659.355 32.1477H657.582C657.514 31.7689 657.387 31.4356 657.202 31.1477C657.016 30.8598 656.789 30.6155 656.52 30.4148C656.251 30.214 655.95 30.0625 655.616 29.9602C655.287 29.858 654.936 29.8068 654.565 29.8068C653.895 29.8068 653.294 29.9754 652.764 30.3125C652.238 30.6496 651.821 31.1439 651.514 31.7955C651.211 32.447 651.06 33.2424 651.06 34.1818C651.06 35.1288 651.211 35.928 651.514 36.5795C651.821 37.2311 652.24 37.7235 652.77 38.0568C653.3 38.3902 653.897 38.5568 654.56 38.5568C654.927 38.5568 655.276 38.5076 655.605 38.4091C655.938 38.3068 656.24 38.1572 656.508 37.9602C656.777 37.7633 657.005 37.5227 657.19 37.2386C657.38 36.9508 657.51 36.6212 657.582 36.25L659.355 36.2557C659.26 36.8277 659.077 37.3542 658.804 37.8352C658.535 38.3125 658.188 38.7254 657.764 39.0739C657.344 39.4186 656.863 39.6856 656.321 39.875C655.779 40.0644 655.188 40.1591 654.548 40.1591C653.541 40.1591 652.643 39.9205 651.855 39.4432C651.067 38.9621 650.446 38.2746 649.991 37.3807C649.541 36.4867 649.315 35.4205 649.315 34.1818C649.315 32.9394 649.543 31.8731 649.997 30.983C650.452 30.089 651.073 29.4034 651.861 28.9261C652.649 28.4451 653.544 28.2045 654.548 28.2045C655.166 28.2045 655.741 28.2936 656.276 28.4716C656.813 28.6458 657.296 28.9034 657.724 29.2443C658.152 29.5814 658.507 29.9943 658.787 30.483C659.067 30.9678 659.257 31.5227 659.355 32.1477ZM670.924 34.1818C670.924 35.4242 670.697 36.4924 670.242 37.3864C669.788 38.2765 669.164 38.9621 668.373 39.4432C667.585 39.9205 666.689 40.1591 665.685 40.1591C664.678 40.1591 663.778 39.9205 662.986 39.4432C662.198 38.9621 661.577 38.2746 661.123 37.3807C660.668 36.4867 660.441 35.4205 660.441 34.1818C660.441 32.9394 660.668 31.8731 661.123 30.983C661.577 30.089 662.198 29.4034 662.986 28.9261C663.778 28.4451 664.678 28.2045 665.685 28.2045C666.689 28.2045 667.585 28.4451 668.373 28.9261C669.164 29.4034 669.788 30.089 670.242 30.983C670.697 31.8731 670.924 32.9394 670.924 34.1818ZM669.185 34.1818C669.185 33.2348 669.032 32.4375 668.725 31.7898C668.422 31.1383 668.005 30.6458 667.475 30.3125C666.948 29.9754 666.352 29.8068 665.685 29.8068C665.015 29.8068 664.416 29.9754 663.89 30.3125C663.363 30.6458 662.947 31.1383 662.64 31.7898C662.337 32.4375 662.185 33.2348 662.185 34.1818C662.185 35.1288 662.337 35.928 662.64 36.5795C662.947 37.2273 663.363 37.7197 663.89 38.0568C664.416 38.3902 665.015 38.5568 665.685 38.5568C666.352 38.5568 666.948 38.3902 667.475 38.0568C668.005 37.7197 668.422 37.2273 668.725 36.5795C669.032 35.928 669.185 35.1288 669.185 34.1818ZM679.956 28.3636H681.717V36.017C681.717 36.8314 681.526 37.553 681.143 38.1818C680.761 38.8068 680.223 39.2992 679.53 39.6591C678.836 40.0152 678.024 40.1932 677.092 40.1932C676.164 40.1932 675.353 40.0152 674.66 39.6591C673.967 39.2992 673.429 38.8068 673.047 38.1818C672.664 37.553 672.473 36.8314 672.473 36.017V28.3636H674.228V35.875C674.228 36.4015 674.344 36.8693 674.575 37.2784C674.81 37.6875 675.141 38.0095 675.569 38.2443C675.997 38.4754 676.505 38.5909 677.092 38.5909C677.683 38.5909 678.192 38.4754 678.621 38.2443C679.052 38.0095 679.382 37.6875 679.609 37.2784C679.84 36.8693 679.956 36.4015 679.956 35.875V28.3636ZM683.63 40V28.3636H687.777C688.679 28.3636 689.427 28.5189 690.022 28.8295C690.62 29.1402 691.067 29.5701 691.363 30.1193C691.658 30.6648 691.806 31.2955 691.806 32.0114C691.806 32.7235 691.656 33.3504 691.357 33.892C691.061 34.4299 690.615 34.8485 690.016 35.1477C689.421 35.447 688.673 35.5966 687.772 35.5966H684.63V34.0852H687.613C688.181 34.0852 688.643 34.0038 688.999 33.8409C689.359 33.678 689.622 33.4413 689.789 33.1307C689.955 32.8201 690.039 32.447 690.039 32.0114C690.039 31.572 689.954 31.1913 689.783 30.8693C689.616 30.5473 689.353 30.3011 688.993 30.1307C688.637 29.9564 688.169 29.8693 687.59 29.8693H685.385V40H683.63ZM689.374 34.75L692.249 40H690.249L687.431 34.75H689.374ZM699.649 31.4205C699.588 30.8826 699.338 30.4659 698.899 30.1705C698.459 29.8712 697.906 29.7216 697.24 29.7216C696.762 29.7216 696.35 29.7973 696.001 29.9489C695.653 30.0966 695.382 30.3011 695.189 30.5625C694.999 30.8201 694.904 31.1136 694.904 31.4432C694.904 31.7197 694.969 31.9583 695.098 32.1591C695.23 32.3598 695.403 32.5284 695.615 32.6648C695.831 32.7973 696.062 32.9091 696.308 33C696.554 33.0871 696.791 33.1591 697.018 33.2159L698.154 33.5114C698.526 33.6023 698.906 33.7254 699.296 33.8807C699.687 34.036 700.048 34.2405 700.382 34.4943C700.715 34.7481 700.984 35.0625 701.189 35.4375C701.397 35.8125 701.501 36.2614 701.501 36.7841C701.501 37.4432 701.331 38.0284 700.99 38.5398C700.653 39.0511 700.162 39.4545 699.518 39.75C698.878 40.0455 698.103 40.1932 697.194 40.1932C696.323 40.1932 695.569 40.0549 694.933 39.7784C694.296 39.5019 693.798 39.1098 693.439 38.6023C693.079 38.0909 692.88 37.4848 692.842 36.7841H694.603C694.637 37.2045 694.774 37.5549 695.012 37.8352C695.255 38.1117 695.564 38.3182 695.939 38.4545C696.317 38.5871 696.732 38.6534 697.183 38.6534C697.679 38.6534 698.12 38.5758 698.507 38.4205C698.897 38.2614 699.204 38.0417 699.427 37.7614C699.651 37.4773 699.762 37.1458 699.762 36.767C699.762 36.4223 699.664 36.1402 699.467 35.9205C699.274 35.7008 699.01 35.5189 698.677 35.375C698.348 35.2311 697.975 35.1042 697.558 34.9943L696.183 34.6193C695.251 34.3655 694.512 33.9924 693.967 33.5C693.425 33.0076 693.154 32.3561 693.154 31.5455C693.154 30.875 693.336 30.2898 693.7 29.7898C694.064 29.2898 694.556 28.9015 695.177 28.625C695.798 28.3447 696.499 28.2045 697.279 28.2045C698.067 28.2045 698.762 28.3428 699.365 28.6193C699.971 28.8958 700.448 29.2765 700.796 29.7614C701.145 30.2424 701.327 30.7955 701.342 31.4205H699.649ZM702.959 40V28.3636H710.254V29.875H704.715V33.4205H709.874V34.9261H704.715V38.4886H710.323V40H702.959ZM719.446 40.1591C718.666 40.1591 717.969 40.0246 717.355 39.7557C716.745 39.4867 716.262 39.1136 715.906 38.6364C715.554 38.1553 715.365 37.5985 715.338 36.9659H717.122C717.145 37.3106 717.26 37.6098 717.469 37.8636C717.681 38.1136 717.957 38.3068 718.298 38.4432C718.639 38.5795 719.018 38.6477 719.435 38.6477C719.893 38.6477 720.298 38.5682 720.651 38.4091C721.007 38.25 721.285 38.0284 721.486 37.7443C721.687 37.4564 721.787 37.125 721.787 36.75C721.787 36.3598 721.687 36.017 721.486 35.7216C721.289 35.4223 720.999 35.1875 720.617 35.017C720.238 34.8466 719.779 34.7614 719.242 34.7614H718.259V33.3295H719.242C719.673 33.3295 720.052 33.2519 720.378 33.0966C720.707 32.9413 720.965 32.7254 721.151 32.4489C721.336 32.1686 721.429 31.8409 721.429 31.4659C721.429 31.1061 721.348 30.7936 721.185 30.5284C721.026 30.2595 720.798 30.0492 720.503 29.8977C720.211 29.7462 719.867 29.6705 719.469 29.6705C719.09 29.6705 718.736 29.7405 718.406 29.8807C718.081 30.017 717.815 30.214 717.611 30.4716C717.406 30.7254 717.296 31.0303 717.281 31.3864H715.582C715.601 30.7576 715.787 30.2045 716.139 29.7273C716.495 29.25 716.965 28.8769 717.548 28.608C718.132 28.339 718.779 28.2045 719.492 28.2045C720.238 28.2045 720.882 28.3504 721.423 28.642C721.969 28.9299 722.389 29.3144 722.685 29.7955C722.984 30.2765 723.132 30.803 723.128 31.375C723.132 32.0265 722.95 32.5795 722.582 33.0341C722.219 33.4886 721.734 33.7936 721.128 33.9489V34.0398C721.901 34.1572 722.499 34.464 722.923 34.9602C723.351 35.4564 723.563 36.072 723.56 36.8068C723.563 37.447 723.385 38.0208 723.026 38.5284C722.67 39.036 722.183 39.4356 721.565 39.7273C720.948 40.0152 720.242 40.1591 719.446 40.1591Z" fill="white"/>
<path d="M602.097 54.08V58.1C602.097 63.08 604.047 68.09 608.487 70.28L606.087 73.4C603.207 71.93 601.257 69.26 600.117 65.96C598.917 69.47 596.847 72.38 593.727 73.91L591.357 70.7C596.007 68.51 598.107 63.23 598.107 58.1V54.08H602.097ZM617.577 62.57V65.87H613.557V79.58H609.597V51.95H613.557V62.57H617.577ZM637.254 51.92H641.214V79.64H637.254V51.92ZM626.364 53.87C630.534 53.87 633.624 57.65 633.624 63.71C633.624 69.8 630.534 73.61 626.364 73.61C622.194 73.61 619.104 69.8 619.104 63.71C619.104 57.65 622.194 53.87 626.364 53.87ZM626.364 57.44C624.324 57.44 622.914 59.63 622.914 63.71C622.914 67.82 624.324 70.01 626.364 70.01C628.404 70.01 629.814 67.82 629.814 63.71C629.814 59.63 628.404 57.44 626.364 57.44ZM667.072 66.2V69.32H647.662V53.96H666.862V57.14H651.682V60.05H666.232V63.11H651.682V66.2H667.072ZM644.722 73.19H669.742V76.4H644.722V73.19ZM679.969 56.09C678.019 56.09 676.639 57.08 676.639 58.76C676.639 60.47 678.019 61.43 679.969 61.43C681.919 61.43 683.239 60.47 683.239 58.76C683.239 57.08 681.919 56.09 679.969 56.09ZM679.969 64.43C675.889 64.43 672.949 62.12 672.949 58.76C672.949 55.43 675.889 53.09 679.969 53.09C684.019 53.09 686.959 55.43 686.959 58.76C686.959 62.12 684.019 64.43 679.969 64.43ZM688.789 65.15L689.029 68.03C686.599 68.48 684.169 68.72 681.769 68.9V78.77H677.809V69.11C675.559 69.2 673.399 69.2 671.479 69.2L671.029 65.99C676.159 65.99 682.909 65.96 688.789 65.15ZM690.559 51.95H694.519V79.55H690.559V73.52H685.009V70.52H690.559V51.95ZM719.867 64.7V67.85H700.427V54.23H719.657V57.44H704.387V64.7H719.867ZM697.517 73.04H722.537V76.28H697.517V73.04ZM731.638 61.46L748.228 60.92C748.318 59.66 748.318 58.49 748.318 57.41H732.478V54.26H752.218V56.69C752.218 60.02 752.248 63.89 750.958 69.95L747.058 69.47C747.538 67.43 747.838 65.6 747.988 63.95L732.148 64.79L731.638 61.46ZM742.468 73.19H754.648V76.4H729.658V73.19H738.508V66.59H742.468V73.19ZM780.206 64.94L778.526 68.27C773.726 67.31 770.186 64.64 768.416 61.13C766.646 64.64 763.136 67.34 758.336 68.27L756.656 64.94C762.866 63.89 766.316 59.51 766.316 55.55V53.57H770.546V55.55C770.546 59.6 773.966 63.89 780.206 64.94ZM756.056 73.01H781.076V76.22H756.056V73.01Z" fill="white"/>
<path d="M623.471 142.832V150.288H622.159V142.832H623.471ZM615.007 144.832V148.656C615.775 148.64 616.559 148.608 617.343 148.56V144.832H615.007ZM620.719 148.288L620.783 149.248C617.935 149.68 614.591 149.776 612.063 149.792L611.935 148.704C612.495 148.704 613.103 148.704 613.727 148.688V144.832H612.319V143.792H620.015V144.832H618.607V148.48C619.327 148.432 620.031 148.352 620.719 148.288ZM615.439 155.984H624.015V157.024H614.143V153.44H622.175V152H614.095V150.976H623.471V154.416H615.439V155.984ZM638.109 148.304L637.565 149.36C635.341 148.976 633.181 147.728 632.253 146C631.357 147.744 629.197 148.976 626.957 149.36L626.429 148.304C629.037 147.92 631.565 146.192 631.565 144.144V143.344H632.941V144.144C632.941 146.144 635.501 147.92 638.109 148.304ZM638.733 150.912L638.749 152H632.877V157.2H631.565V152H625.773V150.912H638.733ZM647.271 152.784C648.631 152.784 649.591 151.28 649.591 148.944C649.591 146.624 648.631 145.12 647.271 145.12C645.895 145.12 644.935 146.624 644.935 148.944C644.935 151.28 645.895 152.784 647.271 152.784ZM653.943 142.832H655.255V157.216H653.943V149.376H650.823C650.695 152.192 649.271 153.952 647.271 153.952C645.175 153.952 643.687 152 643.687 148.944C643.687 145.888 645.175 143.936 647.271 143.936C649.207 143.936 650.615 145.616 650.823 148.304H653.943V142.832ZM666.485 144.384V145.408H658.037V144.384H661.589V142.72H662.901V144.384H666.485ZM664.373 148.432C664.373 147.584 663.525 147.04 662.245 147.04C660.981 147.04 660.117 147.584 660.117 148.432C660.117 149.264 660.981 149.808 662.245 149.808C663.525 149.808 664.373 149.264 664.373 148.432ZM658.885 148.432C658.885 146.976 660.261 146.064 662.245 146.064C664.245 146.064 665.621 146.976 665.621 148.432C665.621 149.872 664.245 150.784 662.245 150.784C660.261 150.784 658.885 149.872 658.885 148.432ZM666.981 151.36L667.061 152.336C665.701 152.528 664.277 152.656 662.901 152.736V156.848H661.573V152.8C660.197 152.848 658.869 152.848 657.669 152.848L657.509 151.76C660.293 151.76 663.845 151.744 666.981 151.36ZM667.973 142.848H669.285V157.2H667.973V142.848ZM673.348 147.136C673.348 148.496 674.404 149.392 675.876 149.392C677.332 149.392 678.388 148.496 678.388 147.136C678.388 145.792 677.332 144.864 675.876 144.864C674.404 144.864 673.348 145.792 673.348 147.136ZM676.532 150.464V152.896C677.844 152.832 679.172 152.752 680.404 152.576L680.516 153.536C677.476 154.048 674.132 154.096 671.604 154.096L671.428 152.992C672.564 152.992 673.876 152.976 675.22 152.944V150.464C673.348 150.24 672.068 148.928 672.068 147.136C672.068 145.12 673.652 143.76 675.876 143.76C678.068 143.76 679.668 145.12 679.668 147.136C679.668 148.928 678.372 150.224 676.532 150.464ZM684.9 148.752V149.856H682.628V157.184H681.316V142.816H682.628V148.752H684.9ZM699.277 147.488V144.56H692.205V147.488H699.277ZM700.573 143.504V148.544H690.925V143.504H700.573ZM692.205 152.768V155.792H700.813V156.864H690.893V152.768H692.205ZM689.229 150.176H702.269V151.232H696.509V154.128H695.197V151.232H689.229V150.176ZM711.66 149.776L711.036 150.8C709.404 150.272 708.172 149.136 707.564 147.712C706.956 149.344 705.66 150.624 703.948 151.232L703.276 150.192C705.436 149.44 706.876 147.584 706.876 145.52V144.96H703.66V143.904H711.356V144.96H708.188V145.52C708.188 147.392 709.548 149.072 711.66 149.776ZM709.916 156.128C712.028 156.128 713.324 155.536 713.324 154.512C713.324 153.504 712.028 152.912 709.916 152.912C707.772 152.912 706.492 153.504 706.492 154.512C706.492 155.536 707.772 156.128 709.916 156.128ZM709.916 151.872C712.828 151.872 714.636 152.848 714.636 154.512C714.636 156.192 712.828 157.168 709.916 157.168C706.972 157.168 705.18 156.192 705.18 154.512C705.18 152.848 706.972 151.872 709.916 151.872ZM714.476 146.464H716.604V147.568H714.476V151.504H713.164V142.848H714.476V146.464ZM719.923 154.409L719.838 155.028C719.781 155.483 719.684 155.956 719.548 156.449C719.415 156.945 719.277 157.405 719.133 157.83C718.993 158.254 718.877 158.591 718.787 158.841H717.582C717.631 158.606 717.699 158.288 717.787 157.886C717.874 157.489 717.959 157.044 718.042 156.551C718.126 156.059 718.188 155.557 718.23 155.045L718.287 154.409H719.923ZM727.355 145.696V152.512C727.931 152.496 728.555 152.48 729.147 152.432V145.696H727.355ZM730.347 145.696V152.352C730.875 152.32 731.387 152.272 731.851 152.208L731.931 153.152C729.659 153.584 726.683 153.648 724.795 153.648L724.651 152.56C725.099 152.56 725.595 152.56 726.155 152.544V145.696H724.923V144.64H731.563V145.696H730.347ZM735.739 142.848H736.987V157.184H735.739V149.68H733.867V156.464H732.635V143.152H733.867V148.608H735.739V142.848ZM749.37 153.488V147.936H746.618V146.864H749.37V142.848H750.698V153.488H749.37ZM746.778 149.776L746.89 150.832C745.002 151.168 743.434 151.232 740.666 151.232H739.594V143.952H746.026V145.024H740.906V146.992H745.642V148.048H740.906V150.16C743.498 150.16 744.986 150.08 746.778 149.776ZM742.81 155.792H751.066V156.864H741.498V152.592H742.81V155.792ZM765.059 144.352V145.408H756.595V144.352H760.163V142.752H761.475V144.352H765.059ZM758.643 148.736C758.643 149.696 759.507 150.32 760.819 150.32C762.131 150.32 763.011 149.696 763.011 148.736C763.011 147.792 762.131 147.168 760.819 147.168C759.507 147.168 758.643 147.792 758.643 148.736ZM764.259 148.736C764.259 150.32 762.867 151.328 760.819 151.328C758.787 151.328 757.395 150.32 757.395 148.736C757.395 147.168 758.787 146.144 760.819 146.144C762.867 146.144 764.259 147.168 764.259 148.736ZM758.371 153.664V152.592H767.683V157.2H766.371V153.664H758.371ZM769.811 146.8V147.888H767.683V151.808H766.371V142.848H767.683V146.8H769.811ZM782.865 147.312L782.385 148.368C780.161 148.016 778.033 146.896 777.121 145.296C776.225 146.896 774.081 148.016 771.841 148.368L771.361 147.312C773.937 146.992 776.449 145.456 776.449 143.632V142.992H777.793V143.632C777.793 145.408 780.321 146.992 782.865 147.312ZM780.609 155.936V154.112H773.553V155.936H780.609ZM780.609 153.104V151.424H781.905V156.992H772.257V151.424H773.553V153.104H780.609ZM770.609 149.376H783.601V150.432H770.609V149.376ZM791.184 144.064C788.832 144.064 787.488 144.608 787.488 145.568C787.488 146.528 788.832 147.072 791.184 147.072C793.536 147.072 794.88 146.528 794.88 145.568C794.88 144.608 793.536 144.064 791.184 144.064ZM791.184 148.048C788.032 148.048 786.144 147.184 786.144 145.568C786.144 143.952 788.032 143.072 791.184 143.072C794.336 143.072 796.224 143.952 796.224 145.568C796.224 147.184 794.336 148.048 791.184 148.048ZM787.584 154.544V156H796.448V157.024H786.304V153.584H794.72V152.304H786.256V151.312H796.016V154.544H787.584ZM784.688 149.024H797.68V150.08H784.688V149.024ZM616.702 182H614.838L619.026 170.364H621.054L625.241 182H623.378L620.088 172.477H619.997L616.702 182ZM617.014 177.443H623.06V178.92H617.014V177.443ZM628.038 170.364V182H626.282V170.364H628.038ZM630.372 170.384H637.092C637.092 174.528 635.188 178.176 630.42 180.512L629.716 179.44C633.572 177.6 635.492 174.848 635.764 171.44H630.372V170.384ZM639.988 168.832H641.3V183.184H639.988V168.832ZM649.555 175.92V173.296H645.491V175.92H649.555ZM650.835 169.872V176.976H644.195V169.872H645.491V172.272H649.555V169.872H650.835ZM647.123 178.368V181.792H655.379V182.864H645.811V178.368H647.123ZM654.739 173.184H656.851V174.288H654.739V179.376H653.427V168.848H654.739V173.184ZM662.796 179.472V178.4H672.652V183.184H671.34V179.472H662.796ZM668.428 175.888H674.268V176.944H661.276V175.888H667.116V173.936H663.02V169.152H664.332V172.864H672.796V173.936H668.428V175.888ZM681.835 169.152C684.939 169.152 686.875 170.16 686.875 171.872C686.875 173.568 684.939 174.576 681.835 174.576C678.731 174.576 676.795 173.568 676.795 171.872C676.795 170.16 678.731 169.152 681.835 169.152ZM681.835 170.192C679.563 170.192 678.139 170.816 678.139 171.872C678.139 172.928 679.563 173.552 681.835 173.552C684.107 173.552 685.531 172.928 685.531 171.872C685.531 170.816 684.107 170.192 681.835 170.192ZM676.955 178.272H686.747V182.992H676.955V178.272ZM685.467 179.312H678.235V181.936H685.467V179.312ZM675.355 175.808H688.331V176.864H675.355V175.808ZM704.5 173.232V174.288H694.66V169.408H704.404V170.464H695.972V173.232H704.5ZM699.508 182.144C701.748 182.144 703.092 181.584 703.092 180.576C703.092 179.568 701.764 179.008 699.508 179.008C697.252 179.008 695.924 179.568 695.924 180.576C695.924 181.584 697.252 182.144 699.508 182.144ZM699.508 177.984C702.564 177.984 704.42 178.912 704.42 180.576C704.42 182.24 702.564 183.168 699.508 183.168C696.452 183.168 694.596 182.24 694.596 180.576C694.596 178.912 696.452 177.984 699.508 177.984ZM693.028 175.664H706.02V176.752H693.028V175.664ZM711.762 169.888C714.002 169.888 715.602 171.248 715.602 173.264C715.602 175.264 714.002 176.64 711.762 176.64C709.538 176.64 707.922 175.264 707.922 173.264C707.922 171.248 709.538 169.888 711.762 169.888ZM711.762 171.008C710.29 171.008 709.202 171.92 709.202 173.264C709.202 174.592 710.29 175.52 711.762 175.52C713.25 175.52 714.322 174.592 714.322 173.264C714.322 171.92 713.25 171.008 711.762 171.008ZM717.49 168.832H718.802V183.216H717.49V168.832ZM707.362 180.064L707.202 178.96C709.81 178.96 713.41 178.944 716.546 178.464L716.658 179.44C713.426 180.032 709.954 180.064 707.362 180.064ZM726.7 171.296V178.512C729.244 178.512 731.084 178.4 733.164 178.032L733.308 179.12C731.116 179.536 729.228 179.632 726.524 179.632H725.388V170.208H732.06V171.296H726.7ZM738.188 174.496V175.584H735.82V183.216H734.508V168.832H735.82V174.496H738.188ZM740.41 173.056C740.41 174.4 741.434 175.344 742.874 175.344C744.298 175.344 745.338 174.4 745.338 173.056C745.338 171.712 744.298 170.784 742.874 170.784C741.434 170.784 740.41 171.712 740.41 173.056ZM746.618 173.056C746.618 175.056 745.034 176.448 742.874 176.448C740.698 176.448 739.13 175.056 739.13 173.056C739.13 171.072 740.698 169.696 742.874 169.696C745.034 169.696 746.618 171.072 746.618 173.056ZM745.434 182.128C747.546 182.128 748.842 181.504 748.842 180.48C748.842 179.44 747.546 178.832 745.434 178.832C743.306 178.832 742.01 179.44 742.01 180.48C742.01 181.504 743.306 182.128 745.434 182.128ZM745.434 177.792C748.33 177.792 750.154 178.768 750.154 180.48C750.154 182.176 748.33 183.168 745.434 183.168C742.522 183.168 740.698 182.176 740.698 180.48C740.698 178.768 742.522 177.792 745.434 177.792ZM752.09 172.048H750.01V174.032H752.09V175.12H750.01V177.344H748.698V168.848H750.01V170.976H752.09V172.048ZM761.449 170.592V171.648H752.985V170.592H756.553V168.832H757.865V170.592H761.449ZM755.033 175.104C755.033 176.112 755.913 176.752 757.209 176.752C758.505 176.752 759.401 176.112 759.401 175.104C759.401 174.112 758.505 173.472 757.209 173.472C755.913 173.472 755.033 174.112 755.033 175.104ZM760.649 175.104C760.649 176.72 759.241 177.776 757.209 177.776C755.177 177.776 753.785 176.72 753.785 175.104C753.785 173.504 755.177 172.448 757.209 172.448C759.241 172.448 760.649 173.504 760.649 175.104ZM756.457 178.752V181.792H764.713V182.864H755.145V178.752H756.457ZM764.073 173.568H766.185V174.672H764.073V179.6H762.761V168.832H764.073V173.568ZM779.122 170.352V171.408H770.658V170.352H774.226V168.752H775.538V170.352H779.122ZM772.706 174.736C772.706 175.696 773.57 176.32 774.882 176.32C776.194 176.32 777.074 175.696 777.074 174.736C777.074 173.792 776.194 173.168 774.882 173.168C773.57 173.168 772.706 173.792 772.706 174.736ZM778.322 174.736C778.322 176.32 776.93 177.328 774.882 177.328C772.85 177.328 771.458 176.32 771.458 174.736C771.458 173.168 772.85 172.144 774.882 172.144C776.93 172.144 778.322 173.168 778.322 174.736ZM772.434 179.664V178.592H781.746V183.2H780.434V179.664H772.434ZM783.874 172.8V173.888H781.746V177.808H780.434V168.848H781.746V172.8H783.874ZM796.929 173.312L796.449 174.368C794.225 174.016 792.097 172.896 791.185 171.296C790.289 172.896 788.145 174.016 785.905 174.368L785.425 173.312C788.001 172.992 790.513 171.456 790.513 169.632V168.992H791.857V169.632C791.857 171.408 794.385 172.992 796.929 173.312ZM794.673 181.936V180.112H787.617V181.936H794.673ZM794.673 179.104V177.424H795.969V182.992H786.321V177.424H787.617V179.104H794.673ZM784.673 175.376H797.665V176.432H784.673V175.376ZM632.091 196.384H638.811C638.811 200.528 636.907 204.176 632.139 206.512L631.435 205.44C635.291 203.6 637.211 200.848 637.483 197.44H632.091V196.384ZM641.707 194.832H643.019V209.184H641.707V194.832ZM656.825 198.832V199.888H647.081V195.136H648.393V198.832H656.825ZM651.801 208.112C654.041 208.112 655.385 207.52 655.385 206.528C655.385 205.504 654.057 204.928 651.801 204.928C649.545 204.928 648.217 205.504 648.217 206.528C648.217 207.52 649.545 208.112 651.801 208.112ZM651.801 203.904C654.857 203.904 656.713 204.848 656.713 206.528C656.713 208.192 654.857 209.136 651.801 209.136C648.745 209.136 646.889 208.192 646.889 206.528C646.889 204.848 648.745 203.904 651.801 203.904ZM645.337 201.552H658.313V202.624H645.337V201.552ZM665.88 195.728C668.856 195.728 671.096 197.312 671.096 199.696C671.096 202.096 668.856 203.664 665.88 203.664C662.904 203.664 660.664 202.096 660.664 199.696C660.664 197.312 662.904 195.728 665.88 195.728ZM665.88 196.8C663.624 196.8 661.912 197.968 661.912 199.696C661.912 201.44 663.624 202.592 665.88 202.592C668.152 202.592 669.848 201.44 669.848 199.696C669.848 197.968 668.152 196.8 665.88 196.8ZM659.384 206.192H672.424V207.28H659.384V206.192ZM680.631 206.336H686.503V207.408H673.463V206.336H679.303V203.632H675.095V199.2H683.607V196.96H675.063V195.888H684.887V200.256H676.391V202.576H685.223V203.632H680.631V206.336ZM692 196.384H698.72C698.72 200.528 696.816 204.176 692.048 206.512L691.344 205.44C695.2 203.6 697.12 200.848 697.392 197.44H692V196.384ZM701.616 194.832H702.928V209.184H701.616V194.832ZM706.463 203.536L705.951 202.496C708.735 202.048 711.071 200.368 711.071 198.16H706.447V197.104H711.071V195.152H712.399V197.104H717.007V198.16H712.399C712.399 200.368 714.735 202.048 717.519 202.496L717.007 203.536C714.703 203.12 712.639 201.968 711.743 200.208C710.831 201.968 708.767 203.12 706.463 203.536ZM712.399 206.288H718.255V207.376H705.231V206.288H711.071V203.024H712.399V206.288ZM725.048 201.28V204.64C727.4 204.64 729.512 204.528 732.024 204.128L732.152 205.2C729.56 205.632 727.384 205.728 724.92 205.728H723.736V200.224H729.016V197.232H723.688V196.16H730.344V201.28H725.048ZM733.368 194.816H734.68V209.2H733.368V194.816ZM748.759 194.832V203.664H747.447V194.832H748.759ZM746.007 200.672L746.135 201.744C744.023 202.16 742.183 202.256 739.031 202.256H737.847V195.968H744.599V197.024H739.159V201.184C742.183 201.184 743.959 201.088 746.007 200.672ZM743.991 208.144C746.167 208.144 747.495 207.504 747.495 206.432C747.495 205.36 746.167 204.72 743.991 204.72C741.815 204.72 740.471 205.36 740.471 206.432C740.471 207.504 741.815 208.144 743.991 208.144ZM743.991 203.68C746.951 203.68 748.807 204.688 748.807 206.432C748.807 208.176 746.951 209.184 743.991 209.184C741.031 209.184 739.175 208.176 739.175 206.432C739.175 204.688 741.031 203.68 743.991 203.68ZM756.688 198.32C756.688 199.424 757.632 200.144 759.008 200.144C760.352 200.144 761.312 199.424 761.312 198.32C761.312 197.232 760.352 196.496 759.008 196.496C757.632 196.496 756.688 197.232 756.688 198.32ZM763.584 202.144L763.664 203.104C760.672 203.648 757.264 203.696 754.816 203.696L754.64 202.624C755.744 202.624 757.024 202.608 758.368 202.56V201.12C756.624 200.912 755.472 199.856 755.472 198.32C755.472 196.64 756.912 195.504 759.008 195.504C761.088 195.504 762.544 196.64 762.544 198.32C762.544 199.84 761.392 200.896 759.68 201.104V202.512C761.008 202.432 762.336 202.336 763.584 202.144ZM758.016 204.896V207.776H766.288V208.848H756.704V204.896H758.016ZM765.776 199.696H767.872V200.784H765.776V205.824H764.464V194.848H765.776V199.696ZM779.231 203.328V198.96H776.111V197.888H779.231V194.848H780.559V203.328H779.231ZM777.151 201.632L776.447 202.656C774.879 202.064 773.663 200.928 773.039 199.44C772.431 201.136 771.135 202.432 769.407 203.088L768.719 202.016C770.927 201.232 772.351 199.312 772.351 197.12V195.648H773.663V197.072C773.663 199.12 775.055 200.896 777.151 201.632ZM775.823 208.128C777.983 208.128 779.295 207.504 779.295 206.464C779.295 205.408 777.983 204.784 775.823 204.784C773.663 204.784 772.351 205.408 772.351 206.464C772.351 207.504 773.663 208.128 775.823 208.128ZM775.823 203.76C778.767 203.76 780.607 204.736 780.607 206.464C780.607 208.176 778.767 209.168 775.823 209.168C772.879 209.168 771.039 208.176 771.039 206.464C771.039 204.736 772.879 203.76 775.823 203.76Z" fill="black"/>
<path d="M276.5 0H275.5V1V243V244H276.5H527.742H528.359L528.635 243.449L588.394 124.422L588.615 123.98L588.399 123.536L528.641 0.562927L528.368 0H527.742H276.5Z" fill="white" stroke="#F7F0F9" stroke-width="2"/>
<mask id="mask1_337_5821" style="mask-type:alpha" maskUnits="userSpaceOnUse" x="276" y="1" width="312" height="242">
<path d="M276.5 1H527.742L587.5 123.973L527.742 243H276.5V1Z" fill="white"/>
</mask>
<g mask="url(#mask1_337_5821)">
<rect x="276.5" y="1" width="311" height="106" fill="#882CB3"/>
</g>
<path d="M389.105 32.1477H387.332C387.264 31.7689 387.137 31.4356 386.952 31.1477C386.766 30.8598 386.539 30.6155 386.27 30.4148C386.001 30.214 385.7 30.0625 385.366 29.9602C385.037 29.858 384.686 29.8068 384.315 29.8068C383.645 29.8068 383.044 29.9754 382.514 30.3125C381.988 30.6496 381.571 31.1439 381.264 31.7955C380.961 32.447 380.81 33.2424 380.81 34.1818C380.81 35.1288 380.961 35.928 381.264 36.5795C381.571 37.2311 381.99 37.7235 382.52 38.0568C383.05 38.3902 383.647 38.5568 384.31 38.5568C384.677 38.5568 385.026 38.5076 385.355 38.4091C385.688 38.3068 385.99 38.1572 386.258 37.9602C386.527 37.7633 386.755 37.5227 386.94 37.2386C387.13 36.9508 387.26 36.6212 387.332 36.25L389.105 36.2557C389.01 36.8277 388.827 37.3542 388.554 37.8352C388.285 38.3125 387.938 38.7254 387.514 39.0739C387.094 39.4186 386.613 39.6856 386.071 39.875C385.529 40.0644 384.938 40.1591 384.298 40.1591C383.291 40.1591 382.393 39.9205 381.605 39.4432C380.817 38.9621 380.196 38.2746 379.741 37.3807C379.291 36.4867 379.065 35.4205 379.065 34.1818C379.065 32.9394 379.293 31.8731 379.747 30.983C380.202 30.089 380.823 29.4034 381.611 28.9261C382.399 28.4451 383.294 28.2045 384.298 28.2045C384.916 28.2045 385.491 28.2936 386.026 28.4716C386.563 28.6458 387.046 28.9034 387.474 29.2443C387.902 29.5814 388.257 29.9943 388.537 30.483C388.817 30.9678 389.007 31.5227 389.105 32.1477ZM400.674 34.1818C400.674 35.4242 400.447 36.4924 399.992 37.3864C399.538 38.2765 398.914 38.9621 398.123 39.4432C397.335 39.9205 396.439 40.1591 395.435 40.1591C394.428 40.1591 393.528 39.9205 392.736 39.4432C391.948 38.9621 391.327 38.2746 390.873 37.3807C390.418 36.4867 390.191 35.4205 390.191 34.1818C390.191 32.9394 390.418 31.8731 390.873 30.983C391.327 30.089 391.948 29.4034 392.736 28.9261C393.528 28.4451 394.428 28.2045 395.435 28.2045C396.439 28.2045 397.335 28.4451 398.123 28.9261C398.914 29.4034 399.538 30.089 399.992 30.983C400.447 31.8731 400.674 32.9394 400.674 34.1818ZM398.935 34.1818C398.935 33.2348 398.782 32.4375 398.475 31.7898C398.172 31.1383 397.755 30.6458 397.225 30.3125C396.698 29.9754 396.102 29.8068 395.435 29.8068C394.765 29.8068 394.166 29.9754 393.64 30.3125C393.113 30.6458 392.697 31.1383 392.39 31.7898C392.087 32.4375 391.935 33.2348 391.935 34.1818C391.935 35.1288 392.087 35.928 392.39 36.5795C392.697 37.2273 393.113 37.7197 393.64 38.0568C394.166 38.3902 394.765 38.5568 395.435 38.5568C396.102 38.5568 396.698 38.3902 397.225 38.0568C397.755 37.7197 398.172 37.2273 398.475 36.5795C398.782 35.928 398.935 35.1288 398.935 34.1818ZM409.706 28.3636H411.467V36.017C411.467 36.8314 411.276 37.553 410.893 38.1818C410.511 38.8068 409.973 39.2992 409.28 39.6591C408.586 40.0152 407.774 40.1932 406.842 40.1932C405.914 40.1932 405.103 40.0152 404.41 39.6591C403.717 39.2992 403.179 38.8068 402.797 38.1818C402.414 37.553 402.223 36.8314 402.223 36.017V28.3636H403.978V35.875C403.978 36.4015 404.094 36.8693 404.325 37.2784C404.56 37.6875 404.891 38.0095 405.319 38.2443C405.747 38.4754 406.255 38.5909 406.842 38.5909C407.433 38.5909 407.942 38.4754 408.371 38.2443C408.802 38.0095 409.132 37.6875 409.359 37.2784C409.59 36.8693 409.706 36.4015 409.706 35.875V28.3636ZM413.38 40V28.3636H417.527C418.429 28.3636 419.177 28.5189 419.772 28.8295C420.37 29.1402 420.817 29.5701 421.113 30.1193C421.408 30.6648 421.556 31.2955 421.556 32.0114C421.556 32.7235 421.406 33.3504 421.107 33.892C420.811 34.4299 420.365 34.8485 419.766 35.1477C419.171 35.447 418.423 35.5966 417.522 35.5966H414.38V34.0852H417.363C417.931 34.0852 418.393 34.0038 418.749 33.8409C419.109 33.678 419.372 33.4413 419.539 33.1307C419.705 32.8201 419.789 32.447 419.789 32.0114C419.789 31.572 419.704 31.1913 419.533 30.8693C419.366 30.5473 419.103 30.3011 418.743 30.1307C418.387 29.9564 417.919 29.8693 417.34 29.8693H415.135V40H413.38ZM419.124 34.75L421.999 40H419.999L417.181 34.75H419.124ZM429.399 31.4205C429.338 30.8826 429.088 30.4659 428.649 30.1705C428.209 29.8712 427.656 29.7216 426.99 29.7216C426.512 29.7216 426.1 29.7973 425.751 29.9489C425.403 30.0966 425.132 30.3011 424.939 30.5625C424.749 30.8201 424.654 31.1136 424.654 31.4432C424.654 31.7197 424.719 31.9583 424.848 32.1591C424.98 32.3598 425.153 32.5284 425.365 32.6648C425.581 32.7973 425.812 32.9091 426.058 33C426.304 33.0871 426.541 33.1591 426.768 33.2159L427.904 33.5114C428.276 33.6023 428.656 33.7254 429.046 33.8807C429.437 34.036 429.798 34.2405 430.132 34.4943C430.465 34.7481 430.734 35.0625 430.939 35.4375C431.147 35.8125 431.251 36.2614 431.251 36.7841C431.251 37.4432 431.081 38.0284 430.74 38.5398C430.403 39.0511 429.912 39.4545 429.268 39.75C428.628 40.0455 427.853 40.1932 426.944 40.1932C426.073 40.1932 425.319 40.0549 424.683 39.7784C424.046 39.5019 423.548 39.1098 423.189 38.6023C422.829 38.0909 422.63 37.4848 422.592 36.7841H424.353C424.387 37.2045 424.524 37.5549 424.762 37.8352C425.005 38.1117 425.314 38.3182 425.689 38.4545C426.067 38.5871 426.482 38.6534 426.933 38.6534C427.429 38.6534 427.87 38.5758 428.257 38.4205C428.647 38.2614 428.954 38.0417 429.177 37.7614C429.401 37.4773 429.512 37.1458 429.512 36.767C429.512 36.4223 429.414 36.1402 429.217 35.9205C429.024 35.7008 428.76 35.5189 428.427 35.375C428.098 35.2311 427.725 35.1042 427.308 34.9943L425.933 34.6193C425.001 34.3655 424.262 33.9924 423.717 33.5C423.175 33.0076 422.904 32.3561 422.904 31.5455C422.904 30.875 423.086 30.2898 423.45 29.7898C423.814 29.2898 424.306 28.9015 424.927 28.625C425.548 28.3447 426.249 28.2045 427.029 28.2045C427.817 28.2045 428.512 28.3428 429.115 28.6193C429.721 28.8958 430.198 29.2765 430.546 29.7614C430.895 30.2424 431.077 30.7955 431.092 31.4205H429.399ZM432.709 40V28.3636H440.004V29.875H434.465V33.4205H439.624V34.9261H434.465V38.4886H440.073V40H432.709ZM445.145 40V38.7273L449.082 34.6477C449.503 34.2045 449.849 33.8163 450.122 33.483C450.399 33.1458 450.605 32.8258 450.742 32.5227C450.878 32.2197 450.946 31.8977 450.946 31.5568C450.946 31.1705 450.855 30.8371 450.673 30.5568C450.492 30.2727 450.243 30.0549 449.929 29.9034C449.615 29.7481 449.26 29.6705 448.867 29.6705C448.45 29.6705 448.086 29.7557 447.776 29.9261C447.465 30.0966 447.226 30.3371 447.06 30.6477C446.893 30.9583 446.81 31.322 446.81 31.7386H445.134C445.134 31.0303 445.296 30.411 445.622 29.8807C445.948 29.3504 446.395 28.9394 446.963 28.6477C447.531 28.3523 448.177 28.2045 448.901 28.2045C449.632 28.2045 450.276 28.3504 450.832 28.642C451.393 28.9299 451.831 29.3239 452.145 29.8239C452.459 30.3201 452.617 30.8807 452.617 31.5057C452.617 31.9375 452.535 32.3598 452.372 32.7727C452.213 33.1856 451.935 33.6458 451.537 34.1534C451.139 34.6572 450.586 35.2689 449.878 35.9886L447.565 38.4091V38.4943H452.804V40H445.145Z" fill="white"/>
<path d="M354.394 57.68V69.95C355.324 69.92 356.284 69.89 357.244 69.86V57.68H354.394ZM361.054 57.68V69.59C362.134 69.5 363.214 69.44 364.234 69.29L364.474 72.17C358.864 73.16 352.594 73.28 347.884 73.28L347.464 70.04C348.424 70.04 349.474 70.04 350.554 70.04V57.68H348.184V54.5H363.424V57.68H361.054ZM373.474 62.39V65.66H369.454V79.61H365.494V51.98H369.454V62.39H373.474ZM390.932 61.88L391.412 65.09C386.762 65.99 382.262 66.29 378.182 66.29H375.782V53.42H379.712V63.02C383.222 62.93 387.002 62.63 390.932 61.88ZM378.332 72.02V68.84H397.172V79.64H393.182V72.02H378.332ZM393.182 52.01H397.172V67.7H393.182V52.01ZM424.769 64.94L423.089 68.27C418.289 67.31 414.749 64.64 412.979 61.13C411.209 64.64 407.699 67.34 402.899 68.27L401.219 64.94C407.429 63.89 410.879 59.51 410.879 55.55V53.57H415.109V55.55C415.109 59.6 418.529 63.89 424.769 64.94ZM400.619 73.01H425.639V76.22H400.619V73.01ZM434.741 61.46L451.331 60.92C451.421 59.66 451.421 58.49 451.421 57.41H435.581V54.26H455.321V56.69C455.321 60.02 455.351 63.89 454.061 69.95L450.161 69.47C450.641 67.43 450.941 65.6 451.091 63.95L435.251 64.79L434.741 61.46ZM445.571 73.19H457.751V76.4H432.761V73.19H441.611V66.59H445.571V73.19ZM483.308 64.94L481.628 68.27C476.828 67.31 473.288 64.64 471.518 61.13C469.748 64.64 466.238 67.34 461.438 68.27L459.758 64.94C465.968 63.89 469.418 59.51 469.418 55.55V53.57H473.648V55.55C473.648 59.6 477.068 63.89 483.308 64.94ZM459.158 73.01H484.178V76.22H459.158V73.01Z" fill="white"/>
<path d="M359.969 145.44V152.496C360.737 152.48 361.537 152.448 362.321 152.416V145.44H359.969ZM363.601 145.44V152.336C364.353 152.288 365.089 152.224 365.793 152.128L365.889 153.104C362.881 153.584 359.473 153.632 356.945 153.632L356.785 152.528C357.377 152.528 358.017 152.528 358.689 152.512V145.44H357.153V144.384H365.137V145.44H363.601ZM370.369 148.576V149.664H368.001V157.184H366.689V142.848H368.001V148.576H370.369ZM379.936 148.256L380.128 149.328C377.6 149.808 375.36 149.984 373.088 149.984H371.92V143.648H373.232V148.896C375.376 148.896 377.568 148.72 379.936 148.256ZM373.216 152.944V151.872H382.816V157.216H381.504V152.944H373.216ZM381.504 142.848H382.816V151.136H381.504V142.848ZM397.486 150.048L396.894 151.136C394.718 150.64 392.478 149.104 391.566 146.992C390.654 149.088 388.414 150.624 386.254 151.136L385.662 150.048C388.174 149.552 390.878 147.392 390.878 144.944V143.84H392.254V144.944C392.254 147.392 394.974 149.568 397.486 150.048ZM385.118 154.176H398.126V155.264H385.118V154.176ZM409.271 143.152C412.375 143.152 414.311 144.16 414.311 145.872C414.311 147.568 412.375 148.576 409.271 148.576C406.167 148.576 404.231 147.568 404.231 145.872C404.231 144.16 406.167 143.152 409.271 143.152ZM409.271 144.192C406.999 144.192 405.575 144.816 405.575 145.872C405.575 146.928 406.999 147.552 409.271 147.552C411.543 147.552 412.967 146.928 412.967 145.872C412.967 144.816 411.543 144.192 409.271 144.192ZM404.391 152.272H414.183V156.992H404.391V152.272ZM412.903 153.312H405.671V155.936H412.903V153.312ZM402.791 149.808H415.767V150.864H402.791V149.808ZM417.638 144.368H424.198C424.198 148.448 422.326 152.144 417.686 154.464L416.966 153.44C420.63 151.6 422.598 148.848 422.902 145.456H417.638V144.368ZM430.214 148.656V149.744H427.91V157.184H426.598V142.832H427.91V148.656H430.214ZM433.453 154.409L433.368 155.028C433.311 155.483 433.215 155.956 433.078 156.449C432.946 156.945 432.807 157.405 432.663 157.83C432.523 158.254 432.408 158.591 432.317 158.841H431.112C431.162 158.606 431.23 158.288 431.317 157.886C431.404 157.489 431.489 157.044 431.573 156.551C431.656 156.059 431.718 155.557 431.76 155.045L431.817 154.409H433.453ZM451.301 150.016V151.088H447.877V157.168H446.581V151.088H442.981V157.168H441.669V151.088H438.341V150.016H447.781C448.229 147.744 448.229 146.112 448.229 144.832H439.973V143.744H449.525V144.816C449.525 146.112 449.525 147.744 449.093 150.016H451.301ZM461.252 150.128L460.644 151.152C458.964 150.608 457.652 149.504 456.98 148.08C456.356 149.632 455.028 150.848 453.332 151.408L452.692 150.384C454.836 149.696 456.308 147.936 456.308 145.968V145.632H453.044V144.576H456.308V142.752H457.62V144.576H460.852V145.632H457.604V145.968C457.604 147.824 459.124 149.472 461.252 150.128ZM454.58 153.456V152.4H464.18V157.184H462.868V153.456H454.58ZM462.868 142.832H464.18V151.68H462.868V142.832ZM468.987 154.409L468.902 155.028C468.845 155.483 468.748 155.956 468.612 156.449C468.479 156.945 468.341 157.405 468.197 157.83C468.057 158.254 467.942 158.591 467.851 158.841H466.646C466.695 158.606 466.763 158.288 466.851 157.886C466.938 157.489 467.023 157.044 467.106 156.551C467.19 156.059 467.252 155.557 467.294 155.045L467.351 154.409H468.987ZM476.419 145.696V152.512C476.995 152.496 477.619 152.48 478.211 152.432V145.696H476.419ZM479.411 145.696V152.352C479.939 152.32 480.451 152.272 480.915 152.208L480.995 153.152C478.723 153.584 475.747 153.648 473.859 153.648L473.715 152.56C474.163 152.56 474.659 152.56 475.219 152.544V145.696H473.987V144.64H480.627V145.696H479.411ZM484.803 142.848H486.051V157.184H484.803V149.68H482.931V156.464H481.699V143.152H482.931V148.608H484.803V142.848ZM498.434 153.488V147.936H495.682V146.864H498.434V142.848H499.762V153.488H498.434ZM495.842 149.776L495.954 150.832C494.066 151.168 492.498 151.232 489.73 151.232H488.658V143.952H495.09V145.024H489.97V146.992H494.706V148.048H489.97V150.16C492.562 150.16 494.05 150.08 495.842 149.776ZM491.874 155.792H500.13V156.864H490.562V152.592H491.874V155.792ZM508.496 144.064C506.144 144.064 504.8 144.608 504.8 145.568C504.8 146.528 506.144 147.072 508.496 147.072C510.848 147.072 512.192 146.528 512.192 145.568C512.192 144.608 510.848 144.064 508.496 144.064ZM508.496 148.048C505.344 148.048 503.456 147.184 503.456 145.568C503.456 143.952 505.344 143.072 508.496 143.072C511.648 143.072 513.536 143.952 513.536 145.568C513.536 147.184 511.648 148.048 508.496 148.048ZM504.896 154.544V156H513.76V157.024H503.616V153.584H512.032V152.304H503.568V151.312H513.328V154.544H504.896ZM502 149.024H514.992V150.08H502V149.024ZM338.502 170.368H345.062C345.062 174.448 343.19 178.144 338.55 180.464L337.83 179.44C341.494 177.6 343.462 174.848 343.766 171.456H338.502V170.368ZM351.078 174.656V175.744H348.774V183.184H347.462V168.832H348.774V174.656H351.078ZM362.244 168.832H363.556V183.216H362.244V168.832ZM355.988 169.936C358.116 169.936 359.636 171.888 359.636 174.944C359.636 178 358.116 179.952 355.988 179.952C353.86 179.952 352.34 178 352.34 174.944C352.34 171.888 353.86 169.936 355.988 169.936ZM355.988 171.12C354.58 171.12 353.588 172.624 353.588 174.944C353.588 177.28 354.58 178.784 355.988 178.784C357.38 178.784 358.372 177.28 358.372 174.944C358.372 172.624 357.38 171.12 355.988 171.12ZM377.395 175.712V176.784H367.539V170.144H377.251V171.232H368.835V175.712H377.395ZM365.875 180.16H378.899V181.248H365.875V180.16ZM385.036 173.088C385.036 174.432 386.092 175.392 387.484 175.392C388.892 175.392 389.916 174.432 389.916 173.088C389.916 171.76 388.892 170.8 387.484 170.8C386.092 170.8 385.036 171.76 385.036 173.088ZM394.06 171.968H390.988C391.1 172.304 391.164 172.672 391.164 173.088C391.164 173.488 391.1 173.856 390.972 174.208H394.06V171.968ZM394.06 175.28H390.38C389.724 176.048 388.7 176.512 387.484 176.512C385.356 176.512 383.788 175.104 383.788 173.088C383.788 171.088 385.356 169.696 387.484 169.696C388.7 169.696 389.724 170.16 390.38 170.896H394.06V168.832H395.388V177.328H394.06V175.28ZM390.636 182.128C392.828 182.128 394.14 181.488 394.14 180.416C394.14 179.328 392.828 178.688 390.636 178.688C388.476 178.688 387.164 179.328 387.164 180.416C387.164 181.488 388.476 182.128 390.636 182.128ZM390.636 177.664C393.596 177.664 395.436 178.672 395.436 180.416C395.436 182.16 393.596 183.168 390.636 183.168C387.692 183.168 385.868 182.16 385.868 180.416C385.868 178.672 387.692 177.664 390.636 177.664ZM405.931 175.584L405.243 176.608C403.691 176.032 402.459 174.848 401.819 173.376C401.227 175.056 399.947 176.368 398.267 177.008L397.579 175.968C399.755 175.184 401.147 173.232 401.147 171.04V169.568H402.459V171.152C402.459 173.088 403.867 174.88 405.931 175.584ZM404.219 182.144C406.331 182.144 407.627 181.552 407.627 180.56C407.627 179.552 406.331 178.96 404.219 178.96C402.091 178.96 400.795 179.552 400.795 180.56C400.795 181.552 402.091 182.144 404.219 182.144ZM404.219 177.936C407.131 177.936 408.939 178.88 408.939 180.56C408.939 182.224 407.131 183.168 404.219 183.168C401.291 183.168 399.483 182.224 399.483 180.56C399.483 178.88 401.291 177.936 404.219 177.936ZM408.779 172.544H410.907V173.632H408.779V177.536H407.467V168.848H408.779V172.544ZM419.21 176.88L417.898 176.752C418.298 174.368 418.33 172.624 418.33 171.472H412.362V170.4H419.61V171.184C419.61 172.336 419.61 174.208 419.21 176.88ZM415.914 174.496V178.88C417.482 178.816 419.082 178.72 420.538 178.544L420.618 179.504C417.642 179.984 414.266 180.048 411.722 180.048L411.578 178.96C412.49 178.96 413.546 178.944 414.618 178.912V174.496H415.914ZM425.018 174.832V175.936H422.73V183.184H421.418V168.832H422.73V174.832H425.018ZM430.723 173.12C430.723 174.448 431.603 175.408 432.803 175.408C433.987 175.408 434.867 174.448 434.867 173.12C434.867 171.792 433.987 170.832 432.803 170.832C431.603 170.832 430.723 171.792 430.723 173.12ZM436.067 173.12C436.067 175.12 434.675 176.496 432.803 176.496C430.915 176.496 429.539 175.12 429.539 173.12C429.539 171.104 430.915 169.728 432.803 169.728C434.675 169.728 436.067 171.104 436.067 173.12ZM431.859 179.248V178.192H441.507V183.2H440.195V179.248H431.859ZM440.243 168.832H441.507V177.376H440.243V173.6H438.419V177.296H437.187V169.104H438.419V172.528H440.243V168.832ZM445.682 175.216V178.656C448.29 178.656 450.146 178.56 452.29 178.176L452.418 179.248C450.178 179.632 448.258 179.728 445.522 179.728H444.386V170.128H451.346V171.2H445.682V174.16H450.818V175.216H445.682ZM453.938 168.832H455.25V183.168H453.938V168.832ZM467.984 168.832H469.296V183.2H467.984V168.832ZM458.368 170.048H459.664V173.84H463.824V170.048H465.12V179.728H458.368V170.048ZM459.664 174.88V178.656H463.824V174.88H459.664ZM473.839 175.216V178.656C476.447 178.656 478.303 178.56 480.447 178.176L480.575 179.248C478.335 179.632 476.415 179.728 473.679 179.728H472.543V170.128H479.503V171.2H473.839V174.16H478.975V175.216H473.839ZM482.095 168.832H483.407V183.168H482.095V168.832ZM488.214 180.409L488.129 181.028C488.072 181.483 487.976 181.956 487.839 182.449C487.707 182.945 487.568 183.405 487.424 183.83C487.284 184.254 487.169 184.591 487.078 184.841H485.873C485.922 184.606 485.991 184.288 486.078 183.886C486.165 183.489 486.25 183.044 486.333 182.551C486.417 182.059 486.479 181.557 486.521 181.045L486.578 180.409H488.214ZM496.094 171.44V178.496C496.862 178.48 497.662 178.448 498.446 178.416V171.44H496.094ZM499.726 171.44V178.336C500.478 178.288 501.214 178.224 501.918 178.128L502.014 179.104C499.006 179.584 495.598 179.632 493.07 179.632L492.91 178.528C493.502 178.528 494.142 178.528 494.814 178.512V171.44H493.278V170.384H501.262V171.44H499.726ZM506.494 174.576V175.664H504.126V183.184H502.814V168.848H504.126V174.576H506.494ZM516.061 174.256L516.253 175.328C513.725 175.808 511.485 175.984 509.213 175.984H508.045V169.648H509.357V174.896C511.501 174.896 513.693 174.72 516.061 174.256ZM509.341 178.944V177.872H518.941V183.216H517.629V178.944H509.341ZM517.629 168.848H518.941V177.136H517.629V168.848ZM533.612 176.048L533.02 177.136C530.844 176.64 528.604 175.104 527.692 172.992C526.78 175.088 524.54 176.624 522.38 177.136L521.788 176.048C524.3 175.552 527.004 173.392 527.004 170.944V169.84H528.38V170.944C528.38 173.392 531.1 175.568 533.612 176.048ZM521.244 180.176H534.252V181.264H521.244V180.176ZM357.644 201.28V204.64C359.996 204.64 362.108 204.528 364.62 204.128L364.748 205.2C362.156 205.632 359.98 205.728 357.516 205.728H356.332V200.224H361.612V197.232H356.284V196.16H362.94V201.28H357.644ZM365.964 194.816H367.276V209.2H365.964V194.816ZM371.611 197.28V204.56C374.155 204.56 375.835 204.464 377.771 204.096L377.931 205.184C375.851 205.568 374.123 205.664 371.403 205.664H370.299V196.192H376.827V197.28H371.611ZM380.091 194.832H381.403V209.216H380.091V201.12H375.979V200.032H380.091V194.832ZM396.026 202.048L395.434 203.136C393.258 202.64 391.018 201.104 390.106 198.992C389.194 201.088 386.954 202.624 384.794 203.136L384.202 202.048C386.714 201.552 389.418 199.392 389.418 196.944V195.84H390.794V196.944C390.794 199.392 393.514 201.568 396.026 202.048ZM383.658 206.176H396.666V207.264H383.658V206.176ZM404.889 206.336H410.761V207.408H397.721V206.336H403.561V203.632H399.353V199.2H407.865V196.96H399.321V195.888H409.145V200.256H400.649V202.576H409.481V203.632H404.889V206.336ZM420.242 197.392V199.216C420.242 201.504 421.874 204.048 423.954 205.024L423.202 206.08C421.602 205.28 420.258 203.6 419.602 201.68C418.946 203.776 417.554 205.6 415.938 206.432L415.17 205.392C417.218 204.368 418.946 201.648 418.946 199.216V197.392H415.666V196.304H423.426V197.392H420.242ZM428.818 200.624V201.728H426.45V209.184H425.138V194.848H426.45V200.624H428.818ZM430.961 199.344C430.961 200.768 432.001 201.792 433.409 201.792C434.801 201.792 435.841 200.768 435.841 199.344C435.841 197.92 434.801 196.896 433.409 196.896C432.001 196.896 430.961 197.92 430.961 199.344ZM439.985 198.144H436.897C437.025 198.512 437.089 198.912 437.089 199.344C437.089 199.76 437.025 200.16 436.897 200.528H439.985V198.144ZM439.985 201.584H436.353C435.681 202.432 434.641 202.944 433.409 202.944C431.297 202.944 429.713 201.44 429.713 199.344C429.713 197.248 431.297 195.744 433.409 195.744C434.641 195.744 435.665 196.256 436.337 197.088H439.985V194.848H441.313V205.44H439.985V201.584ZM433.457 207.792H441.713V208.864H432.129V204.352H433.457V207.792ZM455.935 202.048L455.343 203.136C453.167 202.64 450.927 201.104 450.015 198.992C449.103 201.088 446.863 202.624 444.703 203.136L444.111 202.048C446.623 201.552 449.327 199.392 449.327 196.944V195.84H450.703V196.944C450.703 199.392 453.423 201.568 455.935 202.048ZM443.567 206.176H456.575V207.264H443.567V206.176ZM465.742 200.864L465.854 201.936C463.63 202.288 461.806 202.336 459.342 202.336H458.254V198.32H463.294V196.496H458.206V195.424H464.574V199.328H459.534V201.264C461.854 201.264 463.614 201.2 465.742 200.864ZM468.174 207.92V206.16H461.422V207.92H468.174ZM468.174 205.12V203.408H469.47V208.992H460.11V203.408H461.422V205.12H468.174ZM468.142 194.848H469.47V202.736H468.142V198.88H465.486V197.824H468.142V194.848ZM479.677 200.704V195.216H480.925V208.464H479.677V201.76H476.733C475.869 203.424 474.493 204.912 472.509 206.096L471.741 205.152C474.813 203.312 476.349 200.736 476.589 197.728H472.349V196.656H477.885C477.885 198.064 477.677 199.424 477.197 200.704H479.677ZM482.669 194.832H483.917V209.184H482.669V194.832ZM501.638 199.312L501.158 200.368C498.934 200.016 496.806 198.896 495.894 197.296C494.998 198.896 492.854 200.016 490.614 200.368L490.134 199.312C492.71 198.992 495.222 197.456 495.222 195.632V194.992H496.566V195.632C496.566 197.408 499.094 198.992 501.638 199.312ZM499.382 207.936V206.112H492.326V207.936H499.382ZM499.382 205.104V203.424H500.678V208.992H491.03V203.424H492.326V205.104H499.382ZM489.382 201.376H502.374V202.432H489.382V201.376ZM514.981 199.168V200.224H505.109V195.376H514.853V196.432H506.421V199.168H514.981ZM504.917 205.664V204.608H514.885V209.264H513.557V205.664H504.917ZM503.477 201.824H516.469V202.88H503.477V201.824Z" fill="black"/>
<path d="M1.5 0H0.5V1V243V244H1.5H252.742H253.359L253.635 243.449L313.394 124.422L313.615 123.98L313.399 123.536L253.641 0.562927L253.368 0H252.742H1.5Z" fill="white" stroke="#F7F0F9" stroke-width="2"/>
<mask id="mask2_337_5821" style="mask-type:alpha" maskUnits="userSpaceOnUse" x="1" y="1" width="312" height="242">
<path d="M1.5 1H252.742L312.5 123.973L252.742 243H1.5V1Z" fill="white"/>
</mask>
<g mask="url(#mask2_337_5821)">
<rect x="1.5" y="1" width="311" height="106" fill="#7024BD"/>
</g>
<path d="M105.23 32.1477H103.457C103.389 31.7689 103.262 31.4356 103.077 31.1477C102.891 30.8598 102.664 30.6155 102.395 30.4148C102.126 30.214 101.825 30.0625 101.491 29.9602C101.162 29.858 100.811 29.8068 100.44 29.8068C99.7698 29.8068 99.1695 29.9754 98.6391 30.3125C98.1126 30.6496 97.696 31.1439 97.3891 31.7955C97.0861 32.447 96.9346 33.2424 96.9346 34.1818C96.9346 35.1288 97.0861 35.928 97.3891 36.5795C97.696 37.2311 98.1145 37.7235 98.6448 38.0568C99.1751 38.3902 99.7717 38.5568 100.435 38.5568C100.802 38.5568 101.151 38.5076 101.48 38.4091C101.813 38.3068 102.115 38.1572 102.383 37.9602C102.652 37.7633 102.88 37.5227 103.065 37.2386C103.255 36.9508 103.385 36.6212 103.457 36.25L105.23 36.2557C105.135 36.8277 104.952 37.3542 104.679 37.8352C104.41 38.3125 104.063 38.7254 103.639 39.0739C103.219 39.4186 102.738 39.6856 102.196 39.875C101.654 40.0644 101.063 40.1591 100.423 40.1591C99.4157 40.1591 98.5179 39.9205 97.7301 39.4432C96.9422 38.9621 96.321 38.2746 95.8664 37.3807C95.4157 36.4867 95.1903 35.4205 95.1903 34.1818C95.1903 32.9394 95.4176 31.8731 95.8721 30.983C96.3266 30.089 96.9479 29.4034 97.7357 28.9261C98.5236 28.4451 99.4195 28.2045 100.423 28.2045C101.041 28.2045 101.616 28.2936 102.151 28.4716C102.688 28.6458 103.171 28.9034 103.599 29.2443C104.027 29.5814 104.382 29.9943 104.662 30.483C104.942 30.9678 105.132 31.5227 105.23 32.1477ZM116.799 34.1818C116.799 35.4242 116.572 36.4924 116.117 37.3864C115.663 38.2765 115.039 38.9621 114.248 39.4432C113.46 39.9205 112.564 40.1591 111.56 40.1591C110.553 40.1591 109.653 39.9205 108.861 39.4432C108.073 38.9621 107.452 38.2746 106.998 37.3807C106.543 36.4867 106.316 35.4205 106.316 34.1818C106.316 32.9394 106.543 31.8731 106.998 30.983C107.452 30.089 108.073 29.4034 108.861 28.9261C109.653 28.4451 110.553 28.2045 111.56 28.2045C112.564 28.2045 113.46 28.4451 114.248 28.9261C115.039 29.4034 115.663 30.089 116.117 30.983C116.572 31.8731 116.799 32.9394 116.799 34.1818ZM115.06 34.1818C115.06 33.2348 114.907 32.4375 114.6 31.7898C114.297 31.1383 113.88 30.6458 113.35 30.3125C112.823 29.9754 112.227 29.8068 111.56 29.8068C110.89 29.8068 110.291 29.9754 109.765 30.3125C109.238 30.6458 108.822 31.1383 108.515 31.7898C108.212 32.4375 108.06 33.2348 108.06 34.1818C108.06 35.1288 108.212 35.928 108.515 36.5795C108.822 37.2273 109.238 37.7197 109.765 38.0568C110.291 38.3902 110.89 38.5568 111.56 38.5568C112.227 38.5568 112.823 38.3902 113.35 38.0568C113.88 37.7197 114.297 37.2273 114.6 36.5795C114.907 35.928 115.06 35.1288 115.06 34.1818ZM125.831 28.3636H127.592V36.017C127.592 36.8314 127.401 37.553 127.018 38.1818C126.636 38.8068 126.098 39.2992 125.405 39.6591C124.711 40.0152 123.899 40.1932 122.967 40.1932C122.039 40.1932 121.228 40.0152 120.535 39.6591C119.842 39.2992 119.304 38.8068 118.922 38.1818C118.539 37.553 118.348 36.8314 118.348 36.017V28.3636H120.103V35.875C120.103 36.4015 120.219 36.8693 120.45 37.2784C120.685 37.6875 121.016 38.0095 121.444 38.2443C121.872 38.4754 122.38 38.5909 122.967 38.5909C123.558 38.5909 124.067 38.4754 124.496 38.2443C124.927 38.0095 125.257 37.6875 125.484 37.2784C125.715 36.8693 125.831 36.4015 125.831 35.875V28.3636ZM129.505 40V28.3636H133.652C134.554 28.3636 135.302 28.5189 135.897 28.8295C136.495 29.1402 136.942 29.5701 137.238 30.1193C137.533 30.6648 137.681 31.2955 137.681 32.0114C137.681 32.7235 137.531 33.3504 137.232 33.892C136.936 34.4299 136.49 34.8485 135.891 35.1477C135.296 35.447 134.548 35.5966 133.647 35.5966H130.505V34.0852H133.488C134.056 34.0852 134.518 34.0038 134.874 33.8409C135.234 33.678 135.497 33.4413 135.664 33.1307C135.83 32.8201 135.914 32.447 135.914 32.0114C135.914 31.572 135.829 31.1913 135.658 30.8693C135.491 30.5473 135.228 30.3011 134.868 30.1307C134.512 29.9564 134.044 29.8693 133.465 29.8693H131.26V40H129.505ZM135.249 34.75L138.124 40H136.124L133.306 34.75H135.249ZM145.524 31.4205C145.463 30.8826 145.213 30.4659 144.774 30.1705C144.334 29.8712 143.781 29.7216 143.115 29.7216C142.637 29.7216 142.225 29.7973 141.876 29.9489C141.528 30.0966 141.257 30.3011 141.064 30.5625C140.874 30.8201 140.779 31.1136 140.779 31.4432C140.779 31.7197 140.844 31.9583 140.973 32.1591C141.105 32.3598 141.278 32.5284 141.49 32.6648C141.706 32.7973 141.937 32.9091 142.183 33C142.429 33.0871 142.666 33.1591 142.893 33.2159L144.029 33.5114C144.401 33.6023 144.781 33.7254 145.171 33.8807C145.562 34.036 145.923 34.2405 146.257 34.4943C146.59 34.7481 146.859 35.0625 147.064 35.4375C147.272 35.8125 147.376 36.2614 147.376 36.7841C147.376 37.4432 147.206 38.0284 146.865 38.5398C146.528 39.0511 146.037 39.4545 145.393 39.75C144.753 40.0455 143.978 40.1932 143.069 40.1932C142.198 40.1932 141.444 40.0549 140.808 39.7784C140.171 39.5019 139.673 39.1098 139.314 38.6023C138.954 38.0909 138.755 37.4848 138.717 36.7841H140.478C140.512 37.2045 140.649 37.5549 140.887 37.8352C141.13 38.1117 141.439 38.3182 141.814 38.4545C142.192 38.5871 142.607 38.6534 143.058 38.6534C143.554 38.6534 143.995 38.5758 144.382 38.4205C144.772 38.2614 145.079 38.0417 145.302 37.7614C145.526 37.4773 145.637 37.1458 145.637 36.767C145.637 36.4223 145.539 36.1402 145.342 35.9205C145.149 35.7008 144.885 35.5189 144.552 35.375C144.223 35.2311 143.85 35.1042 143.433 34.9943L142.058 34.6193C141.126 34.3655 140.387 33.9924 139.842 33.5C139.3 33.0076 139.029 32.3561 139.029 31.5455C139.029 30.875 139.211 30.2898 139.575 29.7898C139.939 29.2898 140.431 28.9015 141.052 28.625C141.673 28.3447 142.374 28.2045 143.154 28.2045C143.942 28.2045 144.637 28.3428 145.24 28.6193C145.846 28.8958 146.323 29.2765 146.671 29.7614C147.02 30.2424 147.202 30.7955 147.217 31.4205H145.524ZM148.834 40V28.3636H156.129V29.875H150.59V33.4205H155.749V34.9261H150.59V38.4886H156.198V40H148.834ZM165.685 28.3636V40H163.923V30.125H163.855L161.071 31.9432V30.2614L163.974 28.3636H165.685Z" fill="white"/>
<path d="M66.8442 59C66.8442 60.95 68.3142 62.12 70.3842 62.12C72.4542 62.12 73.9242 60.95 73.9242 59C73.9242 57.08 72.4542 55.91 70.3842 55.91C68.3142 55.91 66.8442 57.08 66.8442 59ZM77.7342 59C77.7342 62.69 74.6142 65.3 70.3842 65.3C66.1842 65.3 63.0342 62.69 63.0342 59C63.0342 55.37 66.1842 52.73 70.3842 52.73C74.6142 52.73 77.7342 55.37 77.7342 59ZM70.2942 74.39V76.19H85.3842V79.25H66.3642V71.54H80.6742V69.89H66.3342V66.83H84.5742V74.39H70.2942ZM84.5742 57.26H88.2042V60.5H84.5742V65.75H80.6142V51.95H84.5742V57.26ZM95.7918 57.68V69.95C96.7218 69.92 97.6818 69.89 98.6418 69.86V57.68H95.7918ZM102.452 57.68V69.59C103.532 69.5 104.612 69.44 105.632 69.29L105.872 72.17C100.262 73.16 93.9918 73.28 89.2818 73.28L88.8618 70.04C89.8218 70.04 90.8718 70.04 91.9518 70.04V57.68H89.5818V54.5H104.822V57.68H102.452ZM114.872 62.39V65.66H110.852V79.61H106.892V51.98H110.852V62.39H114.872ZM139.169 51.95V70.67H135.419V51.95H139.169ZM123.869 63.92V60.62H120.299V63.92H123.869ZM127.529 61.94V67.04H116.579V53.78H120.299V57.59H123.869V53.78H127.529V58.76H129.869V52.49H133.559V68.3H129.869V61.94H127.529ZM131.609 69.47V70.19C131.609 72.89 134.459 75.74 140.459 76.43L139.019 79.49C134.549 78.92 131.309 77.15 129.629 74.66C127.949 77.15 124.709 78.92 120.239 79.49L118.859 76.43C124.829 75.74 127.649 72.89 127.649 70.19V69.47H131.609ZM149.741 61.46L166.331 60.92C166.421 59.66 166.421 58.49 166.421 57.41H150.581V54.26H170.321V56.69C170.321 60.02 170.351 63.89 169.061 69.95L165.161 69.47C165.641 67.43 165.941 65.6 166.091 63.95L150.251 64.79L149.741 61.46ZM160.571 73.19H172.751V76.4H147.761V73.19H156.611V66.59H160.571V73.19ZM198.308 64.94L196.628 68.27C191.828 67.31 188.288 64.64 186.518 61.13C184.748 64.64 181.238 67.34 176.438 68.27L174.758 64.94C180.968 63.89 184.418 59.51 184.418 55.55V53.57H188.648V55.55C188.648 59.6 192.068 63.89 198.308 64.94ZM174.158 73.01H199.178V76.22H174.158V73.01Z" fill="white"/>
<path d="M67.2405 145.6V146.72C67.2405 149.344 68.2805 151.664 70.3125 152.72L69.5445 153.728C68.1365 152.944 67.1445 151.552 66.6325 149.856C66.1525 151.808 65.1445 153.36 63.6565 154.224L62.8565 153.232C64.9045 152.08 65.9765 149.632 65.9765 146.72V145.6H63.1925V144.528H69.8485V145.6H67.2405ZM73.9765 142.816H75.2405V157.184H73.9765V149.712H72.0885V156.48H70.8565V143.152H72.0885V148.624H73.9765V142.816ZM77.9112 144.24H84.5032V153.568H77.9112V144.24ZM83.2232 145.296H79.1912V152.528H83.2232V145.296ZM87.5112 142.832H88.8232V157.216H87.5112V142.832ZM102.934 142.848V151.04H101.622V142.848H102.934ZM95.222 144.768C93.798 144.768 92.774 145.712 92.774 147.024C92.774 148.352 93.798 149.28 95.222 149.28C96.646 149.28 97.702 148.352 97.702 147.024C97.702 145.712 96.646 144.768 95.222 144.768ZM95.222 150.368C93.062 150.368 91.494 149.008 91.494 147.024C91.494 145.04 93.062 143.68 95.222 143.68C97.398 143.68 98.982 145.04 98.982 147.024C98.982 149.008 97.398 150.368 95.222 150.368ZM101.334 151.664V152.432C101.334 153.92 102.39 155.392 104.214 156L103.558 156.992C102.15 156.48 101.158 155.488 100.678 154.288C100.23 155.456 99.35 156.544 98.022 157.12C96.646 156.576 95.782 155.536 95.35 154.336C94.838 155.488 93.862 156.48 92.518 156.992L91.862 156C93.67 155.36 94.742 153.808 94.742 152.432V151.664H96.006V152.432C96.006 153.696 96.662 155.056 97.99 155.84C99.366 154.992 100.054 153.552 100.054 152.432V151.664H101.334ZM116.741 147.152V148.224H106.981V143.36H108.293V147.152H116.741ZM108.197 152.64V155.76H116.821V156.832H106.885V152.64H108.197ZM105.221 150.144H118.229V151.2H105.221V150.144ZM126.158 152.816C127.278 152.816 128.014 151.36 128.014 149.008C128.014 146.704 127.278 145.248 126.158 145.248C125.006 145.248 124.286 146.704 124.286 149.008C124.286 151.36 125.006 152.816 126.158 152.816ZM131.006 148.416V143.152H132.254V156.48H131.006V149.488H129.198C129.086 152.304 127.918 154.032 126.158 154.032C124.286 154.032 123.086 152.112 123.086 149.008C123.086 145.952 124.286 144.032 126.158 144.032C127.886 144.032 129.038 145.712 129.198 148.416H131.006ZM133.854 142.832H135.102V157.184H133.854V142.832ZM140.205 145.44V152.496C140.989 152.48 141.789 152.448 142.605 152.416V145.44H140.205ZM143.885 145.44V152.336C144.669 152.304 145.453 152.224 146.205 152.128L146.285 153.088C143.197 153.584 139.741 153.616 137.133 153.632L136.989 152.528C137.597 152.528 138.253 152.528 138.941 152.512V145.44H137.341V144.384H145.469V145.44H143.885ZM147.453 142.848H148.765V157.184H147.453V142.848ZM163.451 149.84L162.891 150.928C160.699 150.464 158.443 148.976 157.515 146.928C156.587 148.976 154.347 150.464 152.139 150.928L151.595 149.84C154.107 149.392 156.827 147.28 156.827 144.896V143.792H158.203V144.896C158.203 147.28 160.939 149.392 163.451 149.84ZM158.171 154.24H164.091V155.312H151.067V154.24H156.859V150.752H158.171V154.24ZM176.65 149.712V150.784H166.794V144.144H176.506V145.232H168.09V149.712H176.65ZM165.13 154.16H178.154V155.248H165.13V154.16ZM184.291 147.088C184.291 148.432 185.347 149.392 186.739 149.392C188.147 149.392 189.171 148.432 189.171 147.088C189.171 145.76 188.147 144.8 186.739 144.8C185.347 144.8 184.291 145.76 184.291 147.088ZM193.315 145.968H190.243C190.355 146.304 190.419 146.672 190.419 147.088C190.419 147.488 190.355 147.856 190.227 148.208H193.315V145.968ZM193.315 149.28H189.635C188.979 150.048 187.955 150.512 186.739 150.512C184.611 150.512 183.043 149.104 183.043 147.088C183.043 145.088 184.611 143.696 186.739 143.696C187.955 143.696 188.979 144.16 189.635 144.896H193.315V142.832H194.643V151.328H193.315V149.28ZM189.891 156.128C192.083 156.128 193.395 155.488 193.395 154.416C193.395 153.328 192.083 152.688 189.891 152.688C187.731 152.688 186.419 153.328 186.419 154.416C186.419 155.488 187.731 156.128 189.891 156.128ZM189.891 151.664C192.851 151.664 194.691 152.672 194.691 154.416C194.691 156.16 192.851 157.168 189.891 157.168C186.947 157.168 185.123 156.16 185.123 154.416C185.123 152.672 186.947 151.664 189.891 151.664ZM205.186 149.584L204.498 150.608C202.946 150.032 201.714 148.848 201.074 147.376C200.482 149.056 199.202 150.368 197.522 151.008L196.834 149.968C199.01 149.184 200.402 147.232 200.402 145.04V143.568H201.714V145.152C201.714 147.088 203.122 148.88 205.186 149.584ZM203.474 156.144C205.586 156.144 206.882 155.552 206.882 154.56C206.882 153.552 205.586 152.96 203.474 152.96C201.346 152.96 200.05 153.552 200.05 154.56C200.05 155.552 201.346 156.144 203.474 156.144ZM203.474 151.936C206.386 151.936 208.194 152.88 208.194 154.56C208.194 156.224 206.386 157.168 203.474 157.168C200.546 157.168 198.738 156.224 198.738 154.56C198.738 152.88 200.546 151.936 203.474 151.936ZM208.034 146.544H210.162V147.632H208.034V151.536H206.722V142.848H208.034V146.544ZM218.465 150.88L217.153 150.752C217.553 148.368 217.585 146.624 217.585 145.472H211.617V144.4H218.865V145.184C218.865 146.336 218.865 148.208 218.465 150.88ZM215.169 148.496V152.88C216.737 152.816 218.337 152.72 219.793 152.544L219.873 153.504C216.897 153.984 213.521 154.048 210.977 154.048L210.833 152.96C211.745 152.96 212.801 152.944 213.873 152.912V148.496H215.169ZM224.273 148.832V149.936H221.985V157.184H220.673V142.832H221.985V148.832H224.273ZM87.8358 171.296V178.512C90.3798 178.512 92.2198 178.4 94.2998 178.032L94.4438 179.12C92.2518 179.536 90.3638 179.632 87.6598 179.632H86.5238V170.208H93.1958V171.296H87.8358ZM99.3238 174.496V175.584H96.9558V183.216H95.6438V168.832H96.9558V174.496H99.3238ZM101.547 173.056C101.547 174.4 102.571 175.344 104.011 175.344C105.435 175.344 106.475 174.4 106.475 173.056C106.475 171.712 105.435 170.784 104.011 170.784C102.571 170.784 101.547 171.712 101.547 173.056ZM107.755 173.056C107.755 175.056 106.171 176.448 104.011 176.448C101.835 176.448 100.267 175.056 100.267 173.056C100.267 171.072 101.835 169.696 104.011 169.696C106.171 169.696 107.755 171.072 107.755 173.056ZM106.571 182.128C108.683 182.128 109.979 181.504 109.979 180.48C109.979 179.44 108.683 178.832 106.571 178.832C104.443 178.832 103.147 179.44 103.147 180.48C103.147 181.504 104.443 182.128 106.571 182.128ZM106.571 177.792C109.467 177.792 111.291 178.768 111.291 180.48C111.291 182.176 109.467 183.168 106.571 183.168C103.659 183.168 101.835 182.176 101.835 180.48C101.835 178.768 103.659 177.792 106.571 177.792ZM113.227 172.048H111.147V174.032H113.227V175.12H111.147V177.344H109.835V168.848H111.147V170.976H113.227V172.048ZM122.585 170.592V171.648H114.121V170.592H117.689V168.832H119.001V170.592H122.585ZM116.169 175.104C116.169 176.112 117.049 176.752 118.345 176.752C119.641 176.752 120.537 176.112 120.537 175.104C120.537 174.112 119.641 173.472 118.345 173.472C117.049 173.472 116.169 174.112 116.169 175.104ZM121.785 175.104C121.785 176.72 120.377 177.776 118.345 177.776C116.313 177.776 114.921 176.72 114.921 175.104C114.921 173.504 116.313 172.448 118.345 172.448C120.377 172.448 121.785 173.504 121.785 175.104ZM117.593 178.752V181.792H125.849V182.864H116.281V178.752H117.593ZM125.209 173.568H127.321V174.672H125.209V179.6H123.897V168.832H125.209V173.568ZM133.074 173.12C133.074 174.448 133.954 175.408 135.154 175.408C136.338 175.408 137.218 174.448 137.218 173.12C137.218 171.792 136.338 170.832 135.154 170.832C133.954 170.832 133.074 171.792 133.074 173.12ZM138.418 173.12C138.418 175.12 137.026 176.496 135.154 176.496C133.266 176.496 131.89 175.12 131.89 173.12C131.89 171.104 133.266 169.728 135.154 169.728C137.026 169.728 138.418 171.104 138.418 173.12ZM134.21 179.248V178.192H143.858V183.2H142.546V179.248H134.21ZM142.594 168.832H143.858V177.376H142.594V173.6H140.77V177.296H139.538V169.104H140.77V172.528H142.594V168.832ZM148.033 175.216V178.656C150.641 178.656 152.497 178.56 154.641 178.176L154.769 179.248C152.529 179.632 150.609 179.728 147.873 179.728H146.737V170.128H153.697V171.2H148.033V174.16H153.169V175.216H148.033ZM156.289 168.832H157.601V183.168H156.289V168.832ZM170.336 168.832H171.648V183.2H170.336V168.832ZM160.72 170.048H162.016V173.84H166.176V170.048H167.472V179.728H160.72V170.048ZM162.016 174.88V178.656H166.176V174.88H162.016ZM176.191 175.216V178.656C178.799 178.656 180.655 178.56 182.799 178.176L182.927 179.248C180.687 179.632 178.767 179.728 176.031 179.728H174.895V170.128H181.855V171.2H176.191V174.16H181.327V175.216H176.191ZM184.447 168.832H185.759V183.168H184.447V168.832ZM195.213 180.336H201.085V181.408H188.045V180.336H193.885V177.632H189.677V173.2H198.189V170.96H189.645V169.888H199.469V174.256H190.973V176.576H199.805V177.632H195.213V180.336ZM60.8788 196.352V197.408H52.4148V196.352H55.9828V194.752H57.2948V196.352H60.8788ZM54.4628 200.736C54.4628 201.696 55.3268 202.32 56.6388 202.32C57.9508 202.32 58.8308 201.696 58.8308 200.736C58.8308 199.792 57.9508 199.168 56.6388 199.168C55.3268 199.168 54.4628 199.792 54.4628 200.736ZM60.0788 200.736C60.0788 202.32 58.6868 203.328 56.6388 203.328C54.6068 203.328 53.2148 202.32 53.2148 200.736C53.2148 199.168 54.6068 198.144 56.6388 198.144C58.6868 198.144 60.0788 199.168 60.0788 200.736ZM54.1908 205.664V204.592H63.5028V209.2H62.1908V205.664H54.1908ZM65.6308 198.8V199.888H63.5028V203.808H62.1908V194.848H63.5028V198.8H65.6308ZM78.6855 199.312L78.2055 200.368C75.9815 200.016 73.8535 198.896 72.9415 197.296C72.0455 198.896 69.9015 200.016 67.6615 200.368L67.1815 199.312C69.7575 198.992 72.2695 197.456 72.2695 195.632V194.992H73.6135V195.632C73.6135 197.408 76.1415 198.992 78.6855 199.312ZM76.4295 207.936V206.112H69.3735V207.936H76.4295ZM76.4295 205.104V203.424H77.7255V208.992H68.0775V203.424H69.3735V205.104H76.4295ZM66.4295 201.376H79.4215V202.432H66.4295V201.376ZM90.9563 194.832H92.2683V209.216H90.9563V194.832ZM84.7003 195.936C86.8283 195.936 88.3483 197.888 88.3483 200.944C88.3483 204 86.8283 205.952 84.7003 205.952C82.5723 205.952 81.0523 204 81.0523 200.944C81.0523 197.888 82.5723 195.936 84.7003 195.936ZM84.7003 197.12C83.2923 197.12 82.3003 198.624 82.3003 200.944C82.3003 203.28 83.2923 204.784 84.7003 204.784C86.0923 204.784 87.0843 203.28 87.0843 200.944C87.0843 198.624 86.0923 197.12 84.7003 197.12ZM102.021 204.784C103.397 204.784 104.373 203.28 104.373 200.944C104.373 198.624 103.397 197.12 102.021 197.12C100.629 197.12 99.6534 198.624 99.6534 200.944C99.6534 203.28 100.629 204.784 102.021 204.784ZM102.021 195.936C104.133 195.936 105.621 197.888 105.621 200.944C105.621 204 104.133 205.952 102.021 205.952C99.9094 205.952 98.4054 204 98.4054 200.944C98.4054 197.888 99.9094 195.936 102.021 195.936ZM111.605 200.56V201.664H109.237V209.184H107.925V194.848H109.237V200.56H111.605ZM124.052 194.848V205.264H122.74V194.848H124.052ZM121.188 200.8L121.364 201.888C119.012 202.352 116.932 202.528 114.324 202.528H113.156V195.904H114.484V201.424C116.948 201.424 118.996 201.248 121.188 200.8ZM115.988 207.792H124.484V208.864H114.676V204.224H115.988V207.792ZM132.893 206.416V207.968H141.789V208.992H131.581V205.456H139.997V204.128H131.549V203.104H141.309V206.416H132.893ZM137.101 200.832H142.957V201.904H129.949V200.832H135.805V199.28H131.693V195.04H132.989V198.224H141.437V199.28H137.101V200.832ZM154.46 194.832H155.772V209.216H154.46V194.832ZM148.204 195.936C150.332 195.936 151.852 197.888 151.852 200.944C151.852 204 150.332 205.952 148.204 205.952C146.076 205.952 144.556 204 144.556 200.944C144.556 197.888 146.076 195.936 148.204 195.936ZM148.204 197.12C146.796 197.12 145.804 198.624 145.804 200.944C145.804 203.28 146.796 204.784 148.204 204.784C149.596 204.784 150.588 203.28 150.588 200.944C150.588 198.624 149.596 197.12 148.204 197.12ZM165.259 206.336H171.131V207.408H158.091V206.336H163.931V203.632H159.723V199.2H168.235V196.96H159.691V195.888H169.515V200.256H161.019V202.576H169.851V203.632H165.259V206.336ZM177.252 199.088C177.252 200.432 178.308 201.392 179.7 201.392C181.108 201.392 182.132 200.432 182.132 199.088C182.132 197.76 181.108 196.8 179.7 196.8C178.308 196.8 177.252 197.76 177.252 199.088ZM186.276 197.968H183.204C183.316 198.304 183.38 198.672 183.38 199.088C183.38 199.488 183.316 199.856 183.188 200.208H186.276V197.968ZM186.276 201.28H182.596C181.94 202.048 180.916 202.512 179.7 202.512C177.572 202.512 176.004 201.104 176.004 199.088C176.004 197.088 177.572 195.696 179.7 195.696C180.916 195.696 181.94 196.16 182.596 196.896H186.276V194.832H187.604V203.328H186.276V201.28ZM182.852 208.128C185.044 208.128 186.356 207.488 186.356 206.416C186.356 205.328 185.044 204.688 182.852 204.688C180.692 204.688 179.38 205.328 179.38 206.416C179.38 207.488 180.692 208.128 182.852 208.128ZM182.852 203.664C185.812 203.664 187.652 204.672 187.652 206.416C187.652 208.16 185.812 209.168 182.852 209.168C179.908 209.168 178.084 208.16 178.084 206.416C178.084 204.672 179.908 203.664 182.852 203.664ZM193.699 204.784C195.059 204.784 196.019 203.28 196.019 200.944C196.019 198.624 195.059 197.12 193.699 197.12C192.323 197.12 191.363 198.624 191.363 200.944C191.363 203.28 192.323 204.784 193.699 204.784ZM200.371 194.832H201.683V209.216H200.371V201.376H197.251C197.123 204.192 195.699 205.952 193.699 205.952C191.603 205.952 190.115 204 190.115 200.944C190.115 197.888 191.603 195.936 193.699 195.936C195.635 195.936 197.043 197.616 197.251 200.304H200.371V194.832ZM215.996 201.504L215.34 202.544C213.74 201.952 212.508 200.768 211.868 199.296C211.26 200.944 209.948 202.24 208.268 202.88L207.58 201.84C209.708 201.088 211.196 199.184 211.196 197.136V196.768H207.996V195.696H215.66V196.768H212.508V197.136C212.508 198.976 213.916 200.768 215.996 201.504ZM218.044 207.92V206.112H211.452V207.92H218.044ZM218.044 205.088V203.312H219.34V208.992H210.156V203.312H211.452V205.088H218.044ZM218.028 194.848H219.34V202.624H218.028V199.392H215.196V198.32H218.028V194.848ZM224.618 204.112V207.776H233.37V208.848H223.322V204.112H224.618ZM232.586 201.44H234.634V202.496H221.594V201.44H231.258C231.658 199.456 231.658 198.048 231.658 196.8V196.752H223.258V195.68H232.954V196.8C232.954 198.032 232.954 199.488 232.586 201.44Z" fill="black"/>
</g>
<defs>
<clipPath id="clip0_337_5821">
<rect width="1100" height="245" fill="white" transform="translate(0.5)"/>
</clipPath>
</defs>
</svg>
