<svg width="76" height="50" viewBox="0 0 76 50" fill="none" xmlns="http://www.w3.org/2000/svg">
<g clip-path="url(#clip0_1_1844)">
<path d="M44.5913 29.4993C42.7083 29.3186 40.8142 29.2106 38.9423 28.942C32.6359 28.0401 26.8559 25.8208 21.8045 21.8656C17.4484 18.4563 14.4634 14.1201 13.1404 8.7155C12.0955 4.44554 12.3318 0.223855 13.8951 -3.90343C14.0646 -4.35215 14.3145 -4.77739 14.5713 -5.18486C14.7339 -5.44097 14.9324 -5.71929 15.3131 -5.68819C15.606 -5.4538 15.5939 -5.12021 15.567 -4.81284C15.5155 -4.22607 15.4444 -3.63843 15.3367 -3.05914C14.7241 0.218958 14.8546 3.44787 15.9376 6.61459C16.8022 9.14618 18.2033 11.3581 19.9789 13.3417C22.4869 16.1436 25.4773 18.2933 28.8527 19.9176C33.7902 22.2929 39.0353 23.5197 44.465 24.0327C44.7354 24.0578 45.008 24.0591 45.4059 24.0774C45.2366 23.9118 45.1588 23.8054 45.0557 23.7403C43.0775 22.4967 41.0969 21.2591 39.1182 20.0167C38.4403 19.5916 37.7725 19.1509 37.0907 18.7325C36.6326 18.4522 36.4188 18.0484 36.4223 17.5233C36.4287 16.206 36.8554 15.0365 37.731 14.0517C38.2519 13.4649 38.5995 13.4382 39.2916 13.7821C41.0081 14.6326 42.7501 15.4337 44.4442 16.3253C46.4177 17.3636 48.3564 18.4686 50.2988 19.5639C51.5092 20.2466 52.7052 20.9527 53.8895 21.6792C54.3896 21.9863 54.8424 22.3677 55.3143 22.7206C55.8012 23.0846 56.2932 23.4423 56.7621 23.8284C56.9304 23.9676 57.0753 24.1653 57.1582 24.3671C57.2349 24.5527 57.2509 24.7829 57.2321 24.9888C57.0735 26.7998 56.3017 28.2472 54.7114 29.2094C54.1905 29.524 53.6824 29.8627 53.1868 30.2157C51.0294 31.7528 48.7223 33.0106 46.2426 33.9406C45.0194 34.3995 43.7724 34.7945 42.5522 35.2601C40.7221 35.9599 38.8931 36.6642 37.09 37.4305C36.2463 37.7895 35.8675 37.3536 35.8001 36.6422C35.6785 35.3549 36.5958 33.1267 37.9742 32.402C39.8474 31.4174 41.7603 30.5565 43.7606 29.8783C44.0552 29.7779 44.3472 29.6697 44.6402 29.5659C44.6224 29.5441 44.6051 29.521 44.5872 29.4992L44.5913 29.4993Z" fill="black"/>
</g>
<defs>
<clipPath id="clip0_1_1844">
<rect width="49" height="76" fill="white" transform="translate(76 0.815674) rotate(90)"/>
</clipPath>
</defs>
</svg>
