<svg width="72" height="72" viewBox="0 0 72 72" fill="none" xmlns="http://www.w3.org/2000/svg">
<g clip-path="url(#clip0_1_1771)">
<path d="M69.8571 41.8418V31.0206L62.1115 28.9616C61.5593 27.0678 60.8059 25.2565 59.8719 23.5639L63.897 16.6233L56.2442 8.97055L49.3036 12.9956C47.6058 12.0616 45.7997 11.3082 43.9059 10.756L41.8469 3.01038H31.0257L28.9667 10.7612C27.0729 11.3133 25.2616 12.0667 23.569 13.0008L16.6284 8.97571L8.97565 16.6285L13.0007 23.5691C12.0667 25.2668 11.3133 27.073 10.7611 28.9668L3 31.0154V41.8366L10.7508 43.8956C11.303 45.7895 12.0564 47.6007 12.9904 49.2933L8.96533 56.2339L16.6181 63.8867L23.5587 59.8617C25.2565 60.7957 27.0626 61.5491 28.9564 62.1012L31.0154 69.8469H41.8366L43.8956 62.1012C45.7894 61.5491 47.6007 60.7957 49.2933 59.8617L56.2339 63.8867L63.8866 56.2339L59.8616 49.2933C60.7956 47.5956 61.549 45.7895 62.1012 43.8956L69.8468 41.8366L69.8571 41.8418ZM36.4286 49.572C29.1835 49.572 23.2852 43.6737 23.2852 36.4286C23.2852 29.1835 29.1835 23.2853 36.4286 23.2853C43.6737 23.2853 49.5719 29.1835 49.5719 36.4286C49.5719 43.6737 43.6737 49.572 36.4286 49.572Z" fill="url(#paint0_linear_1_1771)"/>
</g>
<path d="M55 36C55 46.4934 46.4934 55 36 55C25.5066 55 17 46.4934 17 36C17 25.5066 25.5066 17 36 17C46.4934 17 55 25.5066 55 36Z" fill="#DB801A"/>
<mask id="mask0_1_1771" style="mask-type:alpha" maskUnits="userSpaceOnUse" x="17" y="17" width="38" height="38">
<path d="M55 36C55 46.4934 46.4934 55 36 55C25.5066 55 17 46.4934 17 36C17 25.5066 25.5066 17 36 17C46.4934 17 55 25.5066 55 36Z" fill="url(#paint1_linear_1_1771)"/>
</mask>
<g mask="url(#mask0_1_1771)">
<g clip-path="url(#clip1_1_1771)">
<path d="M31.9985 35.2852V59H40.9985V35.2852H31.9985Z" fill="#F9B568"/>
<path d="M32.1742 35.2839H25.7719V59.5738H32.1742V35.2839Z" fill="#F8C893"/>
<path d="M46.8109 35.2839H40.4087V59.5738H46.8109V35.2839Z" fill="#F19A38"/>
<path d="M40.4087 35.2839H46.8109L40.1059 26.6233H37.7841L40.4087 35.2839Z" fill="#F3C0B1"/>
<path d="M32.1742 35.2839L34.7988 26.6233H32.4796L25.7719 35.2839H32.1742Z" fill="#FFDCD2"/>
<path d="M34.7988 26.6233L32.1742 35.2839H40.4087L37.7841 26.6233H34.7988Z" fill="#FFCFC1"/>
<path d="M36.2914 21.7012L32.4796 26.6233H34.7988H37.784H40.1059L36.2914 21.7012Z" fill="#F19A38"/>
</g>
</g>
<defs>
<linearGradient id="paint0_linear_1_1771" x1="36.4286" y1="3.01038" x2="36.4286" y2="69.8469" gradientUnits="userSpaceOnUse">
<stop stop-color="#FFB159"/>
<stop offset="1" stop-color="#FBA544"/>
</linearGradient>
<linearGradient id="paint1_linear_1_1771" x1="36" y1="17" x2="36" y2="55" gradientUnits="userSpaceOnUse">
<stop stop-color="#643AE2"/>
<stop offset="1" stop-color="#37207C"/>
</linearGradient>
<clipPath id="clip0_1_1771">
<rect width="66.8571" height="66.8571" fill="white" transform="translate(3 3)"/>
</clipPath>
<clipPath id="clip1_1_1771">
<rect width="21.039" height="37.8701" fill="white" transform="translate(25.7719 21.7012)"/>
</clipPath>
</defs>
</svg>
