<svg width="34" height="29" viewBox="0 0 34 29" fill="none" xmlns="http://www.w3.org/2000/svg">
<path fill-rule="evenodd" clip-rule="evenodd" d="M22.7685 1.20076C22.4358 1.38132 22.1429 1.63676 22.1073 1.74864C22.0766 1.8818 21.7205 2.04538 21.3465 2.13183C20.893 2.23669 19.4242 3.24302 17.1833 4.94613C12.671 8.40142 5.79812 13.8396 4.87603 14.6972C4.07341 15.443 4.14018 15.2847 3.13458 19.5513C2.73836 21.2453 2.0215 23.8847 1.54923 25.4311C0.962478 27.3764 0.780355 28.2926 0.942546 28.4624C1.56022 29.0676 6.67008 28.7406 12.9693 27.7213L14.7637 27.41L16.7501 25.6817C20.0099 22.827 24.8002 18.8704 27.4399 16.8257C29.0949 15.5494 30.0661 14.6385 30.3654 14.1323C30.6172 13.6987 31.0763 13.0743 31.4141 12.7469C32.3269 11.8495 33.218 10.1447 33.2579 9.24179C33.3199 7.62502 32.5752 5.8418 30.9367 3.68531C28.9112 1.02719 26.8292 0.00978044 24.5523 0.578227C23.884 0.732747 23.0978 1.01816 22.7652 1.19872L22.7685 1.20076ZM26.5965 2.14506C27.5214 2.4719 29.1718 3.85804 30.1826 5.18475C30.7484 5.92799 31.113 6.69534 31.4391 7.74332L31.8654 9.22476L31.1728 10.4466C30.388 11.8131 30.1747 11.9661 30.0148 11.2747C29.8365 10.5035 27.9075 7.18711 26.8663 5.82542C26.3097 5.12207 25.3787 4.15232 24.7907 3.66353C24.2001 3.17536 23.7337 2.68088 23.7736 2.58761C23.8924 2.20716 25.8551 1.89906 26.5959 2.1424L26.5965 2.14506ZM22.8293 4.24308C24.2203 5.23255 25.6149 6.78147 26.8254 8.7904C28.0174 10.7195 29.0861 13.0946 28.9674 13.475C28.9055 13.6546 26.3781 15.7377 26.1818 15.7831C26.1633 15.7874 25.9466 15.2128 25.7149 14.4763C24.9758 12.0895 22.1684 7.93411 20.1837 6.24987L19.4096 5.5968L20.5628 4.66344C21.2147 4.15974 21.7956 3.71167 21.854 3.69818C21.9292 3.66117 22.3594 3.91469 22.8293 4.24308ZM20.1388 8.4846C20.5561 8.9484 20.8602 9.35715 20.8296 9.40624C20.8153 9.42914 19.2378 10.6903 17.3644 12.1824C15.496 13.6958 13.1584 15.6089 12.1922 16.457C10.4666 17.9598 10.0358 18.163 9.88948 17.5301C9.77512 17.0355 8.74569 16.2565 7.70586 15.8918C7.16062 15.6845 6.78107 15.4809 6.84711 15.404C6.91315 15.3271 8.5278 14.0574 10.4104 12.6052C12.2881 11.1317 14.7493 9.20958 15.8534 8.32959L17.8675 6.72095L18.6146 7.17294C19.0431 7.40723 19.7191 7.99892 20.1414 8.48399L20.1388 8.4846ZM22.2839 11.2131C23.6593 13.3072 24.0879 12.6478 18.1422 17.4318C15.2374 19.7674 12.7831 21.7076 12.7128 21.7659C12.6239 21.8284 12.4847 21.5889 12.4072 21.2538C12.2203 20.4454 11.8072 20.0002 10.9956 19.7284L10.3218 19.5088L15.8487 14.8832C18.8875 12.3289 21.434 10.2442 21.4901 10.2088C21.5697 10.1904 21.9244 10.6491 22.2806 11.2111L22.2839 11.2131ZM6.60404 16.7937C8.39828 17.3762 9.13886 18.2471 8.7571 19.2907C8.42354 20.1802 8.6766 20.8277 9.36265 20.8343C10.173 20.8347 10.9279 21.1392 11.0096 21.4929C11.0459 21.6498 10.9598 22.0871 10.792 22.4369C10.4001 23.3399 10.6611 23.7558 11.7686 24.0628C12.7241 24.3406 12.9749 24.7 12.9194 25.8138C12.9123 26.2301 12.8725 26.2393 10.5486 26.5076C6.62932 26.9571 6.94645 26.9875 6.61241 26.171C6.45815 25.7697 5.83476 24.9585 5.24426 24.3863L4.15028 23.3281L4.89991 20.2021C5.29182 18.4894 5.60331 16.9607 5.57626 16.8436C5.49879 16.5086 5.70427 16.5031 6.60139 16.7943L6.60404 16.7937ZM24.4923 15.5686L24.9036 16.8042L19.7762 21.0068C16.9679 23.3006 14.6346 25.2324 14.5779 25.2651C14.5288 25.3185 14.4023 24.9527 14.2928 24.4793C14.1465 23.8464 13.9405 23.4991 13.5501 23.2363L13.0083 22.8629L15.4227 21.0161C16.745 20.0044 19.1715 18.0286 20.7777 16.6376C22.41 15.2629 23.7977 14.1716 23.9142 14.2287C24.0073 14.2688 24.2704 14.8748 24.4955 15.5707L24.4923 15.5686Z" fill="black"/>
</svg>
