<svg width="1100" height="114" viewBox="0 0 1100 114" fill="none" xmlns="http://www.w3.org/2000/svg">
<rect width="1100" height="114" fill="white"/>
<path d="M676 10C676 4.47716 680.477 0 686 0H1050.06C1053 0 1055.79 1.29268 1057.69 3.53461L1097.52 50.5346C1100.68 54.2651 1100.68 59.7349 1097.52 63.4654L1057.69 110.465C1055.79 112.707 1053 114 1050.06 114H686C680.477 114 676 109.523 676 104V10Z" fill="#6822C0"/>
<path d="M768.803 61.44V65.16H780.971V67.68H765.635V61.44H768.803ZM768.899 51.36V53.28H777.515V51.36H768.899ZM774.755 57.624H783.203V60.144H763.211V57.624H771.587V55.776H765.755V46.752H768.899V48.912H777.515V46.752H780.659V55.776H774.755V57.624ZM802.33 47.904V50.4H789.322V47.904H794.218V45.84H797.41V47.904H802.33ZM793.426 55.152C793.426 56.28 794.386 56.832 795.826 56.832C797.242 56.832 798.226 56.28 798.226 55.152C798.226 54.048 797.242 53.496 795.826 53.496C794.386 53.496 793.426 54.048 793.426 55.152ZM801.25 55.152C801.25 57.576 799.018 59.232 795.826 59.232C792.658 59.232 790.402 57.576 790.402 55.152C790.402 52.752 792.658 51.096 795.826 51.096C799.018 51.096 801.25 52.752 801.25 55.152ZM791.986 63.264V60.72H806.722V68.088H803.554V63.264H791.986ZM809.65 51.648V54.264H806.722V59.808H803.554V45.984H806.722V51.648H809.65ZM829.424 52.152L828.296 54.6C824.528 54.144 821.84 52.584 820.424 50.472C819.032 52.584 816.296 54.12 812.528 54.6L811.424 52.152C816.392 51.576 818.792 49.128 818.792 46.872V46.2H822.056V46.872C822.056 49.104 824.456 51.6 829.424 52.152ZM824.768 65.352V63.432H815.912V65.352H824.768ZM824.768 61.056V59.208H827.888V67.8H812.768V59.208H815.912V61.056H824.768ZM810.44 55.608H830.408V58.104H810.44V55.608ZM837.872 57.2727C837.872 55.142 838.153 53.1847 838.716 51.4006C839.284 49.6108 840.128 47.9574 841.247 46.4403H844.153C843.721 47.0028 843.318 47.6932 842.943 48.5114C842.568 49.3239 842.241 50.2159 841.963 51.1875C841.69 52.1534 841.474 53.1562 841.315 54.196C841.162 55.2358 841.085 56.2614 841.085 57.2727C841.085 58.6193 841.219 59.983 841.486 61.3636C841.758 62.7443 842.125 64.0256 842.585 65.2074C843.051 66.3835 843.574 67.3466 844.153 68.0966H841.247C840.128 66.5795 839.284 64.929 838.716 63.1449C838.153 61.3551 837.872 59.3977 837.872 57.2727ZM851.641 66H845.727V48.5455H851.761C853.494 48.5455 854.982 48.8949 856.227 49.5938C857.477 50.2869 858.437 51.2841 859.107 52.5852C859.778 53.8864 860.113 55.4432 860.113 57.2557C860.113 59.0739 859.775 60.6364 859.099 61.9432C858.428 63.25 857.46 64.2528 856.192 64.9517C854.931 65.6506 853.414 66 851.641 66ZM848.889 63.2642H851.488C852.704 63.2642 853.718 63.0426 854.531 62.5994C855.343 62.1506 855.954 61.483 856.363 60.5966C856.772 59.7045 856.977 58.5909 856.977 57.2557C856.977 55.9205 856.772 54.8125 856.363 53.9318C855.954 53.0455 855.349 52.3835 854.548 51.946C853.752 51.5028 852.764 51.2812 851.582 51.2812H848.889V63.2642ZM863.461 66H860.086L866.231 48.5455H870.134L876.288 66H872.913L868.251 52.125H868.115L863.461 66ZM863.572 59.1562H872.777V61.696H863.572V59.1562ZM880.789 48.5455V66H877.627V48.5455H880.789ZM883.253 66V48.5455H886.415V63.3494H894.102V66H883.253ZM892.936 48.5455H896.507L900.776 56.267H900.947L905.217 48.5455H908.788L902.438 59.4886V66H899.285V59.4886L892.936 48.5455ZM930.001 54.4347H926.813C926.722 53.9119 926.555 53.4489 926.31 53.0455C926.066 52.6364 925.762 52.2898 925.398 52.0057C925.035 51.7216 924.62 51.5085 924.154 51.3665C923.694 51.2188 923.197 51.1449 922.663 51.1449C921.714 51.1449 920.873 51.3835 920.14 51.8608C919.407 52.3324 918.833 53.0256 918.418 53.9403C918.004 54.8494 917.796 55.9602 917.796 57.2727C917.796 58.608 918.004 59.733 918.418 60.6477C918.839 61.5568 919.413 62.2443 920.14 62.7102C920.873 63.1705 921.711 63.4006 922.654 63.4006C923.177 63.4006 923.665 63.3324 924.12 63.196C924.58 63.054 924.992 62.8466 925.356 62.5739C925.725 62.3011 926.035 61.9659 926.285 61.5682C926.54 61.1705 926.717 60.7159 926.813 60.2045L930.001 60.2216C929.881 61.0511 929.623 61.8295 929.225 62.5568C928.833 63.2841 928.319 63.9261 927.682 64.483C927.046 65.0341 926.302 65.4659 925.45 65.7784C924.597 66.0852 923.651 66.2386 922.611 66.2386C921.077 66.2386 919.708 65.8835 918.504 65.1733C917.299 64.4631 916.35 63.4375 915.657 62.0966C914.964 60.7557 914.617 59.1477 914.617 57.2727C914.617 55.392 914.967 53.7841 915.665 52.4489C916.364 51.108 917.316 50.0824 918.521 49.3722C919.725 48.6619 921.089 48.3068 922.611 48.3068C923.583 48.3068 924.486 48.4432 925.322 48.7159C926.157 48.9886 926.901 49.3892 927.555 49.9176C928.208 50.4403 928.745 51.0824 929.165 51.8438C929.592 52.5994 929.87 53.4631 930.001 54.4347ZM947.533 57.2727C947.533 59.1534 947.181 60.7642 946.476 62.1051C945.777 63.4403 944.823 64.4631 943.612 65.1733C942.408 65.8835 941.041 66.2386 939.513 66.2386C937.985 66.2386 936.615 65.8835 935.405 65.1733C934.2 64.4574 933.246 63.4318 932.541 62.0966C931.843 60.7557 931.493 59.1477 931.493 57.2727C931.493 55.392 931.843 53.7841 932.541 52.4489C933.246 51.108 934.2 50.0824 935.405 49.3722C936.615 48.6619 937.985 48.3068 939.513 48.3068C941.041 48.3068 942.408 48.6619 943.612 49.3722C944.823 50.0824 945.777 51.108 946.476 52.4489C947.181 53.7841 947.533 55.392 947.533 57.2727ZM944.354 57.2727C944.354 55.9489 944.147 54.8324 943.732 53.9233C943.323 53.0085 942.754 52.3182 942.027 51.8523C941.3 51.3807 940.462 51.1449 939.513 51.1449C938.564 51.1449 937.726 51.3807 936.999 51.8523C936.272 52.3182 935.7 53.0085 935.286 53.9233C934.877 54.8324 934.672 55.9489 934.672 57.2727C934.672 58.5966 934.877 59.7159 935.286 60.6307C935.7 61.5398 936.272 62.2301 936.999 62.7017C937.726 63.1676 938.564 63.4006 939.513 63.4006C940.462 63.4006 941.3 63.1676 942.027 62.7017C942.754 62.2301 943.323 61.5398 943.732 60.6307C944.147 59.7159 944.354 58.5966 944.354 57.2727ZM960.565 48.5455H963.727V59.9489C963.727 61.1989 963.432 62.2983 962.841 63.2472C962.255 64.196 961.432 64.9375 960.369 65.4716C959.307 66 958.065 66.2642 956.645 66.2642C955.218 66.2642 953.974 66 952.912 65.4716C951.849 64.9375 951.025 64.196 950.44 63.2472C949.855 62.2983 949.562 61.1989 949.562 59.9489V48.5455H952.724V59.6847C952.724 60.4119 952.883 61.0597 953.201 61.6278C953.525 62.196 953.98 62.642 954.565 62.9659C955.15 63.2841 955.843 63.4432 956.645 63.4432C957.446 63.4432 958.139 63.2841 958.724 62.9659C959.315 62.642 959.77 62.196 960.088 61.6278C960.406 61.0597 960.565 60.4119 960.565 59.6847V48.5455ZM966.204 66V48.5455H972.749C974.09 48.5455 975.215 48.7784 976.124 49.2443C977.039 49.7102 977.729 50.3636 978.195 51.2045C978.667 52.0398 978.903 53.0142 978.903 54.1278C978.903 55.2472 978.664 56.2187 978.187 57.0426C977.715 57.8608 977.019 58.4943 976.099 58.9432C975.178 59.3864 974.048 59.608 972.707 59.608H968.045V56.983H972.28C973.065 56.983 973.707 56.875 974.207 56.6591C974.707 56.4375 975.076 56.1165 975.315 55.696C975.559 55.2699 975.681 54.7472 975.681 54.1278C975.681 53.5085 975.559 52.9801 975.315 52.5426C975.07 52.0994 974.698 51.7642 974.198 51.5369C973.698 51.304 973.053 51.1875 972.263 51.1875H969.366V66H966.204ZM975.221 58.0909L979.542 66H976.013L971.769 58.0909H975.221ZM990.339 53.3438C990.259 52.5994 989.924 52.0199 989.333 51.6051C988.748 51.1903 987.987 50.983 987.049 50.983C986.39 50.983 985.825 51.0824 985.353 51.2812C984.882 51.4801 984.521 51.75 984.271 52.0909C984.021 52.4318 983.893 52.821 983.887 53.2585C983.887 53.6222 983.97 53.9375 984.134 54.2045C984.305 54.4716 984.535 54.6989 984.825 54.8864C985.115 55.0682 985.436 55.2216 985.788 55.3466C986.14 55.4716 986.495 55.5767 986.853 55.6619L988.49 56.071C989.149 56.2244 989.782 56.4318 990.39 56.6932C991.004 56.9545 991.552 57.2841 992.035 57.6818C992.524 58.0795 992.91 58.5597 993.194 59.1222C993.478 59.6847 993.62 60.3437 993.62 61.0994C993.62 62.1222 993.359 63.0227 992.836 63.8011C992.313 64.5739 991.558 65.179 990.569 65.6165C989.586 66.0483 988.396 66.2642 986.998 66.2642C985.64 66.2642 984.461 66.054 983.461 65.6335C982.467 65.2131 981.688 64.5994 981.126 63.7926C980.569 62.9858 980.268 62.0028 980.222 60.8438H983.333C983.379 61.4517 983.566 61.9574 983.896 62.3608C984.225 62.7642 984.654 63.0653 985.183 63.2642C985.717 63.4631 986.313 63.5625 986.972 63.5625C987.66 63.5625 988.262 63.4602 988.779 63.2557C989.302 63.0455 989.711 62.7557 990.007 62.3864C990.302 62.0114 990.453 61.5739 990.458 61.0739C990.453 60.6193 990.319 60.2443 990.058 59.9489C989.796 59.6477 989.43 59.3977 988.958 59.1989C988.492 58.9943 987.947 58.8125 987.322 58.6534L985.336 58.142C983.899 57.7727 982.762 57.2131 981.927 56.4631C981.097 55.7074 980.683 54.7045 980.683 53.4545C980.683 52.4261 980.961 51.5256 981.518 50.7528C982.08 49.9801 982.845 49.3807 983.811 48.9545C984.776 48.5227 985.87 48.3068 987.092 48.3068C988.33 48.3068 989.416 48.5227 990.347 48.9545C991.285 49.3807 992.021 49.9744 992.555 50.7358C993.089 51.4915 993.365 52.3608 993.382 53.3438H990.339ZM995.479 66V48.5455H1006.83V51.196H998.641V55.9347H1006.24V58.5852H998.641V63.3494H1006.9V66H995.479ZM1014.47 57.2727C1014.47 59.3977 1014.18 61.3551 1013.61 63.1449C1013.05 64.929 1012.21 66.5795 1011.09 68.0966H1008.19C1008.62 67.5341 1009.03 66.8466 1009.4 66.0341C1009.77 65.2216 1010.09 64.3295 1010.37 63.358C1010.65 62.3864 1010.86 61.3807 1011.01 60.3409C1011.17 59.3011 1011.25 58.2784 1011.25 57.2727C1011.25 55.9261 1011.12 54.5625 1010.84 53.1818C1010.58 51.8011 1010.21 50.5199 1009.74 49.3381C1009.28 48.1562 1008.76 47.1903 1008.19 46.4403H1011.09C1012.21 47.9574 1013.05 49.6108 1013.61 51.4006C1014.18 53.1847 1014.47 55.142 1014.47 57.2727Z" fill="white"/>
<path d="M340 10C340 5.58172 343.582 2 348 2H656.059C658.41 2 660.642 3.03414 662.163 4.82769L701.995 51.8277C704.524 54.8121 704.524 59.1879 701.995 62.1723L662.163 109.172C660.642 110.966 658.41 112 656.059 112H348C343.582 112 340 108.418 340 104V10Z" fill="#9A31AB" stroke="white" stroke-width="4"/>
<path d="M487.636 56.352L486.292 59.016C482.452 58.248 479.62 56.112 478.204 53.304C476.788 56.112 473.98 58.272 470.14 59.016L468.796 56.352C473.764 55.512 476.524 52.008 476.524 48.84V47.256H479.908V48.84C479.908 52.08 482.644 55.512 487.636 56.352ZM468.316 62.808H488.332V65.376H468.316V62.808ZM493.082 56.784V60.648C495.386 60.624 497.114 60.528 499.106 60.216L499.37 62.736C496.874 63.144 494.762 63.192 491.594 63.192H490.082V48.384H498.266V50.904H493.082V54.336H497.426V56.784H493.082ZM500.834 54V46.368H503.786V67.08H500.834V56.568H498.434V54H500.834ZM505.418 45.936H508.418V68.04H505.418V45.936ZM525.696 45.936H528.864V68.112H525.696V45.936ZM516.984 47.496C520.32 47.496 522.792 50.52 522.792 55.368C522.792 60.24 520.32 63.288 516.984 63.288C513.648 63.288 511.176 60.24 511.176 55.368C511.176 50.52 513.648 47.496 516.984 47.496ZM516.984 50.352C515.352 50.352 514.224 52.104 514.224 55.368C514.224 58.656 515.352 60.408 516.984 60.408C518.616 60.408 519.744 58.656 519.744 55.368C519.744 52.104 518.616 50.352 516.984 50.352ZM540.214 50.688V51.912C540.214 55.512 541.99 59.328 545.686 60.864L543.958 63.36C541.39 62.256 539.638 60.096 538.654 57.432C537.67 60.312 535.894 62.736 533.302 63.912L531.502 61.392C535.198 59.736 536.998 55.68 536.998 51.912V50.688H532.39V48.072H544.774V50.688H540.214ZM546.814 45.96H549.982V68.064H546.814V45.96Z" fill="white"/>
<path d="M2 10C2 5.58172 5.58172 2 10 2H318.059C320.41 2 322.642 3.03414 324.163 4.82769L363.995 51.8277C366.524 54.8121 366.524 59.1879 363.995 62.1723L324.163 109.172C322.642 110.966 320.41 112 318.059 112H10C5.58173 112 2 108.418 2 104V10Z" fill="#CF4295" stroke="white" stroke-width="4"/>
<path d="M153.018 53.568L166.29 53.136C166.362 52.128 166.362 51.192 166.362 50.328H153.69V47.808H169.482V49.752C169.482 52.416 169.506 55.512 168.474 60.36L165.354 59.976C165.738 58.344 165.978 56.88 166.098 55.56L153.426 56.232L153.018 53.568ZM161.682 62.952H171.426V65.52H151.434V62.952H158.514V57.672H161.682V62.952ZM191.872 56.352L190.528 59.016C186.688 58.248 183.856 56.112 182.44 53.304C181.024 56.112 178.216 58.272 174.376 59.016L173.032 56.352C178 55.512 180.76 52.008 180.76 48.84V47.256H184.144V48.84C184.144 52.08 186.88 55.512 191.872 56.352ZM172.552 62.808H192.568V65.376H172.552V62.808Z" fill="white"/>
</svg>
