<svg width="17" height="18" viewBox="0 0 17 18" fill="none" xmlns="http://www.w3.org/2000/svg">
<g id="Subtract">
<mask id="path-1-inside-1_337_6411" fill="white">
<path fill-rule="evenodd" clip-rule="evenodd" d="M8.5 17.5C13.1944 17.5 17 13.6944 17 9C17 4.30558 13.1944 0.5 8.5 0.5C3.80558 0.5 0 4.30558 0 9C0 13.6944 3.80558 17.5 8.5 17.5ZM9.49085 10.513C9.70335 9.7225 9.8096 9.14025 9.8096 8.76625C9.8096 8.38375 9.7416 8.116 9.6056 7.963C8.3306 7.963 7.4721 8.031 7.0301 8.167L6.99185 8.38375L7.09385 8.524C7.31485 8.8045 7.42535 9.102 7.42535 9.4165C7.42535 9.6205 7.3191 10.105 7.1066 10.87C6.9026 11.6265 6.8006 12.1918 6.8006 12.5658C6.8006 12.9313 6.89835 13.2118 7.09385 13.4073C7.29785 13.6028 7.5741 13.7005 7.9226 13.7005C8.2711 13.7005 8.65785 13.6155 9.08285 13.4455C9.51635 13.2755 9.8776 13.08 10.1666 12.859L9.93711 12.2215L9.82235 12.2725C9.57585 12.3575 9.40585 12.4 9.31235 12.4C9.21885 12.4 9.1721 12.281 9.1721 12.043C9.1721 11.805 9.27835 11.295 9.49085 10.513ZM7.9481 6.6625C8.1691 6.8665 8.47085 6.9685 8.85335 6.9685C9.24435 6.9685 9.56735 6.8495 9.82235 6.6115C10.0859 6.3735 10.2176 6.093 10.2176 5.77C10.2176 5.447 10.1114 5.19625 9.89886 5.01775C9.68635 4.83925 9.38885 4.75 9.00635 4.75C8.62385 4.75 8.2966 4.8605 8.0246 5.0815C7.7611 5.294 7.62935 5.56175 7.62935 5.88475C7.62935 6.19925 7.7356 6.4585 7.9481 6.6625Z"/>
</mask>
<path fill-rule="evenodd" clip-rule="evenodd" d="M8.5 17.5C13.1944 17.5 17 13.6944 17 9C17 4.30558 13.1944 0.5 8.5 0.5C3.80558 0.5 0 4.30558 0 9C0 13.6944 3.80558 17.5 8.5 17.5ZM9.49085 10.513C9.70335 9.7225 9.8096 9.14025 9.8096 8.76625C9.8096 8.38375 9.7416 8.116 9.6056 7.963C8.3306 7.963 7.4721 8.031 7.0301 8.167L6.99185 8.38375L7.09385 8.524C7.31485 8.8045 7.42535 9.102 7.42535 9.4165C7.42535 9.6205 7.3191 10.105 7.1066 10.87C6.9026 11.6265 6.8006 12.1918 6.8006 12.5658C6.8006 12.9313 6.89835 13.2118 7.09385 13.4073C7.29785 13.6028 7.5741 13.7005 7.9226 13.7005C8.2711 13.7005 8.65785 13.6155 9.08285 13.4455C9.51635 13.2755 9.8776 13.08 10.1666 12.859L9.93711 12.2215L9.82235 12.2725C9.57585 12.3575 9.40585 12.4 9.31235 12.4C9.21885 12.4 9.1721 12.281 9.1721 12.043C9.1721 11.805 9.27835 11.295 9.49085 10.513ZM7.9481 6.6625C8.1691 6.8665 8.47085 6.9685 8.85335 6.9685C9.24435 6.9685 9.56735 6.8495 9.82235 6.6115C10.0859 6.3735 10.2176 6.093 10.2176 5.77C10.2176 5.447 10.1114 5.19625 9.89886 5.01775C9.68635 4.83925 9.38885 4.75 9.00635 4.75C8.62385 4.75 8.2966 4.8605 8.0246 5.0815C7.7611 5.294 7.62935 5.56175 7.62935 5.88475C7.62935 6.19925 7.7356 6.4585 7.9481 6.6625Z" fill="url(#paint0_linear_337_6411)"/>
<path d="M9.49085 10.513L10.4559 10.7752L10.4566 10.7726L9.49085 10.513ZM9.6056 7.963L10.353 7.29864L10.0547 6.963H9.6056V7.963ZM7.0301 8.167L6.73602 7.21122L6.15159 7.39105L6.04532 7.99321L7.0301 8.167ZM6.99185 8.38375L6.00707 8.20996L5.93324 8.62834L6.18312 8.97192L6.99185 8.38375ZM7.09385 8.524L6.28512 9.11217L6.29644 9.12775L6.30836 9.14287L7.09385 8.524ZM7.1066 10.87L6.14306 10.6023L6.14109 10.6096L7.1066 10.87ZM7.09385 13.4073L6.38675 14.1144L6.39427 14.1219L6.40195 14.1292L7.09385 13.4073ZM9.08285 13.4455L8.71776 12.5145L8.71146 12.517L9.08285 13.4455ZM10.1666 12.859L10.7741 13.6534L11.3554 13.2088L11.1075 12.5203L10.1666 12.859ZM9.93711 12.2215L10.878 11.8828L10.5137 10.8709L9.53097 11.3077L9.93711 12.2215ZM9.82235 12.2725L10.1483 13.2179L10.1891 13.2038L10.2285 13.1863L9.82235 12.2725ZM7.9481 6.6625L7.25557 7.38389L7.26263 7.39067L7.26982 7.39731L7.9481 6.6625ZM9.82235 6.6115L9.15207 5.8694L9.14601 5.87487L9.14004 5.88044L9.82235 6.6115ZM9.89886 5.01775L10.542 4.25205L10.542 4.25204L9.89886 5.01775ZM8.0246 5.0815L8.65236 5.85992L8.6552 5.85761L8.0246 5.0815ZM16 9C16 13.1421 12.6421 16.5 8.5 16.5V18.5C13.7467 18.5 18 14.2467 18 9H16ZM8.5 1.5C12.6421 1.5 16 4.85786 16 9H18C18 3.75329 13.7467 -0.5 8.5 -0.5V1.5ZM1 9C1 4.85786 4.35786 1.5 8.5 1.5V-0.5C3.25329 -0.5 -1 3.75329 -1 9H1ZM8.5 16.5C4.35786 16.5 1 13.1421 1 9H-1C-1 14.2467 3.25329 18.5 8.5 18.5V16.5ZM8.8096 8.76625C8.8096 8.99878 8.73525 9.4718 8.52514 10.2534L10.4566 10.7726C10.6715 9.9732 10.8096 9.28172 10.8096 8.76625H8.8096ZM8.8582 8.62737C8.78929 8.54984 8.78163 8.49424 8.78937 8.52472C8.79681 8.554 8.8096 8.62874 8.8096 8.76625H10.8096C10.8096 8.32658 10.7438 7.73821 10.353 7.29864L8.8582 8.62737ZM7.32419 9.12278C7.60163 9.03741 8.31362 8.963 9.6056 8.963V6.963C8.34759 6.963 7.34258 7.02459 6.73602 7.21122L7.32419 9.12278ZM7.97664 8.55754L8.01489 8.34079L6.04532 7.99321L6.00707 8.20996L7.97664 8.55754ZM7.90259 7.93583L7.80059 7.79558L6.18312 8.97192L6.28512 9.11217L7.90259 7.93583ZM8.42535 9.4165C8.42535 8.84744 8.21949 8.33685 7.87935 7.90513L6.30836 9.14287C6.41022 9.27215 6.42535 9.35656 6.42535 9.4165H8.42535ZM8.07012 11.1376C8.17875 10.7466 8.26379 10.4146 8.32245 10.1471C8.37533 9.90596 8.42535 9.63847 8.42535 9.4165H6.42535C6.42535 9.39853 6.42225 9.47529 6.36888 9.71867C6.32129 9.93566 6.24696 10.2284 6.14309 10.6024L8.07012 11.1376ZM7.8006 12.5658C7.8006 12.3315 7.87172 11.8735 8.07211 11.1304L6.14109 10.6096C5.93349 11.3795 5.8006 12.052 5.8006 12.5658H7.8006ZM7.80096 12.7001C7.81754 12.7167 7.82128 12.7299 7.81822 12.7212C7.81359 12.7079 7.8006 12.6613 7.8006 12.5658H5.8006C5.8006 13.108 5.94925 13.6769 6.38675 14.1144L7.80096 12.7001ZM7.9226 12.7005C7.84104 12.7005 7.8005 12.689 7.78762 12.6845C7.77816 12.6811 7.7815 12.6812 7.78576 12.6853L6.40195 14.1292C6.83337 14.5427 7.37968 14.7005 7.9226 14.7005V12.7005ZM8.71146 12.517C8.36947 12.6538 8.11086 12.7005 7.9226 12.7005V14.7005C8.43134 14.7005 8.94624 14.5772 9.45424 14.374L8.71146 12.517ZM9.55916 12.0646C9.36149 12.2158 9.08745 12.3696 8.71777 12.5145L9.44794 14.3765C9.94526 14.1814 10.3937 13.9442 10.7741 13.6534L9.55916 12.0646ZM8.99622 12.5602L9.22572 13.1977L11.1075 12.5203L10.878 11.8828L8.99622 12.5602ZM10.2285 13.1863L10.3432 13.1353L9.53097 11.3077L9.41622 11.3587L10.2285 13.1863ZM9.31235 13.4C9.59829 13.4 9.92152 13.2961 10.1483 13.2179L9.49636 11.3271C9.38872 11.3642 9.3143 11.3863 9.26744 11.398C9.2445 11.4037 9.23546 11.4051 9.23759 11.4048C9.23907 11.4046 9.24585 11.4035 9.25708 11.4024C9.268 11.4014 9.287 11.4 9.31235 11.4V13.4ZM8.1721 12.043C8.1721 12.1983 8.18328 12.4393 8.27641 12.6764C8.32617 12.803 8.42108 12.985 8.60402 13.1402C8.80553 13.3112 9.05632 13.4 9.31235 13.4V11.4C9.52164 11.4 9.73152 11.4739 9.89797 11.6152C10.0459 11.7407 10.1115 11.878 10.1379 11.9451C10.1843 12.0632 10.1721 12.1257 10.1721 12.043H8.1721ZM8.52585 10.2508C8.41689 10.6518 8.33159 10.9959 8.27281 11.278C8.21816 11.5404 8.1721 11.8136 8.1721 12.043H10.1721C10.1721 12.0496 10.1721 12.0247 10.1821 11.9541C10.1915 11.8881 10.2071 11.7997 10.2308 11.686C10.2782 11.4581 10.3523 11.1562 10.4559 10.7752L8.52585 10.2508ZM8.85335 5.9685C8.7498 5.9685 8.68977 5.95459 8.66039 5.94466C8.63446 5.93589 8.62774 5.92895 8.62638 5.9277L7.26982 7.39731C7.72176 7.81447 8.29035 7.9685 8.85335 7.9685V5.9685ZM9.14004 5.88044C9.09308 5.92427 9.02419 5.9685 8.85335 5.9685V7.9685C9.46452 7.9685 10.0416 7.77473 10.5047 7.34256L9.14004 5.88044ZM9.2176 5.77C9.2176 5.78231 9.2164 5.78875 9.21591 5.791C9.21545 5.7931 9.21491 5.79484 9.21366 5.79749C9.21188 5.80129 9.19953 5.82653 9.15207 5.8694L10.4926 7.3536C10.9428 6.94703 11.2176 6.4058 11.2176 5.77H9.2176ZM9.25566 5.78345C9.25142 5.77989 9.24379 5.77257 9.23545 5.76135C9.22707 5.75006 9.221 5.73889 9.21716 5.72984C9.20921 5.71106 9.2176 5.71803 9.2176 5.77H11.2176C11.2176 5.20544 11.019 4.65266 10.542 4.25205L9.25566 5.78345ZM9.00635 5.75C9.24217 5.75 9.28117 5.80488 9.25566 5.78346L10.542 4.25204C10.0915 3.87362 9.53554 3.75 9.00635 3.75V5.75ZM8.6552 5.85761C8.73228 5.79498 8.83109 5.75 9.00635 5.75V3.75C8.41662 3.75 7.86093 3.92602 7.39401 4.30539L8.6552 5.85761ZM8.62935 5.88475C8.62935 5.87233 8.63058 5.8683 8.63008 5.87053C8.62952 5.87306 8.62803 5.8779 8.62542 5.88319C8.62287 5.88838 8.62139 5.88964 8.62381 5.8867C8.62646 5.88348 8.63473 5.87413 8.65236 5.85991L7.39685 4.30309C6.911 4.6949 6.62935 5.24297 6.62935 5.88475H8.62935ZM8.64064 5.94111C8.63408 5.93482 8.63212 5.93178 8.63247 5.93229C8.63291 5.93292 8.63377 5.93444 8.63435 5.93584C8.63488 5.93714 8.63385 5.93515 8.63256 5.92818C8.63122 5.92097 8.62935 5.907 8.62935 5.88475H6.62935C6.62935 6.451 6.8323 6.97755 7.25557 7.38389L8.64064 5.94111Z" fill="url(#paint1_linear_337_6411)" mask="url(#path-1-inside-1_337_6411)"/>
</g>
<defs>
<linearGradient id="paint0_linear_337_6411" x1="8.5" y1="0.5" x2="8.5" y2="17.5" gradientUnits="userSpaceOnUse">
<stop stop-color="#DD468F"/>
<stop offset="1" stop-color="#BB3777"/>
</linearGradient>
<linearGradient id="paint1_linear_337_6411" x1="8.5" y1="0.5" x2="8.5" y2="17.5" gradientUnits="userSpaceOnUse">
<stop stop-color="#DD468F"/>
<stop offset="1" stop-color="#BB3777"/>
</linearGradient>
</defs>
</svg>
